G04 #@! TF.GenerationSoftware,KiCad,Pcbnew,8.0.2-8.0.2-0~ubuntu22.04.1*
G04 #@! TF.CreationDate,2024-05-18T17:29:29+00:00*
G04 #@! TF.ProjectId,uaefi,75616566-692e-46b6-9963-61645f706362,C*
G04 #@! TF.SameCoordinates,Original*
G04 #@! TF.FileFunction,Legend,Bot*
G04 #@! TF.FilePolarity,Positive*
%FSLAX46Y46*%
G04 Gerber Fmt 4.6, Leading zero omitted, Abs format (unit mm)*
G04 Created by KiCad (PCBNEW 8.0.2-8.0.2-0~ubuntu22.04.1) date 2024-05-18 17:29:29*
%MOMM*%
%LPD*%
G01*
G04 APERTURE LIST*
%ADD10C,0.150000*%
%ADD11C,0.250000*%
%ADD12C,0.127000*%
%ADD13C,0.170000*%
%ADD14C,0.120000*%
%ADD15C,0.200000*%
%ADD16C,0.099060*%
G04 APERTURE END LIST*
D10*
X14928668Y9955000D02*
X14928668Y3555000D01*
X20002000Y18025000D02*
X20002000Y11625000D01*
X17470334Y9955000D02*
X17470334Y3555000D01*
X20012000Y9955000D02*
X20012000Y3555000D01*
X17477000Y18025000D02*
X17477000Y11625000D01*
X14927000Y18050000D02*
X14927000Y11650000D01*
X12387000Y9955000D02*
X12387000Y3555000D01*
X15706819Y21130953D02*
X15706819Y20511906D01*
X15706819Y20511906D02*
X16087771Y20845239D01*
X16087771Y20845239D02*
X16087771Y20702382D01*
X16087771Y20702382D02*
X16135390Y20607144D01*
X16135390Y20607144D02*
X16183009Y20559525D01*
X16183009Y20559525D02*
X16278247Y20511906D01*
X16278247Y20511906D02*
X16516342Y20511906D01*
X16516342Y20511906D02*
X16611580Y20559525D01*
X16611580Y20559525D02*
X16659200Y20607144D01*
X16659200Y20607144D02*
X16706819Y20702382D01*
X16706819Y20702382D02*
X16706819Y20988096D01*
X16706819Y20988096D02*
X16659200Y21083334D01*
X16659200Y21083334D02*
X16611580Y21130953D01*
X16611580Y20083334D02*
X16659200Y20035715D01*
X16659200Y20035715D02*
X16706819Y20083334D01*
X16706819Y20083334D02*
X16659200Y20130953D01*
X16659200Y20130953D02*
X16611580Y20083334D01*
X16611580Y20083334D02*
X16706819Y20083334D01*
X15706819Y19702382D02*
X15706819Y19083335D01*
X15706819Y19083335D02*
X16087771Y19416668D01*
X16087771Y19416668D02*
X16087771Y19273811D01*
X16087771Y19273811D02*
X16135390Y19178573D01*
X16135390Y19178573D02*
X16183009Y19130954D01*
X16183009Y19130954D02*
X16278247Y19083335D01*
X16278247Y19083335D02*
X16516342Y19083335D01*
X16516342Y19083335D02*
X16611580Y19130954D01*
X16611580Y19130954D02*
X16659200Y19178573D01*
X16659200Y19178573D02*
X16706819Y19273811D01*
X16706819Y19273811D02*
X16706819Y19559525D01*
X16706819Y19559525D02*
X16659200Y19654763D01*
X16659200Y19654763D02*
X16611580Y19702382D01*
X92792180Y118588096D02*
X93792180Y118588096D01*
X93077895Y119016667D02*
X93077895Y119492857D01*
X92792180Y118921429D02*
X93792180Y119254762D01*
X93792180Y119254762D02*
X92792180Y119588095D01*
X93792180Y119778572D02*
X93792180Y120350000D01*
X92792180Y120064286D02*
X93792180Y120064286D01*
X79522180Y107394049D02*
X80522180Y107394049D01*
X79522180Y107870239D02*
X80522180Y107870239D01*
X80522180Y107870239D02*
X79522180Y108441667D01*
X79522180Y108441667D02*
X80522180Y108441667D01*
X80522180Y109203572D02*
X79807895Y109203572D01*
X79807895Y109203572D02*
X79665038Y109155953D01*
X79665038Y109155953D02*
X79569800Y109060715D01*
X79569800Y109060715D02*
X79522180Y108917858D01*
X79522180Y108917858D02*
X79522180Y108822620D01*
X80522180Y110108334D02*
X80522180Y109917858D01*
X80522180Y109917858D02*
X80474561Y109822620D01*
X80474561Y109822620D02*
X80426942Y109775001D01*
X80426942Y109775001D02*
X80284085Y109679763D01*
X80284085Y109679763D02*
X80093609Y109632144D01*
X80093609Y109632144D02*
X79712657Y109632144D01*
X79712657Y109632144D02*
X79617419Y109679763D01*
X79617419Y109679763D02*
X79569800Y109727382D01*
X79569800Y109727382D02*
X79522180Y109822620D01*
X79522180Y109822620D02*
X79522180Y110013096D01*
X79522180Y110013096D02*
X79569800Y110108334D01*
X79569800Y110108334D02*
X79617419Y110155953D01*
X79617419Y110155953D02*
X79712657Y110203572D01*
X79712657Y110203572D02*
X79950752Y110203572D01*
X79950752Y110203572D02*
X80045990Y110155953D01*
X80045990Y110155953D02*
X80093609Y110108334D01*
X80093609Y110108334D02*
X80141228Y110013096D01*
X80141228Y110013096D02*
X80141228Y109822620D01*
X80141228Y109822620D02*
X80093609Y109727382D01*
X80093609Y109727382D02*
X80045990Y109679763D01*
X80045990Y109679763D02*
X79950752Y109632144D01*
X24581792Y108754762D02*
X24581792Y108278572D01*
X24581792Y108278572D02*
X25581792Y108278572D01*
X24629412Y109040477D02*
X24581792Y109183334D01*
X24581792Y109183334D02*
X24581792Y109421429D01*
X24581792Y109421429D02*
X24629412Y109516667D01*
X24629412Y109516667D02*
X24677031Y109564286D01*
X24677031Y109564286D02*
X24772269Y109611905D01*
X24772269Y109611905D02*
X24867507Y109611905D01*
X24867507Y109611905D02*
X24962745Y109564286D01*
X24962745Y109564286D02*
X25010364Y109516667D01*
X25010364Y109516667D02*
X25057983Y109421429D01*
X25057983Y109421429D02*
X25105602Y109230953D01*
X25105602Y109230953D02*
X25153221Y109135715D01*
X25153221Y109135715D02*
X25200840Y109088096D01*
X25200840Y109088096D02*
X25296078Y109040477D01*
X25296078Y109040477D02*
X25391316Y109040477D01*
X25391316Y109040477D02*
X25486554Y109088096D01*
X25486554Y109088096D02*
X25534173Y109135715D01*
X25534173Y109135715D02*
X25581792Y109230953D01*
X25581792Y109230953D02*
X25581792Y109469048D01*
X25581792Y109469048D02*
X25534173Y109611905D01*
X25486554Y109992858D02*
X25534173Y110040477D01*
X25534173Y110040477D02*
X25581792Y110135715D01*
X25581792Y110135715D02*
X25581792Y110373810D01*
X25581792Y110373810D02*
X25534173Y110469048D01*
X25534173Y110469048D02*
X25486554Y110516667D01*
X25486554Y110516667D02*
X25391316Y110564286D01*
X25391316Y110564286D02*
X25296078Y110564286D01*
X25296078Y110564286D02*
X25153221Y110516667D01*
X25153221Y110516667D02*
X24581792Y109945239D01*
X24581792Y109945239D02*
X24581792Y110564286D01*
X86206794Y107394049D02*
X87206794Y107394049D01*
X86206794Y107870239D02*
X87206794Y107870239D01*
X87206794Y107870239D02*
X86206794Y108441667D01*
X86206794Y108441667D02*
X87206794Y108441667D01*
X87206794Y109203572D02*
X86492509Y109203572D01*
X86492509Y109203572D02*
X86349652Y109155953D01*
X86349652Y109155953D02*
X86254414Y109060715D01*
X86254414Y109060715D02*
X86206794Y108917858D01*
X86206794Y108917858D02*
X86206794Y108822620D01*
X86873461Y110108334D02*
X86206794Y110108334D01*
X87254414Y109870239D02*
X86540128Y109632144D01*
X86540128Y109632144D02*
X86540128Y110251191D01*
X11072180Y119133334D02*
X11072180Y118657144D01*
X11072180Y118657144D02*
X12072180Y118657144D01*
X11119800Y119419049D02*
X11072180Y119561906D01*
X11072180Y119561906D02*
X11072180Y119800001D01*
X11072180Y119800001D02*
X11119800Y119895239D01*
X11119800Y119895239D02*
X11167419Y119942858D01*
X11167419Y119942858D02*
X11262657Y119990477D01*
X11262657Y119990477D02*
X11357895Y119990477D01*
X11357895Y119990477D02*
X11453133Y119942858D01*
X11453133Y119942858D02*
X11500752Y119895239D01*
X11500752Y119895239D02*
X11548371Y119800001D01*
X11548371Y119800001D02*
X11595990Y119609525D01*
X11595990Y119609525D02*
X11643609Y119514287D01*
X11643609Y119514287D02*
X11691228Y119466668D01*
X11691228Y119466668D02*
X11786466Y119419049D01*
X11786466Y119419049D02*
X11881704Y119419049D01*
X11881704Y119419049D02*
X11976942Y119466668D01*
X11976942Y119466668D02*
X12024561Y119514287D01*
X12024561Y119514287D02*
X12072180Y119609525D01*
X12072180Y119609525D02*
X12072180Y119847620D01*
X12072180Y119847620D02*
X12024561Y119990477D01*
X11072180Y120419049D02*
X12072180Y120419049D01*
X11595990Y120419049D02*
X11595990Y120990477D01*
X11072180Y120990477D02*
X12072180Y120990477D01*
X11976942Y121419049D02*
X12024561Y121466668D01*
X12024561Y121466668D02*
X12072180Y121561906D01*
X12072180Y121561906D02*
X12072180Y121800001D01*
X12072180Y121800001D02*
X12024561Y121895239D01*
X12024561Y121895239D02*
X11976942Y121942858D01*
X11976942Y121942858D02*
X11881704Y121990477D01*
X11881704Y121990477D02*
X11786466Y121990477D01*
X11786466Y121990477D02*
X11643609Y121942858D01*
X11643609Y121942858D02*
X11072180Y121371430D01*
X11072180Y121371430D02*
X11072180Y121990477D01*
X35572632Y108469049D02*
X35620251Y108373811D01*
X35620251Y108373811D02*
X35620251Y108230954D01*
X35620251Y108230954D02*
X35572632Y108088097D01*
X35572632Y108088097D02*
X35477394Y107992859D01*
X35477394Y107992859D02*
X35382156Y107945240D01*
X35382156Y107945240D02*
X35191680Y107897621D01*
X35191680Y107897621D02*
X35048823Y107897621D01*
X35048823Y107897621D02*
X34858347Y107945240D01*
X34858347Y107945240D02*
X34763109Y107992859D01*
X34763109Y107992859D02*
X34667871Y108088097D01*
X34667871Y108088097D02*
X34620251Y108230954D01*
X34620251Y108230954D02*
X34620251Y108326192D01*
X34620251Y108326192D02*
X34667871Y108469049D01*
X34667871Y108469049D02*
X34715490Y108516668D01*
X34715490Y108516668D02*
X35048823Y108516668D01*
X35048823Y108516668D02*
X35048823Y108326192D01*
X34620251Y108945240D02*
X35620251Y108945240D01*
X35620251Y108945240D02*
X34620251Y109516668D01*
X34620251Y109516668D02*
X35620251Y109516668D01*
X34620251Y109992859D02*
X35620251Y109992859D01*
X35620251Y109992859D02*
X35620251Y110230954D01*
X35620251Y110230954D02*
X35572632Y110373811D01*
X35572632Y110373811D02*
X35477394Y110469049D01*
X35477394Y110469049D02*
X35382156Y110516668D01*
X35382156Y110516668D02*
X35191680Y110564287D01*
X35191680Y110564287D02*
X35048823Y110564287D01*
X35048823Y110564287D02*
X34858347Y110516668D01*
X34858347Y110516668D02*
X34763109Y110469049D01*
X34763109Y110469049D02*
X34667871Y110373811D01*
X34667871Y110373811D02*
X34620251Y110230954D01*
X34620251Y110230954D02*
X34620251Y109992859D01*
X10666938Y21178572D02*
X10619319Y21273810D01*
X10619319Y21273810D02*
X10619319Y21416667D01*
X10619319Y21416667D02*
X10666938Y21559524D01*
X10666938Y21559524D02*
X10762176Y21654762D01*
X10762176Y21654762D02*
X10857414Y21702381D01*
X10857414Y21702381D02*
X11047890Y21750000D01*
X11047890Y21750000D02*
X11190747Y21750000D01*
X11190747Y21750000D02*
X11381223Y21702381D01*
X11381223Y21702381D02*
X11476461Y21654762D01*
X11476461Y21654762D02*
X11571700Y21559524D01*
X11571700Y21559524D02*
X11619319Y21416667D01*
X11619319Y21416667D02*
X11619319Y21321429D01*
X11619319Y21321429D02*
X11571700Y21178572D01*
X11571700Y21178572D02*
X11524080Y21130953D01*
X11524080Y21130953D02*
X11190747Y21130953D01*
X11190747Y21130953D02*
X11190747Y21321429D01*
X11619319Y20702381D02*
X10619319Y20702381D01*
X10619319Y20702381D02*
X11619319Y20130953D01*
X11619319Y20130953D02*
X10619319Y20130953D01*
X11619319Y19654762D02*
X10619319Y19654762D01*
X10619319Y19654762D02*
X10619319Y19416667D01*
X10619319Y19416667D02*
X10666938Y19273810D01*
X10666938Y19273810D02*
X10762176Y19178572D01*
X10762176Y19178572D02*
X10857414Y19130953D01*
X10857414Y19130953D02*
X11047890Y19083334D01*
X11047890Y19083334D02*
X11190747Y19083334D01*
X11190747Y19083334D02*
X11381223Y19130953D01*
X11381223Y19130953D02*
X11476461Y19178572D01*
X11476461Y19178572D02*
X11571700Y19273810D01*
X11571700Y19273810D02*
X11619319Y19416667D01*
X11619319Y19416667D02*
X11619319Y19654762D01*
X41312557Y106516668D02*
X42312557Y106516668D01*
X41836367Y106516668D02*
X41836367Y107088096D01*
X41312557Y107088096D02*
X42312557Y107088096D01*
X41598272Y107516668D02*
X41598272Y107992858D01*
X41312557Y107421430D02*
X42312557Y107754763D01*
X42312557Y107754763D02*
X41312557Y108088096D01*
X41312557Y108897620D02*
X41312557Y108421430D01*
X41312557Y108421430D02*
X42312557Y108421430D01*
X41312557Y109707144D02*
X41312557Y109230954D01*
X41312557Y109230954D02*
X42312557Y109230954D01*
X42312557Y109945240D02*
X42312557Y110564287D01*
X42312557Y110564287D02*
X41931605Y110230954D01*
X41931605Y110230954D02*
X41931605Y110373811D01*
X41931605Y110373811D02*
X41883986Y110469049D01*
X41883986Y110469049D02*
X41836367Y110516668D01*
X41836367Y110516668D02*
X41741129Y110564287D01*
X41741129Y110564287D02*
X41503034Y110564287D01*
X41503034Y110564287D02*
X41407796Y110516668D01*
X41407796Y110516668D02*
X41360177Y110469049D01*
X41360177Y110469049D02*
X41312557Y110373811D01*
X41312557Y110373811D02*
X41312557Y110088097D01*
X41312557Y110088097D02*
X41360177Y109992859D01*
X41360177Y109992859D02*
X41407796Y109945240D01*
X24495256Y118657143D02*
X25495256Y118657143D01*
X25495256Y118657143D02*
X25495256Y118895238D01*
X25495256Y118895238D02*
X25447637Y119038095D01*
X25447637Y119038095D02*
X25352399Y119133333D01*
X25352399Y119133333D02*
X25257161Y119180952D01*
X25257161Y119180952D02*
X25066685Y119228571D01*
X25066685Y119228571D02*
X24923828Y119228571D01*
X24923828Y119228571D02*
X24733352Y119180952D01*
X24733352Y119180952D02*
X24638114Y119133333D01*
X24638114Y119133333D02*
X24542876Y119038095D01*
X24542876Y119038095D02*
X24495256Y118895238D01*
X24495256Y118895238D02*
X24495256Y118657143D01*
X24590495Y120228571D02*
X24542876Y120180952D01*
X24542876Y120180952D02*
X24495256Y120038095D01*
X24495256Y120038095D02*
X24495256Y119942857D01*
X24495256Y119942857D02*
X24542876Y119800000D01*
X24542876Y119800000D02*
X24638114Y119704762D01*
X24638114Y119704762D02*
X24733352Y119657143D01*
X24733352Y119657143D02*
X24923828Y119609524D01*
X24923828Y119609524D02*
X25066685Y119609524D01*
X25066685Y119609524D02*
X25257161Y119657143D01*
X25257161Y119657143D02*
X25352399Y119704762D01*
X25352399Y119704762D02*
X25447637Y119800000D01*
X25447637Y119800000D02*
X25495256Y119942857D01*
X25495256Y119942857D02*
X25495256Y120038095D01*
X25495256Y120038095D02*
X25447637Y120180952D01*
X25447637Y120180952D02*
X25400018Y120228571D01*
X25400018Y120609524D02*
X25447637Y120657143D01*
X25447637Y120657143D02*
X25495256Y120752381D01*
X25495256Y120752381D02*
X25495256Y120990476D01*
X25495256Y120990476D02*
X25447637Y121085714D01*
X25447637Y121085714D02*
X25400018Y121133333D01*
X25400018Y121133333D02*
X25304780Y121180952D01*
X25304780Y121180952D02*
X25209542Y121180952D01*
X25209542Y121180952D02*
X25066685Y121133333D01*
X25066685Y121133333D02*
X24495256Y120561905D01*
X24495256Y120561905D02*
X24495256Y121180952D01*
X24876209Y121609524D02*
X24876209Y122371428D01*
X24495256Y121990476D02*
X25257161Y121990476D01*
X34562563Y118657143D02*
X35562563Y118657143D01*
X35562563Y118657143D02*
X35562563Y118895238D01*
X35562563Y118895238D02*
X35514944Y119038095D01*
X35514944Y119038095D02*
X35419706Y119133333D01*
X35419706Y119133333D02*
X35324468Y119180952D01*
X35324468Y119180952D02*
X35133992Y119228571D01*
X35133992Y119228571D02*
X34991135Y119228571D01*
X34991135Y119228571D02*
X34800659Y119180952D01*
X34800659Y119180952D02*
X34705421Y119133333D01*
X34705421Y119133333D02*
X34610183Y119038095D01*
X34610183Y119038095D02*
X34562563Y118895238D01*
X34562563Y118895238D02*
X34562563Y118657143D01*
X34562563Y119657143D02*
X35562563Y119657143D01*
X34610183Y120085714D02*
X34562563Y120228571D01*
X34562563Y120228571D02*
X34562563Y120466666D01*
X34562563Y120466666D02*
X34610183Y120561904D01*
X34610183Y120561904D02*
X34657802Y120609523D01*
X34657802Y120609523D02*
X34753040Y120657142D01*
X34753040Y120657142D02*
X34848278Y120657142D01*
X34848278Y120657142D02*
X34943516Y120609523D01*
X34943516Y120609523D02*
X34991135Y120561904D01*
X34991135Y120561904D02*
X35038754Y120466666D01*
X35038754Y120466666D02*
X35086373Y120276190D01*
X35086373Y120276190D02*
X35133992Y120180952D01*
X35133992Y120180952D02*
X35181611Y120133333D01*
X35181611Y120133333D02*
X35276849Y120085714D01*
X35276849Y120085714D02*
X35372087Y120085714D01*
X35372087Y120085714D02*
X35467325Y120133333D01*
X35467325Y120133333D02*
X35514944Y120180952D01*
X35514944Y120180952D02*
X35562563Y120276190D01*
X35562563Y120276190D02*
X35562563Y120514285D01*
X35562563Y120514285D02*
X35514944Y120657142D01*
X34943516Y121085714D02*
X34943516Y121847618D01*
X34562563Y121466666D02*
X35324468Y121466666D01*
X96217419Y119159525D02*
X96169800Y119111906D01*
X96169800Y119111906D02*
X96122180Y118969049D01*
X96122180Y118969049D02*
X96122180Y118873811D01*
X96122180Y118873811D02*
X96169800Y118730954D01*
X96169800Y118730954D02*
X96265038Y118635716D01*
X96265038Y118635716D02*
X96360276Y118588097D01*
X96360276Y118588097D02*
X96550752Y118540478D01*
X96550752Y118540478D02*
X96693609Y118540478D01*
X96693609Y118540478D02*
X96884085Y118588097D01*
X96884085Y118588097D02*
X96979323Y118635716D01*
X96979323Y118635716D02*
X97074561Y118730954D01*
X97074561Y118730954D02*
X97122180Y118873811D01*
X97122180Y118873811D02*
X97122180Y118969049D01*
X97122180Y118969049D02*
X97074561Y119111906D01*
X97074561Y119111906D02*
X97026942Y119159525D01*
X96122180Y120064287D02*
X96122180Y119588097D01*
X96122180Y119588097D02*
X97122180Y119588097D01*
X97122180Y120254764D02*
X97122180Y120826192D01*
X96122180Y120540478D02*
X97122180Y120540478D01*
X106247180Y118588096D02*
X107247180Y118588096D01*
X106247180Y119159524D02*
X106818609Y118730953D01*
X107247180Y119159524D02*
X106675752Y118588096D01*
X106247180Y119588096D02*
X107247180Y119588096D01*
X107247180Y119588096D02*
X106247180Y120159524D01*
X106247180Y120159524D02*
X107247180Y120159524D01*
X107247180Y120826191D02*
X107247180Y121016667D01*
X107247180Y121016667D02*
X107199561Y121111905D01*
X107199561Y121111905D02*
X107104323Y121207143D01*
X107104323Y121207143D02*
X106913847Y121254762D01*
X106913847Y121254762D02*
X106580514Y121254762D01*
X106580514Y121254762D02*
X106390038Y121207143D01*
X106390038Y121207143D02*
X106294800Y121111905D01*
X106294800Y121111905D02*
X106247180Y121016667D01*
X106247180Y121016667D02*
X106247180Y120826191D01*
X106247180Y120826191D02*
X106294800Y120730953D01*
X106294800Y120730953D02*
X106390038Y120635715D01*
X106390038Y120635715D02*
X106580514Y120588096D01*
X106580514Y120588096D02*
X106913847Y120588096D01*
X106913847Y120588096D02*
X107104323Y120635715D01*
X107104323Y120635715D02*
X107199561Y120730953D01*
X107199561Y120730953D02*
X107247180Y120826191D01*
X106342419Y122254762D02*
X106294800Y122207143D01*
X106294800Y122207143D02*
X106247180Y122064286D01*
X106247180Y122064286D02*
X106247180Y121969048D01*
X106247180Y121969048D02*
X106294800Y121826191D01*
X106294800Y121826191D02*
X106390038Y121730953D01*
X106390038Y121730953D02*
X106485276Y121683334D01*
X106485276Y121683334D02*
X106675752Y121635715D01*
X106675752Y121635715D02*
X106818609Y121635715D01*
X106818609Y121635715D02*
X107009085Y121683334D01*
X107009085Y121683334D02*
X107104323Y121730953D01*
X107104323Y121730953D02*
X107199561Y121826191D01*
X107199561Y121826191D02*
X107247180Y121969048D01*
X107247180Y121969048D02*
X107247180Y122064286D01*
X107247180Y122064286D02*
X107199561Y122207143D01*
X107199561Y122207143D02*
X107151942Y122254762D01*
X106247180Y122683334D02*
X107247180Y122683334D01*
X106247180Y123254762D02*
X106818609Y122826191D01*
X107247180Y123254762D02*
X106675752Y122683334D01*
X38918785Y108469049D02*
X38966404Y108373811D01*
X38966404Y108373811D02*
X38966404Y108230954D01*
X38966404Y108230954D02*
X38918785Y108088097D01*
X38918785Y108088097D02*
X38823547Y107992859D01*
X38823547Y107992859D02*
X38728309Y107945240D01*
X38728309Y107945240D02*
X38537833Y107897621D01*
X38537833Y107897621D02*
X38394976Y107897621D01*
X38394976Y107897621D02*
X38204500Y107945240D01*
X38204500Y107945240D02*
X38109262Y107992859D01*
X38109262Y107992859D02*
X38014024Y108088097D01*
X38014024Y108088097D02*
X37966404Y108230954D01*
X37966404Y108230954D02*
X37966404Y108326192D01*
X37966404Y108326192D02*
X38014024Y108469049D01*
X38014024Y108469049D02*
X38061643Y108516668D01*
X38061643Y108516668D02*
X38394976Y108516668D01*
X38394976Y108516668D02*
X38394976Y108326192D01*
X37966404Y108945240D02*
X38966404Y108945240D01*
X38966404Y108945240D02*
X37966404Y109516668D01*
X37966404Y109516668D02*
X38966404Y109516668D01*
X37966404Y109992859D02*
X38966404Y109992859D01*
X38966404Y109992859D02*
X38966404Y110230954D01*
X38966404Y110230954D02*
X38918785Y110373811D01*
X38918785Y110373811D02*
X38823547Y110469049D01*
X38823547Y110469049D02*
X38728309Y110516668D01*
X38728309Y110516668D02*
X38537833Y110564287D01*
X38537833Y110564287D02*
X38394976Y110564287D01*
X38394976Y110564287D02*
X38204500Y110516668D01*
X38204500Y110516668D02*
X38109262Y110469049D01*
X38109262Y110469049D02*
X38014024Y110373811D01*
X38014024Y110373811D02*
X37966404Y110230954D01*
X37966404Y110230954D02*
X37966404Y109992859D01*
X18250569Y20845239D02*
X18250569Y21321429D01*
X18250569Y21321429D02*
X18726759Y21369048D01*
X18726759Y21369048D02*
X18679140Y21321429D01*
X18679140Y21321429D02*
X18631521Y21226191D01*
X18631521Y21226191D02*
X18631521Y20988096D01*
X18631521Y20988096D02*
X18679140Y20892858D01*
X18679140Y20892858D02*
X18726759Y20845239D01*
X18726759Y20845239D02*
X18821997Y20797620D01*
X18821997Y20797620D02*
X19060092Y20797620D01*
X19060092Y20797620D02*
X19155330Y20845239D01*
X19155330Y20845239D02*
X19202950Y20892858D01*
X19202950Y20892858D02*
X19250569Y20988096D01*
X19250569Y20988096D02*
X19250569Y21226191D01*
X19250569Y21226191D02*
X19202950Y21321429D01*
X19202950Y21321429D02*
X19155330Y21369048D01*
X18250569Y20511905D02*
X19250569Y20178572D01*
X19250569Y20178572D02*
X18250569Y19845239D01*
X18964854Y19559524D02*
X18964854Y19083334D01*
X19250569Y19654762D02*
X18250569Y19321429D01*
X18250569Y19321429D02*
X19250569Y18988096D01*
X44629870Y118704763D02*
X44629870Y118895239D01*
X44629870Y118895239D02*
X44677490Y118990477D01*
X44677490Y118990477D02*
X44725109Y119038096D01*
X44725109Y119038096D02*
X44867966Y119133334D01*
X44867966Y119133334D02*
X45058442Y119180953D01*
X45058442Y119180953D02*
X45439394Y119180953D01*
X45439394Y119180953D02*
X45534632Y119133334D01*
X45534632Y119133334D02*
X45582251Y119085715D01*
X45582251Y119085715D02*
X45629870Y118990477D01*
X45629870Y118990477D02*
X45629870Y118800001D01*
X45629870Y118800001D02*
X45582251Y118704763D01*
X45582251Y118704763D02*
X45534632Y118657144D01*
X45534632Y118657144D02*
X45439394Y118609525D01*
X45439394Y118609525D02*
X45201299Y118609525D01*
X45201299Y118609525D02*
X45106061Y118657144D01*
X45106061Y118657144D02*
X45058442Y118704763D01*
X45058442Y118704763D02*
X45010823Y118800001D01*
X45010823Y118800001D02*
X45010823Y118990477D01*
X45010823Y118990477D02*
X45058442Y119085715D01*
X45058442Y119085715D02*
X45106061Y119133334D01*
X45106061Y119133334D02*
X45201299Y119180953D01*
X44629870Y119657144D02*
X44629870Y119847620D01*
X44629870Y119847620D02*
X44677490Y119942858D01*
X44677490Y119942858D02*
X44725109Y119990477D01*
X44725109Y119990477D02*
X44867966Y120085715D01*
X44867966Y120085715D02*
X45058442Y120133334D01*
X45058442Y120133334D02*
X45439394Y120133334D01*
X45439394Y120133334D02*
X45534632Y120085715D01*
X45534632Y120085715D02*
X45582251Y120038096D01*
X45582251Y120038096D02*
X45629870Y119942858D01*
X45629870Y119942858D02*
X45629870Y119752382D01*
X45629870Y119752382D02*
X45582251Y119657144D01*
X45582251Y119657144D02*
X45534632Y119609525D01*
X45534632Y119609525D02*
X45439394Y119561906D01*
X45439394Y119561906D02*
X45201299Y119561906D01*
X45201299Y119561906D02*
X45106061Y119609525D01*
X45106061Y119609525D02*
X45058442Y119657144D01*
X45058442Y119657144D02*
X45010823Y119752382D01*
X45010823Y119752382D02*
X45010823Y119942858D01*
X45010823Y119942858D02*
X45058442Y120038096D01*
X45058442Y120038096D02*
X45106061Y120085715D01*
X45106061Y120085715D02*
X45201299Y120133334D01*
X45534632Y120514287D02*
X45582251Y120561906D01*
X45582251Y120561906D02*
X45629870Y120657144D01*
X45629870Y120657144D02*
X45629870Y120895239D01*
X45629870Y120895239D02*
X45582251Y120990477D01*
X45582251Y120990477D02*
X45534632Y121038096D01*
X45534632Y121038096D02*
X45439394Y121085715D01*
X45439394Y121085715D02*
X45344156Y121085715D01*
X45344156Y121085715D02*
X45201299Y121038096D01*
X45201299Y121038096D02*
X44629870Y120466668D01*
X44629870Y120466668D02*
X44629870Y121085715D01*
X45296537Y121942858D02*
X44629870Y121942858D01*
X45677490Y121704763D02*
X44963204Y121466668D01*
X44963204Y121466668D02*
X44963204Y122085715D01*
X45010823Y122466668D02*
X45010823Y123228572D01*
X100099832Y107203572D02*
X100052213Y107346429D01*
X100052213Y107346429D02*
X100004594Y107394048D01*
X100004594Y107394048D02*
X99909356Y107441667D01*
X99909356Y107441667D02*
X99766499Y107441667D01*
X99766499Y107441667D02*
X99671261Y107394048D01*
X99671261Y107394048D02*
X99623642Y107346429D01*
X99623642Y107346429D02*
X99576022Y107251191D01*
X99576022Y107251191D02*
X99576022Y106870239D01*
X99576022Y106870239D02*
X100576022Y106870239D01*
X100576022Y106870239D02*
X100576022Y107203572D01*
X100576022Y107203572D02*
X100528403Y107298810D01*
X100528403Y107298810D02*
X100480784Y107346429D01*
X100480784Y107346429D02*
X100385546Y107394048D01*
X100385546Y107394048D02*
X100290308Y107394048D01*
X100290308Y107394048D02*
X100195070Y107346429D01*
X100195070Y107346429D02*
X100147451Y107298810D01*
X100147451Y107298810D02*
X100099832Y107203572D01*
X100099832Y107203572D02*
X100099832Y106870239D01*
X100576022Y107727382D02*
X100576022Y108298810D01*
X99576022Y108013096D02*
X100576022Y108013096D01*
X99576022Y108632144D02*
X100576022Y108632144D01*
X100576022Y108632144D02*
X99576022Y109203572D01*
X99576022Y109203572D02*
X100576022Y109203572D01*
X100576022Y109584525D02*
X100576022Y110203572D01*
X100576022Y110203572D02*
X100195070Y109870239D01*
X100195070Y109870239D02*
X100195070Y110013096D01*
X100195070Y110013096D02*
X100147451Y110108334D01*
X100147451Y110108334D02*
X100099832Y110155953D01*
X100099832Y110155953D02*
X100004594Y110203572D01*
X100004594Y110203572D02*
X99766499Y110203572D01*
X99766499Y110203572D02*
X99671261Y110155953D01*
X99671261Y110155953D02*
X99623642Y110108334D01*
X99623642Y110108334D02*
X99576022Y110013096D01*
X99576022Y110013096D02*
X99576022Y109727382D01*
X99576022Y109727382D02*
X99623642Y109632144D01*
X99623642Y109632144D02*
X99671261Y109584525D01*
X54982895Y118609524D02*
X54982895Y119085714D01*
X54697180Y118514286D02*
X55697180Y118847619D01*
X55697180Y118847619D02*
X54697180Y119180952D01*
X55697180Y119514286D02*
X54887657Y119514286D01*
X54887657Y119514286D02*
X54792419Y119561905D01*
X54792419Y119561905D02*
X54744800Y119609524D01*
X54744800Y119609524D02*
X54697180Y119704762D01*
X54697180Y119704762D02*
X54697180Y119895238D01*
X54697180Y119895238D02*
X54744800Y119990476D01*
X54744800Y119990476D02*
X54792419Y120038095D01*
X54792419Y120038095D02*
X54887657Y120085714D01*
X54887657Y120085714D02*
X55697180Y120085714D01*
X55697180Y120466667D02*
X54697180Y121133333D01*
X55697180Y121133333D02*
X54697180Y120466667D01*
X55601942Y121466667D02*
X55649561Y121514286D01*
X55649561Y121514286D02*
X55697180Y121609524D01*
X55697180Y121609524D02*
X55697180Y121847619D01*
X55697180Y121847619D02*
X55649561Y121942857D01*
X55649561Y121942857D02*
X55601942Y121990476D01*
X55601942Y121990476D02*
X55506704Y122038095D01*
X55506704Y122038095D02*
X55411466Y122038095D01*
X55411466Y122038095D02*
X55268609Y121990476D01*
X55268609Y121990476D02*
X54697180Y121419048D01*
X54697180Y121419048D02*
X54697180Y122038095D01*
X87132180Y118445240D02*
X87132180Y119016668D01*
X86132180Y118730954D02*
X87132180Y118730954D01*
X86132180Y119350002D02*
X87132180Y119350002D01*
X87132180Y119350002D02*
X87132180Y119730954D01*
X87132180Y119730954D02*
X87084561Y119826192D01*
X87084561Y119826192D02*
X87036942Y119873811D01*
X87036942Y119873811D02*
X86941704Y119921430D01*
X86941704Y119921430D02*
X86798847Y119921430D01*
X86798847Y119921430D02*
X86703609Y119873811D01*
X86703609Y119873811D02*
X86655990Y119826192D01*
X86655990Y119826192D02*
X86608371Y119730954D01*
X86608371Y119730954D02*
X86608371Y119350002D01*
X86179800Y120302383D02*
X86132180Y120445240D01*
X86132180Y120445240D02*
X86132180Y120683335D01*
X86132180Y120683335D02*
X86179800Y120778573D01*
X86179800Y120778573D02*
X86227419Y120826192D01*
X86227419Y120826192D02*
X86322657Y120873811D01*
X86322657Y120873811D02*
X86417895Y120873811D01*
X86417895Y120873811D02*
X86513133Y120826192D01*
X86513133Y120826192D02*
X86560752Y120778573D01*
X86560752Y120778573D02*
X86608371Y120683335D01*
X86608371Y120683335D02*
X86655990Y120492859D01*
X86655990Y120492859D02*
X86703609Y120397621D01*
X86703609Y120397621D02*
X86751228Y120350002D01*
X86751228Y120350002D02*
X86846466Y120302383D01*
X86846466Y120302383D02*
X86941704Y120302383D01*
X86941704Y120302383D02*
X87036942Y120350002D01*
X87036942Y120350002D02*
X87084561Y120397621D01*
X87084561Y120397621D02*
X87132180Y120492859D01*
X87132180Y120492859D02*
X87132180Y120730954D01*
X87132180Y120730954D02*
X87084561Y120873811D01*
X86132180Y121826192D02*
X86132180Y121254764D01*
X86132180Y121540478D02*
X87132180Y121540478D01*
X87132180Y121540478D02*
X86989323Y121445240D01*
X86989323Y121445240D02*
X86894085Y121350002D01*
X86894085Y121350002D02*
X86846466Y121254764D01*
X47985639Y118657144D02*
X48985639Y118657144D01*
X48509449Y118657144D02*
X48509449Y119228572D01*
X47985639Y119228572D02*
X48985639Y119228572D01*
X48271354Y119657144D02*
X48271354Y120133334D01*
X47985639Y119561906D02*
X48985639Y119895239D01*
X48985639Y119895239D02*
X47985639Y120228572D01*
X47985639Y121038096D02*
X47985639Y120561906D01*
X47985639Y120561906D02*
X48985639Y120561906D01*
X47985639Y121847620D02*
X47985639Y121371430D01*
X47985639Y121371430D02*
X48985639Y121371430D01*
X47985639Y122704763D02*
X47985639Y122133335D01*
X47985639Y122419049D02*
X48985639Y122419049D01*
X48985639Y122419049D02*
X48842782Y122323811D01*
X48842782Y122323811D02*
X48747544Y122228573D01*
X48747544Y122228573D02*
X48699925Y122133335D01*
X100474561Y119111905D02*
X100522180Y119016667D01*
X100522180Y119016667D02*
X100522180Y118873810D01*
X100522180Y118873810D02*
X100474561Y118730953D01*
X100474561Y118730953D02*
X100379323Y118635715D01*
X100379323Y118635715D02*
X100284085Y118588096D01*
X100284085Y118588096D02*
X100093609Y118540477D01*
X100093609Y118540477D02*
X99950752Y118540477D01*
X99950752Y118540477D02*
X99760276Y118588096D01*
X99760276Y118588096D02*
X99665038Y118635715D01*
X99665038Y118635715D02*
X99569800Y118730953D01*
X99569800Y118730953D02*
X99522180Y118873810D01*
X99522180Y118873810D02*
X99522180Y118969048D01*
X99522180Y118969048D02*
X99569800Y119111905D01*
X99569800Y119111905D02*
X99617419Y119159524D01*
X99617419Y119159524D02*
X99950752Y119159524D01*
X99950752Y119159524D02*
X99950752Y118969048D01*
X99522180Y119588096D02*
X100522180Y119588096D01*
X100522180Y119588096D02*
X99522180Y120159524D01*
X99522180Y120159524D02*
X100522180Y120159524D01*
X99522180Y120635715D02*
X100522180Y120635715D01*
X100522180Y120635715D02*
X100522180Y120873810D01*
X100522180Y120873810D02*
X100474561Y121016667D01*
X100474561Y121016667D02*
X100379323Y121111905D01*
X100379323Y121111905D02*
X100284085Y121159524D01*
X100284085Y121159524D02*
X100093609Y121207143D01*
X100093609Y121207143D02*
X99950752Y121207143D01*
X99950752Y121207143D02*
X99760276Y121159524D01*
X99760276Y121159524D02*
X99665038Y121111905D01*
X99665038Y121111905D02*
X99569800Y121016667D01*
X99569800Y121016667D02*
X99522180Y120873810D01*
X99522180Y120873810D02*
X99522180Y120635715D01*
X99807895Y121588096D02*
X99807895Y122064286D01*
X99522180Y121492858D02*
X100522180Y121826191D01*
X100522180Y121826191D02*
X99522180Y122159524D01*
D11*
X111220100Y30387188D02*
X111220100Y31101473D01*
X110791529Y30244331D02*
X112291529Y30744331D01*
X112291529Y30744331D02*
X110791529Y31244331D01*
X110791529Y31958616D02*
X110862958Y31815759D01*
X110862958Y31815759D02*
X111005815Y31744330D01*
X111005815Y31744330D02*
X112291529Y31744330D01*
X111791529Y32387187D02*
X110791529Y32672901D01*
X110791529Y32672901D02*
X111505815Y32958616D01*
X111505815Y32958616D02*
X110791529Y33244330D01*
X110791529Y33244330D02*
X111791529Y33530044D01*
X110791529Y34744330D02*
X111577243Y34744330D01*
X111577243Y34744330D02*
X111720100Y34672902D01*
X111720100Y34672902D02*
X111791529Y34530045D01*
X111791529Y34530045D02*
X111791529Y34244330D01*
X111791529Y34244330D02*
X111720100Y34101473D01*
X110862958Y34744330D02*
X110791529Y34601473D01*
X110791529Y34601473D02*
X110791529Y34244330D01*
X110791529Y34244330D02*
X110862958Y34101473D01*
X110862958Y34101473D02*
X111005815Y34030045D01*
X111005815Y34030045D02*
X111148672Y34030045D01*
X111148672Y34030045D02*
X111291529Y34101473D01*
X111291529Y34101473D02*
X111362958Y34244330D01*
X111362958Y34244330D02*
X111362958Y34601473D01*
X111362958Y34601473D02*
X111434386Y34744330D01*
X111791529Y35315759D02*
X110791529Y35672902D01*
X111791529Y36030045D02*
X110791529Y35672902D01*
X110791529Y35672902D02*
X110434386Y35530045D01*
X110434386Y35530045D02*
X110362958Y35458616D01*
X110362958Y35458616D02*
X110291529Y35315759D01*
X110862958Y36530045D02*
X110791529Y36672902D01*
X110791529Y36672902D02*
X110791529Y36958616D01*
X110791529Y36958616D02*
X110862958Y37101473D01*
X110862958Y37101473D02*
X111005815Y37172902D01*
X111005815Y37172902D02*
X111077243Y37172902D01*
X111077243Y37172902D02*
X111220100Y37101473D01*
X111220100Y37101473D02*
X111291529Y36958616D01*
X111291529Y36958616D02*
X111291529Y36744330D01*
X111291529Y36744330D02*
X111362958Y36601473D01*
X111362958Y36601473D02*
X111505815Y36530045D01*
X111505815Y36530045D02*
X111577243Y36530045D01*
X111577243Y36530045D02*
X111720100Y36601473D01*
X111720100Y36601473D02*
X111791529Y36744330D01*
X111791529Y36744330D02*
X111791529Y36958616D01*
X111791529Y36958616D02*
X111720100Y37101473D01*
X110791529Y39172902D02*
X110862958Y39030045D01*
X110862958Y39030045D02*
X111005815Y38958616D01*
X111005815Y38958616D02*
X112291529Y38958616D01*
X110791529Y39958616D02*
X110862958Y39815759D01*
X110862958Y39815759D02*
X110934386Y39744330D01*
X110934386Y39744330D02*
X111077243Y39672902D01*
X111077243Y39672902D02*
X111505815Y39672902D01*
X111505815Y39672902D02*
X111648672Y39744330D01*
X111648672Y39744330D02*
X111720100Y39815759D01*
X111720100Y39815759D02*
X111791529Y39958616D01*
X111791529Y39958616D02*
X111791529Y40172902D01*
X111791529Y40172902D02*
X111720100Y40315759D01*
X111720100Y40315759D02*
X111648672Y40387187D01*
X111648672Y40387187D02*
X111505815Y40458616D01*
X111505815Y40458616D02*
X111077243Y40458616D01*
X111077243Y40458616D02*
X110934386Y40387187D01*
X110934386Y40387187D02*
X110862958Y40315759D01*
X110862958Y40315759D02*
X110791529Y40172902D01*
X110791529Y40172902D02*
X110791529Y39958616D01*
X110791529Y41315759D02*
X110862958Y41172902D01*
X110862958Y41172902D02*
X110934386Y41101473D01*
X110934386Y41101473D02*
X111077243Y41030045D01*
X111077243Y41030045D02*
X111505815Y41030045D01*
X111505815Y41030045D02*
X111648672Y41101473D01*
X111648672Y41101473D02*
X111720100Y41172902D01*
X111720100Y41172902D02*
X111791529Y41315759D01*
X111791529Y41315759D02*
X111791529Y41530045D01*
X111791529Y41530045D02*
X111720100Y41672902D01*
X111720100Y41672902D02*
X111648672Y41744330D01*
X111648672Y41744330D02*
X111505815Y41815759D01*
X111505815Y41815759D02*
X111077243Y41815759D01*
X111077243Y41815759D02*
X110934386Y41744330D01*
X110934386Y41744330D02*
X110862958Y41672902D01*
X110862958Y41672902D02*
X110791529Y41530045D01*
X110791529Y41530045D02*
X110791529Y41315759D01*
X110791529Y42458616D02*
X112291529Y42458616D01*
X111362958Y42601473D02*
X110791529Y43030045D01*
X111791529Y43030045D02*
X111220100Y42458616D01*
X110791529Y43672902D02*
X111791529Y43672902D01*
X112291529Y43672902D02*
X112220100Y43601474D01*
X112220100Y43601474D02*
X112148672Y43672902D01*
X112148672Y43672902D02*
X112220100Y43744331D01*
X112220100Y43744331D02*
X112291529Y43672902D01*
X112291529Y43672902D02*
X112148672Y43672902D01*
X111791529Y44387188D02*
X110791529Y44387188D01*
X111648672Y44387188D02*
X111720100Y44458617D01*
X111720100Y44458617D02*
X111791529Y44601474D01*
X111791529Y44601474D02*
X111791529Y44815760D01*
X111791529Y44815760D02*
X111720100Y44958617D01*
X111720100Y44958617D02*
X111577243Y45030045D01*
X111577243Y45030045D02*
X110791529Y45030045D01*
X111791529Y46387188D02*
X110577243Y46387188D01*
X110577243Y46387188D02*
X110434386Y46315760D01*
X110434386Y46315760D02*
X110362958Y46244331D01*
X110362958Y46244331D02*
X110291529Y46101474D01*
X110291529Y46101474D02*
X110291529Y45887188D01*
X110291529Y45887188D02*
X110362958Y45744331D01*
X110862958Y46387188D02*
X110791529Y46244331D01*
X110791529Y46244331D02*
X110791529Y45958617D01*
X110791529Y45958617D02*
X110862958Y45815760D01*
X110862958Y45815760D02*
X110934386Y45744331D01*
X110934386Y45744331D02*
X111077243Y45672903D01*
X111077243Y45672903D02*
X111505815Y45672903D01*
X111505815Y45672903D02*
X111648672Y45744331D01*
X111648672Y45744331D02*
X111720100Y45815760D01*
X111720100Y45815760D02*
X111791529Y45958617D01*
X111791529Y45958617D02*
X111791529Y46244331D01*
X111791529Y46244331D02*
X111720100Y46387188D01*
X111791529Y48030046D02*
X111791529Y48601474D01*
X110791529Y48244331D02*
X112077243Y48244331D01*
X112077243Y48244331D02*
X112220100Y48315760D01*
X112220100Y48315760D02*
X112291529Y48458617D01*
X112291529Y48458617D02*
X112291529Y48601474D01*
X110791529Y49315760D02*
X110862958Y49172903D01*
X110862958Y49172903D02*
X110934386Y49101474D01*
X110934386Y49101474D02*
X111077243Y49030046D01*
X111077243Y49030046D02*
X111505815Y49030046D01*
X111505815Y49030046D02*
X111648672Y49101474D01*
X111648672Y49101474D02*
X111720100Y49172903D01*
X111720100Y49172903D02*
X111791529Y49315760D01*
X111791529Y49315760D02*
X111791529Y49530046D01*
X111791529Y49530046D02*
X111720100Y49672903D01*
X111720100Y49672903D02*
X111648672Y49744331D01*
X111648672Y49744331D02*
X111505815Y49815760D01*
X111505815Y49815760D02*
X111077243Y49815760D01*
X111077243Y49815760D02*
X110934386Y49744331D01*
X110934386Y49744331D02*
X110862958Y49672903D01*
X110862958Y49672903D02*
X110791529Y49530046D01*
X110791529Y49530046D02*
X110791529Y49315760D01*
X110791529Y50458617D02*
X111791529Y50458617D01*
X111505815Y50458617D02*
X111648672Y50530046D01*
X111648672Y50530046D02*
X111720100Y50601474D01*
X111720100Y50601474D02*
X111791529Y50744332D01*
X111791529Y50744332D02*
X111791529Y50887189D01*
X110934386Y53387188D02*
X110862958Y53315760D01*
X110862958Y53315760D02*
X110791529Y53101474D01*
X110791529Y53101474D02*
X110791529Y52958617D01*
X110791529Y52958617D02*
X110862958Y52744331D01*
X110862958Y52744331D02*
X111005815Y52601474D01*
X111005815Y52601474D02*
X111148672Y52530045D01*
X111148672Y52530045D02*
X111434386Y52458617D01*
X111434386Y52458617D02*
X111648672Y52458617D01*
X111648672Y52458617D02*
X111934386Y52530045D01*
X111934386Y52530045D02*
X112077243Y52601474D01*
X112077243Y52601474D02*
X112220100Y52744331D01*
X112220100Y52744331D02*
X112291529Y52958617D01*
X112291529Y52958617D02*
X112291529Y53101474D01*
X112291529Y53101474D02*
X112220100Y53315760D01*
X112220100Y53315760D02*
X112148672Y53387188D01*
X112362958Y55101474D02*
X110434386Y53815760D01*
X110934386Y56458617D02*
X110862958Y56387189D01*
X110862958Y56387189D02*
X110791529Y56172903D01*
X110791529Y56172903D02*
X110791529Y56030046D01*
X110791529Y56030046D02*
X110862958Y55815760D01*
X110862958Y55815760D02*
X111005815Y55672903D01*
X111005815Y55672903D02*
X111148672Y55601474D01*
X111148672Y55601474D02*
X111434386Y55530046D01*
X111434386Y55530046D02*
X111648672Y55530046D01*
X111648672Y55530046D02*
X111934386Y55601474D01*
X111934386Y55601474D02*
X112077243Y55672903D01*
X112077243Y55672903D02*
X112220100Y55815760D01*
X112220100Y55815760D02*
X112291529Y56030046D01*
X112291529Y56030046D02*
X112291529Y56172903D01*
X112291529Y56172903D02*
X112220100Y56387189D01*
X112220100Y56387189D02*
X112148672Y56458617D01*
X111362958Y57101474D02*
X111362958Y58244331D01*
X110791529Y57672903D02*
X111934386Y57672903D01*
X111362958Y58958617D02*
X111362958Y60101474D01*
X110791529Y59530046D02*
X111934386Y59530046D01*
X112362958Y61887189D02*
X110434386Y60601475D01*
X110791529Y62387189D02*
X112291529Y62387189D01*
X112291529Y62387189D02*
X112291529Y62958618D01*
X112291529Y62958618D02*
X112220100Y63101475D01*
X112220100Y63101475D02*
X112148672Y63172904D01*
X112148672Y63172904D02*
X112005815Y63244332D01*
X112005815Y63244332D02*
X111791529Y63244332D01*
X111791529Y63244332D02*
X111648672Y63172904D01*
X111648672Y63172904D02*
X111577243Y63101475D01*
X111577243Y63101475D02*
X111505815Y62958618D01*
X111505815Y62958618D02*
X111505815Y62387189D01*
X110791529Y63887189D02*
X112291529Y63887189D01*
X111577243Y63887189D02*
X111577243Y64744332D01*
X110791529Y64744332D02*
X112291529Y64744332D01*
X110791529Y65458618D02*
X112291529Y65458618D01*
X112291529Y65458618D02*
X112291529Y66030047D01*
X112291529Y66030047D02*
X112220100Y66172904D01*
X112220100Y66172904D02*
X112148672Y66244333D01*
X112148672Y66244333D02*
X112005815Y66315761D01*
X112005815Y66315761D02*
X111791529Y66315761D01*
X111791529Y66315761D02*
X111648672Y66244333D01*
X111648672Y66244333D02*
X111577243Y66172904D01*
X111577243Y66172904D02*
X111505815Y66030047D01*
X111505815Y66030047D02*
X111505815Y65458618D01*
X112362958Y68030047D02*
X110434386Y66744333D01*
X112291529Y68958619D02*
X111220100Y68958619D01*
X111220100Y68958619D02*
X111005815Y68887190D01*
X111005815Y68887190D02*
X110862958Y68744333D01*
X110862958Y68744333D02*
X110791529Y68530047D01*
X110791529Y68530047D02*
X110791529Y68387190D01*
X110791529Y70315761D02*
X111577243Y70315761D01*
X111577243Y70315761D02*
X111720100Y70244333D01*
X111720100Y70244333D02*
X111791529Y70101476D01*
X111791529Y70101476D02*
X111791529Y69815761D01*
X111791529Y69815761D02*
X111720100Y69672904D01*
X110862958Y70315761D02*
X110791529Y70172904D01*
X110791529Y70172904D02*
X110791529Y69815761D01*
X110791529Y69815761D02*
X110862958Y69672904D01*
X110862958Y69672904D02*
X111005815Y69601476D01*
X111005815Y69601476D02*
X111148672Y69601476D01*
X111148672Y69601476D02*
X111291529Y69672904D01*
X111291529Y69672904D02*
X111362958Y69815761D01*
X111362958Y69815761D02*
X111362958Y70172904D01*
X111362958Y70172904D02*
X111434386Y70315761D01*
X111791529Y70887190D02*
X110791529Y71244333D01*
X110791529Y71244333D02*
X111791529Y71601476D01*
X110791529Y72815761D02*
X111577243Y72815761D01*
X111577243Y72815761D02*
X111720100Y72744333D01*
X111720100Y72744333D02*
X111791529Y72601476D01*
X111791529Y72601476D02*
X111791529Y72315761D01*
X111791529Y72315761D02*
X111720100Y72172904D01*
X110862958Y72815761D02*
X110791529Y72672904D01*
X110791529Y72672904D02*
X110791529Y72315761D01*
X110791529Y72315761D02*
X110862958Y72172904D01*
X110862958Y72172904D02*
X111005815Y72101476D01*
X111005815Y72101476D02*
X111148672Y72101476D01*
X111148672Y72101476D02*
X111291529Y72172904D01*
X111291529Y72172904D02*
X111362958Y72315761D01*
X111362958Y72315761D02*
X111362958Y72672904D01*
X111362958Y72672904D02*
X111434386Y72815761D01*
X110791529Y75315761D02*
X112291529Y75315761D01*
X110862958Y75315761D02*
X110791529Y75172904D01*
X110791529Y75172904D02*
X110791529Y74887190D01*
X110791529Y74887190D02*
X110862958Y74744333D01*
X110862958Y74744333D02*
X110934386Y74672904D01*
X110934386Y74672904D02*
X111077243Y74601476D01*
X111077243Y74601476D02*
X111505815Y74601476D01*
X111505815Y74601476D02*
X111648672Y74672904D01*
X111648672Y74672904D02*
X111720100Y74744333D01*
X111720100Y74744333D02*
X111791529Y74887190D01*
X111791529Y74887190D02*
X111791529Y75172904D01*
X111791529Y75172904D02*
X111720100Y75315761D01*
X110862958Y76601476D02*
X110791529Y76458619D01*
X110791529Y76458619D02*
X110791529Y76172904D01*
X110791529Y76172904D02*
X110862958Y76030047D01*
X110862958Y76030047D02*
X111005815Y75958619D01*
X111005815Y75958619D02*
X111577243Y75958619D01*
X111577243Y75958619D02*
X111720100Y76030047D01*
X111720100Y76030047D02*
X111791529Y76172904D01*
X111791529Y76172904D02*
X111791529Y76458619D01*
X111791529Y76458619D02*
X111720100Y76601476D01*
X111720100Y76601476D02*
X111577243Y76672904D01*
X111577243Y76672904D02*
X111434386Y76672904D01*
X111434386Y76672904D02*
X111291529Y75958619D01*
X111791529Y77172904D02*
X110791529Y77530047D01*
X110791529Y77530047D02*
X111791529Y77887190D01*
X110862958Y79030047D02*
X110791529Y78887190D01*
X110791529Y78887190D02*
X110791529Y78601475D01*
X110791529Y78601475D02*
X110862958Y78458618D01*
X110862958Y78458618D02*
X111005815Y78387190D01*
X111005815Y78387190D02*
X111577243Y78387190D01*
X111577243Y78387190D02*
X111720100Y78458618D01*
X111720100Y78458618D02*
X111791529Y78601475D01*
X111791529Y78601475D02*
X111791529Y78887190D01*
X111791529Y78887190D02*
X111720100Y79030047D01*
X111720100Y79030047D02*
X111577243Y79101475D01*
X111577243Y79101475D02*
X111434386Y79101475D01*
X111434386Y79101475D02*
X111291529Y78387190D01*
X110791529Y79958618D02*
X110862958Y79815761D01*
X110862958Y79815761D02*
X111005815Y79744332D01*
X111005815Y79744332D02*
X112291529Y79744332D01*
X110791529Y80744332D02*
X110862958Y80601475D01*
X110862958Y80601475D02*
X110934386Y80530046D01*
X110934386Y80530046D02*
X111077243Y80458618D01*
X111077243Y80458618D02*
X111505815Y80458618D01*
X111505815Y80458618D02*
X111648672Y80530046D01*
X111648672Y80530046D02*
X111720100Y80601475D01*
X111720100Y80601475D02*
X111791529Y80744332D01*
X111791529Y80744332D02*
X111791529Y80958618D01*
X111791529Y80958618D02*
X111720100Y81101475D01*
X111720100Y81101475D02*
X111648672Y81172903D01*
X111648672Y81172903D02*
X111505815Y81244332D01*
X111505815Y81244332D02*
X111077243Y81244332D01*
X111077243Y81244332D02*
X110934386Y81172903D01*
X110934386Y81172903D02*
X110862958Y81101475D01*
X110862958Y81101475D02*
X110791529Y80958618D01*
X110791529Y80958618D02*
X110791529Y80744332D01*
X111791529Y81887189D02*
X110291529Y81887189D01*
X111720100Y81887189D02*
X111791529Y82030046D01*
X111791529Y82030046D02*
X111791529Y82315761D01*
X111791529Y82315761D02*
X111720100Y82458618D01*
X111720100Y82458618D02*
X111648672Y82530046D01*
X111648672Y82530046D02*
X111505815Y82601475D01*
X111505815Y82601475D02*
X111077243Y82601475D01*
X111077243Y82601475D02*
X110934386Y82530046D01*
X110934386Y82530046D02*
X110862958Y82458618D01*
X110862958Y82458618D02*
X110791529Y82315761D01*
X110791529Y82315761D02*
X110791529Y82030046D01*
X110791529Y82030046D02*
X110862958Y81887189D01*
X110862958Y83815761D02*
X110791529Y83672904D01*
X110791529Y83672904D02*
X110791529Y83387189D01*
X110791529Y83387189D02*
X110862958Y83244332D01*
X110862958Y83244332D02*
X111005815Y83172904D01*
X111005815Y83172904D02*
X111577243Y83172904D01*
X111577243Y83172904D02*
X111720100Y83244332D01*
X111720100Y83244332D02*
X111791529Y83387189D01*
X111791529Y83387189D02*
X111791529Y83672904D01*
X111791529Y83672904D02*
X111720100Y83815761D01*
X111720100Y83815761D02*
X111577243Y83887189D01*
X111577243Y83887189D02*
X111434386Y83887189D01*
X111434386Y83887189D02*
X111291529Y83172904D01*
X110791529Y84530046D02*
X111791529Y84530046D01*
X111505815Y84530046D02*
X111648672Y84601475D01*
X111648672Y84601475D02*
X111720100Y84672903D01*
X111720100Y84672903D02*
X111791529Y84815761D01*
X111791529Y84815761D02*
X111791529Y84958618D01*
X110862958Y85387189D02*
X110791529Y85530046D01*
X110791529Y85530046D02*
X110791529Y85815760D01*
X110791529Y85815760D02*
X110862958Y85958617D01*
X110862958Y85958617D02*
X111005815Y86030046D01*
X111005815Y86030046D02*
X111077243Y86030046D01*
X111077243Y86030046D02*
X111220100Y85958617D01*
X111220100Y85958617D02*
X111291529Y85815760D01*
X111291529Y85815760D02*
X111291529Y85601474D01*
X111291529Y85601474D02*
X111362958Y85458617D01*
X111362958Y85458617D02*
X111505815Y85387189D01*
X111505815Y85387189D02*
X111577243Y85387189D01*
X111577243Y85387189D02*
X111720100Y85458617D01*
X111720100Y85458617D02*
X111791529Y85601474D01*
X111791529Y85601474D02*
X111791529Y85815760D01*
X111791529Y85815760D02*
X111720100Y85958617D01*
X108376613Y30458616D02*
X109876613Y30458616D01*
X108376613Y31101473D02*
X109162327Y31101473D01*
X109162327Y31101473D02*
X109305184Y31030045D01*
X109305184Y31030045D02*
X109376613Y30887188D01*
X109376613Y30887188D02*
X109376613Y30672902D01*
X109376613Y30672902D02*
X109305184Y30530045D01*
X109305184Y30530045D02*
X109233756Y30458616D01*
X109376613Y31601474D02*
X109376613Y32172902D01*
X109876613Y31815759D02*
X108590899Y31815759D01*
X108590899Y31815759D02*
X108448042Y31887188D01*
X108448042Y31887188D02*
X108376613Y32030045D01*
X108376613Y32030045D02*
X108376613Y32172902D01*
X109376613Y32458617D02*
X109376613Y33030045D01*
X109876613Y32672902D02*
X108590899Y32672902D01*
X108590899Y32672902D02*
X108448042Y32744331D01*
X108448042Y32744331D02*
X108376613Y32887188D01*
X108376613Y32887188D02*
X108376613Y33030045D01*
X109376613Y33530045D02*
X107876613Y33530045D01*
X109305184Y33530045D02*
X109376613Y33672902D01*
X109376613Y33672902D02*
X109376613Y33958617D01*
X109376613Y33958617D02*
X109305184Y34101474D01*
X109305184Y34101474D02*
X109233756Y34172902D01*
X109233756Y34172902D02*
X109090899Y34244331D01*
X109090899Y34244331D02*
X108662327Y34244331D01*
X108662327Y34244331D02*
X108519470Y34172902D01*
X108519470Y34172902D02*
X108448042Y34101474D01*
X108448042Y34101474D02*
X108376613Y33958617D01*
X108376613Y33958617D02*
X108376613Y33672902D01*
X108376613Y33672902D02*
X108448042Y33530045D01*
X108448042Y34815760D02*
X108376613Y34958617D01*
X108376613Y34958617D02*
X108376613Y35244331D01*
X108376613Y35244331D02*
X108448042Y35387188D01*
X108448042Y35387188D02*
X108590899Y35458617D01*
X108590899Y35458617D02*
X108662327Y35458617D01*
X108662327Y35458617D02*
X108805184Y35387188D01*
X108805184Y35387188D02*
X108876613Y35244331D01*
X108876613Y35244331D02*
X108876613Y35030045D01*
X108876613Y35030045D02*
X108948042Y34887188D01*
X108948042Y34887188D02*
X109090899Y34815760D01*
X109090899Y34815760D02*
X109162327Y34815760D01*
X109162327Y34815760D02*
X109305184Y34887188D01*
X109305184Y34887188D02*
X109376613Y35030045D01*
X109376613Y35030045D02*
X109376613Y35244331D01*
X109376613Y35244331D02*
X109305184Y35387188D01*
X108519470Y36101474D02*
X108448042Y36172903D01*
X108448042Y36172903D02*
X108376613Y36101474D01*
X108376613Y36101474D02*
X108448042Y36030046D01*
X108448042Y36030046D02*
X108519470Y36101474D01*
X108519470Y36101474D02*
X108376613Y36101474D01*
X109305184Y36101474D02*
X109233756Y36172903D01*
X109233756Y36172903D02*
X109162327Y36101474D01*
X109162327Y36101474D02*
X109233756Y36030046D01*
X109233756Y36030046D02*
X109305184Y36101474D01*
X109305184Y36101474D02*
X109162327Y36101474D01*
X109948042Y37887189D02*
X108019470Y36601475D01*
X109948042Y39458618D02*
X108019470Y38172904D01*
X108376613Y39958618D02*
X109376613Y39958618D01*
X109090899Y39958618D02*
X109233756Y40030047D01*
X109233756Y40030047D02*
X109305184Y40101475D01*
X109305184Y40101475D02*
X109376613Y40244333D01*
X109376613Y40244333D02*
X109376613Y40387190D01*
X109376613Y41530046D02*
X108376613Y41530046D01*
X109376613Y40887189D02*
X108590899Y40887189D01*
X108590899Y40887189D02*
X108448042Y40958618D01*
X108448042Y40958618D02*
X108376613Y41101475D01*
X108376613Y41101475D02*
X108376613Y41315761D01*
X108376613Y41315761D02*
X108448042Y41458618D01*
X108448042Y41458618D02*
X108519470Y41530046D01*
X108448042Y42172904D02*
X108376613Y42315761D01*
X108376613Y42315761D02*
X108376613Y42601475D01*
X108376613Y42601475D02*
X108448042Y42744332D01*
X108448042Y42744332D02*
X108590899Y42815761D01*
X108590899Y42815761D02*
X108662327Y42815761D01*
X108662327Y42815761D02*
X108805184Y42744332D01*
X108805184Y42744332D02*
X108876613Y42601475D01*
X108876613Y42601475D02*
X108876613Y42387189D01*
X108876613Y42387189D02*
X108948042Y42244332D01*
X108948042Y42244332D02*
X109090899Y42172904D01*
X109090899Y42172904D02*
X109162327Y42172904D01*
X109162327Y42172904D02*
X109305184Y42244332D01*
X109305184Y42244332D02*
X109376613Y42387189D01*
X109376613Y42387189D02*
X109376613Y42601475D01*
X109376613Y42601475D02*
X109305184Y42744332D01*
X108448042Y44030047D02*
X108376613Y43887190D01*
X108376613Y43887190D02*
X108376613Y43601475D01*
X108376613Y43601475D02*
X108448042Y43458618D01*
X108448042Y43458618D02*
X108590899Y43387190D01*
X108590899Y43387190D02*
X109162327Y43387190D01*
X109162327Y43387190D02*
X109305184Y43458618D01*
X109305184Y43458618D02*
X109376613Y43601475D01*
X109376613Y43601475D02*
X109376613Y43887190D01*
X109376613Y43887190D02*
X109305184Y44030047D01*
X109305184Y44030047D02*
X109162327Y44101475D01*
X109162327Y44101475D02*
X109019470Y44101475D01*
X109019470Y44101475D02*
X108876613Y43387190D01*
X109376613Y44530047D02*
X109376613Y45101475D01*
X108376613Y44744332D02*
X109662327Y44744332D01*
X109662327Y44744332D02*
X109805184Y44815761D01*
X109805184Y44815761D02*
X109876613Y44958618D01*
X109876613Y44958618D02*
X109876613Y45101475D01*
X108376613Y45601475D02*
X109376613Y45601475D01*
X109876613Y45601475D02*
X109805184Y45530047D01*
X109805184Y45530047D02*
X109733756Y45601475D01*
X109733756Y45601475D02*
X109805184Y45672904D01*
X109805184Y45672904D02*
X109876613Y45601475D01*
X109876613Y45601475D02*
X109733756Y45601475D01*
X108519470Y46315761D02*
X108448042Y46387190D01*
X108448042Y46387190D02*
X108376613Y46315761D01*
X108376613Y46315761D02*
X108448042Y46244333D01*
X108448042Y46244333D02*
X108519470Y46315761D01*
X108519470Y46315761D02*
X108376613Y46315761D01*
X108448042Y47672904D02*
X108376613Y47530047D01*
X108376613Y47530047D02*
X108376613Y47244333D01*
X108376613Y47244333D02*
X108448042Y47101476D01*
X108448042Y47101476D02*
X108519470Y47030047D01*
X108519470Y47030047D02*
X108662327Y46958619D01*
X108662327Y46958619D02*
X109090899Y46958619D01*
X109090899Y46958619D02*
X109233756Y47030047D01*
X109233756Y47030047D02*
X109305184Y47101476D01*
X109305184Y47101476D02*
X109376613Y47244333D01*
X109376613Y47244333D02*
X109376613Y47530047D01*
X109376613Y47530047D02*
X109305184Y47672904D01*
X108376613Y48530047D02*
X108448042Y48387190D01*
X108448042Y48387190D02*
X108519470Y48315761D01*
X108519470Y48315761D02*
X108662327Y48244333D01*
X108662327Y48244333D02*
X109090899Y48244333D01*
X109090899Y48244333D02*
X109233756Y48315761D01*
X109233756Y48315761D02*
X109305184Y48387190D01*
X109305184Y48387190D02*
X109376613Y48530047D01*
X109376613Y48530047D02*
X109376613Y48744333D01*
X109376613Y48744333D02*
X109305184Y48887190D01*
X109305184Y48887190D02*
X109233756Y48958618D01*
X109233756Y48958618D02*
X109090899Y49030047D01*
X109090899Y49030047D02*
X108662327Y49030047D01*
X108662327Y49030047D02*
X108519470Y48958618D01*
X108519470Y48958618D02*
X108448042Y48887190D01*
X108448042Y48887190D02*
X108376613Y48744333D01*
X108376613Y48744333D02*
X108376613Y48530047D01*
X108376613Y49672904D02*
X109376613Y49672904D01*
X109233756Y49672904D02*
X109305184Y49744333D01*
X109305184Y49744333D02*
X109376613Y49887190D01*
X109376613Y49887190D02*
X109376613Y50101476D01*
X109376613Y50101476D02*
X109305184Y50244333D01*
X109305184Y50244333D02*
X109162327Y50315761D01*
X109162327Y50315761D02*
X108376613Y50315761D01*
X109162327Y50315761D02*
X109305184Y50387190D01*
X109305184Y50387190D02*
X109376613Y50530047D01*
X109376613Y50530047D02*
X109376613Y50744333D01*
X109376613Y50744333D02*
X109305184Y50887190D01*
X109305184Y50887190D02*
X109162327Y50958619D01*
X109162327Y50958619D02*
X108376613Y50958619D01*
X109948042Y52744333D02*
X108019470Y51458619D01*
X108448042Y53172905D02*
X108376613Y53315762D01*
X108376613Y53315762D02*
X108376613Y53601476D01*
X108376613Y53601476D02*
X108448042Y53744333D01*
X108448042Y53744333D02*
X108590899Y53815762D01*
X108590899Y53815762D02*
X108662327Y53815762D01*
X108662327Y53815762D02*
X108805184Y53744333D01*
X108805184Y53744333D02*
X108876613Y53601476D01*
X108876613Y53601476D02*
X108876613Y53387190D01*
X108876613Y53387190D02*
X108948042Y53244333D01*
X108948042Y53244333D02*
X109090899Y53172905D01*
X109090899Y53172905D02*
X109162327Y53172905D01*
X109162327Y53172905D02*
X109305184Y53244333D01*
X109305184Y53244333D02*
X109376613Y53387190D01*
X109376613Y53387190D02*
X109376613Y53601476D01*
X109376613Y53601476D02*
X109305184Y53744333D01*
X109948042Y55530048D02*
X108019470Y54244334D01*
X108376613Y56030048D02*
X109376613Y56030048D01*
X109233756Y56030048D02*
X109305184Y56101477D01*
X109305184Y56101477D02*
X109376613Y56244334D01*
X109376613Y56244334D02*
X109376613Y56458620D01*
X109376613Y56458620D02*
X109305184Y56601477D01*
X109305184Y56601477D02*
X109162327Y56672905D01*
X109162327Y56672905D02*
X108376613Y56672905D01*
X109162327Y56672905D02*
X109305184Y56744334D01*
X109305184Y56744334D02*
X109376613Y56887191D01*
X109376613Y56887191D02*
X109376613Y57101477D01*
X109376613Y57101477D02*
X109305184Y57244334D01*
X109305184Y57244334D02*
X109162327Y57315763D01*
X109162327Y57315763D02*
X108376613Y57315763D01*
X108376613Y58030048D02*
X109376613Y58030048D01*
X109876613Y58030048D02*
X109805184Y57958620D01*
X109805184Y57958620D02*
X109733756Y58030048D01*
X109733756Y58030048D02*
X109805184Y58101477D01*
X109805184Y58101477D02*
X109876613Y58030048D01*
X109876613Y58030048D02*
X109733756Y58030048D01*
X108448042Y58672906D02*
X108376613Y58815763D01*
X108376613Y58815763D02*
X108376613Y59101477D01*
X108376613Y59101477D02*
X108448042Y59244334D01*
X108448042Y59244334D02*
X108590899Y59315763D01*
X108590899Y59315763D02*
X108662327Y59315763D01*
X108662327Y59315763D02*
X108805184Y59244334D01*
X108805184Y59244334D02*
X108876613Y59101477D01*
X108876613Y59101477D02*
X108876613Y58887191D01*
X108876613Y58887191D02*
X108948042Y58744334D01*
X108948042Y58744334D02*
X109090899Y58672906D01*
X109090899Y58672906D02*
X109162327Y58672906D01*
X109162327Y58672906D02*
X109305184Y58744334D01*
X109305184Y58744334D02*
X109376613Y58887191D01*
X109376613Y58887191D02*
X109376613Y59101477D01*
X109376613Y59101477D02*
X109305184Y59244334D01*
X108448042Y59887192D02*
X108376613Y60030049D01*
X108376613Y60030049D02*
X108376613Y60315763D01*
X108376613Y60315763D02*
X108448042Y60458620D01*
X108448042Y60458620D02*
X108590899Y60530049D01*
X108590899Y60530049D02*
X108662327Y60530049D01*
X108662327Y60530049D02*
X108805184Y60458620D01*
X108805184Y60458620D02*
X108876613Y60315763D01*
X108876613Y60315763D02*
X108876613Y60101477D01*
X108876613Y60101477D02*
X108948042Y59958620D01*
X108948042Y59958620D02*
X109090899Y59887192D01*
X109090899Y59887192D02*
X109162327Y59887192D01*
X109162327Y59887192D02*
X109305184Y59958620D01*
X109305184Y59958620D02*
X109376613Y60101477D01*
X109376613Y60101477D02*
X109376613Y60315763D01*
X109376613Y60315763D02*
X109305184Y60458620D01*
X108376613Y61172906D02*
X109376613Y61172906D01*
X109876613Y61172906D02*
X109805184Y61101478D01*
X109805184Y61101478D02*
X109733756Y61172906D01*
X109733756Y61172906D02*
X109805184Y61244335D01*
X109805184Y61244335D02*
X109876613Y61172906D01*
X109876613Y61172906D02*
X109733756Y61172906D01*
X108376613Y62101478D02*
X108448042Y61958621D01*
X108448042Y61958621D02*
X108519470Y61887192D01*
X108519470Y61887192D02*
X108662327Y61815764D01*
X108662327Y61815764D02*
X109090899Y61815764D01*
X109090899Y61815764D02*
X109233756Y61887192D01*
X109233756Y61887192D02*
X109305184Y61958621D01*
X109305184Y61958621D02*
X109376613Y62101478D01*
X109376613Y62101478D02*
X109376613Y62315764D01*
X109376613Y62315764D02*
X109305184Y62458621D01*
X109305184Y62458621D02*
X109233756Y62530049D01*
X109233756Y62530049D02*
X109090899Y62601478D01*
X109090899Y62601478D02*
X108662327Y62601478D01*
X108662327Y62601478D02*
X108519470Y62530049D01*
X108519470Y62530049D02*
X108448042Y62458621D01*
X108448042Y62458621D02*
X108376613Y62315764D01*
X108376613Y62315764D02*
X108376613Y62101478D01*
X109376613Y63244335D02*
X108376613Y63244335D01*
X109233756Y63244335D02*
X109305184Y63315764D01*
X109305184Y63315764D02*
X109376613Y63458621D01*
X109376613Y63458621D02*
X109376613Y63672907D01*
X109376613Y63672907D02*
X109305184Y63815764D01*
X109305184Y63815764D02*
X109162327Y63887192D01*
X109162327Y63887192D02*
X108376613Y63887192D01*
D10*
X120680571Y118495181D02*
X121156761Y118495181D01*
X121156761Y118495181D02*
X121156761Y119495181D01*
X119013904Y118590420D02*
X119061523Y118542800D01*
X119061523Y118542800D02*
X119204380Y118495181D01*
X119204380Y118495181D02*
X119299618Y118495181D01*
X119299618Y118495181D02*
X119442475Y118542800D01*
X119442475Y118542800D02*
X119537713Y118638039D01*
X119537713Y118638039D02*
X119585332Y118733277D01*
X119585332Y118733277D02*
X119632951Y118923753D01*
X119632951Y118923753D02*
X119632951Y119066610D01*
X119632951Y119066610D02*
X119585332Y119257086D01*
X119585332Y119257086D02*
X119537713Y119352324D01*
X119537713Y119352324D02*
X119442475Y119447562D01*
X119442475Y119447562D02*
X119299618Y119495181D01*
X119299618Y119495181D02*
X119204380Y119495181D01*
X119204380Y119495181D02*
X119061523Y119447562D01*
X119061523Y119447562D02*
X119013904Y119399943D01*
X118632951Y118780896D02*
X118156761Y118780896D01*
X118728189Y118495181D02*
X118394856Y119495181D01*
X118394856Y119495181D02*
X118061523Y118495181D01*
X117728189Y118495181D02*
X117728189Y119495181D01*
X117728189Y119495181D02*
X117156761Y118495181D01*
X117156761Y118495181D02*
X117156761Y119495181D01*
X115918665Y118495181D02*
X115918665Y119495181D01*
X115918665Y119018991D02*
X115347237Y119018991D01*
X115347237Y118495181D02*
X115347237Y119495181D01*
X31206794Y119180953D02*
X31206794Y118609525D01*
X31206794Y118895239D02*
X32206794Y118895239D01*
X32206794Y118895239D02*
X32063937Y118800001D01*
X32063937Y118800001D02*
X31968699Y118704763D01*
X31968699Y118704763D02*
X31921080Y118609525D01*
X32111556Y119561906D02*
X32159175Y119609525D01*
X32159175Y119609525D02*
X32206794Y119704763D01*
X32206794Y119704763D02*
X32206794Y119942858D01*
X32206794Y119942858D02*
X32159175Y120038096D01*
X32159175Y120038096D02*
X32111556Y120085715D01*
X32111556Y120085715D02*
X32016318Y120133334D01*
X32016318Y120133334D02*
X31921080Y120133334D01*
X31921080Y120133334D02*
X31778223Y120085715D01*
X31778223Y120085715D02*
X31206794Y119514287D01*
X31206794Y119514287D02*
X31206794Y120133334D01*
X32206794Y120419049D02*
X31206794Y120752382D01*
X31206794Y120752382D02*
X32206794Y121085715D01*
X89549101Y107394049D02*
X90549101Y107394049D01*
X89549101Y107870239D02*
X90549101Y107870239D01*
X90549101Y107870239D02*
X89549101Y108441667D01*
X89549101Y108441667D02*
X90549101Y108441667D01*
X90549101Y109203572D02*
X89834816Y109203572D01*
X89834816Y109203572D02*
X89691959Y109155953D01*
X89691959Y109155953D02*
X89596721Y109060715D01*
X89596721Y109060715D02*
X89549101Y108917858D01*
X89549101Y108917858D02*
X89549101Y108822620D01*
X90549101Y109584525D02*
X90549101Y110203572D01*
X90549101Y110203572D02*
X90168149Y109870239D01*
X90168149Y109870239D02*
X90168149Y110013096D01*
X90168149Y110013096D02*
X90120530Y110108334D01*
X90120530Y110108334D02*
X90072911Y110155953D01*
X90072911Y110155953D02*
X89977673Y110203572D01*
X89977673Y110203572D02*
X89739578Y110203572D01*
X89739578Y110203572D02*
X89644340Y110155953D01*
X89644340Y110155953D02*
X89596721Y110108334D01*
X89596721Y110108334D02*
X89549101Y110013096D01*
X89549101Y110013096D02*
X89549101Y109727382D01*
X89549101Y109727382D02*
X89596721Y109632144D01*
X89596721Y109632144D02*
X89644340Y109584525D01*
X21794319Y20892858D02*
X21794319Y21464286D01*
X21794319Y21178572D02*
X20794319Y21178572D01*
X20794319Y21178572D02*
X20937176Y21273810D01*
X20937176Y21273810D02*
X21032414Y21369048D01*
X21032414Y21369048D02*
X21080033Y21464286D01*
X20889557Y20511905D02*
X20841938Y20464286D01*
X20841938Y20464286D02*
X20794319Y20369048D01*
X20794319Y20369048D02*
X20794319Y20130953D01*
X20794319Y20130953D02*
X20841938Y20035715D01*
X20841938Y20035715D02*
X20889557Y19988096D01*
X20889557Y19988096D02*
X20984795Y19940477D01*
X20984795Y19940477D02*
X21080033Y19940477D01*
X21080033Y19940477D02*
X21222890Y19988096D01*
X21222890Y19988096D02*
X21794319Y20559524D01*
X21794319Y20559524D02*
X21794319Y19940477D01*
X20794319Y19654762D02*
X21794319Y19321429D01*
X21794319Y19321429D02*
X20794319Y18988096D01*
X54982895Y107135715D02*
X54982895Y107611905D01*
X54697180Y107040477D02*
X55697180Y107373810D01*
X55697180Y107373810D02*
X54697180Y107707143D01*
X55697180Y108040477D02*
X54887657Y108040477D01*
X54887657Y108040477D02*
X54792419Y108088096D01*
X54792419Y108088096D02*
X54744800Y108135715D01*
X54744800Y108135715D02*
X54697180Y108230953D01*
X54697180Y108230953D02*
X54697180Y108421429D01*
X54697180Y108421429D02*
X54744800Y108516667D01*
X54744800Y108516667D02*
X54792419Y108564286D01*
X54792419Y108564286D02*
X54887657Y108611905D01*
X54887657Y108611905D02*
X55697180Y108611905D01*
X55697180Y108992858D02*
X54697180Y109659524D01*
X55697180Y109659524D02*
X54697180Y108992858D01*
X54697180Y110564286D02*
X54697180Y109992858D01*
X54697180Y110278572D02*
X55697180Y110278572D01*
X55697180Y110278572D02*
X55554323Y110183334D01*
X55554323Y110183334D02*
X55459085Y110088096D01*
X55459085Y110088096D02*
X55411466Y109992858D01*
X28851025Y118514286D02*
X27851025Y118847619D01*
X27851025Y118847619D02*
X28851025Y119180952D01*
X27851025Y119514286D02*
X28851025Y119514286D01*
X28803406Y120514285D02*
X28851025Y120419047D01*
X28851025Y120419047D02*
X28851025Y120276190D01*
X28851025Y120276190D02*
X28803406Y120133333D01*
X28803406Y120133333D02*
X28708168Y120038095D01*
X28708168Y120038095D02*
X28612930Y119990476D01*
X28612930Y119990476D02*
X28422454Y119942857D01*
X28422454Y119942857D02*
X28279597Y119942857D01*
X28279597Y119942857D02*
X28089121Y119990476D01*
X28089121Y119990476D02*
X27993883Y120038095D01*
X27993883Y120038095D02*
X27898645Y120133333D01*
X27898645Y120133333D02*
X27851025Y120276190D01*
X27851025Y120276190D02*
X27851025Y120371428D01*
X27851025Y120371428D02*
X27898645Y120514285D01*
X27898645Y120514285D02*
X27946264Y120561904D01*
X27946264Y120561904D02*
X28279597Y120561904D01*
X28279597Y120561904D02*
X28279597Y120371428D01*
X27851025Y120990476D02*
X28851025Y120990476D01*
X28851025Y120990476D02*
X27851025Y121561904D01*
X27851025Y121561904D02*
X28851025Y121561904D01*
X32274098Y109659524D02*
X32274098Y109183334D01*
X32274098Y109183334D02*
X31797908Y109135715D01*
X31797908Y109135715D02*
X31845527Y109183334D01*
X31845527Y109183334D02*
X31893146Y109278572D01*
X31893146Y109278572D02*
X31893146Y109516667D01*
X31893146Y109516667D02*
X31845527Y109611905D01*
X31845527Y109611905D02*
X31797908Y109659524D01*
X31797908Y109659524D02*
X31702670Y109707143D01*
X31702670Y109707143D02*
X31464575Y109707143D01*
X31464575Y109707143D02*
X31369337Y109659524D01*
X31369337Y109659524D02*
X31321718Y109611905D01*
X31321718Y109611905D02*
X31274098Y109516667D01*
X31274098Y109516667D02*
X31274098Y109278572D01*
X31274098Y109278572D02*
X31321718Y109183334D01*
X31321718Y109183334D02*
X31369337Y109135715D01*
X32274098Y109992858D02*
X31274098Y110326191D01*
X31274098Y110326191D02*
X32274098Y110659524D01*
X41274101Y118704763D02*
X41274101Y118895239D01*
X41274101Y118895239D02*
X41321721Y118990477D01*
X41321721Y118990477D02*
X41369340Y119038096D01*
X41369340Y119038096D02*
X41512197Y119133334D01*
X41512197Y119133334D02*
X41702673Y119180953D01*
X41702673Y119180953D02*
X42083625Y119180953D01*
X42083625Y119180953D02*
X42178863Y119133334D01*
X42178863Y119133334D02*
X42226482Y119085715D01*
X42226482Y119085715D02*
X42274101Y118990477D01*
X42274101Y118990477D02*
X42274101Y118800001D01*
X42274101Y118800001D02*
X42226482Y118704763D01*
X42226482Y118704763D02*
X42178863Y118657144D01*
X42178863Y118657144D02*
X42083625Y118609525D01*
X42083625Y118609525D02*
X41845530Y118609525D01*
X41845530Y118609525D02*
X41750292Y118657144D01*
X41750292Y118657144D02*
X41702673Y118704763D01*
X41702673Y118704763D02*
X41655054Y118800001D01*
X41655054Y118800001D02*
X41655054Y118990477D01*
X41655054Y118990477D02*
X41702673Y119085715D01*
X41702673Y119085715D02*
X41750292Y119133334D01*
X41750292Y119133334D02*
X41845530Y119180953D01*
X41274101Y119657144D02*
X41274101Y119847620D01*
X41274101Y119847620D02*
X41321721Y119942858D01*
X41321721Y119942858D02*
X41369340Y119990477D01*
X41369340Y119990477D02*
X41512197Y120085715D01*
X41512197Y120085715D02*
X41702673Y120133334D01*
X41702673Y120133334D02*
X42083625Y120133334D01*
X42083625Y120133334D02*
X42178863Y120085715D01*
X42178863Y120085715D02*
X42226482Y120038096D01*
X42226482Y120038096D02*
X42274101Y119942858D01*
X42274101Y119942858D02*
X42274101Y119752382D01*
X42274101Y119752382D02*
X42226482Y119657144D01*
X42226482Y119657144D02*
X42178863Y119609525D01*
X42178863Y119609525D02*
X42083625Y119561906D01*
X42083625Y119561906D02*
X41845530Y119561906D01*
X41845530Y119561906D02*
X41750292Y119609525D01*
X41750292Y119609525D02*
X41702673Y119657144D01*
X41702673Y119657144D02*
X41655054Y119752382D01*
X41655054Y119752382D02*
X41655054Y119942858D01*
X41655054Y119942858D02*
X41702673Y120038096D01*
X41702673Y120038096D02*
X41750292Y120085715D01*
X41750292Y120085715D02*
X41845530Y120133334D01*
X42178863Y120514287D02*
X42226482Y120561906D01*
X42226482Y120561906D02*
X42274101Y120657144D01*
X42274101Y120657144D02*
X42274101Y120895239D01*
X42274101Y120895239D02*
X42226482Y120990477D01*
X42226482Y120990477D02*
X42178863Y121038096D01*
X42178863Y121038096D02*
X42083625Y121085715D01*
X42083625Y121085715D02*
X41988387Y121085715D01*
X41988387Y121085715D02*
X41845530Y121038096D01*
X41845530Y121038096D02*
X41274101Y120466668D01*
X41274101Y120466668D02*
X41274101Y121085715D01*
X41940768Y121942858D02*
X41274101Y121942858D01*
X42321721Y121704763D02*
X41607435Y121466668D01*
X41607435Y121466668D02*
X41607435Y122085715D01*
X41655054Y122466668D02*
X41655054Y123228572D01*
X41274101Y122847620D02*
X42036006Y122847620D01*
X92891408Y107394049D02*
X93891408Y107394049D01*
X92891408Y107870239D02*
X93891408Y107870239D01*
X93891408Y107870239D02*
X92891408Y108441667D01*
X92891408Y108441667D02*
X93891408Y108441667D01*
X93891408Y109203572D02*
X93177123Y109203572D01*
X93177123Y109203572D02*
X93034266Y109155953D01*
X93034266Y109155953D02*
X92939028Y109060715D01*
X92939028Y109060715D02*
X92891408Y108917858D01*
X92891408Y108917858D02*
X92891408Y108822620D01*
X93796170Y109632144D02*
X93843789Y109679763D01*
X93843789Y109679763D02*
X93891408Y109775001D01*
X93891408Y109775001D02*
X93891408Y110013096D01*
X93891408Y110013096D02*
X93843789Y110108334D01*
X93843789Y110108334D02*
X93796170Y110155953D01*
X93796170Y110155953D02*
X93700932Y110203572D01*
X93700932Y110203572D02*
X93605694Y110203572D01*
X93605694Y110203572D02*
X93462837Y110155953D01*
X93462837Y110155953D02*
X92891408Y109584525D01*
X92891408Y109584525D02*
X92891408Y110203572D01*
X14427949Y118657143D02*
X15427949Y118657143D01*
X15427949Y118657143D02*
X15427949Y118895238D01*
X15427949Y118895238D02*
X15380330Y119038095D01*
X15380330Y119038095D02*
X15285092Y119133333D01*
X15285092Y119133333D02*
X15189854Y119180952D01*
X15189854Y119180952D02*
X14999378Y119228571D01*
X14999378Y119228571D02*
X14856521Y119228571D01*
X14856521Y119228571D02*
X14666045Y119180952D01*
X14666045Y119180952D02*
X14570807Y119133333D01*
X14570807Y119133333D02*
X14475569Y119038095D01*
X14475569Y119038095D02*
X14427949Y118895238D01*
X14427949Y118895238D02*
X14427949Y118657143D01*
X14523188Y120228571D02*
X14475569Y120180952D01*
X14475569Y120180952D02*
X14427949Y120038095D01*
X14427949Y120038095D02*
X14427949Y119942857D01*
X14427949Y119942857D02*
X14475569Y119800000D01*
X14475569Y119800000D02*
X14570807Y119704762D01*
X14570807Y119704762D02*
X14666045Y119657143D01*
X14666045Y119657143D02*
X14856521Y119609524D01*
X14856521Y119609524D02*
X14999378Y119609524D01*
X14999378Y119609524D02*
X15189854Y119657143D01*
X15189854Y119657143D02*
X15285092Y119704762D01*
X15285092Y119704762D02*
X15380330Y119800000D01*
X15380330Y119800000D02*
X15427949Y119942857D01*
X15427949Y119942857D02*
X15427949Y120038095D01*
X15427949Y120038095D02*
X15380330Y120180952D01*
X15380330Y120180952D02*
X15332711Y120228571D01*
X14427949Y121180952D02*
X14427949Y120609524D01*
X14427949Y120895238D02*
X15427949Y120895238D01*
X15427949Y120895238D02*
X15285092Y120800000D01*
X15285092Y120800000D02*
X15189854Y120704762D01*
X15189854Y120704762D02*
X15142235Y120609524D01*
X14808902Y121609524D02*
X14808902Y122371428D01*
X14427949Y121990476D02*
X15189854Y121990476D01*
X52351016Y107183335D02*
X52351016Y107754763D01*
X51351016Y107469049D02*
X52351016Y107469049D01*
X51351016Y108088097D02*
X52351016Y108088097D01*
X52351016Y108088097D02*
X52351016Y108469049D01*
X52351016Y108469049D02*
X52303397Y108564287D01*
X52303397Y108564287D02*
X52255778Y108611906D01*
X52255778Y108611906D02*
X52160540Y108659525D01*
X52160540Y108659525D02*
X52017683Y108659525D01*
X52017683Y108659525D02*
X51922445Y108611906D01*
X51922445Y108611906D02*
X51874826Y108564287D01*
X51874826Y108564287D02*
X51827207Y108469049D01*
X51827207Y108469049D02*
X51827207Y108088097D01*
X51398636Y109040478D02*
X51351016Y109183335D01*
X51351016Y109183335D02*
X51351016Y109421430D01*
X51351016Y109421430D02*
X51398636Y109516668D01*
X51398636Y109516668D02*
X51446255Y109564287D01*
X51446255Y109564287D02*
X51541493Y109611906D01*
X51541493Y109611906D02*
X51636731Y109611906D01*
X51636731Y109611906D02*
X51731969Y109564287D01*
X51731969Y109564287D02*
X51779588Y109516668D01*
X51779588Y109516668D02*
X51827207Y109421430D01*
X51827207Y109421430D02*
X51874826Y109230954D01*
X51874826Y109230954D02*
X51922445Y109135716D01*
X51922445Y109135716D02*
X51970064Y109088097D01*
X51970064Y109088097D02*
X52065302Y109040478D01*
X52065302Y109040478D02*
X52160540Y109040478D01*
X52160540Y109040478D02*
X52255778Y109088097D01*
X52255778Y109088097D02*
X52303397Y109135716D01*
X52303397Y109135716D02*
X52351016Y109230954D01*
X52351016Y109230954D02*
X52351016Y109469049D01*
X52351016Y109469049D02*
X52303397Y109611906D01*
X52255778Y109992859D02*
X52303397Y110040478D01*
X52303397Y110040478D02*
X52351016Y110135716D01*
X52351016Y110135716D02*
X52351016Y110373811D01*
X52351016Y110373811D02*
X52303397Y110469049D01*
X52303397Y110469049D02*
X52255778Y110516668D01*
X52255778Y110516668D02*
X52160540Y110564287D01*
X52160540Y110564287D02*
X52065302Y110564287D01*
X52065302Y110564287D02*
X51922445Y110516668D01*
X51922445Y110516668D02*
X51351016Y109945240D01*
X51351016Y109945240D02*
X51351016Y110564287D01*
X122797180Y118588096D02*
X123797180Y118588096D01*
X123749561Y119588095D02*
X123797180Y119492857D01*
X123797180Y119492857D02*
X123797180Y119350000D01*
X123797180Y119350000D02*
X123749561Y119207143D01*
X123749561Y119207143D02*
X123654323Y119111905D01*
X123654323Y119111905D02*
X123559085Y119064286D01*
X123559085Y119064286D02*
X123368609Y119016667D01*
X123368609Y119016667D02*
X123225752Y119016667D01*
X123225752Y119016667D02*
X123035276Y119064286D01*
X123035276Y119064286D02*
X122940038Y119111905D01*
X122940038Y119111905D02*
X122844800Y119207143D01*
X122844800Y119207143D02*
X122797180Y119350000D01*
X122797180Y119350000D02*
X122797180Y119445238D01*
X122797180Y119445238D02*
X122844800Y119588095D01*
X122844800Y119588095D02*
X122892419Y119635714D01*
X122892419Y119635714D02*
X123225752Y119635714D01*
X123225752Y119635714D02*
X123225752Y119445238D01*
X122797180Y120064286D02*
X123797180Y120064286D01*
X123797180Y120064286D02*
X122797180Y120635714D01*
X122797180Y120635714D02*
X123797180Y120635714D01*
X122797180Y121635714D02*
X122797180Y121064286D01*
X122797180Y121350000D02*
X123797180Y121350000D01*
X123797180Y121350000D02*
X123654323Y121254762D01*
X123654323Y121254762D02*
X123559085Y121159524D01*
X123559085Y121159524D02*
X123511466Y121064286D01*
X96233715Y107394049D02*
X97233715Y107394049D01*
X96233715Y107870239D02*
X97233715Y107870239D01*
X97233715Y107870239D02*
X96233715Y108441667D01*
X96233715Y108441667D02*
X97233715Y108441667D01*
X97233715Y109203572D02*
X96519430Y109203572D01*
X96519430Y109203572D02*
X96376573Y109155953D01*
X96376573Y109155953D02*
X96281335Y109060715D01*
X96281335Y109060715D02*
X96233715Y108917858D01*
X96233715Y108917858D02*
X96233715Y108822620D01*
X96233715Y110203572D02*
X96233715Y109632144D01*
X96233715Y109917858D02*
X97233715Y109917858D01*
X97233715Y109917858D02*
X97090858Y109822620D01*
X97090858Y109822620D02*
X96995620Y109727382D01*
X96995620Y109727382D02*
X96948001Y109632144D01*
X21139487Y118657143D02*
X22139487Y118657143D01*
X22139487Y118657143D02*
X22139487Y118895238D01*
X22139487Y118895238D02*
X22091868Y119038095D01*
X22091868Y119038095D02*
X21996630Y119133333D01*
X21996630Y119133333D02*
X21901392Y119180952D01*
X21901392Y119180952D02*
X21710916Y119228571D01*
X21710916Y119228571D02*
X21568059Y119228571D01*
X21568059Y119228571D02*
X21377583Y119180952D01*
X21377583Y119180952D02*
X21282345Y119133333D01*
X21282345Y119133333D02*
X21187107Y119038095D01*
X21187107Y119038095D02*
X21139487Y118895238D01*
X21139487Y118895238D02*
X21139487Y118657143D01*
X21234726Y120228571D02*
X21187107Y120180952D01*
X21187107Y120180952D02*
X21139487Y120038095D01*
X21139487Y120038095D02*
X21139487Y119942857D01*
X21139487Y119942857D02*
X21187107Y119800000D01*
X21187107Y119800000D02*
X21282345Y119704762D01*
X21282345Y119704762D02*
X21377583Y119657143D01*
X21377583Y119657143D02*
X21568059Y119609524D01*
X21568059Y119609524D02*
X21710916Y119609524D01*
X21710916Y119609524D02*
X21901392Y119657143D01*
X21901392Y119657143D02*
X21996630Y119704762D01*
X21996630Y119704762D02*
X22091868Y119800000D01*
X22091868Y119800000D02*
X22139487Y119942857D01*
X22139487Y119942857D02*
X22139487Y120038095D01*
X22139487Y120038095D02*
X22091868Y120180952D01*
X22091868Y120180952D02*
X22044249Y120228571D01*
X22044249Y120609524D02*
X22091868Y120657143D01*
X22091868Y120657143D02*
X22139487Y120752381D01*
X22139487Y120752381D02*
X22139487Y120990476D01*
X22139487Y120990476D02*
X22091868Y121085714D01*
X22091868Y121085714D02*
X22044249Y121133333D01*
X22044249Y121133333D02*
X21949011Y121180952D01*
X21949011Y121180952D02*
X21853773Y121180952D01*
X21853773Y121180952D02*
X21710916Y121133333D01*
X21710916Y121133333D02*
X21139487Y120561905D01*
X21139487Y120561905D02*
X21139487Y121180952D01*
X21520440Y121609524D02*
X21520440Y122371428D01*
X122972180Y107155953D02*
X123972180Y107155953D01*
X123924561Y108155952D02*
X123972180Y108060714D01*
X123972180Y108060714D02*
X123972180Y107917857D01*
X123972180Y107917857D02*
X123924561Y107775000D01*
X123924561Y107775000D02*
X123829323Y107679762D01*
X123829323Y107679762D02*
X123734085Y107632143D01*
X123734085Y107632143D02*
X123543609Y107584524D01*
X123543609Y107584524D02*
X123400752Y107584524D01*
X123400752Y107584524D02*
X123210276Y107632143D01*
X123210276Y107632143D02*
X123115038Y107679762D01*
X123115038Y107679762D02*
X123019800Y107775000D01*
X123019800Y107775000D02*
X122972180Y107917857D01*
X122972180Y107917857D02*
X122972180Y108013095D01*
X122972180Y108013095D02*
X123019800Y108155952D01*
X123019800Y108155952D02*
X123067419Y108203571D01*
X123067419Y108203571D02*
X123400752Y108203571D01*
X123400752Y108203571D02*
X123400752Y108013095D01*
X122972180Y108632143D02*
X123972180Y108632143D01*
X123972180Y108632143D02*
X122972180Y109203571D01*
X122972180Y109203571D02*
X123972180Y109203571D01*
X123972180Y110108333D02*
X123972180Y109917857D01*
X123972180Y109917857D02*
X123924561Y109822619D01*
X123924561Y109822619D02*
X123876942Y109775000D01*
X123876942Y109775000D02*
X123734085Y109679762D01*
X123734085Y109679762D02*
X123543609Y109632143D01*
X123543609Y109632143D02*
X123162657Y109632143D01*
X123162657Y109632143D02*
X123067419Y109679762D01*
X123067419Y109679762D02*
X123019800Y109727381D01*
X123019800Y109727381D02*
X122972180Y109822619D01*
X122972180Y109822619D02*
X122972180Y110013095D01*
X122972180Y110013095D02*
X123019800Y110108333D01*
X123019800Y110108333D02*
X123067419Y110155952D01*
X123067419Y110155952D02*
X123162657Y110203571D01*
X123162657Y110203571D02*
X123400752Y110203571D01*
X123400752Y110203571D02*
X123495990Y110155952D01*
X123495990Y110155952D02*
X123543609Y110108333D01*
X123543609Y110108333D02*
X123591228Y110013095D01*
X123591228Y110013095D02*
X123591228Y109822619D01*
X123591228Y109822619D02*
X123543609Y109727381D01*
X123543609Y109727381D02*
X123495990Y109679762D01*
X123495990Y109679762D02*
X123400752Y109632143D01*
X17889486Y108754762D02*
X17889486Y108278572D01*
X17889486Y108278572D02*
X18889486Y108278572D01*
X17937106Y109040477D02*
X17889486Y109183334D01*
X17889486Y109183334D02*
X17889486Y109421429D01*
X17889486Y109421429D02*
X17937106Y109516667D01*
X17937106Y109516667D02*
X17984725Y109564286D01*
X17984725Y109564286D02*
X18079963Y109611905D01*
X18079963Y109611905D02*
X18175201Y109611905D01*
X18175201Y109611905D02*
X18270439Y109564286D01*
X18270439Y109564286D02*
X18318058Y109516667D01*
X18318058Y109516667D02*
X18365677Y109421429D01*
X18365677Y109421429D02*
X18413296Y109230953D01*
X18413296Y109230953D02*
X18460915Y109135715D01*
X18460915Y109135715D02*
X18508534Y109088096D01*
X18508534Y109088096D02*
X18603772Y109040477D01*
X18603772Y109040477D02*
X18699010Y109040477D01*
X18699010Y109040477D02*
X18794248Y109088096D01*
X18794248Y109088096D02*
X18841867Y109135715D01*
X18841867Y109135715D02*
X18889486Y109230953D01*
X18889486Y109230953D02*
X18889486Y109469048D01*
X18889486Y109469048D02*
X18841867Y109611905D01*
X18556153Y110469048D02*
X17889486Y110469048D01*
X18937106Y110230953D02*
X18222820Y109992858D01*
X18222820Y109992858D02*
X18222820Y110611905D01*
X116287557Y107155953D02*
X117287557Y107155953D01*
X117239938Y108155952D02*
X117287557Y108060714D01*
X117287557Y108060714D02*
X117287557Y107917857D01*
X117287557Y107917857D02*
X117239938Y107775000D01*
X117239938Y107775000D02*
X117144700Y107679762D01*
X117144700Y107679762D02*
X117049462Y107632143D01*
X117049462Y107632143D02*
X116858986Y107584524D01*
X116858986Y107584524D02*
X116716129Y107584524D01*
X116716129Y107584524D02*
X116525653Y107632143D01*
X116525653Y107632143D02*
X116430415Y107679762D01*
X116430415Y107679762D02*
X116335177Y107775000D01*
X116335177Y107775000D02*
X116287557Y107917857D01*
X116287557Y107917857D02*
X116287557Y108013095D01*
X116287557Y108013095D02*
X116335177Y108155952D01*
X116335177Y108155952D02*
X116382796Y108203571D01*
X116382796Y108203571D02*
X116716129Y108203571D01*
X116716129Y108203571D02*
X116716129Y108013095D01*
X116287557Y108632143D02*
X117287557Y108632143D01*
X117287557Y108632143D02*
X116287557Y109203571D01*
X116287557Y109203571D02*
X117287557Y109203571D01*
X116954224Y110108333D02*
X116287557Y110108333D01*
X117335177Y109870238D02*
X116620891Y109632143D01*
X116620891Y109632143D02*
X116620891Y110251190D01*
X103442139Y107203572D02*
X103394520Y107346429D01*
X103394520Y107346429D02*
X103346901Y107394048D01*
X103346901Y107394048D02*
X103251663Y107441667D01*
X103251663Y107441667D02*
X103108806Y107441667D01*
X103108806Y107441667D02*
X103013568Y107394048D01*
X103013568Y107394048D02*
X102965949Y107346429D01*
X102965949Y107346429D02*
X102918329Y107251191D01*
X102918329Y107251191D02*
X102918329Y106870239D01*
X102918329Y106870239D02*
X103918329Y106870239D01*
X103918329Y106870239D02*
X103918329Y107203572D01*
X103918329Y107203572D02*
X103870710Y107298810D01*
X103870710Y107298810D02*
X103823091Y107346429D01*
X103823091Y107346429D02*
X103727853Y107394048D01*
X103727853Y107394048D02*
X103632615Y107394048D01*
X103632615Y107394048D02*
X103537377Y107346429D01*
X103537377Y107346429D02*
X103489758Y107298810D01*
X103489758Y107298810D02*
X103442139Y107203572D01*
X103442139Y107203572D02*
X103442139Y106870239D01*
X103918329Y107727382D02*
X103918329Y108298810D01*
X102918329Y108013096D02*
X103918329Y108013096D01*
X102918329Y108632144D02*
X103918329Y108632144D01*
X103918329Y108632144D02*
X102918329Y109203572D01*
X102918329Y109203572D02*
X103918329Y109203572D01*
X103823091Y109632144D02*
X103870710Y109679763D01*
X103870710Y109679763D02*
X103918329Y109775001D01*
X103918329Y109775001D02*
X103918329Y110013096D01*
X103918329Y110013096D02*
X103870710Y110108334D01*
X103870710Y110108334D02*
X103823091Y110155953D01*
X103823091Y110155953D02*
X103727853Y110203572D01*
X103727853Y110203572D02*
X103632615Y110203572D01*
X103632615Y110203572D02*
X103489758Y110155953D01*
X103489758Y110155953D02*
X102918329Y109584525D01*
X102918329Y109584525D02*
X102918329Y110203572D01*
X119629864Y107155953D02*
X120629864Y107155953D01*
X120582245Y108155952D02*
X120629864Y108060714D01*
X120629864Y108060714D02*
X120629864Y107917857D01*
X120629864Y107917857D02*
X120582245Y107775000D01*
X120582245Y107775000D02*
X120487007Y107679762D01*
X120487007Y107679762D02*
X120391769Y107632143D01*
X120391769Y107632143D02*
X120201293Y107584524D01*
X120201293Y107584524D02*
X120058436Y107584524D01*
X120058436Y107584524D02*
X119867960Y107632143D01*
X119867960Y107632143D02*
X119772722Y107679762D01*
X119772722Y107679762D02*
X119677484Y107775000D01*
X119677484Y107775000D02*
X119629864Y107917857D01*
X119629864Y107917857D02*
X119629864Y108013095D01*
X119629864Y108013095D02*
X119677484Y108155952D01*
X119677484Y108155952D02*
X119725103Y108203571D01*
X119725103Y108203571D02*
X120058436Y108203571D01*
X120058436Y108203571D02*
X120058436Y108013095D01*
X119629864Y108632143D02*
X120629864Y108632143D01*
X120629864Y108632143D02*
X119629864Y109203571D01*
X119629864Y109203571D02*
X120629864Y109203571D01*
X120629864Y110155952D02*
X120629864Y109679762D01*
X120629864Y109679762D02*
X120153674Y109632143D01*
X120153674Y109632143D02*
X120201293Y109679762D01*
X120201293Y109679762D02*
X120248912Y109775000D01*
X120248912Y109775000D02*
X120248912Y110013095D01*
X120248912Y110013095D02*
X120201293Y110108333D01*
X120201293Y110108333D02*
X120153674Y110155952D01*
X120153674Y110155952D02*
X120058436Y110203571D01*
X120058436Y110203571D02*
X119820341Y110203571D01*
X119820341Y110203571D02*
X119725103Y110155952D01*
X119725103Y110155952D02*
X119677484Y110108333D01*
X119677484Y110108333D02*
X119629864Y110013095D01*
X119629864Y110013095D02*
X119629864Y109775000D01*
X119629864Y109775000D02*
X119677484Y109679762D01*
X119677484Y109679762D02*
X119725103Y109632143D01*
X106784446Y107203572D02*
X106736827Y107346429D01*
X106736827Y107346429D02*
X106689208Y107394048D01*
X106689208Y107394048D02*
X106593970Y107441667D01*
X106593970Y107441667D02*
X106451113Y107441667D01*
X106451113Y107441667D02*
X106355875Y107394048D01*
X106355875Y107394048D02*
X106308256Y107346429D01*
X106308256Y107346429D02*
X106260636Y107251191D01*
X106260636Y107251191D02*
X106260636Y106870239D01*
X106260636Y106870239D02*
X107260636Y106870239D01*
X107260636Y106870239D02*
X107260636Y107203572D01*
X107260636Y107203572D02*
X107213017Y107298810D01*
X107213017Y107298810D02*
X107165398Y107346429D01*
X107165398Y107346429D02*
X107070160Y107394048D01*
X107070160Y107394048D02*
X106974922Y107394048D01*
X106974922Y107394048D02*
X106879684Y107346429D01*
X106879684Y107346429D02*
X106832065Y107298810D01*
X106832065Y107298810D02*
X106784446Y107203572D01*
X106784446Y107203572D02*
X106784446Y106870239D01*
X107260636Y107727382D02*
X107260636Y108298810D01*
X106260636Y108013096D02*
X107260636Y108013096D01*
X106260636Y108632144D02*
X107260636Y108632144D01*
X107260636Y108632144D02*
X106260636Y109203572D01*
X106260636Y109203572D02*
X107260636Y109203572D01*
X106260636Y110203572D02*
X106260636Y109632144D01*
X106260636Y109917858D02*
X107260636Y109917858D01*
X107260636Y109917858D02*
X107117779Y109822620D01*
X107117779Y109822620D02*
X107022541Y109727382D01*
X107022541Y109727382D02*
X106974922Y109632144D01*
X109602943Y107155953D02*
X110602943Y107155953D01*
X110555324Y108155952D02*
X110602943Y108060714D01*
X110602943Y108060714D02*
X110602943Y107917857D01*
X110602943Y107917857D02*
X110555324Y107775000D01*
X110555324Y107775000D02*
X110460086Y107679762D01*
X110460086Y107679762D02*
X110364848Y107632143D01*
X110364848Y107632143D02*
X110174372Y107584524D01*
X110174372Y107584524D02*
X110031515Y107584524D01*
X110031515Y107584524D02*
X109841039Y107632143D01*
X109841039Y107632143D02*
X109745801Y107679762D01*
X109745801Y107679762D02*
X109650563Y107775000D01*
X109650563Y107775000D02*
X109602943Y107917857D01*
X109602943Y107917857D02*
X109602943Y108013095D01*
X109602943Y108013095D02*
X109650563Y108155952D01*
X109650563Y108155952D02*
X109698182Y108203571D01*
X109698182Y108203571D02*
X110031515Y108203571D01*
X110031515Y108203571D02*
X110031515Y108013095D01*
X109602943Y108632143D02*
X110602943Y108632143D01*
X110602943Y108632143D02*
X109602943Y109203571D01*
X109602943Y109203571D02*
X110602943Y109203571D01*
X110507705Y109632143D02*
X110555324Y109679762D01*
X110555324Y109679762D02*
X110602943Y109775000D01*
X110602943Y109775000D02*
X110602943Y110013095D01*
X110602943Y110013095D02*
X110555324Y110108333D01*
X110555324Y110108333D02*
X110507705Y110155952D01*
X110507705Y110155952D02*
X110412467Y110203571D01*
X110412467Y110203571D02*
X110317229Y110203571D01*
X110317229Y110203571D02*
X110174372Y110155952D01*
X110174372Y110155952D02*
X109602943Y109584524D01*
X109602943Y109584524D02*
X109602943Y110203571D01*
X112945250Y107155953D02*
X113945250Y107155953D01*
X113897631Y108155952D02*
X113945250Y108060714D01*
X113945250Y108060714D02*
X113945250Y107917857D01*
X113945250Y107917857D02*
X113897631Y107775000D01*
X113897631Y107775000D02*
X113802393Y107679762D01*
X113802393Y107679762D02*
X113707155Y107632143D01*
X113707155Y107632143D02*
X113516679Y107584524D01*
X113516679Y107584524D02*
X113373822Y107584524D01*
X113373822Y107584524D02*
X113183346Y107632143D01*
X113183346Y107632143D02*
X113088108Y107679762D01*
X113088108Y107679762D02*
X112992870Y107775000D01*
X112992870Y107775000D02*
X112945250Y107917857D01*
X112945250Y107917857D02*
X112945250Y108013095D01*
X112945250Y108013095D02*
X112992870Y108155952D01*
X112992870Y108155952D02*
X113040489Y108203571D01*
X113040489Y108203571D02*
X113373822Y108203571D01*
X113373822Y108203571D02*
X113373822Y108013095D01*
X112945250Y108632143D02*
X113945250Y108632143D01*
X113945250Y108632143D02*
X112945250Y109203571D01*
X112945250Y109203571D02*
X113945250Y109203571D01*
X113945250Y109584524D02*
X113945250Y110203571D01*
X113945250Y110203571D02*
X113564298Y109870238D01*
X113564298Y109870238D02*
X113564298Y110013095D01*
X113564298Y110013095D02*
X113516679Y110108333D01*
X113516679Y110108333D02*
X113469060Y110155952D01*
X113469060Y110155952D02*
X113373822Y110203571D01*
X113373822Y110203571D02*
X113135727Y110203571D01*
X113135727Y110203571D02*
X113040489Y110155952D01*
X113040489Y110155952D02*
X112992870Y110108333D01*
X112992870Y110108333D02*
X112945250Y110013095D01*
X112945250Y110013095D02*
X112945250Y109727381D01*
X112945250Y109727381D02*
X112992870Y109632143D01*
X112992870Y109632143D02*
X113040489Y109584524D01*
X89462180Y118588096D02*
X90462180Y118588096D01*
X90462180Y118588096D02*
X90462180Y118969048D01*
X90462180Y118969048D02*
X90414561Y119064286D01*
X90414561Y119064286D02*
X90366942Y119111905D01*
X90366942Y119111905D02*
X90271704Y119159524D01*
X90271704Y119159524D02*
X90128847Y119159524D01*
X90128847Y119159524D02*
X90033609Y119111905D01*
X90033609Y119111905D02*
X89985990Y119064286D01*
X89985990Y119064286D02*
X89938371Y118969048D01*
X89938371Y118969048D02*
X89938371Y118588096D01*
X89462180Y119588096D02*
X90462180Y119588096D01*
X90462180Y119588096D02*
X90462180Y119969048D01*
X90462180Y119969048D02*
X90414561Y120064286D01*
X90414561Y120064286D02*
X90366942Y120111905D01*
X90366942Y120111905D02*
X90271704Y120159524D01*
X90271704Y120159524D02*
X90128847Y120159524D01*
X90128847Y120159524D02*
X90033609Y120111905D01*
X90033609Y120111905D02*
X89985990Y120064286D01*
X89985990Y120064286D02*
X89938371Y119969048D01*
X89938371Y119969048D02*
X89938371Y119588096D01*
X89509800Y120540477D02*
X89462180Y120683334D01*
X89462180Y120683334D02*
X89462180Y120921429D01*
X89462180Y120921429D02*
X89509800Y121016667D01*
X89509800Y121016667D02*
X89557419Y121064286D01*
X89557419Y121064286D02*
X89652657Y121111905D01*
X89652657Y121111905D02*
X89747895Y121111905D01*
X89747895Y121111905D02*
X89843133Y121064286D01*
X89843133Y121064286D02*
X89890752Y121016667D01*
X89890752Y121016667D02*
X89938371Y120921429D01*
X89938371Y120921429D02*
X89985990Y120730953D01*
X89985990Y120730953D02*
X90033609Y120635715D01*
X90033609Y120635715D02*
X90081228Y120588096D01*
X90081228Y120588096D02*
X90176466Y120540477D01*
X90176466Y120540477D02*
X90271704Y120540477D01*
X90271704Y120540477D02*
X90366942Y120588096D01*
X90366942Y120588096D02*
X90414561Y120635715D01*
X90414561Y120635715D02*
X90462180Y120730953D01*
X90462180Y120730953D02*
X90462180Y120969048D01*
X90462180Y120969048D02*
X90414561Y121111905D01*
X89462180Y122064286D02*
X89462180Y121492858D01*
X89462180Y121778572D02*
X90462180Y121778572D01*
X90462180Y121778572D02*
X90319323Y121683334D01*
X90319323Y121683334D02*
X90224085Y121588096D01*
X90224085Y121588096D02*
X90176466Y121492858D01*
X103824561Y119111905D02*
X103872180Y119016667D01*
X103872180Y119016667D02*
X103872180Y118873810D01*
X103872180Y118873810D02*
X103824561Y118730953D01*
X103824561Y118730953D02*
X103729323Y118635715D01*
X103729323Y118635715D02*
X103634085Y118588096D01*
X103634085Y118588096D02*
X103443609Y118540477D01*
X103443609Y118540477D02*
X103300752Y118540477D01*
X103300752Y118540477D02*
X103110276Y118588096D01*
X103110276Y118588096D02*
X103015038Y118635715D01*
X103015038Y118635715D02*
X102919800Y118730953D01*
X102919800Y118730953D02*
X102872180Y118873810D01*
X102872180Y118873810D02*
X102872180Y118969048D01*
X102872180Y118969048D02*
X102919800Y119111905D01*
X102919800Y119111905D02*
X102967419Y119159524D01*
X102967419Y119159524D02*
X103300752Y119159524D01*
X103300752Y119159524D02*
X103300752Y118969048D01*
X102872180Y119588096D02*
X103872180Y119588096D01*
X103872180Y119588096D02*
X102872180Y120159524D01*
X102872180Y120159524D02*
X103872180Y120159524D01*
X102872180Y120635715D02*
X103872180Y120635715D01*
X103872180Y120635715D02*
X103872180Y120873810D01*
X103872180Y120873810D02*
X103824561Y121016667D01*
X103824561Y121016667D02*
X103729323Y121111905D01*
X103729323Y121111905D02*
X103634085Y121159524D01*
X103634085Y121159524D02*
X103443609Y121207143D01*
X103443609Y121207143D02*
X103300752Y121207143D01*
X103300752Y121207143D02*
X103110276Y121159524D01*
X103110276Y121159524D02*
X103015038Y121111905D01*
X103015038Y121111905D02*
X102919800Y121016667D01*
X102919800Y121016667D02*
X102872180Y120873810D01*
X102872180Y120873810D02*
X102872180Y120635715D01*
X103157895Y121588096D02*
X103157895Y122064286D01*
X102872180Y121492858D02*
X103872180Y121826191D01*
X103872180Y121826191D02*
X102872180Y122159524D01*
X113113077Y119302383D02*
X113113077Y120064287D01*
X112732124Y119683335D02*
X113494029Y119683335D01*
X111645990Y118588097D02*
X111645990Y118921430D01*
X111122180Y119064287D02*
X111122180Y118588097D01*
X111122180Y118588097D02*
X112122180Y118588097D01*
X112122180Y118588097D02*
X112122180Y119064287D01*
X112074561Y120016668D02*
X112122180Y119921430D01*
X112122180Y119921430D02*
X112122180Y119778573D01*
X112122180Y119778573D02*
X112074561Y119635716D01*
X112074561Y119635716D02*
X111979323Y119540478D01*
X111979323Y119540478D02*
X111884085Y119492859D01*
X111884085Y119492859D02*
X111693609Y119445240D01*
X111693609Y119445240D02*
X111550752Y119445240D01*
X111550752Y119445240D02*
X111360276Y119492859D01*
X111360276Y119492859D02*
X111265038Y119540478D01*
X111265038Y119540478D02*
X111169800Y119635716D01*
X111169800Y119635716D02*
X111122180Y119778573D01*
X111122180Y119778573D02*
X111122180Y119873811D01*
X111122180Y119873811D02*
X111169800Y120016668D01*
X111169800Y120016668D02*
X111217419Y120064287D01*
X111217419Y120064287D02*
X111550752Y120064287D01*
X111550752Y120064287D02*
X111550752Y119873811D01*
X112122180Y120350002D02*
X112122180Y120921430D01*
X111122180Y120635716D02*
X112122180Y120635716D01*
X109893189Y119302383D02*
X109893189Y120064287D01*
X82864487Y107394049D02*
X83864487Y107394049D01*
X82864487Y107870239D02*
X83864487Y107870239D01*
X83864487Y107870239D02*
X82864487Y108441667D01*
X82864487Y108441667D02*
X83864487Y108441667D01*
X83864487Y109203572D02*
X83150202Y109203572D01*
X83150202Y109203572D02*
X83007345Y109155953D01*
X83007345Y109155953D02*
X82912107Y109060715D01*
X82912107Y109060715D02*
X82864487Y108917858D01*
X82864487Y108917858D02*
X82864487Y108822620D01*
X83864487Y110155953D02*
X83864487Y109679763D01*
X83864487Y109679763D02*
X83388297Y109632144D01*
X83388297Y109632144D02*
X83435916Y109679763D01*
X83435916Y109679763D02*
X83483535Y109775001D01*
X83483535Y109775001D02*
X83483535Y110013096D01*
X83483535Y110013096D02*
X83435916Y110108334D01*
X83435916Y110108334D02*
X83388297Y110155953D01*
X83388297Y110155953D02*
X83293059Y110203572D01*
X83293059Y110203572D02*
X83054964Y110203572D01*
X83054964Y110203572D02*
X82959726Y110155953D01*
X82959726Y110155953D02*
X82912107Y110108334D01*
X82912107Y110108334D02*
X82864487Y110013096D01*
X82864487Y110013096D02*
X82864487Y109775001D01*
X82864487Y109775001D02*
X82912107Y109679763D01*
X82912107Y109679763D02*
X82959726Y109632144D01*
X83325990Y118921429D02*
X83325990Y118588096D01*
X82802180Y118588096D02*
X83802180Y118588096D01*
X83802180Y118588096D02*
X83802180Y119064286D01*
X82802180Y119921429D02*
X82802180Y119445239D01*
X82802180Y119445239D02*
X83802180Y119445239D01*
X83325990Y120254763D02*
X83325990Y120588096D01*
X82802180Y120730953D02*
X82802180Y120254763D01*
X82802180Y120254763D02*
X83802180Y120254763D01*
X83802180Y120254763D02*
X83802180Y120730953D01*
X83802180Y121064287D02*
X82802180Y121730953D01*
X83802180Y121730953D02*
X82802180Y121064287D01*
X48290578Y107135715D02*
X48290578Y107611905D01*
X48004863Y107040477D02*
X49004863Y107373810D01*
X49004863Y107373810D02*
X48004863Y107707143D01*
X49004863Y108040477D02*
X48195340Y108040477D01*
X48195340Y108040477D02*
X48100102Y108088096D01*
X48100102Y108088096D02*
X48052483Y108135715D01*
X48052483Y108135715D02*
X48004863Y108230953D01*
X48004863Y108230953D02*
X48004863Y108421429D01*
X48004863Y108421429D02*
X48052483Y108516667D01*
X48052483Y108516667D02*
X48100102Y108564286D01*
X48100102Y108564286D02*
X48195340Y108611905D01*
X48195340Y108611905D02*
X49004863Y108611905D01*
X49004863Y108992858D02*
X48004863Y109659524D01*
X49004863Y109659524D02*
X48004863Y108992858D01*
X49004863Y109945239D02*
X49004863Y110564286D01*
X49004863Y110564286D02*
X48623911Y110230953D01*
X48623911Y110230953D02*
X48623911Y110373810D01*
X48623911Y110373810D02*
X48576292Y110469048D01*
X48576292Y110469048D02*
X48528673Y110516667D01*
X48528673Y110516667D02*
X48433435Y110564286D01*
X48433435Y110564286D02*
X48195340Y110564286D01*
X48195340Y110564286D02*
X48100102Y110516667D01*
X48100102Y110516667D02*
X48052483Y110469048D01*
X48052483Y110469048D02*
X48004863Y110373810D01*
X48004863Y110373810D02*
X48004863Y110088096D01*
X48004863Y110088096D02*
X48052483Y109992858D01*
X48052483Y109992858D02*
X48100102Y109945239D01*
X44658710Y106516668D02*
X45658710Y106516668D01*
X45182520Y106516668D02*
X45182520Y107088096D01*
X44658710Y107088096D02*
X45658710Y107088096D01*
X44944425Y107516668D02*
X44944425Y107992858D01*
X44658710Y107421430D02*
X45658710Y107754763D01*
X45658710Y107754763D02*
X44658710Y108088096D01*
X44658710Y108897620D02*
X44658710Y108421430D01*
X44658710Y108421430D02*
X45658710Y108421430D01*
X44658710Y109707144D02*
X44658710Y109230954D01*
X44658710Y109230954D02*
X45658710Y109230954D01*
X45563472Y109992859D02*
X45611091Y110040478D01*
X45611091Y110040478D02*
X45658710Y110135716D01*
X45658710Y110135716D02*
X45658710Y110373811D01*
X45658710Y110373811D02*
X45611091Y110469049D01*
X45611091Y110469049D02*
X45563472Y110516668D01*
X45563472Y110516668D02*
X45468234Y110564287D01*
X45468234Y110564287D02*
X45372996Y110564287D01*
X45372996Y110564287D02*
X45230139Y110516668D01*
X45230139Y110516668D02*
X44658710Y109945240D01*
X44658710Y109945240D02*
X44658710Y110564287D01*
X37918332Y118657143D02*
X38918332Y118657143D01*
X38918332Y118657143D02*
X38918332Y118895238D01*
X38918332Y118895238D02*
X38870713Y119038095D01*
X38870713Y119038095D02*
X38775475Y119133333D01*
X38775475Y119133333D02*
X38680237Y119180952D01*
X38680237Y119180952D02*
X38489761Y119228571D01*
X38489761Y119228571D02*
X38346904Y119228571D01*
X38346904Y119228571D02*
X38156428Y119180952D01*
X38156428Y119180952D02*
X38061190Y119133333D01*
X38061190Y119133333D02*
X37965952Y119038095D01*
X37965952Y119038095D02*
X37918332Y118895238D01*
X37918332Y118895238D02*
X37918332Y118657143D01*
X37918332Y119657143D02*
X38918332Y119657143D01*
X37965952Y120085714D02*
X37918332Y120228571D01*
X37918332Y120228571D02*
X37918332Y120466666D01*
X37918332Y120466666D02*
X37965952Y120561904D01*
X37965952Y120561904D02*
X38013571Y120609523D01*
X38013571Y120609523D02*
X38108809Y120657142D01*
X38108809Y120657142D02*
X38204047Y120657142D01*
X38204047Y120657142D02*
X38299285Y120609523D01*
X38299285Y120609523D02*
X38346904Y120561904D01*
X38346904Y120561904D02*
X38394523Y120466666D01*
X38394523Y120466666D02*
X38442142Y120276190D01*
X38442142Y120276190D02*
X38489761Y120180952D01*
X38489761Y120180952D02*
X38537380Y120133333D01*
X38537380Y120133333D02*
X38632618Y120085714D01*
X38632618Y120085714D02*
X38727856Y120085714D01*
X38727856Y120085714D02*
X38823094Y120133333D01*
X38823094Y120133333D02*
X38870713Y120180952D01*
X38870713Y120180952D02*
X38918332Y120276190D01*
X38918332Y120276190D02*
X38918332Y120514285D01*
X38918332Y120514285D02*
X38870713Y120657142D01*
X38299285Y121085714D02*
X38299285Y121847618D01*
X14543333Y108754762D02*
X14543333Y108278572D01*
X14543333Y108278572D02*
X15543333Y108278572D01*
X14590953Y109040477D02*
X14543333Y109183334D01*
X14543333Y109183334D02*
X14543333Y109421429D01*
X14543333Y109421429D02*
X14590953Y109516667D01*
X14590953Y109516667D02*
X14638572Y109564286D01*
X14638572Y109564286D02*
X14733810Y109611905D01*
X14733810Y109611905D02*
X14829048Y109611905D01*
X14829048Y109611905D02*
X14924286Y109564286D01*
X14924286Y109564286D02*
X14971905Y109516667D01*
X14971905Y109516667D02*
X15019524Y109421429D01*
X15019524Y109421429D02*
X15067143Y109230953D01*
X15067143Y109230953D02*
X15114762Y109135715D01*
X15114762Y109135715D02*
X15162381Y109088096D01*
X15162381Y109088096D02*
X15257619Y109040477D01*
X15257619Y109040477D02*
X15352857Y109040477D01*
X15352857Y109040477D02*
X15448095Y109088096D01*
X15448095Y109088096D02*
X15495714Y109135715D01*
X15495714Y109135715D02*
X15543333Y109230953D01*
X15543333Y109230953D02*
X15543333Y109469048D01*
X15543333Y109469048D02*
X15495714Y109611905D01*
X15543333Y109945239D02*
X15543333Y110564286D01*
X15543333Y110564286D02*
X15162381Y110230953D01*
X15162381Y110230953D02*
X15162381Y110373810D01*
X15162381Y110373810D02*
X15114762Y110469048D01*
X15114762Y110469048D02*
X15067143Y110516667D01*
X15067143Y110516667D02*
X14971905Y110564286D01*
X14971905Y110564286D02*
X14733810Y110564286D01*
X14733810Y110564286D02*
X14638572Y110516667D01*
X14638572Y110516667D02*
X14590953Y110469048D01*
X14590953Y110469048D02*
X14543333Y110373810D01*
X14543333Y110373810D02*
X14543333Y110088096D01*
X14543333Y110088096D02*
X14590953Y109992858D01*
X14590953Y109992858D02*
X14638572Y109945239D01*
X11197180Y107707144D02*
X11197180Y107230954D01*
X11197180Y107230954D02*
X12197180Y107230954D01*
X11244800Y107992859D02*
X11197180Y108135716D01*
X11197180Y108135716D02*
X11197180Y108373811D01*
X11197180Y108373811D02*
X11244800Y108469049D01*
X11244800Y108469049D02*
X11292419Y108516668D01*
X11292419Y108516668D02*
X11387657Y108564287D01*
X11387657Y108564287D02*
X11482895Y108564287D01*
X11482895Y108564287D02*
X11578133Y108516668D01*
X11578133Y108516668D02*
X11625752Y108469049D01*
X11625752Y108469049D02*
X11673371Y108373811D01*
X11673371Y108373811D02*
X11720990Y108183335D01*
X11720990Y108183335D02*
X11768609Y108088097D01*
X11768609Y108088097D02*
X11816228Y108040478D01*
X11816228Y108040478D02*
X11911466Y107992859D01*
X11911466Y107992859D02*
X12006704Y107992859D01*
X12006704Y107992859D02*
X12101942Y108040478D01*
X12101942Y108040478D02*
X12149561Y108088097D01*
X12149561Y108088097D02*
X12197180Y108183335D01*
X12197180Y108183335D02*
X12197180Y108421430D01*
X12197180Y108421430D02*
X12149561Y108564287D01*
X11197180Y108992859D02*
X12197180Y108992859D01*
X11720990Y108992859D02*
X11720990Y109564287D01*
X11197180Y109564287D02*
X12197180Y109564287D01*
X11197180Y110564287D02*
X11197180Y109992859D01*
X11197180Y110278573D02*
X12197180Y110278573D01*
X12197180Y110278573D02*
X12054323Y110183335D01*
X12054323Y110183335D02*
X11959085Y110088097D01*
X11959085Y110088097D02*
X11911466Y109992859D01*
X21235639Y108754762D02*
X21235639Y108278572D01*
X21235639Y108278572D02*
X22235639Y108278572D01*
X21283259Y109040477D02*
X21235639Y109183334D01*
X21235639Y109183334D02*
X21235639Y109421429D01*
X21235639Y109421429D02*
X21283259Y109516667D01*
X21283259Y109516667D02*
X21330878Y109564286D01*
X21330878Y109564286D02*
X21426116Y109611905D01*
X21426116Y109611905D02*
X21521354Y109611905D01*
X21521354Y109611905D02*
X21616592Y109564286D01*
X21616592Y109564286D02*
X21664211Y109516667D01*
X21664211Y109516667D02*
X21711830Y109421429D01*
X21711830Y109421429D02*
X21759449Y109230953D01*
X21759449Y109230953D02*
X21807068Y109135715D01*
X21807068Y109135715D02*
X21854687Y109088096D01*
X21854687Y109088096D02*
X21949925Y109040477D01*
X21949925Y109040477D02*
X22045163Y109040477D01*
X22045163Y109040477D02*
X22140401Y109088096D01*
X22140401Y109088096D02*
X22188020Y109135715D01*
X22188020Y109135715D02*
X22235639Y109230953D01*
X22235639Y109230953D02*
X22235639Y109469048D01*
X22235639Y109469048D02*
X22188020Y109611905D01*
X21235639Y110564286D02*
X21235639Y109992858D01*
X21235639Y110278572D02*
X22235639Y110278572D01*
X22235639Y110278572D02*
X22092782Y110183334D01*
X22092782Y110183334D02*
X21997544Y110088096D01*
X21997544Y110088096D02*
X21949925Y109992858D01*
X13210688Y21178572D02*
X13163069Y21273810D01*
X13163069Y21273810D02*
X13163069Y21416667D01*
X13163069Y21416667D02*
X13210688Y21559524D01*
X13210688Y21559524D02*
X13305926Y21654762D01*
X13305926Y21654762D02*
X13401164Y21702381D01*
X13401164Y21702381D02*
X13591640Y21750000D01*
X13591640Y21750000D02*
X13734497Y21750000D01*
X13734497Y21750000D02*
X13924973Y21702381D01*
X13924973Y21702381D02*
X14020211Y21654762D01*
X14020211Y21654762D02*
X14115450Y21559524D01*
X14115450Y21559524D02*
X14163069Y21416667D01*
X14163069Y21416667D02*
X14163069Y21321429D01*
X14163069Y21321429D02*
X14115450Y21178572D01*
X14115450Y21178572D02*
X14067830Y21130953D01*
X14067830Y21130953D02*
X13734497Y21130953D01*
X13734497Y21130953D02*
X13734497Y21321429D01*
X14163069Y20702381D02*
X13163069Y20702381D01*
X13163069Y20702381D02*
X14163069Y20130953D01*
X14163069Y20130953D02*
X13163069Y20130953D01*
X14163069Y19654762D02*
X13163069Y19654762D01*
X13163069Y19654762D02*
X13163069Y19416667D01*
X13163069Y19416667D02*
X13210688Y19273810D01*
X13210688Y19273810D02*
X13305926Y19178572D01*
X13305926Y19178572D02*
X13401164Y19130953D01*
X13401164Y19130953D02*
X13591640Y19083334D01*
X13591640Y19083334D02*
X13734497Y19083334D01*
X13734497Y19083334D02*
X13924973Y19130953D01*
X13924973Y19130953D02*
X14020211Y19178572D01*
X14020211Y19178572D02*
X14115450Y19273810D01*
X14115450Y19273810D02*
X14163069Y19416667D01*
X14163069Y19416667D02*
X14163069Y19654762D01*
X17783718Y118657143D02*
X18783718Y118657143D01*
X18783718Y118657143D02*
X18783718Y118895238D01*
X18783718Y118895238D02*
X18736099Y119038095D01*
X18736099Y119038095D02*
X18640861Y119133333D01*
X18640861Y119133333D02*
X18545623Y119180952D01*
X18545623Y119180952D02*
X18355147Y119228571D01*
X18355147Y119228571D02*
X18212290Y119228571D01*
X18212290Y119228571D02*
X18021814Y119180952D01*
X18021814Y119180952D02*
X17926576Y119133333D01*
X17926576Y119133333D02*
X17831338Y119038095D01*
X17831338Y119038095D02*
X17783718Y118895238D01*
X17783718Y118895238D02*
X17783718Y118657143D01*
X17878957Y120228571D02*
X17831338Y120180952D01*
X17831338Y120180952D02*
X17783718Y120038095D01*
X17783718Y120038095D02*
X17783718Y119942857D01*
X17783718Y119942857D02*
X17831338Y119800000D01*
X17831338Y119800000D02*
X17926576Y119704762D01*
X17926576Y119704762D02*
X18021814Y119657143D01*
X18021814Y119657143D02*
X18212290Y119609524D01*
X18212290Y119609524D02*
X18355147Y119609524D01*
X18355147Y119609524D02*
X18545623Y119657143D01*
X18545623Y119657143D02*
X18640861Y119704762D01*
X18640861Y119704762D02*
X18736099Y119800000D01*
X18736099Y119800000D02*
X18783718Y119942857D01*
X18783718Y119942857D02*
X18783718Y120038095D01*
X18783718Y120038095D02*
X18736099Y120180952D01*
X18736099Y120180952D02*
X18688480Y120228571D01*
X17783718Y121180952D02*
X17783718Y120609524D01*
X17783718Y120895238D02*
X18783718Y120895238D01*
X18783718Y120895238D02*
X18640861Y120800000D01*
X18640861Y120800000D02*
X18545623Y120704762D01*
X18545623Y120704762D02*
X18498004Y120609524D01*
X18164671Y121609524D02*
X18164671Y122371428D01*
X51341408Y118657143D02*
X52341408Y118657143D01*
X52341408Y118657143D02*
X52341408Y119038095D01*
X52341408Y119038095D02*
X52293789Y119133333D01*
X52293789Y119133333D02*
X52246170Y119180952D01*
X52246170Y119180952D02*
X52150932Y119228571D01*
X52150932Y119228571D02*
X52008075Y119228571D01*
X52008075Y119228571D02*
X51912837Y119180952D01*
X51912837Y119180952D02*
X51865218Y119133333D01*
X51865218Y119133333D02*
X51817599Y119038095D01*
X51817599Y119038095D02*
X51817599Y118657143D01*
X51341408Y119657143D02*
X52341408Y119657143D01*
X52341408Y119657143D02*
X52341408Y120038095D01*
X52341408Y120038095D02*
X52293789Y120133333D01*
X52293789Y120133333D02*
X52246170Y120180952D01*
X52246170Y120180952D02*
X52150932Y120228571D01*
X52150932Y120228571D02*
X52008075Y120228571D01*
X52008075Y120228571D02*
X51912837Y120180952D01*
X51912837Y120180952D02*
X51865218Y120133333D01*
X51865218Y120133333D02*
X51817599Y120038095D01*
X51817599Y120038095D02*
X51817599Y119657143D01*
X51389028Y120609524D02*
X51341408Y120752381D01*
X51341408Y120752381D02*
X51341408Y120990476D01*
X51341408Y120990476D02*
X51389028Y121085714D01*
X51389028Y121085714D02*
X51436647Y121133333D01*
X51436647Y121133333D02*
X51531885Y121180952D01*
X51531885Y121180952D02*
X51627123Y121180952D01*
X51627123Y121180952D02*
X51722361Y121133333D01*
X51722361Y121133333D02*
X51769980Y121085714D01*
X51769980Y121085714D02*
X51817599Y120990476D01*
X51817599Y120990476D02*
X51865218Y120800000D01*
X51865218Y120800000D02*
X51912837Y120704762D01*
X51912837Y120704762D02*
X51960456Y120657143D01*
X51960456Y120657143D02*
X52055694Y120609524D01*
X52055694Y120609524D02*
X52150932Y120609524D01*
X52150932Y120609524D02*
X52246170Y120657143D01*
X52246170Y120657143D02*
X52293789Y120704762D01*
X52293789Y120704762D02*
X52341408Y120800000D01*
X52341408Y120800000D02*
X52341408Y121038095D01*
X52341408Y121038095D02*
X52293789Y121180952D01*
X52246170Y121561905D02*
X52293789Y121609524D01*
X52293789Y121609524D02*
X52341408Y121704762D01*
X52341408Y121704762D02*
X52341408Y121942857D01*
X52341408Y121942857D02*
X52293789Y122038095D01*
X52293789Y122038095D02*
X52246170Y122085714D01*
X52246170Y122085714D02*
X52150932Y122133333D01*
X52150932Y122133333D02*
X52055694Y122133333D01*
X52055694Y122133333D02*
X51912837Y122085714D01*
X51912837Y122085714D02*
X51341408Y121514286D01*
X51341408Y121514286D02*
X51341408Y122133333D01*
X28927945Y109659524D02*
X28927945Y109183334D01*
X28927945Y109183334D02*
X28451755Y109135715D01*
X28451755Y109135715D02*
X28499374Y109183334D01*
X28499374Y109183334D02*
X28546993Y109278572D01*
X28546993Y109278572D02*
X28546993Y109516667D01*
X28546993Y109516667D02*
X28499374Y109611905D01*
X28499374Y109611905D02*
X28451755Y109659524D01*
X28451755Y109659524D02*
X28356517Y109707143D01*
X28356517Y109707143D02*
X28118422Y109707143D01*
X28118422Y109707143D02*
X28023184Y109659524D01*
X28023184Y109659524D02*
X27975565Y109611905D01*
X27975565Y109611905D02*
X27927945Y109516667D01*
X27927945Y109516667D02*
X27927945Y109278572D01*
X27927945Y109278572D02*
X27975565Y109183334D01*
X27975565Y109183334D02*
X28023184Y109135715D01*
X28927945Y109992858D02*
X27927945Y110326191D01*
X27927945Y110326191D02*
X28927945Y110659524D01*
X79472180Y118588096D02*
X80472180Y118588096D01*
X80472180Y118588096D02*
X79757895Y118921429D01*
X79757895Y118921429D02*
X80472180Y119254762D01*
X80472180Y119254762D02*
X79472180Y119254762D01*
X79757895Y119683334D02*
X79757895Y120159524D01*
X79472180Y119588096D02*
X80472180Y119921429D01*
X80472180Y119921429D02*
X79472180Y120254762D01*
X79472180Y120588096D02*
X80472180Y120588096D01*
X80472180Y120588096D02*
X80472180Y120969048D01*
X80472180Y120969048D02*
X80424561Y121064286D01*
X80424561Y121064286D02*
X80376942Y121111905D01*
X80376942Y121111905D02*
X80281704Y121159524D01*
X80281704Y121159524D02*
X80138847Y121159524D01*
X80138847Y121159524D02*
X80043609Y121111905D01*
X80043609Y121111905D02*
X79995990Y121064286D01*
X79995990Y121064286D02*
X79948371Y120969048D01*
X79948371Y120969048D02*
X79948371Y120588096D01*
D12*
X16933778Y71979000D02*
X16933778Y72233000D01*
X17332921Y72233000D02*
X16570921Y72233000D01*
X16570921Y72233000D02*
X16570921Y71870143D01*
X16824921Y71253285D02*
X17332921Y71253285D01*
X16534636Y71434714D02*
X17078921Y71616143D01*
X17078921Y71616143D02*
X17078921Y71144428D01*
X15058778Y67779000D02*
X15058778Y68033000D01*
X15457921Y68033000D02*
X14695921Y68033000D01*
X14695921Y68033000D02*
X14695921Y67670143D01*
X14695921Y67452428D02*
X14695921Y66980714D01*
X14695921Y66980714D02*
X14986207Y67234714D01*
X14986207Y67234714D02*
X14986207Y67125857D01*
X14986207Y67125857D02*
X15022493Y67053285D01*
X15022493Y67053285D02*
X15058778Y67017000D01*
X15058778Y67017000D02*
X15131350Y66980714D01*
X15131350Y66980714D02*
X15312778Y66980714D01*
X15312778Y66980714D02*
X15385350Y67017000D01*
X15385350Y67017000D02*
X15421636Y67053285D01*
X15421636Y67053285D02*
X15457921Y67125857D01*
X15457921Y67125857D02*
X15457921Y67343571D01*
X15457921Y67343571D02*
X15421636Y67416143D01*
X15421636Y67416143D02*
X15385350Y67452428D01*
X18658778Y63604000D02*
X18658778Y63858000D01*
X19057921Y63858000D02*
X18295921Y63858000D01*
X18295921Y63858000D02*
X18295921Y63495143D01*
X19057921Y62805714D02*
X19057921Y63241143D01*
X19057921Y63023428D02*
X18295921Y63023428D01*
X18295921Y63023428D02*
X18404778Y63096000D01*
X18404778Y63096000D02*
X18477350Y63168571D01*
X18477350Y63168571D02*
X18513636Y63241143D01*
X85472911Y23552000D02*
X85110054Y23806000D01*
X85472911Y23987429D02*
X84710911Y23987429D01*
X84710911Y23987429D02*
X84710911Y23697143D01*
X84710911Y23697143D02*
X84747197Y23624572D01*
X84747197Y23624572D02*
X84783483Y23588286D01*
X84783483Y23588286D02*
X84856054Y23552000D01*
X84856054Y23552000D02*
X84964911Y23552000D01*
X84964911Y23552000D02*
X85037483Y23588286D01*
X85037483Y23588286D02*
X85073768Y23624572D01*
X85073768Y23624572D02*
X85110054Y23697143D01*
X85110054Y23697143D02*
X85110054Y23987429D01*
X84964911Y22898857D02*
X85472911Y22898857D01*
X84674626Y23080286D02*
X85218911Y23261715D01*
X85218911Y23261715D02*
X85218911Y22790000D01*
X24480999Y71378232D02*
X24734999Y71378232D01*
X24734999Y70979089D02*
X24734999Y71741089D01*
X24734999Y71741089D02*
X24372142Y71741089D01*
X24118142Y71668517D02*
X24081856Y71704803D01*
X24081856Y71704803D02*
X24009285Y71741089D01*
X24009285Y71741089D02*
X23827856Y71741089D01*
X23827856Y71741089D02*
X23755285Y71704803D01*
X23755285Y71704803D02*
X23718999Y71668517D01*
X23718999Y71668517D02*
X23682713Y71595946D01*
X23682713Y71595946D02*
X23682713Y71523374D01*
X23682713Y71523374D02*
X23718999Y71414517D01*
X23718999Y71414517D02*
X24154427Y70979089D01*
X24154427Y70979089D02*
X23682713Y70979089D01*
D13*
X15372508Y103230238D02*
X14552508Y103230238D01*
X14552508Y103230238D02*
X14552508Y103035000D01*
X14552508Y103035000D02*
X14591556Y102917857D01*
X14591556Y102917857D02*
X14669651Y102839762D01*
X14669651Y102839762D02*
X14747746Y102800715D01*
X14747746Y102800715D02*
X14903937Y102761667D01*
X14903937Y102761667D02*
X15021080Y102761667D01*
X15021080Y102761667D02*
X15177270Y102800715D01*
X15177270Y102800715D02*
X15255365Y102839762D01*
X15255365Y102839762D02*
X15333461Y102917857D01*
X15333461Y102917857D02*
X15372508Y103035000D01*
X15372508Y103035000D02*
X15372508Y103230238D01*
X14825841Y102058810D02*
X15372508Y102058810D01*
X14513461Y102254048D02*
X15099175Y102449286D01*
X15099175Y102449286D02*
X15099175Y101941667D01*
X22122508Y103155238D02*
X21302508Y103155238D01*
X21302508Y103155238D02*
X21302508Y102960000D01*
X21302508Y102960000D02*
X21341556Y102842857D01*
X21341556Y102842857D02*
X21419651Y102764762D01*
X21419651Y102764762D02*
X21497746Y102725715D01*
X21497746Y102725715D02*
X21653937Y102686667D01*
X21653937Y102686667D02*
X21771080Y102686667D01*
X21771080Y102686667D02*
X21927270Y102725715D01*
X21927270Y102725715D02*
X22005365Y102764762D01*
X22005365Y102764762D02*
X22083461Y102842857D01*
X22083461Y102842857D02*
X22122508Y102960000D01*
X22122508Y102960000D02*
X22122508Y103155238D01*
X21380603Y102374286D02*
X21341556Y102335238D01*
X21341556Y102335238D02*
X21302508Y102257143D01*
X21302508Y102257143D02*
X21302508Y102061905D01*
X21302508Y102061905D02*
X21341556Y101983810D01*
X21341556Y101983810D02*
X21380603Y101944762D01*
X21380603Y101944762D02*
X21458699Y101905715D01*
X21458699Y101905715D02*
X21536794Y101905715D01*
X21536794Y101905715D02*
X21653937Y101944762D01*
X21653937Y101944762D02*
X22122508Y102413334D01*
X22122508Y102413334D02*
X22122508Y101905715D01*
X25372508Y103055238D02*
X24552508Y103055238D01*
X24552508Y103055238D02*
X24552508Y102860000D01*
X24552508Y102860000D02*
X24591556Y102742857D01*
X24591556Y102742857D02*
X24669651Y102664762D01*
X24669651Y102664762D02*
X24747746Y102625715D01*
X24747746Y102625715D02*
X24903937Y102586667D01*
X24903937Y102586667D02*
X25021080Y102586667D01*
X25021080Y102586667D02*
X25177270Y102625715D01*
X25177270Y102625715D02*
X25255365Y102664762D01*
X25255365Y102664762D02*
X25333461Y102742857D01*
X25333461Y102742857D02*
X25372508Y102860000D01*
X25372508Y102860000D02*
X25372508Y103055238D01*
X24552508Y102313334D02*
X24552508Y101805715D01*
X24552508Y101805715D02*
X24864889Y102079048D01*
X24864889Y102079048D02*
X24864889Y101961905D01*
X24864889Y101961905D02*
X24903937Y101883810D01*
X24903937Y101883810D02*
X24942984Y101844762D01*
X24942984Y101844762D02*
X25021080Y101805715D01*
X25021080Y101805715D02*
X25216318Y101805715D01*
X25216318Y101805715D02*
X25294413Y101844762D01*
X25294413Y101844762D02*
X25333461Y101883810D01*
X25333461Y101883810D02*
X25372508Y101961905D01*
X25372508Y101961905D02*
X25372508Y102196191D01*
X25372508Y102196191D02*
X25333461Y102274286D01*
X25333461Y102274286D02*
X25294413Y102313334D01*
X18772508Y103180238D02*
X17952508Y103180238D01*
X17952508Y103180238D02*
X17952508Y102985000D01*
X17952508Y102985000D02*
X17991556Y102867857D01*
X17991556Y102867857D02*
X18069651Y102789762D01*
X18069651Y102789762D02*
X18147746Y102750715D01*
X18147746Y102750715D02*
X18303937Y102711667D01*
X18303937Y102711667D02*
X18421080Y102711667D01*
X18421080Y102711667D02*
X18577270Y102750715D01*
X18577270Y102750715D02*
X18655365Y102789762D01*
X18655365Y102789762D02*
X18733461Y102867857D01*
X18733461Y102867857D02*
X18772508Y102985000D01*
X18772508Y102985000D02*
X18772508Y103180238D01*
X17952508Y101969762D02*
X17952508Y102360238D01*
X17952508Y102360238D02*
X18342984Y102399286D01*
X18342984Y102399286D02*
X18303937Y102360238D01*
X18303937Y102360238D02*
X18264889Y102282143D01*
X18264889Y102282143D02*
X18264889Y102086905D01*
X18264889Y102086905D02*
X18303937Y102008810D01*
X18303937Y102008810D02*
X18342984Y101969762D01*
X18342984Y101969762D02*
X18421080Y101930715D01*
X18421080Y101930715D02*
X18616318Y101930715D01*
X18616318Y101930715D02*
X18694413Y101969762D01*
X18694413Y101969762D02*
X18733461Y102008810D01*
X18733461Y102008810D02*
X18772508Y102086905D01*
X18772508Y102086905D02*
X18772508Y102282143D01*
X18772508Y102282143D02*
X18733461Y102360238D01*
X18733461Y102360238D02*
X18694413Y102399286D01*
D14*
G04 #@! TO.C,P8*
X116747000Y9495000D02*
X116747000Y12155000D01*
X117041462Y12155000D02*
X116747000Y12155000D01*
X117052627Y9495000D02*
X116747000Y9495000D01*
X119101373Y12155000D02*
X119407000Y12155000D01*
X119112538Y9495000D02*
X119407000Y9495000D01*
X119407000Y12155000D02*
X119407000Y9495000D01*
G04 #@! TO.C,G3*
X22283000Y18398000D02*
X10091000Y18398000D01*
X10091000Y11286000D01*
X22283000Y11286000D01*
X22283000Y18398000D01*
G04 #@! TO.C,M5*
D15*
X132902000Y43725000D02*
X119002000Y43725000D01*
X119002000Y71225000D01*
X132902000Y71225000D01*
X132902000Y43725000D01*
D14*
G04 #@! TO.C,P1*
X17234505Y48313334D02*
X17234505Y50973334D01*
X17528967Y50973334D02*
X17234505Y50973334D01*
X17540132Y48313334D02*
X17234505Y48313334D01*
X19588878Y50973334D02*
X19894505Y50973334D01*
X19600043Y48313334D02*
X19894505Y48313334D01*
X19894505Y50973334D02*
X19894505Y48313334D01*
G04 #@! TO.C,P2*
X14334505Y48313334D02*
X14334505Y50973334D01*
X14628967Y50973334D02*
X14334505Y50973334D01*
X14640132Y48313334D02*
X14334505Y48313334D01*
X16688878Y50973334D02*
X16994505Y50973334D01*
X16700043Y48313334D02*
X16994505Y48313334D01*
X16994505Y50973334D02*
X16994505Y48313334D01*
G04 #@! TO.C,P15*
X25317000Y86630000D02*
X27977000Y86630000D01*
X25317000Y86324373D02*
X25317000Y86630000D01*
X25317000Y84264462D02*
X25317000Y83970000D01*
X27977000Y86335538D02*
X27977000Y86630000D01*
X27977000Y84275627D02*
X27977000Y83970000D01*
X27977000Y83970000D02*
X25317000Y83970000D01*
G04 #@! TO.C,F4*
X16837000Y70725000D02*
X21687000Y70725000D01*
X16837000Y68725000D02*
X21687000Y68725000D01*
X16787000Y68725000D02*
G75*
G02*
X16787000Y70725000I0J1000000D01*
G01*
X21687000Y70725000D02*
G75*
G02*
X21687000Y68725000I0J-1000000D01*
G01*
G04 #@! TO.C,P4*
X47777000Y15186000D02*
X47777000Y17846000D01*
X48071462Y17846000D02*
X47777000Y17846000D01*
X48082627Y15186000D02*
X47777000Y15186000D01*
X50131373Y17846000D02*
X50437000Y17846000D01*
X50142538Y15186000D02*
X50437000Y15186000D01*
X50437000Y17846000D02*
X50437000Y15186000D01*
G04 #@! TO.C,G4*
X22293000Y10321000D02*
X10101000Y10321000D01*
X10101000Y3209000D01*
X22293000Y3209000D01*
X22293000Y10321000D01*
D15*
G04 #@! TO.C,M3*
X35292000Y103062500D02*
X35292000Y88062500D01*
X35292000Y103062500D02*
X36592000Y103062500D01*
X35292000Y88062500D02*
X40392000Y88062500D01*
X44892000Y103062500D02*
X38492000Y103062500D01*
X44892000Y88662500D02*
X44892000Y103062500D01*
D14*
G04 #@! TO.C,P17*
X26242000Y77005000D02*
X28902000Y77005000D01*
X26242000Y76699373D02*
X26242000Y77005000D01*
X26242000Y74639462D02*
X26242000Y74345000D01*
X28902000Y76710538D02*
X28902000Y77005000D01*
X28902000Y74650627D02*
X28902000Y74345000D01*
X28902000Y74345000D02*
X26242000Y74345000D01*
G04 #@! TO.C,F3*
X16837000Y68525000D02*
X21687000Y68525000D01*
X16837000Y66525000D02*
X21687000Y66525000D01*
X16787000Y66525000D02*
G75*
G02*
X16787000Y68525000I0J1000000D01*
G01*
X21687000Y68525000D02*
G75*
G02*
X21687000Y66525000I0J-1000000D01*
G01*
D15*
G04 #@! TO.C,M2*
X98627000Y77075000D02*
X98627000Y67975000D01*
X98627000Y77075000D02*
X99627002Y77075000D01*
X101727003Y77075000D02*
X101727003Y67975000D01*
D14*
G04 #@! TO.C,P18*
X13617000Y63455000D02*
X16277000Y63455000D01*
X13617000Y63149373D02*
X13617000Y63455000D01*
X13617000Y61089462D02*
X13617000Y60795000D01*
X16277000Y63160538D02*
X16277000Y63455000D01*
X16277000Y61100627D02*
X16277000Y60795000D01*
X16277000Y60795000D02*
X13617000Y60795000D01*
D15*
G04 #@! TO.C,M1*
X56127004Y5725000D02*
X56127002Y21024999D01*
X56427000Y21024999D02*
X56127002Y21024999D01*
X62727002Y4225000D02*
X59526999Y4225000D01*
X62827000Y21024997D02*
X58027000Y21024997D01*
X69027002Y21024997D02*
X66327002Y21024997D01*
X71727000Y21024997D02*
X70626997Y21024997D01*
X74827002Y4225000D02*
X64427000Y4225000D01*
X75277002Y21024997D02*
X73727002Y21025002D01*
X76727002Y4225000D02*
X76427002Y4225000D01*
X76727002Y4225000D02*
X76727002Y19625000D01*
G04 #@! TO.C,M7*
X20627004Y55472824D02*
X31802004Y55511671D01*
X20627004Y49775002D02*
X20627004Y55472824D01*
X20627004Y49775002D02*
X20902008Y49499996D01*
X20902008Y48674997D02*
X20902008Y49499996D01*
X20902008Y48674997D02*
X20958210Y48624997D01*
X20958210Y48624997D02*
X31802004Y48624997D01*
X31802004Y48618794D02*
X31802004Y55511671D01*
D14*
G04 #@! TO.C,F1*
X16837000Y66325000D02*
X21687000Y66325000D01*
X16837000Y64325000D02*
X21687000Y64325000D01*
X16787000Y64325000D02*
G75*
G02*
X16787000Y66325000I0J1000000D01*
G01*
X21687000Y66325000D02*
G75*
G02*
X21687000Y64325000I0J-1000000D01*
G01*
G04 #@! TO.C,P3*
X47752000Y18611000D02*
X47752000Y21271000D01*
X48046462Y21271000D02*
X47752000Y21271000D01*
X48057627Y18611000D02*
X47752000Y18611000D01*
X50106373Y21271000D02*
X50412000Y21271000D01*
X50117538Y18611000D02*
X50412000Y18611000D01*
X50412000Y21271000D02*
X50412000Y18611000D01*
D16*
G04 #@! TO.C,R4*
X80103000Y22625000D02*
X81119000Y22625000D01*
X81119000Y24225000D02*
X80103000Y24225000D01*
X82135000Y22625000D02*
X83151000Y22625000D01*
X83151000Y24225000D02*
X82135000Y24225000D01*
D14*
X80052000Y22625000D02*
G75*
G02*
X80043398Y24228495I-330000J800000D01*
G01*
X83206000Y24226638D02*
G75*
G02*
X83202000Y22625000I326000J-801638D01*
G01*
G04 #@! TO.C,P7*
X116747000Y6420000D02*
X116747000Y9080000D01*
X117041462Y9080000D02*
X116747000Y9080000D01*
X117052627Y6420000D02*
X116747000Y6420000D01*
X119101373Y9080000D02*
X119407000Y9080000D01*
X119112538Y6420000D02*
X119407000Y6420000D01*
X119407000Y9080000D02*
X119407000Y6420000D01*
D15*
G04 #@! TO.C,M6*
X47951995Y64600005D02*
X47951995Y28800015D01*
X81752005Y64600005D02*
X47951995Y64600005D01*
X81752005Y64600005D02*
X81752005Y28800015D01*
X81752005Y28800015D02*
X47951995Y28800015D01*
G04 #@! TO.C,M4*
X46877000Y103100000D02*
X46877000Y88100000D01*
X46877000Y103100000D02*
X48177000Y103100000D01*
X46877000Y88100000D02*
X51977000Y88100000D01*
X56477000Y103100000D02*
X50077000Y103100000D01*
X56477000Y88700000D02*
X56477000Y103100000D01*
D14*
G04 #@! TO.C,F2*
X23227000Y64925000D02*
X23227000Y69775000D01*
X25227000Y64925000D02*
X25227000Y69775000D01*
X23227000Y69775000D02*
G75*
G02*
X25227000Y69775000I1000000J0D01*
G01*
X25227000Y64875000D02*
G75*
G02*
X23227000Y64875000I-1000000J0D01*
G01*
G04 #@! TO.C,P16*
X10842000Y81905000D02*
X13502000Y81905000D01*
X10842000Y81599373D02*
X10842000Y81905000D01*
X10842000Y79539462D02*
X10842000Y79245000D01*
X13502000Y81610538D02*
X13502000Y81905000D01*
X13502000Y79550627D02*
X13502000Y79245000D01*
X13502000Y79245000D02*
X10842000Y79245000D01*
D15*
G04 #@! TO.C,C10*
X18137000Y76850000D02*
X18137000Y77850000D01*
D14*
G04 #@! TO.C,D4*
X14002000Y103575000D02*
X14002000Y107475000D01*
D13*
X14652000Y106175000D02*
X15352000Y106175000D01*
X14652000Y105475000D02*
X15352000Y105475000D01*
X15002000Y106175000D02*
X15002000Y106475000D01*
X15002000Y105475000D02*
X14652000Y106175000D01*
X15002000Y105475000D02*
X15352000Y106175000D01*
X15002000Y105275000D02*
X15002000Y105475000D01*
D14*
X16002000Y103575000D02*
X14002000Y103575000D01*
X16002000Y103575000D02*
X16002000Y107475000D01*
D15*
G04 #@! TO.C,C7*
X18137000Y82850000D02*
X18137000Y83850000D01*
G04 #@! TO.C,C17*
X12302000Y69700000D02*
X12302000Y68700000D01*
G04 #@! TO.C,C3*
X22137000Y81850000D02*
X22137000Y80850000D01*
G04 #@! TO.C,C23*
X8302000Y66700000D02*
X8302000Y67700000D01*
G04 #@! TO.C,C1*
X22137000Y85850000D02*
X22137000Y84850000D01*
G04 #@! TO.C,C14*
X12302000Y75700000D02*
X12302000Y74700000D01*
G04 #@! TO.C,C19*
X8302000Y74700000D02*
X8302000Y75700000D01*
G04 #@! TO.C,C4*
X22137000Y79850000D02*
X22137000Y78850000D01*
D14*
G04 #@! TO.C,D2*
X20702000Y103575000D02*
X20702000Y107475000D01*
D13*
X21352000Y106175000D02*
X22052000Y106175000D01*
X21352000Y105475000D02*
X22052000Y105475000D01*
X21702000Y106175000D02*
X21702000Y106475000D01*
X21702000Y105475000D02*
X21352000Y106175000D01*
X21702000Y105475000D02*
X22052000Y106175000D01*
X21702000Y105275000D02*
X21702000Y105475000D01*
D14*
X22702000Y103575000D02*
X20702000Y103575000D01*
X22702000Y103575000D02*
X22702000Y107475000D01*
D15*
G04 #@! TO.C,C21*
X8302000Y70700000D02*
X8302000Y71700000D01*
G04 #@! TO.C,C16*
X12302000Y71700000D02*
X12302000Y70700000D01*
G04 #@! TO.C,C22*
X8302000Y68700000D02*
X8302000Y69700000D01*
D14*
G04 #@! TO.C,D3*
X24027000Y103575000D02*
X24027000Y107475000D01*
D13*
X24677000Y106175000D02*
X25377000Y106175000D01*
X24677000Y105475000D02*
X25377000Y105475000D01*
X25027000Y106175000D02*
X25027000Y106475000D01*
X25027000Y105475000D02*
X24677000Y106175000D01*
X25027000Y105475000D02*
X25377000Y106175000D01*
X25027000Y105275000D02*
X25027000Y105475000D01*
D14*
X26027000Y103575000D02*
X24027000Y103575000D01*
X26027000Y103575000D02*
X26027000Y107475000D01*
D15*
G04 #@! TO.C,C5*
X22137000Y77850000D02*
X22137000Y76850000D01*
G04 #@! TO.C,C15*
X12302000Y73700000D02*
X12302000Y72700000D01*
G04 #@! TO.C,C8*
X18137000Y80850000D02*
X18137000Y81850000D01*
G04 #@! TO.C,C9*
X18137000Y78850000D02*
X18137000Y79850000D01*
G04 #@! TO.C,C6*
X18137000Y84850000D02*
X18137000Y85850000D01*
D14*
G04 #@! TO.C,D5*
X17352000Y103575000D02*
X17352000Y107475000D01*
D13*
X18002000Y106175000D02*
X18702000Y106175000D01*
X18002000Y105475000D02*
X18702000Y105475000D01*
X18352000Y106175000D02*
X18352000Y106475000D01*
X18352000Y105475000D02*
X18002000Y106175000D01*
X18352000Y105475000D02*
X18702000Y106175000D01*
X18352000Y105275000D02*
X18352000Y105475000D01*
D14*
X19352000Y103575000D02*
X17352000Y103575000D01*
X19352000Y103575000D02*
X19352000Y107475000D01*
D15*
G04 #@! TO.C,C2*
X22137000Y83850000D02*
X22137000Y82850000D01*
G04 #@! TO.C,C18*
X12302000Y67700000D02*
X12302000Y66700000D01*
G04 #@! TO.C,C20*
X8302000Y72700000D02*
X8302000Y73700000D01*
G04 #@! TD*
M02*
