G04 #@! TF.GenerationSoftware,KiCad,Pcbnew,8.0.2-8.0.2-0~ubuntu22.04.1*
G04 #@! TF.CreationDate,2024-05-18T17:18:28+00:00*
G04 #@! TF.ProjectId,uaefi,75616566-692e-46b6-9963-61645f706362,C*
G04 #@! TF.SameCoordinates,Original*
G04 #@! TF.FileFunction,Paste,Top*
G04 #@! TF.FilePolarity,Positive*
%FSLAX46Y46*%
G04 Gerber Fmt 4.6, Leading zero omitted, Abs format (unit mm)*
G04 Created by KiCad (PCBNEW 8.0.2-8.0.2-0~ubuntu22.04.1) date 2024-05-18 17:18:28*
%MOMM*%
%LPD*%
G01*
G04 APERTURE LIST*
%ADD10R,2.299995X4.399991*%
%ADD11R,2.299995X3.999992*%
%ADD12O,0.000001X0.000001*%
%ADD13R,1.300000X1.000000*%
%ADD14R,1.160000X1.950000*%
%ADD15R,0.650000X2.000000*%
%ADD16R,0.300000X1.150000*%
%ADD17R,1.350000X0.690000*%
G04 APERTURE END LIST*
G04 #@! TO.C,R40*
G36*
G01*
X89152001Y74725000D02*
X89152001Y73475000D01*
G75*
G02*
X89052001Y73375000I-100000J0D01*
G01*
X88252001Y73375000D01*
G75*
G02*
X88152001Y73475000I0J100000D01*
G01*
X88152001Y74725000D01*
G75*
G02*
X88252001Y74825000I100000J0D01*
G01*
X89052001Y74825000D01*
G75*
G02*
X89152001Y74725000I0J-100000D01*
G01*
G37*
G36*
G01*
X87251979Y74725000D02*
X87251979Y73475000D01*
G75*
G02*
X87151979Y73375000I-100000J0D01*
G01*
X86351979Y73375000D01*
G75*
G02*
X86251979Y73475000I0J100000D01*
G01*
X86251979Y74725000D01*
G75*
G02*
X86351979Y74825000I100000J0D01*
G01*
X87151979Y74825000D01*
G75*
G02*
X87251979Y74725000I0J-100000D01*
G01*
G37*
G04 #@! TD*
G04 #@! TO.C,D8*
G36*
G01*
X97677000Y34165000D02*
X97677000Y33865000D01*
G75*
G02*
X97527000Y33715000I-150000J0D01*
G01*
X96352000Y33715000D01*
G75*
G02*
X96202000Y33865000I0J150000D01*
G01*
X96202000Y34165000D01*
G75*
G02*
X96352000Y34315000I150000J0D01*
G01*
X97527000Y34315000D01*
G75*
G02*
X97677000Y34165000I0J-150000D01*
G01*
G37*
G36*
G01*
X97677000Y36065000D02*
X97677000Y35765000D01*
G75*
G02*
X97527000Y35615000I-150000J0D01*
G01*
X96352000Y35615000D01*
G75*
G02*
X96202000Y35765000I0J150000D01*
G01*
X96202000Y36065000D01*
G75*
G02*
X96352000Y36215000I150000J0D01*
G01*
X97527000Y36215000D01*
G75*
G02*
X97677000Y36065000I0J-150000D01*
G01*
G37*
G36*
G01*
X95802000Y35115000D02*
X95802000Y34815000D01*
G75*
G02*
X95652000Y34665000I-150000J0D01*
G01*
X94477000Y34665000D01*
G75*
G02*
X94327000Y34815000I0J150000D01*
G01*
X94327000Y35115000D01*
G75*
G02*
X94477000Y35265000I150000J0D01*
G01*
X95652000Y35265000D01*
G75*
G02*
X95802000Y35115000I0J-150000D01*
G01*
G37*
G04 #@! TD*
G04 #@! TO.C,U7*
G36*
G01*
X26354500Y97575000D02*
X26054500Y97575000D01*
G75*
G02*
X25904500Y97725000I0J150000D01*
G01*
X25904500Y99375000D01*
G75*
G02*
X26054500Y99525000I150000J0D01*
G01*
X26354500Y99525000D01*
G75*
G02*
X26504500Y99375000I0J-150000D01*
G01*
X26504500Y97725000D01*
G75*
G02*
X26354500Y97575000I-150000J0D01*
G01*
G37*
G36*
G01*
X27624500Y97575000D02*
X27324500Y97575000D01*
G75*
G02*
X27174500Y97725000I0J150000D01*
G01*
X27174500Y99375000D01*
G75*
G02*
X27324500Y99525000I150000J0D01*
G01*
X27624500Y99525000D01*
G75*
G02*
X27774500Y99375000I0J-150000D01*
G01*
X27774500Y97725000D01*
G75*
G02*
X27624500Y97575000I-150000J0D01*
G01*
G37*
G36*
G01*
X28894500Y97575000D02*
X28594500Y97575000D01*
G75*
G02*
X28444500Y97725000I0J150000D01*
G01*
X28444500Y99375000D01*
G75*
G02*
X28594500Y99525000I150000J0D01*
G01*
X28894500Y99525000D01*
G75*
G02*
X29044500Y99375000I0J-150000D01*
G01*
X29044500Y97725000D01*
G75*
G02*
X28894500Y97575000I-150000J0D01*
G01*
G37*
G36*
G01*
X30164500Y97575000D02*
X29864500Y97575000D01*
G75*
G02*
X29714500Y97725000I0J150000D01*
G01*
X29714500Y99375000D01*
G75*
G02*
X29864500Y99525000I150000J0D01*
G01*
X30164500Y99525000D01*
G75*
G02*
X30314500Y99375000I0J-150000D01*
G01*
X30314500Y97725000D01*
G75*
G02*
X30164500Y97575000I-150000J0D01*
G01*
G37*
G36*
G01*
X30164500Y102525000D02*
X29864500Y102525000D01*
G75*
G02*
X29714500Y102675000I0J150000D01*
G01*
X29714500Y104325000D01*
G75*
G02*
X29864500Y104475000I150000J0D01*
G01*
X30164500Y104475000D01*
G75*
G02*
X30314500Y104325000I0J-150000D01*
G01*
X30314500Y102675000D01*
G75*
G02*
X30164500Y102525000I-150000J0D01*
G01*
G37*
G36*
G01*
X28894500Y102525000D02*
X28594500Y102525000D01*
G75*
G02*
X28444500Y102675000I0J150000D01*
G01*
X28444500Y104325000D01*
G75*
G02*
X28594500Y104475000I150000J0D01*
G01*
X28894500Y104475000D01*
G75*
G02*
X29044500Y104325000I0J-150000D01*
G01*
X29044500Y102675000D01*
G75*
G02*
X28894500Y102525000I-150000J0D01*
G01*
G37*
G36*
G01*
X27624500Y102525000D02*
X27324500Y102525000D01*
G75*
G02*
X27174500Y102675000I0J150000D01*
G01*
X27174500Y104325000D01*
G75*
G02*
X27324500Y104475000I150000J0D01*
G01*
X27624500Y104475000D01*
G75*
G02*
X27774500Y104325000I0J-150000D01*
G01*
X27774500Y102675000D01*
G75*
G02*
X27624500Y102525000I-150000J0D01*
G01*
G37*
G36*
G01*
X26354500Y102525000D02*
X26054500Y102525000D01*
G75*
G02*
X25904500Y102675000I0J150000D01*
G01*
X25904500Y104325000D01*
G75*
G02*
X26054500Y104475000I150000J0D01*
G01*
X26354500Y104475000D01*
G75*
G02*
X26504500Y104325000I0J-150000D01*
G01*
X26504500Y102675000D01*
G75*
G02*
X26354500Y102525000I-150000J0D01*
G01*
G37*
G04 #@! TD*
G04 #@! TO.C,C24*
G36*
G01*
X12712001Y78415000D02*
X12712001Y77735000D01*
G75*
G02*
X12627001Y77650000I-85000J0D01*
G01*
X11947001Y77650000D01*
G75*
G02*
X11862001Y77735000I0J85000D01*
G01*
X11862001Y78415000D01*
G75*
G02*
X11947001Y78500000I85000J0D01*
G01*
X12627001Y78500000D01*
G75*
G02*
X12712001Y78415000I0J-85000D01*
G01*
G37*
G36*
G01*
X11131999Y78415000D02*
X11131999Y77735000D01*
G75*
G02*
X11046999Y77650000I-85000J0D01*
G01*
X10366999Y77650000D01*
G75*
G02*
X10281999Y77735000I0J85000D01*
G01*
X10281999Y78415000D01*
G75*
G02*
X10366999Y78500000I85000J0D01*
G01*
X11046999Y78500000D01*
G75*
G02*
X11131999Y78415000I0J-85000D01*
G01*
G37*
G04 #@! TD*
G04 #@! TO.C,R39*
G36*
G01*
X89152001Y72225000D02*
X89152001Y70975000D01*
G75*
G02*
X89052001Y70875000I-100000J0D01*
G01*
X88252001Y70875000D01*
G75*
G02*
X88152001Y70975000I0J100000D01*
G01*
X88152001Y72225000D01*
G75*
G02*
X88252001Y72325000I100000J0D01*
G01*
X89052001Y72325000D01*
G75*
G02*
X89152001Y72225000I0J-100000D01*
G01*
G37*
G36*
G01*
X87251979Y72225000D02*
X87251979Y70975000D01*
G75*
G02*
X87151979Y70875000I-100000J0D01*
G01*
X86351979Y70875000D01*
G75*
G02*
X86251979Y70975000I0J100000D01*
G01*
X86251979Y72225000D01*
G75*
G02*
X86351979Y72325000I100000J0D01*
G01*
X87151979Y72325000D01*
G75*
G02*
X87251979Y72225000I0J-100000D01*
G01*
G37*
G04 #@! TD*
G04 #@! TO.C,Q10*
G36*
G01*
X106924500Y96450000D02*
X106224500Y96450000D01*
G75*
G02*
X105974500Y96700000I0J250000D01*
G01*
X105974500Y98400000D01*
G75*
G02*
X106224500Y98650000I250000J0D01*
G01*
X106924500Y98650000D01*
G75*
G02*
X107174500Y98400000I0J-250000D01*
G01*
X107174500Y96700000D01*
G75*
G02*
X106924500Y96450000I-250000J0D01*
G01*
G37*
G36*
G01*
X108454500Y100650000D02*
X106204500Y100650000D01*
G75*
G02*
X105954500Y100900000I0J250000D01*
G01*
X105954500Y103450000D01*
G75*
G02*
X106204500Y103700000I250000J0D01*
G01*
X108454500Y103700000D01*
G75*
G02*
X108704500Y103450000I0J-250000D01*
G01*
X108704500Y100900000D01*
G75*
G02*
X108454500Y100650000I-250000J0D01*
G01*
G37*
G36*
G01*
X111504500Y100650000D02*
X109254500Y100650000D01*
G75*
G02*
X109004500Y100900000I0J250000D01*
G01*
X109004500Y103450000D01*
G75*
G02*
X109254500Y103700000I250000J0D01*
G01*
X111504500Y103700000D01*
G75*
G02*
X111754500Y103450000I0J-250000D01*
G01*
X111754500Y100900000D01*
G75*
G02*
X111504500Y100650000I-250000J0D01*
G01*
G37*
G36*
G01*
X108454500Y104000000D02*
X106204500Y104000000D01*
G75*
G02*
X105954500Y104250000I0J250000D01*
G01*
X105954500Y106800000D01*
G75*
G02*
X106204500Y107050000I250000J0D01*
G01*
X108454500Y107050000D01*
G75*
G02*
X108704500Y106800000I0J-250000D01*
G01*
X108704500Y104250000D01*
G75*
G02*
X108454500Y104000000I-250000J0D01*
G01*
G37*
G36*
G01*
X111504500Y104000000D02*
X109254500Y104000000D01*
G75*
G02*
X109004500Y104250000I0J250000D01*
G01*
X109004500Y106800000D01*
G75*
G02*
X109254500Y107050000I250000J0D01*
G01*
X111504500Y107050000D01*
G75*
G02*
X111754500Y106800000I0J-250000D01*
G01*
X111754500Y104250000D01*
G75*
G02*
X111504500Y104000000I-250000J0D01*
G01*
G37*
G36*
G01*
X111484500Y96450000D02*
X110784500Y96450000D01*
G75*
G02*
X110534500Y96700000I0J250000D01*
G01*
X110534500Y98400000D01*
G75*
G02*
X110784500Y98650000I250000J0D01*
G01*
X111484500Y98650000D01*
G75*
G02*
X111734500Y98400000I0J-250000D01*
G01*
X111734500Y96700000D01*
G75*
G02*
X111484500Y96450000I-250000J0D01*
G01*
G37*
G04 #@! TD*
G04 #@! TO.C,C27*
G36*
G01*
X36630000Y38705251D02*
X37310000Y38705251D01*
G75*
G02*
X37395000Y38620251I0J-85000D01*
G01*
X37395000Y37940251D01*
G75*
G02*
X37310000Y37855251I-85000J0D01*
G01*
X36630000Y37855251D01*
G75*
G02*
X36545000Y37940251I0J85000D01*
G01*
X36545000Y38620251D01*
G75*
G02*
X36630000Y38705251I85000J0D01*
G01*
G37*
G36*
G01*
X36630000Y37125249D02*
X37310000Y37125249D01*
G75*
G02*
X37395000Y37040249I0J-85000D01*
G01*
X37395000Y36360249D01*
G75*
G02*
X37310000Y36275249I-85000J0D01*
G01*
X36630000Y36275249D01*
G75*
G02*
X36545000Y36360249I0J85000D01*
G01*
X36545000Y37040249D01*
G75*
G02*
X36630000Y37125249I85000J0D01*
G01*
G37*
G04 #@! TD*
D10*
G04 #@! TO.C,BT1*
X92702000Y20025019D03*
D11*
X92702000Y4025000D03*
G04 #@! TD*
G04 #@! TO.C,U10*
G36*
G01*
X70927000Y98095856D02*
X70627000Y98095856D01*
G75*
G02*
X70477000Y98245856I0J150000D01*
G01*
X70477000Y99895856D01*
G75*
G02*
X70627000Y100045856I150000J0D01*
G01*
X70927000Y100045856D01*
G75*
G02*
X71077000Y99895856I0J-150000D01*
G01*
X71077000Y98245856D01*
G75*
G02*
X70927000Y98095856I-150000J0D01*
G01*
G37*
G36*
G01*
X72197000Y98095856D02*
X71897000Y98095856D01*
G75*
G02*
X71747000Y98245856I0J150000D01*
G01*
X71747000Y99895856D01*
G75*
G02*
X71897000Y100045856I150000J0D01*
G01*
X72197000Y100045856D01*
G75*
G02*
X72347000Y99895856I0J-150000D01*
G01*
X72347000Y98245856D01*
G75*
G02*
X72197000Y98095856I-150000J0D01*
G01*
G37*
G36*
G01*
X73467000Y98095856D02*
X73167000Y98095856D01*
G75*
G02*
X73017000Y98245856I0J150000D01*
G01*
X73017000Y99895856D01*
G75*
G02*
X73167000Y100045856I150000J0D01*
G01*
X73467000Y100045856D01*
G75*
G02*
X73617000Y99895856I0J-150000D01*
G01*
X73617000Y98245856D01*
G75*
G02*
X73467000Y98095856I-150000J0D01*
G01*
G37*
G36*
G01*
X74737000Y98095856D02*
X74437000Y98095856D01*
G75*
G02*
X74287000Y98245856I0J150000D01*
G01*
X74287000Y99895856D01*
G75*
G02*
X74437000Y100045856I150000J0D01*
G01*
X74737000Y100045856D01*
G75*
G02*
X74887000Y99895856I0J-150000D01*
G01*
X74887000Y98245856D01*
G75*
G02*
X74737000Y98095856I-150000J0D01*
G01*
G37*
G36*
G01*
X74737000Y103045856D02*
X74437000Y103045856D01*
G75*
G02*
X74287000Y103195856I0J150000D01*
G01*
X74287000Y104845856D01*
G75*
G02*
X74437000Y104995856I150000J0D01*
G01*
X74737000Y104995856D01*
G75*
G02*
X74887000Y104845856I0J-150000D01*
G01*
X74887000Y103195856D01*
G75*
G02*
X74737000Y103045856I-150000J0D01*
G01*
G37*
G36*
G01*
X73467000Y103045856D02*
X73167000Y103045856D01*
G75*
G02*
X73017000Y103195856I0J150000D01*
G01*
X73017000Y104845856D01*
G75*
G02*
X73167000Y104995856I150000J0D01*
G01*
X73467000Y104995856D01*
G75*
G02*
X73617000Y104845856I0J-150000D01*
G01*
X73617000Y103195856D01*
G75*
G02*
X73467000Y103045856I-150000J0D01*
G01*
G37*
G36*
G01*
X72197000Y103045856D02*
X71897000Y103045856D01*
G75*
G02*
X71747000Y103195856I0J150000D01*
G01*
X71747000Y104845856D01*
G75*
G02*
X71897000Y104995856I150000J0D01*
G01*
X72197000Y104995856D01*
G75*
G02*
X72347000Y104845856I0J-150000D01*
G01*
X72347000Y103195856D01*
G75*
G02*
X72197000Y103045856I-150000J0D01*
G01*
G37*
G36*
G01*
X70927000Y103045856D02*
X70627000Y103045856D01*
G75*
G02*
X70477000Y103195856I0J150000D01*
G01*
X70477000Y104845856D01*
G75*
G02*
X70627000Y104995856I150000J0D01*
G01*
X70927000Y104995856D01*
G75*
G02*
X71077000Y104845856I0J-150000D01*
G01*
X71077000Y103195856D01*
G75*
G02*
X70927000Y103045856I-150000J0D01*
G01*
G37*
G04 #@! TD*
G04 #@! TO.C,R31*
G36*
G01*
X68832000Y96576712D02*
X68832000Y97356712D01*
G75*
G02*
X68902000Y97426712I70000J0D01*
G01*
X69462000Y97426712D01*
G75*
G02*
X69532000Y97356712I0J-70000D01*
G01*
X69532000Y96576712D01*
G75*
G02*
X69462000Y96506712I-70000J0D01*
G01*
X68902000Y96506712D01*
G75*
G02*
X68832000Y96576712I0J70000D01*
G01*
G37*
G36*
G01*
X70432000Y96576712D02*
X70432000Y97356712D01*
G75*
G02*
X70502000Y97426712I70000J0D01*
G01*
X71062000Y97426712D01*
G75*
G02*
X71132000Y97356712I0J-70000D01*
G01*
X71132000Y96576712D01*
G75*
G02*
X71062000Y96506712I-70000J0D01*
G01*
X70502000Y96506712D01*
G75*
G02*
X70432000Y96576712I0J70000D01*
G01*
G37*
G04 #@! TD*
G04 #@! TO.C,C30*
G36*
G01*
X98679977Y37870002D02*
X99359977Y37870002D01*
G75*
G02*
X99444977Y37785002I0J-85000D01*
G01*
X99444977Y37105002D01*
G75*
G02*
X99359977Y37020002I-85000J0D01*
G01*
X98679977Y37020002D01*
G75*
G02*
X98594977Y37105002I0J85000D01*
G01*
X98594977Y37785002D01*
G75*
G02*
X98679977Y37870002I85000J0D01*
G01*
G37*
G36*
G01*
X98679977Y36290000D02*
X99359977Y36290000D01*
G75*
G02*
X99444977Y36205000I0J-85000D01*
G01*
X99444977Y35525000D01*
G75*
G02*
X99359977Y35440000I-85000J0D01*
G01*
X98679977Y35440000D01*
G75*
G02*
X98594977Y35525000I0J85000D01*
G01*
X98594977Y36205000D01*
G75*
G02*
X98679977Y36290000I85000J0D01*
G01*
G37*
G04 #@! TD*
G04 #@! TO.C,Q7*
G36*
G01*
X128614500Y96450000D02*
X127914500Y96450000D01*
G75*
G02*
X127664500Y96700000I0J250000D01*
G01*
X127664500Y98400000D01*
G75*
G02*
X127914500Y98650000I250000J0D01*
G01*
X128614500Y98650000D01*
G75*
G02*
X128864500Y98400000I0J-250000D01*
G01*
X128864500Y96700000D01*
G75*
G02*
X128614500Y96450000I-250000J0D01*
G01*
G37*
G36*
G01*
X130144500Y100650000D02*
X127894500Y100650000D01*
G75*
G02*
X127644500Y100900000I0J250000D01*
G01*
X127644500Y103450000D01*
G75*
G02*
X127894500Y103700000I250000J0D01*
G01*
X130144500Y103700000D01*
G75*
G02*
X130394500Y103450000I0J-250000D01*
G01*
X130394500Y100900000D01*
G75*
G02*
X130144500Y100650000I-250000J0D01*
G01*
G37*
G36*
G01*
X133194500Y100650000D02*
X130944500Y100650000D01*
G75*
G02*
X130694500Y100900000I0J250000D01*
G01*
X130694500Y103450000D01*
G75*
G02*
X130944500Y103700000I250000J0D01*
G01*
X133194500Y103700000D01*
G75*
G02*
X133444500Y103450000I0J-250000D01*
G01*
X133444500Y100900000D01*
G75*
G02*
X133194500Y100650000I-250000J0D01*
G01*
G37*
G36*
G01*
X130144500Y104000000D02*
X127894500Y104000000D01*
G75*
G02*
X127644500Y104250000I0J250000D01*
G01*
X127644500Y106800000D01*
G75*
G02*
X127894500Y107050000I250000J0D01*
G01*
X130144500Y107050000D01*
G75*
G02*
X130394500Y106800000I0J-250000D01*
G01*
X130394500Y104250000D01*
G75*
G02*
X130144500Y104000000I-250000J0D01*
G01*
G37*
G36*
G01*
X133194500Y104000000D02*
X130944500Y104000000D01*
G75*
G02*
X130694500Y104250000I0J250000D01*
G01*
X130694500Y106800000D01*
G75*
G02*
X130944500Y107050000I250000J0D01*
G01*
X133194500Y107050000D01*
G75*
G02*
X133444500Y106800000I0J-250000D01*
G01*
X133444500Y104250000D01*
G75*
G02*
X133194500Y104000000I-250000J0D01*
G01*
G37*
G36*
G01*
X133174500Y96450000D02*
X132474500Y96450000D01*
G75*
G02*
X132224500Y96700000I0J250000D01*
G01*
X132224500Y98400000D01*
G75*
G02*
X132474500Y98650000I250000J0D01*
G01*
X133174500Y98650000D01*
G75*
G02*
X133424500Y98400000I0J-250000D01*
G01*
X133424500Y96700000D01*
G75*
G02*
X133174500Y96450000I-250000J0D01*
G01*
G37*
G04 #@! TD*
G04 #@! TO.C,Q8*
G36*
G01*
X121384500Y96450000D02*
X120684500Y96450000D01*
G75*
G02*
X120434500Y96700000I0J250000D01*
G01*
X120434500Y98400000D01*
G75*
G02*
X120684500Y98650000I250000J0D01*
G01*
X121384500Y98650000D01*
G75*
G02*
X121634500Y98400000I0J-250000D01*
G01*
X121634500Y96700000D01*
G75*
G02*
X121384500Y96450000I-250000J0D01*
G01*
G37*
G36*
G01*
X122914500Y100650000D02*
X120664500Y100650000D01*
G75*
G02*
X120414500Y100900000I0J250000D01*
G01*
X120414500Y103450000D01*
G75*
G02*
X120664500Y103700000I250000J0D01*
G01*
X122914500Y103700000D01*
G75*
G02*
X123164500Y103450000I0J-250000D01*
G01*
X123164500Y100900000D01*
G75*
G02*
X122914500Y100650000I-250000J0D01*
G01*
G37*
G36*
G01*
X125964500Y100650000D02*
X123714500Y100650000D01*
G75*
G02*
X123464500Y100900000I0J250000D01*
G01*
X123464500Y103450000D01*
G75*
G02*
X123714500Y103700000I250000J0D01*
G01*
X125964500Y103700000D01*
G75*
G02*
X126214500Y103450000I0J-250000D01*
G01*
X126214500Y100900000D01*
G75*
G02*
X125964500Y100650000I-250000J0D01*
G01*
G37*
G36*
G01*
X122914500Y104000000D02*
X120664500Y104000000D01*
G75*
G02*
X120414500Y104250000I0J250000D01*
G01*
X120414500Y106800000D01*
G75*
G02*
X120664500Y107050000I250000J0D01*
G01*
X122914500Y107050000D01*
G75*
G02*
X123164500Y106800000I0J-250000D01*
G01*
X123164500Y104250000D01*
G75*
G02*
X122914500Y104000000I-250000J0D01*
G01*
G37*
G36*
G01*
X125964500Y104000000D02*
X123714500Y104000000D01*
G75*
G02*
X123464500Y104250000I0J250000D01*
G01*
X123464500Y106800000D01*
G75*
G02*
X123714500Y107050000I250000J0D01*
G01*
X125964500Y107050000D01*
G75*
G02*
X126214500Y106800000I0J-250000D01*
G01*
X126214500Y104250000D01*
G75*
G02*
X125964500Y104000000I-250000J0D01*
G01*
G37*
G36*
G01*
X125944500Y96450000D02*
X125244500Y96450000D01*
G75*
G02*
X124994500Y96700000I0J250000D01*
G01*
X124994500Y98400000D01*
G75*
G02*
X125244500Y98650000I250000J0D01*
G01*
X125944500Y98650000D01*
G75*
G02*
X126194500Y98400000I0J-250000D01*
G01*
X126194500Y96700000D01*
G75*
G02*
X125944500Y96450000I-250000J0D01*
G01*
G37*
G04 #@! TD*
G04 #@! TO.C,C26*
G36*
G01*
X6381999Y61910000D02*
X6381999Y62590000D01*
G75*
G02*
X6466999Y62675000I85000J0D01*
G01*
X7146999Y62675000D01*
G75*
G02*
X7231999Y62590000I0J-85000D01*
G01*
X7231999Y61910000D01*
G75*
G02*
X7146999Y61825000I-85000J0D01*
G01*
X6466999Y61825000D01*
G75*
G02*
X6381999Y61910000I0J85000D01*
G01*
G37*
G36*
G01*
X7962001Y61910000D02*
X7962001Y62590000D01*
G75*
G02*
X8047001Y62675000I85000J0D01*
G01*
X8727001Y62675000D01*
G75*
G02*
X8812001Y62590000I0J-85000D01*
G01*
X8812001Y61910000D01*
G75*
G02*
X8727001Y61825000I-85000J0D01*
G01*
X8047001Y61825000D01*
G75*
G02*
X7962001Y61910000I0J85000D01*
G01*
G37*
G04 #@! TD*
G04 #@! TO.C,C33*
G36*
G01*
X119340001Y25807000D02*
X119340001Y25127000D01*
G75*
G02*
X119255001Y25042000I-85000J0D01*
G01*
X118575001Y25042000D01*
G75*
G02*
X118490001Y25127000I0J85000D01*
G01*
X118490001Y25807000D01*
G75*
G02*
X118575001Y25892000I85000J0D01*
G01*
X119255001Y25892000D01*
G75*
G02*
X119340001Y25807000I0J-85000D01*
G01*
G37*
G36*
G01*
X117759999Y25807000D02*
X117759999Y25127000D01*
G75*
G02*
X117674999Y25042000I-85000J0D01*
G01*
X116994999Y25042000D01*
G75*
G02*
X116909999Y25127000I0J85000D01*
G01*
X116909999Y25807000D01*
G75*
G02*
X116994999Y25892000I85000J0D01*
G01*
X117674999Y25892000D01*
G75*
G02*
X117759999Y25807000I0J-85000D01*
G01*
G37*
G04 #@! TD*
G04 #@! TO.C,C29*
G36*
G01*
X93217000Y33809998D02*
X92537000Y33809998D01*
G75*
G02*
X92452000Y33894998I0J85000D01*
G01*
X92452000Y34574998D01*
G75*
G02*
X92537000Y34659998I85000J0D01*
G01*
X93217000Y34659998D01*
G75*
G02*
X93302000Y34574998I0J-85000D01*
G01*
X93302000Y33894998D01*
G75*
G02*
X93217000Y33809998I-85000J0D01*
G01*
G37*
G36*
G01*
X93217000Y35390000D02*
X92537000Y35390000D01*
G75*
G02*
X92452000Y35475000I0J85000D01*
G01*
X92452000Y36155000D01*
G75*
G02*
X92537000Y36240000I85000J0D01*
G01*
X93217000Y36240000D01*
G75*
G02*
X93302000Y36155000I0J-85000D01*
G01*
X93302000Y35475000D01*
G75*
G02*
X93217000Y35390000I-85000J0D01*
G01*
G37*
G04 #@! TD*
G04 #@! TO.C,R34*
G36*
G01*
X82877000Y97365000D02*
X82877000Y96585000D01*
G75*
G02*
X82807000Y96515000I-70000J0D01*
G01*
X82247000Y96515000D01*
G75*
G02*
X82177000Y96585000I0J70000D01*
G01*
X82177000Y97365000D01*
G75*
G02*
X82247000Y97435000I70000J0D01*
G01*
X82807000Y97435000D01*
G75*
G02*
X82877000Y97365000I0J-70000D01*
G01*
G37*
G36*
G01*
X81277000Y97365000D02*
X81277000Y96585000D01*
G75*
G02*
X81207000Y96515000I-70000J0D01*
G01*
X80647000Y96515000D01*
G75*
G02*
X80577000Y96585000I0J70000D01*
G01*
X80577000Y97365000D01*
G75*
G02*
X80647000Y97435000I70000J0D01*
G01*
X81207000Y97435000D01*
G75*
G02*
X81277000Y97365000I0J-70000D01*
G01*
G37*
G04 #@! TD*
G04 #@! TO.C,R1*
G36*
G01*
X47652000Y104410000D02*
X47652000Y105190000D01*
G75*
G02*
X47722000Y105260000I70000J0D01*
G01*
X48282000Y105260000D01*
G75*
G02*
X48352000Y105190000I0J-70000D01*
G01*
X48352000Y104410000D01*
G75*
G02*
X48282000Y104340000I-70000J0D01*
G01*
X47722000Y104340000D01*
G75*
G02*
X47652000Y104410000I0J70000D01*
G01*
G37*
G36*
G01*
X49252000Y104410000D02*
X49252000Y105190000D01*
G75*
G02*
X49322000Y105260000I70000J0D01*
G01*
X49882000Y105260000D01*
G75*
G02*
X49952000Y105190000I0J-70000D01*
G01*
X49952000Y104410000D01*
G75*
G02*
X49882000Y104340000I-70000J0D01*
G01*
X49322000Y104340000D01*
G75*
G02*
X49252000Y104410000I0J70000D01*
G01*
G37*
G04 #@! TD*
G04 #@! TO.C,U4*
G36*
G01*
X91827000Y33285000D02*
X91827000Y32985000D01*
G75*
G02*
X91677000Y32835000I-150000J0D01*
G01*
X90027000Y32835000D01*
G75*
G02*
X89877000Y32985000I0J150000D01*
G01*
X89877000Y33285000D01*
G75*
G02*
X90027000Y33435000I150000J0D01*
G01*
X91677000Y33435000D01*
G75*
G02*
X91827000Y33285000I0J-150000D01*
G01*
G37*
G36*
G01*
X91827000Y34555000D02*
X91827000Y34255000D01*
G75*
G02*
X91677000Y34105000I-150000J0D01*
G01*
X90027000Y34105000D01*
G75*
G02*
X89877000Y34255000I0J150000D01*
G01*
X89877000Y34555000D01*
G75*
G02*
X90027000Y34705000I150000J0D01*
G01*
X91677000Y34705000D01*
G75*
G02*
X91827000Y34555000I0J-150000D01*
G01*
G37*
G36*
G01*
X91827000Y35825000D02*
X91827000Y35525000D01*
G75*
G02*
X91677000Y35375000I-150000J0D01*
G01*
X90027000Y35375000D01*
G75*
G02*
X89877000Y35525000I0J150000D01*
G01*
X89877000Y35825000D01*
G75*
G02*
X90027000Y35975000I150000J0D01*
G01*
X91677000Y35975000D01*
G75*
G02*
X91827000Y35825000I0J-150000D01*
G01*
G37*
G36*
G01*
X91827000Y37095000D02*
X91827000Y36795000D01*
G75*
G02*
X91677000Y36645000I-150000J0D01*
G01*
X90027000Y36645000D01*
G75*
G02*
X89877000Y36795000I0J150000D01*
G01*
X89877000Y37095000D01*
G75*
G02*
X90027000Y37245000I150000J0D01*
G01*
X91677000Y37245000D01*
G75*
G02*
X91827000Y37095000I0J-150000D01*
G01*
G37*
G36*
G01*
X86877000Y37095000D02*
X86877000Y36795000D01*
G75*
G02*
X86727000Y36645000I-150000J0D01*
G01*
X85077000Y36645000D01*
G75*
G02*
X84927000Y36795000I0J150000D01*
G01*
X84927000Y37095000D01*
G75*
G02*
X85077000Y37245000I150000J0D01*
G01*
X86727000Y37245000D01*
G75*
G02*
X86877000Y37095000I0J-150000D01*
G01*
G37*
G36*
G01*
X86877000Y35825000D02*
X86877000Y35525000D01*
G75*
G02*
X86727000Y35375000I-150000J0D01*
G01*
X85077000Y35375000D01*
G75*
G02*
X84927000Y35525000I0J150000D01*
G01*
X84927000Y35825000D01*
G75*
G02*
X85077000Y35975000I150000J0D01*
G01*
X86727000Y35975000D01*
G75*
G02*
X86877000Y35825000I0J-150000D01*
G01*
G37*
G36*
G01*
X86877000Y34555000D02*
X86877000Y34255000D01*
G75*
G02*
X86727000Y34105000I-150000J0D01*
G01*
X85077000Y34105000D01*
G75*
G02*
X84927000Y34255000I0J150000D01*
G01*
X84927000Y34555000D01*
G75*
G02*
X85077000Y34705000I150000J0D01*
G01*
X86727000Y34705000D01*
G75*
G02*
X86877000Y34555000I0J-150000D01*
G01*
G37*
G36*
G01*
X86877000Y33285000D02*
X86877000Y32985000D01*
G75*
G02*
X86727000Y32835000I-150000J0D01*
G01*
X85077000Y32835000D01*
G75*
G02*
X84927000Y32985000I0J150000D01*
G01*
X84927000Y33285000D01*
G75*
G02*
X85077000Y33435000I150000J0D01*
G01*
X86727000Y33435000D01*
G75*
G02*
X86877000Y33285000I0J-150000D01*
G01*
G37*
G04 #@! TD*
G04 #@! TO.C,C13*
G36*
G01*
X16181999Y72410000D02*
X16181999Y73090000D01*
G75*
G02*
X16266999Y73175000I85000J0D01*
G01*
X16946999Y73175000D01*
G75*
G02*
X17031999Y73090000I0J-85000D01*
G01*
X17031999Y72410000D01*
G75*
G02*
X16946999Y72325000I-85000J0D01*
G01*
X16266999Y72325000D01*
G75*
G02*
X16181999Y72410000I0J85000D01*
G01*
G37*
G36*
G01*
X17762001Y72410000D02*
X17762001Y73090000D01*
G75*
G02*
X17847001Y73175000I85000J0D01*
G01*
X18527001Y73175000D01*
G75*
G02*
X18612001Y73090000I0J-85000D01*
G01*
X18612001Y72410000D01*
G75*
G02*
X18527001Y72325000I-85000J0D01*
G01*
X17847001Y72325000D01*
G75*
G02*
X17762001Y72410000I0J85000D01*
G01*
G37*
G04 #@! TD*
G04 #@! TO.C,U11*
G36*
G01*
X78522000Y98100000D02*
X78222000Y98100000D01*
G75*
G02*
X78072000Y98250000I0J150000D01*
G01*
X78072000Y99900000D01*
G75*
G02*
X78222000Y100050000I150000J0D01*
G01*
X78522000Y100050000D01*
G75*
G02*
X78672000Y99900000I0J-150000D01*
G01*
X78672000Y98250000D01*
G75*
G02*
X78522000Y98100000I-150000J0D01*
G01*
G37*
G36*
G01*
X79792000Y98100000D02*
X79492000Y98100000D01*
G75*
G02*
X79342000Y98250000I0J150000D01*
G01*
X79342000Y99900000D01*
G75*
G02*
X79492000Y100050000I150000J0D01*
G01*
X79792000Y100050000D01*
G75*
G02*
X79942000Y99900000I0J-150000D01*
G01*
X79942000Y98250000D01*
G75*
G02*
X79792000Y98100000I-150000J0D01*
G01*
G37*
G36*
G01*
X81062000Y98100000D02*
X80762000Y98100000D01*
G75*
G02*
X80612000Y98250000I0J150000D01*
G01*
X80612000Y99900000D01*
G75*
G02*
X80762000Y100050000I150000J0D01*
G01*
X81062000Y100050000D01*
G75*
G02*
X81212000Y99900000I0J-150000D01*
G01*
X81212000Y98250000D01*
G75*
G02*
X81062000Y98100000I-150000J0D01*
G01*
G37*
G36*
G01*
X82332000Y98100000D02*
X82032000Y98100000D01*
G75*
G02*
X81882000Y98250000I0J150000D01*
G01*
X81882000Y99900000D01*
G75*
G02*
X82032000Y100050000I150000J0D01*
G01*
X82332000Y100050000D01*
G75*
G02*
X82482000Y99900000I0J-150000D01*
G01*
X82482000Y98250000D01*
G75*
G02*
X82332000Y98100000I-150000J0D01*
G01*
G37*
G36*
G01*
X82332000Y103050000D02*
X82032000Y103050000D01*
G75*
G02*
X81882000Y103200000I0J150000D01*
G01*
X81882000Y104850000D01*
G75*
G02*
X82032000Y105000000I150000J0D01*
G01*
X82332000Y105000000D01*
G75*
G02*
X82482000Y104850000I0J-150000D01*
G01*
X82482000Y103200000D01*
G75*
G02*
X82332000Y103050000I-150000J0D01*
G01*
G37*
G36*
G01*
X81062000Y103050000D02*
X80762000Y103050000D01*
G75*
G02*
X80612000Y103200000I0J150000D01*
G01*
X80612000Y104850000D01*
G75*
G02*
X80762000Y105000000I150000J0D01*
G01*
X81062000Y105000000D01*
G75*
G02*
X81212000Y104850000I0J-150000D01*
G01*
X81212000Y103200000D01*
G75*
G02*
X81062000Y103050000I-150000J0D01*
G01*
G37*
G36*
G01*
X79792000Y103050000D02*
X79492000Y103050000D01*
G75*
G02*
X79342000Y103200000I0J150000D01*
G01*
X79342000Y104850000D01*
G75*
G02*
X79492000Y105000000I150000J0D01*
G01*
X79792000Y105000000D01*
G75*
G02*
X79942000Y104850000I0J-150000D01*
G01*
X79942000Y103200000D01*
G75*
G02*
X79792000Y103050000I-150000J0D01*
G01*
G37*
G36*
G01*
X78522000Y103050000D02*
X78222000Y103050000D01*
G75*
G02*
X78072000Y103200000I0J150000D01*
G01*
X78072000Y104850000D01*
G75*
G02*
X78222000Y105000000I150000J0D01*
G01*
X78522000Y105000000D01*
G75*
G02*
X78672000Y104850000I0J-150000D01*
G01*
X78672000Y103200000D01*
G75*
G02*
X78522000Y103050000I-150000J0D01*
G01*
G37*
G04 #@! TD*
G04 #@! TO.C,C31*
G36*
G01*
X88861999Y38800000D02*
X88861999Y39480000D01*
G75*
G02*
X88946999Y39565000I85000J0D01*
G01*
X89626999Y39565000D01*
G75*
G02*
X89711999Y39480000I0J-85000D01*
G01*
X89711999Y38800000D01*
G75*
G02*
X89626999Y38715000I-85000J0D01*
G01*
X88946999Y38715000D01*
G75*
G02*
X88861999Y38800000I0J85000D01*
G01*
G37*
G36*
G01*
X90442001Y38800000D02*
X90442001Y39480000D01*
G75*
G02*
X90527001Y39565000I85000J0D01*
G01*
X91207001Y39565000D01*
G75*
G02*
X91292001Y39480000I0J-85000D01*
G01*
X91292001Y38800000D01*
G75*
G02*
X91207001Y38715000I-85000J0D01*
G01*
X90527001Y38715000D01*
G75*
G02*
X90442001Y38800000I0J85000D01*
G01*
G37*
G04 #@! TD*
G04 #@! TO.C,F4*
G36*
G01*
X20342010Y70625000D02*
X21032010Y70625000D01*
G75*
G02*
X21262010Y70395000I0J-230000D01*
G01*
X21262010Y69055000D01*
G75*
G02*
X21032010Y68825000I-230000J0D01*
G01*
X20342010Y68825000D01*
G75*
G02*
X20112010Y69055000I0J230000D01*
G01*
X20112010Y70395000D01*
G75*
G02*
X20342010Y70625000I230000J0D01*
G01*
G37*
G36*
G01*
X17441990Y70625000D02*
X18131990Y70625000D01*
G75*
G02*
X18361990Y70395000I0J-230000D01*
G01*
X18361990Y69055000D01*
G75*
G02*
X18131990Y68825000I-230000J0D01*
G01*
X17441990Y68825000D01*
G75*
G02*
X17211990Y69055000I0J230000D01*
G01*
X17211990Y70395000D01*
G75*
G02*
X17441990Y70625000I230000J0D01*
G01*
G37*
G04 #@! TD*
G04 #@! TO.C,R37*
G36*
G01*
X92602001Y74725000D02*
X92602001Y73475000D01*
G75*
G02*
X92502001Y73375000I-100000J0D01*
G01*
X91702001Y73375000D01*
G75*
G02*
X91602001Y73475000I0J100000D01*
G01*
X91602001Y74725000D01*
G75*
G02*
X91702001Y74825000I100000J0D01*
G01*
X92502001Y74825000D01*
G75*
G02*
X92602001Y74725000I0J-100000D01*
G01*
G37*
G36*
G01*
X90701979Y74725000D02*
X90701979Y73475000D01*
G75*
G02*
X90601979Y73375000I-100000J0D01*
G01*
X89801979Y73375000D01*
G75*
G02*
X89701979Y73475000I0J100000D01*
G01*
X89701979Y74725000D01*
G75*
G02*
X89801979Y74825000I100000J0D01*
G01*
X90601979Y74825000D01*
G75*
G02*
X90701979Y74725000I0J-100000D01*
G01*
G37*
G04 #@! TD*
G04 #@! TO.C,F9*
G36*
G01*
X103139500Y91831250D02*
X103139500Y91318750D01*
G75*
G02*
X102920750Y91100000I-218750J0D01*
G01*
X102483250Y91100000D01*
G75*
G02*
X102264500Y91318750I0J218750D01*
G01*
X102264500Y91831250D01*
G75*
G02*
X102483250Y92050000I218750J0D01*
G01*
X102920750Y92050000D01*
G75*
G02*
X103139500Y91831250I0J-218750D01*
G01*
G37*
G36*
G01*
X101564500Y91831250D02*
X101564500Y91318750D01*
G75*
G02*
X101345750Y91100000I-218750J0D01*
G01*
X100908250Y91100000D01*
G75*
G02*
X100689500Y91318750I0J218750D01*
G01*
X100689500Y91831250D01*
G75*
G02*
X100908250Y92050000I218750J0D01*
G01*
X101345750Y92050000D01*
G75*
G02*
X101564500Y91831250I0J-218750D01*
G01*
G37*
G04 #@! TD*
G04 #@! TO.C,C11*
G36*
G01*
X22462001Y88365000D02*
X22462001Y87685000D01*
G75*
G02*
X22377001Y87600000I-85000J0D01*
G01*
X21697001Y87600000D01*
G75*
G02*
X21612001Y87685000I0J85000D01*
G01*
X21612001Y88365000D01*
G75*
G02*
X21697001Y88450000I85000J0D01*
G01*
X22377001Y88450000D01*
G75*
G02*
X22462001Y88365000I0J-85000D01*
G01*
G37*
G36*
G01*
X20881999Y88365000D02*
X20881999Y87685000D01*
G75*
G02*
X20796999Y87600000I-85000J0D01*
G01*
X20116999Y87600000D01*
G75*
G02*
X20031999Y87685000I0J85000D01*
G01*
X20031999Y88365000D01*
G75*
G02*
X20116999Y88450000I85000J0D01*
G01*
X20796999Y88450000D01*
G75*
G02*
X20881999Y88365000I0J-85000D01*
G01*
G37*
G04 #@! TD*
G04 #@! TO.C,F6*
G36*
G01*
X132039500Y91881250D02*
X132039500Y91368750D01*
G75*
G02*
X131820750Y91150000I-218750J0D01*
G01*
X131383250Y91150000D01*
G75*
G02*
X131164500Y91368750I0J218750D01*
G01*
X131164500Y91881250D01*
G75*
G02*
X131383250Y92100000I218750J0D01*
G01*
X131820750Y92100000D01*
G75*
G02*
X132039500Y91881250I0J-218750D01*
G01*
G37*
G36*
G01*
X130464500Y91881250D02*
X130464500Y91368750D01*
G75*
G02*
X130245750Y91150000I-218750J0D01*
G01*
X129808250Y91150000D01*
G75*
G02*
X129589500Y91368750I0J218750D01*
G01*
X129589500Y91881250D01*
G75*
G02*
X129808250Y92100000I218750J0D01*
G01*
X130245750Y92100000D01*
G75*
G02*
X130464500Y91881250I0J-218750D01*
G01*
G37*
G04 #@! TD*
G04 #@! TO.C,R10*
G36*
G01*
X28009500Y96394144D02*
X28009500Y95614144D01*
G75*
G02*
X27939500Y95544144I-70000J0D01*
G01*
X27379500Y95544144D01*
G75*
G02*
X27309500Y95614144I0J70000D01*
G01*
X27309500Y96394144D01*
G75*
G02*
X27379500Y96464144I70000J0D01*
G01*
X27939500Y96464144D01*
G75*
G02*
X28009500Y96394144I0J-70000D01*
G01*
G37*
G36*
G01*
X26409500Y96394144D02*
X26409500Y95614144D01*
G75*
G02*
X26339500Y95544144I-70000J0D01*
G01*
X25779500Y95544144D01*
G75*
G02*
X25709500Y95614144I0J70000D01*
G01*
X25709500Y96394144D01*
G75*
G02*
X25779500Y96464144I70000J0D01*
G01*
X26339500Y96464144D01*
G75*
G02*
X26409500Y96394144I0J-70000D01*
G01*
G37*
G04 #@! TD*
G04 #@! TO.C,F10*
G36*
G01*
X95764500Y91756250D02*
X95764500Y91243750D01*
G75*
G02*
X95545750Y91025000I-218750J0D01*
G01*
X95108250Y91025000D01*
G75*
G02*
X94889500Y91243750I0J218750D01*
G01*
X94889500Y91756250D01*
G75*
G02*
X95108250Y91975000I218750J0D01*
G01*
X95545750Y91975000D01*
G75*
G02*
X95764500Y91756250I0J-218750D01*
G01*
G37*
G36*
G01*
X94189500Y91756250D02*
X94189500Y91243750D01*
G75*
G02*
X93970750Y91025000I-218750J0D01*
G01*
X93533250Y91025000D01*
G75*
G02*
X93314500Y91243750I0J218750D01*
G01*
X93314500Y91756250D01*
G75*
G02*
X93533250Y91975000I218750J0D01*
G01*
X93970750Y91975000D01*
G75*
G02*
X94189500Y91756250I0J-218750D01*
G01*
G37*
G04 #@! TD*
G04 #@! TO.C,F3*
G36*
G01*
X20342010Y68425000D02*
X21032010Y68425000D01*
G75*
G02*
X21262010Y68195000I0J-230000D01*
G01*
X21262010Y66855000D01*
G75*
G02*
X21032010Y66625000I-230000J0D01*
G01*
X20342010Y66625000D01*
G75*
G02*
X20112010Y66855000I0J230000D01*
G01*
X20112010Y68195000D01*
G75*
G02*
X20342010Y68425000I230000J0D01*
G01*
G37*
G36*
G01*
X17441990Y68425000D02*
X18131990Y68425000D01*
G75*
G02*
X18361990Y68195000I0J-230000D01*
G01*
X18361990Y66855000D01*
G75*
G02*
X18131990Y66625000I-230000J0D01*
G01*
X17441990Y66625000D01*
G75*
G02*
X17211990Y66855000I0J230000D01*
G01*
X17211990Y68195000D01*
G75*
G02*
X17441990Y68425000I230000J0D01*
G01*
G37*
G04 #@! TD*
G04 #@! TO.C,D1*
G36*
G01*
X87362000Y21825067D02*
X87842000Y21825067D01*
G75*
G02*
X87902000Y21765067I0J-60000D01*
G01*
X87902000Y21285067D01*
G75*
G02*
X87842000Y21225067I-60000J0D01*
G01*
X87362000Y21225067D01*
G75*
G02*
X87302000Y21285067I0J60000D01*
G01*
X87302000Y21765067D01*
G75*
G02*
X87362000Y21825067I60000J0D01*
G01*
G37*
G36*
G01*
X89562000Y21825067D02*
X90042000Y21825067D01*
G75*
G02*
X90102000Y21765067I0J-60000D01*
G01*
X90102000Y21285067D01*
G75*
G02*
X90042000Y21225067I-60000J0D01*
G01*
X89562000Y21225067D01*
G75*
G02*
X89502000Y21285067I0J60000D01*
G01*
X89502000Y21765067D01*
G75*
G02*
X89562000Y21825067I60000J0D01*
G01*
G37*
G04 #@! TD*
G04 #@! TO.C,C25*
G36*
G01*
X7347000Y77735000D02*
X7347000Y78415000D01*
G75*
G02*
X7432000Y78500000I85000J0D01*
G01*
X8112000Y78500000D01*
G75*
G02*
X8197000Y78415000I0J-85000D01*
G01*
X8197000Y77735000D01*
G75*
G02*
X8112000Y77650000I-85000J0D01*
G01*
X7432000Y77650000D01*
G75*
G02*
X7347000Y77735000I0J85000D01*
G01*
G37*
G36*
G01*
X8927002Y77735000D02*
X8927002Y78415000D01*
G75*
G02*
X9012002Y78500000I85000J0D01*
G01*
X9692002Y78500000D01*
G75*
G02*
X9777002Y78415000I0J-85000D01*
G01*
X9777002Y77735000D01*
G75*
G02*
X9692002Y77650000I-85000J0D01*
G01*
X9012002Y77650000D01*
G75*
G02*
X8927002Y77735000I0J85000D01*
G01*
G37*
G04 #@! TD*
G04 #@! TO.C,R19*
G36*
G01*
X113404500Y95725000D02*
X114184500Y95725000D01*
G75*
G02*
X114254500Y95655000I0J-70000D01*
G01*
X114254500Y95095000D01*
G75*
G02*
X114184500Y95025000I-70000J0D01*
G01*
X113404500Y95025000D01*
G75*
G02*
X113334500Y95095000I0J70000D01*
G01*
X113334500Y95655000D01*
G75*
G02*
X113404500Y95725000I70000J0D01*
G01*
G37*
G36*
G01*
X113404500Y94125000D02*
X114184500Y94125000D01*
G75*
G02*
X114254500Y94055000I0J-70000D01*
G01*
X114254500Y93495000D01*
G75*
G02*
X114184500Y93425000I-70000J0D01*
G01*
X113404500Y93425000D01*
G75*
G02*
X113334500Y93495000I0J70000D01*
G01*
X113334500Y94055000D01*
G75*
G02*
X113404500Y94125000I70000J0D01*
G01*
G37*
G04 #@! TD*
G04 #@! TO.C,R33*
G36*
G01*
X76427000Y96580856D02*
X76427000Y97360856D01*
G75*
G02*
X76497000Y97430856I70000J0D01*
G01*
X77057000Y97430856D01*
G75*
G02*
X77127000Y97360856I0J-70000D01*
G01*
X77127000Y96580856D01*
G75*
G02*
X77057000Y96510856I-70000J0D01*
G01*
X76497000Y96510856D01*
G75*
G02*
X76427000Y96580856I0J70000D01*
G01*
G37*
G36*
G01*
X78027000Y96580856D02*
X78027000Y97360856D01*
G75*
G02*
X78097000Y97430856I70000J0D01*
G01*
X78657000Y97430856D01*
G75*
G02*
X78727000Y97360856I0J-70000D01*
G01*
X78727000Y96580856D01*
G75*
G02*
X78657000Y96510856I-70000J0D01*
G01*
X78097000Y96510856D01*
G75*
G02*
X78027000Y96580856I0J70000D01*
G01*
G37*
G04 #@! TD*
G04 #@! TO.C,F8*
G36*
G01*
X110364500Y91831250D02*
X110364500Y91318750D01*
G75*
G02*
X110145750Y91100000I-218750J0D01*
G01*
X109708250Y91100000D01*
G75*
G02*
X109489500Y91318750I0J218750D01*
G01*
X109489500Y91831250D01*
G75*
G02*
X109708250Y92050000I218750J0D01*
G01*
X110145750Y92050000D01*
G75*
G02*
X110364500Y91831250I0J-218750D01*
G01*
G37*
G36*
G01*
X108789500Y91831250D02*
X108789500Y91318750D01*
G75*
G02*
X108570750Y91100000I-218750J0D01*
G01*
X108133250Y91100000D01*
G75*
G02*
X107914500Y91318750I0J218750D01*
G01*
X107914500Y91831250D01*
G75*
G02*
X108133250Y92050000I218750J0D01*
G01*
X108570750Y92050000D01*
G75*
G02*
X108789500Y91831250I0J-218750D01*
G01*
G37*
G04 #@! TD*
G04 #@! TO.C,Q12*
G36*
G01*
X92464500Y96450000D02*
X91764500Y96450000D01*
G75*
G02*
X91514500Y96700000I0J250000D01*
G01*
X91514500Y98400000D01*
G75*
G02*
X91764500Y98650000I250000J0D01*
G01*
X92464500Y98650000D01*
G75*
G02*
X92714500Y98400000I0J-250000D01*
G01*
X92714500Y96700000D01*
G75*
G02*
X92464500Y96450000I-250000J0D01*
G01*
G37*
G36*
G01*
X93994500Y100650000D02*
X91744500Y100650000D01*
G75*
G02*
X91494500Y100900000I0J250000D01*
G01*
X91494500Y103450000D01*
G75*
G02*
X91744500Y103700000I250000J0D01*
G01*
X93994500Y103700000D01*
G75*
G02*
X94244500Y103450000I0J-250000D01*
G01*
X94244500Y100900000D01*
G75*
G02*
X93994500Y100650000I-250000J0D01*
G01*
G37*
G36*
G01*
X97044500Y100650000D02*
X94794500Y100650000D01*
G75*
G02*
X94544500Y100900000I0J250000D01*
G01*
X94544500Y103450000D01*
G75*
G02*
X94794500Y103700000I250000J0D01*
G01*
X97044500Y103700000D01*
G75*
G02*
X97294500Y103450000I0J-250000D01*
G01*
X97294500Y100900000D01*
G75*
G02*
X97044500Y100650000I-250000J0D01*
G01*
G37*
G36*
G01*
X93994500Y104000000D02*
X91744500Y104000000D01*
G75*
G02*
X91494500Y104250000I0J250000D01*
G01*
X91494500Y106800000D01*
G75*
G02*
X91744500Y107050000I250000J0D01*
G01*
X93994500Y107050000D01*
G75*
G02*
X94244500Y106800000I0J-250000D01*
G01*
X94244500Y104250000D01*
G75*
G02*
X93994500Y104000000I-250000J0D01*
G01*
G37*
G36*
G01*
X97044500Y104000000D02*
X94794500Y104000000D01*
G75*
G02*
X94544500Y104250000I0J250000D01*
G01*
X94544500Y106800000D01*
G75*
G02*
X94794500Y107050000I250000J0D01*
G01*
X97044500Y107050000D01*
G75*
G02*
X97294500Y106800000I0J-250000D01*
G01*
X97294500Y104250000D01*
G75*
G02*
X97044500Y104000000I-250000J0D01*
G01*
G37*
G36*
G01*
X97024500Y96450000D02*
X96324500Y96450000D01*
G75*
G02*
X96074500Y96700000I0J250000D01*
G01*
X96074500Y98400000D01*
G75*
G02*
X96324500Y98650000I250000J0D01*
G01*
X97024500Y98650000D01*
G75*
G02*
X97274500Y98400000I0J-250000D01*
G01*
X97274500Y96700000D01*
G75*
G02*
X97024500Y96450000I-250000J0D01*
G01*
G37*
G04 #@! TD*
D12*
G04 #@! TO.C,M7*
X26902006Y48800000D03*
G04 #@! TD*
G04 #@! TO.C,R23*
G36*
G01*
X106179500Y95725000D02*
X106959500Y95725000D01*
G75*
G02*
X107029500Y95655000I0J-70000D01*
G01*
X107029500Y95095000D01*
G75*
G02*
X106959500Y95025000I-70000J0D01*
G01*
X106179500Y95025000D01*
G75*
G02*
X106109500Y95095000I0J70000D01*
G01*
X106109500Y95655000D01*
G75*
G02*
X106179500Y95725000I70000J0D01*
G01*
G37*
G36*
G01*
X106179500Y94125000D02*
X106959500Y94125000D01*
G75*
G02*
X107029500Y94055000I0J-70000D01*
G01*
X107029500Y93495000D01*
G75*
G02*
X106959500Y93425000I-70000J0D01*
G01*
X106179500Y93425000D01*
G75*
G02*
X106109500Y93495000I0J70000D01*
G01*
X106109500Y94055000D01*
G75*
G02*
X106179500Y94125000I70000J0D01*
G01*
G37*
G04 #@! TD*
G04 #@! TO.C,R7*
G36*
G01*
X28264814Y12642000D02*
X29044814Y12642000D01*
G75*
G02*
X29114814Y12572000I0J-70000D01*
G01*
X29114814Y12012000D01*
G75*
G02*
X29044814Y11942000I-70000J0D01*
G01*
X28264814Y11942000D01*
G75*
G02*
X28194814Y12012000I0J70000D01*
G01*
X28194814Y12572000D01*
G75*
G02*
X28264814Y12642000I70000J0D01*
G01*
G37*
G36*
G01*
X28264814Y11042000D02*
X29044814Y11042000D01*
G75*
G02*
X29114814Y10972000I0J-70000D01*
G01*
X29114814Y10412000D01*
G75*
G02*
X29044814Y10342000I-70000J0D01*
G01*
X28264814Y10342000D01*
G75*
G02*
X28194814Y10412000I0J70000D01*
G01*
X28194814Y10972000D01*
G75*
G02*
X28264814Y11042000I70000J0D01*
G01*
G37*
G04 #@! TD*
G04 #@! TO.C,R9*
G36*
G01*
X21822000Y72335000D02*
X21822000Y73115000D01*
G75*
G02*
X21892000Y73185000I70000J0D01*
G01*
X22452000Y73185000D01*
G75*
G02*
X22522000Y73115000I0J-70000D01*
G01*
X22522000Y72335000D01*
G75*
G02*
X22452000Y72265000I-70000J0D01*
G01*
X21892000Y72265000D01*
G75*
G02*
X21822000Y72335000I0J70000D01*
G01*
G37*
G36*
G01*
X23422000Y72335000D02*
X23422000Y73115000D01*
G75*
G02*
X23492000Y73185000I70000J0D01*
G01*
X24052000Y73185000D01*
G75*
G02*
X24122000Y73115000I0J-70000D01*
G01*
X24122000Y72335000D01*
G75*
G02*
X24052000Y72265000I-70000J0D01*
G01*
X23492000Y72265000D01*
G75*
G02*
X23422000Y72335000I0J70000D01*
G01*
G37*
G04 #@! TD*
G04 #@! TO.C,R24*
G36*
G01*
X98954500Y95725000D02*
X99734500Y95725000D01*
G75*
G02*
X99804500Y95655000I0J-70000D01*
G01*
X99804500Y95095000D01*
G75*
G02*
X99734500Y95025000I-70000J0D01*
G01*
X98954500Y95025000D01*
G75*
G02*
X98884500Y95095000I0J70000D01*
G01*
X98884500Y95655000D01*
G75*
G02*
X98954500Y95725000I70000J0D01*
G01*
G37*
G36*
G01*
X98954500Y94125000D02*
X99734500Y94125000D01*
G75*
G02*
X99804500Y94055000I0J-70000D01*
G01*
X99804500Y93495000D01*
G75*
G02*
X99734500Y93425000I-70000J0D01*
G01*
X98954500Y93425000D01*
G75*
G02*
X98884500Y93495000I0J70000D01*
G01*
X98884500Y94055000D01*
G75*
G02*
X98954500Y94125000I70000J0D01*
G01*
G37*
G04 #@! TD*
G04 #@! TO.C,F7*
G36*
G01*
X117589500Y91806250D02*
X117589500Y91293750D01*
G75*
G02*
X117370750Y91075000I-218750J0D01*
G01*
X116933250Y91075000D01*
G75*
G02*
X116714500Y91293750I0J218750D01*
G01*
X116714500Y91806250D01*
G75*
G02*
X116933250Y92025000I218750J0D01*
G01*
X117370750Y92025000D01*
G75*
G02*
X117589500Y91806250I0J-218750D01*
G01*
G37*
G36*
G01*
X116014500Y91806250D02*
X116014500Y91293750D01*
G75*
G02*
X115795750Y91075000I-218750J0D01*
G01*
X115358250Y91075000D01*
G75*
G02*
X115139500Y91293750I0J218750D01*
G01*
X115139500Y91806250D01*
G75*
G02*
X115358250Y92025000I218750J0D01*
G01*
X115795750Y92025000D01*
G75*
G02*
X116014500Y91806250I0J-218750D01*
G01*
G37*
G04 #@! TD*
G04 #@! TO.C,C32*
G36*
G01*
X88861999Y40600000D02*
X88861999Y41280000D01*
G75*
G02*
X88946999Y41365000I85000J0D01*
G01*
X89626999Y41365000D01*
G75*
G02*
X89711999Y41280000I0J-85000D01*
G01*
X89711999Y40600000D01*
G75*
G02*
X89626999Y40515000I-85000J0D01*
G01*
X88946999Y40515000D01*
G75*
G02*
X88861999Y40600000I0J85000D01*
G01*
G37*
G36*
G01*
X90442001Y40600000D02*
X90442001Y41280000D01*
G75*
G02*
X90527001Y41365000I85000J0D01*
G01*
X91207001Y41365000D01*
G75*
G02*
X91292001Y41280000I0J-85000D01*
G01*
X91292001Y40600000D01*
G75*
G02*
X91207001Y40515000I-85000J0D01*
G01*
X90527001Y40515000D01*
G75*
G02*
X90442001Y40600000I0J85000D01*
G01*
G37*
G04 #@! TD*
G04 #@! TO.C,R16*
G36*
G01*
X16634500Y95610000D02*
X16634500Y96390000D01*
G75*
G02*
X16704500Y96460000I70000J0D01*
G01*
X17264500Y96460000D01*
G75*
G02*
X17334500Y96390000I0J-70000D01*
G01*
X17334500Y95610000D01*
G75*
G02*
X17264500Y95540000I-70000J0D01*
G01*
X16704500Y95540000D01*
G75*
G02*
X16634500Y95610000I0J70000D01*
G01*
G37*
G36*
G01*
X18234500Y95610000D02*
X18234500Y96390000D01*
G75*
G02*
X18304500Y96460000I70000J0D01*
G01*
X18864500Y96460000D01*
G75*
G02*
X18934500Y96390000I0J-70000D01*
G01*
X18934500Y95610000D01*
G75*
G02*
X18864500Y95540000I-70000J0D01*
G01*
X18304500Y95540000D01*
G75*
G02*
X18234500Y95610000I0J70000D01*
G01*
G37*
G04 #@! TD*
G04 #@! TO.C,U9*
G36*
G01*
X62897000Y98095856D02*
X62597000Y98095856D01*
G75*
G02*
X62447000Y98245856I0J150000D01*
G01*
X62447000Y99895856D01*
G75*
G02*
X62597000Y100045856I150000J0D01*
G01*
X62897000Y100045856D01*
G75*
G02*
X63047000Y99895856I0J-150000D01*
G01*
X63047000Y98245856D01*
G75*
G02*
X62897000Y98095856I-150000J0D01*
G01*
G37*
G36*
G01*
X64167000Y98095856D02*
X63867000Y98095856D01*
G75*
G02*
X63717000Y98245856I0J150000D01*
G01*
X63717000Y99895856D01*
G75*
G02*
X63867000Y100045856I150000J0D01*
G01*
X64167000Y100045856D01*
G75*
G02*
X64317000Y99895856I0J-150000D01*
G01*
X64317000Y98245856D01*
G75*
G02*
X64167000Y98095856I-150000J0D01*
G01*
G37*
G36*
G01*
X65437000Y98095856D02*
X65137000Y98095856D01*
G75*
G02*
X64987000Y98245856I0J150000D01*
G01*
X64987000Y99895856D01*
G75*
G02*
X65137000Y100045856I150000J0D01*
G01*
X65437000Y100045856D01*
G75*
G02*
X65587000Y99895856I0J-150000D01*
G01*
X65587000Y98245856D01*
G75*
G02*
X65437000Y98095856I-150000J0D01*
G01*
G37*
G36*
G01*
X66707000Y98095856D02*
X66407000Y98095856D01*
G75*
G02*
X66257000Y98245856I0J150000D01*
G01*
X66257000Y99895856D01*
G75*
G02*
X66407000Y100045856I150000J0D01*
G01*
X66707000Y100045856D01*
G75*
G02*
X66857000Y99895856I0J-150000D01*
G01*
X66857000Y98245856D01*
G75*
G02*
X66707000Y98095856I-150000J0D01*
G01*
G37*
G36*
G01*
X66707000Y103045856D02*
X66407000Y103045856D01*
G75*
G02*
X66257000Y103195856I0J150000D01*
G01*
X66257000Y104845856D01*
G75*
G02*
X66407000Y104995856I150000J0D01*
G01*
X66707000Y104995856D01*
G75*
G02*
X66857000Y104845856I0J-150000D01*
G01*
X66857000Y103195856D01*
G75*
G02*
X66707000Y103045856I-150000J0D01*
G01*
G37*
G36*
G01*
X65437000Y103045856D02*
X65137000Y103045856D01*
G75*
G02*
X64987000Y103195856I0J150000D01*
G01*
X64987000Y104845856D01*
G75*
G02*
X65137000Y104995856I150000J0D01*
G01*
X65437000Y104995856D01*
G75*
G02*
X65587000Y104845856I0J-150000D01*
G01*
X65587000Y103195856D01*
G75*
G02*
X65437000Y103045856I-150000J0D01*
G01*
G37*
G36*
G01*
X64167000Y103045856D02*
X63867000Y103045856D01*
G75*
G02*
X63717000Y103195856I0J150000D01*
G01*
X63717000Y104845856D01*
G75*
G02*
X63867000Y104995856I150000J0D01*
G01*
X64167000Y104995856D01*
G75*
G02*
X64317000Y104845856I0J-150000D01*
G01*
X64317000Y103195856D01*
G75*
G02*
X64167000Y103045856I-150000J0D01*
G01*
G37*
G36*
G01*
X62897000Y103045856D02*
X62597000Y103045856D01*
G75*
G02*
X62447000Y103195856I0J150000D01*
G01*
X62447000Y104845856D01*
G75*
G02*
X62597000Y104995856I150000J0D01*
G01*
X62897000Y104995856D01*
G75*
G02*
X63047000Y104845856I0J-150000D01*
G01*
X63047000Y103195856D01*
G75*
G02*
X62897000Y103045856I-150000J0D01*
G01*
G37*
G04 #@! TD*
G04 #@! TO.C,R30*
G36*
G01*
X67227000Y97360856D02*
X67227000Y96580856D01*
G75*
G02*
X67157000Y96510856I-70000J0D01*
G01*
X66597000Y96510856D01*
G75*
G02*
X66527000Y96580856I0J70000D01*
G01*
X66527000Y97360856D01*
G75*
G02*
X66597000Y97430856I70000J0D01*
G01*
X67157000Y97430856D01*
G75*
G02*
X67227000Y97360856I0J-70000D01*
G01*
G37*
G36*
G01*
X65627000Y97360856D02*
X65627000Y96580856D01*
G75*
G02*
X65557000Y96510856I-70000J0D01*
G01*
X64997000Y96510856D01*
G75*
G02*
X64927000Y96580856I0J70000D01*
G01*
X64927000Y97360856D01*
G75*
G02*
X64997000Y97430856I70000J0D01*
G01*
X65557000Y97430856D01*
G75*
G02*
X65627000Y97360856I0J-70000D01*
G01*
G37*
G04 #@! TD*
G04 #@! TO.C,Q9*
G36*
G01*
X114154500Y96450000D02*
X113454500Y96450000D01*
G75*
G02*
X113204500Y96700000I0J250000D01*
G01*
X113204500Y98400000D01*
G75*
G02*
X113454500Y98650000I250000J0D01*
G01*
X114154500Y98650000D01*
G75*
G02*
X114404500Y98400000I0J-250000D01*
G01*
X114404500Y96700000D01*
G75*
G02*
X114154500Y96450000I-250000J0D01*
G01*
G37*
G36*
G01*
X115684500Y100650000D02*
X113434500Y100650000D01*
G75*
G02*
X113184500Y100900000I0J250000D01*
G01*
X113184500Y103450000D01*
G75*
G02*
X113434500Y103700000I250000J0D01*
G01*
X115684500Y103700000D01*
G75*
G02*
X115934500Y103450000I0J-250000D01*
G01*
X115934500Y100900000D01*
G75*
G02*
X115684500Y100650000I-250000J0D01*
G01*
G37*
G36*
G01*
X118734500Y100650000D02*
X116484500Y100650000D01*
G75*
G02*
X116234500Y100900000I0J250000D01*
G01*
X116234500Y103450000D01*
G75*
G02*
X116484500Y103700000I250000J0D01*
G01*
X118734500Y103700000D01*
G75*
G02*
X118984500Y103450000I0J-250000D01*
G01*
X118984500Y100900000D01*
G75*
G02*
X118734500Y100650000I-250000J0D01*
G01*
G37*
G36*
G01*
X115684500Y104000000D02*
X113434500Y104000000D01*
G75*
G02*
X113184500Y104250000I0J250000D01*
G01*
X113184500Y106800000D01*
G75*
G02*
X113434500Y107050000I250000J0D01*
G01*
X115684500Y107050000D01*
G75*
G02*
X115934500Y106800000I0J-250000D01*
G01*
X115934500Y104250000D01*
G75*
G02*
X115684500Y104000000I-250000J0D01*
G01*
G37*
G36*
G01*
X118734500Y104000000D02*
X116484500Y104000000D01*
G75*
G02*
X116234500Y104250000I0J250000D01*
G01*
X116234500Y106800000D01*
G75*
G02*
X116484500Y107050000I250000J0D01*
G01*
X118734500Y107050000D01*
G75*
G02*
X118984500Y106800000I0J-250000D01*
G01*
X118984500Y104250000D01*
G75*
G02*
X118734500Y104000000I-250000J0D01*
G01*
G37*
G36*
G01*
X118714500Y96450000D02*
X118014500Y96450000D01*
G75*
G02*
X117764500Y96700000I0J250000D01*
G01*
X117764500Y98400000D01*
G75*
G02*
X118014500Y98650000I250000J0D01*
G01*
X118714500Y98650000D01*
G75*
G02*
X118964500Y98400000I0J-250000D01*
G01*
X118964500Y96700000D01*
G75*
G02*
X118714500Y96450000I-250000J0D01*
G01*
G37*
G04 #@! TD*
D13*
G04 #@! TO.C,U5*
X115415000Y8967000D03*
X115415000Y10467000D03*
X115415000Y11967000D03*
X115415000Y13467000D03*
X115415000Y14967000D03*
X115415000Y16467000D03*
X115415000Y17967000D03*
X115415000Y19467000D03*
X115415000Y20967000D03*
X115415000Y22467000D03*
X115415000Y23967000D03*
X115415000Y25467000D03*
X115415000Y26967000D03*
X102715000Y26967000D03*
X102715000Y25467000D03*
X102715000Y23967000D03*
X102715000Y22467000D03*
X102715000Y20967000D03*
X102715000Y19467000D03*
X102715000Y17967000D03*
X102715000Y16467000D03*
X102715000Y14967000D03*
X102715000Y13467000D03*
X102715000Y11967000D03*
X102715000Y10467000D03*
X102715000Y8967000D03*
G04 #@! TD*
G04 #@! TO.C,R25*
G36*
G01*
X91704500Y95725000D02*
X92484500Y95725000D01*
G75*
G02*
X92554500Y95655000I0J-70000D01*
G01*
X92554500Y95095000D01*
G75*
G02*
X92484500Y95025000I-70000J0D01*
G01*
X91704500Y95025000D01*
G75*
G02*
X91634500Y95095000I0J70000D01*
G01*
X91634500Y95655000D01*
G75*
G02*
X91704500Y95725000I70000J0D01*
G01*
G37*
G36*
G01*
X91704500Y94125000D02*
X92484500Y94125000D01*
G75*
G02*
X92554500Y94055000I0J-70000D01*
G01*
X92554500Y93495000D01*
G75*
G02*
X92484500Y93425000I-70000J0D01*
G01*
X91704500Y93425000D01*
G75*
G02*
X91634500Y93495000I0J70000D01*
G01*
X91634500Y94055000D01*
G75*
G02*
X91704500Y94125000I70000J0D01*
G01*
G37*
G04 #@! TD*
G04 #@! TO.C,L2*
G36*
G01*
X102644977Y34221250D02*
X102644977Y33708750D01*
G75*
G02*
X102426227Y33490000I-218750J0D01*
G01*
X101988727Y33490000D01*
G75*
G02*
X101769977Y33708750I0J218750D01*
G01*
X101769977Y34221250D01*
G75*
G02*
X101988727Y34440000I218750J0D01*
G01*
X102426227Y34440000D01*
G75*
G02*
X102644977Y34221250I0J-218750D01*
G01*
G37*
G36*
G01*
X101069977Y34221250D02*
X101069977Y33708750D01*
G75*
G02*
X100851227Y33490000I-218750J0D01*
G01*
X100413727Y33490000D01*
G75*
G02*
X100194977Y33708750I0J218750D01*
G01*
X100194977Y34221250D01*
G75*
G02*
X100413727Y34440000I218750J0D01*
G01*
X100851227Y34440000D01*
G75*
G02*
X101069977Y34221250I0J-218750D01*
G01*
G37*
G04 #@! TD*
G04 #@! TO.C,R17*
G36*
G01*
X127879500Y95725000D02*
X128659500Y95725000D01*
G75*
G02*
X128729500Y95655000I0J-70000D01*
G01*
X128729500Y95095000D01*
G75*
G02*
X128659500Y95025000I-70000J0D01*
G01*
X127879500Y95025000D01*
G75*
G02*
X127809500Y95095000I0J70000D01*
G01*
X127809500Y95655000D01*
G75*
G02*
X127879500Y95725000I70000J0D01*
G01*
G37*
G36*
G01*
X127879500Y94125000D02*
X128659500Y94125000D01*
G75*
G02*
X128729500Y94055000I0J-70000D01*
G01*
X128729500Y93495000D01*
G75*
G02*
X128659500Y93425000I-70000J0D01*
G01*
X127879500Y93425000D01*
G75*
G02*
X127809500Y93495000I0J70000D01*
G01*
X127809500Y94055000D01*
G75*
G02*
X127879500Y94125000I70000J0D01*
G01*
G37*
G04 #@! TD*
G04 #@! TO.C,R8*
G36*
G01*
X30764814Y12642000D02*
X31544814Y12642000D01*
G75*
G02*
X31614814Y12572000I0J-70000D01*
G01*
X31614814Y12012000D01*
G75*
G02*
X31544814Y11942000I-70000J0D01*
G01*
X30764814Y11942000D01*
G75*
G02*
X30694814Y12012000I0J70000D01*
G01*
X30694814Y12572000D01*
G75*
G02*
X30764814Y12642000I70000J0D01*
G01*
G37*
G36*
G01*
X30764814Y11042000D02*
X31544814Y11042000D01*
G75*
G02*
X31614814Y10972000I0J-70000D01*
G01*
X31614814Y10412000D01*
G75*
G02*
X31544814Y10342000I-70000J0D01*
G01*
X30764814Y10342000D01*
G75*
G02*
X30694814Y10412000I0J70000D01*
G01*
X30694814Y10972000D01*
G75*
G02*
X30764814Y11042000I70000J0D01*
G01*
G37*
G04 #@! TD*
G04 #@! TO.C,R3*
G36*
G01*
X28132000Y73725000D02*
X28912000Y73725000D01*
G75*
G02*
X28982000Y73655000I0J-70000D01*
G01*
X28982000Y73095000D01*
G75*
G02*
X28912000Y73025000I-70000J0D01*
G01*
X28132000Y73025000D01*
G75*
G02*
X28062000Y73095000I0J70000D01*
G01*
X28062000Y73655000D01*
G75*
G02*
X28132000Y73725000I70000J0D01*
G01*
G37*
G36*
G01*
X28132000Y72125000D02*
X28912000Y72125000D01*
G75*
G02*
X28982000Y72055000I0J-70000D01*
G01*
X28982000Y71495000D01*
G75*
G02*
X28912000Y71425000I-70000J0D01*
G01*
X28132000Y71425000D01*
G75*
G02*
X28062000Y71495000I0J70000D01*
G01*
X28062000Y72055000D01*
G75*
G02*
X28132000Y72125000I70000J0D01*
G01*
G37*
G04 #@! TD*
G04 #@! TO.C,R15*
G36*
G01*
X13884500Y95610000D02*
X13884500Y96390000D01*
G75*
G02*
X13954500Y96460000I70000J0D01*
G01*
X14514500Y96460000D01*
G75*
G02*
X14584500Y96390000I0J-70000D01*
G01*
X14584500Y95610000D01*
G75*
G02*
X14514500Y95540000I-70000J0D01*
G01*
X13954500Y95540000D01*
G75*
G02*
X13884500Y95610000I0J70000D01*
G01*
G37*
G36*
G01*
X15484500Y95610000D02*
X15484500Y96390000D01*
G75*
G02*
X15554500Y96460000I70000J0D01*
G01*
X16114500Y96460000D01*
G75*
G02*
X16184500Y96390000I0J-70000D01*
G01*
X16184500Y95610000D01*
G75*
G02*
X16114500Y95540000I-70000J0D01*
G01*
X15554500Y95540000D01*
G75*
G02*
X15484500Y95610000I0J70000D01*
G01*
G37*
G04 #@! TD*
G04 #@! TO.C,R35*
G36*
G01*
X92602001Y69725000D02*
X92602001Y68475000D01*
G75*
G02*
X92502001Y68375000I-100000J0D01*
G01*
X91702001Y68375000D01*
G75*
G02*
X91602001Y68475000I0J100000D01*
G01*
X91602001Y69725000D01*
G75*
G02*
X91702001Y69825000I100000J0D01*
G01*
X92502001Y69825000D01*
G75*
G02*
X92602001Y69725000I0J-100000D01*
G01*
G37*
G36*
G01*
X90701979Y69725000D02*
X90701979Y68475000D01*
G75*
G02*
X90601979Y68375000I-100000J0D01*
G01*
X89801979Y68375000D01*
G75*
G02*
X89701979Y68475000I0J100000D01*
G01*
X89701979Y69725000D01*
G75*
G02*
X89801979Y69825000I100000J0D01*
G01*
X90601979Y69825000D01*
G75*
G02*
X90701979Y69725000I0J-100000D01*
G01*
G37*
G04 #@! TD*
G04 #@! TO.C,R13*
G36*
G01*
X24859500Y96394144D02*
X24859500Y95614144D01*
G75*
G02*
X24789500Y95544144I-70000J0D01*
G01*
X24229500Y95544144D01*
G75*
G02*
X24159500Y95614144I0J70000D01*
G01*
X24159500Y96394144D01*
G75*
G02*
X24229500Y96464144I70000J0D01*
G01*
X24789500Y96464144D01*
G75*
G02*
X24859500Y96394144I0J-70000D01*
G01*
G37*
G36*
G01*
X23259500Y96394144D02*
X23259500Y95614144D01*
G75*
G02*
X23189500Y95544144I-70000J0D01*
G01*
X22629500Y95544144D01*
G75*
G02*
X22559500Y95614144I0J70000D01*
G01*
X22559500Y96394144D01*
G75*
G02*
X22629500Y96464144I70000J0D01*
G01*
X23189500Y96464144D01*
G75*
G02*
X23259500Y96394144I0J-70000D01*
G01*
G37*
G04 #@! TD*
G04 #@! TO.C,F1*
G36*
G01*
X20342010Y66225000D02*
X21032010Y66225000D01*
G75*
G02*
X21262010Y65995000I0J-230000D01*
G01*
X21262010Y64655000D01*
G75*
G02*
X21032010Y64425000I-230000J0D01*
G01*
X20342010Y64425000D01*
G75*
G02*
X20112010Y64655000I0J230000D01*
G01*
X20112010Y65995000D01*
G75*
G02*
X20342010Y66225000I230000J0D01*
G01*
G37*
G36*
G01*
X17441990Y66225000D02*
X18131990Y66225000D01*
G75*
G02*
X18361990Y65995000I0J-230000D01*
G01*
X18361990Y64655000D01*
G75*
G02*
X18131990Y64425000I-230000J0D01*
G01*
X17441990Y64425000D01*
G75*
G02*
X17211990Y64655000I0J230000D01*
G01*
X17211990Y65995000D01*
G75*
G02*
X17441990Y66225000I230000J0D01*
G01*
G37*
G04 #@! TD*
G04 #@! TO.C,R4*
G36*
G01*
X83077001Y24050000D02*
X83077001Y22800000D01*
G75*
G02*
X82977001Y22700000I-100000J0D01*
G01*
X82177001Y22700000D01*
G75*
G02*
X82077001Y22800000I0J100000D01*
G01*
X82077001Y24050000D01*
G75*
G02*
X82177001Y24150000I100000J0D01*
G01*
X82977001Y24150000D01*
G75*
G02*
X83077001Y24050000I0J-100000D01*
G01*
G37*
G36*
G01*
X81176979Y24050000D02*
X81176979Y22800000D01*
G75*
G02*
X81076979Y22700000I-100000J0D01*
G01*
X80276979Y22700000D01*
G75*
G02*
X80176979Y22800000I0J100000D01*
G01*
X80176979Y24050000D01*
G75*
G02*
X80276979Y24150000I100000J0D01*
G01*
X81076979Y24150000D01*
G75*
G02*
X81176979Y24050000I0J-100000D01*
G01*
G37*
G04 #@! TD*
G04 #@! TO.C,R11*
G36*
G01*
X30759500Y96394144D02*
X30759500Y95614144D01*
G75*
G02*
X30689500Y95544144I-70000J0D01*
G01*
X30129500Y95544144D01*
G75*
G02*
X30059500Y95614144I0J70000D01*
G01*
X30059500Y96394144D01*
G75*
G02*
X30129500Y96464144I70000J0D01*
G01*
X30689500Y96464144D01*
G75*
G02*
X30759500Y96394144I0J-70000D01*
G01*
G37*
G36*
G01*
X29159500Y96394144D02*
X29159500Y95614144D01*
G75*
G02*
X29089500Y95544144I-70000J0D01*
G01*
X28529500Y95544144D01*
G75*
G02*
X28459500Y95614144I0J70000D01*
G01*
X28459500Y96394144D01*
G75*
G02*
X28529500Y96464144I70000J0D01*
G01*
X29089500Y96464144D01*
G75*
G02*
X29159500Y96394144I0J-70000D01*
G01*
G37*
G04 #@! TD*
G04 #@! TO.C,R38*
G36*
G01*
X89152001Y69725000D02*
X89152001Y68475000D01*
G75*
G02*
X89052001Y68375000I-100000J0D01*
G01*
X88252001Y68375000D01*
G75*
G02*
X88152001Y68475000I0J100000D01*
G01*
X88152001Y69725000D01*
G75*
G02*
X88252001Y69825000I100000J0D01*
G01*
X89052001Y69825000D01*
G75*
G02*
X89152001Y69725000I0J-100000D01*
G01*
G37*
G36*
G01*
X87251979Y69725000D02*
X87251979Y68475000D01*
G75*
G02*
X87151979Y68375000I-100000J0D01*
G01*
X86351979Y68375000D01*
G75*
G02*
X86251979Y68475000I0J100000D01*
G01*
X86251979Y69725000D01*
G75*
G02*
X86351979Y69825000I100000J0D01*
G01*
X87151979Y69825000D01*
G75*
G02*
X87251979Y69725000I0J-100000D01*
G01*
G37*
G04 #@! TD*
G04 #@! TO.C,R36*
G36*
G01*
X92602001Y72225000D02*
X92602001Y70975000D01*
G75*
G02*
X92502001Y70875000I-100000J0D01*
G01*
X91702001Y70875000D01*
G75*
G02*
X91602001Y70975000I0J100000D01*
G01*
X91602001Y72225000D01*
G75*
G02*
X91702001Y72325000I100000J0D01*
G01*
X92502001Y72325000D01*
G75*
G02*
X92602001Y72225000I0J-100000D01*
G01*
G37*
G36*
G01*
X90701979Y72225000D02*
X90701979Y70975000D01*
G75*
G02*
X90601979Y70875000I-100000J0D01*
G01*
X89801979Y70875000D01*
G75*
G02*
X89701979Y70975000I0J100000D01*
G01*
X89701979Y72225000D01*
G75*
G02*
X89801979Y72325000I100000J0D01*
G01*
X90601979Y72325000D01*
G75*
G02*
X90701979Y72225000I0J-100000D01*
G01*
G37*
G04 #@! TD*
G04 #@! TO.C,F5*
G36*
G01*
X124852000Y91881250D02*
X124852000Y91368750D01*
G75*
G02*
X124633250Y91150000I-218750J0D01*
G01*
X124195750Y91150000D01*
G75*
G02*
X123977000Y91368750I0J218750D01*
G01*
X123977000Y91881250D01*
G75*
G02*
X124195750Y92100000I218750J0D01*
G01*
X124633250Y92100000D01*
G75*
G02*
X124852000Y91881250I0J-218750D01*
G01*
G37*
G36*
G01*
X123277000Y91881250D02*
X123277000Y91368750D01*
G75*
G02*
X123058250Y91150000I-218750J0D01*
G01*
X122620750Y91150000D01*
G75*
G02*
X122402000Y91368750I0J218750D01*
G01*
X122402000Y91881250D01*
G75*
G02*
X122620750Y92100000I218750J0D01*
G01*
X123058250Y92100000D01*
G75*
G02*
X123277000Y91881250I0J-218750D01*
G01*
G37*
G04 #@! TD*
D14*
G04 #@! TO.C,U1*
X23607000Y81600000D03*
X22147000Y81600000D03*
X20687000Y81600000D03*
X19227000Y81600000D03*
X17767000Y81600000D03*
X23607000Y79350000D03*
X22147000Y79350000D03*
X20687000Y79350000D03*
X19227000Y79350000D03*
X17767000Y79350000D03*
D15*
X23187000Y85275000D03*
X22187000Y85275000D03*
X21187000Y85275000D03*
X20187000Y85275000D03*
X19187000Y85275000D03*
X18187000Y85275000D03*
X18187000Y75675000D03*
X19187000Y75675000D03*
X20187000Y75675000D03*
X21187000Y75675000D03*
X22187000Y75675000D03*
X23187000Y75675000D03*
G04 #@! TD*
D14*
G04 #@! TO.C,U2*
X13772000Y71300000D03*
X12312000Y71300000D03*
X10852000Y71300000D03*
X9392000Y71300000D03*
X7932000Y71300000D03*
X13772000Y69050000D03*
X12312000Y69050000D03*
X10852000Y69050000D03*
X9392000Y69050000D03*
X7932000Y69050000D03*
D15*
X13352000Y74975000D03*
X12352000Y74975000D03*
X11352000Y74975000D03*
X10352000Y74975000D03*
X9352000Y74975000D03*
X8352000Y74975000D03*
X8352000Y65375000D03*
X9352000Y65375000D03*
X10352000Y65375000D03*
X11352000Y65375000D03*
X12352000Y65375000D03*
X13352000Y65375000D03*
G04 #@! TD*
G04 #@! TO.C,R32*
G36*
G01*
X75307000Y97360856D02*
X75307000Y96580856D01*
G75*
G02*
X75237000Y96510856I-70000J0D01*
G01*
X74677000Y96510856D01*
G75*
G02*
X74607000Y96580856I0J70000D01*
G01*
X74607000Y97360856D01*
G75*
G02*
X74677000Y97430856I70000J0D01*
G01*
X75237000Y97430856D01*
G75*
G02*
X75307000Y97360856I0J-70000D01*
G01*
G37*
G36*
G01*
X73707000Y97360856D02*
X73707000Y96580856D01*
G75*
G02*
X73637000Y96510856I-70000J0D01*
G01*
X73077000Y96510856D01*
G75*
G02*
X73007000Y96580856I0J70000D01*
G01*
X73007000Y97360856D01*
G75*
G02*
X73077000Y97430856I70000J0D01*
G01*
X73637000Y97430856D01*
G75*
G02*
X73707000Y97360856I0J-70000D01*
G01*
G37*
G04 #@! TD*
G04 #@! TO.C,C28*
G36*
G01*
X99359977Y32049999D02*
X98679977Y32049999D01*
G75*
G02*
X98594977Y32134999I0J85000D01*
G01*
X98594977Y32814999D01*
G75*
G02*
X98679977Y32899999I85000J0D01*
G01*
X99359977Y32899999D01*
G75*
G02*
X99444977Y32814999I0J-85000D01*
G01*
X99444977Y32134999D01*
G75*
G02*
X99359977Y32049999I-85000J0D01*
G01*
G37*
G36*
G01*
X99359977Y33630001D02*
X98679977Y33630001D01*
G75*
G02*
X98594977Y33715001I0J85000D01*
G01*
X98594977Y34395001D01*
G75*
G02*
X98679977Y34480001I85000J0D01*
G01*
X99359977Y34480001D01*
G75*
G02*
X99444977Y34395001I0J-85000D01*
G01*
X99444977Y33715001D01*
G75*
G02*
X99359977Y33630001I-85000J0D01*
G01*
G37*
G04 #@! TD*
G04 #@! TO.C,U6*
G36*
G01*
X14479500Y97575000D02*
X14179500Y97575000D01*
G75*
G02*
X14029500Y97725000I0J150000D01*
G01*
X14029500Y99375000D01*
G75*
G02*
X14179500Y99525000I150000J0D01*
G01*
X14479500Y99525000D01*
G75*
G02*
X14629500Y99375000I0J-150000D01*
G01*
X14629500Y97725000D01*
G75*
G02*
X14479500Y97575000I-150000J0D01*
G01*
G37*
G36*
G01*
X15749500Y97575000D02*
X15449500Y97575000D01*
G75*
G02*
X15299500Y97725000I0J150000D01*
G01*
X15299500Y99375000D01*
G75*
G02*
X15449500Y99525000I150000J0D01*
G01*
X15749500Y99525000D01*
G75*
G02*
X15899500Y99375000I0J-150000D01*
G01*
X15899500Y97725000D01*
G75*
G02*
X15749500Y97575000I-150000J0D01*
G01*
G37*
G36*
G01*
X17019500Y97575000D02*
X16719500Y97575000D01*
G75*
G02*
X16569500Y97725000I0J150000D01*
G01*
X16569500Y99375000D01*
G75*
G02*
X16719500Y99525000I150000J0D01*
G01*
X17019500Y99525000D01*
G75*
G02*
X17169500Y99375000I0J-150000D01*
G01*
X17169500Y97725000D01*
G75*
G02*
X17019500Y97575000I-150000J0D01*
G01*
G37*
G36*
G01*
X18289500Y97575000D02*
X17989500Y97575000D01*
G75*
G02*
X17839500Y97725000I0J150000D01*
G01*
X17839500Y99375000D01*
G75*
G02*
X17989500Y99525000I150000J0D01*
G01*
X18289500Y99525000D01*
G75*
G02*
X18439500Y99375000I0J-150000D01*
G01*
X18439500Y97725000D01*
G75*
G02*
X18289500Y97575000I-150000J0D01*
G01*
G37*
G36*
G01*
X18289500Y102525000D02*
X17989500Y102525000D01*
G75*
G02*
X17839500Y102675000I0J150000D01*
G01*
X17839500Y104325000D01*
G75*
G02*
X17989500Y104475000I150000J0D01*
G01*
X18289500Y104475000D01*
G75*
G02*
X18439500Y104325000I0J-150000D01*
G01*
X18439500Y102675000D01*
G75*
G02*
X18289500Y102525000I-150000J0D01*
G01*
G37*
G36*
G01*
X17019500Y102525000D02*
X16719500Y102525000D01*
G75*
G02*
X16569500Y102675000I0J150000D01*
G01*
X16569500Y104325000D01*
G75*
G02*
X16719500Y104475000I150000J0D01*
G01*
X17019500Y104475000D01*
G75*
G02*
X17169500Y104325000I0J-150000D01*
G01*
X17169500Y102675000D01*
G75*
G02*
X17019500Y102525000I-150000J0D01*
G01*
G37*
G36*
G01*
X15749500Y102525000D02*
X15449500Y102525000D01*
G75*
G02*
X15299500Y102675000I0J150000D01*
G01*
X15299500Y104325000D01*
G75*
G02*
X15449500Y104475000I150000J0D01*
G01*
X15749500Y104475000D01*
G75*
G02*
X15899500Y104325000I0J-150000D01*
G01*
X15899500Y102675000D01*
G75*
G02*
X15749500Y102525000I-150000J0D01*
G01*
G37*
G36*
G01*
X14479500Y102525000D02*
X14179500Y102525000D01*
G75*
G02*
X14029500Y102675000I0J150000D01*
G01*
X14029500Y104325000D01*
G75*
G02*
X14179500Y104475000I150000J0D01*
G01*
X14479500Y104475000D01*
G75*
G02*
X14629500Y104325000I0J-150000D01*
G01*
X14629500Y102675000D01*
G75*
G02*
X14479500Y102525000I-150000J0D01*
G01*
G37*
G04 #@! TD*
G04 #@! TO.C,R29*
G36*
G01*
X60777000Y96576712D02*
X60777000Y97356712D01*
G75*
G02*
X60847000Y97426712I70000J0D01*
G01*
X61407000Y97426712D01*
G75*
G02*
X61477000Y97356712I0J-70000D01*
G01*
X61477000Y96576712D01*
G75*
G02*
X61407000Y96506712I-70000J0D01*
G01*
X60847000Y96506712D01*
G75*
G02*
X60777000Y96576712I0J70000D01*
G01*
G37*
G36*
G01*
X62377000Y96576712D02*
X62377000Y97356712D01*
G75*
G02*
X62447000Y97426712I70000J0D01*
G01*
X63007000Y97426712D01*
G75*
G02*
X63077000Y97356712I0J-70000D01*
G01*
X63077000Y96576712D01*
G75*
G02*
X63007000Y96506712I-70000J0D01*
G01*
X62447000Y96506712D01*
G75*
G02*
X62377000Y96576712I0J70000D01*
G01*
G37*
G04 #@! TD*
G04 #@! TO.C,R18*
G36*
G01*
X120629500Y95725000D02*
X121409500Y95725000D01*
G75*
G02*
X121479500Y95655000I0J-70000D01*
G01*
X121479500Y95095000D01*
G75*
G02*
X121409500Y95025000I-70000J0D01*
G01*
X120629500Y95025000D01*
G75*
G02*
X120559500Y95095000I0J70000D01*
G01*
X120559500Y95655000D01*
G75*
G02*
X120629500Y95725000I70000J0D01*
G01*
G37*
G36*
G01*
X120629500Y94125000D02*
X121409500Y94125000D01*
G75*
G02*
X121479500Y94055000I0J-70000D01*
G01*
X121479500Y93495000D01*
G75*
G02*
X121409500Y93425000I-70000J0D01*
G01*
X120629500Y93425000D01*
G75*
G02*
X120559500Y93495000I0J70000D01*
G01*
X120559500Y94055000D01*
G75*
G02*
X120629500Y94125000I70000J0D01*
G01*
G37*
G04 #@! TD*
G04 #@! TO.C,L1*
G36*
G01*
X102644977Y36221250D02*
X102644977Y35708750D01*
G75*
G02*
X102426227Y35490000I-218750J0D01*
G01*
X101988727Y35490000D01*
G75*
G02*
X101769977Y35708750I0J218750D01*
G01*
X101769977Y36221250D01*
G75*
G02*
X101988727Y36440000I218750J0D01*
G01*
X102426227Y36440000D01*
G75*
G02*
X102644977Y36221250I0J-218750D01*
G01*
G37*
G36*
G01*
X101069977Y36221250D02*
X101069977Y35708750D01*
G75*
G02*
X100851227Y35490000I-218750J0D01*
G01*
X100413727Y35490000D01*
G75*
G02*
X100194977Y35708750I0J218750D01*
G01*
X100194977Y36221250D01*
G75*
G02*
X100413727Y36440000I218750J0D01*
G01*
X100851227Y36440000D01*
G75*
G02*
X101069977Y36221250I0J-218750D01*
G01*
G37*
G04 #@! TD*
G04 #@! TO.C,Q11*
G36*
G01*
X99694500Y96450000D02*
X98994500Y96450000D01*
G75*
G02*
X98744500Y96700000I0J250000D01*
G01*
X98744500Y98400000D01*
G75*
G02*
X98994500Y98650000I250000J0D01*
G01*
X99694500Y98650000D01*
G75*
G02*
X99944500Y98400000I0J-250000D01*
G01*
X99944500Y96700000D01*
G75*
G02*
X99694500Y96450000I-250000J0D01*
G01*
G37*
G36*
G01*
X101224500Y100650000D02*
X98974500Y100650000D01*
G75*
G02*
X98724500Y100900000I0J250000D01*
G01*
X98724500Y103450000D01*
G75*
G02*
X98974500Y103700000I250000J0D01*
G01*
X101224500Y103700000D01*
G75*
G02*
X101474500Y103450000I0J-250000D01*
G01*
X101474500Y100900000D01*
G75*
G02*
X101224500Y100650000I-250000J0D01*
G01*
G37*
G36*
G01*
X104274500Y100650000D02*
X102024500Y100650000D01*
G75*
G02*
X101774500Y100900000I0J250000D01*
G01*
X101774500Y103450000D01*
G75*
G02*
X102024500Y103700000I250000J0D01*
G01*
X104274500Y103700000D01*
G75*
G02*
X104524500Y103450000I0J-250000D01*
G01*
X104524500Y100900000D01*
G75*
G02*
X104274500Y100650000I-250000J0D01*
G01*
G37*
G36*
G01*
X101224500Y104000000D02*
X98974500Y104000000D01*
G75*
G02*
X98724500Y104250000I0J250000D01*
G01*
X98724500Y106800000D01*
G75*
G02*
X98974500Y107050000I250000J0D01*
G01*
X101224500Y107050000D01*
G75*
G02*
X101474500Y106800000I0J-250000D01*
G01*
X101474500Y104250000D01*
G75*
G02*
X101224500Y104000000I-250000J0D01*
G01*
G37*
G36*
G01*
X104274500Y104000000D02*
X102024500Y104000000D01*
G75*
G02*
X101774500Y104250000I0J250000D01*
G01*
X101774500Y106800000D01*
G75*
G02*
X102024500Y107050000I250000J0D01*
G01*
X104274500Y107050000D01*
G75*
G02*
X104524500Y106800000I0J-250000D01*
G01*
X104524500Y104250000D01*
G75*
G02*
X104274500Y104000000I-250000J0D01*
G01*
G37*
G36*
G01*
X104254500Y96450000D02*
X103554500Y96450000D01*
G75*
G02*
X103304500Y96700000I0J250000D01*
G01*
X103304500Y98400000D01*
G75*
G02*
X103554500Y98650000I250000J0D01*
G01*
X104254500Y98650000D01*
G75*
G02*
X104504500Y98400000I0J-250000D01*
G01*
X104504500Y96700000D01*
G75*
G02*
X104254500Y96450000I-250000J0D01*
G01*
G37*
G04 #@! TD*
D16*
G04 #@! TO.C,J9*
X26430000Y8207000D03*
X27230000Y8207000D03*
X28530000Y8207000D03*
X29530000Y8207000D03*
X30030000Y8207000D03*
X31030000Y8207000D03*
X32330000Y8207000D03*
X33130000Y8207000D03*
X32830000Y8207000D03*
X32030000Y8207000D03*
X31530000Y8207000D03*
X30530000Y8207000D03*
X29030000Y8207000D03*
X28030000Y8207000D03*
X27530000Y8207000D03*
X26730000Y8207000D03*
G04 #@! TD*
G04 #@! TO.C,F2*
G36*
G01*
X23327000Y68430010D02*
X23327000Y69120010D01*
G75*
G02*
X23557000Y69350010I230000J0D01*
G01*
X24897000Y69350010D01*
G75*
G02*
X25127000Y69120010I0J-230000D01*
G01*
X25127000Y68430010D01*
G75*
G02*
X24897000Y68200010I-230000J0D01*
G01*
X23557000Y68200010D01*
G75*
G02*
X23327000Y68430010I0J230000D01*
G01*
G37*
G36*
G01*
X23327000Y65529990D02*
X23327000Y66219990D01*
G75*
G02*
X23557000Y66449990I230000J0D01*
G01*
X24897000Y66449990D01*
G75*
G02*
X25127000Y66219990I0J-230000D01*
G01*
X25127000Y65529990D01*
G75*
G02*
X24897000Y65299990I-230000J0D01*
G01*
X23557000Y65299990D01*
G75*
G02*
X23327000Y65529990I0J230000D01*
G01*
G37*
G04 #@! TD*
G04 #@! TO.C,R12*
G36*
G01*
X22109500Y96394144D02*
X22109500Y95614144D01*
G75*
G02*
X22039500Y95544144I-70000J0D01*
G01*
X21479500Y95544144D01*
G75*
G02*
X21409500Y95614144I0J70000D01*
G01*
X21409500Y96394144D01*
G75*
G02*
X21479500Y96464144I70000J0D01*
G01*
X22039500Y96464144D01*
G75*
G02*
X22109500Y96394144I0J-70000D01*
G01*
G37*
G36*
G01*
X20509500Y96394144D02*
X20509500Y95614144D01*
G75*
G02*
X20439500Y95544144I-70000J0D01*
G01*
X19879500Y95544144D01*
G75*
G02*
X19809500Y95614144I0J70000D01*
G01*
X19809500Y96394144D01*
G75*
G02*
X19879500Y96464144I70000J0D01*
G01*
X20439500Y96464144D01*
G75*
G02*
X20509500Y96394144I0J-70000D01*
G01*
G37*
G04 #@! TD*
G04 #@! TO.C,R2*
G36*
G01*
X28132000Y70725000D02*
X28912000Y70725000D01*
G75*
G02*
X28982000Y70655000I0J-70000D01*
G01*
X28982000Y70095000D01*
G75*
G02*
X28912000Y70025000I-70000J0D01*
G01*
X28132000Y70025000D01*
G75*
G02*
X28062000Y70095000I0J70000D01*
G01*
X28062000Y70655000D01*
G75*
G02*
X28132000Y70725000I70000J0D01*
G01*
G37*
G36*
G01*
X28132000Y69125000D02*
X28912000Y69125000D01*
G75*
G02*
X28982000Y69055000I0J-70000D01*
G01*
X28982000Y68495000D01*
G75*
G02*
X28912000Y68425000I-70000J0D01*
G01*
X28132000Y68425000D01*
G75*
G02*
X28062000Y68495000I0J70000D01*
G01*
X28062000Y69055000D01*
G75*
G02*
X28132000Y69125000I70000J0D01*
G01*
G37*
G04 #@! TD*
G04 #@! TO.C,R14*
G36*
G01*
X11982000Y63250000D02*
X12762000Y63250000D01*
G75*
G02*
X12832000Y63180000I0J-70000D01*
G01*
X12832000Y62620000D01*
G75*
G02*
X12762000Y62550000I-70000J0D01*
G01*
X11982000Y62550000D01*
G75*
G02*
X11912000Y62620000I0J70000D01*
G01*
X11912000Y63180000D01*
G75*
G02*
X11982000Y63250000I70000J0D01*
G01*
G37*
G36*
G01*
X11982000Y61650000D02*
X12762000Y61650000D01*
G75*
G02*
X12832000Y61580000I0J-70000D01*
G01*
X12832000Y61020000D01*
G75*
G02*
X12762000Y60950000I-70000J0D01*
G01*
X11982000Y60950000D01*
G75*
G02*
X11912000Y61020000I0J70000D01*
G01*
X11912000Y61580000D01*
G75*
G02*
X11982000Y61650000I70000J0D01*
G01*
G37*
G04 #@! TD*
D17*
G04 #@! TO.C,U3*
X32487500Y32967000D03*
X22645000Y32967000D03*
X22645000Y34237000D03*
X22645000Y35507000D03*
X22645000Y36777000D03*
X32487500Y36777000D03*
X32487500Y35507000D03*
X32487500Y34237000D03*
G04 #@! TD*
G04 #@! TO.C,C12*
G36*
G01*
X17181999Y87660000D02*
X17181999Y88340000D01*
G75*
G02*
X17266999Y88425000I85000J0D01*
G01*
X17946999Y88425000D01*
G75*
G02*
X18031999Y88340000I0J-85000D01*
G01*
X18031999Y87660000D01*
G75*
G02*
X17946999Y87575000I-85000J0D01*
G01*
X17266999Y87575000D01*
G75*
G02*
X17181999Y87660000I0J85000D01*
G01*
G37*
G36*
G01*
X18762001Y87660000D02*
X18762001Y88340000D01*
G75*
G02*
X18847001Y88425000I85000J0D01*
G01*
X19527001Y88425000D01*
G75*
G02*
X19612001Y88340000I0J-85000D01*
G01*
X19612001Y87660000D01*
G75*
G02*
X19527001Y87575000I-85000J0D01*
G01*
X18847001Y87575000D01*
G75*
G02*
X18762001Y87660000I0J85000D01*
G01*
G37*
G04 #@! TD*
G04 #@! TO.C,U8*
G36*
G01*
X20417000Y97575000D02*
X20117000Y97575000D01*
G75*
G02*
X19967000Y97725000I0J150000D01*
G01*
X19967000Y99375000D01*
G75*
G02*
X20117000Y99525000I150000J0D01*
G01*
X20417000Y99525000D01*
G75*
G02*
X20567000Y99375000I0J-150000D01*
G01*
X20567000Y97725000D01*
G75*
G02*
X20417000Y97575000I-150000J0D01*
G01*
G37*
G36*
G01*
X21687000Y97575000D02*
X21387000Y97575000D01*
G75*
G02*
X21237000Y97725000I0J150000D01*
G01*
X21237000Y99375000D01*
G75*
G02*
X21387000Y99525000I150000J0D01*
G01*
X21687000Y99525000D01*
G75*
G02*
X21837000Y99375000I0J-150000D01*
G01*
X21837000Y97725000D01*
G75*
G02*
X21687000Y97575000I-150000J0D01*
G01*
G37*
G36*
G01*
X22957000Y97575000D02*
X22657000Y97575000D01*
G75*
G02*
X22507000Y97725000I0J150000D01*
G01*
X22507000Y99375000D01*
G75*
G02*
X22657000Y99525000I150000J0D01*
G01*
X22957000Y99525000D01*
G75*
G02*
X23107000Y99375000I0J-150000D01*
G01*
X23107000Y97725000D01*
G75*
G02*
X22957000Y97575000I-150000J0D01*
G01*
G37*
G36*
G01*
X24227000Y97575000D02*
X23927000Y97575000D01*
G75*
G02*
X23777000Y97725000I0J150000D01*
G01*
X23777000Y99375000D01*
G75*
G02*
X23927000Y99525000I150000J0D01*
G01*
X24227000Y99525000D01*
G75*
G02*
X24377000Y99375000I0J-150000D01*
G01*
X24377000Y97725000D01*
G75*
G02*
X24227000Y97575000I-150000J0D01*
G01*
G37*
G36*
G01*
X24227000Y102525000D02*
X23927000Y102525000D01*
G75*
G02*
X23777000Y102675000I0J150000D01*
G01*
X23777000Y104325000D01*
G75*
G02*
X23927000Y104475000I150000J0D01*
G01*
X24227000Y104475000D01*
G75*
G02*
X24377000Y104325000I0J-150000D01*
G01*
X24377000Y102675000D01*
G75*
G02*
X24227000Y102525000I-150000J0D01*
G01*
G37*
G36*
G01*
X22957000Y102525000D02*
X22657000Y102525000D01*
G75*
G02*
X22507000Y102675000I0J150000D01*
G01*
X22507000Y104325000D01*
G75*
G02*
X22657000Y104475000I150000J0D01*
G01*
X22957000Y104475000D01*
G75*
G02*
X23107000Y104325000I0J-150000D01*
G01*
X23107000Y102675000D01*
G75*
G02*
X22957000Y102525000I-150000J0D01*
G01*
G37*
G36*
G01*
X21687000Y102525000D02*
X21387000Y102525000D01*
G75*
G02*
X21237000Y102675000I0J150000D01*
G01*
X21237000Y104325000D01*
G75*
G02*
X21387000Y104475000I150000J0D01*
G01*
X21687000Y104475000D01*
G75*
G02*
X21837000Y104325000I0J-150000D01*
G01*
X21837000Y102675000D01*
G75*
G02*
X21687000Y102525000I-150000J0D01*
G01*
G37*
G36*
G01*
X20417000Y102525000D02*
X20117000Y102525000D01*
G75*
G02*
X19967000Y102675000I0J150000D01*
G01*
X19967000Y104325000D01*
G75*
G02*
X20117000Y104475000I150000J0D01*
G01*
X20417000Y104475000D01*
G75*
G02*
X20567000Y104325000I0J-150000D01*
G01*
X20567000Y102675000D01*
G75*
G02*
X20417000Y102525000I-150000J0D01*
G01*
G37*
G04 #@! TD*
M02*
