G04 #@! TF.GenerationSoftware,KiCad,Pcbnew,8.0.2-8.0.2-0~ubuntu22.04.1*
G04 #@! TF.CreationDate,2024-05-08T22:41:19+00:00*
G04 #@! TF.ProjectId,uaefi,75616566-692e-46b6-9963-61645f706362,C*
G04 #@! TF.SameCoordinates,Original*
G04 #@! TF.FileFunction,Paste,Bot*
G04 #@! TF.FilePolarity,Positive*
%FSLAX46Y46*%
G04 Gerber Fmt 4.6, Leading zero omitted, Abs format (unit mm)*
G04 Created by KiCad (PCBNEW 8.0.2-8.0.2-0~ubuntu22.04.1) date 2024-05-08 22:41:19*
%MOMM*%
%LPD*%
G01*
G04 APERTURE LIST*
G04 APERTURE END LIST*
G04 #@! TO.C,C10*
G36*
G01*
X17635000Y94825000D02*
X17635000Y95875000D01*
G75*
G02*
X17735000Y95975000I100000J0D01*
G01*
X18535000Y95975000D01*
G75*
G02*
X18635000Y95875000I0J-100000D01*
G01*
X18635000Y94825000D01*
G75*
G02*
X18535000Y94725000I-100000J0D01*
G01*
X17735000Y94725000D01*
G75*
G02*
X17635000Y94825000I0J100000D01*
G01*
G37*
G36*
G01*
X19635000Y94825000D02*
X19635000Y95875000D01*
G75*
G02*
X19735000Y95975000I100000J0D01*
G01*
X20535000Y95975000D01*
G75*
G02*
X20635000Y95875000I0J-100000D01*
G01*
X20635000Y94825000D01*
G75*
G02*
X20535000Y94725000I-100000J0D01*
G01*
X19735000Y94725000D01*
G75*
G02*
X19635000Y94825000I0J100000D01*
G01*
G37*
G04 #@! TD*
G04 #@! TO.C,D4*
G36*
G01*
X16510000Y121725000D02*
X15490000Y121725000D01*
G75*
G02*
X15400000Y121815000I0J90000D01*
G01*
X15400000Y122535000D01*
G75*
G02*
X15490000Y122625000I90000J0D01*
G01*
X16510000Y122625000D01*
G75*
G02*
X16600000Y122535000I0J-90000D01*
G01*
X16600000Y121815000D01*
G75*
G02*
X16510000Y121725000I-90000J0D01*
G01*
G37*
G36*
G01*
X16510000Y125025000D02*
X15490000Y125025000D01*
G75*
G02*
X15400000Y125115000I0J90000D01*
G01*
X15400000Y125835000D01*
G75*
G02*
X15490000Y125925000I90000J0D01*
G01*
X16510000Y125925000D01*
G75*
G02*
X16600000Y125835000I0J-90000D01*
G01*
X16600000Y125115000D01*
G75*
G02*
X16510000Y125025000I-90000J0D01*
G01*
G37*
G04 #@! TD*
G04 #@! TO.C,C7*
G36*
G01*
X17635000Y100825000D02*
X17635000Y101875000D01*
G75*
G02*
X17735000Y101975000I100000J0D01*
G01*
X18535000Y101975000D01*
G75*
G02*
X18635000Y101875000I0J-100000D01*
G01*
X18635000Y100825000D01*
G75*
G02*
X18535000Y100725000I-100000J0D01*
G01*
X17735000Y100725000D01*
G75*
G02*
X17635000Y100825000I0J100000D01*
G01*
G37*
G36*
G01*
X19635000Y100825000D02*
X19635000Y101875000D01*
G75*
G02*
X19735000Y101975000I100000J0D01*
G01*
X20535000Y101975000D01*
G75*
G02*
X20635000Y101875000I0J-100000D01*
G01*
X20635000Y100825000D01*
G75*
G02*
X20535000Y100725000I-100000J0D01*
G01*
X19735000Y100725000D01*
G75*
G02*
X19635000Y100825000I0J100000D01*
G01*
G37*
G04 #@! TD*
G04 #@! TO.C,C17*
G36*
G01*
X14800000Y87725000D02*
X14800000Y86675000D01*
G75*
G02*
X14700000Y86575000I-100000J0D01*
G01*
X13900000Y86575000D01*
G75*
G02*
X13800000Y86675000I0J100000D01*
G01*
X13800000Y87725000D01*
G75*
G02*
X13900000Y87825000I100000J0D01*
G01*
X14700000Y87825000D01*
G75*
G02*
X14800000Y87725000I0J-100000D01*
G01*
G37*
G36*
G01*
X12800000Y87725000D02*
X12800000Y86675000D01*
G75*
G02*
X12700000Y86575000I-100000J0D01*
G01*
X11900000Y86575000D01*
G75*
G02*
X11800000Y86675000I0J100000D01*
G01*
X11800000Y87725000D01*
G75*
G02*
X11900000Y87825000I100000J0D01*
G01*
X12700000Y87825000D01*
G75*
G02*
X12800000Y87725000I0J-100000D01*
G01*
G37*
G04 #@! TD*
G04 #@! TO.C,C3*
G36*
G01*
X24635000Y99875000D02*
X24635000Y98825000D01*
G75*
G02*
X24535000Y98725000I-100000J0D01*
G01*
X23735000Y98725000D01*
G75*
G02*
X23635000Y98825000I0J100000D01*
G01*
X23635000Y99875000D01*
G75*
G02*
X23735000Y99975000I100000J0D01*
G01*
X24535000Y99975000D01*
G75*
G02*
X24635000Y99875000I0J-100000D01*
G01*
G37*
G36*
G01*
X22635000Y99875000D02*
X22635000Y98825000D01*
G75*
G02*
X22535000Y98725000I-100000J0D01*
G01*
X21735000Y98725000D01*
G75*
G02*
X21635000Y98825000I0J100000D01*
G01*
X21635000Y99875000D01*
G75*
G02*
X21735000Y99975000I100000J0D01*
G01*
X22535000Y99975000D01*
G75*
G02*
X22635000Y99875000I0J-100000D01*
G01*
G37*
G04 #@! TD*
G04 #@! TO.C,C23*
G36*
G01*
X7800000Y84675000D02*
X7800000Y85725000D01*
G75*
G02*
X7900000Y85825000I100000J0D01*
G01*
X8700000Y85825000D01*
G75*
G02*
X8800000Y85725000I0J-100000D01*
G01*
X8800000Y84675000D01*
G75*
G02*
X8700000Y84575000I-100000J0D01*
G01*
X7900000Y84575000D01*
G75*
G02*
X7800000Y84675000I0J100000D01*
G01*
G37*
G36*
G01*
X9800000Y84675000D02*
X9800000Y85725000D01*
G75*
G02*
X9900000Y85825000I100000J0D01*
G01*
X10700000Y85825000D01*
G75*
G02*
X10800000Y85725000I0J-100000D01*
G01*
X10800000Y84675000D01*
G75*
G02*
X10700000Y84575000I-100000J0D01*
G01*
X9900000Y84575000D01*
G75*
G02*
X9800000Y84675000I0J100000D01*
G01*
G37*
G04 #@! TD*
G04 #@! TO.C,C1*
G36*
G01*
X24635000Y103875000D02*
X24635000Y102825000D01*
G75*
G02*
X24535000Y102725000I-100000J0D01*
G01*
X23735000Y102725000D01*
G75*
G02*
X23635000Y102825000I0J100000D01*
G01*
X23635000Y103875000D01*
G75*
G02*
X23735000Y103975000I100000J0D01*
G01*
X24535000Y103975000D01*
G75*
G02*
X24635000Y103875000I0J-100000D01*
G01*
G37*
G36*
G01*
X22635000Y103875000D02*
X22635000Y102825000D01*
G75*
G02*
X22535000Y102725000I-100000J0D01*
G01*
X21735000Y102725000D01*
G75*
G02*
X21635000Y102825000I0J100000D01*
G01*
X21635000Y103875000D01*
G75*
G02*
X21735000Y103975000I100000J0D01*
G01*
X22535000Y103975000D01*
G75*
G02*
X22635000Y103875000I0J-100000D01*
G01*
G37*
G04 #@! TD*
G04 #@! TO.C,C14*
G36*
G01*
X14800000Y93725000D02*
X14800000Y92675000D01*
G75*
G02*
X14700000Y92575000I-100000J0D01*
G01*
X13900000Y92575000D01*
G75*
G02*
X13800000Y92675000I0J100000D01*
G01*
X13800000Y93725000D01*
G75*
G02*
X13900000Y93825000I100000J0D01*
G01*
X14700000Y93825000D01*
G75*
G02*
X14800000Y93725000I0J-100000D01*
G01*
G37*
G36*
G01*
X12800000Y93725000D02*
X12800000Y92675000D01*
G75*
G02*
X12700000Y92575000I-100000J0D01*
G01*
X11900000Y92575000D01*
G75*
G02*
X11800000Y92675000I0J100000D01*
G01*
X11800000Y93725000D01*
G75*
G02*
X11900000Y93825000I100000J0D01*
G01*
X12700000Y93825000D01*
G75*
G02*
X12800000Y93725000I0J-100000D01*
G01*
G37*
G04 #@! TD*
G04 #@! TO.C,C19*
G36*
G01*
X7800000Y92675000D02*
X7800000Y93725000D01*
G75*
G02*
X7900000Y93825000I100000J0D01*
G01*
X8700000Y93825000D01*
G75*
G02*
X8800000Y93725000I0J-100000D01*
G01*
X8800000Y92675000D01*
G75*
G02*
X8700000Y92575000I-100000J0D01*
G01*
X7900000Y92575000D01*
G75*
G02*
X7800000Y92675000I0J100000D01*
G01*
G37*
G36*
G01*
X9800000Y92675000D02*
X9800000Y93725000D01*
G75*
G02*
X9900000Y93825000I100000J0D01*
G01*
X10700000Y93825000D01*
G75*
G02*
X10800000Y93725000I0J-100000D01*
G01*
X10800000Y92675000D01*
G75*
G02*
X10700000Y92575000I-100000J0D01*
G01*
X9900000Y92575000D01*
G75*
G02*
X9800000Y92675000I0J100000D01*
G01*
G37*
G04 #@! TD*
G04 #@! TO.C,C4*
G36*
G01*
X24635000Y97875000D02*
X24635000Y96825000D01*
G75*
G02*
X24535000Y96725000I-100000J0D01*
G01*
X23735000Y96725000D01*
G75*
G02*
X23635000Y96825000I0J100000D01*
G01*
X23635000Y97875000D01*
G75*
G02*
X23735000Y97975000I100000J0D01*
G01*
X24535000Y97975000D01*
G75*
G02*
X24635000Y97875000I0J-100000D01*
G01*
G37*
G36*
G01*
X22635000Y97875000D02*
X22635000Y96825000D01*
G75*
G02*
X22535000Y96725000I-100000J0D01*
G01*
X21735000Y96725000D01*
G75*
G02*
X21635000Y96825000I0J100000D01*
G01*
X21635000Y97875000D01*
G75*
G02*
X21735000Y97975000I100000J0D01*
G01*
X22535000Y97975000D01*
G75*
G02*
X22635000Y97875000I0J-100000D01*
G01*
G37*
G04 #@! TD*
G04 #@! TO.C,D2*
G36*
G01*
X23210000Y121725000D02*
X22190000Y121725000D01*
G75*
G02*
X22100000Y121815000I0J90000D01*
G01*
X22100000Y122535000D01*
G75*
G02*
X22190000Y122625000I90000J0D01*
G01*
X23210000Y122625000D01*
G75*
G02*
X23300000Y122535000I0J-90000D01*
G01*
X23300000Y121815000D01*
G75*
G02*
X23210000Y121725000I-90000J0D01*
G01*
G37*
G36*
G01*
X23210000Y125025000D02*
X22190000Y125025000D01*
G75*
G02*
X22100000Y125115000I0J90000D01*
G01*
X22100000Y125835000D01*
G75*
G02*
X22190000Y125925000I90000J0D01*
G01*
X23210000Y125925000D01*
G75*
G02*
X23300000Y125835000I0J-90000D01*
G01*
X23300000Y125115000D01*
G75*
G02*
X23210000Y125025000I-90000J0D01*
G01*
G37*
G04 #@! TD*
G04 #@! TO.C,C21*
G36*
G01*
X7800000Y88675000D02*
X7800000Y89725000D01*
G75*
G02*
X7900000Y89825000I100000J0D01*
G01*
X8700000Y89825000D01*
G75*
G02*
X8800000Y89725000I0J-100000D01*
G01*
X8800000Y88675000D01*
G75*
G02*
X8700000Y88575000I-100000J0D01*
G01*
X7900000Y88575000D01*
G75*
G02*
X7800000Y88675000I0J100000D01*
G01*
G37*
G36*
G01*
X9800000Y88675000D02*
X9800000Y89725000D01*
G75*
G02*
X9900000Y89825000I100000J0D01*
G01*
X10700000Y89825000D01*
G75*
G02*
X10800000Y89725000I0J-100000D01*
G01*
X10800000Y88675000D01*
G75*
G02*
X10700000Y88575000I-100000J0D01*
G01*
X9900000Y88575000D01*
G75*
G02*
X9800000Y88675000I0J100000D01*
G01*
G37*
G04 #@! TD*
G04 #@! TO.C,C16*
G36*
G01*
X14800000Y89725000D02*
X14800000Y88675000D01*
G75*
G02*
X14700000Y88575000I-100000J0D01*
G01*
X13900000Y88575000D01*
G75*
G02*
X13800000Y88675000I0J100000D01*
G01*
X13800000Y89725000D01*
G75*
G02*
X13900000Y89825000I100000J0D01*
G01*
X14700000Y89825000D01*
G75*
G02*
X14800000Y89725000I0J-100000D01*
G01*
G37*
G36*
G01*
X12800000Y89725000D02*
X12800000Y88675000D01*
G75*
G02*
X12700000Y88575000I-100000J0D01*
G01*
X11900000Y88575000D01*
G75*
G02*
X11800000Y88675000I0J100000D01*
G01*
X11800000Y89725000D01*
G75*
G02*
X11900000Y89825000I100000J0D01*
G01*
X12700000Y89825000D01*
G75*
G02*
X12800000Y89725000I0J-100000D01*
G01*
G37*
G04 #@! TD*
G04 #@! TO.C,C22*
G36*
G01*
X7800000Y86675000D02*
X7800000Y87725000D01*
G75*
G02*
X7900000Y87825000I100000J0D01*
G01*
X8700000Y87825000D01*
G75*
G02*
X8800000Y87725000I0J-100000D01*
G01*
X8800000Y86675000D01*
G75*
G02*
X8700000Y86575000I-100000J0D01*
G01*
X7900000Y86575000D01*
G75*
G02*
X7800000Y86675000I0J100000D01*
G01*
G37*
G36*
G01*
X9800000Y86675000D02*
X9800000Y87725000D01*
G75*
G02*
X9900000Y87825000I100000J0D01*
G01*
X10700000Y87825000D01*
G75*
G02*
X10800000Y87725000I0J-100000D01*
G01*
X10800000Y86675000D01*
G75*
G02*
X10700000Y86575000I-100000J0D01*
G01*
X9900000Y86575000D01*
G75*
G02*
X9800000Y86675000I0J100000D01*
G01*
G37*
G04 #@! TD*
G04 #@! TO.C,D3*
G36*
G01*
X26535000Y121725000D02*
X25515000Y121725000D01*
G75*
G02*
X25425000Y121815000I0J90000D01*
G01*
X25425000Y122535000D01*
G75*
G02*
X25515000Y122625000I90000J0D01*
G01*
X26535000Y122625000D01*
G75*
G02*
X26625000Y122535000I0J-90000D01*
G01*
X26625000Y121815000D01*
G75*
G02*
X26535000Y121725000I-90000J0D01*
G01*
G37*
G36*
G01*
X26535000Y125025000D02*
X25515000Y125025000D01*
G75*
G02*
X25425000Y125115000I0J90000D01*
G01*
X25425000Y125835000D01*
G75*
G02*
X25515000Y125925000I90000J0D01*
G01*
X26535000Y125925000D01*
G75*
G02*
X26625000Y125835000I0J-90000D01*
G01*
X26625000Y125115000D01*
G75*
G02*
X26535000Y125025000I-90000J0D01*
G01*
G37*
G04 #@! TD*
G04 #@! TO.C,C5*
G36*
G01*
X24635000Y95875000D02*
X24635000Y94825000D01*
G75*
G02*
X24535000Y94725000I-100000J0D01*
G01*
X23735000Y94725000D01*
G75*
G02*
X23635000Y94825000I0J100000D01*
G01*
X23635000Y95875000D01*
G75*
G02*
X23735000Y95975000I100000J0D01*
G01*
X24535000Y95975000D01*
G75*
G02*
X24635000Y95875000I0J-100000D01*
G01*
G37*
G36*
G01*
X22635000Y95875000D02*
X22635000Y94825000D01*
G75*
G02*
X22535000Y94725000I-100000J0D01*
G01*
X21735000Y94725000D01*
G75*
G02*
X21635000Y94825000I0J100000D01*
G01*
X21635000Y95875000D01*
G75*
G02*
X21735000Y95975000I100000J0D01*
G01*
X22535000Y95975000D01*
G75*
G02*
X22635000Y95875000I0J-100000D01*
G01*
G37*
G04 #@! TD*
G04 #@! TO.C,C15*
G36*
G01*
X14800000Y91725000D02*
X14800000Y90675000D01*
G75*
G02*
X14700000Y90575000I-100000J0D01*
G01*
X13900000Y90575000D01*
G75*
G02*
X13800000Y90675000I0J100000D01*
G01*
X13800000Y91725000D01*
G75*
G02*
X13900000Y91825000I100000J0D01*
G01*
X14700000Y91825000D01*
G75*
G02*
X14800000Y91725000I0J-100000D01*
G01*
G37*
G36*
G01*
X12800000Y91725000D02*
X12800000Y90675000D01*
G75*
G02*
X12700000Y90575000I-100000J0D01*
G01*
X11900000Y90575000D01*
G75*
G02*
X11800000Y90675000I0J100000D01*
G01*
X11800000Y91725000D01*
G75*
G02*
X11900000Y91825000I100000J0D01*
G01*
X12700000Y91825000D01*
G75*
G02*
X12800000Y91725000I0J-100000D01*
G01*
G37*
G04 #@! TD*
G04 #@! TO.C,C8*
G36*
G01*
X17635000Y98825000D02*
X17635000Y99875000D01*
G75*
G02*
X17735000Y99975000I100000J0D01*
G01*
X18535000Y99975000D01*
G75*
G02*
X18635000Y99875000I0J-100000D01*
G01*
X18635000Y98825000D01*
G75*
G02*
X18535000Y98725000I-100000J0D01*
G01*
X17735000Y98725000D01*
G75*
G02*
X17635000Y98825000I0J100000D01*
G01*
G37*
G36*
G01*
X19635000Y98825000D02*
X19635000Y99875000D01*
G75*
G02*
X19735000Y99975000I100000J0D01*
G01*
X20535000Y99975000D01*
G75*
G02*
X20635000Y99875000I0J-100000D01*
G01*
X20635000Y98825000D01*
G75*
G02*
X20535000Y98725000I-100000J0D01*
G01*
X19735000Y98725000D01*
G75*
G02*
X19635000Y98825000I0J100000D01*
G01*
G37*
G04 #@! TD*
G04 #@! TO.C,C9*
G36*
G01*
X17635000Y96825000D02*
X17635000Y97875000D01*
G75*
G02*
X17735000Y97975000I100000J0D01*
G01*
X18535000Y97975000D01*
G75*
G02*
X18635000Y97875000I0J-100000D01*
G01*
X18635000Y96825000D01*
G75*
G02*
X18535000Y96725000I-100000J0D01*
G01*
X17735000Y96725000D01*
G75*
G02*
X17635000Y96825000I0J100000D01*
G01*
G37*
G36*
G01*
X19635000Y96825000D02*
X19635000Y97875000D01*
G75*
G02*
X19735000Y97975000I100000J0D01*
G01*
X20535000Y97975000D01*
G75*
G02*
X20635000Y97875000I0J-100000D01*
G01*
X20635000Y96825000D01*
G75*
G02*
X20535000Y96725000I-100000J0D01*
G01*
X19735000Y96725000D01*
G75*
G02*
X19635000Y96825000I0J100000D01*
G01*
G37*
G04 #@! TD*
G04 #@! TO.C,C6*
G36*
G01*
X17635000Y102825000D02*
X17635000Y103875000D01*
G75*
G02*
X17735000Y103975000I100000J0D01*
G01*
X18535000Y103975000D01*
G75*
G02*
X18635000Y103875000I0J-100000D01*
G01*
X18635000Y102825000D01*
G75*
G02*
X18535000Y102725000I-100000J0D01*
G01*
X17735000Y102725000D01*
G75*
G02*
X17635000Y102825000I0J100000D01*
G01*
G37*
G36*
G01*
X19635000Y102825000D02*
X19635000Y103875000D01*
G75*
G02*
X19735000Y103975000I100000J0D01*
G01*
X20535000Y103975000D01*
G75*
G02*
X20635000Y103875000I0J-100000D01*
G01*
X20635000Y102825000D01*
G75*
G02*
X20535000Y102725000I-100000J0D01*
G01*
X19735000Y102725000D01*
G75*
G02*
X19635000Y102825000I0J100000D01*
G01*
G37*
G04 #@! TD*
G04 #@! TO.C,D5*
G36*
G01*
X19860000Y121725000D02*
X18840000Y121725000D01*
G75*
G02*
X18750000Y121815000I0J90000D01*
G01*
X18750000Y122535000D01*
G75*
G02*
X18840000Y122625000I90000J0D01*
G01*
X19860000Y122625000D01*
G75*
G02*
X19950000Y122535000I0J-90000D01*
G01*
X19950000Y121815000D01*
G75*
G02*
X19860000Y121725000I-90000J0D01*
G01*
G37*
G36*
G01*
X19860000Y125025000D02*
X18840000Y125025000D01*
G75*
G02*
X18750000Y125115000I0J90000D01*
G01*
X18750000Y125835000D01*
G75*
G02*
X18840000Y125925000I90000J0D01*
G01*
X19860000Y125925000D01*
G75*
G02*
X19950000Y125835000I0J-90000D01*
G01*
X19950000Y125115000D01*
G75*
G02*
X19860000Y125025000I-90000J0D01*
G01*
G37*
G04 #@! TD*
G04 #@! TO.C,C2*
G36*
G01*
X24635000Y101875000D02*
X24635000Y100825000D01*
G75*
G02*
X24535000Y100725000I-100000J0D01*
G01*
X23735000Y100725000D01*
G75*
G02*
X23635000Y100825000I0J100000D01*
G01*
X23635000Y101875000D01*
G75*
G02*
X23735000Y101975000I100000J0D01*
G01*
X24535000Y101975000D01*
G75*
G02*
X24635000Y101875000I0J-100000D01*
G01*
G37*
G36*
G01*
X22635000Y101875000D02*
X22635000Y100825000D01*
G75*
G02*
X22535000Y100725000I-100000J0D01*
G01*
X21735000Y100725000D01*
G75*
G02*
X21635000Y100825000I0J100000D01*
G01*
X21635000Y101875000D01*
G75*
G02*
X21735000Y101975000I100000J0D01*
G01*
X22535000Y101975000D01*
G75*
G02*
X22635000Y101875000I0J-100000D01*
G01*
G37*
G04 #@! TD*
G04 #@! TO.C,C18*
G36*
G01*
X14800000Y85725000D02*
X14800000Y84675000D01*
G75*
G02*
X14700000Y84575000I-100000J0D01*
G01*
X13900000Y84575000D01*
G75*
G02*
X13800000Y84675000I0J100000D01*
G01*
X13800000Y85725000D01*
G75*
G02*
X13900000Y85825000I100000J0D01*
G01*
X14700000Y85825000D01*
G75*
G02*
X14800000Y85725000I0J-100000D01*
G01*
G37*
G36*
G01*
X12800000Y85725000D02*
X12800000Y84675000D01*
G75*
G02*
X12700000Y84575000I-100000J0D01*
G01*
X11900000Y84575000D01*
G75*
G02*
X11800000Y84675000I0J100000D01*
G01*
X11800000Y85725000D01*
G75*
G02*
X11900000Y85825000I100000J0D01*
G01*
X12700000Y85825000D01*
G75*
G02*
X12800000Y85725000I0J-100000D01*
G01*
G37*
G04 #@! TD*
G04 #@! TO.C,C20*
G36*
G01*
X7800000Y90675000D02*
X7800000Y91725000D01*
G75*
G02*
X7900000Y91825000I100000J0D01*
G01*
X8700000Y91825000D01*
G75*
G02*
X8800000Y91725000I0J-100000D01*
G01*
X8800000Y90675000D01*
G75*
G02*
X8700000Y90575000I-100000J0D01*
G01*
X7900000Y90575000D01*
G75*
G02*
X7800000Y90675000I0J100000D01*
G01*
G37*
G36*
G01*
X9800000Y90675000D02*
X9800000Y91725000D01*
G75*
G02*
X9900000Y91825000I100000J0D01*
G01*
X10700000Y91825000D01*
G75*
G02*
X10800000Y91725000I0J-100000D01*
G01*
X10800000Y90675000D01*
G75*
G02*
X10700000Y90575000I-100000J0D01*
G01*
X9900000Y90575000D01*
G75*
G02*
X9800000Y90675000I0J100000D01*
G01*
G37*
G04 #@! TD*
M02*
