G04 #@! TF.GenerationSoftware,KiCad,Pcbnew,8.0.2-8.0.2-0~ubuntu22.04.1*
G04 #@! TF.CreationDate,2024-05-08T22:41:19+00:00*
G04 #@! TF.ProjectId,uaefi,75616566-692e-46b6-9963-61645f706362,C*
G04 #@! TF.SameCoordinates,Original*
G04 #@! TF.FileFunction,Paste,Top*
G04 #@! TF.FilePolarity,Positive*
%FSLAX46Y46*%
G04 Gerber Fmt 4.6, Leading zero omitted, Abs format (unit mm)*
G04 Created by KiCad (PCBNEW 8.0.2-8.0.2-0~ubuntu22.04.1) date 2024-05-08 22:41:19*
%MOMM*%
%LPD*%
G01*
G04 APERTURE LIST*
%ADD10R,2.299995X4.399991*%
%ADD11R,2.299995X3.999992*%
%ADD12O,0.000001X0.000001*%
%ADD13R,1.300000X1.000000*%
%ADD14R,1.160000X1.950000*%
%ADD15R,0.650000X2.000000*%
%ADD16R,0.300000X1.150000*%
%ADD17R,1.350000X0.690000*%
G04 APERTURE END LIST*
G04 #@! TO.C,R40*
G36*
G01*
X90150001Y92725000D02*
X90150001Y91475000D01*
G75*
G02*
X90050001Y91375000I-100000J0D01*
G01*
X89250001Y91375000D01*
G75*
G02*
X89150001Y91475000I0J100000D01*
G01*
X89150001Y92725000D01*
G75*
G02*
X89250001Y92825000I100000J0D01*
G01*
X90050001Y92825000D01*
G75*
G02*
X90150001Y92725000I0J-100000D01*
G01*
G37*
G36*
G01*
X88249979Y92725000D02*
X88249979Y91475000D01*
G75*
G02*
X88149979Y91375000I-100000J0D01*
G01*
X87349979Y91375000D01*
G75*
G02*
X87249979Y91475000I0J100000D01*
G01*
X87249979Y92725000D01*
G75*
G02*
X87349979Y92825000I100000J0D01*
G01*
X88149979Y92825000D01*
G75*
G02*
X88249979Y92725000I0J-100000D01*
G01*
G37*
G04 #@! TD*
G04 #@! TO.C,D8*
G36*
G01*
X93493750Y37700000D02*
X93493750Y37400000D01*
G75*
G02*
X93343750Y37250000I-150000J0D01*
G01*
X92168750Y37250000D01*
G75*
G02*
X92018750Y37400000I0J150000D01*
G01*
X92018750Y37700000D01*
G75*
G02*
X92168750Y37850000I150000J0D01*
G01*
X93343750Y37850000D01*
G75*
G02*
X93493750Y37700000I0J-150000D01*
G01*
G37*
G36*
G01*
X93493750Y39600000D02*
X93493750Y39300000D01*
G75*
G02*
X93343750Y39150000I-150000J0D01*
G01*
X92168750Y39150000D01*
G75*
G02*
X92018750Y39300000I0J150000D01*
G01*
X92018750Y39600000D01*
G75*
G02*
X92168750Y39750000I150000J0D01*
G01*
X93343750Y39750000D01*
G75*
G02*
X93493750Y39600000I0J-150000D01*
G01*
G37*
G36*
G01*
X91618750Y38650000D02*
X91618750Y38350000D01*
G75*
G02*
X91468750Y38200000I-150000J0D01*
G01*
X90293750Y38200000D01*
G75*
G02*
X90143750Y38350000I0J150000D01*
G01*
X90143750Y38650000D01*
G75*
G02*
X90293750Y38800000I150000J0D01*
G01*
X91468750Y38800000D01*
G75*
G02*
X91618750Y38650000I0J-150000D01*
G01*
G37*
G04 #@! TD*
G04 #@! TO.C,U7*
G36*
G01*
X27352500Y115575000D02*
X27052500Y115575000D01*
G75*
G02*
X26902500Y115725000I0J150000D01*
G01*
X26902500Y117375000D01*
G75*
G02*
X27052500Y117525000I150000J0D01*
G01*
X27352500Y117525000D01*
G75*
G02*
X27502500Y117375000I0J-150000D01*
G01*
X27502500Y115725000D01*
G75*
G02*
X27352500Y115575000I-150000J0D01*
G01*
G37*
G36*
G01*
X28622500Y115575000D02*
X28322500Y115575000D01*
G75*
G02*
X28172500Y115725000I0J150000D01*
G01*
X28172500Y117375000D01*
G75*
G02*
X28322500Y117525000I150000J0D01*
G01*
X28622500Y117525000D01*
G75*
G02*
X28772500Y117375000I0J-150000D01*
G01*
X28772500Y115725000D01*
G75*
G02*
X28622500Y115575000I-150000J0D01*
G01*
G37*
G36*
G01*
X29892500Y115575000D02*
X29592500Y115575000D01*
G75*
G02*
X29442500Y115725000I0J150000D01*
G01*
X29442500Y117375000D01*
G75*
G02*
X29592500Y117525000I150000J0D01*
G01*
X29892500Y117525000D01*
G75*
G02*
X30042500Y117375000I0J-150000D01*
G01*
X30042500Y115725000D01*
G75*
G02*
X29892500Y115575000I-150000J0D01*
G01*
G37*
G36*
G01*
X31162500Y115575000D02*
X30862500Y115575000D01*
G75*
G02*
X30712500Y115725000I0J150000D01*
G01*
X30712500Y117375000D01*
G75*
G02*
X30862500Y117525000I150000J0D01*
G01*
X31162500Y117525000D01*
G75*
G02*
X31312500Y117375000I0J-150000D01*
G01*
X31312500Y115725000D01*
G75*
G02*
X31162500Y115575000I-150000J0D01*
G01*
G37*
G36*
G01*
X31162500Y120525000D02*
X30862500Y120525000D01*
G75*
G02*
X30712500Y120675000I0J150000D01*
G01*
X30712500Y122325000D01*
G75*
G02*
X30862500Y122475000I150000J0D01*
G01*
X31162500Y122475000D01*
G75*
G02*
X31312500Y122325000I0J-150000D01*
G01*
X31312500Y120675000D01*
G75*
G02*
X31162500Y120525000I-150000J0D01*
G01*
G37*
G36*
G01*
X29892500Y120525000D02*
X29592500Y120525000D01*
G75*
G02*
X29442500Y120675000I0J150000D01*
G01*
X29442500Y122325000D01*
G75*
G02*
X29592500Y122475000I150000J0D01*
G01*
X29892500Y122475000D01*
G75*
G02*
X30042500Y122325000I0J-150000D01*
G01*
X30042500Y120675000D01*
G75*
G02*
X29892500Y120525000I-150000J0D01*
G01*
G37*
G36*
G01*
X28622500Y120525000D02*
X28322500Y120525000D01*
G75*
G02*
X28172500Y120675000I0J150000D01*
G01*
X28172500Y122325000D01*
G75*
G02*
X28322500Y122475000I150000J0D01*
G01*
X28622500Y122475000D01*
G75*
G02*
X28772500Y122325000I0J-150000D01*
G01*
X28772500Y120675000D01*
G75*
G02*
X28622500Y120525000I-150000J0D01*
G01*
G37*
G36*
G01*
X27352500Y120525000D02*
X27052500Y120525000D01*
G75*
G02*
X26902500Y120675000I0J150000D01*
G01*
X26902500Y122325000D01*
G75*
G02*
X27052500Y122475000I150000J0D01*
G01*
X27352500Y122475000D01*
G75*
G02*
X27502500Y122325000I0J-150000D01*
G01*
X27502500Y120675000D01*
G75*
G02*
X27352500Y120525000I-150000J0D01*
G01*
G37*
G04 #@! TD*
G04 #@! TO.C,C24*
G36*
G01*
X13710001Y96415000D02*
X13710001Y95735000D01*
G75*
G02*
X13625001Y95650000I-85000J0D01*
G01*
X12945001Y95650000D01*
G75*
G02*
X12860001Y95735000I0J85000D01*
G01*
X12860001Y96415000D01*
G75*
G02*
X12945001Y96500000I85000J0D01*
G01*
X13625001Y96500000D01*
G75*
G02*
X13710001Y96415000I0J-85000D01*
G01*
G37*
G36*
G01*
X12129999Y96415000D02*
X12129999Y95735000D01*
G75*
G02*
X12044999Y95650000I-85000J0D01*
G01*
X11364999Y95650000D01*
G75*
G02*
X11279999Y95735000I0J85000D01*
G01*
X11279999Y96415000D01*
G75*
G02*
X11364999Y96500000I85000J0D01*
G01*
X12044999Y96500000D01*
G75*
G02*
X12129999Y96415000I0J-85000D01*
G01*
G37*
G04 #@! TD*
G04 #@! TO.C,R39*
G36*
G01*
X90150001Y90225000D02*
X90150001Y88975000D01*
G75*
G02*
X90050001Y88875000I-100000J0D01*
G01*
X89250001Y88875000D01*
G75*
G02*
X89150001Y88975000I0J100000D01*
G01*
X89150001Y90225000D01*
G75*
G02*
X89250001Y90325000I100000J0D01*
G01*
X90050001Y90325000D01*
G75*
G02*
X90150001Y90225000I0J-100000D01*
G01*
G37*
G36*
G01*
X88249979Y90225000D02*
X88249979Y88975000D01*
G75*
G02*
X88149979Y88875000I-100000J0D01*
G01*
X87349979Y88875000D01*
G75*
G02*
X87249979Y88975000I0J100000D01*
G01*
X87249979Y90225000D01*
G75*
G02*
X87349979Y90325000I100000J0D01*
G01*
X88149979Y90325000D01*
G75*
G02*
X88249979Y90225000I0J-100000D01*
G01*
G37*
G04 #@! TD*
G04 #@! TO.C,Q10*
G36*
G01*
X107922500Y114450000D02*
X107222500Y114450000D01*
G75*
G02*
X106972500Y114700000I0J250000D01*
G01*
X106972500Y116400000D01*
G75*
G02*
X107222500Y116650000I250000J0D01*
G01*
X107922500Y116650000D01*
G75*
G02*
X108172500Y116400000I0J-250000D01*
G01*
X108172500Y114700000D01*
G75*
G02*
X107922500Y114450000I-250000J0D01*
G01*
G37*
G36*
G01*
X109452500Y118650000D02*
X107202500Y118650000D01*
G75*
G02*
X106952500Y118900000I0J250000D01*
G01*
X106952500Y121450000D01*
G75*
G02*
X107202500Y121700000I250000J0D01*
G01*
X109452500Y121700000D01*
G75*
G02*
X109702500Y121450000I0J-250000D01*
G01*
X109702500Y118900000D01*
G75*
G02*
X109452500Y118650000I-250000J0D01*
G01*
G37*
G36*
G01*
X112502500Y118650000D02*
X110252500Y118650000D01*
G75*
G02*
X110002500Y118900000I0J250000D01*
G01*
X110002500Y121450000D01*
G75*
G02*
X110252500Y121700000I250000J0D01*
G01*
X112502500Y121700000D01*
G75*
G02*
X112752500Y121450000I0J-250000D01*
G01*
X112752500Y118900000D01*
G75*
G02*
X112502500Y118650000I-250000J0D01*
G01*
G37*
G36*
G01*
X109452500Y122000000D02*
X107202500Y122000000D01*
G75*
G02*
X106952500Y122250000I0J250000D01*
G01*
X106952500Y124800000D01*
G75*
G02*
X107202500Y125050000I250000J0D01*
G01*
X109452500Y125050000D01*
G75*
G02*
X109702500Y124800000I0J-250000D01*
G01*
X109702500Y122250000D01*
G75*
G02*
X109452500Y122000000I-250000J0D01*
G01*
G37*
G36*
G01*
X112502500Y122000000D02*
X110252500Y122000000D01*
G75*
G02*
X110002500Y122250000I0J250000D01*
G01*
X110002500Y124800000D01*
G75*
G02*
X110252500Y125050000I250000J0D01*
G01*
X112502500Y125050000D01*
G75*
G02*
X112752500Y124800000I0J-250000D01*
G01*
X112752500Y122250000D01*
G75*
G02*
X112502500Y122000000I-250000J0D01*
G01*
G37*
G36*
G01*
X112482500Y114450000D02*
X111782500Y114450000D01*
G75*
G02*
X111532500Y114700000I0J250000D01*
G01*
X111532500Y116400000D01*
G75*
G02*
X111782500Y116650000I250000J0D01*
G01*
X112482500Y116650000D01*
G75*
G02*
X112732500Y116400000I0J-250000D01*
G01*
X112732500Y114700000D01*
G75*
G02*
X112482500Y114450000I-250000J0D01*
G01*
G37*
G04 #@! TD*
G04 #@! TO.C,C27*
G36*
G01*
X34910000Y58080751D02*
X35590000Y58080751D01*
G75*
G02*
X35675000Y57995751I0J-85000D01*
G01*
X35675000Y57315751D01*
G75*
G02*
X35590000Y57230751I-85000J0D01*
G01*
X34910000Y57230751D01*
G75*
G02*
X34825000Y57315751I0J85000D01*
G01*
X34825000Y57995751D01*
G75*
G02*
X34910000Y58080751I85000J0D01*
G01*
G37*
G36*
G01*
X34910000Y56500749D02*
X35590000Y56500749D01*
G75*
G02*
X35675000Y56415749I0J-85000D01*
G01*
X35675000Y55735749D01*
G75*
G02*
X35590000Y55650749I-85000J0D01*
G01*
X34910000Y55650749D01*
G75*
G02*
X34825000Y55735749I0J85000D01*
G01*
X34825000Y56415749D01*
G75*
G02*
X34910000Y56500749I85000J0D01*
G01*
G37*
G04 #@! TD*
D10*
G04 #@! TO.C,BT1*
X87073500Y29450010D03*
D11*
X87073500Y13449991D03*
G04 #@! TD*
G04 #@! TO.C,U10*
G36*
G01*
X71925000Y116095856D02*
X71625000Y116095856D01*
G75*
G02*
X71475000Y116245856I0J150000D01*
G01*
X71475000Y117895856D01*
G75*
G02*
X71625000Y118045856I150000J0D01*
G01*
X71925000Y118045856D01*
G75*
G02*
X72075000Y117895856I0J-150000D01*
G01*
X72075000Y116245856D01*
G75*
G02*
X71925000Y116095856I-150000J0D01*
G01*
G37*
G36*
G01*
X73195000Y116095856D02*
X72895000Y116095856D01*
G75*
G02*
X72745000Y116245856I0J150000D01*
G01*
X72745000Y117895856D01*
G75*
G02*
X72895000Y118045856I150000J0D01*
G01*
X73195000Y118045856D01*
G75*
G02*
X73345000Y117895856I0J-150000D01*
G01*
X73345000Y116245856D01*
G75*
G02*
X73195000Y116095856I-150000J0D01*
G01*
G37*
G36*
G01*
X74465000Y116095856D02*
X74165000Y116095856D01*
G75*
G02*
X74015000Y116245856I0J150000D01*
G01*
X74015000Y117895856D01*
G75*
G02*
X74165000Y118045856I150000J0D01*
G01*
X74465000Y118045856D01*
G75*
G02*
X74615000Y117895856I0J-150000D01*
G01*
X74615000Y116245856D01*
G75*
G02*
X74465000Y116095856I-150000J0D01*
G01*
G37*
G36*
G01*
X75735000Y116095856D02*
X75435000Y116095856D01*
G75*
G02*
X75285000Y116245856I0J150000D01*
G01*
X75285000Y117895856D01*
G75*
G02*
X75435000Y118045856I150000J0D01*
G01*
X75735000Y118045856D01*
G75*
G02*
X75885000Y117895856I0J-150000D01*
G01*
X75885000Y116245856D01*
G75*
G02*
X75735000Y116095856I-150000J0D01*
G01*
G37*
G36*
G01*
X75735000Y121045856D02*
X75435000Y121045856D01*
G75*
G02*
X75285000Y121195856I0J150000D01*
G01*
X75285000Y122845856D01*
G75*
G02*
X75435000Y122995856I150000J0D01*
G01*
X75735000Y122995856D01*
G75*
G02*
X75885000Y122845856I0J-150000D01*
G01*
X75885000Y121195856D01*
G75*
G02*
X75735000Y121045856I-150000J0D01*
G01*
G37*
G36*
G01*
X74465000Y121045856D02*
X74165000Y121045856D01*
G75*
G02*
X74015000Y121195856I0J150000D01*
G01*
X74015000Y122845856D01*
G75*
G02*
X74165000Y122995856I150000J0D01*
G01*
X74465000Y122995856D01*
G75*
G02*
X74615000Y122845856I0J-150000D01*
G01*
X74615000Y121195856D01*
G75*
G02*
X74465000Y121045856I-150000J0D01*
G01*
G37*
G36*
G01*
X73195000Y121045856D02*
X72895000Y121045856D01*
G75*
G02*
X72745000Y121195856I0J150000D01*
G01*
X72745000Y122845856D01*
G75*
G02*
X72895000Y122995856I150000J0D01*
G01*
X73195000Y122995856D01*
G75*
G02*
X73345000Y122845856I0J-150000D01*
G01*
X73345000Y121195856D01*
G75*
G02*
X73195000Y121045856I-150000J0D01*
G01*
G37*
G36*
G01*
X71925000Y121045856D02*
X71625000Y121045856D01*
G75*
G02*
X71475000Y121195856I0J150000D01*
G01*
X71475000Y122845856D01*
G75*
G02*
X71625000Y122995856I150000J0D01*
G01*
X71925000Y122995856D01*
G75*
G02*
X72075000Y122845856I0J-150000D01*
G01*
X72075000Y121195856D01*
G75*
G02*
X71925000Y121045856I-150000J0D01*
G01*
G37*
G04 #@! TD*
G04 #@! TO.C,R31*
G36*
G01*
X69830000Y114576712D02*
X69830000Y115356712D01*
G75*
G02*
X69900000Y115426712I70000J0D01*
G01*
X70460000Y115426712D01*
G75*
G02*
X70530000Y115356712I0J-70000D01*
G01*
X70530000Y114576712D01*
G75*
G02*
X70460000Y114506712I-70000J0D01*
G01*
X69900000Y114506712D01*
G75*
G02*
X69830000Y114576712I0J70000D01*
G01*
G37*
G36*
G01*
X71430000Y114576712D02*
X71430000Y115356712D01*
G75*
G02*
X71500000Y115426712I70000J0D01*
G01*
X72060000Y115426712D01*
G75*
G02*
X72130000Y115356712I0J-70000D01*
G01*
X72130000Y114576712D01*
G75*
G02*
X72060000Y114506712I-70000J0D01*
G01*
X71500000Y114506712D01*
G75*
G02*
X71430000Y114576712I0J70000D01*
G01*
G37*
G04 #@! TD*
G04 #@! TO.C,C30*
G36*
G01*
X94496727Y41405002D02*
X95176727Y41405002D01*
G75*
G02*
X95261727Y41320002I0J-85000D01*
G01*
X95261727Y40640002D01*
G75*
G02*
X95176727Y40555002I-85000J0D01*
G01*
X94496727Y40555002D01*
G75*
G02*
X94411727Y40640002I0J85000D01*
G01*
X94411727Y41320002D01*
G75*
G02*
X94496727Y41405002I85000J0D01*
G01*
G37*
G36*
G01*
X94496727Y39825000D02*
X95176727Y39825000D01*
G75*
G02*
X95261727Y39740000I0J-85000D01*
G01*
X95261727Y39060000D01*
G75*
G02*
X95176727Y38975000I-85000J0D01*
G01*
X94496727Y38975000D01*
G75*
G02*
X94411727Y39060000I0J85000D01*
G01*
X94411727Y39740000D01*
G75*
G02*
X94496727Y39825000I85000J0D01*
G01*
G37*
G04 #@! TD*
G04 #@! TO.C,Q7*
G36*
G01*
X129612500Y114450000D02*
X128912500Y114450000D01*
G75*
G02*
X128662500Y114700000I0J250000D01*
G01*
X128662500Y116400000D01*
G75*
G02*
X128912500Y116650000I250000J0D01*
G01*
X129612500Y116650000D01*
G75*
G02*
X129862500Y116400000I0J-250000D01*
G01*
X129862500Y114700000D01*
G75*
G02*
X129612500Y114450000I-250000J0D01*
G01*
G37*
G36*
G01*
X131142500Y118650000D02*
X128892500Y118650000D01*
G75*
G02*
X128642500Y118900000I0J250000D01*
G01*
X128642500Y121450000D01*
G75*
G02*
X128892500Y121700000I250000J0D01*
G01*
X131142500Y121700000D01*
G75*
G02*
X131392500Y121450000I0J-250000D01*
G01*
X131392500Y118900000D01*
G75*
G02*
X131142500Y118650000I-250000J0D01*
G01*
G37*
G36*
G01*
X134192500Y118650000D02*
X131942500Y118650000D01*
G75*
G02*
X131692500Y118900000I0J250000D01*
G01*
X131692500Y121450000D01*
G75*
G02*
X131942500Y121700000I250000J0D01*
G01*
X134192500Y121700000D01*
G75*
G02*
X134442500Y121450000I0J-250000D01*
G01*
X134442500Y118900000D01*
G75*
G02*
X134192500Y118650000I-250000J0D01*
G01*
G37*
G36*
G01*
X131142500Y122000000D02*
X128892500Y122000000D01*
G75*
G02*
X128642500Y122250000I0J250000D01*
G01*
X128642500Y124800000D01*
G75*
G02*
X128892500Y125050000I250000J0D01*
G01*
X131142500Y125050000D01*
G75*
G02*
X131392500Y124800000I0J-250000D01*
G01*
X131392500Y122250000D01*
G75*
G02*
X131142500Y122000000I-250000J0D01*
G01*
G37*
G36*
G01*
X134192500Y122000000D02*
X131942500Y122000000D01*
G75*
G02*
X131692500Y122250000I0J250000D01*
G01*
X131692500Y124800000D01*
G75*
G02*
X131942500Y125050000I250000J0D01*
G01*
X134192500Y125050000D01*
G75*
G02*
X134442500Y124800000I0J-250000D01*
G01*
X134442500Y122250000D01*
G75*
G02*
X134192500Y122000000I-250000J0D01*
G01*
G37*
G36*
G01*
X134172500Y114450000D02*
X133472500Y114450000D01*
G75*
G02*
X133222500Y114700000I0J250000D01*
G01*
X133222500Y116400000D01*
G75*
G02*
X133472500Y116650000I250000J0D01*
G01*
X134172500Y116650000D01*
G75*
G02*
X134422500Y116400000I0J-250000D01*
G01*
X134422500Y114700000D01*
G75*
G02*
X134172500Y114450000I-250000J0D01*
G01*
G37*
G04 #@! TD*
G04 #@! TO.C,Q8*
G36*
G01*
X122382500Y114450000D02*
X121682500Y114450000D01*
G75*
G02*
X121432500Y114700000I0J250000D01*
G01*
X121432500Y116400000D01*
G75*
G02*
X121682500Y116650000I250000J0D01*
G01*
X122382500Y116650000D01*
G75*
G02*
X122632500Y116400000I0J-250000D01*
G01*
X122632500Y114700000D01*
G75*
G02*
X122382500Y114450000I-250000J0D01*
G01*
G37*
G36*
G01*
X123912500Y118650000D02*
X121662500Y118650000D01*
G75*
G02*
X121412500Y118900000I0J250000D01*
G01*
X121412500Y121450000D01*
G75*
G02*
X121662500Y121700000I250000J0D01*
G01*
X123912500Y121700000D01*
G75*
G02*
X124162500Y121450000I0J-250000D01*
G01*
X124162500Y118900000D01*
G75*
G02*
X123912500Y118650000I-250000J0D01*
G01*
G37*
G36*
G01*
X126962500Y118650000D02*
X124712500Y118650000D01*
G75*
G02*
X124462500Y118900000I0J250000D01*
G01*
X124462500Y121450000D01*
G75*
G02*
X124712500Y121700000I250000J0D01*
G01*
X126962500Y121700000D01*
G75*
G02*
X127212500Y121450000I0J-250000D01*
G01*
X127212500Y118900000D01*
G75*
G02*
X126962500Y118650000I-250000J0D01*
G01*
G37*
G36*
G01*
X123912500Y122000000D02*
X121662500Y122000000D01*
G75*
G02*
X121412500Y122250000I0J250000D01*
G01*
X121412500Y124800000D01*
G75*
G02*
X121662500Y125050000I250000J0D01*
G01*
X123912500Y125050000D01*
G75*
G02*
X124162500Y124800000I0J-250000D01*
G01*
X124162500Y122250000D01*
G75*
G02*
X123912500Y122000000I-250000J0D01*
G01*
G37*
G36*
G01*
X126962500Y122000000D02*
X124712500Y122000000D01*
G75*
G02*
X124462500Y122250000I0J250000D01*
G01*
X124462500Y124800000D01*
G75*
G02*
X124712500Y125050000I250000J0D01*
G01*
X126962500Y125050000D01*
G75*
G02*
X127212500Y124800000I0J-250000D01*
G01*
X127212500Y122250000D01*
G75*
G02*
X126962500Y122000000I-250000J0D01*
G01*
G37*
G36*
G01*
X126942500Y114450000D02*
X126242500Y114450000D01*
G75*
G02*
X125992500Y114700000I0J250000D01*
G01*
X125992500Y116400000D01*
G75*
G02*
X126242500Y116650000I250000J0D01*
G01*
X126942500Y116650000D01*
G75*
G02*
X127192500Y116400000I0J-250000D01*
G01*
X127192500Y114700000D01*
G75*
G02*
X126942500Y114450000I-250000J0D01*
G01*
G37*
G04 #@! TD*
G04 #@! TO.C,C26*
G36*
G01*
X7379999Y79910000D02*
X7379999Y80590000D01*
G75*
G02*
X7464999Y80675000I85000J0D01*
G01*
X8144999Y80675000D01*
G75*
G02*
X8229999Y80590000I0J-85000D01*
G01*
X8229999Y79910000D01*
G75*
G02*
X8144999Y79825000I-85000J0D01*
G01*
X7464999Y79825000D01*
G75*
G02*
X7379999Y79910000I0J85000D01*
G01*
G37*
G36*
G01*
X8960001Y79910000D02*
X8960001Y80590000D01*
G75*
G02*
X9045001Y80675000I85000J0D01*
G01*
X9725001Y80675000D01*
G75*
G02*
X9810001Y80590000I0J-85000D01*
G01*
X9810001Y79910000D01*
G75*
G02*
X9725001Y79825000I-85000J0D01*
G01*
X9045001Y79825000D01*
G75*
G02*
X8960001Y79910000I0J85000D01*
G01*
G37*
G04 #@! TD*
G04 #@! TO.C,C33*
G36*
G01*
X124935000Y26840001D02*
X125615000Y26840001D01*
G75*
G02*
X125700000Y26755001I0J-85000D01*
G01*
X125700000Y26075001D01*
G75*
G02*
X125615000Y25990001I-85000J0D01*
G01*
X124935000Y25990001D01*
G75*
G02*
X124850000Y26075001I0J85000D01*
G01*
X124850000Y26755001D01*
G75*
G02*
X124935000Y26840001I85000J0D01*
G01*
G37*
G36*
G01*
X124935000Y25259999D02*
X125615000Y25259999D01*
G75*
G02*
X125700000Y25174999I0J-85000D01*
G01*
X125700000Y24494999D01*
G75*
G02*
X125615000Y24409999I-85000J0D01*
G01*
X124935000Y24409999D01*
G75*
G02*
X124850000Y24494999I0J85000D01*
G01*
X124850000Y25174999D01*
G75*
G02*
X124935000Y25259999I85000J0D01*
G01*
G37*
G04 #@! TD*
G04 #@! TO.C,C29*
G36*
G01*
X89033750Y37344998D02*
X88353750Y37344998D01*
G75*
G02*
X88268750Y37429998I0J85000D01*
G01*
X88268750Y38109998D01*
G75*
G02*
X88353750Y38194998I85000J0D01*
G01*
X89033750Y38194998D01*
G75*
G02*
X89118750Y38109998I0J-85000D01*
G01*
X89118750Y37429998D01*
G75*
G02*
X89033750Y37344998I-85000J0D01*
G01*
G37*
G36*
G01*
X89033750Y38925000D02*
X88353750Y38925000D01*
G75*
G02*
X88268750Y39010000I0J85000D01*
G01*
X88268750Y39690000D01*
G75*
G02*
X88353750Y39775000I85000J0D01*
G01*
X89033750Y39775000D01*
G75*
G02*
X89118750Y39690000I0J-85000D01*
G01*
X89118750Y39010000D01*
G75*
G02*
X89033750Y38925000I-85000J0D01*
G01*
G37*
G04 #@! TD*
G04 #@! TO.C,R34*
G36*
G01*
X83875000Y115365000D02*
X83875000Y114585000D01*
G75*
G02*
X83805000Y114515000I-70000J0D01*
G01*
X83245000Y114515000D01*
G75*
G02*
X83175000Y114585000I0J70000D01*
G01*
X83175000Y115365000D01*
G75*
G02*
X83245000Y115435000I70000J0D01*
G01*
X83805000Y115435000D01*
G75*
G02*
X83875000Y115365000I0J-70000D01*
G01*
G37*
G36*
G01*
X82275000Y115365000D02*
X82275000Y114585000D01*
G75*
G02*
X82205000Y114515000I-70000J0D01*
G01*
X81645000Y114515000D01*
G75*
G02*
X81575000Y114585000I0J70000D01*
G01*
X81575000Y115365000D01*
G75*
G02*
X81645000Y115435000I70000J0D01*
G01*
X82205000Y115435000D01*
G75*
G02*
X82275000Y115365000I0J-70000D01*
G01*
G37*
G04 #@! TD*
G04 #@! TO.C,R1*
G36*
G01*
X48650000Y122410000D02*
X48650000Y123190000D01*
G75*
G02*
X48720000Y123260000I70000J0D01*
G01*
X49280000Y123260000D01*
G75*
G02*
X49350000Y123190000I0J-70000D01*
G01*
X49350000Y122410000D01*
G75*
G02*
X49280000Y122340000I-70000J0D01*
G01*
X48720000Y122340000D01*
G75*
G02*
X48650000Y122410000I0J70000D01*
G01*
G37*
G36*
G01*
X50250000Y122410000D02*
X50250000Y123190000D01*
G75*
G02*
X50320000Y123260000I70000J0D01*
G01*
X50880000Y123260000D01*
G75*
G02*
X50950000Y123190000I0J-70000D01*
G01*
X50950000Y122410000D01*
G75*
G02*
X50880000Y122340000I-70000J0D01*
G01*
X50320000Y122340000D01*
G75*
G02*
X50250000Y122410000I0J70000D01*
G01*
G37*
G04 #@! TD*
G04 #@! TO.C,U4*
G36*
G01*
X87643750Y36820000D02*
X87643750Y36520000D01*
G75*
G02*
X87493750Y36370000I-150000J0D01*
G01*
X85843750Y36370000D01*
G75*
G02*
X85693750Y36520000I0J150000D01*
G01*
X85693750Y36820000D01*
G75*
G02*
X85843750Y36970000I150000J0D01*
G01*
X87493750Y36970000D01*
G75*
G02*
X87643750Y36820000I0J-150000D01*
G01*
G37*
G36*
G01*
X87643750Y38090000D02*
X87643750Y37790000D01*
G75*
G02*
X87493750Y37640000I-150000J0D01*
G01*
X85843750Y37640000D01*
G75*
G02*
X85693750Y37790000I0J150000D01*
G01*
X85693750Y38090000D01*
G75*
G02*
X85843750Y38240000I150000J0D01*
G01*
X87493750Y38240000D01*
G75*
G02*
X87643750Y38090000I0J-150000D01*
G01*
G37*
G36*
G01*
X87643750Y39360000D02*
X87643750Y39060000D01*
G75*
G02*
X87493750Y38910000I-150000J0D01*
G01*
X85843750Y38910000D01*
G75*
G02*
X85693750Y39060000I0J150000D01*
G01*
X85693750Y39360000D01*
G75*
G02*
X85843750Y39510000I150000J0D01*
G01*
X87493750Y39510000D01*
G75*
G02*
X87643750Y39360000I0J-150000D01*
G01*
G37*
G36*
G01*
X87643750Y40630000D02*
X87643750Y40330000D01*
G75*
G02*
X87493750Y40180000I-150000J0D01*
G01*
X85843750Y40180000D01*
G75*
G02*
X85693750Y40330000I0J150000D01*
G01*
X85693750Y40630000D01*
G75*
G02*
X85843750Y40780000I150000J0D01*
G01*
X87493750Y40780000D01*
G75*
G02*
X87643750Y40630000I0J-150000D01*
G01*
G37*
G36*
G01*
X82693750Y40630000D02*
X82693750Y40330000D01*
G75*
G02*
X82543750Y40180000I-150000J0D01*
G01*
X80893750Y40180000D01*
G75*
G02*
X80743750Y40330000I0J150000D01*
G01*
X80743750Y40630000D01*
G75*
G02*
X80893750Y40780000I150000J0D01*
G01*
X82543750Y40780000D01*
G75*
G02*
X82693750Y40630000I0J-150000D01*
G01*
G37*
G36*
G01*
X82693750Y39360000D02*
X82693750Y39060000D01*
G75*
G02*
X82543750Y38910000I-150000J0D01*
G01*
X80893750Y38910000D01*
G75*
G02*
X80743750Y39060000I0J150000D01*
G01*
X80743750Y39360000D01*
G75*
G02*
X80893750Y39510000I150000J0D01*
G01*
X82543750Y39510000D01*
G75*
G02*
X82693750Y39360000I0J-150000D01*
G01*
G37*
G36*
G01*
X82693750Y38090000D02*
X82693750Y37790000D01*
G75*
G02*
X82543750Y37640000I-150000J0D01*
G01*
X80893750Y37640000D01*
G75*
G02*
X80743750Y37790000I0J150000D01*
G01*
X80743750Y38090000D01*
G75*
G02*
X80893750Y38240000I150000J0D01*
G01*
X82543750Y38240000D01*
G75*
G02*
X82693750Y38090000I0J-150000D01*
G01*
G37*
G36*
G01*
X82693750Y36820000D02*
X82693750Y36520000D01*
G75*
G02*
X82543750Y36370000I-150000J0D01*
G01*
X80893750Y36370000D01*
G75*
G02*
X80743750Y36520000I0J150000D01*
G01*
X80743750Y36820000D01*
G75*
G02*
X80893750Y36970000I150000J0D01*
G01*
X82543750Y36970000D01*
G75*
G02*
X82693750Y36820000I0J-150000D01*
G01*
G37*
G04 #@! TD*
G04 #@! TO.C,C13*
G36*
G01*
X17179999Y90410000D02*
X17179999Y91090000D01*
G75*
G02*
X17264999Y91175000I85000J0D01*
G01*
X17944999Y91175000D01*
G75*
G02*
X18029999Y91090000I0J-85000D01*
G01*
X18029999Y90410000D01*
G75*
G02*
X17944999Y90325000I-85000J0D01*
G01*
X17264999Y90325000D01*
G75*
G02*
X17179999Y90410000I0J85000D01*
G01*
G37*
G36*
G01*
X18760001Y90410000D02*
X18760001Y91090000D01*
G75*
G02*
X18845001Y91175000I85000J0D01*
G01*
X19525001Y91175000D01*
G75*
G02*
X19610001Y91090000I0J-85000D01*
G01*
X19610001Y90410000D01*
G75*
G02*
X19525001Y90325000I-85000J0D01*
G01*
X18845001Y90325000D01*
G75*
G02*
X18760001Y90410000I0J85000D01*
G01*
G37*
G04 #@! TD*
G04 #@! TO.C,U11*
G36*
G01*
X79520000Y116100000D02*
X79220000Y116100000D01*
G75*
G02*
X79070000Y116250000I0J150000D01*
G01*
X79070000Y117900000D01*
G75*
G02*
X79220000Y118050000I150000J0D01*
G01*
X79520000Y118050000D01*
G75*
G02*
X79670000Y117900000I0J-150000D01*
G01*
X79670000Y116250000D01*
G75*
G02*
X79520000Y116100000I-150000J0D01*
G01*
G37*
G36*
G01*
X80790000Y116100000D02*
X80490000Y116100000D01*
G75*
G02*
X80340000Y116250000I0J150000D01*
G01*
X80340000Y117900000D01*
G75*
G02*
X80490000Y118050000I150000J0D01*
G01*
X80790000Y118050000D01*
G75*
G02*
X80940000Y117900000I0J-150000D01*
G01*
X80940000Y116250000D01*
G75*
G02*
X80790000Y116100000I-150000J0D01*
G01*
G37*
G36*
G01*
X82060000Y116100000D02*
X81760000Y116100000D01*
G75*
G02*
X81610000Y116250000I0J150000D01*
G01*
X81610000Y117900000D01*
G75*
G02*
X81760000Y118050000I150000J0D01*
G01*
X82060000Y118050000D01*
G75*
G02*
X82210000Y117900000I0J-150000D01*
G01*
X82210000Y116250000D01*
G75*
G02*
X82060000Y116100000I-150000J0D01*
G01*
G37*
G36*
G01*
X83330000Y116100000D02*
X83030000Y116100000D01*
G75*
G02*
X82880000Y116250000I0J150000D01*
G01*
X82880000Y117900000D01*
G75*
G02*
X83030000Y118050000I150000J0D01*
G01*
X83330000Y118050000D01*
G75*
G02*
X83480000Y117900000I0J-150000D01*
G01*
X83480000Y116250000D01*
G75*
G02*
X83330000Y116100000I-150000J0D01*
G01*
G37*
G36*
G01*
X83330000Y121050000D02*
X83030000Y121050000D01*
G75*
G02*
X82880000Y121200000I0J150000D01*
G01*
X82880000Y122850000D01*
G75*
G02*
X83030000Y123000000I150000J0D01*
G01*
X83330000Y123000000D01*
G75*
G02*
X83480000Y122850000I0J-150000D01*
G01*
X83480000Y121200000D01*
G75*
G02*
X83330000Y121050000I-150000J0D01*
G01*
G37*
G36*
G01*
X82060000Y121050000D02*
X81760000Y121050000D01*
G75*
G02*
X81610000Y121200000I0J150000D01*
G01*
X81610000Y122850000D01*
G75*
G02*
X81760000Y123000000I150000J0D01*
G01*
X82060000Y123000000D01*
G75*
G02*
X82210000Y122850000I0J-150000D01*
G01*
X82210000Y121200000D01*
G75*
G02*
X82060000Y121050000I-150000J0D01*
G01*
G37*
G36*
G01*
X80790000Y121050000D02*
X80490000Y121050000D01*
G75*
G02*
X80340000Y121200000I0J150000D01*
G01*
X80340000Y122850000D01*
G75*
G02*
X80490000Y123000000I150000J0D01*
G01*
X80790000Y123000000D01*
G75*
G02*
X80940000Y122850000I0J-150000D01*
G01*
X80940000Y121200000D01*
G75*
G02*
X80790000Y121050000I-150000J0D01*
G01*
G37*
G36*
G01*
X79520000Y121050000D02*
X79220000Y121050000D01*
G75*
G02*
X79070000Y121200000I0J150000D01*
G01*
X79070000Y122850000D01*
G75*
G02*
X79220000Y123000000I150000J0D01*
G01*
X79520000Y123000000D01*
G75*
G02*
X79670000Y122850000I0J-150000D01*
G01*
X79670000Y121200000D01*
G75*
G02*
X79520000Y121050000I-150000J0D01*
G01*
G37*
G04 #@! TD*
G04 #@! TO.C,C31*
G36*
G01*
X84678749Y42335000D02*
X84678749Y43015000D01*
G75*
G02*
X84763749Y43100000I85000J0D01*
G01*
X85443749Y43100000D01*
G75*
G02*
X85528749Y43015000I0J-85000D01*
G01*
X85528749Y42335000D01*
G75*
G02*
X85443749Y42250000I-85000J0D01*
G01*
X84763749Y42250000D01*
G75*
G02*
X84678749Y42335000I0J85000D01*
G01*
G37*
G36*
G01*
X86258751Y42335000D02*
X86258751Y43015000D01*
G75*
G02*
X86343751Y43100000I85000J0D01*
G01*
X87023751Y43100000D01*
G75*
G02*
X87108751Y43015000I0J-85000D01*
G01*
X87108751Y42335000D01*
G75*
G02*
X87023751Y42250000I-85000J0D01*
G01*
X86343751Y42250000D01*
G75*
G02*
X86258751Y42335000I0J85000D01*
G01*
G37*
G04 #@! TD*
G04 #@! TO.C,F4*
G36*
G01*
X21340010Y88625000D02*
X22030010Y88625000D01*
G75*
G02*
X22260010Y88395000I0J-230000D01*
G01*
X22260010Y87055000D01*
G75*
G02*
X22030010Y86825000I-230000J0D01*
G01*
X21340010Y86825000D01*
G75*
G02*
X21110010Y87055000I0J230000D01*
G01*
X21110010Y88395000D01*
G75*
G02*
X21340010Y88625000I230000J0D01*
G01*
G37*
G36*
G01*
X18439990Y88625000D02*
X19129990Y88625000D01*
G75*
G02*
X19359990Y88395000I0J-230000D01*
G01*
X19359990Y87055000D01*
G75*
G02*
X19129990Y86825000I-230000J0D01*
G01*
X18439990Y86825000D01*
G75*
G02*
X18209990Y87055000I0J230000D01*
G01*
X18209990Y88395000D01*
G75*
G02*
X18439990Y88625000I230000J0D01*
G01*
G37*
G04 #@! TD*
G04 #@! TO.C,R37*
G36*
G01*
X93600001Y92725000D02*
X93600001Y91475000D01*
G75*
G02*
X93500001Y91375000I-100000J0D01*
G01*
X92700001Y91375000D01*
G75*
G02*
X92600001Y91475000I0J100000D01*
G01*
X92600001Y92725000D01*
G75*
G02*
X92700001Y92825000I100000J0D01*
G01*
X93500001Y92825000D01*
G75*
G02*
X93600001Y92725000I0J-100000D01*
G01*
G37*
G36*
G01*
X91699979Y92725000D02*
X91699979Y91475000D01*
G75*
G02*
X91599979Y91375000I-100000J0D01*
G01*
X90799979Y91375000D01*
G75*
G02*
X90699979Y91475000I0J100000D01*
G01*
X90699979Y92725000D01*
G75*
G02*
X90799979Y92825000I100000J0D01*
G01*
X91599979Y92825000D01*
G75*
G02*
X91699979Y92725000I0J-100000D01*
G01*
G37*
G04 #@! TD*
G04 #@! TO.C,F9*
G36*
G01*
X104137500Y109831250D02*
X104137500Y109318750D01*
G75*
G02*
X103918750Y109100000I-218750J0D01*
G01*
X103481250Y109100000D01*
G75*
G02*
X103262500Y109318750I0J218750D01*
G01*
X103262500Y109831250D01*
G75*
G02*
X103481250Y110050000I218750J0D01*
G01*
X103918750Y110050000D01*
G75*
G02*
X104137500Y109831250I0J-218750D01*
G01*
G37*
G36*
G01*
X102562500Y109831250D02*
X102562500Y109318750D01*
G75*
G02*
X102343750Y109100000I-218750J0D01*
G01*
X101906250Y109100000D01*
G75*
G02*
X101687500Y109318750I0J218750D01*
G01*
X101687500Y109831250D01*
G75*
G02*
X101906250Y110050000I218750J0D01*
G01*
X102343750Y110050000D01*
G75*
G02*
X102562500Y109831250I0J-218750D01*
G01*
G37*
G04 #@! TD*
G04 #@! TO.C,C11*
G36*
G01*
X23460001Y106365000D02*
X23460001Y105685000D01*
G75*
G02*
X23375001Y105600000I-85000J0D01*
G01*
X22695001Y105600000D01*
G75*
G02*
X22610001Y105685000I0J85000D01*
G01*
X22610001Y106365000D01*
G75*
G02*
X22695001Y106450000I85000J0D01*
G01*
X23375001Y106450000D01*
G75*
G02*
X23460001Y106365000I0J-85000D01*
G01*
G37*
G36*
G01*
X21879999Y106365000D02*
X21879999Y105685000D01*
G75*
G02*
X21794999Y105600000I-85000J0D01*
G01*
X21114999Y105600000D01*
G75*
G02*
X21029999Y105685000I0J85000D01*
G01*
X21029999Y106365000D01*
G75*
G02*
X21114999Y106450000I85000J0D01*
G01*
X21794999Y106450000D01*
G75*
G02*
X21879999Y106365000I0J-85000D01*
G01*
G37*
G04 #@! TD*
G04 #@! TO.C,F6*
G36*
G01*
X133037500Y109881250D02*
X133037500Y109368750D01*
G75*
G02*
X132818750Y109150000I-218750J0D01*
G01*
X132381250Y109150000D01*
G75*
G02*
X132162500Y109368750I0J218750D01*
G01*
X132162500Y109881250D01*
G75*
G02*
X132381250Y110100000I218750J0D01*
G01*
X132818750Y110100000D01*
G75*
G02*
X133037500Y109881250I0J-218750D01*
G01*
G37*
G36*
G01*
X131462500Y109881250D02*
X131462500Y109368750D01*
G75*
G02*
X131243750Y109150000I-218750J0D01*
G01*
X130806250Y109150000D01*
G75*
G02*
X130587500Y109368750I0J218750D01*
G01*
X130587500Y109881250D01*
G75*
G02*
X130806250Y110100000I218750J0D01*
G01*
X131243750Y110100000D01*
G75*
G02*
X131462500Y109881250I0J-218750D01*
G01*
G37*
G04 #@! TD*
G04 #@! TO.C,R10*
G36*
G01*
X29007500Y114394144D02*
X29007500Y113614144D01*
G75*
G02*
X28937500Y113544144I-70000J0D01*
G01*
X28377500Y113544144D01*
G75*
G02*
X28307500Y113614144I0J70000D01*
G01*
X28307500Y114394144D01*
G75*
G02*
X28377500Y114464144I70000J0D01*
G01*
X28937500Y114464144D01*
G75*
G02*
X29007500Y114394144I0J-70000D01*
G01*
G37*
G36*
G01*
X27407500Y114394144D02*
X27407500Y113614144D01*
G75*
G02*
X27337500Y113544144I-70000J0D01*
G01*
X26777500Y113544144D01*
G75*
G02*
X26707500Y113614144I0J70000D01*
G01*
X26707500Y114394144D01*
G75*
G02*
X26777500Y114464144I70000J0D01*
G01*
X27337500Y114464144D01*
G75*
G02*
X27407500Y114394144I0J-70000D01*
G01*
G37*
G04 #@! TD*
G04 #@! TO.C,F10*
G36*
G01*
X96762500Y109756250D02*
X96762500Y109243750D01*
G75*
G02*
X96543750Y109025000I-218750J0D01*
G01*
X96106250Y109025000D01*
G75*
G02*
X95887500Y109243750I0J218750D01*
G01*
X95887500Y109756250D01*
G75*
G02*
X96106250Y109975000I218750J0D01*
G01*
X96543750Y109975000D01*
G75*
G02*
X96762500Y109756250I0J-218750D01*
G01*
G37*
G36*
G01*
X95187500Y109756250D02*
X95187500Y109243750D01*
G75*
G02*
X94968750Y109025000I-218750J0D01*
G01*
X94531250Y109025000D01*
G75*
G02*
X94312500Y109243750I0J218750D01*
G01*
X94312500Y109756250D01*
G75*
G02*
X94531250Y109975000I218750J0D01*
G01*
X94968750Y109975000D01*
G75*
G02*
X95187500Y109756250I0J-218750D01*
G01*
G37*
G04 #@! TD*
G04 #@! TO.C,F3*
G36*
G01*
X21340010Y86425000D02*
X22030010Y86425000D01*
G75*
G02*
X22260010Y86195000I0J-230000D01*
G01*
X22260010Y84855000D01*
G75*
G02*
X22030010Y84625000I-230000J0D01*
G01*
X21340010Y84625000D01*
G75*
G02*
X21110010Y84855000I0J230000D01*
G01*
X21110010Y86195000D01*
G75*
G02*
X21340010Y86425000I230000J0D01*
G01*
G37*
G36*
G01*
X18439990Y86425000D02*
X19129990Y86425000D01*
G75*
G02*
X19359990Y86195000I0J-230000D01*
G01*
X19359990Y84855000D01*
G75*
G02*
X19129990Y84625000I-230000J0D01*
G01*
X18439990Y84625000D01*
G75*
G02*
X18209990Y84855000I0J230000D01*
G01*
X18209990Y86195000D01*
G75*
G02*
X18439990Y86425000I230000J0D01*
G01*
G37*
G04 #@! TD*
G04 #@! TO.C,D1*
G36*
G01*
X81733500Y31250058D02*
X82213500Y31250058D01*
G75*
G02*
X82273500Y31190058I0J-60000D01*
G01*
X82273500Y30710058D01*
G75*
G02*
X82213500Y30650058I-60000J0D01*
G01*
X81733500Y30650058D01*
G75*
G02*
X81673500Y30710058I0J60000D01*
G01*
X81673500Y31190058D01*
G75*
G02*
X81733500Y31250058I60000J0D01*
G01*
G37*
G36*
G01*
X83933500Y31250058D02*
X84413500Y31250058D01*
G75*
G02*
X84473500Y31190058I0J-60000D01*
G01*
X84473500Y30710058D01*
G75*
G02*
X84413500Y30650058I-60000J0D01*
G01*
X83933500Y30650058D01*
G75*
G02*
X83873500Y30710058I0J60000D01*
G01*
X83873500Y31190058D01*
G75*
G02*
X83933500Y31250058I60000J0D01*
G01*
G37*
G04 #@! TD*
G04 #@! TO.C,C25*
G36*
G01*
X8345000Y95735000D02*
X8345000Y96415000D01*
G75*
G02*
X8430000Y96500000I85000J0D01*
G01*
X9110000Y96500000D01*
G75*
G02*
X9195000Y96415000I0J-85000D01*
G01*
X9195000Y95735000D01*
G75*
G02*
X9110000Y95650000I-85000J0D01*
G01*
X8430000Y95650000D01*
G75*
G02*
X8345000Y95735000I0J85000D01*
G01*
G37*
G36*
G01*
X9925002Y95735000D02*
X9925002Y96415000D01*
G75*
G02*
X10010002Y96500000I85000J0D01*
G01*
X10690002Y96500000D01*
G75*
G02*
X10775002Y96415000I0J-85000D01*
G01*
X10775002Y95735000D01*
G75*
G02*
X10690002Y95650000I-85000J0D01*
G01*
X10010002Y95650000D01*
G75*
G02*
X9925002Y95735000I0J85000D01*
G01*
G37*
G04 #@! TD*
G04 #@! TO.C,R19*
G36*
G01*
X114402500Y113725000D02*
X115182500Y113725000D01*
G75*
G02*
X115252500Y113655000I0J-70000D01*
G01*
X115252500Y113095000D01*
G75*
G02*
X115182500Y113025000I-70000J0D01*
G01*
X114402500Y113025000D01*
G75*
G02*
X114332500Y113095000I0J70000D01*
G01*
X114332500Y113655000D01*
G75*
G02*
X114402500Y113725000I70000J0D01*
G01*
G37*
G36*
G01*
X114402500Y112125000D02*
X115182500Y112125000D01*
G75*
G02*
X115252500Y112055000I0J-70000D01*
G01*
X115252500Y111495000D01*
G75*
G02*
X115182500Y111425000I-70000J0D01*
G01*
X114402500Y111425000D01*
G75*
G02*
X114332500Y111495000I0J70000D01*
G01*
X114332500Y112055000D01*
G75*
G02*
X114402500Y112125000I70000J0D01*
G01*
G37*
G04 #@! TD*
G04 #@! TO.C,R33*
G36*
G01*
X77425000Y114580856D02*
X77425000Y115360856D01*
G75*
G02*
X77495000Y115430856I70000J0D01*
G01*
X78055000Y115430856D01*
G75*
G02*
X78125000Y115360856I0J-70000D01*
G01*
X78125000Y114580856D01*
G75*
G02*
X78055000Y114510856I-70000J0D01*
G01*
X77495000Y114510856D01*
G75*
G02*
X77425000Y114580856I0J70000D01*
G01*
G37*
G36*
G01*
X79025000Y114580856D02*
X79025000Y115360856D01*
G75*
G02*
X79095000Y115430856I70000J0D01*
G01*
X79655000Y115430856D01*
G75*
G02*
X79725000Y115360856I0J-70000D01*
G01*
X79725000Y114580856D01*
G75*
G02*
X79655000Y114510856I-70000J0D01*
G01*
X79095000Y114510856D01*
G75*
G02*
X79025000Y114580856I0J70000D01*
G01*
G37*
G04 #@! TD*
G04 #@! TO.C,F8*
G36*
G01*
X111362500Y109831250D02*
X111362500Y109318750D01*
G75*
G02*
X111143750Y109100000I-218750J0D01*
G01*
X110706250Y109100000D01*
G75*
G02*
X110487500Y109318750I0J218750D01*
G01*
X110487500Y109831250D01*
G75*
G02*
X110706250Y110050000I218750J0D01*
G01*
X111143750Y110050000D01*
G75*
G02*
X111362500Y109831250I0J-218750D01*
G01*
G37*
G36*
G01*
X109787500Y109831250D02*
X109787500Y109318750D01*
G75*
G02*
X109568750Y109100000I-218750J0D01*
G01*
X109131250Y109100000D01*
G75*
G02*
X108912500Y109318750I0J218750D01*
G01*
X108912500Y109831250D01*
G75*
G02*
X109131250Y110050000I218750J0D01*
G01*
X109568750Y110050000D01*
G75*
G02*
X109787500Y109831250I0J-218750D01*
G01*
G37*
G04 #@! TD*
G04 #@! TO.C,Q12*
G36*
G01*
X93462500Y114450000D02*
X92762500Y114450000D01*
G75*
G02*
X92512500Y114700000I0J250000D01*
G01*
X92512500Y116400000D01*
G75*
G02*
X92762500Y116650000I250000J0D01*
G01*
X93462500Y116650000D01*
G75*
G02*
X93712500Y116400000I0J-250000D01*
G01*
X93712500Y114700000D01*
G75*
G02*
X93462500Y114450000I-250000J0D01*
G01*
G37*
G36*
G01*
X94992500Y118650000D02*
X92742500Y118650000D01*
G75*
G02*
X92492500Y118900000I0J250000D01*
G01*
X92492500Y121450000D01*
G75*
G02*
X92742500Y121700000I250000J0D01*
G01*
X94992500Y121700000D01*
G75*
G02*
X95242500Y121450000I0J-250000D01*
G01*
X95242500Y118900000D01*
G75*
G02*
X94992500Y118650000I-250000J0D01*
G01*
G37*
G36*
G01*
X98042500Y118650000D02*
X95792500Y118650000D01*
G75*
G02*
X95542500Y118900000I0J250000D01*
G01*
X95542500Y121450000D01*
G75*
G02*
X95792500Y121700000I250000J0D01*
G01*
X98042500Y121700000D01*
G75*
G02*
X98292500Y121450000I0J-250000D01*
G01*
X98292500Y118900000D01*
G75*
G02*
X98042500Y118650000I-250000J0D01*
G01*
G37*
G36*
G01*
X94992500Y122000000D02*
X92742500Y122000000D01*
G75*
G02*
X92492500Y122250000I0J250000D01*
G01*
X92492500Y124800000D01*
G75*
G02*
X92742500Y125050000I250000J0D01*
G01*
X94992500Y125050000D01*
G75*
G02*
X95242500Y124800000I0J-250000D01*
G01*
X95242500Y122250000D01*
G75*
G02*
X94992500Y122000000I-250000J0D01*
G01*
G37*
G36*
G01*
X98042500Y122000000D02*
X95792500Y122000000D01*
G75*
G02*
X95542500Y122250000I0J250000D01*
G01*
X95542500Y124800000D01*
G75*
G02*
X95792500Y125050000I250000J0D01*
G01*
X98042500Y125050000D01*
G75*
G02*
X98292500Y124800000I0J-250000D01*
G01*
X98292500Y122250000D01*
G75*
G02*
X98042500Y122000000I-250000J0D01*
G01*
G37*
G36*
G01*
X98022500Y114450000D02*
X97322500Y114450000D01*
G75*
G02*
X97072500Y114700000I0J250000D01*
G01*
X97072500Y116400000D01*
G75*
G02*
X97322500Y116650000I250000J0D01*
G01*
X98022500Y116650000D01*
G75*
G02*
X98272500Y116400000I0J-250000D01*
G01*
X98272500Y114700000D01*
G75*
G02*
X98022500Y114450000I-250000J0D01*
G01*
G37*
G04 #@! TD*
D12*
G04 #@! TO.C,M7*
X27900006Y66800000D03*
G04 #@! TD*
G04 #@! TO.C,R23*
G36*
G01*
X107177500Y113725000D02*
X107957500Y113725000D01*
G75*
G02*
X108027500Y113655000I0J-70000D01*
G01*
X108027500Y113095000D01*
G75*
G02*
X107957500Y113025000I-70000J0D01*
G01*
X107177500Y113025000D01*
G75*
G02*
X107107500Y113095000I0J70000D01*
G01*
X107107500Y113655000D01*
G75*
G02*
X107177500Y113725000I70000J0D01*
G01*
G37*
G36*
G01*
X107177500Y112125000D02*
X107957500Y112125000D01*
G75*
G02*
X108027500Y112055000I0J-70000D01*
G01*
X108027500Y111495000D01*
G75*
G02*
X107957500Y111425000I-70000J0D01*
G01*
X107177500Y111425000D01*
G75*
G02*
X107107500Y111495000I0J70000D01*
G01*
X107107500Y112055000D01*
G75*
G02*
X107177500Y112125000I70000J0D01*
G01*
G37*
G04 #@! TD*
G04 #@! TO.C,R7*
G36*
G01*
X35989814Y13500000D02*
X36769814Y13500000D01*
G75*
G02*
X36839814Y13430000I0J-70000D01*
G01*
X36839814Y12870000D01*
G75*
G02*
X36769814Y12800000I-70000J0D01*
G01*
X35989814Y12800000D01*
G75*
G02*
X35919814Y12870000I0J70000D01*
G01*
X35919814Y13430000D01*
G75*
G02*
X35989814Y13500000I70000J0D01*
G01*
G37*
G36*
G01*
X35989814Y11900000D02*
X36769814Y11900000D01*
G75*
G02*
X36839814Y11830000I0J-70000D01*
G01*
X36839814Y11270000D01*
G75*
G02*
X36769814Y11200000I-70000J0D01*
G01*
X35989814Y11200000D01*
G75*
G02*
X35919814Y11270000I0J70000D01*
G01*
X35919814Y11830000D01*
G75*
G02*
X35989814Y11900000I70000J0D01*
G01*
G37*
G04 #@! TD*
G04 #@! TO.C,R9*
G36*
G01*
X22820000Y90335000D02*
X22820000Y91115000D01*
G75*
G02*
X22890000Y91185000I70000J0D01*
G01*
X23450000Y91185000D01*
G75*
G02*
X23520000Y91115000I0J-70000D01*
G01*
X23520000Y90335000D01*
G75*
G02*
X23450000Y90265000I-70000J0D01*
G01*
X22890000Y90265000D01*
G75*
G02*
X22820000Y90335000I0J70000D01*
G01*
G37*
G36*
G01*
X24420000Y90335000D02*
X24420000Y91115000D01*
G75*
G02*
X24490000Y91185000I70000J0D01*
G01*
X25050000Y91185000D01*
G75*
G02*
X25120000Y91115000I0J-70000D01*
G01*
X25120000Y90335000D01*
G75*
G02*
X25050000Y90265000I-70000J0D01*
G01*
X24490000Y90265000D01*
G75*
G02*
X24420000Y90335000I0J70000D01*
G01*
G37*
G04 #@! TD*
G04 #@! TO.C,R24*
G36*
G01*
X99952500Y113725000D02*
X100732500Y113725000D01*
G75*
G02*
X100802500Y113655000I0J-70000D01*
G01*
X100802500Y113095000D01*
G75*
G02*
X100732500Y113025000I-70000J0D01*
G01*
X99952500Y113025000D01*
G75*
G02*
X99882500Y113095000I0J70000D01*
G01*
X99882500Y113655000D01*
G75*
G02*
X99952500Y113725000I70000J0D01*
G01*
G37*
G36*
G01*
X99952500Y112125000D02*
X100732500Y112125000D01*
G75*
G02*
X100802500Y112055000I0J-70000D01*
G01*
X100802500Y111495000D01*
G75*
G02*
X100732500Y111425000I-70000J0D01*
G01*
X99952500Y111425000D01*
G75*
G02*
X99882500Y111495000I0J70000D01*
G01*
X99882500Y112055000D01*
G75*
G02*
X99952500Y112125000I70000J0D01*
G01*
G37*
G04 #@! TD*
G04 #@! TO.C,F7*
G36*
G01*
X118587500Y109806250D02*
X118587500Y109293750D01*
G75*
G02*
X118368750Y109075000I-218750J0D01*
G01*
X117931250Y109075000D01*
G75*
G02*
X117712500Y109293750I0J218750D01*
G01*
X117712500Y109806250D01*
G75*
G02*
X117931250Y110025000I218750J0D01*
G01*
X118368750Y110025000D01*
G75*
G02*
X118587500Y109806250I0J-218750D01*
G01*
G37*
G36*
G01*
X117012500Y109806250D02*
X117012500Y109293750D01*
G75*
G02*
X116793750Y109075000I-218750J0D01*
G01*
X116356250Y109075000D01*
G75*
G02*
X116137500Y109293750I0J218750D01*
G01*
X116137500Y109806250D01*
G75*
G02*
X116356250Y110025000I218750J0D01*
G01*
X116793750Y110025000D01*
G75*
G02*
X117012500Y109806250I0J-218750D01*
G01*
G37*
G04 #@! TD*
G04 #@! TO.C,C32*
G36*
G01*
X84678749Y44135000D02*
X84678749Y44815000D01*
G75*
G02*
X84763749Y44900000I85000J0D01*
G01*
X85443749Y44900000D01*
G75*
G02*
X85528749Y44815000I0J-85000D01*
G01*
X85528749Y44135000D01*
G75*
G02*
X85443749Y44050000I-85000J0D01*
G01*
X84763749Y44050000D01*
G75*
G02*
X84678749Y44135000I0J85000D01*
G01*
G37*
G36*
G01*
X86258751Y44135000D02*
X86258751Y44815000D01*
G75*
G02*
X86343751Y44900000I85000J0D01*
G01*
X87023751Y44900000D01*
G75*
G02*
X87108751Y44815000I0J-85000D01*
G01*
X87108751Y44135000D01*
G75*
G02*
X87023751Y44050000I-85000J0D01*
G01*
X86343751Y44050000D01*
G75*
G02*
X86258751Y44135000I0J85000D01*
G01*
G37*
G04 #@! TD*
G04 #@! TO.C,R16*
G36*
G01*
X17632500Y113610000D02*
X17632500Y114390000D01*
G75*
G02*
X17702500Y114460000I70000J0D01*
G01*
X18262500Y114460000D01*
G75*
G02*
X18332500Y114390000I0J-70000D01*
G01*
X18332500Y113610000D01*
G75*
G02*
X18262500Y113540000I-70000J0D01*
G01*
X17702500Y113540000D01*
G75*
G02*
X17632500Y113610000I0J70000D01*
G01*
G37*
G36*
G01*
X19232500Y113610000D02*
X19232500Y114390000D01*
G75*
G02*
X19302500Y114460000I70000J0D01*
G01*
X19862500Y114460000D01*
G75*
G02*
X19932500Y114390000I0J-70000D01*
G01*
X19932500Y113610000D01*
G75*
G02*
X19862500Y113540000I-70000J0D01*
G01*
X19302500Y113540000D01*
G75*
G02*
X19232500Y113610000I0J70000D01*
G01*
G37*
G04 #@! TD*
G04 #@! TO.C,U9*
G36*
G01*
X63895000Y116095856D02*
X63595000Y116095856D01*
G75*
G02*
X63445000Y116245856I0J150000D01*
G01*
X63445000Y117895856D01*
G75*
G02*
X63595000Y118045856I150000J0D01*
G01*
X63895000Y118045856D01*
G75*
G02*
X64045000Y117895856I0J-150000D01*
G01*
X64045000Y116245856D01*
G75*
G02*
X63895000Y116095856I-150000J0D01*
G01*
G37*
G36*
G01*
X65165000Y116095856D02*
X64865000Y116095856D01*
G75*
G02*
X64715000Y116245856I0J150000D01*
G01*
X64715000Y117895856D01*
G75*
G02*
X64865000Y118045856I150000J0D01*
G01*
X65165000Y118045856D01*
G75*
G02*
X65315000Y117895856I0J-150000D01*
G01*
X65315000Y116245856D01*
G75*
G02*
X65165000Y116095856I-150000J0D01*
G01*
G37*
G36*
G01*
X66435000Y116095856D02*
X66135000Y116095856D01*
G75*
G02*
X65985000Y116245856I0J150000D01*
G01*
X65985000Y117895856D01*
G75*
G02*
X66135000Y118045856I150000J0D01*
G01*
X66435000Y118045856D01*
G75*
G02*
X66585000Y117895856I0J-150000D01*
G01*
X66585000Y116245856D01*
G75*
G02*
X66435000Y116095856I-150000J0D01*
G01*
G37*
G36*
G01*
X67705000Y116095856D02*
X67405000Y116095856D01*
G75*
G02*
X67255000Y116245856I0J150000D01*
G01*
X67255000Y117895856D01*
G75*
G02*
X67405000Y118045856I150000J0D01*
G01*
X67705000Y118045856D01*
G75*
G02*
X67855000Y117895856I0J-150000D01*
G01*
X67855000Y116245856D01*
G75*
G02*
X67705000Y116095856I-150000J0D01*
G01*
G37*
G36*
G01*
X67705000Y121045856D02*
X67405000Y121045856D01*
G75*
G02*
X67255000Y121195856I0J150000D01*
G01*
X67255000Y122845856D01*
G75*
G02*
X67405000Y122995856I150000J0D01*
G01*
X67705000Y122995856D01*
G75*
G02*
X67855000Y122845856I0J-150000D01*
G01*
X67855000Y121195856D01*
G75*
G02*
X67705000Y121045856I-150000J0D01*
G01*
G37*
G36*
G01*
X66435000Y121045856D02*
X66135000Y121045856D01*
G75*
G02*
X65985000Y121195856I0J150000D01*
G01*
X65985000Y122845856D01*
G75*
G02*
X66135000Y122995856I150000J0D01*
G01*
X66435000Y122995856D01*
G75*
G02*
X66585000Y122845856I0J-150000D01*
G01*
X66585000Y121195856D01*
G75*
G02*
X66435000Y121045856I-150000J0D01*
G01*
G37*
G36*
G01*
X65165000Y121045856D02*
X64865000Y121045856D01*
G75*
G02*
X64715000Y121195856I0J150000D01*
G01*
X64715000Y122845856D01*
G75*
G02*
X64865000Y122995856I150000J0D01*
G01*
X65165000Y122995856D01*
G75*
G02*
X65315000Y122845856I0J-150000D01*
G01*
X65315000Y121195856D01*
G75*
G02*
X65165000Y121045856I-150000J0D01*
G01*
G37*
G36*
G01*
X63895000Y121045856D02*
X63595000Y121045856D01*
G75*
G02*
X63445000Y121195856I0J150000D01*
G01*
X63445000Y122845856D01*
G75*
G02*
X63595000Y122995856I150000J0D01*
G01*
X63895000Y122995856D01*
G75*
G02*
X64045000Y122845856I0J-150000D01*
G01*
X64045000Y121195856D01*
G75*
G02*
X63895000Y121045856I-150000J0D01*
G01*
G37*
G04 #@! TD*
G04 #@! TO.C,R30*
G36*
G01*
X68225000Y115360856D02*
X68225000Y114580856D01*
G75*
G02*
X68155000Y114510856I-70000J0D01*
G01*
X67595000Y114510856D01*
G75*
G02*
X67525000Y114580856I0J70000D01*
G01*
X67525000Y115360856D01*
G75*
G02*
X67595000Y115430856I70000J0D01*
G01*
X68155000Y115430856D01*
G75*
G02*
X68225000Y115360856I0J-70000D01*
G01*
G37*
G36*
G01*
X66625000Y115360856D02*
X66625000Y114580856D01*
G75*
G02*
X66555000Y114510856I-70000J0D01*
G01*
X65995000Y114510856D01*
G75*
G02*
X65925000Y114580856I0J70000D01*
G01*
X65925000Y115360856D01*
G75*
G02*
X65995000Y115430856I70000J0D01*
G01*
X66555000Y115430856D01*
G75*
G02*
X66625000Y115360856I0J-70000D01*
G01*
G37*
G04 #@! TD*
G04 #@! TO.C,Q9*
G36*
G01*
X115152500Y114450000D02*
X114452500Y114450000D01*
G75*
G02*
X114202500Y114700000I0J250000D01*
G01*
X114202500Y116400000D01*
G75*
G02*
X114452500Y116650000I250000J0D01*
G01*
X115152500Y116650000D01*
G75*
G02*
X115402500Y116400000I0J-250000D01*
G01*
X115402500Y114700000D01*
G75*
G02*
X115152500Y114450000I-250000J0D01*
G01*
G37*
G36*
G01*
X116682500Y118650000D02*
X114432500Y118650000D01*
G75*
G02*
X114182500Y118900000I0J250000D01*
G01*
X114182500Y121450000D01*
G75*
G02*
X114432500Y121700000I250000J0D01*
G01*
X116682500Y121700000D01*
G75*
G02*
X116932500Y121450000I0J-250000D01*
G01*
X116932500Y118900000D01*
G75*
G02*
X116682500Y118650000I-250000J0D01*
G01*
G37*
G36*
G01*
X119732500Y118650000D02*
X117482500Y118650000D01*
G75*
G02*
X117232500Y118900000I0J250000D01*
G01*
X117232500Y121450000D01*
G75*
G02*
X117482500Y121700000I250000J0D01*
G01*
X119732500Y121700000D01*
G75*
G02*
X119982500Y121450000I0J-250000D01*
G01*
X119982500Y118900000D01*
G75*
G02*
X119732500Y118650000I-250000J0D01*
G01*
G37*
G36*
G01*
X116682500Y122000000D02*
X114432500Y122000000D01*
G75*
G02*
X114182500Y122250000I0J250000D01*
G01*
X114182500Y124800000D01*
G75*
G02*
X114432500Y125050000I250000J0D01*
G01*
X116682500Y125050000D01*
G75*
G02*
X116932500Y124800000I0J-250000D01*
G01*
X116932500Y122250000D01*
G75*
G02*
X116682500Y122000000I-250000J0D01*
G01*
G37*
G36*
G01*
X119732500Y122000000D02*
X117482500Y122000000D01*
G75*
G02*
X117232500Y122250000I0J250000D01*
G01*
X117232500Y124800000D01*
G75*
G02*
X117482500Y125050000I250000J0D01*
G01*
X119732500Y125050000D01*
G75*
G02*
X119982500Y124800000I0J-250000D01*
G01*
X119982500Y122250000D01*
G75*
G02*
X119732500Y122000000I-250000J0D01*
G01*
G37*
G36*
G01*
X119712500Y114450000D02*
X119012500Y114450000D01*
G75*
G02*
X118762500Y114700000I0J250000D01*
G01*
X118762500Y116400000D01*
G75*
G02*
X119012500Y116650000I250000J0D01*
G01*
X119712500Y116650000D01*
G75*
G02*
X119962500Y116400000I0J-250000D01*
G01*
X119962500Y114700000D01*
G75*
G02*
X119712500Y114450000I-250000J0D01*
G01*
G37*
G04 #@! TD*
D13*
G04 #@! TO.C,U5*
X123175000Y8325000D03*
X123175000Y9825000D03*
X123175000Y11325000D03*
X123175000Y12825000D03*
X123175000Y14325000D03*
X123175000Y15825000D03*
X123175000Y17325000D03*
X123175000Y18825000D03*
X123175000Y20325000D03*
X123175000Y21825000D03*
X123175000Y23325000D03*
X123175000Y24825000D03*
X123175000Y26325000D03*
X110475000Y26325000D03*
X110475000Y24825000D03*
X110475000Y23325000D03*
X110475000Y21825000D03*
X110475000Y20325000D03*
X110475000Y18825000D03*
X110475000Y17325000D03*
X110475000Y15825000D03*
X110475000Y14325000D03*
X110475000Y12825000D03*
X110475000Y11325000D03*
X110475000Y9825000D03*
X110475000Y8325000D03*
G04 #@! TD*
G04 #@! TO.C,R25*
G36*
G01*
X92702500Y113725000D02*
X93482500Y113725000D01*
G75*
G02*
X93552500Y113655000I0J-70000D01*
G01*
X93552500Y113095000D01*
G75*
G02*
X93482500Y113025000I-70000J0D01*
G01*
X92702500Y113025000D01*
G75*
G02*
X92632500Y113095000I0J70000D01*
G01*
X92632500Y113655000D01*
G75*
G02*
X92702500Y113725000I70000J0D01*
G01*
G37*
G36*
G01*
X92702500Y112125000D02*
X93482500Y112125000D01*
G75*
G02*
X93552500Y112055000I0J-70000D01*
G01*
X93552500Y111495000D01*
G75*
G02*
X93482500Y111425000I-70000J0D01*
G01*
X92702500Y111425000D01*
G75*
G02*
X92632500Y111495000I0J70000D01*
G01*
X92632500Y112055000D01*
G75*
G02*
X92702500Y112125000I70000J0D01*
G01*
G37*
G04 #@! TD*
G04 #@! TO.C,L2*
G36*
G01*
X98461727Y37756250D02*
X98461727Y37243750D01*
G75*
G02*
X98242977Y37025000I-218750J0D01*
G01*
X97805477Y37025000D01*
G75*
G02*
X97586727Y37243750I0J218750D01*
G01*
X97586727Y37756250D01*
G75*
G02*
X97805477Y37975000I218750J0D01*
G01*
X98242977Y37975000D01*
G75*
G02*
X98461727Y37756250I0J-218750D01*
G01*
G37*
G36*
G01*
X96886727Y37756250D02*
X96886727Y37243750D01*
G75*
G02*
X96667977Y37025000I-218750J0D01*
G01*
X96230477Y37025000D01*
G75*
G02*
X96011727Y37243750I0J218750D01*
G01*
X96011727Y37756250D01*
G75*
G02*
X96230477Y37975000I218750J0D01*
G01*
X96667977Y37975000D01*
G75*
G02*
X96886727Y37756250I0J-218750D01*
G01*
G37*
G04 #@! TD*
G04 #@! TO.C,R17*
G36*
G01*
X128877500Y113725000D02*
X129657500Y113725000D01*
G75*
G02*
X129727500Y113655000I0J-70000D01*
G01*
X129727500Y113095000D01*
G75*
G02*
X129657500Y113025000I-70000J0D01*
G01*
X128877500Y113025000D01*
G75*
G02*
X128807500Y113095000I0J70000D01*
G01*
X128807500Y113655000D01*
G75*
G02*
X128877500Y113725000I70000J0D01*
G01*
G37*
G36*
G01*
X128877500Y112125000D02*
X129657500Y112125000D01*
G75*
G02*
X129727500Y112055000I0J-70000D01*
G01*
X129727500Y111495000D01*
G75*
G02*
X129657500Y111425000I-70000J0D01*
G01*
X128877500Y111425000D01*
G75*
G02*
X128807500Y111495000I0J70000D01*
G01*
X128807500Y112055000D01*
G75*
G02*
X128877500Y112125000I70000J0D01*
G01*
G37*
G04 #@! TD*
G04 #@! TO.C,R8*
G36*
G01*
X38489814Y13500000D02*
X39269814Y13500000D01*
G75*
G02*
X39339814Y13430000I0J-70000D01*
G01*
X39339814Y12870000D01*
G75*
G02*
X39269814Y12800000I-70000J0D01*
G01*
X38489814Y12800000D01*
G75*
G02*
X38419814Y12870000I0J70000D01*
G01*
X38419814Y13430000D01*
G75*
G02*
X38489814Y13500000I70000J0D01*
G01*
G37*
G36*
G01*
X38489814Y11900000D02*
X39269814Y11900000D01*
G75*
G02*
X39339814Y11830000I0J-70000D01*
G01*
X39339814Y11270000D01*
G75*
G02*
X39269814Y11200000I-70000J0D01*
G01*
X38489814Y11200000D01*
G75*
G02*
X38419814Y11270000I0J70000D01*
G01*
X38419814Y11830000D01*
G75*
G02*
X38489814Y11900000I70000J0D01*
G01*
G37*
G04 #@! TD*
G04 #@! TO.C,R3*
G36*
G01*
X29130000Y91725000D02*
X29910000Y91725000D01*
G75*
G02*
X29980000Y91655000I0J-70000D01*
G01*
X29980000Y91095000D01*
G75*
G02*
X29910000Y91025000I-70000J0D01*
G01*
X29130000Y91025000D01*
G75*
G02*
X29060000Y91095000I0J70000D01*
G01*
X29060000Y91655000D01*
G75*
G02*
X29130000Y91725000I70000J0D01*
G01*
G37*
G36*
G01*
X29130000Y90125000D02*
X29910000Y90125000D01*
G75*
G02*
X29980000Y90055000I0J-70000D01*
G01*
X29980000Y89495000D01*
G75*
G02*
X29910000Y89425000I-70000J0D01*
G01*
X29130000Y89425000D01*
G75*
G02*
X29060000Y89495000I0J70000D01*
G01*
X29060000Y90055000D01*
G75*
G02*
X29130000Y90125000I70000J0D01*
G01*
G37*
G04 #@! TD*
G04 #@! TO.C,R15*
G36*
G01*
X14882500Y113610000D02*
X14882500Y114390000D01*
G75*
G02*
X14952500Y114460000I70000J0D01*
G01*
X15512500Y114460000D01*
G75*
G02*
X15582500Y114390000I0J-70000D01*
G01*
X15582500Y113610000D01*
G75*
G02*
X15512500Y113540000I-70000J0D01*
G01*
X14952500Y113540000D01*
G75*
G02*
X14882500Y113610000I0J70000D01*
G01*
G37*
G36*
G01*
X16482500Y113610000D02*
X16482500Y114390000D01*
G75*
G02*
X16552500Y114460000I70000J0D01*
G01*
X17112500Y114460000D01*
G75*
G02*
X17182500Y114390000I0J-70000D01*
G01*
X17182500Y113610000D01*
G75*
G02*
X17112500Y113540000I-70000J0D01*
G01*
X16552500Y113540000D01*
G75*
G02*
X16482500Y113610000I0J70000D01*
G01*
G37*
G04 #@! TD*
G04 #@! TO.C,R35*
G36*
G01*
X93600001Y87725000D02*
X93600001Y86475000D01*
G75*
G02*
X93500001Y86375000I-100000J0D01*
G01*
X92700001Y86375000D01*
G75*
G02*
X92600001Y86475000I0J100000D01*
G01*
X92600001Y87725000D01*
G75*
G02*
X92700001Y87825000I100000J0D01*
G01*
X93500001Y87825000D01*
G75*
G02*
X93600001Y87725000I0J-100000D01*
G01*
G37*
G36*
G01*
X91699979Y87725000D02*
X91699979Y86475000D01*
G75*
G02*
X91599979Y86375000I-100000J0D01*
G01*
X90799979Y86375000D01*
G75*
G02*
X90699979Y86475000I0J100000D01*
G01*
X90699979Y87725000D01*
G75*
G02*
X90799979Y87825000I100000J0D01*
G01*
X91599979Y87825000D01*
G75*
G02*
X91699979Y87725000I0J-100000D01*
G01*
G37*
G04 #@! TD*
G04 #@! TO.C,R13*
G36*
G01*
X25857500Y114394144D02*
X25857500Y113614144D01*
G75*
G02*
X25787500Y113544144I-70000J0D01*
G01*
X25227500Y113544144D01*
G75*
G02*
X25157500Y113614144I0J70000D01*
G01*
X25157500Y114394144D01*
G75*
G02*
X25227500Y114464144I70000J0D01*
G01*
X25787500Y114464144D01*
G75*
G02*
X25857500Y114394144I0J-70000D01*
G01*
G37*
G36*
G01*
X24257500Y114394144D02*
X24257500Y113614144D01*
G75*
G02*
X24187500Y113544144I-70000J0D01*
G01*
X23627500Y113544144D01*
G75*
G02*
X23557500Y113614144I0J70000D01*
G01*
X23557500Y114394144D01*
G75*
G02*
X23627500Y114464144I70000J0D01*
G01*
X24187500Y114464144D01*
G75*
G02*
X24257500Y114394144I0J-70000D01*
G01*
G37*
G04 #@! TD*
G04 #@! TO.C,F1*
G36*
G01*
X21340010Y84225000D02*
X22030010Y84225000D01*
G75*
G02*
X22260010Y83995000I0J-230000D01*
G01*
X22260010Y82655000D01*
G75*
G02*
X22030010Y82425000I-230000J0D01*
G01*
X21340010Y82425000D01*
G75*
G02*
X21110010Y82655000I0J230000D01*
G01*
X21110010Y83995000D01*
G75*
G02*
X21340010Y84225000I230000J0D01*
G01*
G37*
G36*
G01*
X18439990Y84225000D02*
X19129990Y84225000D01*
G75*
G02*
X19359990Y83995000I0J-230000D01*
G01*
X19359990Y82655000D01*
G75*
G02*
X19129990Y82425000I-230000J0D01*
G01*
X18439990Y82425000D01*
G75*
G02*
X18209990Y82655000I0J230000D01*
G01*
X18209990Y83995000D01*
G75*
G02*
X18439990Y84225000I230000J0D01*
G01*
G37*
G04 #@! TD*
G04 #@! TO.C,R4*
G36*
G01*
X74000000Y37000000D02*
X72750000Y37000000D01*
G75*
G02*
X72650000Y37100000I0J100000D01*
G01*
X72650000Y37900000D01*
G75*
G02*
X72750000Y38000000I100000J0D01*
G01*
X74000000Y38000000D01*
G75*
G02*
X74100000Y37900000I0J-100000D01*
G01*
X74100000Y37100000D01*
G75*
G02*
X74000000Y37000000I-100000J0D01*
G01*
G37*
G36*
G01*
X74000000Y38900022D02*
X72750000Y38900022D01*
G75*
G02*
X72650000Y39000022I0J100000D01*
G01*
X72650000Y39800022D01*
G75*
G02*
X72750000Y39900022I100000J0D01*
G01*
X74000000Y39900022D01*
G75*
G02*
X74100000Y39800022I0J-100000D01*
G01*
X74100000Y39000022D01*
G75*
G02*
X74000000Y38900022I-100000J0D01*
G01*
G37*
G04 #@! TD*
G04 #@! TO.C,R11*
G36*
G01*
X31757500Y114394144D02*
X31757500Y113614144D01*
G75*
G02*
X31687500Y113544144I-70000J0D01*
G01*
X31127500Y113544144D01*
G75*
G02*
X31057500Y113614144I0J70000D01*
G01*
X31057500Y114394144D01*
G75*
G02*
X31127500Y114464144I70000J0D01*
G01*
X31687500Y114464144D01*
G75*
G02*
X31757500Y114394144I0J-70000D01*
G01*
G37*
G36*
G01*
X30157500Y114394144D02*
X30157500Y113614144D01*
G75*
G02*
X30087500Y113544144I-70000J0D01*
G01*
X29527500Y113544144D01*
G75*
G02*
X29457500Y113614144I0J70000D01*
G01*
X29457500Y114394144D01*
G75*
G02*
X29527500Y114464144I70000J0D01*
G01*
X30087500Y114464144D01*
G75*
G02*
X30157500Y114394144I0J-70000D01*
G01*
G37*
G04 #@! TD*
G04 #@! TO.C,R38*
G36*
G01*
X90150001Y87725000D02*
X90150001Y86475000D01*
G75*
G02*
X90050001Y86375000I-100000J0D01*
G01*
X89250001Y86375000D01*
G75*
G02*
X89150001Y86475000I0J100000D01*
G01*
X89150001Y87725000D01*
G75*
G02*
X89250001Y87825000I100000J0D01*
G01*
X90050001Y87825000D01*
G75*
G02*
X90150001Y87725000I0J-100000D01*
G01*
G37*
G36*
G01*
X88249979Y87725000D02*
X88249979Y86475000D01*
G75*
G02*
X88149979Y86375000I-100000J0D01*
G01*
X87349979Y86375000D01*
G75*
G02*
X87249979Y86475000I0J100000D01*
G01*
X87249979Y87725000D01*
G75*
G02*
X87349979Y87825000I100000J0D01*
G01*
X88149979Y87825000D01*
G75*
G02*
X88249979Y87725000I0J-100000D01*
G01*
G37*
G04 #@! TD*
G04 #@! TO.C,R36*
G36*
G01*
X93600001Y90225000D02*
X93600001Y88975000D01*
G75*
G02*
X93500001Y88875000I-100000J0D01*
G01*
X92700001Y88875000D01*
G75*
G02*
X92600001Y88975000I0J100000D01*
G01*
X92600001Y90225000D01*
G75*
G02*
X92700001Y90325000I100000J0D01*
G01*
X93500001Y90325000D01*
G75*
G02*
X93600001Y90225000I0J-100000D01*
G01*
G37*
G36*
G01*
X91699979Y90225000D02*
X91699979Y88975000D01*
G75*
G02*
X91599979Y88875000I-100000J0D01*
G01*
X90799979Y88875000D01*
G75*
G02*
X90699979Y88975000I0J100000D01*
G01*
X90699979Y90225000D01*
G75*
G02*
X90799979Y90325000I100000J0D01*
G01*
X91599979Y90325000D01*
G75*
G02*
X91699979Y90225000I0J-100000D01*
G01*
G37*
G04 #@! TD*
G04 #@! TO.C,F5*
G36*
G01*
X125850000Y109881250D02*
X125850000Y109368750D01*
G75*
G02*
X125631250Y109150000I-218750J0D01*
G01*
X125193750Y109150000D01*
G75*
G02*
X124975000Y109368750I0J218750D01*
G01*
X124975000Y109881250D01*
G75*
G02*
X125193750Y110100000I218750J0D01*
G01*
X125631250Y110100000D01*
G75*
G02*
X125850000Y109881250I0J-218750D01*
G01*
G37*
G36*
G01*
X124275000Y109881250D02*
X124275000Y109368750D01*
G75*
G02*
X124056250Y109150000I-218750J0D01*
G01*
X123618750Y109150000D01*
G75*
G02*
X123400000Y109368750I0J218750D01*
G01*
X123400000Y109881250D01*
G75*
G02*
X123618750Y110100000I218750J0D01*
G01*
X124056250Y110100000D01*
G75*
G02*
X124275000Y109881250I0J-218750D01*
G01*
G37*
G04 #@! TD*
D14*
G04 #@! TO.C,U1*
X24605000Y99600000D03*
X23145000Y99600000D03*
X21685000Y99600000D03*
X20225000Y99600000D03*
X18765000Y99600000D03*
X24605000Y97350000D03*
X23145000Y97350000D03*
X21685000Y97350000D03*
X20225000Y97350000D03*
X18765000Y97350000D03*
D15*
X24185000Y103275000D03*
X23185000Y103275000D03*
X22185000Y103275000D03*
X21185000Y103275000D03*
X20185000Y103275000D03*
X19185000Y103275000D03*
X19185000Y93675000D03*
X20185000Y93675000D03*
X21185000Y93675000D03*
X22185000Y93675000D03*
X23185000Y93675000D03*
X24185000Y93675000D03*
G04 #@! TD*
D14*
G04 #@! TO.C,U2*
X14770000Y89300000D03*
X13310000Y89300000D03*
X11850000Y89300000D03*
X10390000Y89300000D03*
X8930000Y89300000D03*
X14770000Y87050000D03*
X13310000Y87050000D03*
X11850000Y87050000D03*
X10390000Y87050000D03*
X8930000Y87050000D03*
D15*
X14350000Y92975000D03*
X13350000Y92975000D03*
X12350000Y92975000D03*
X11350000Y92975000D03*
X10350000Y92975000D03*
X9350000Y92975000D03*
X9350000Y83375000D03*
X10350000Y83375000D03*
X11350000Y83375000D03*
X12350000Y83375000D03*
X13350000Y83375000D03*
X14350000Y83375000D03*
G04 #@! TD*
G04 #@! TO.C,R32*
G36*
G01*
X76305000Y115360856D02*
X76305000Y114580856D01*
G75*
G02*
X76235000Y114510856I-70000J0D01*
G01*
X75675000Y114510856D01*
G75*
G02*
X75605000Y114580856I0J70000D01*
G01*
X75605000Y115360856D01*
G75*
G02*
X75675000Y115430856I70000J0D01*
G01*
X76235000Y115430856D01*
G75*
G02*
X76305000Y115360856I0J-70000D01*
G01*
G37*
G36*
G01*
X74705000Y115360856D02*
X74705000Y114580856D01*
G75*
G02*
X74635000Y114510856I-70000J0D01*
G01*
X74075000Y114510856D01*
G75*
G02*
X74005000Y114580856I0J70000D01*
G01*
X74005000Y115360856D01*
G75*
G02*
X74075000Y115430856I70000J0D01*
G01*
X74635000Y115430856D01*
G75*
G02*
X74705000Y115360856I0J-70000D01*
G01*
G37*
G04 #@! TD*
G04 #@! TO.C,C28*
G36*
G01*
X95176727Y35584999D02*
X94496727Y35584999D01*
G75*
G02*
X94411727Y35669999I0J85000D01*
G01*
X94411727Y36349999D01*
G75*
G02*
X94496727Y36434999I85000J0D01*
G01*
X95176727Y36434999D01*
G75*
G02*
X95261727Y36349999I0J-85000D01*
G01*
X95261727Y35669999D01*
G75*
G02*
X95176727Y35584999I-85000J0D01*
G01*
G37*
G36*
G01*
X95176727Y37165001D02*
X94496727Y37165001D01*
G75*
G02*
X94411727Y37250001I0J85000D01*
G01*
X94411727Y37930001D01*
G75*
G02*
X94496727Y38015001I85000J0D01*
G01*
X95176727Y38015001D01*
G75*
G02*
X95261727Y37930001I0J-85000D01*
G01*
X95261727Y37250001D01*
G75*
G02*
X95176727Y37165001I-85000J0D01*
G01*
G37*
G04 #@! TD*
G04 #@! TO.C,U6*
G36*
G01*
X15477500Y115575000D02*
X15177500Y115575000D01*
G75*
G02*
X15027500Y115725000I0J150000D01*
G01*
X15027500Y117375000D01*
G75*
G02*
X15177500Y117525000I150000J0D01*
G01*
X15477500Y117525000D01*
G75*
G02*
X15627500Y117375000I0J-150000D01*
G01*
X15627500Y115725000D01*
G75*
G02*
X15477500Y115575000I-150000J0D01*
G01*
G37*
G36*
G01*
X16747500Y115575000D02*
X16447500Y115575000D01*
G75*
G02*
X16297500Y115725000I0J150000D01*
G01*
X16297500Y117375000D01*
G75*
G02*
X16447500Y117525000I150000J0D01*
G01*
X16747500Y117525000D01*
G75*
G02*
X16897500Y117375000I0J-150000D01*
G01*
X16897500Y115725000D01*
G75*
G02*
X16747500Y115575000I-150000J0D01*
G01*
G37*
G36*
G01*
X18017500Y115575000D02*
X17717500Y115575000D01*
G75*
G02*
X17567500Y115725000I0J150000D01*
G01*
X17567500Y117375000D01*
G75*
G02*
X17717500Y117525000I150000J0D01*
G01*
X18017500Y117525000D01*
G75*
G02*
X18167500Y117375000I0J-150000D01*
G01*
X18167500Y115725000D01*
G75*
G02*
X18017500Y115575000I-150000J0D01*
G01*
G37*
G36*
G01*
X19287500Y115575000D02*
X18987500Y115575000D01*
G75*
G02*
X18837500Y115725000I0J150000D01*
G01*
X18837500Y117375000D01*
G75*
G02*
X18987500Y117525000I150000J0D01*
G01*
X19287500Y117525000D01*
G75*
G02*
X19437500Y117375000I0J-150000D01*
G01*
X19437500Y115725000D01*
G75*
G02*
X19287500Y115575000I-150000J0D01*
G01*
G37*
G36*
G01*
X19287500Y120525000D02*
X18987500Y120525000D01*
G75*
G02*
X18837500Y120675000I0J150000D01*
G01*
X18837500Y122325000D01*
G75*
G02*
X18987500Y122475000I150000J0D01*
G01*
X19287500Y122475000D01*
G75*
G02*
X19437500Y122325000I0J-150000D01*
G01*
X19437500Y120675000D01*
G75*
G02*
X19287500Y120525000I-150000J0D01*
G01*
G37*
G36*
G01*
X18017500Y120525000D02*
X17717500Y120525000D01*
G75*
G02*
X17567500Y120675000I0J150000D01*
G01*
X17567500Y122325000D01*
G75*
G02*
X17717500Y122475000I150000J0D01*
G01*
X18017500Y122475000D01*
G75*
G02*
X18167500Y122325000I0J-150000D01*
G01*
X18167500Y120675000D01*
G75*
G02*
X18017500Y120525000I-150000J0D01*
G01*
G37*
G36*
G01*
X16747500Y120525000D02*
X16447500Y120525000D01*
G75*
G02*
X16297500Y120675000I0J150000D01*
G01*
X16297500Y122325000D01*
G75*
G02*
X16447500Y122475000I150000J0D01*
G01*
X16747500Y122475000D01*
G75*
G02*
X16897500Y122325000I0J-150000D01*
G01*
X16897500Y120675000D01*
G75*
G02*
X16747500Y120525000I-150000J0D01*
G01*
G37*
G36*
G01*
X15477500Y120525000D02*
X15177500Y120525000D01*
G75*
G02*
X15027500Y120675000I0J150000D01*
G01*
X15027500Y122325000D01*
G75*
G02*
X15177500Y122475000I150000J0D01*
G01*
X15477500Y122475000D01*
G75*
G02*
X15627500Y122325000I0J-150000D01*
G01*
X15627500Y120675000D01*
G75*
G02*
X15477500Y120525000I-150000J0D01*
G01*
G37*
G04 #@! TD*
G04 #@! TO.C,R29*
G36*
G01*
X61775000Y114576712D02*
X61775000Y115356712D01*
G75*
G02*
X61845000Y115426712I70000J0D01*
G01*
X62405000Y115426712D01*
G75*
G02*
X62475000Y115356712I0J-70000D01*
G01*
X62475000Y114576712D01*
G75*
G02*
X62405000Y114506712I-70000J0D01*
G01*
X61845000Y114506712D01*
G75*
G02*
X61775000Y114576712I0J70000D01*
G01*
G37*
G36*
G01*
X63375000Y114576712D02*
X63375000Y115356712D01*
G75*
G02*
X63445000Y115426712I70000J0D01*
G01*
X64005000Y115426712D01*
G75*
G02*
X64075000Y115356712I0J-70000D01*
G01*
X64075000Y114576712D01*
G75*
G02*
X64005000Y114506712I-70000J0D01*
G01*
X63445000Y114506712D01*
G75*
G02*
X63375000Y114576712I0J70000D01*
G01*
G37*
G04 #@! TD*
G04 #@! TO.C,R18*
G36*
G01*
X121627500Y113725000D02*
X122407500Y113725000D01*
G75*
G02*
X122477500Y113655000I0J-70000D01*
G01*
X122477500Y113095000D01*
G75*
G02*
X122407500Y113025000I-70000J0D01*
G01*
X121627500Y113025000D01*
G75*
G02*
X121557500Y113095000I0J70000D01*
G01*
X121557500Y113655000D01*
G75*
G02*
X121627500Y113725000I70000J0D01*
G01*
G37*
G36*
G01*
X121627500Y112125000D02*
X122407500Y112125000D01*
G75*
G02*
X122477500Y112055000I0J-70000D01*
G01*
X122477500Y111495000D01*
G75*
G02*
X122407500Y111425000I-70000J0D01*
G01*
X121627500Y111425000D01*
G75*
G02*
X121557500Y111495000I0J70000D01*
G01*
X121557500Y112055000D01*
G75*
G02*
X121627500Y112125000I70000J0D01*
G01*
G37*
G04 #@! TD*
G04 #@! TO.C,L1*
G36*
G01*
X98461727Y39756250D02*
X98461727Y39243750D01*
G75*
G02*
X98242977Y39025000I-218750J0D01*
G01*
X97805477Y39025000D01*
G75*
G02*
X97586727Y39243750I0J218750D01*
G01*
X97586727Y39756250D01*
G75*
G02*
X97805477Y39975000I218750J0D01*
G01*
X98242977Y39975000D01*
G75*
G02*
X98461727Y39756250I0J-218750D01*
G01*
G37*
G36*
G01*
X96886727Y39756250D02*
X96886727Y39243750D01*
G75*
G02*
X96667977Y39025000I-218750J0D01*
G01*
X96230477Y39025000D01*
G75*
G02*
X96011727Y39243750I0J218750D01*
G01*
X96011727Y39756250D01*
G75*
G02*
X96230477Y39975000I218750J0D01*
G01*
X96667977Y39975000D01*
G75*
G02*
X96886727Y39756250I0J-218750D01*
G01*
G37*
G04 #@! TD*
G04 #@! TO.C,Q11*
G36*
G01*
X100692500Y114450000D02*
X99992500Y114450000D01*
G75*
G02*
X99742500Y114700000I0J250000D01*
G01*
X99742500Y116400000D01*
G75*
G02*
X99992500Y116650000I250000J0D01*
G01*
X100692500Y116650000D01*
G75*
G02*
X100942500Y116400000I0J-250000D01*
G01*
X100942500Y114700000D01*
G75*
G02*
X100692500Y114450000I-250000J0D01*
G01*
G37*
G36*
G01*
X102222500Y118650000D02*
X99972500Y118650000D01*
G75*
G02*
X99722500Y118900000I0J250000D01*
G01*
X99722500Y121450000D01*
G75*
G02*
X99972500Y121700000I250000J0D01*
G01*
X102222500Y121700000D01*
G75*
G02*
X102472500Y121450000I0J-250000D01*
G01*
X102472500Y118900000D01*
G75*
G02*
X102222500Y118650000I-250000J0D01*
G01*
G37*
G36*
G01*
X105272500Y118650000D02*
X103022500Y118650000D01*
G75*
G02*
X102772500Y118900000I0J250000D01*
G01*
X102772500Y121450000D01*
G75*
G02*
X103022500Y121700000I250000J0D01*
G01*
X105272500Y121700000D01*
G75*
G02*
X105522500Y121450000I0J-250000D01*
G01*
X105522500Y118900000D01*
G75*
G02*
X105272500Y118650000I-250000J0D01*
G01*
G37*
G36*
G01*
X102222500Y122000000D02*
X99972500Y122000000D01*
G75*
G02*
X99722500Y122250000I0J250000D01*
G01*
X99722500Y124800000D01*
G75*
G02*
X99972500Y125050000I250000J0D01*
G01*
X102222500Y125050000D01*
G75*
G02*
X102472500Y124800000I0J-250000D01*
G01*
X102472500Y122250000D01*
G75*
G02*
X102222500Y122000000I-250000J0D01*
G01*
G37*
G36*
G01*
X105272500Y122000000D02*
X103022500Y122000000D01*
G75*
G02*
X102772500Y122250000I0J250000D01*
G01*
X102772500Y124800000D01*
G75*
G02*
X103022500Y125050000I250000J0D01*
G01*
X105272500Y125050000D01*
G75*
G02*
X105522500Y124800000I0J-250000D01*
G01*
X105522500Y122250000D01*
G75*
G02*
X105272500Y122000000I-250000J0D01*
G01*
G37*
G36*
G01*
X105252500Y114450000D02*
X104552500Y114450000D01*
G75*
G02*
X104302500Y114700000I0J250000D01*
G01*
X104302500Y116400000D01*
G75*
G02*
X104552500Y116650000I250000J0D01*
G01*
X105252500Y116650000D01*
G75*
G02*
X105502500Y116400000I0J-250000D01*
G01*
X105502500Y114700000D01*
G75*
G02*
X105252500Y114450000I-250000J0D01*
G01*
G37*
G04 #@! TD*
D16*
G04 #@! TO.C,J9*
X34155000Y9065000D03*
X34955000Y9065000D03*
X36255000Y9065000D03*
X37255000Y9065000D03*
X37755000Y9065000D03*
X38755000Y9065000D03*
X40055000Y9065000D03*
X40855000Y9065000D03*
X40555000Y9065000D03*
X39755000Y9065000D03*
X39255000Y9065000D03*
X38255000Y9065000D03*
X36755000Y9065000D03*
X35755000Y9065000D03*
X35255000Y9065000D03*
X34455000Y9065000D03*
G04 #@! TD*
G04 #@! TO.C,F2*
G36*
G01*
X24325000Y86430010D02*
X24325000Y87120010D01*
G75*
G02*
X24555000Y87350010I230000J0D01*
G01*
X25895000Y87350010D01*
G75*
G02*
X26125000Y87120010I0J-230000D01*
G01*
X26125000Y86430010D01*
G75*
G02*
X25895000Y86200010I-230000J0D01*
G01*
X24555000Y86200010D01*
G75*
G02*
X24325000Y86430010I0J230000D01*
G01*
G37*
G36*
G01*
X24325000Y83529990D02*
X24325000Y84219990D01*
G75*
G02*
X24555000Y84449990I230000J0D01*
G01*
X25895000Y84449990D01*
G75*
G02*
X26125000Y84219990I0J-230000D01*
G01*
X26125000Y83529990D01*
G75*
G02*
X25895000Y83299990I-230000J0D01*
G01*
X24555000Y83299990D01*
G75*
G02*
X24325000Y83529990I0J230000D01*
G01*
G37*
G04 #@! TD*
G04 #@! TO.C,R12*
G36*
G01*
X23107500Y114394144D02*
X23107500Y113614144D01*
G75*
G02*
X23037500Y113544144I-70000J0D01*
G01*
X22477500Y113544144D01*
G75*
G02*
X22407500Y113614144I0J70000D01*
G01*
X22407500Y114394144D01*
G75*
G02*
X22477500Y114464144I70000J0D01*
G01*
X23037500Y114464144D01*
G75*
G02*
X23107500Y114394144I0J-70000D01*
G01*
G37*
G36*
G01*
X21507500Y114394144D02*
X21507500Y113614144D01*
G75*
G02*
X21437500Y113544144I-70000J0D01*
G01*
X20877500Y113544144D01*
G75*
G02*
X20807500Y113614144I0J70000D01*
G01*
X20807500Y114394144D01*
G75*
G02*
X20877500Y114464144I70000J0D01*
G01*
X21437500Y114464144D01*
G75*
G02*
X21507500Y114394144I0J-70000D01*
G01*
G37*
G04 #@! TD*
G04 #@! TO.C,R2*
G36*
G01*
X29130000Y88725000D02*
X29910000Y88725000D01*
G75*
G02*
X29980000Y88655000I0J-70000D01*
G01*
X29980000Y88095000D01*
G75*
G02*
X29910000Y88025000I-70000J0D01*
G01*
X29130000Y88025000D01*
G75*
G02*
X29060000Y88095000I0J70000D01*
G01*
X29060000Y88655000D01*
G75*
G02*
X29130000Y88725000I70000J0D01*
G01*
G37*
G36*
G01*
X29130000Y87125000D02*
X29910000Y87125000D01*
G75*
G02*
X29980000Y87055000I0J-70000D01*
G01*
X29980000Y86495000D01*
G75*
G02*
X29910000Y86425000I-70000J0D01*
G01*
X29130000Y86425000D01*
G75*
G02*
X29060000Y86495000I0J70000D01*
G01*
X29060000Y87055000D01*
G75*
G02*
X29130000Y87125000I70000J0D01*
G01*
G37*
G04 #@! TD*
G04 #@! TO.C,R14*
G36*
G01*
X12980000Y81250000D02*
X13760000Y81250000D01*
G75*
G02*
X13830000Y81180000I0J-70000D01*
G01*
X13830000Y80620000D01*
G75*
G02*
X13760000Y80550000I-70000J0D01*
G01*
X12980000Y80550000D01*
G75*
G02*
X12910000Y80620000I0J70000D01*
G01*
X12910000Y81180000D01*
G75*
G02*
X12980000Y81250000I70000J0D01*
G01*
G37*
G36*
G01*
X12980000Y79650000D02*
X13760000Y79650000D01*
G75*
G02*
X13830000Y79580000I0J-70000D01*
G01*
X13830000Y79020000D01*
G75*
G02*
X13760000Y78950000I-70000J0D01*
G01*
X12980000Y78950000D01*
G75*
G02*
X12910000Y79020000I0J70000D01*
G01*
X12910000Y79580000D01*
G75*
G02*
X12980000Y79650000I70000J0D01*
G01*
G37*
G04 #@! TD*
D17*
G04 #@! TO.C,U3*
X30767500Y52342500D03*
X20925000Y52342500D03*
X20925000Y53612500D03*
X20925000Y54882500D03*
X20925000Y56152500D03*
X30767500Y56152500D03*
X30767500Y54882500D03*
X30767500Y53612500D03*
G04 #@! TD*
G04 #@! TO.C,C12*
G36*
G01*
X18179999Y105660000D02*
X18179999Y106340000D01*
G75*
G02*
X18264999Y106425000I85000J0D01*
G01*
X18944999Y106425000D01*
G75*
G02*
X19029999Y106340000I0J-85000D01*
G01*
X19029999Y105660000D01*
G75*
G02*
X18944999Y105575000I-85000J0D01*
G01*
X18264999Y105575000D01*
G75*
G02*
X18179999Y105660000I0J85000D01*
G01*
G37*
G36*
G01*
X19760001Y105660000D02*
X19760001Y106340000D01*
G75*
G02*
X19845001Y106425000I85000J0D01*
G01*
X20525001Y106425000D01*
G75*
G02*
X20610001Y106340000I0J-85000D01*
G01*
X20610001Y105660000D01*
G75*
G02*
X20525001Y105575000I-85000J0D01*
G01*
X19845001Y105575000D01*
G75*
G02*
X19760001Y105660000I0J85000D01*
G01*
G37*
G04 #@! TD*
G04 #@! TO.C,U8*
G36*
G01*
X21415000Y115575000D02*
X21115000Y115575000D01*
G75*
G02*
X20965000Y115725000I0J150000D01*
G01*
X20965000Y117375000D01*
G75*
G02*
X21115000Y117525000I150000J0D01*
G01*
X21415000Y117525000D01*
G75*
G02*
X21565000Y117375000I0J-150000D01*
G01*
X21565000Y115725000D01*
G75*
G02*
X21415000Y115575000I-150000J0D01*
G01*
G37*
G36*
G01*
X22685000Y115575000D02*
X22385000Y115575000D01*
G75*
G02*
X22235000Y115725000I0J150000D01*
G01*
X22235000Y117375000D01*
G75*
G02*
X22385000Y117525000I150000J0D01*
G01*
X22685000Y117525000D01*
G75*
G02*
X22835000Y117375000I0J-150000D01*
G01*
X22835000Y115725000D01*
G75*
G02*
X22685000Y115575000I-150000J0D01*
G01*
G37*
G36*
G01*
X23955000Y115575000D02*
X23655000Y115575000D01*
G75*
G02*
X23505000Y115725000I0J150000D01*
G01*
X23505000Y117375000D01*
G75*
G02*
X23655000Y117525000I150000J0D01*
G01*
X23955000Y117525000D01*
G75*
G02*
X24105000Y117375000I0J-150000D01*
G01*
X24105000Y115725000D01*
G75*
G02*
X23955000Y115575000I-150000J0D01*
G01*
G37*
G36*
G01*
X25225000Y115575000D02*
X24925000Y115575000D01*
G75*
G02*
X24775000Y115725000I0J150000D01*
G01*
X24775000Y117375000D01*
G75*
G02*
X24925000Y117525000I150000J0D01*
G01*
X25225000Y117525000D01*
G75*
G02*
X25375000Y117375000I0J-150000D01*
G01*
X25375000Y115725000D01*
G75*
G02*
X25225000Y115575000I-150000J0D01*
G01*
G37*
G36*
G01*
X25225000Y120525000D02*
X24925000Y120525000D01*
G75*
G02*
X24775000Y120675000I0J150000D01*
G01*
X24775000Y122325000D01*
G75*
G02*
X24925000Y122475000I150000J0D01*
G01*
X25225000Y122475000D01*
G75*
G02*
X25375000Y122325000I0J-150000D01*
G01*
X25375000Y120675000D01*
G75*
G02*
X25225000Y120525000I-150000J0D01*
G01*
G37*
G36*
G01*
X23955000Y120525000D02*
X23655000Y120525000D01*
G75*
G02*
X23505000Y120675000I0J150000D01*
G01*
X23505000Y122325000D01*
G75*
G02*
X23655000Y122475000I150000J0D01*
G01*
X23955000Y122475000D01*
G75*
G02*
X24105000Y122325000I0J-150000D01*
G01*
X24105000Y120675000D01*
G75*
G02*
X23955000Y120525000I-150000J0D01*
G01*
G37*
G36*
G01*
X22685000Y120525000D02*
X22385000Y120525000D01*
G75*
G02*
X22235000Y120675000I0J150000D01*
G01*
X22235000Y122325000D01*
G75*
G02*
X22385000Y122475000I150000J0D01*
G01*
X22685000Y122475000D01*
G75*
G02*
X22835000Y122325000I0J-150000D01*
G01*
X22835000Y120675000D01*
G75*
G02*
X22685000Y120525000I-150000J0D01*
G01*
G37*
G36*
G01*
X21415000Y120525000D02*
X21115000Y120525000D01*
G75*
G02*
X20965000Y120675000I0J150000D01*
G01*
X20965000Y122325000D01*
G75*
G02*
X21115000Y122475000I150000J0D01*
G01*
X21415000Y122475000D01*
G75*
G02*
X21565000Y122325000I0J-150000D01*
G01*
X21565000Y120675000D01*
G75*
G02*
X21415000Y120525000I-150000J0D01*
G01*
G37*
G04 #@! TD*
M02*
