M48
; DRILL file {KiCad 8.0.2-8.0.2-0~ubuntu22.04.1} date 2024-05-16T20:33:41+0000
; FORMAT={2:4/ absolute / inch / suppress leading zeros}
; #@! TF.CreationDate,2024-05-16T20:33:41+00:00
; #@! TF.GenerationSoftware,Kicad,Pcbnew,8.0.2-8.0.2-0~ubuntu22.04.1
; #@! TF.FileFunction,MixedPlating,1,4
FMAT,2
INCH,TZ
; #@! TA.AperFunction,Plated,PTH,ComponentDrill
T1C0.0118
; #@! TA.AperFunction,Plated,PTH,ViaDrill
T2C0.0118
; #@! TA.AperFunction,Plated,PTH,ComponentDrill
T3C0.0118
; #@! TA.AperFunction,Plated,PTH,ViaDrill
T4C0.0138
; #@! TA.AperFunction,Plated,PTH,ViaDrill
T5C0.0157
; #@! TA.AperFunction,Plated,PTH,ComponentDrill
T6C0.0197
; #@! TA.AperFunction,Plated,PTH,ComponentDrill
T7C0.0236
; #@! TA.AperFunction,Plated,PTH,ComponentDrill
T8C0.0256
; #@! TA.AperFunction,Plated,PTH,ComponentDrill
T9C0.0276
; #@! TA.AperFunction,Plated,PTH,ViaDrill
T10C0.0315
; #@! TA.AperFunction,Plated,PTH,ComponentDrill
T11C0.0320
; #@! TA.AperFunction,Plated,PTH,ComponentDrill
T12C0.0335
; #@! TA.AperFunction,Plated,PTH,ViaDrill
T13C0.0394
; #@! TA.AperFunction,Plated,PTH,ComponentDrill
T14C0.0394
; #@! TA.AperFunction,Plated,PTH,ComponentDrill
T15C0.0472
; #@! TA.AperFunction,Plated,PTH,ComponentDrill
T16C0.0709
; #@! TA.AperFunction,Plated,PTH,ComponentDrill
T17C0.1200
; #@! TA.AperFunction,Plated,PTH,ComponentDrill
T18C0.1260
; #@! TA.AperFunction,NonPlated,NPTH,ComponentDrill
T19C0.0256
; #@! TA.AperFunction,NonPlated,NPTH,ComponentDrill
T20C0.0591
; #@! TA.AperFunction,NonPlated,NPTH,ComponentDrill
T21C0.1181
; #@! TA.AperFunction,NonPlated,NPTH,ComponentDrill
T22C0.1890
%
G90
G05
T1
X10768Y20246
X11112Y20039
X11201Y21939
X11230Y20541
T2
X6339Y37589
X6686Y37825
X7936Y37835
X9026Y37835
X10266Y37835
X10620Y24301
X11191Y24262
X11342Y37835
X14281Y22352
X14665Y33681
X14714Y17794
X14715Y17510
X14734Y16988
X14773Y24259
X17933Y30758
X18031Y9429
X18297Y13219
X18307Y12835
X18346Y9281
X18681Y9193
X20371Y11353
X20821Y11081
X22126Y9872
X22411Y9931
X23058Y11581
X23458Y8881
X23612Y1565
X23958Y8881
X24055Y1565
X24449Y1565
X25015Y9975
X25758Y9813
X26043Y9980
X26458Y11481
X26658Y8881
X26958Y11481
X28058Y8881
X30058Y11481
X30558Y11481
X31058Y11481
X35207Y29557
X35207Y28573
X35207Y27598
X37756Y40610
X43474Y40650
X46319Y40630
X49154Y40640
X51998Y40610
T3
X14579Y40861
X14972Y40861
X16098Y35182
X16571Y35182
X17043Y35182
X17516Y35182
X18957Y21496
X18957Y21181
X18957Y20866
X18957Y20551
X18957Y20236
X18957Y19921
X18957Y19606
X18957Y19291
X18957Y18976
X18957Y18661
X18957Y18346
X18957Y18031
X18957Y17717
X18957Y17402
X18957Y16772
X18957Y16220
X18957Y15906
X18957Y15591
X18957Y15276
X18957Y14961
X18957Y14646
X18957Y23189
X18957Y17087
X19114Y11811
X19140Y40876
X19429Y11811
X19533Y40876
X19744Y11811
X20059Y11811
X20374Y11811
X20659Y35197
X20689Y11811
X21004Y11811
X21132Y35197
X21319Y11811
X21555Y25748
X21604Y35197
X21634Y11811
X21949Y11811
X22028Y25748
X22077Y35197
X22264Y11811
X22500Y25748
X22579Y11811
X22972Y25748
X23445Y25748
X23524Y11811
X23839Y11811
X23917Y25748
X24154Y11811
X24390Y25748
X24469Y11811
X24783Y11811
X24862Y25748
X25098Y11811
X25335Y25748
X25413Y11811
X25728Y11811
X25807Y25748
X26043Y11811
X26280Y25748
X26752Y25748
X27224Y25748
X27697Y25748
X27736Y11811
X28169Y25748
X28435Y8593
X28642Y25748
X28799Y11811
X28829Y8593
X29114Y25748
X29193Y11811
X29587Y25748
X30059Y25748
X30531Y25748
X31004Y25748
X31949Y25748
X32106Y24764
X32106Y24370
X32106Y20157
X32106Y19764
X32106Y19370
X32106Y18976
X32106Y18583
X32106Y18189
X32106Y17795
X32106Y17402
X32106Y16378
X32106Y16063
X32106Y14213
X32106Y13661
X32106Y11811
X39065Y27234
X39439Y27234
X39459Y30659
X39813Y30659
X39813Y27234
X47461Y17785
X47854Y17785
X48248Y17785
X48642Y17785
X49569Y28254
X49969Y28254
X50866Y28254
X51260Y28254
X51654Y28254
T4
X844Y3748
X844Y3319
X844Y2890
X965Y41862
X965Y41433
X965Y41004
X965Y37787
X965Y37358
X965Y36929
X965Y34589
X965Y34159
X965Y33730
X1287Y3748
X1287Y3319
X1287Y2890
X1407Y41862
X1407Y41433
X1407Y41004
X1407Y37787
X1407Y37358
X1407Y36929
X1407Y34589
X1407Y34159
X1407Y33730
X1683Y12089
X1683Y11659
X1683Y11230
X2126Y12089
X2126Y11659
X2126Y11230
X2154Y16693
X2154Y16250
X2205Y31624
X2205Y31122
X2205Y30620
X2205Y30118
X2205Y29616
X2205Y29114
X2205Y28612
X2205Y28110
X2205Y27608
X2205Y27106
X2205Y26604
X2455Y2354
X2455Y1925
X2455Y1496
X2583Y16693
X2583Y16250
X2734Y24085
X2734Y23642
X2756Y26230
X2898Y2354
X2898Y1925
X2898Y1496
X3012Y16693
X3012Y16250
X3163Y24085
X3163Y23642
X3593Y24085
X3593Y23642
X3768Y10069
X3768Y9626
X3937Y24833
X3947Y25305
X4083Y30433
X4197Y10069
X4197Y9626
X4203Y41311
X4203Y40882
X4203Y40453
X4211Y30689
X4252Y39795
X4252Y39366
X4252Y38937
X4626Y10069
X4626Y9626
X4665Y41526
X4665Y41096
X4665Y40667
X4715Y40010
X4715Y39581
X4715Y39152
X4860Y30591
X4870Y24016
X5833Y40394
X5846Y37057
X6047Y39931
X6112Y34409
X6220Y33051
X6220Y32618
X6220Y32185
X6220Y31339
X6220Y30925
X6262Y40394
X6329Y35039
X6476Y39931
X6604Y37057
X6691Y40394
X6906Y39931
X7087Y25079
X7438Y24419
X7618Y37057
X7790Y25079
X7970Y34488
X8059Y34744
X8142Y24419
X8159Y40394
X8374Y39931
X8423Y36388
X8423Y35945
X8494Y25079
X8589Y40394
X8671Y37057
X8728Y34528
X8803Y39931
X8852Y36388
X8852Y35945
X9018Y40394
X9232Y39931
X9272Y37057
X9281Y36388
X9281Y35945
X9341Y35049
X9665Y33209
X9665Y30974
X9892Y35020
X10264Y28799
X10384Y40394
X10591Y32825
X10591Y32392
X10591Y31959
X10591Y31526
X10598Y39931
X10813Y40394
X10955Y37057
X11028Y39931
X11242Y40394
X11457Y39931
X11516Y9191
X11516Y8748
X11703Y23988
X11703Y23559
X11703Y23130
X11850Y42963
X11890Y26951
X11890Y26522
X11890Y26093
X11945Y9191
X11945Y8748
X12146Y23988
X12146Y23559
X12146Y23130
X12333Y26951
X12333Y26522
X12333Y26093
X12374Y9191
X12374Y8748
X12490Y37057
X12539Y29163
X12569Y32205
X12589Y30039
X13311Y6756
X13311Y6327
X13311Y5898
X13356Y38671
X13376Y40069
X13376Y37608
X13754Y6756
X13754Y6327
X13754Y5898
X13957Y43022
X14114Y30000
X14329Y29537
X14543Y30000
X14656Y34508
X14758Y29537
X14972Y30000
X15187Y29537
X15827Y33799
X15846Y43071
X19006Y34646
X19380Y33504
X19594Y33041
X19809Y33504
X19990Y34626
X20024Y33041
X20238Y33504
X20453Y33041
X20825Y6024
X20825Y5594
X20825Y5165
X21043Y34616
X21268Y6024
X21268Y5594
X21268Y5165
X23079Y47854
X23079Y47411
X23089Y46732
X23089Y46289
X23508Y47854
X23508Y47411
X23518Y46732
X23518Y46289
X23937Y47854
X23937Y47411
X23947Y46732
X23947Y46289
X24898Y40610
X25112Y40148
X25327Y40610
X25541Y40148
X25717Y46841
X25717Y46398
X25736Y47844
X25736Y47402
X25768Y40610
X25915Y40148
X26146Y46841
X26146Y46398
X26165Y47844
X26165Y47402
X26575Y46841
X26575Y46398
X26594Y47844
X26594Y47402
X26809Y1476
X26809Y1033
X27238Y1476
X27238Y1033
X27628Y40581
X27667Y1476
X27667Y1033
X27904Y40118
X27982Y33642
X27982Y33213
X27982Y32783
X28061Y40591
X28079Y47844
X28079Y47402
X28276Y40128
X28425Y33642
X28425Y33213
X28425Y32783
X28490Y40591
X28508Y47844
X28508Y47402
X28705Y40128
X28937Y47844
X28937Y47402
X31404Y40571
X31618Y40108
X31713Y7376
X31713Y6933
X31722Y36831
X31722Y36402
X31722Y35972
X31833Y40571
X31850Y33957
X31850Y33528
X31850Y33098
X32047Y40108
X32142Y7376
X32142Y6933
X32165Y36831
X32165Y36402
X32165Y35972
X32230Y3913
X32230Y3484
X32230Y3055
X32274Y40571
X32293Y33957
X32293Y33528
X32293Y33098
X32421Y40108
X32571Y7376
X32571Y6933
X32673Y3913
X32673Y3484
X32673Y3055
X33612Y40226
X33622Y39163
X33632Y41220
X33827Y39764
X33837Y38701
X33846Y40758
X34041Y40226
X34045Y36850
X34045Y36421
X34045Y35992
X34051Y39163
X34061Y41220
X34256Y39764
X34266Y38701
X34276Y40758
X34404Y23823
X34404Y23394
X34404Y22965
X34470Y40226
X34480Y39163
X34488Y36850
X34488Y36421
X34488Y35992
X34490Y41220
X34685Y39764
X34695Y38701
X34705Y40758
X34846Y23823
X34846Y23394
X34846Y22965
X35382Y11988
X35382Y11545
X35431Y17461
X35431Y17018
X35811Y11988
X35811Y11545
X35860Y17461
X35860Y17018
X36240Y11988
X36240Y11545
X36289Y17461
X36289Y17018
X36809Y35482
X36929Y39293
X36929Y38864
X36929Y38435
X36996Y25925
X36996Y25482
X37116Y30974
X37116Y30545
X37116Y30116
X37238Y35482
X37392Y39508
X37392Y39079
X37392Y38650
X37425Y25925
X37425Y25482
X37559Y30974
X37559Y30545
X37559Y30116
X37667Y35482
X37717Y19854
X37717Y19425
X37717Y18996
X37854Y25925
X37854Y25482
X38159Y19854
X38159Y19425
X38159Y18996
X38622Y9154
X38622Y8711
X38778Y1598
X38778Y1169
X38778Y740
X38839Y12161
X38839Y11719
X39051Y9154
X39051Y8711
X39220Y1598
X39220Y1169
X39220Y740
X39268Y12161
X39268Y11719
X39480Y9154
X39480Y8711
X39697Y12161
X39697Y11719
X39744Y39382
X39744Y38953
X39744Y38524
X40195Y35896
X40207Y39596
X40207Y39167
X40207Y38738
X40624Y35896
X41053Y35896
X41585Y18886
X41585Y18457
X41585Y18028
X42028Y18886
X42028Y18457
X42028Y18028
X42598Y39343
X42598Y38913
X42598Y38484
X42951Y35945
X43061Y39557
X43061Y39128
X43061Y38699
X43258Y15102
X43258Y14673
X43258Y14244
X43380Y35945
X43701Y15102
X43701Y14673
X43701Y14244
X43819Y36112
X45156Y34478
X45156Y34035
X45463Y39382
X45463Y38953
X45463Y38524
X45585Y34478
X45585Y34035
X45925Y39596
X45925Y39167
X45925Y38738
X45951Y27819
X45951Y27390
X45951Y26961
X46010Y19583
X46010Y19154
X46010Y18724
X46012Y35965
X46012Y30659
X46012Y30217
X46014Y34478
X46014Y34035
X46394Y27819
X46394Y27390
X46394Y26961
X46441Y35965
X46441Y30659
X46441Y30217
X46453Y19583
X46453Y19154
X46453Y18724
X46870Y35965
X46870Y30659
X46870Y30217
X47132Y8701
X47132Y8272
X47132Y7843
X47575Y8701
X47575Y8272
X47575Y7843
X48317Y39333
X48317Y38904
X48317Y38474
X48780Y39547
X48780Y39118
X48780Y38689
X48994Y35925
X49232Y1939
X49232Y1496
X49423Y35925
X49661Y1939
X49661Y1496
X49852Y35925
X50091Y1939
X50091Y1496
X51191Y39352
X51191Y38923
X51191Y38494
X51553Y35915
X51622Y14122
X51622Y13679
X51654Y39567
X51654Y39138
X51654Y38709
X51982Y35915
X52051Y14122
X52051Y13679
X52106Y33130
X52106Y32701
X52106Y32272
X52411Y35915
X52480Y14122
X52480Y13679
X52549Y33130
X52549Y32701
X52549Y32272
T5
X13740Y19921
X14021Y15243
X14203Y20236
X16614Y14646
X17854Y28533
X18352Y11412
X19449Y26939
X20315Y27077
X20994Y1063
X27736Y9892
X33061Y14232
X33061Y13799
X33081Y15236
X33997Y8868
X34154Y30384
X35778Y15404
X36260Y30187
X41634Y14498
X42234Y14872
X44478Y9626
T6
X827Y6693
X1104Y7361
X1104Y6025
X1772Y7638
X1772Y5748
X2440Y7361
X2440Y6025
X2717Y6693
X50433Y6693
X50710Y7361
X50710Y6025
X51378Y7638
X51378Y5748
X52046Y7361
X52046Y6025
X52323Y6693
T8
X25896Y33047
X25896Y32547
X25896Y32047
X37027Y37589
X37527Y37589
X38027Y37589
X39928Y37589
X40428Y37589
X40928Y37589
X42773Y37589
X43273Y37589
X43773Y37589
X45621Y37589
X46121Y37589
X46621Y37589
X48471Y37589
X48971Y37589
X49471Y37589
X51306Y37589
X51806Y37589
X52306Y37589
T9
X18524Y2303
X18524Y1673
X19213Y2618
X19213Y1988
X19213Y1358
T10
X3287Y25364
X5797Y31772
X40187Y41604
X40187Y41053
X40748Y41604
X40748Y41053
T11
X6608Y27844
X6608Y26978
X6608Y26112
X8344Y17633
X8537Y27844
X8537Y26978
X8537Y26112
X9344Y17633
X9537Y27864
X9537Y25935
X10344Y17633
X11344Y17633
X12344Y17633
X13344Y17633
X31386Y9616
X32886Y9616
T12
X16020Y5315
X16020Y4331
X16020Y3346
X16020Y2362
X16020Y1378
T13
X20217Y9577
T14
X4372Y7237
X4372Y6237
X4372Y5237
X4376Y4057
X4376Y3057
X4376Y2057
X4791Y32116
X5372Y7237
X5372Y6237
X5372Y5237
X5376Y4057
X5376Y3057
X5376Y2057
X5884Y24852
X6166Y19938
X6372Y7237
X6372Y6237
X6372Y5237
X6376Y4057
X6376Y3057
X6376Y2057
X7308Y19938
X7372Y7237
X7372Y6237
X7372Y5237
X7376Y4057
X7376Y3057
X7376Y2057
X8372Y7237
X8372Y6237
X8372Y5237
X8376Y4057
X8376Y3057
X8376Y2057
X10490Y33976
X10854Y30187
X19323Y8244
X19333Y6896
X22352Y2313
X22530Y8415
X23081Y2313
X25030Y2313
X25049Y8415
X25797Y8415
X27490Y8415
X29774Y2313
X29951Y8415
X46486Y4656
X46486Y3445
X50876Y34715
X50876Y33715
X50876Y32715
X50876Y31715
X50876Y30715
X50876Y29715
T15
X4597Y46457
X4597Y44488
X5909Y46457
X5909Y44488
X7222Y46457
X7222Y44488
X8534Y46457
X8534Y44488
X9846Y46457
X9846Y44488
X11159Y46457
X11159Y44488
X12471Y46457
X12471Y44488
X13783Y46457
X13783Y44488
X15096Y46457
X15096Y44488
X16408Y46457
X16408Y44488
X17720Y46457
X17720Y44488
X19033Y46457
X19033Y44488
X20345Y46457
X20345Y44488
X21657Y46457
X21657Y44488
X31495Y46457
X31495Y44488
X32807Y46457
X32807Y44488
X34119Y46457
X34119Y44488
X35432Y46457
X35432Y44488
X36744Y46457
X36744Y44488
X38056Y46457
X38056Y44488
X39369Y46457
X39369Y44488
X40681Y46457
X40681Y44488
X41993Y46457
X41993Y44488
X43306Y46457
X43306Y44488
X44618Y46457
X44618Y44488
X45930Y46457
X45930Y44488
X47243Y46457
X47243Y44488
X48555Y46457
X48555Y44488
T16
X47008Y15531
X47008Y13878
X47008Y12224
X49173Y15531
X49173Y13878
X49173Y12224
T17
X6344Y12633
X15344Y12633
T18
X1772Y6693
X51378Y6693
T19
X10843Y2569
X13118Y2569
T20
X36496Y6663
X36496Y3711
T21
X52047Y15531
X52047Y12224
T22
X1693Y46063
X51457Y46063
T7
X10280Y2982G85X10280Y2549
G05
X10280Y1238G85X10280Y1002
G05
X13681Y2982G85X13681Y2549
G05
X13681Y1238G85X13681Y1002
G05
T9
X18612Y3425G85X19124Y3425
G05
X18612Y551G85X19124Y551
G05
M30
