G04 #@! TF.GenerationSoftware,KiCad,Pcbnew,8.0.2-8.0.2-0~ubuntu22.04.1*
G04 #@! TF.CreationDate,2024-05-08T22:41:19+00:00*
G04 #@! TF.ProjectId,uaefi,75616566-692e-46b6-9963-61645f706362,C*
G04 #@! TF.SameCoordinates,Original*
G04 #@! TF.FileFunction,Legend,Bot*
G04 #@! TF.FilePolarity,Positive*
%FSLAX46Y46*%
G04 Gerber Fmt 4.6, Leading zero omitted, Abs format (unit mm)*
G04 Created by KiCad (PCBNEW 8.0.2-8.0.2-0~ubuntu22.04.1) date 2024-05-08 22:41:19*
%MOMM*%
%LPD*%
G01*
G04 APERTURE LIST*
%ADD10C,0.150000*%
%ADD11C,0.250000*%
%ADD12C,0.127000*%
%ADD13C,0.170000*%
%ADD14C,0.120000*%
%ADD15C,0.200000*%
%ADD16C,0.099060*%
G04 APERTURE END LIST*
D10*
X7616668Y34375000D02*
X7616668Y27975000D01*
X12700000Y42600000D02*
X12700000Y36200000D01*
X10158334Y34375000D02*
X10158334Y27975000D01*
X12700000Y34375000D02*
X12700000Y27975000D01*
X10175000Y42600000D02*
X10175000Y36200000D01*
X7625000Y42625000D02*
X7625000Y36225000D01*
X5075000Y34375000D02*
X5075000Y27975000D01*
X8404819Y45705953D02*
X8404819Y45086906D01*
X8404819Y45086906D02*
X8785771Y45420239D01*
X8785771Y45420239D02*
X8785771Y45277382D01*
X8785771Y45277382D02*
X8833390Y45182144D01*
X8833390Y45182144D02*
X8881009Y45134525D01*
X8881009Y45134525D02*
X8976247Y45086906D01*
X8976247Y45086906D02*
X9214342Y45086906D01*
X9214342Y45086906D02*
X9309580Y45134525D01*
X9309580Y45134525D02*
X9357200Y45182144D01*
X9357200Y45182144D02*
X9404819Y45277382D01*
X9404819Y45277382D02*
X9404819Y45563096D01*
X9404819Y45563096D02*
X9357200Y45658334D01*
X9357200Y45658334D02*
X9309580Y45705953D01*
X9309580Y44658334D02*
X9357200Y44610715D01*
X9357200Y44610715D02*
X9404819Y44658334D01*
X9404819Y44658334D02*
X9357200Y44705953D01*
X9357200Y44705953D02*
X9309580Y44658334D01*
X9309580Y44658334D02*
X9404819Y44658334D01*
X8404819Y44277382D02*
X8404819Y43658335D01*
X8404819Y43658335D02*
X8785771Y43991668D01*
X8785771Y43991668D02*
X8785771Y43848811D01*
X8785771Y43848811D02*
X8833390Y43753573D01*
X8833390Y43753573D02*
X8881009Y43705954D01*
X8881009Y43705954D02*
X8976247Y43658335D01*
X8976247Y43658335D02*
X9214342Y43658335D01*
X9214342Y43658335D02*
X9309580Y43705954D01*
X9309580Y43705954D02*
X9357200Y43753573D01*
X9357200Y43753573D02*
X9404819Y43848811D01*
X9404819Y43848811D02*
X9404819Y44134525D01*
X9404819Y44134525D02*
X9357200Y44229763D01*
X9357200Y44229763D02*
X9309580Y44277382D01*
X93790180Y136588096D02*
X94790180Y136588096D01*
X94075895Y137016667D02*
X94075895Y137492857D01*
X93790180Y136921429D02*
X94790180Y137254762D01*
X94790180Y137254762D02*
X93790180Y137588095D01*
X94790180Y137778572D02*
X94790180Y138350000D01*
X93790180Y138064286D02*
X94790180Y138064286D01*
X80520180Y125394049D02*
X81520180Y125394049D01*
X80520180Y125870239D02*
X81520180Y125870239D01*
X81520180Y125870239D02*
X80520180Y126441667D01*
X80520180Y126441667D02*
X81520180Y126441667D01*
X81520180Y127203572D02*
X80805895Y127203572D01*
X80805895Y127203572D02*
X80663038Y127155953D01*
X80663038Y127155953D02*
X80567800Y127060715D01*
X80567800Y127060715D02*
X80520180Y126917858D01*
X80520180Y126917858D02*
X80520180Y126822620D01*
X81520180Y128108334D02*
X81520180Y127917858D01*
X81520180Y127917858D02*
X81472561Y127822620D01*
X81472561Y127822620D02*
X81424942Y127775001D01*
X81424942Y127775001D02*
X81282085Y127679763D01*
X81282085Y127679763D02*
X81091609Y127632144D01*
X81091609Y127632144D02*
X80710657Y127632144D01*
X80710657Y127632144D02*
X80615419Y127679763D01*
X80615419Y127679763D02*
X80567800Y127727382D01*
X80567800Y127727382D02*
X80520180Y127822620D01*
X80520180Y127822620D02*
X80520180Y128013096D01*
X80520180Y128013096D02*
X80567800Y128108334D01*
X80567800Y128108334D02*
X80615419Y128155953D01*
X80615419Y128155953D02*
X80710657Y128203572D01*
X80710657Y128203572D02*
X80948752Y128203572D01*
X80948752Y128203572D02*
X81043990Y128155953D01*
X81043990Y128155953D02*
X81091609Y128108334D01*
X81091609Y128108334D02*
X81139228Y128013096D01*
X81139228Y128013096D02*
X81139228Y127822620D01*
X81139228Y127822620D02*
X81091609Y127727382D01*
X81091609Y127727382D02*
X81043990Y127679763D01*
X81043990Y127679763D02*
X80948752Y127632144D01*
X25579792Y126754762D02*
X25579792Y126278572D01*
X25579792Y126278572D02*
X26579792Y126278572D01*
X25627412Y127040477D02*
X25579792Y127183334D01*
X25579792Y127183334D02*
X25579792Y127421429D01*
X25579792Y127421429D02*
X25627412Y127516667D01*
X25627412Y127516667D02*
X25675031Y127564286D01*
X25675031Y127564286D02*
X25770269Y127611905D01*
X25770269Y127611905D02*
X25865507Y127611905D01*
X25865507Y127611905D02*
X25960745Y127564286D01*
X25960745Y127564286D02*
X26008364Y127516667D01*
X26008364Y127516667D02*
X26055983Y127421429D01*
X26055983Y127421429D02*
X26103602Y127230953D01*
X26103602Y127230953D02*
X26151221Y127135715D01*
X26151221Y127135715D02*
X26198840Y127088096D01*
X26198840Y127088096D02*
X26294078Y127040477D01*
X26294078Y127040477D02*
X26389316Y127040477D01*
X26389316Y127040477D02*
X26484554Y127088096D01*
X26484554Y127088096D02*
X26532173Y127135715D01*
X26532173Y127135715D02*
X26579792Y127230953D01*
X26579792Y127230953D02*
X26579792Y127469048D01*
X26579792Y127469048D02*
X26532173Y127611905D01*
X26484554Y127992858D02*
X26532173Y128040477D01*
X26532173Y128040477D02*
X26579792Y128135715D01*
X26579792Y128135715D02*
X26579792Y128373810D01*
X26579792Y128373810D02*
X26532173Y128469048D01*
X26532173Y128469048D02*
X26484554Y128516667D01*
X26484554Y128516667D02*
X26389316Y128564286D01*
X26389316Y128564286D02*
X26294078Y128564286D01*
X26294078Y128564286D02*
X26151221Y128516667D01*
X26151221Y128516667D02*
X25579792Y127945239D01*
X25579792Y127945239D02*
X25579792Y128564286D01*
X87204794Y125394049D02*
X88204794Y125394049D01*
X87204794Y125870239D02*
X88204794Y125870239D01*
X88204794Y125870239D02*
X87204794Y126441667D01*
X87204794Y126441667D02*
X88204794Y126441667D01*
X88204794Y127203572D02*
X87490509Y127203572D01*
X87490509Y127203572D02*
X87347652Y127155953D01*
X87347652Y127155953D02*
X87252414Y127060715D01*
X87252414Y127060715D02*
X87204794Y126917858D01*
X87204794Y126917858D02*
X87204794Y126822620D01*
X87871461Y128108334D02*
X87204794Y128108334D01*
X88252414Y127870239D02*
X87538128Y127632144D01*
X87538128Y127632144D02*
X87538128Y128251191D01*
X12070180Y137133334D02*
X12070180Y136657144D01*
X12070180Y136657144D02*
X13070180Y136657144D01*
X12117800Y137419049D02*
X12070180Y137561906D01*
X12070180Y137561906D02*
X12070180Y137800001D01*
X12070180Y137800001D02*
X12117800Y137895239D01*
X12117800Y137895239D02*
X12165419Y137942858D01*
X12165419Y137942858D02*
X12260657Y137990477D01*
X12260657Y137990477D02*
X12355895Y137990477D01*
X12355895Y137990477D02*
X12451133Y137942858D01*
X12451133Y137942858D02*
X12498752Y137895239D01*
X12498752Y137895239D02*
X12546371Y137800001D01*
X12546371Y137800001D02*
X12593990Y137609525D01*
X12593990Y137609525D02*
X12641609Y137514287D01*
X12641609Y137514287D02*
X12689228Y137466668D01*
X12689228Y137466668D02*
X12784466Y137419049D01*
X12784466Y137419049D02*
X12879704Y137419049D01*
X12879704Y137419049D02*
X12974942Y137466668D01*
X12974942Y137466668D02*
X13022561Y137514287D01*
X13022561Y137514287D02*
X13070180Y137609525D01*
X13070180Y137609525D02*
X13070180Y137847620D01*
X13070180Y137847620D02*
X13022561Y137990477D01*
X12070180Y138419049D02*
X13070180Y138419049D01*
X12593990Y138419049D02*
X12593990Y138990477D01*
X12070180Y138990477D02*
X13070180Y138990477D01*
X12974942Y139419049D02*
X13022561Y139466668D01*
X13022561Y139466668D02*
X13070180Y139561906D01*
X13070180Y139561906D02*
X13070180Y139800001D01*
X13070180Y139800001D02*
X13022561Y139895239D01*
X13022561Y139895239D02*
X12974942Y139942858D01*
X12974942Y139942858D02*
X12879704Y139990477D01*
X12879704Y139990477D02*
X12784466Y139990477D01*
X12784466Y139990477D02*
X12641609Y139942858D01*
X12641609Y139942858D02*
X12070180Y139371430D01*
X12070180Y139371430D02*
X12070180Y139990477D01*
X36570632Y126469049D02*
X36618251Y126373811D01*
X36618251Y126373811D02*
X36618251Y126230954D01*
X36618251Y126230954D02*
X36570632Y126088097D01*
X36570632Y126088097D02*
X36475394Y125992859D01*
X36475394Y125992859D02*
X36380156Y125945240D01*
X36380156Y125945240D02*
X36189680Y125897621D01*
X36189680Y125897621D02*
X36046823Y125897621D01*
X36046823Y125897621D02*
X35856347Y125945240D01*
X35856347Y125945240D02*
X35761109Y125992859D01*
X35761109Y125992859D02*
X35665871Y126088097D01*
X35665871Y126088097D02*
X35618251Y126230954D01*
X35618251Y126230954D02*
X35618251Y126326192D01*
X35618251Y126326192D02*
X35665871Y126469049D01*
X35665871Y126469049D02*
X35713490Y126516668D01*
X35713490Y126516668D02*
X36046823Y126516668D01*
X36046823Y126516668D02*
X36046823Y126326192D01*
X35618251Y126945240D02*
X36618251Y126945240D01*
X36618251Y126945240D02*
X35618251Y127516668D01*
X35618251Y127516668D02*
X36618251Y127516668D01*
X35618251Y127992859D02*
X36618251Y127992859D01*
X36618251Y127992859D02*
X36618251Y128230954D01*
X36618251Y128230954D02*
X36570632Y128373811D01*
X36570632Y128373811D02*
X36475394Y128469049D01*
X36475394Y128469049D02*
X36380156Y128516668D01*
X36380156Y128516668D02*
X36189680Y128564287D01*
X36189680Y128564287D02*
X36046823Y128564287D01*
X36046823Y128564287D02*
X35856347Y128516668D01*
X35856347Y128516668D02*
X35761109Y128469049D01*
X35761109Y128469049D02*
X35665871Y128373811D01*
X35665871Y128373811D02*
X35618251Y128230954D01*
X35618251Y128230954D02*
X35618251Y127992859D01*
X3364938Y45753572D02*
X3317319Y45848810D01*
X3317319Y45848810D02*
X3317319Y45991667D01*
X3317319Y45991667D02*
X3364938Y46134524D01*
X3364938Y46134524D02*
X3460176Y46229762D01*
X3460176Y46229762D02*
X3555414Y46277381D01*
X3555414Y46277381D02*
X3745890Y46325000D01*
X3745890Y46325000D02*
X3888747Y46325000D01*
X3888747Y46325000D02*
X4079223Y46277381D01*
X4079223Y46277381D02*
X4174461Y46229762D01*
X4174461Y46229762D02*
X4269700Y46134524D01*
X4269700Y46134524D02*
X4317319Y45991667D01*
X4317319Y45991667D02*
X4317319Y45896429D01*
X4317319Y45896429D02*
X4269700Y45753572D01*
X4269700Y45753572D02*
X4222080Y45705953D01*
X4222080Y45705953D02*
X3888747Y45705953D01*
X3888747Y45705953D02*
X3888747Y45896429D01*
X4317319Y45277381D02*
X3317319Y45277381D01*
X3317319Y45277381D02*
X4317319Y44705953D01*
X4317319Y44705953D02*
X3317319Y44705953D01*
X4317319Y44229762D02*
X3317319Y44229762D01*
X3317319Y44229762D02*
X3317319Y43991667D01*
X3317319Y43991667D02*
X3364938Y43848810D01*
X3364938Y43848810D02*
X3460176Y43753572D01*
X3460176Y43753572D02*
X3555414Y43705953D01*
X3555414Y43705953D02*
X3745890Y43658334D01*
X3745890Y43658334D02*
X3888747Y43658334D01*
X3888747Y43658334D02*
X4079223Y43705953D01*
X4079223Y43705953D02*
X4174461Y43753572D01*
X4174461Y43753572D02*
X4269700Y43848810D01*
X4269700Y43848810D02*
X4317319Y43991667D01*
X4317319Y43991667D02*
X4317319Y44229762D01*
X42310557Y124516668D02*
X43310557Y124516668D01*
X42834367Y124516668D02*
X42834367Y125088096D01*
X42310557Y125088096D02*
X43310557Y125088096D01*
X42596272Y125516668D02*
X42596272Y125992858D01*
X42310557Y125421430D02*
X43310557Y125754763D01*
X43310557Y125754763D02*
X42310557Y126088096D01*
X42310557Y126897620D02*
X42310557Y126421430D01*
X42310557Y126421430D02*
X43310557Y126421430D01*
X42310557Y127707144D02*
X42310557Y127230954D01*
X42310557Y127230954D02*
X43310557Y127230954D01*
X43310557Y127945240D02*
X43310557Y128564287D01*
X43310557Y128564287D02*
X42929605Y128230954D01*
X42929605Y128230954D02*
X42929605Y128373811D01*
X42929605Y128373811D02*
X42881986Y128469049D01*
X42881986Y128469049D02*
X42834367Y128516668D01*
X42834367Y128516668D02*
X42739129Y128564287D01*
X42739129Y128564287D02*
X42501034Y128564287D01*
X42501034Y128564287D02*
X42405796Y128516668D01*
X42405796Y128516668D02*
X42358177Y128469049D01*
X42358177Y128469049D02*
X42310557Y128373811D01*
X42310557Y128373811D02*
X42310557Y128088097D01*
X42310557Y128088097D02*
X42358177Y127992859D01*
X42358177Y127992859D02*
X42405796Y127945240D01*
X25493256Y136657143D02*
X26493256Y136657143D01*
X26493256Y136657143D02*
X26493256Y136895238D01*
X26493256Y136895238D02*
X26445637Y137038095D01*
X26445637Y137038095D02*
X26350399Y137133333D01*
X26350399Y137133333D02*
X26255161Y137180952D01*
X26255161Y137180952D02*
X26064685Y137228571D01*
X26064685Y137228571D02*
X25921828Y137228571D01*
X25921828Y137228571D02*
X25731352Y137180952D01*
X25731352Y137180952D02*
X25636114Y137133333D01*
X25636114Y137133333D02*
X25540876Y137038095D01*
X25540876Y137038095D02*
X25493256Y136895238D01*
X25493256Y136895238D02*
X25493256Y136657143D01*
X25588495Y138228571D02*
X25540876Y138180952D01*
X25540876Y138180952D02*
X25493256Y138038095D01*
X25493256Y138038095D02*
X25493256Y137942857D01*
X25493256Y137942857D02*
X25540876Y137800000D01*
X25540876Y137800000D02*
X25636114Y137704762D01*
X25636114Y137704762D02*
X25731352Y137657143D01*
X25731352Y137657143D02*
X25921828Y137609524D01*
X25921828Y137609524D02*
X26064685Y137609524D01*
X26064685Y137609524D02*
X26255161Y137657143D01*
X26255161Y137657143D02*
X26350399Y137704762D01*
X26350399Y137704762D02*
X26445637Y137800000D01*
X26445637Y137800000D02*
X26493256Y137942857D01*
X26493256Y137942857D02*
X26493256Y138038095D01*
X26493256Y138038095D02*
X26445637Y138180952D01*
X26445637Y138180952D02*
X26398018Y138228571D01*
X26398018Y138609524D02*
X26445637Y138657143D01*
X26445637Y138657143D02*
X26493256Y138752381D01*
X26493256Y138752381D02*
X26493256Y138990476D01*
X26493256Y138990476D02*
X26445637Y139085714D01*
X26445637Y139085714D02*
X26398018Y139133333D01*
X26398018Y139133333D02*
X26302780Y139180952D01*
X26302780Y139180952D02*
X26207542Y139180952D01*
X26207542Y139180952D02*
X26064685Y139133333D01*
X26064685Y139133333D02*
X25493256Y138561905D01*
X25493256Y138561905D02*
X25493256Y139180952D01*
X25874209Y139609524D02*
X25874209Y140371428D01*
X25493256Y139990476D02*
X26255161Y139990476D01*
X35560563Y136657143D02*
X36560563Y136657143D01*
X36560563Y136657143D02*
X36560563Y136895238D01*
X36560563Y136895238D02*
X36512944Y137038095D01*
X36512944Y137038095D02*
X36417706Y137133333D01*
X36417706Y137133333D02*
X36322468Y137180952D01*
X36322468Y137180952D02*
X36131992Y137228571D01*
X36131992Y137228571D02*
X35989135Y137228571D01*
X35989135Y137228571D02*
X35798659Y137180952D01*
X35798659Y137180952D02*
X35703421Y137133333D01*
X35703421Y137133333D02*
X35608183Y137038095D01*
X35608183Y137038095D02*
X35560563Y136895238D01*
X35560563Y136895238D02*
X35560563Y136657143D01*
X35560563Y137657143D02*
X36560563Y137657143D01*
X35608183Y138085714D02*
X35560563Y138228571D01*
X35560563Y138228571D02*
X35560563Y138466666D01*
X35560563Y138466666D02*
X35608183Y138561904D01*
X35608183Y138561904D02*
X35655802Y138609523D01*
X35655802Y138609523D02*
X35751040Y138657142D01*
X35751040Y138657142D02*
X35846278Y138657142D01*
X35846278Y138657142D02*
X35941516Y138609523D01*
X35941516Y138609523D02*
X35989135Y138561904D01*
X35989135Y138561904D02*
X36036754Y138466666D01*
X36036754Y138466666D02*
X36084373Y138276190D01*
X36084373Y138276190D02*
X36131992Y138180952D01*
X36131992Y138180952D02*
X36179611Y138133333D01*
X36179611Y138133333D02*
X36274849Y138085714D01*
X36274849Y138085714D02*
X36370087Y138085714D01*
X36370087Y138085714D02*
X36465325Y138133333D01*
X36465325Y138133333D02*
X36512944Y138180952D01*
X36512944Y138180952D02*
X36560563Y138276190D01*
X36560563Y138276190D02*
X36560563Y138514285D01*
X36560563Y138514285D02*
X36512944Y138657142D01*
X35941516Y139085714D02*
X35941516Y139847618D01*
X35560563Y139466666D02*
X36322468Y139466666D01*
X97215419Y137159525D02*
X97167800Y137111906D01*
X97167800Y137111906D02*
X97120180Y136969049D01*
X97120180Y136969049D02*
X97120180Y136873811D01*
X97120180Y136873811D02*
X97167800Y136730954D01*
X97167800Y136730954D02*
X97263038Y136635716D01*
X97263038Y136635716D02*
X97358276Y136588097D01*
X97358276Y136588097D02*
X97548752Y136540478D01*
X97548752Y136540478D02*
X97691609Y136540478D01*
X97691609Y136540478D02*
X97882085Y136588097D01*
X97882085Y136588097D02*
X97977323Y136635716D01*
X97977323Y136635716D02*
X98072561Y136730954D01*
X98072561Y136730954D02*
X98120180Y136873811D01*
X98120180Y136873811D02*
X98120180Y136969049D01*
X98120180Y136969049D02*
X98072561Y137111906D01*
X98072561Y137111906D02*
X98024942Y137159525D01*
X97120180Y138064287D02*
X97120180Y137588097D01*
X97120180Y137588097D02*
X98120180Y137588097D01*
X98120180Y138254764D02*
X98120180Y138826192D01*
X97120180Y138540478D02*
X98120180Y138540478D01*
X107245180Y136588096D02*
X108245180Y136588096D01*
X107245180Y137159524D02*
X107816609Y136730953D01*
X108245180Y137159524D02*
X107673752Y136588096D01*
X107245180Y137588096D02*
X108245180Y137588096D01*
X108245180Y137588096D02*
X107245180Y138159524D01*
X107245180Y138159524D02*
X108245180Y138159524D01*
X108245180Y138826191D02*
X108245180Y139016667D01*
X108245180Y139016667D02*
X108197561Y139111905D01*
X108197561Y139111905D02*
X108102323Y139207143D01*
X108102323Y139207143D02*
X107911847Y139254762D01*
X107911847Y139254762D02*
X107578514Y139254762D01*
X107578514Y139254762D02*
X107388038Y139207143D01*
X107388038Y139207143D02*
X107292800Y139111905D01*
X107292800Y139111905D02*
X107245180Y139016667D01*
X107245180Y139016667D02*
X107245180Y138826191D01*
X107245180Y138826191D02*
X107292800Y138730953D01*
X107292800Y138730953D02*
X107388038Y138635715D01*
X107388038Y138635715D02*
X107578514Y138588096D01*
X107578514Y138588096D02*
X107911847Y138588096D01*
X107911847Y138588096D02*
X108102323Y138635715D01*
X108102323Y138635715D02*
X108197561Y138730953D01*
X108197561Y138730953D02*
X108245180Y138826191D01*
X107340419Y140254762D02*
X107292800Y140207143D01*
X107292800Y140207143D02*
X107245180Y140064286D01*
X107245180Y140064286D02*
X107245180Y139969048D01*
X107245180Y139969048D02*
X107292800Y139826191D01*
X107292800Y139826191D02*
X107388038Y139730953D01*
X107388038Y139730953D02*
X107483276Y139683334D01*
X107483276Y139683334D02*
X107673752Y139635715D01*
X107673752Y139635715D02*
X107816609Y139635715D01*
X107816609Y139635715D02*
X108007085Y139683334D01*
X108007085Y139683334D02*
X108102323Y139730953D01*
X108102323Y139730953D02*
X108197561Y139826191D01*
X108197561Y139826191D02*
X108245180Y139969048D01*
X108245180Y139969048D02*
X108245180Y140064286D01*
X108245180Y140064286D02*
X108197561Y140207143D01*
X108197561Y140207143D02*
X108149942Y140254762D01*
X107245180Y140683334D02*
X108245180Y140683334D01*
X107245180Y141254762D02*
X107816609Y140826191D01*
X108245180Y141254762D02*
X107673752Y140683334D01*
X39916785Y126469049D02*
X39964404Y126373811D01*
X39964404Y126373811D02*
X39964404Y126230954D01*
X39964404Y126230954D02*
X39916785Y126088097D01*
X39916785Y126088097D02*
X39821547Y125992859D01*
X39821547Y125992859D02*
X39726309Y125945240D01*
X39726309Y125945240D02*
X39535833Y125897621D01*
X39535833Y125897621D02*
X39392976Y125897621D01*
X39392976Y125897621D02*
X39202500Y125945240D01*
X39202500Y125945240D02*
X39107262Y125992859D01*
X39107262Y125992859D02*
X39012024Y126088097D01*
X39012024Y126088097D02*
X38964404Y126230954D01*
X38964404Y126230954D02*
X38964404Y126326192D01*
X38964404Y126326192D02*
X39012024Y126469049D01*
X39012024Y126469049D02*
X39059643Y126516668D01*
X39059643Y126516668D02*
X39392976Y126516668D01*
X39392976Y126516668D02*
X39392976Y126326192D01*
X38964404Y126945240D02*
X39964404Y126945240D01*
X39964404Y126945240D02*
X38964404Y127516668D01*
X38964404Y127516668D02*
X39964404Y127516668D01*
X38964404Y127992859D02*
X39964404Y127992859D01*
X39964404Y127992859D02*
X39964404Y128230954D01*
X39964404Y128230954D02*
X39916785Y128373811D01*
X39916785Y128373811D02*
X39821547Y128469049D01*
X39821547Y128469049D02*
X39726309Y128516668D01*
X39726309Y128516668D02*
X39535833Y128564287D01*
X39535833Y128564287D02*
X39392976Y128564287D01*
X39392976Y128564287D02*
X39202500Y128516668D01*
X39202500Y128516668D02*
X39107262Y128469049D01*
X39107262Y128469049D02*
X39012024Y128373811D01*
X39012024Y128373811D02*
X38964404Y128230954D01*
X38964404Y128230954D02*
X38964404Y127992859D01*
X10948569Y45420239D02*
X10948569Y45896429D01*
X10948569Y45896429D02*
X11424759Y45944048D01*
X11424759Y45944048D02*
X11377140Y45896429D01*
X11377140Y45896429D02*
X11329521Y45801191D01*
X11329521Y45801191D02*
X11329521Y45563096D01*
X11329521Y45563096D02*
X11377140Y45467858D01*
X11377140Y45467858D02*
X11424759Y45420239D01*
X11424759Y45420239D02*
X11519997Y45372620D01*
X11519997Y45372620D02*
X11758092Y45372620D01*
X11758092Y45372620D02*
X11853330Y45420239D01*
X11853330Y45420239D02*
X11900950Y45467858D01*
X11900950Y45467858D02*
X11948569Y45563096D01*
X11948569Y45563096D02*
X11948569Y45801191D01*
X11948569Y45801191D02*
X11900950Y45896429D01*
X11900950Y45896429D02*
X11853330Y45944048D01*
X10948569Y45086905D02*
X11948569Y44753572D01*
X11948569Y44753572D02*
X10948569Y44420239D01*
X11662854Y44134524D02*
X11662854Y43658334D01*
X11948569Y44229762D02*
X10948569Y43896429D01*
X10948569Y43896429D02*
X11948569Y43563096D01*
X45627870Y136704763D02*
X45627870Y136895239D01*
X45627870Y136895239D02*
X45675490Y136990477D01*
X45675490Y136990477D02*
X45723109Y137038096D01*
X45723109Y137038096D02*
X45865966Y137133334D01*
X45865966Y137133334D02*
X46056442Y137180953D01*
X46056442Y137180953D02*
X46437394Y137180953D01*
X46437394Y137180953D02*
X46532632Y137133334D01*
X46532632Y137133334D02*
X46580251Y137085715D01*
X46580251Y137085715D02*
X46627870Y136990477D01*
X46627870Y136990477D02*
X46627870Y136800001D01*
X46627870Y136800001D02*
X46580251Y136704763D01*
X46580251Y136704763D02*
X46532632Y136657144D01*
X46532632Y136657144D02*
X46437394Y136609525D01*
X46437394Y136609525D02*
X46199299Y136609525D01*
X46199299Y136609525D02*
X46104061Y136657144D01*
X46104061Y136657144D02*
X46056442Y136704763D01*
X46056442Y136704763D02*
X46008823Y136800001D01*
X46008823Y136800001D02*
X46008823Y136990477D01*
X46008823Y136990477D02*
X46056442Y137085715D01*
X46056442Y137085715D02*
X46104061Y137133334D01*
X46104061Y137133334D02*
X46199299Y137180953D01*
X45627870Y137657144D02*
X45627870Y137847620D01*
X45627870Y137847620D02*
X45675490Y137942858D01*
X45675490Y137942858D02*
X45723109Y137990477D01*
X45723109Y137990477D02*
X45865966Y138085715D01*
X45865966Y138085715D02*
X46056442Y138133334D01*
X46056442Y138133334D02*
X46437394Y138133334D01*
X46437394Y138133334D02*
X46532632Y138085715D01*
X46532632Y138085715D02*
X46580251Y138038096D01*
X46580251Y138038096D02*
X46627870Y137942858D01*
X46627870Y137942858D02*
X46627870Y137752382D01*
X46627870Y137752382D02*
X46580251Y137657144D01*
X46580251Y137657144D02*
X46532632Y137609525D01*
X46532632Y137609525D02*
X46437394Y137561906D01*
X46437394Y137561906D02*
X46199299Y137561906D01*
X46199299Y137561906D02*
X46104061Y137609525D01*
X46104061Y137609525D02*
X46056442Y137657144D01*
X46056442Y137657144D02*
X46008823Y137752382D01*
X46008823Y137752382D02*
X46008823Y137942858D01*
X46008823Y137942858D02*
X46056442Y138038096D01*
X46056442Y138038096D02*
X46104061Y138085715D01*
X46104061Y138085715D02*
X46199299Y138133334D01*
X46532632Y138514287D02*
X46580251Y138561906D01*
X46580251Y138561906D02*
X46627870Y138657144D01*
X46627870Y138657144D02*
X46627870Y138895239D01*
X46627870Y138895239D02*
X46580251Y138990477D01*
X46580251Y138990477D02*
X46532632Y139038096D01*
X46532632Y139038096D02*
X46437394Y139085715D01*
X46437394Y139085715D02*
X46342156Y139085715D01*
X46342156Y139085715D02*
X46199299Y139038096D01*
X46199299Y139038096D02*
X45627870Y138466668D01*
X45627870Y138466668D02*
X45627870Y139085715D01*
X46294537Y139942858D02*
X45627870Y139942858D01*
X46675490Y139704763D02*
X45961204Y139466668D01*
X45961204Y139466668D02*
X45961204Y140085715D01*
X46008823Y140466668D02*
X46008823Y141228572D01*
X101097832Y125203572D02*
X101050213Y125346429D01*
X101050213Y125346429D02*
X101002594Y125394048D01*
X101002594Y125394048D02*
X100907356Y125441667D01*
X100907356Y125441667D02*
X100764499Y125441667D01*
X100764499Y125441667D02*
X100669261Y125394048D01*
X100669261Y125394048D02*
X100621642Y125346429D01*
X100621642Y125346429D02*
X100574022Y125251191D01*
X100574022Y125251191D02*
X100574022Y124870239D01*
X100574022Y124870239D02*
X101574022Y124870239D01*
X101574022Y124870239D02*
X101574022Y125203572D01*
X101574022Y125203572D02*
X101526403Y125298810D01*
X101526403Y125298810D02*
X101478784Y125346429D01*
X101478784Y125346429D02*
X101383546Y125394048D01*
X101383546Y125394048D02*
X101288308Y125394048D01*
X101288308Y125394048D02*
X101193070Y125346429D01*
X101193070Y125346429D02*
X101145451Y125298810D01*
X101145451Y125298810D02*
X101097832Y125203572D01*
X101097832Y125203572D02*
X101097832Y124870239D01*
X101574022Y125727382D02*
X101574022Y126298810D01*
X100574022Y126013096D02*
X101574022Y126013096D01*
X100574022Y126632144D02*
X101574022Y126632144D01*
X101574022Y126632144D02*
X100574022Y127203572D01*
X100574022Y127203572D02*
X101574022Y127203572D01*
X101574022Y127584525D02*
X101574022Y128203572D01*
X101574022Y128203572D02*
X101193070Y127870239D01*
X101193070Y127870239D02*
X101193070Y128013096D01*
X101193070Y128013096D02*
X101145451Y128108334D01*
X101145451Y128108334D02*
X101097832Y128155953D01*
X101097832Y128155953D02*
X101002594Y128203572D01*
X101002594Y128203572D02*
X100764499Y128203572D01*
X100764499Y128203572D02*
X100669261Y128155953D01*
X100669261Y128155953D02*
X100621642Y128108334D01*
X100621642Y128108334D02*
X100574022Y128013096D01*
X100574022Y128013096D02*
X100574022Y127727382D01*
X100574022Y127727382D02*
X100621642Y127632144D01*
X100621642Y127632144D02*
X100669261Y127584525D01*
X55980895Y136609524D02*
X55980895Y137085714D01*
X55695180Y136514286D02*
X56695180Y136847619D01*
X56695180Y136847619D02*
X55695180Y137180952D01*
X56695180Y137514286D02*
X55885657Y137514286D01*
X55885657Y137514286D02*
X55790419Y137561905D01*
X55790419Y137561905D02*
X55742800Y137609524D01*
X55742800Y137609524D02*
X55695180Y137704762D01*
X55695180Y137704762D02*
X55695180Y137895238D01*
X55695180Y137895238D02*
X55742800Y137990476D01*
X55742800Y137990476D02*
X55790419Y138038095D01*
X55790419Y138038095D02*
X55885657Y138085714D01*
X55885657Y138085714D02*
X56695180Y138085714D01*
X56695180Y138466667D02*
X55695180Y139133333D01*
X56695180Y139133333D02*
X55695180Y138466667D01*
X56599942Y139466667D02*
X56647561Y139514286D01*
X56647561Y139514286D02*
X56695180Y139609524D01*
X56695180Y139609524D02*
X56695180Y139847619D01*
X56695180Y139847619D02*
X56647561Y139942857D01*
X56647561Y139942857D02*
X56599942Y139990476D01*
X56599942Y139990476D02*
X56504704Y140038095D01*
X56504704Y140038095D02*
X56409466Y140038095D01*
X56409466Y140038095D02*
X56266609Y139990476D01*
X56266609Y139990476D02*
X55695180Y139419048D01*
X55695180Y139419048D02*
X55695180Y140038095D01*
X88130180Y136445240D02*
X88130180Y137016668D01*
X87130180Y136730954D02*
X88130180Y136730954D01*
X87130180Y137350002D02*
X88130180Y137350002D01*
X88130180Y137350002D02*
X88130180Y137730954D01*
X88130180Y137730954D02*
X88082561Y137826192D01*
X88082561Y137826192D02*
X88034942Y137873811D01*
X88034942Y137873811D02*
X87939704Y137921430D01*
X87939704Y137921430D02*
X87796847Y137921430D01*
X87796847Y137921430D02*
X87701609Y137873811D01*
X87701609Y137873811D02*
X87653990Y137826192D01*
X87653990Y137826192D02*
X87606371Y137730954D01*
X87606371Y137730954D02*
X87606371Y137350002D01*
X87177800Y138302383D02*
X87130180Y138445240D01*
X87130180Y138445240D02*
X87130180Y138683335D01*
X87130180Y138683335D02*
X87177800Y138778573D01*
X87177800Y138778573D02*
X87225419Y138826192D01*
X87225419Y138826192D02*
X87320657Y138873811D01*
X87320657Y138873811D02*
X87415895Y138873811D01*
X87415895Y138873811D02*
X87511133Y138826192D01*
X87511133Y138826192D02*
X87558752Y138778573D01*
X87558752Y138778573D02*
X87606371Y138683335D01*
X87606371Y138683335D02*
X87653990Y138492859D01*
X87653990Y138492859D02*
X87701609Y138397621D01*
X87701609Y138397621D02*
X87749228Y138350002D01*
X87749228Y138350002D02*
X87844466Y138302383D01*
X87844466Y138302383D02*
X87939704Y138302383D01*
X87939704Y138302383D02*
X88034942Y138350002D01*
X88034942Y138350002D02*
X88082561Y138397621D01*
X88082561Y138397621D02*
X88130180Y138492859D01*
X88130180Y138492859D02*
X88130180Y138730954D01*
X88130180Y138730954D02*
X88082561Y138873811D01*
X87130180Y139826192D02*
X87130180Y139254764D01*
X87130180Y139540478D02*
X88130180Y139540478D01*
X88130180Y139540478D02*
X87987323Y139445240D01*
X87987323Y139445240D02*
X87892085Y139350002D01*
X87892085Y139350002D02*
X87844466Y139254764D01*
X48983639Y136657144D02*
X49983639Y136657144D01*
X49507449Y136657144D02*
X49507449Y137228572D01*
X48983639Y137228572D02*
X49983639Y137228572D01*
X49269354Y137657144D02*
X49269354Y138133334D01*
X48983639Y137561906D02*
X49983639Y137895239D01*
X49983639Y137895239D02*
X48983639Y138228572D01*
X48983639Y139038096D02*
X48983639Y138561906D01*
X48983639Y138561906D02*
X49983639Y138561906D01*
X48983639Y139847620D02*
X48983639Y139371430D01*
X48983639Y139371430D02*
X49983639Y139371430D01*
X48983639Y140704763D02*
X48983639Y140133335D01*
X48983639Y140419049D02*
X49983639Y140419049D01*
X49983639Y140419049D02*
X49840782Y140323811D01*
X49840782Y140323811D02*
X49745544Y140228573D01*
X49745544Y140228573D02*
X49697925Y140133335D01*
X101472561Y137111905D02*
X101520180Y137016667D01*
X101520180Y137016667D02*
X101520180Y136873810D01*
X101520180Y136873810D02*
X101472561Y136730953D01*
X101472561Y136730953D02*
X101377323Y136635715D01*
X101377323Y136635715D02*
X101282085Y136588096D01*
X101282085Y136588096D02*
X101091609Y136540477D01*
X101091609Y136540477D02*
X100948752Y136540477D01*
X100948752Y136540477D02*
X100758276Y136588096D01*
X100758276Y136588096D02*
X100663038Y136635715D01*
X100663038Y136635715D02*
X100567800Y136730953D01*
X100567800Y136730953D02*
X100520180Y136873810D01*
X100520180Y136873810D02*
X100520180Y136969048D01*
X100520180Y136969048D02*
X100567800Y137111905D01*
X100567800Y137111905D02*
X100615419Y137159524D01*
X100615419Y137159524D02*
X100948752Y137159524D01*
X100948752Y137159524D02*
X100948752Y136969048D01*
X100520180Y137588096D02*
X101520180Y137588096D01*
X101520180Y137588096D02*
X100520180Y138159524D01*
X100520180Y138159524D02*
X101520180Y138159524D01*
X100520180Y138635715D02*
X101520180Y138635715D01*
X101520180Y138635715D02*
X101520180Y138873810D01*
X101520180Y138873810D02*
X101472561Y139016667D01*
X101472561Y139016667D02*
X101377323Y139111905D01*
X101377323Y139111905D02*
X101282085Y139159524D01*
X101282085Y139159524D02*
X101091609Y139207143D01*
X101091609Y139207143D02*
X100948752Y139207143D01*
X100948752Y139207143D02*
X100758276Y139159524D01*
X100758276Y139159524D02*
X100663038Y139111905D01*
X100663038Y139111905D02*
X100567800Y139016667D01*
X100567800Y139016667D02*
X100520180Y138873810D01*
X100520180Y138873810D02*
X100520180Y138635715D01*
X100805895Y139588096D02*
X100805895Y140064286D01*
X100520180Y139492858D02*
X101520180Y139826191D01*
X101520180Y139826191D02*
X100520180Y140159524D01*
D11*
X111455100Y32150188D02*
X111455100Y32864473D01*
X111026529Y32007331D02*
X112526529Y32507331D01*
X112526529Y32507331D02*
X111026529Y33007331D01*
X111026529Y33721616D02*
X111097958Y33578759D01*
X111097958Y33578759D02*
X111240815Y33507330D01*
X111240815Y33507330D02*
X112526529Y33507330D01*
X112026529Y34150187D02*
X111026529Y34435901D01*
X111026529Y34435901D02*
X111740815Y34721616D01*
X111740815Y34721616D02*
X111026529Y35007330D01*
X111026529Y35007330D02*
X112026529Y35293044D01*
X111026529Y36507330D02*
X111812243Y36507330D01*
X111812243Y36507330D02*
X111955100Y36435902D01*
X111955100Y36435902D02*
X112026529Y36293045D01*
X112026529Y36293045D02*
X112026529Y36007330D01*
X112026529Y36007330D02*
X111955100Y35864473D01*
X111097958Y36507330D02*
X111026529Y36364473D01*
X111026529Y36364473D02*
X111026529Y36007330D01*
X111026529Y36007330D02*
X111097958Y35864473D01*
X111097958Y35864473D02*
X111240815Y35793045D01*
X111240815Y35793045D02*
X111383672Y35793045D01*
X111383672Y35793045D02*
X111526529Y35864473D01*
X111526529Y35864473D02*
X111597958Y36007330D01*
X111597958Y36007330D02*
X111597958Y36364473D01*
X111597958Y36364473D02*
X111669386Y36507330D01*
X112026529Y37078759D02*
X111026529Y37435902D01*
X112026529Y37793045D02*
X111026529Y37435902D01*
X111026529Y37435902D02*
X110669386Y37293045D01*
X110669386Y37293045D02*
X110597958Y37221616D01*
X110597958Y37221616D02*
X110526529Y37078759D01*
X111097958Y38293045D02*
X111026529Y38435902D01*
X111026529Y38435902D02*
X111026529Y38721616D01*
X111026529Y38721616D02*
X111097958Y38864473D01*
X111097958Y38864473D02*
X111240815Y38935902D01*
X111240815Y38935902D02*
X111312243Y38935902D01*
X111312243Y38935902D02*
X111455100Y38864473D01*
X111455100Y38864473D02*
X111526529Y38721616D01*
X111526529Y38721616D02*
X111526529Y38507330D01*
X111526529Y38507330D02*
X111597958Y38364473D01*
X111597958Y38364473D02*
X111740815Y38293045D01*
X111740815Y38293045D02*
X111812243Y38293045D01*
X111812243Y38293045D02*
X111955100Y38364473D01*
X111955100Y38364473D02*
X112026529Y38507330D01*
X112026529Y38507330D02*
X112026529Y38721616D01*
X112026529Y38721616D02*
X111955100Y38864473D01*
X111026529Y40935902D02*
X111097958Y40793045D01*
X111097958Y40793045D02*
X111240815Y40721616D01*
X111240815Y40721616D02*
X112526529Y40721616D01*
X111026529Y41721616D02*
X111097958Y41578759D01*
X111097958Y41578759D02*
X111169386Y41507330D01*
X111169386Y41507330D02*
X111312243Y41435902D01*
X111312243Y41435902D02*
X111740815Y41435902D01*
X111740815Y41435902D02*
X111883672Y41507330D01*
X111883672Y41507330D02*
X111955100Y41578759D01*
X111955100Y41578759D02*
X112026529Y41721616D01*
X112026529Y41721616D02*
X112026529Y41935902D01*
X112026529Y41935902D02*
X111955100Y42078759D01*
X111955100Y42078759D02*
X111883672Y42150187D01*
X111883672Y42150187D02*
X111740815Y42221616D01*
X111740815Y42221616D02*
X111312243Y42221616D01*
X111312243Y42221616D02*
X111169386Y42150187D01*
X111169386Y42150187D02*
X111097958Y42078759D01*
X111097958Y42078759D02*
X111026529Y41935902D01*
X111026529Y41935902D02*
X111026529Y41721616D01*
X111026529Y43078759D02*
X111097958Y42935902D01*
X111097958Y42935902D02*
X111169386Y42864473D01*
X111169386Y42864473D02*
X111312243Y42793045D01*
X111312243Y42793045D02*
X111740815Y42793045D01*
X111740815Y42793045D02*
X111883672Y42864473D01*
X111883672Y42864473D02*
X111955100Y42935902D01*
X111955100Y42935902D02*
X112026529Y43078759D01*
X112026529Y43078759D02*
X112026529Y43293045D01*
X112026529Y43293045D02*
X111955100Y43435902D01*
X111955100Y43435902D02*
X111883672Y43507330D01*
X111883672Y43507330D02*
X111740815Y43578759D01*
X111740815Y43578759D02*
X111312243Y43578759D01*
X111312243Y43578759D02*
X111169386Y43507330D01*
X111169386Y43507330D02*
X111097958Y43435902D01*
X111097958Y43435902D02*
X111026529Y43293045D01*
X111026529Y43293045D02*
X111026529Y43078759D01*
X111026529Y44221616D02*
X112526529Y44221616D01*
X111597958Y44364473D02*
X111026529Y44793045D01*
X112026529Y44793045D02*
X111455100Y44221616D01*
X111026529Y45435902D02*
X112026529Y45435902D01*
X112526529Y45435902D02*
X112455100Y45364474D01*
X112455100Y45364474D02*
X112383672Y45435902D01*
X112383672Y45435902D02*
X112455100Y45507331D01*
X112455100Y45507331D02*
X112526529Y45435902D01*
X112526529Y45435902D02*
X112383672Y45435902D01*
X112026529Y46150188D02*
X111026529Y46150188D01*
X111883672Y46150188D02*
X111955100Y46221617D01*
X111955100Y46221617D02*
X112026529Y46364474D01*
X112026529Y46364474D02*
X112026529Y46578760D01*
X112026529Y46578760D02*
X111955100Y46721617D01*
X111955100Y46721617D02*
X111812243Y46793045D01*
X111812243Y46793045D02*
X111026529Y46793045D01*
X112026529Y48150188D02*
X110812243Y48150188D01*
X110812243Y48150188D02*
X110669386Y48078760D01*
X110669386Y48078760D02*
X110597958Y48007331D01*
X110597958Y48007331D02*
X110526529Y47864474D01*
X110526529Y47864474D02*
X110526529Y47650188D01*
X110526529Y47650188D02*
X110597958Y47507331D01*
X111097958Y48150188D02*
X111026529Y48007331D01*
X111026529Y48007331D02*
X111026529Y47721617D01*
X111026529Y47721617D02*
X111097958Y47578760D01*
X111097958Y47578760D02*
X111169386Y47507331D01*
X111169386Y47507331D02*
X111312243Y47435903D01*
X111312243Y47435903D02*
X111740815Y47435903D01*
X111740815Y47435903D02*
X111883672Y47507331D01*
X111883672Y47507331D02*
X111955100Y47578760D01*
X111955100Y47578760D02*
X112026529Y47721617D01*
X112026529Y47721617D02*
X112026529Y48007331D01*
X112026529Y48007331D02*
X111955100Y48150188D01*
X112026529Y49793046D02*
X112026529Y50364474D01*
X111026529Y50007331D02*
X112312243Y50007331D01*
X112312243Y50007331D02*
X112455100Y50078760D01*
X112455100Y50078760D02*
X112526529Y50221617D01*
X112526529Y50221617D02*
X112526529Y50364474D01*
X111026529Y51078760D02*
X111097958Y50935903D01*
X111097958Y50935903D02*
X111169386Y50864474D01*
X111169386Y50864474D02*
X111312243Y50793046D01*
X111312243Y50793046D02*
X111740815Y50793046D01*
X111740815Y50793046D02*
X111883672Y50864474D01*
X111883672Y50864474D02*
X111955100Y50935903D01*
X111955100Y50935903D02*
X112026529Y51078760D01*
X112026529Y51078760D02*
X112026529Y51293046D01*
X112026529Y51293046D02*
X111955100Y51435903D01*
X111955100Y51435903D02*
X111883672Y51507331D01*
X111883672Y51507331D02*
X111740815Y51578760D01*
X111740815Y51578760D02*
X111312243Y51578760D01*
X111312243Y51578760D02*
X111169386Y51507331D01*
X111169386Y51507331D02*
X111097958Y51435903D01*
X111097958Y51435903D02*
X111026529Y51293046D01*
X111026529Y51293046D02*
X111026529Y51078760D01*
X111026529Y52221617D02*
X112026529Y52221617D01*
X111740815Y52221617D02*
X111883672Y52293046D01*
X111883672Y52293046D02*
X111955100Y52364474D01*
X111955100Y52364474D02*
X112026529Y52507332D01*
X112026529Y52507332D02*
X112026529Y52650189D01*
X111169386Y55150188D02*
X111097958Y55078760D01*
X111097958Y55078760D02*
X111026529Y54864474D01*
X111026529Y54864474D02*
X111026529Y54721617D01*
X111026529Y54721617D02*
X111097958Y54507331D01*
X111097958Y54507331D02*
X111240815Y54364474D01*
X111240815Y54364474D02*
X111383672Y54293045D01*
X111383672Y54293045D02*
X111669386Y54221617D01*
X111669386Y54221617D02*
X111883672Y54221617D01*
X111883672Y54221617D02*
X112169386Y54293045D01*
X112169386Y54293045D02*
X112312243Y54364474D01*
X112312243Y54364474D02*
X112455100Y54507331D01*
X112455100Y54507331D02*
X112526529Y54721617D01*
X112526529Y54721617D02*
X112526529Y54864474D01*
X112526529Y54864474D02*
X112455100Y55078760D01*
X112455100Y55078760D02*
X112383672Y55150188D01*
X112597958Y56864474D02*
X110669386Y55578760D01*
X111169386Y58221617D02*
X111097958Y58150189D01*
X111097958Y58150189D02*
X111026529Y57935903D01*
X111026529Y57935903D02*
X111026529Y57793046D01*
X111026529Y57793046D02*
X111097958Y57578760D01*
X111097958Y57578760D02*
X111240815Y57435903D01*
X111240815Y57435903D02*
X111383672Y57364474D01*
X111383672Y57364474D02*
X111669386Y57293046D01*
X111669386Y57293046D02*
X111883672Y57293046D01*
X111883672Y57293046D02*
X112169386Y57364474D01*
X112169386Y57364474D02*
X112312243Y57435903D01*
X112312243Y57435903D02*
X112455100Y57578760D01*
X112455100Y57578760D02*
X112526529Y57793046D01*
X112526529Y57793046D02*
X112526529Y57935903D01*
X112526529Y57935903D02*
X112455100Y58150189D01*
X112455100Y58150189D02*
X112383672Y58221617D01*
X111597958Y58864474D02*
X111597958Y60007331D01*
X111026529Y59435903D02*
X112169386Y59435903D01*
X111597958Y60721617D02*
X111597958Y61864474D01*
X111026529Y61293046D02*
X112169386Y61293046D01*
X112597958Y63650189D02*
X110669386Y62364475D01*
X111026529Y64150189D02*
X112526529Y64150189D01*
X112526529Y64150189D02*
X112526529Y64721618D01*
X112526529Y64721618D02*
X112455100Y64864475D01*
X112455100Y64864475D02*
X112383672Y64935904D01*
X112383672Y64935904D02*
X112240815Y65007332D01*
X112240815Y65007332D02*
X112026529Y65007332D01*
X112026529Y65007332D02*
X111883672Y64935904D01*
X111883672Y64935904D02*
X111812243Y64864475D01*
X111812243Y64864475D02*
X111740815Y64721618D01*
X111740815Y64721618D02*
X111740815Y64150189D01*
X111026529Y65650189D02*
X112526529Y65650189D01*
X111812243Y65650189D02*
X111812243Y66507332D01*
X111026529Y66507332D02*
X112526529Y66507332D01*
X111026529Y67221618D02*
X112526529Y67221618D01*
X112526529Y67221618D02*
X112526529Y67793047D01*
X112526529Y67793047D02*
X112455100Y67935904D01*
X112455100Y67935904D02*
X112383672Y68007333D01*
X112383672Y68007333D02*
X112240815Y68078761D01*
X112240815Y68078761D02*
X112026529Y68078761D01*
X112026529Y68078761D02*
X111883672Y68007333D01*
X111883672Y68007333D02*
X111812243Y67935904D01*
X111812243Y67935904D02*
X111740815Y67793047D01*
X111740815Y67793047D02*
X111740815Y67221618D01*
X112597958Y69793047D02*
X110669386Y68507333D01*
X112526529Y70721619D02*
X111455100Y70721619D01*
X111455100Y70721619D02*
X111240815Y70650190D01*
X111240815Y70650190D02*
X111097958Y70507333D01*
X111097958Y70507333D02*
X111026529Y70293047D01*
X111026529Y70293047D02*
X111026529Y70150190D01*
X111026529Y72078761D02*
X111812243Y72078761D01*
X111812243Y72078761D02*
X111955100Y72007333D01*
X111955100Y72007333D02*
X112026529Y71864476D01*
X112026529Y71864476D02*
X112026529Y71578761D01*
X112026529Y71578761D02*
X111955100Y71435904D01*
X111097958Y72078761D02*
X111026529Y71935904D01*
X111026529Y71935904D02*
X111026529Y71578761D01*
X111026529Y71578761D02*
X111097958Y71435904D01*
X111097958Y71435904D02*
X111240815Y71364476D01*
X111240815Y71364476D02*
X111383672Y71364476D01*
X111383672Y71364476D02*
X111526529Y71435904D01*
X111526529Y71435904D02*
X111597958Y71578761D01*
X111597958Y71578761D02*
X111597958Y71935904D01*
X111597958Y71935904D02*
X111669386Y72078761D01*
X112026529Y72650190D02*
X111026529Y73007333D01*
X111026529Y73007333D02*
X112026529Y73364476D01*
X111026529Y74578761D02*
X111812243Y74578761D01*
X111812243Y74578761D02*
X111955100Y74507333D01*
X111955100Y74507333D02*
X112026529Y74364476D01*
X112026529Y74364476D02*
X112026529Y74078761D01*
X112026529Y74078761D02*
X111955100Y73935904D01*
X111097958Y74578761D02*
X111026529Y74435904D01*
X111026529Y74435904D02*
X111026529Y74078761D01*
X111026529Y74078761D02*
X111097958Y73935904D01*
X111097958Y73935904D02*
X111240815Y73864476D01*
X111240815Y73864476D02*
X111383672Y73864476D01*
X111383672Y73864476D02*
X111526529Y73935904D01*
X111526529Y73935904D02*
X111597958Y74078761D01*
X111597958Y74078761D02*
X111597958Y74435904D01*
X111597958Y74435904D02*
X111669386Y74578761D01*
X111026529Y77078761D02*
X112526529Y77078761D01*
X111097958Y77078761D02*
X111026529Y76935904D01*
X111026529Y76935904D02*
X111026529Y76650190D01*
X111026529Y76650190D02*
X111097958Y76507333D01*
X111097958Y76507333D02*
X111169386Y76435904D01*
X111169386Y76435904D02*
X111312243Y76364476D01*
X111312243Y76364476D02*
X111740815Y76364476D01*
X111740815Y76364476D02*
X111883672Y76435904D01*
X111883672Y76435904D02*
X111955100Y76507333D01*
X111955100Y76507333D02*
X112026529Y76650190D01*
X112026529Y76650190D02*
X112026529Y76935904D01*
X112026529Y76935904D02*
X111955100Y77078761D01*
X111097958Y78364476D02*
X111026529Y78221619D01*
X111026529Y78221619D02*
X111026529Y77935904D01*
X111026529Y77935904D02*
X111097958Y77793047D01*
X111097958Y77793047D02*
X111240815Y77721619D01*
X111240815Y77721619D02*
X111812243Y77721619D01*
X111812243Y77721619D02*
X111955100Y77793047D01*
X111955100Y77793047D02*
X112026529Y77935904D01*
X112026529Y77935904D02*
X112026529Y78221619D01*
X112026529Y78221619D02*
X111955100Y78364476D01*
X111955100Y78364476D02*
X111812243Y78435904D01*
X111812243Y78435904D02*
X111669386Y78435904D01*
X111669386Y78435904D02*
X111526529Y77721619D01*
X112026529Y78935904D02*
X111026529Y79293047D01*
X111026529Y79293047D02*
X112026529Y79650190D01*
X111097958Y80793047D02*
X111026529Y80650190D01*
X111026529Y80650190D02*
X111026529Y80364475D01*
X111026529Y80364475D02*
X111097958Y80221618D01*
X111097958Y80221618D02*
X111240815Y80150190D01*
X111240815Y80150190D02*
X111812243Y80150190D01*
X111812243Y80150190D02*
X111955100Y80221618D01*
X111955100Y80221618D02*
X112026529Y80364475D01*
X112026529Y80364475D02*
X112026529Y80650190D01*
X112026529Y80650190D02*
X111955100Y80793047D01*
X111955100Y80793047D02*
X111812243Y80864475D01*
X111812243Y80864475D02*
X111669386Y80864475D01*
X111669386Y80864475D02*
X111526529Y80150190D01*
X111026529Y81721618D02*
X111097958Y81578761D01*
X111097958Y81578761D02*
X111240815Y81507332D01*
X111240815Y81507332D02*
X112526529Y81507332D01*
X111026529Y82507332D02*
X111097958Y82364475D01*
X111097958Y82364475D02*
X111169386Y82293046D01*
X111169386Y82293046D02*
X111312243Y82221618D01*
X111312243Y82221618D02*
X111740815Y82221618D01*
X111740815Y82221618D02*
X111883672Y82293046D01*
X111883672Y82293046D02*
X111955100Y82364475D01*
X111955100Y82364475D02*
X112026529Y82507332D01*
X112026529Y82507332D02*
X112026529Y82721618D01*
X112026529Y82721618D02*
X111955100Y82864475D01*
X111955100Y82864475D02*
X111883672Y82935903D01*
X111883672Y82935903D02*
X111740815Y83007332D01*
X111740815Y83007332D02*
X111312243Y83007332D01*
X111312243Y83007332D02*
X111169386Y82935903D01*
X111169386Y82935903D02*
X111097958Y82864475D01*
X111097958Y82864475D02*
X111026529Y82721618D01*
X111026529Y82721618D02*
X111026529Y82507332D01*
X112026529Y83650189D02*
X110526529Y83650189D01*
X111955100Y83650189D02*
X112026529Y83793046D01*
X112026529Y83793046D02*
X112026529Y84078761D01*
X112026529Y84078761D02*
X111955100Y84221618D01*
X111955100Y84221618D02*
X111883672Y84293046D01*
X111883672Y84293046D02*
X111740815Y84364475D01*
X111740815Y84364475D02*
X111312243Y84364475D01*
X111312243Y84364475D02*
X111169386Y84293046D01*
X111169386Y84293046D02*
X111097958Y84221618D01*
X111097958Y84221618D02*
X111026529Y84078761D01*
X111026529Y84078761D02*
X111026529Y83793046D01*
X111026529Y83793046D02*
X111097958Y83650189D01*
X111097958Y85578761D02*
X111026529Y85435904D01*
X111026529Y85435904D02*
X111026529Y85150189D01*
X111026529Y85150189D02*
X111097958Y85007332D01*
X111097958Y85007332D02*
X111240815Y84935904D01*
X111240815Y84935904D02*
X111812243Y84935904D01*
X111812243Y84935904D02*
X111955100Y85007332D01*
X111955100Y85007332D02*
X112026529Y85150189D01*
X112026529Y85150189D02*
X112026529Y85435904D01*
X112026529Y85435904D02*
X111955100Y85578761D01*
X111955100Y85578761D02*
X111812243Y85650189D01*
X111812243Y85650189D02*
X111669386Y85650189D01*
X111669386Y85650189D02*
X111526529Y84935904D01*
X111026529Y86293046D02*
X112026529Y86293046D01*
X111740815Y86293046D02*
X111883672Y86364475D01*
X111883672Y86364475D02*
X111955100Y86435903D01*
X111955100Y86435903D02*
X112026529Y86578761D01*
X112026529Y86578761D02*
X112026529Y86721618D01*
X111097958Y87150189D02*
X111026529Y87293046D01*
X111026529Y87293046D02*
X111026529Y87578760D01*
X111026529Y87578760D02*
X111097958Y87721617D01*
X111097958Y87721617D02*
X111240815Y87793046D01*
X111240815Y87793046D02*
X111312243Y87793046D01*
X111312243Y87793046D02*
X111455100Y87721617D01*
X111455100Y87721617D02*
X111526529Y87578760D01*
X111526529Y87578760D02*
X111526529Y87364474D01*
X111526529Y87364474D02*
X111597958Y87221617D01*
X111597958Y87221617D02*
X111740815Y87150189D01*
X111740815Y87150189D02*
X111812243Y87150189D01*
X111812243Y87150189D02*
X111955100Y87221617D01*
X111955100Y87221617D02*
X112026529Y87364474D01*
X112026529Y87364474D02*
X112026529Y87578760D01*
X112026529Y87578760D02*
X111955100Y87721617D01*
X108611613Y32221616D02*
X110111613Y32221616D01*
X108611613Y32864473D02*
X109397327Y32864473D01*
X109397327Y32864473D02*
X109540184Y32793045D01*
X109540184Y32793045D02*
X109611613Y32650188D01*
X109611613Y32650188D02*
X109611613Y32435902D01*
X109611613Y32435902D02*
X109540184Y32293045D01*
X109540184Y32293045D02*
X109468756Y32221616D01*
X109611613Y33364474D02*
X109611613Y33935902D01*
X110111613Y33578759D02*
X108825899Y33578759D01*
X108825899Y33578759D02*
X108683042Y33650188D01*
X108683042Y33650188D02*
X108611613Y33793045D01*
X108611613Y33793045D02*
X108611613Y33935902D01*
X109611613Y34221617D02*
X109611613Y34793045D01*
X110111613Y34435902D02*
X108825899Y34435902D01*
X108825899Y34435902D02*
X108683042Y34507331D01*
X108683042Y34507331D02*
X108611613Y34650188D01*
X108611613Y34650188D02*
X108611613Y34793045D01*
X109611613Y35293045D02*
X108111613Y35293045D01*
X109540184Y35293045D02*
X109611613Y35435902D01*
X109611613Y35435902D02*
X109611613Y35721617D01*
X109611613Y35721617D02*
X109540184Y35864474D01*
X109540184Y35864474D02*
X109468756Y35935902D01*
X109468756Y35935902D02*
X109325899Y36007331D01*
X109325899Y36007331D02*
X108897327Y36007331D01*
X108897327Y36007331D02*
X108754470Y35935902D01*
X108754470Y35935902D02*
X108683042Y35864474D01*
X108683042Y35864474D02*
X108611613Y35721617D01*
X108611613Y35721617D02*
X108611613Y35435902D01*
X108611613Y35435902D02*
X108683042Y35293045D01*
X108683042Y36578760D02*
X108611613Y36721617D01*
X108611613Y36721617D02*
X108611613Y37007331D01*
X108611613Y37007331D02*
X108683042Y37150188D01*
X108683042Y37150188D02*
X108825899Y37221617D01*
X108825899Y37221617D02*
X108897327Y37221617D01*
X108897327Y37221617D02*
X109040184Y37150188D01*
X109040184Y37150188D02*
X109111613Y37007331D01*
X109111613Y37007331D02*
X109111613Y36793045D01*
X109111613Y36793045D02*
X109183042Y36650188D01*
X109183042Y36650188D02*
X109325899Y36578760D01*
X109325899Y36578760D02*
X109397327Y36578760D01*
X109397327Y36578760D02*
X109540184Y36650188D01*
X109540184Y36650188D02*
X109611613Y36793045D01*
X109611613Y36793045D02*
X109611613Y37007331D01*
X109611613Y37007331D02*
X109540184Y37150188D01*
X108754470Y37864474D02*
X108683042Y37935903D01*
X108683042Y37935903D02*
X108611613Y37864474D01*
X108611613Y37864474D02*
X108683042Y37793046D01*
X108683042Y37793046D02*
X108754470Y37864474D01*
X108754470Y37864474D02*
X108611613Y37864474D01*
X109540184Y37864474D02*
X109468756Y37935903D01*
X109468756Y37935903D02*
X109397327Y37864474D01*
X109397327Y37864474D02*
X109468756Y37793046D01*
X109468756Y37793046D02*
X109540184Y37864474D01*
X109540184Y37864474D02*
X109397327Y37864474D01*
X110183042Y39650189D02*
X108254470Y38364475D01*
X110183042Y41221618D02*
X108254470Y39935904D01*
X108611613Y41721618D02*
X109611613Y41721618D01*
X109325899Y41721618D02*
X109468756Y41793047D01*
X109468756Y41793047D02*
X109540184Y41864475D01*
X109540184Y41864475D02*
X109611613Y42007333D01*
X109611613Y42007333D02*
X109611613Y42150190D01*
X109611613Y43293046D02*
X108611613Y43293046D01*
X109611613Y42650189D02*
X108825899Y42650189D01*
X108825899Y42650189D02*
X108683042Y42721618D01*
X108683042Y42721618D02*
X108611613Y42864475D01*
X108611613Y42864475D02*
X108611613Y43078761D01*
X108611613Y43078761D02*
X108683042Y43221618D01*
X108683042Y43221618D02*
X108754470Y43293046D01*
X108683042Y43935904D02*
X108611613Y44078761D01*
X108611613Y44078761D02*
X108611613Y44364475D01*
X108611613Y44364475D02*
X108683042Y44507332D01*
X108683042Y44507332D02*
X108825899Y44578761D01*
X108825899Y44578761D02*
X108897327Y44578761D01*
X108897327Y44578761D02*
X109040184Y44507332D01*
X109040184Y44507332D02*
X109111613Y44364475D01*
X109111613Y44364475D02*
X109111613Y44150189D01*
X109111613Y44150189D02*
X109183042Y44007332D01*
X109183042Y44007332D02*
X109325899Y43935904D01*
X109325899Y43935904D02*
X109397327Y43935904D01*
X109397327Y43935904D02*
X109540184Y44007332D01*
X109540184Y44007332D02*
X109611613Y44150189D01*
X109611613Y44150189D02*
X109611613Y44364475D01*
X109611613Y44364475D02*
X109540184Y44507332D01*
X108683042Y45793047D02*
X108611613Y45650190D01*
X108611613Y45650190D02*
X108611613Y45364475D01*
X108611613Y45364475D02*
X108683042Y45221618D01*
X108683042Y45221618D02*
X108825899Y45150190D01*
X108825899Y45150190D02*
X109397327Y45150190D01*
X109397327Y45150190D02*
X109540184Y45221618D01*
X109540184Y45221618D02*
X109611613Y45364475D01*
X109611613Y45364475D02*
X109611613Y45650190D01*
X109611613Y45650190D02*
X109540184Y45793047D01*
X109540184Y45793047D02*
X109397327Y45864475D01*
X109397327Y45864475D02*
X109254470Y45864475D01*
X109254470Y45864475D02*
X109111613Y45150190D01*
X109611613Y46293047D02*
X109611613Y46864475D01*
X108611613Y46507332D02*
X109897327Y46507332D01*
X109897327Y46507332D02*
X110040184Y46578761D01*
X110040184Y46578761D02*
X110111613Y46721618D01*
X110111613Y46721618D02*
X110111613Y46864475D01*
X108611613Y47364475D02*
X109611613Y47364475D01*
X110111613Y47364475D02*
X110040184Y47293047D01*
X110040184Y47293047D02*
X109968756Y47364475D01*
X109968756Y47364475D02*
X110040184Y47435904D01*
X110040184Y47435904D02*
X110111613Y47364475D01*
X110111613Y47364475D02*
X109968756Y47364475D01*
X108754470Y48078761D02*
X108683042Y48150190D01*
X108683042Y48150190D02*
X108611613Y48078761D01*
X108611613Y48078761D02*
X108683042Y48007333D01*
X108683042Y48007333D02*
X108754470Y48078761D01*
X108754470Y48078761D02*
X108611613Y48078761D01*
X108683042Y49435904D02*
X108611613Y49293047D01*
X108611613Y49293047D02*
X108611613Y49007333D01*
X108611613Y49007333D02*
X108683042Y48864476D01*
X108683042Y48864476D02*
X108754470Y48793047D01*
X108754470Y48793047D02*
X108897327Y48721619D01*
X108897327Y48721619D02*
X109325899Y48721619D01*
X109325899Y48721619D02*
X109468756Y48793047D01*
X109468756Y48793047D02*
X109540184Y48864476D01*
X109540184Y48864476D02*
X109611613Y49007333D01*
X109611613Y49007333D02*
X109611613Y49293047D01*
X109611613Y49293047D02*
X109540184Y49435904D01*
X108611613Y50293047D02*
X108683042Y50150190D01*
X108683042Y50150190D02*
X108754470Y50078761D01*
X108754470Y50078761D02*
X108897327Y50007333D01*
X108897327Y50007333D02*
X109325899Y50007333D01*
X109325899Y50007333D02*
X109468756Y50078761D01*
X109468756Y50078761D02*
X109540184Y50150190D01*
X109540184Y50150190D02*
X109611613Y50293047D01*
X109611613Y50293047D02*
X109611613Y50507333D01*
X109611613Y50507333D02*
X109540184Y50650190D01*
X109540184Y50650190D02*
X109468756Y50721618D01*
X109468756Y50721618D02*
X109325899Y50793047D01*
X109325899Y50793047D02*
X108897327Y50793047D01*
X108897327Y50793047D02*
X108754470Y50721618D01*
X108754470Y50721618D02*
X108683042Y50650190D01*
X108683042Y50650190D02*
X108611613Y50507333D01*
X108611613Y50507333D02*
X108611613Y50293047D01*
X108611613Y51435904D02*
X109611613Y51435904D01*
X109468756Y51435904D02*
X109540184Y51507333D01*
X109540184Y51507333D02*
X109611613Y51650190D01*
X109611613Y51650190D02*
X109611613Y51864476D01*
X109611613Y51864476D02*
X109540184Y52007333D01*
X109540184Y52007333D02*
X109397327Y52078761D01*
X109397327Y52078761D02*
X108611613Y52078761D01*
X109397327Y52078761D02*
X109540184Y52150190D01*
X109540184Y52150190D02*
X109611613Y52293047D01*
X109611613Y52293047D02*
X109611613Y52507333D01*
X109611613Y52507333D02*
X109540184Y52650190D01*
X109540184Y52650190D02*
X109397327Y52721619D01*
X109397327Y52721619D02*
X108611613Y52721619D01*
X110183042Y54507333D02*
X108254470Y53221619D01*
X108683042Y54935905D02*
X108611613Y55078762D01*
X108611613Y55078762D02*
X108611613Y55364476D01*
X108611613Y55364476D02*
X108683042Y55507333D01*
X108683042Y55507333D02*
X108825899Y55578762D01*
X108825899Y55578762D02*
X108897327Y55578762D01*
X108897327Y55578762D02*
X109040184Y55507333D01*
X109040184Y55507333D02*
X109111613Y55364476D01*
X109111613Y55364476D02*
X109111613Y55150190D01*
X109111613Y55150190D02*
X109183042Y55007333D01*
X109183042Y55007333D02*
X109325899Y54935905D01*
X109325899Y54935905D02*
X109397327Y54935905D01*
X109397327Y54935905D02*
X109540184Y55007333D01*
X109540184Y55007333D02*
X109611613Y55150190D01*
X109611613Y55150190D02*
X109611613Y55364476D01*
X109611613Y55364476D02*
X109540184Y55507333D01*
X110183042Y57293048D02*
X108254470Y56007334D01*
X108611613Y57793048D02*
X109611613Y57793048D01*
X109468756Y57793048D02*
X109540184Y57864477D01*
X109540184Y57864477D02*
X109611613Y58007334D01*
X109611613Y58007334D02*
X109611613Y58221620D01*
X109611613Y58221620D02*
X109540184Y58364477D01*
X109540184Y58364477D02*
X109397327Y58435905D01*
X109397327Y58435905D02*
X108611613Y58435905D01*
X109397327Y58435905D02*
X109540184Y58507334D01*
X109540184Y58507334D02*
X109611613Y58650191D01*
X109611613Y58650191D02*
X109611613Y58864477D01*
X109611613Y58864477D02*
X109540184Y59007334D01*
X109540184Y59007334D02*
X109397327Y59078763D01*
X109397327Y59078763D02*
X108611613Y59078763D01*
X108611613Y59793048D02*
X109611613Y59793048D01*
X110111613Y59793048D02*
X110040184Y59721620D01*
X110040184Y59721620D02*
X109968756Y59793048D01*
X109968756Y59793048D02*
X110040184Y59864477D01*
X110040184Y59864477D02*
X110111613Y59793048D01*
X110111613Y59793048D02*
X109968756Y59793048D01*
X108683042Y60435906D02*
X108611613Y60578763D01*
X108611613Y60578763D02*
X108611613Y60864477D01*
X108611613Y60864477D02*
X108683042Y61007334D01*
X108683042Y61007334D02*
X108825899Y61078763D01*
X108825899Y61078763D02*
X108897327Y61078763D01*
X108897327Y61078763D02*
X109040184Y61007334D01*
X109040184Y61007334D02*
X109111613Y60864477D01*
X109111613Y60864477D02*
X109111613Y60650191D01*
X109111613Y60650191D02*
X109183042Y60507334D01*
X109183042Y60507334D02*
X109325899Y60435906D01*
X109325899Y60435906D02*
X109397327Y60435906D01*
X109397327Y60435906D02*
X109540184Y60507334D01*
X109540184Y60507334D02*
X109611613Y60650191D01*
X109611613Y60650191D02*
X109611613Y60864477D01*
X109611613Y60864477D02*
X109540184Y61007334D01*
X108683042Y61650192D02*
X108611613Y61793049D01*
X108611613Y61793049D02*
X108611613Y62078763D01*
X108611613Y62078763D02*
X108683042Y62221620D01*
X108683042Y62221620D02*
X108825899Y62293049D01*
X108825899Y62293049D02*
X108897327Y62293049D01*
X108897327Y62293049D02*
X109040184Y62221620D01*
X109040184Y62221620D02*
X109111613Y62078763D01*
X109111613Y62078763D02*
X109111613Y61864477D01*
X109111613Y61864477D02*
X109183042Y61721620D01*
X109183042Y61721620D02*
X109325899Y61650192D01*
X109325899Y61650192D02*
X109397327Y61650192D01*
X109397327Y61650192D02*
X109540184Y61721620D01*
X109540184Y61721620D02*
X109611613Y61864477D01*
X109611613Y61864477D02*
X109611613Y62078763D01*
X109611613Y62078763D02*
X109540184Y62221620D01*
X108611613Y62935906D02*
X109611613Y62935906D01*
X110111613Y62935906D02*
X110040184Y62864478D01*
X110040184Y62864478D02*
X109968756Y62935906D01*
X109968756Y62935906D02*
X110040184Y63007335D01*
X110040184Y63007335D02*
X110111613Y62935906D01*
X110111613Y62935906D02*
X109968756Y62935906D01*
X108611613Y63864478D02*
X108683042Y63721621D01*
X108683042Y63721621D02*
X108754470Y63650192D01*
X108754470Y63650192D02*
X108897327Y63578764D01*
X108897327Y63578764D02*
X109325899Y63578764D01*
X109325899Y63578764D02*
X109468756Y63650192D01*
X109468756Y63650192D02*
X109540184Y63721621D01*
X109540184Y63721621D02*
X109611613Y63864478D01*
X109611613Y63864478D02*
X109611613Y64078764D01*
X109611613Y64078764D02*
X109540184Y64221621D01*
X109540184Y64221621D02*
X109468756Y64293049D01*
X109468756Y64293049D02*
X109325899Y64364478D01*
X109325899Y64364478D02*
X108897327Y64364478D01*
X108897327Y64364478D02*
X108754470Y64293049D01*
X108754470Y64293049D02*
X108683042Y64221621D01*
X108683042Y64221621D02*
X108611613Y64078764D01*
X108611613Y64078764D02*
X108611613Y63864478D01*
X109611613Y65007335D02*
X108611613Y65007335D01*
X109468756Y65007335D02*
X109540184Y65078764D01*
X109540184Y65078764D02*
X109611613Y65221621D01*
X109611613Y65221621D02*
X109611613Y65435907D01*
X109611613Y65435907D02*
X109540184Y65578764D01*
X109540184Y65578764D02*
X109397327Y65650192D01*
X109397327Y65650192D02*
X108611613Y65650192D01*
D10*
X121678571Y136495181D02*
X122154761Y136495181D01*
X122154761Y136495181D02*
X122154761Y137495181D01*
X120011904Y136590420D02*
X120059523Y136542800D01*
X120059523Y136542800D02*
X120202380Y136495181D01*
X120202380Y136495181D02*
X120297618Y136495181D01*
X120297618Y136495181D02*
X120440475Y136542800D01*
X120440475Y136542800D02*
X120535713Y136638039D01*
X120535713Y136638039D02*
X120583332Y136733277D01*
X120583332Y136733277D02*
X120630951Y136923753D01*
X120630951Y136923753D02*
X120630951Y137066610D01*
X120630951Y137066610D02*
X120583332Y137257086D01*
X120583332Y137257086D02*
X120535713Y137352324D01*
X120535713Y137352324D02*
X120440475Y137447562D01*
X120440475Y137447562D02*
X120297618Y137495181D01*
X120297618Y137495181D02*
X120202380Y137495181D01*
X120202380Y137495181D02*
X120059523Y137447562D01*
X120059523Y137447562D02*
X120011904Y137399943D01*
X119630951Y136780896D02*
X119154761Y136780896D01*
X119726189Y136495181D02*
X119392856Y137495181D01*
X119392856Y137495181D02*
X119059523Y136495181D01*
X118726189Y136495181D02*
X118726189Y137495181D01*
X118726189Y137495181D02*
X118154761Y136495181D01*
X118154761Y136495181D02*
X118154761Y137495181D01*
X116916665Y136495181D02*
X116916665Y137495181D01*
X116916665Y137018991D02*
X116345237Y137018991D01*
X116345237Y136495181D02*
X116345237Y137495181D01*
X32204794Y137180953D02*
X32204794Y136609525D01*
X32204794Y136895239D02*
X33204794Y136895239D01*
X33204794Y136895239D02*
X33061937Y136800001D01*
X33061937Y136800001D02*
X32966699Y136704763D01*
X32966699Y136704763D02*
X32919080Y136609525D01*
X33109556Y137561906D02*
X33157175Y137609525D01*
X33157175Y137609525D02*
X33204794Y137704763D01*
X33204794Y137704763D02*
X33204794Y137942858D01*
X33204794Y137942858D02*
X33157175Y138038096D01*
X33157175Y138038096D02*
X33109556Y138085715D01*
X33109556Y138085715D02*
X33014318Y138133334D01*
X33014318Y138133334D02*
X32919080Y138133334D01*
X32919080Y138133334D02*
X32776223Y138085715D01*
X32776223Y138085715D02*
X32204794Y137514287D01*
X32204794Y137514287D02*
X32204794Y138133334D01*
X33204794Y138419049D02*
X32204794Y138752382D01*
X32204794Y138752382D02*
X33204794Y139085715D01*
X90547101Y125394049D02*
X91547101Y125394049D01*
X90547101Y125870239D02*
X91547101Y125870239D01*
X91547101Y125870239D02*
X90547101Y126441667D01*
X90547101Y126441667D02*
X91547101Y126441667D01*
X91547101Y127203572D02*
X90832816Y127203572D01*
X90832816Y127203572D02*
X90689959Y127155953D01*
X90689959Y127155953D02*
X90594721Y127060715D01*
X90594721Y127060715D02*
X90547101Y126917858D01*
X90547101Y126917858D02*
X90547101Y126822620D01*
X91547101Y127584525D02*
X91547101Y128203572D01*
X91547101Y128203572D02*
X91166149Y127870239D01*
X91166149Y127870239D02*
X91166149Y128013096D01*
X91166149Y128013096D02*
X91118530Y128108334D01*
X91118530Y128108334D02*
X91070911Y128155953D01*
X91070911Y128155953D02*
X90975673Y128203572D01*
X90975673Y128203572D02*
X90737578Y128203572D01*
X90737578Y128203572D02*
X90642340Y128155953D01*
X90642340Y128155953D02*
X90594721Y128108334D01*
X90594721Y128108334D02*
X90547101Y128013096D01*
X90547101Y128013096D02*
X90547101Y127727382D01*
X90547101Y127727382D02*
X90594721Y127632144D01*
X90594721Y127632144D02*
X90642340Y127584525D01*
X14492319Y45467858D02*
X14492319Y46039286D01*
X14492319Y45753572D02*
X13492319Y45753572D01*
X13492319Y45753572D02*
X13635176Y45848810D01*
X13635176Y45848810D02*
X13730414Y45944048D01*
X13730414Y45944048D02*
X13778033Y46039286D01*
X13587557Y45086905D02*
X13539938Y45039286D01*
X13539938Y45039286D02*
X13492319Y44944048D01*
X13492319Y44944048D02*
X13492319Y44705953D01*
X13492319Y44705953D02*
X13539938Y44610715D01*
X13539938Y44610715D02*
X13587557Y44563096D01*
X13587557Y44563096D02*
X13682795Y44515477D01*
X13682795Y44515477D02*
X13778033Y44515477D01*
X13778033Y44515477D02*
X13920890Y44563096D01*
X13920890Y44563096D02*
X14492319Y45134524D01*
X14492319Y45134524D02*
X14492319Y44515477D01*
X13492319Y44229762D02*
X14492319Y43896429D01*
X14492319Y43896429D02*
X13492319Y43563096D01*
X55980895Y125135715D02*
X55980895Y125611905D01*
X55695180Y125040477D02*
X56695180Y125373810D01*
X56695180Y125373810D02*
X55695180Y125707143D01*
X56695180Y126040477D02*
X55885657Y126040477D01*
X55885657Y126040477D02*
X55790419Y126088096D01*
X55790419Y126088096D02*
X55742800Y126135715D01*
X55742800Y126135715D02*
X55695180Y126230953D01*
X55695180Y126230953D02*
X55695180Y126421429D01*
X55695180Y126421429D02*
X55742800Y126516667D01*
X55742800Y126516667D02*
X55790419Y126564286D01*
X55790419Y126564286D02*
X55885657Y126611905D01*
X55885657Y126611905D02*
X56695180Y126611905D01*
X56695180Y126992858D02*
X55695180Y127659524D01*
X56695180Y127659524D02*
X55695180Y126992858D01*
X55695180Y128564286D02*
X55695180Y127992858D01*
X55695180Y128278572D02*
X56695180Y128278572D01*
X56695180Y128278572D02*
X56552323Y128183334D01*
X56552323Y128183334D02*
X56457085Y128088096D01*
X56457085Y128088096D02*
X56409466Y127992858D01*
X29849025Y136514286D02*
X28849025Y136847619D01*
X28849025Y136847619D02*
X29849025Y137180952D01*
X28849025Y137514286D02*
X29849025Y137514286D01*
X29801406Y138514285D02*
X29849025Y138419047D01*
X29849025Y138419047D02*
X29849025Y138276190D01*
X29849025Y138276190D02*
X29801406Y138133333D01*
X29801406Y138133333D02*
X29706168Y138038095D01*
X29706168Y138038095D02*
X29610930Y137990476D01*
X29610930Y137990476D02*
X29420454Y137942857D01*
X29420454Y137942857D02*
X29277597Y137942857D01*
X29277597Y137942857D02*
X29087121Y137990476D01*
X29087121Y137990476D02*
X28991883Y138038095D01*
X28991883Y138038095D02*
X28896645Y138133333D01*
X28896645Y138133333D02*
X28849025Y138276190D01*
X28849025Y138276190D02*
X28849025Y138371428D01*
X28849025Y138371428D02*
X28896645Y138514285D01*
X28896645Y138514285D02*
X28944264Y138561904D01*
X28944264Y138561904D02*
X29277597Y138561904D01*
X29277597Y138561904D02*
X29277597Y138371428D01*
X28849025Y138990476D02*
X29849025Y138990476D01*
X29849025Y138990476D02*
X28849025Y139561904D01*
X28849025Y139561904D02*
X29849025Y139561904D01*
X33272098Y127659524D02*
X33272098Y127183334D01*
X33272098Y127183334D02*
X32795908Y127135715D01*
X32795908Y127135715D02*
X32843527Y127183334D01*
X32843527Y127183334D02*
X32891146Y127278572D01*
X32891146Y127278572D02*
X32891146Y127516667D01*
X32891146Y127516667D02*
X32843527Y127611905D01*
X32843527Y127611905D02*
X32795908Y127659524D01*
X32795908Y127659524D02*
X32700670Y127707143D01*
X32700670Y127707143D02*
X32462575Y127707143D01*
X32462575Y127707143D02*
X32367337Y127659524D01*
X32367337Y127659524D02*
X32319718Y127611905D01*
X32319718Y127611905D02*
X32272098Y127516667D01*
X32272098Y127516667D02*
X32272098Y127278572D01*
X32272098Y127278572D02*
X32319718Y127183334D01*
X32319718Y127183334D02*
X32367337Y127135715D01*
X33272098Y127992858D02*
X32272098Y128326191D01*
X32272098Y128326191D02*
X33272098Y128659524D01*
X42272101Y136704763D02*
X42272101Y136895239D01*
X42272101Y136895239D02*
X42319721Y136990477D01*
X42319721Y136990477D02*
X42367340Y137038096D01*
X42367340Y137038096D02*
X42510197Y137133334D01*
X42510197Y137133334D02*
X42700673Y137180953D01*
X42700673Y137180953D02*
X43081625Y137180953D01*
X43081625Y137180953D02*
X43176863Y137133334D01*
X43176863Y137133334D02*
X43224482Y137085715D01*
X43224482Y137085715D02*
X43272101Y136990477D01*
X43272101Y136990477D02*
X43272101Y136800001D01*
X43272101Y136800001D02*
X43224482Y136704763D01*
X43224482Y136704763D02*
X43176863Y136657144D01*
X43176863Y136657144D02*
X43081625Y136609525D01*
X43081625Y136609525D02*
X42843530Y136609525D01*
X42843530Y136609525D02*
X42748292Y136657144D01*
X42748292Y136657144D02*
X42700673Y136704763D01*
X42700673Y136704763D02*
X42653054Y136800001D01*
X42653054Y136800001D02*
X42653054Y136990477D01*
X42653054Y136990477D02*
X42700673Y137085715D01*
X42700673Y137085715D02*
X42748292Y137133334D01*
X42748292Y137133334D02*
X42843530Y137180953D01*
X42272101Y137657144D02*
X42272101Y137847620D01*
X42272101Y137847620D02*
X42319721Y137942858D01*
X42319721Y137942858D02*
X42367340Y137990477D01*
X42367340Y137990477D02*
X42510197Y138085715D01*
X42510197Y138085715D02*
X42700673Y138133334D01*
X42700673Y138133334D02*
X43081625Y138133334D01*
X43081625Y138133334D02*
X43176863Y138085715D01*
X43176863Y138085715D02*
X43224482Y138038096D01*
X43224482Y138038096D02*
X43272101Y137942858D01*
X43272101Y137942858D02*
X43272101Y137752382D01*
X43272101Y137752382D02*
X43224482Y137657144D01*
X43224482Y137657144D02*
X43176863Y137609525D01*
X43176863Y137609525D02*
X43081625Y137561906D01*
X43081625Y137561906D02*
X42843530Y137561906D01*
X42843530Y137561906D02*
X42748292Y137609525D01*
X42748292Y137609525D02*
X42700673Y137657144D01*
X42700673Y137657144D02*
X42653054Y137752382D01*
X42653054Y137752382D02*
X42653054Y137942858D01*
X42653054Y137942858D02*
X42700673Y138038096D01*
X42700673Y138038096D02*
X42748292Y138085715D01*
X42748292Y138085715D02*
X42843530Y138133334D01*
X43176863Y138514287D02*
X43224482Y138561906D01*
X43224482Y138561906D02*
X43272101Y138657144D01*
X43272101Y138657144D02*
X43272101Y138895239D01*
X43272101Y138895239D02*
X43224482Y138990477D01*
X43224482Y138990477D02*
X43176863Y139038096D01*
X43176863Y139038096D02*
X43081625Y139085715D01*
X43081625Y139085715D02*
X42986387Y139085715D01*
X42986387Y139085715D02*
X42843530Y139038096D01*
X42843530Y139038096D02*
X42272101Y138466668D01*
X42272101Y138466668D02*
X42272101Y139085715D01*
X42938768Y139942858D02*
X42272101Y139942858D01*
X43319721Y139704763D02*
X42605435Y139466668D01*
X42605435Y139466668D02*
X42605435Y140085715D01*
X42653054Y140466668D02*
X42653054Y141228572D01*
X42272101Y140847620D02*
X43034006Y140847620D01*
X93889408Y125394049D02*
X94889408Y125394049D01*
X93889408Y125870239D02*
X94889408Y125870239D01*
X94889408Y125870239D02*
X93889408Y126441667D01*
X93889408Y126441667D02*
X94889408Y126441667D01*
X94889408Y127203572D02*
X94175123Y127203572D01*
X94175123Y127203572D02*
X94032266Y127155953D01*
X94032266Y127155953D02*
X93937028Y127060715D01*
X93937028Y127060715D02*
X93889408Y126917858D01*
X93889408Y126917858D02*
X93889408Y126822620D01*
X94794170Y127632144D02*
X94841789Y127679763D01*
X94841789Y127679763D02*
X94889408Y127775001D01*
X94889408Y127775001D02*
X94889408Y128013096D01*
X94889408Y128013096D02*
X94841789Y128108334D01*
X94841789Y128108334D02*
X94794170Y128155953D01*
X94794170Y128155953D02*
X94698932Y128203572D01*
X94698932Y128203572D02*
X94603694Y128203572D01*
X94603694Y128203572D02*
X94460837Y128155953D01*
X94460837Y128155953D02*
X93889408Y127584525D01*
X93889408Y127584525D02*
X93889408Y128203572D01*
X15425949Y136657143D02*
X16425949Y136657143D01*
X16425949Y136657143D02*
X16425949Y136895238D01*
X16425949Y136895238D02*
X16378330Y137038095D01*
X16378330Y137038095D02*
X16283092Y137133333D01*
X16283092Y137133333D02*
X16187854Y137180952D01*
X16187854Y137180952D02*
X15997378Y137228571D01*
X15997378Y137228571D02*
X15854521Y137228571D01*
X15854521Y137228571D02*
X15664045Y137180952D01*
X15664045Y137180952D02*
X15568807Y137133333D01*
X15568807Y137133333D02*
X15473569Y137038095D01*
X15473569Y137038095D02*
X15425949Y136895238D01*
X15425949Y136895238D02*
X15425949Y136657143D01*
X15521188Y138228571D02*
X15473569Y138180952D01*
X15473569Y138180952D02*
X15425949Y138038095D01*
X15425949Y138038095D02*
X15425949Y137942857D01*
X15425949Y137942857D02*
X15473569Y137800000D01*
X15473569Y137800000D02*
X15568807Y137704762D01*
X15568807Y137704762D02*
X15664045Y137657143D01*
X15664045Y137657143D02*
X15854521Y137609524D01*
X15854521Y137609524D02*
X15997378Y137609524D01*
X15997378Y137609524D02*
X16187854Y137657143D01*
X16187854Y137657143D02*
X16283092Y137704762D01*
X16283092Y137704762D02*
X16378330Y137800000D01*
X16378330Y137800000D02*
X16425949Y137942857D01*
X16425949Y137942857D02*
X16425949Y138038095D01*
X16425949Y138038095D02*
X16378330Y138180952D01*
X16378330Y138180952D02*
X16330711Y138228571D01*
X15425949Y139180952D02*
X15425949Y138609524D01*
X15425949Y138895238D02*
X16425949Y138895238D01*
X16425949Y138895238D02*
X16283092Y138800000D01*
X16283092Y138800000D02*
X16187854Y138704762D01*
X16187854Y138704762D02*
X16140235Y138609524D01*
X15806902Y139609524D02*
X15806902Y140371428D01*
X15425949Y139990476D02*
X16187854Y139990476D01*
X53349016Y125183335D02*
X53349016Y125754763D01*
X52349016Y125469049D02*
X53349016Y125469049D01*
X52349016Y126088097D02*
X53349016Y126088097D01*
X53349016Y126088097D02*
X53349016Y126469049D01*
X53349016Y126469049D02*
X53301397Y126564287D01*
X53301397Y126564287D02*
X53253778Y126611906D01*
X53253778Y126611906D02*
X53158540Y126659525D01*
X53158540Y126659525D02*
X53015683Y126659525D01*
X53015683Y126659525D02*
X52920445Y126611906D01*
X52920445Y126611906D02*
X52872826Y126564287D01*
X52872826Y126564287D02*
X52825207Y126469049D01*
X52825207Y126469049D02*
X52825207Y126088097D01*
X52396636Y127040478D02*
X52349016Y127183335D01*
X52349016Y127183335D02*
X52349016Y127421430D01*
X52349016Y127421430D02*
X52396636Y127516668D01*
X52396636Y127516668D02*
X52444255Y127564287D01*
X52444255Y127564287D02*
X52539493Y127611906D01*
X52539493Y127611906D02*
X52634731Y127611906D01*
X52634731Y127611906D02*
X52729969Y127564287D01*
X52729969Y127564287D02*
X52777588Y127516668D01*
X52777588Y127516668D02*
X52825207Y127421430D01*
X52825207Y127421430D02*
X52872826Y127230954D01*
X52872826Y127230954D02*
X52920445Y127135716D01*
X52920445Y127135716D02*
X52968064Y127088097D01*
X52968064Y127088097D02*
X53063302Y127040478D01*
X53063302Y127040478D02*
X53158540Y127040478D01*
X53158540Y127040478D02*
X53253778Y127088097D01*
X53253778Y127088097D02*
X53301397Y127135716D01*
X53301397Y127135716D02*
X53349016Y127230954D01*
X53349016Y127230954D02*
X53349016Y127469049D01*
X53349016Y127469049D02*
X53301397Y127611906D01*
X53253778Y127992859D02*
X53301397Y128040478D01*
X53301397Y128040478D02*
X53349016Y128135716D01*
X53349016Y128135716D02*
X53349016Y128373811D01*
X53349016Y128373811D02*
X53301397Y128469049D01*
X53301397Y128469049D02*
X53253778Y128516668D01*
X53253778Y128516668D02*
X53158540Y128564287D01*
X53158540Y128564287D02*
X53063302Y128564287D01*
X53063302Y128564287D02*
X52920445Y128516668D01*
X52920445Y128516668D02*
X52349016Y127945240D01*
X52349016Y127945240D02*
X52349016Y128564287D01*
X123795180Y136588096D02*
X124795180Y136588096D01*
X124747561Y137588095D02*
X124795180Y137492857D01*
X124795180Y137492857D02*
X124795180Y137350000D01*
X124795180Y137350000D02*
X124747561Y137207143D01*
X124747561Y137207143D02*
X124652323Y137111905D01*
X124652323Y137111905D02*
X124557085Y137064286D01*
X124557085Y137064286D02*
X124366609Y137016667D01*
X124366609Y137016667D02*
X124223752Y137016667D01*
X124223752Y137016667D02*
X124033276Y137064286D01*
X124033276Y137064286D02*
X123938038Y137111905D01*
X123938038Y137111905D02*
X123842800Y137207143D01*
X123842800Y137207143D02*
X123795180Y137350000D01*
X123795180Y137350000D02*
X123795180Y137445238D01*
X123795180Y137445238D02*
X123842800Y137588095D01*
X123842800Y137588095D02*
X123890419Y137635714D01*
X123890419Y137635714D02*
X124223752Y137635714D01*
X124223752Y137635714D02*
X124223752Y137445238D01*
X123795180Y138064286D02*
X124795180Y138064286D01*
X124795180Y138064286D02*
X123795180Y138635714D01*
X123795180Y138635714D02*
X124795180Y138635714D01*
X123795180Y139635714D02*
X123795180Y139064286D01*
X123795180Y139350000D02*
X124795180Y139350000D01*
X124795180Y139350000D02*
X124652323Y139254762D01*
X124652323Y139254762D02*
X124557085Y139159524D01*
X124557085Y139159524D02*
X124509466Y139064286D01*
X97231715Y125394049D02*
X98231715Y125394049D01*
X97231715Y125870239D02*
X98231715Y125870239D01*
X98231715Y125870239D02*
X97231715Y126441667D01*
X97231715Y126441667D02*
X98231715Y126441667D01*
X98231715Y127203572D02*
X97517430Y127203572D01*
X97517430Y127203572D02*
X97374573Y127155953D01*
X97374573Y127155953D02*
X97279335Y127060715D01*
X97279335Y127060715D02*
X97231715Y126917858D01*
X97231715Y126917858D02*
X97231715Y126822620D01*
X97231715Y128203572D02*
X97231715Y127632144D01*
X97231715Y127917858D02*
X98231715Y127917858D01*
X98231715Y127917858D02*
X98088858Y127822620D01*
X98088858Y127822620D02*
X97993620Y127727382D01*
X97993620Y127727382D02*
X97946001Y127632144D01*
X22137487Y136657143D02*
X23137487Y136657143D01*
X23137487Y136657143D02*
X23137487Y136895238D01*
X23137487Y136895238D02*
X23089868Y137038095D01*
X23089868Y137038095D02*
X22994630Y137133333D01*
X22994630Y137133333D02*
X22899392Y137180952D01*
X22899392Y137180952D02*
X22708916Y137228571D01*
X22708916Y137228571D02*
X22566059Y137228571D01*
X22566059Y137228571D02*
X22375583Y137180952D01*
X22375583Y137180952D02*
X22280345Y137133333D01*
X22280345Y137133333D02*
X22185107Y137038095D01*
X22185107Y137038095D02*
X22137487Y136895238D01*
X22137487Y136895238D02*
X22137487Y136657143D01*
X22232726Y138228571D02*
X22185107Y138180952D01*
X22185107Y138180952D02*
X22137487Y138038095D01*
X22137487Y138038095D02*
X22137487Y137942857D01*
X22137487Y137942857D02*
X22185107Y137800000D01*
X22185107Y137800000D02*
X22280345Y137704762D01*
X22280345Y137704762D02*
X22375583Y137657143D01*
X22375583Y137657143D02*
X22566059Y137609524D01*
X22566059Y137609524D02*
X22708916Y137609524D01*
X22708916Y137609524D02*
X22899392Y137657143D01*
X22899392Y137657143D02*
X22994630Y137704762D01*
X22994630Y137704762D02*
X23089868Y137800000D01*
X23089868Y137800000D02*
X23137487Y137942857D01*
X23137487Y137942857D02*
X23137487Y138038095D01*
X23137487Y138038095D02*
X23089868Y138180952D01*
X23089868Y138180952D02*
X23042249Y138228571D01*
X23042249Y138609524D02*
X23089868Y138657143D01*
X23089868Y138657143D02*
X23137487Y138752381D01*
X23137487Y138752381D02*
X23137487Y138990476D01*
X23137487Y138990476D02*
X23089868Y139085714D01*
X23089868Y139085714D02*
X23042249Y139133333D01*
X23042249Y139133333D02*
X22947011Y139180952D01*
X22947011Y139180952D02*
X22851773Y139180952D01*
X22851773Y139180952D02*
X22708916Y139133333D01*
X22708916Y139133333D02*
X22137487Y138561905D01*
X22137487Y138561905D02*
X22137487Y139180952D01*
X22518440Y139609524D02*
X22518440Y140371428D01*
X123970180Y125155953D02*
X124970180Y125155953D01*
X124922561Y126155952D02*
X124970180Y126060714D01*
X124970180Y126060714D02*
X124970180Y125917857D01*
X124970180Y125917857D02*
X124922561Y125775000D01*
X124922561Y125775000D02*
X124827323Y125679762D01*
X124827323Y125679762D02*
X124732085Y125632143D01*
X124732085Y125632143D02*
X124541609Y125584524D01*
X124541609Y125584524D02*
X124398752Y125584524D01*
X124398752Y125584524D02*
X124208276Y125632143D01*
X124208276Y125632143D02*
X124113038Y125679762D01*
X124113038Y125679762D02*
X124017800Y125775000D01*
X124017800Y125775000D02*
X123970180Y125917857D01*
X123970180Y125917857D02*
X123970180Y126013095D01*
X123970180Y126013095D02*
X124017800Y126155952D01*
X124017800Y126155952D02*
X124065419Y126203571D01*
X124065419Y126203571D02*
X124398752Y126203571D01*
X124398752Y126203571D02*
X124398752Y126013095D01*
X123970180Y126632143D02*
X124970180Y126632143D01*
X124970180Y126632143D02*
X123970180Y127203571D01*
X123970180Y127203571D02*
X124970180Y127203571D01*
X124970180Y128108333D02*
X124970180Y127917857D01*
X124970180Y127917857D02*
X124922561Y127822619D01*
X124922561Y127822619D02*
X124874942Y127775000D01*
X124874942Y127775000D02*
X124732085Y127679762D01*
X124732085Y127679762D02*
X124541609Y127632143D01*
X124541609Y127632143D02*
X124160657Y127632143D01*
X124160657Y127632143D02*
X124065419Y127679762D01*
X124065419Y127679762D02*
X124017800Y127727381D01*
X124017800Y127727381D02*
X123970180Y127822619D01*
X123970180Y127822619D02*
X123970180Y128013095D01*
X123970180Y128013095D02*
X124017800Y128108333D01*
X124017800Y128108333D02*
X124065419Y128155952D01*
X124065419Y128155952D02*
X124160657Y128203571D01*
X124160657Y128203571D02*
X124398752Y128203571D01*
X124398752Y128203571D02*
X124493990Y128155952D01*
X124493990Y128155952D02*
X124541609Y128108333D01*
X124541609Y128108333D02*
X124589228Y128013095D01*
X124589228Y128013095D02*
X124589228Y127822619D01*
X124589228Y127822619D02*
X124541609Y127727381D01*
X124541609Y127727381D02*
X124493990Y127679762D01*
X124493990Y127679762D02*
X124398752Y127632143D01*
X18887486Y126754762D02*
X18887486Y126278572D01*
X18887486Y126278572D02*
X19887486Y126278572D01*
X18935106Y127040477D02*
X18887486Y127183334D01*
X18887486Y127183334D02*
X18887486Y127421429D01*
X18887486Y127421429D02*
X18935106Y127516667D01*
X18935106Y127516667D02*
X18982725Y127564286D01*
X18982725Y127564286D02*
X19077963Y127611905D01*
X19077963Y127611905D02*
X19173201Y127611905D01*
X19173201Y127611905D02*
X19268439Y127564286D01*
X19268439Y127564286D02*
X19316058Y127516667D01*
X19316058Y127516667D02*
X19363677Y127421429D01*
X19363677Y127421429D02*
X19411296Y127230953D01*
X19411296Y127230953D02*
X19458915Y127135715D01*
X19458915Y127135715D02*
X19506534Y127088096D01*
X19506534Y127088096D02*
X19601772Y127040477D01*
X19601772Y127040477D02*
X19697010Y127040477D01*
X19697010Y127040477D02*
X19792248Y127088096D01*
X19792248Y127088096D02*
X19839867Y127135715D01*
X19839867Y127135715D02*
X19887486Y127230953D01*
X19887486Y127230953D02*
X19887486Y127469048D01*
X19887486Y127469048D02*
X19839867Y127611905D01*
X19554153Y128469048D02*
X18887486Y128469048D01*
X19935106Y128230953D02*
X19220820Y127992858D01*
X19220820Y127992858D02*
X19220820Y128611905D01*
X117285557Y125155953D02*
X118285557Y125155953D01*
X118237938Y126155952D02*
X118285557Y126060714D01*
X118285557Y126060714D02*
X118285557Y125917857D01*
X118285557Y125917857D02*
X118237938Y125775000D01*
X118237938Y125775000D02*
X118142700Y125679762D01*
X118142700Y125679762D02*
X118047462Y125632143D01*
X118047462Y125632143D02*
X117856986Y125584524D01*
X117856986Y125584524D02*
X117714129Y125584524D01*
X117714129Y125584524D02*
X117523653Y125632143D01*
X117523653Y125632143D02*
X117428415Y125679762D01*
X117428415Y125679762D02*
X117333177Y125775000D01*
X117333177Y125775000D02*
X117285557Y125917857D01*
X117285557Y125917857D02*
X117285557Y126013095D01*
X117285557Y126013095D02*
X117333177Y126155952D01*
X117333177Y126155952D02*
X117380796Y126203571D01*
X117380796Y126203571D02*
X117714129Y126203571D01*
X117714129Y126203571D02*
X117714129Y126013095D01*
X117285557Y126632143D02*
X118285557Y126632143D01*
X118285557Y126632143D02*
X117285557Y127203571D01*
X117285557Y127203571D02*
X118285557Y127203571D01*
X117952224Y128108333D02*
X117285557Y128108333D01*
X118333177Y127870238D02*
X117618891Y127632143D01*
X117618891Y127632143D02*
X117618891Y128251190D01*
X104440139Y125203572D02*
X104392520Y125346429D01*
X104392520Y125346429D02*
X104344901Y125394048D01*
X104344901Y125394048D02*
X104249663Y125441667D01*
X104249663Y125441667D02*
X104106806Y125441667D01*
X104106806Y125441667D02*
X104011568Y125394048D01*
X104011568Y125394048D02*
X103963949Y125346429D01*
X103963949Y125346429D02*
X103916329Y125251191D01*
X103916329Y125251191D02*
X103916329Y124870239D01*
X103916329Y124870239D02*
X104916329Y124870239D01*
X104916329Y124870239D02*
X104916329Y125203572D01*
X104916329Y125203572D02*
X104868710Y125298810D01*
X104868710Y125298810D02*
X104821091Y125346429D01*
X104821091Y125346429D02*
X104725853Y125394048D01*
X104725853Y125394048D02*
X104630615Y125394048D01*
X104630615Y125394048D02*
X104535377Y125346429D01*
X104535377Y125346429D02*
X104487758Y125298810D01*
X104487758Y125298810D02*
X104440139Y125203572D01*
X104440139Y125203572D02*
X104440139Y124870239D01*
X104916329Y125727382D02*
X104916329Y126298810D01*
X103916329Y126013096D02*
X104916329Y126013096D01*
X103916329Y126632144D02*
X104916329Y126632144D01*
X104916329Y126632144D02*
X103916329Y127203572D01*
X103916329Y127203572D02*
X104916329Y127203572D01*
X104821091Y127632144D02*
X104868710Y127679763D01*
X104868710Y127679763D02*
X104916329Y127775001D01*
X104916329Y127775001D02*
X104916329Y128013096D01*
X104916329Y128013096D02*
X104868710Y128108334D01*
X104868710Y128108334D02*
X104821091Y128155953D01*
X104821091Y128155953D02*
X104725853Y128203572D01*
X104725853Y128203572D02*
X104630615Y128203572D01*
X104630615Y128203572D02*
X104487758Y128155953D01*
X104487758Y128155953D02*
X103916329Y127584525D01*
X103916329Y127584525D02*
X103916329Y128203572D01*
X120627864Y125155953D02*
X121627864Y125155953D01*
X121580245Y126155952D02*
X121627864Y126060714D01*
X121627864Y126060714D02*
X121627864Y125917857D01*
X121627864Y125917857D02*
X121580245Y125775000D01*
X121580245Y125775000D02*
X121485007Y125679762D01*
X121485007Y125679762D02*
X121389769Y125632143D01*
X121389769Y125632143D02*
X121199293Y125584524D01*
X121199293Y125584524D02*
X121056436Y125584524D01*
X121056436Y125584524D02*
X120865960Y125632143D01*
X120865960Y125632143D02*
X120770722Y125679762D01*
X120770722Y125679762D02*
X120675484Y125775000D01*
X120675484Y125775000D02*
X120627864Y125917857D01*
X120627864Y125917857D02*
X120627864Y126013095D01*
X120627864Y126013095D02*
X120675484Y126155952D01*
X120675484Y126155952D02*
X120723103Y126203571D01*
X120723103Y126203571D02*
X121056436Y126203571D01*
X121056436Y126203571D02*
X121056436Y126013095D01*
X120627864Y126632143D02*
X121627864Y126632143D01*
X121627864Y126632143D02*
X120627864Y127203571D01*
X120627864Y127203571D02*
X121627864Y127203571D01*
X121627864Y128155952D02*
X121627864Y127679762D01*
X121627864Y127679762D02*
X121151674Y127632143D01*
X121151674Y127632143D02*
X121199293Y127679762D01*
X121199293Y127679762D02*
X121246912Y127775000D01*
X121246912Y127775000D02*
X121246912Y128013095D01*
X121246912Y128013095D02*
X121199293Y128108333D01*
X121199293Y128108333D02*
X121151674Y128155952D01*
X121151674Y128155952D02*
X121056436Y128203571D01*
X121056436Y128203571D02*
X120818341Y128203571D01*
X120818341Y128203571D02*
X120723103Y128155952D01*
X120723103Y128155952D02*
X120675484Y128108333D01*
X120675484Y128108333D02*
X120627864Y128013095D01*
X120627864Y128013095D02*
X120627864Y127775000D01*
X120627864Y127775000D02*
X120675484Y127679762D01*
X120675484Y127679762D02*
X120723103Y127632143D01*
X107782446Y125203572D02*
X107734827Y125346429D01*
X107734827Y125346429D02*
X107687208Y125394048D01*
X107687208Y125394048D02*
X107591970Y125441667D01*
X107591970Y125441667D02*
X107449113Y125441667D01*
X107449113Y125441667D02*
X107353875Y125394048D01*
X107353875Y125394048D02*
X107306256Y125346429D01*
X107306256Y125346429D02*
X107258636Y125251191D01*
X107258636Y125251191D02*
X107258636Y124870239D01*
X107258636Y124870239D02*
X108258636Y124870239D01*
X108258636Y124870239D02*
X108258636Y125203572D01*
X108258636Y125203572D02*
X108211017Y125298810D01*
X108211017Y125298810D02*
X108163398Y125346429D01*
X108163398Y125346429D02*
X108068160Y125394048D01*
X108068160Y125394048D02*
X107972922Y125394048D01*
X107972922Y125394048D02*
X107877684Y125346429D01*
X107877684Y125346429D02*
X107830065Y125298810D01*
X107830065Y125298810D02*
X107782446Y125203572D01*
X107782446Y125203572D02*
X107782446Y124870239D01*
X108258636Y125727382D02*
X108258636Y126298810D01*
X107258636Y126013096D02*
X108258636Y126013096D01*
X107258636Y126632144D02*
X108258636Y126632144D01*
X108258636Y126632144D02*
X107258636Y127203572D01*
X107258636Y127203572D02*
X108258636Y127203572D01*
X107258636Y128203572D02*
X107258636Y127632144D01*
X107258636Y127917858D02*
X108258636Y127917858D01*
X108258636Y127917858D02*
X108115779Y127822620D01*
X108115779Y127822620D02*
X108020541Y127727382D01*
X108020541Y127727382D02*
X107972922Y127632144D01*
X110600943Y125155953D02*
X111600943Y125155953D01*
X111553324Y126155952D02*
X111600943Y126060714D01*
X111600943Y126060714D02*
X111600943Y125917857D01*
X111600943Y125917857D02*
X111553324Y125775000D01*
X111553324Y125775000D02*
X111458086Y125679762D01*
X111458086Y125679762D02*
X111362848Y125632143D01*
X111362848Y125632143D02*
X111172372Y125584524D01*
X111172372Y125584524D02*
X111029515Y125584524D01*
X111029515Y125584524D02*
X110839039Y125632143D01*
X110839039Y125632143D02*
X110743801Y125679762D01*
X110743801Y125679762D02*
X110648563Y125775000D01*
X110648563Y125775000D02*
X110600943Y125917857D01*
X110600943Y125917857D02*
X110600943Y126013095D01*
X110600943Y126013095D02*
X110648563Y126155952D01*
X110648563Y126155952D02*
X110696182Y126203571D01*
X110696182Y126203571D02*
X111029515Y126203571D01*
X111029515Y126203571D02*
X111029515Y126013095D01*
X110600943Y126632143D02*
X111600943Y126632143D01*
X111600943Y126632143D02*
X110600943Y127203571D01*
X110600943Y127203571D02*
X111600943Y127203571D01*
X111505705Y127632143D02*
X111553324Y127679762D01*
X111553324Y127679762D02*
X111600943Y127775000D01*
X111600943Y127775000D02*
X111600943Y128013095D01*
X111600943Y128013095D02*
X111553324Y128108333D01*
X111553324Y128108333D02*
X111505705Y128155952D01*
X111505705Y128155952D02*
X111410467Y128203571D01*
X111410467Y128203571D02*
X111315229Y128203571D01*
X111315229Y128203571D02*
X111172372Y128155952D01*
X111172372Y128155952D02*
X110600943Y127584524D01*
X110600943Y127584524D02*
X110600943Y128203571D01*
X113943250Y125155953D02*
X114943250Y125155953D01*
X114895631Y126155952D02*
X114943250Y126060714D01*
X114943250Y126060714D02*
X114943250Y125917857D01*
X114943250Y125917857D02*
X114895631Y125775000D01*
X114895631Y125775000D02*
X114800393Y125679762D01*
X114800393Y125679762D02*
X114705155Y125632143D01*
X114705155Y125632143D02*
X114514679Y125584524D01*
X114514679Y125584524D02*
X114371822Y125584524D01*
X114371822Y125584524D02*
X114181346Y125632143D01*
X114181346Y125632143D02*
X114086108Y125679762D01*
X114086108Y125679762D02*
X113990870Y125775000D01*
X113990870Y125775000D02*
X113943250Y125917857D01*
X113943250Y125917857D02*
X113943250Y126013095D01*
X113943250Y126013095D02*
X113990870Y126155952D01*
X113990870Y126155952D02*
X114038489Y126203571D01*
X114038489Y126203571D02*
X114371822Y126203571D01*
X114371822Y126203571D02*
X114371822Y126013095D01*
X113943250Y126632143D02*
X114943250Y126632143D01*
X114943250Y126632143D02*
X113943250Y127203571D01*
X113943250Y127203571D02*
X114943250Y127203571D01*
X114943250Y127584524D02*
X114943250Y128203571D01*
X114943250Y128203571D02*
X114562298Y127870238D01*
X114562298Y127870238D02*
X114562298Y128013095D01*
X114562298Y128013095D02*
X114514679Y128108333D01*
X114514679Y128108333D02*
X114467060Y128155952D01*
X114467060Y128155952D02*
X114371822Y128203571D01*
X114371822Y128203571D02*
X114133727Y128203571D01*
X114133727Y128203571D02*
X114038489Y128155952D01*
X114038489Y128155952D02*
X113990870Y128108333D01*
X113990870Y128108333D02*
X113943250Y128013095D01*
X113943250Y128013095D02*
X113943250Y127727381D01*
X113943250Y127727381D02*
X113990870Y127632143D01*
X113990870Y127632143D02*
X114038489Y127584524D01*
X90460180Y136588096D02*
X91460180Y136588096D01*
X91460180Y136588096D02*
X91460180Y136969048D01*
X91460180Y136969048D02*
X91412561Y137064286D01*
X91412561Y137064286D02*
X91364942Y137111905D01*
X91364942Y137111905D02*
X91269704Y137159524D01*
X91269704Y137159524D02*
X91126847Y137159524D01*
X91126847Y137159524D02*
X91031609Y137111905D01*
X91031609Y137111905D02*
X90983990Y137064286D01*
X90983990Y137064286D02*
X90936371Y136969048D01*
X90936371Y136969048D02*
X90936371Y136588096D01*
X90460180Y137588096D02*
X91460180Y137588096D01*
X91460180Y137588096D02*
X91460180Y137969048D01*
X91460180Y137969048D02*
X91412561Y138064286D01*
X91412561Y138064286D02*
X91364942Y138111905D01*
X91364942Y138111905D02*
X91269704Y138159524D01*
X91269704Y138159524D02*
X91126847Y138159524D01*
X91126847Y138159524D02*
X91031609Y138111905D01*
X91031609Y138111905D02*
X90983990Y138064286D01*
X90983990Y138064286D02*
X90936371Y137969048D01*
X90936371Y137969048D02*
X90936371Y137588096D01*
X90507800Y138540477D02*
X90460180Y138683334D01*
X90460180Y138683334D02*
X90460180Y138921429D01*
X90460180Y138921429D02*
X90507800Y139016667D01*
X90507800Y139016667D02*
X90555419Y139064286D01*
X90555419Y139064286D02*
X90650657Y139111905D01*
X90650657Y139111905D02*
X90745895Y139111905D01*
X90745895Y139111905D02*
X90841133Y139064286D01*
X90841133Y139064286D02*
X90888752Y139016667D01*
X90888752Y139016667D02*
X90936371Y138921429D01*
X90936371Y138921429D02*
X90983990Y138730953D01*
X90983990Y138730953D02*
X91031609Y138635715D01*
X91031609Y138635715D02*
X91079228Y138588096D01*
X91079228Y138588096D02*
X91174466Y138540477D01*
X91174466Y138540477D02*
X91269704Y138540477D01*
X91269704Y138540477D02*
X91364942Y138588096D01*
X91364942Y138588096D02*
X91412561Y138635715D01*
X91412561Y138635715D02*
X91460180Y138730953D01*
X91460180Y138730953D02*
X91460180Y138969048D01*
X91460180Y138969048D02*
X91412561Y139111905D01*
X90460180Y140064286D02*
X90460180Y139492858D01*
X90460180Y139778572D02*
X91460180Y139778572D01*
X91460180Y139778572D02*
X91317323Y139683334D01*
X91317323Y139683334D02*
X91222085Y139588096D01*
X91222085Y139588096D02*
X91174466Y139492858D01*
X104822561Y137111905D02*
X104870180Y137016667D01*
X104870180Y137016667D02*
X104870180Y136873810D01*
X104870180Y136873810D02*
X104822561Y136730953D01*
X104822561Y136730953D02*
X104727323Y136635715D01*
X104727323Y136635715D02*
X104632085Y136588096D01*
X104632085Y136588096D02*
X104441609Y136540477D01*
X104441609Y136540477D02*
X104298752Y136540477D01*
X104298752Y136540477D02*
X104108276Y136588096D01*
X104108276Y136588096D02*
X104013038Y136635715D01*
X104013038Y136635715D02*
X103917800Y136730953D01*
X103917800Y136730953D02*
X103870180Y136873810D01*
X103870180Y136873810D02*
X103870180Y136969048D01*
X103870180Y136969048D02*
X103917800Y137111905D01*
X103917800Y137111905D02*
X103965419Y137159524D01*
X103965419Y137159524D02*
X104298752Y137159524D01*
X104298752Y137159524D02*
X104298752Y136969048D01*
X103870180Y137588096D02*
X104870180Y137588096D01*
X104870180Y137588096D02*
X103870180Y138159524D01*
X103870180Y138159524D02*
X104870180Y138159524D01*
X103870180Y138635715D02*
X104870180Y138635715D01*
X104870180Y138635715D02*
X104870180Y138873810D01*
X104870180Y138873810D02*
X104822561Y139016667D01*
X104822561Y139016667D02*
X104727323Y139111905D01*
X104727323Y139111905D02*
X104632085Y139159524D01*
X104632085Y139159524D02*
X104441609Y139207143D01*
X104441609Y139207143D02*
X104298752Y139207143D01*
X104298752Y139207143D02*
X104108276Y139159524D01*
X104108276Y139159524D02*
X104013038Y139111905D01*
X104013038Y139111905D02*
X103917800Y139016667D01*
X103917800Y139016667D02*
X103870180Y138873810D01*
X103870180Y138873810D02*
X103870180Y138635715D01*
X104155895Y139588096D02*
X104155895Y140064286D01*
X103870180Y139492858D02*
X104870180Y139826191D01*
X104870180Y139826191D02*
X103870180Y140159524D01*
X114111077Y137302383D02*
X114111077Y138064287D01*
X113730124Y137683335D02*
X114492029Y137683335D01*
X112643990Y136588097D02*
X112643990Y136921430D01*
X112120180Y137064287D02*
X112120180Y136588097D01*
X112120180Y136588097D02*
X113120180Y136588097D01*
X113120180Y136588097D02*
X113120180Y137064287D01*
X113072561Y138016668D02*
X113120180Y137921430D01*
X113120180Y137921430D02*
X113120180Y137778573D01*
X113120180Y137778573D02*
X113072561Y137635716D01*
X113072561Y137635716D02*
X112977323Y137540478D01*
X112977323Y137540478D02*
X112882085Y137492859D01*
X112882085Y137492859D02*
X112691609Y137445240D01*
X112691609Y137445240D02*
X112548752Y137445240D01*
X112548752Y137445240D02*
X112358276Y137492859D01*
X112358276Y137492859D02*
X112263038Y137540478D01*
X112263038Y137540478D02*
X112167800Y137635716D01*
X112167800Y137635716D02*
X112120180Y137778573D01*
X112120180Y137778573D02*
X112120180Y137873811D01*
X112120180Y137873811D02*
X112167800Y138016668D01*
X112167800Y138016668D02*
X112215419Y138064287D01*
X112215419Y138064287D02*
X112548752Y138064287D01*
X112548752Y138064287D02*
X112548752Y137873811D01*
X113120180Y138350002D02*
X113120180Y138921430D01*
X112120180Y138635716D02*
X113120180Y138635716D01*
X110891189Y137302383D02*
X110891189Y138064287D01*
X83862487Y125394049D02*
X84862487Y125394049D01*
X83862487Y125870239D02*
X84862487Y125870239D01*
X84862487Y125870239D02*
X83862487Y126441667D01*
X83862487Y126441667D02*
X84862487Y126441667D01*
X84862487Y127203572D02*
X84148202Y127203572D01*
X84148202Y127203572D02*
X84005345Y127155953D01*
X84005345Y127155953D02*
X83910107Y127060715D01*
X83910107Y127060715D02*
X83862487Y126917858D01*
X83862487Y126917858D02*
X83862487Y126822620D01*
X84862487Y128155953D02*
X84862487Y127679763D01*
X84862487Y127679763D02*
X84386297Y127632144D01*
X84386297Y127632144D02*
X84433916Y127679763D01*
X84433916Y127679763D02*
X84481535Y127775001D01*
X84481535Y127775001D02*
X84481535Y128013096D01*
X84481535Y128013096D02*
X84433916Y128108334D01*
X84433916Y128108334D02*
X84386297Y128155953D01*
X84386297Y128155953D02*
X84291059Y128203572D01*
X84291059Y128203572D02*
X84052964Y128203572D01*
X84052964Y128203572D02*
X83957726Y128155953D01*
X83957726Y128155953D02*
X83910107Y128108334D01*
X83910107Y128108334D02*
X83862487Y128013096D01*
X83862487Y128013096D02*
X83862487Y127775001D01*
X83862487Y127775001D02*
X83910107Y127679763D01*
X83910107Y127679763D02*
X83957726Y127632144D01*
X84323990Y136921429D02*
X84323990Y136588096D01*
X83800180Y136588096D02*
X84800180Y136588096D01*
X84800180Y136588096D02*
X84800180Y137064286D01*
X83800180Y137921429D02*
X83800180Y137445239D01*
X83800180Y137445239D02*
X84800180Y137445239D01*
X84323990Y138254763D02*
X84323990Y138588096D01*
X83800180Y138730953D02*
X83800180Y138254763D01*
X83800180Y138254763D02*
X84800180Y138254763D01*
X84800180Y138254763D02*
X84800180Y138730953D01*
X84800180Y139064287D02*
X83800180Y139730953D01*
X84800180Y139730953D02*
X83800180Y139064287D01*
X49288578Y125135715D02*
X49288578Y125611905D01*
X49002863Y125040477D02*
X50002863Y125373810D01*
X50002863Y125373810D02*
X49002863Y125707143D01*
X50002863Y126040477D02*
X49193340Y126040477D01*
X49193340Y126040477D02*
X49098102Y126088096D01*
X49098102Y126088096D02*
X49050483Y126135715D01*
X49050483Y126135715D02*
X49002863Y126230953D01*
X49002863Y126230953D02*
X49002863Y126421429D01*
X49002863Y126421429D02*
X49050483Y126516667D01*
X49050483Y126516667D02*
X49098102Y126564286D01*
X49098102Y126564286D02*
X49193340Y126611905D01*
X49193340Y126611905D02*
X50002863Y126611905D01*
X50002863Y126992858D02*
X49002863Y127659524D01*
X50002863Y127659524D02*
X49002863Y126992858D01*
X50002863Y127945239D02*
X50002863Y128564286D01*
X50002863Y128564286D02*
X49621911Y128230953D01*
X49621911Y128230953D02*
X49621911Y128373810D01*
X49621911Y128373810D02*
X49574292Y128469048D01*
X49574292Y128469048D02*
X49526673Y128516667D01*
X49526673Y128516667D02*
X49431435Y128564286D01*
X49431435Y128564286D02*
X49193340Y128564286D01*
X49193340Y128564286D02*
X49098102Y128516667D01*
X49098102Y128516667D02*
X49050483Y128469048D01*
X49050483Y128469048D02*
X49002863Y128373810D01*
X49002863Y128373810D02*
X49002863Y128088096D01*
X49002863Y128088096D02*
X49050483Y127992858D01*
X49050483Y127992858D02*
X49098102Y127945239D01*
X45656710Y124516668D02*
X46656710Y124516668D01*
X46180520Y124516668D02*
X46180520Y125088096D01*
X45656710Y125088096D02*
X46656710Y125088096D01*
X45942425Y125516668D02*
X45942425Y125992858D01*
X45656710Y125421430D02*
X46656710Y125754763D01*
X46656710Y125754763D02*
X45656710Y126088096D01*
X45656710Y126897620D02*
X45656710Y126421430D01*
X45656710Y126421430D02*
X46656710Y126421430D01*
X45656710Y127707144D02*
X45656710Y127230954D01*
X45656710Y127230954D02*
X46656710Y127230954D01*
X46561472Y127992859D02*
X46609091Y128040478D01*
X46609091Y128040478D02*
X46656710Y128135716D01*
X46656710Y128135716D02*
X46656710Y128373811D01*
X46656710Y128373811D02*
X46609091Y128469049D01*
X46609091Y128469049D02*
X46561472Y128516668D01*
X46561472Y128516668D02*
X46466234Y128564287D01*
X46466234Y128564287D02*
X46370996Y128564287D01*
X46370996Y128564287D02*
X46228139Y128516668D01*
X46228139Y128516668D02*
X45656710Y127945240D01*
X45656710Y127945240D02*
X45656710Y128564287D01*
X38916332Y136657143D02*
X39916332Y136657143D01*
X39916332Y136657143D02*
X39916332Y136895238D01*
X39916332Y136895238D02*
X39868713Y137038095D01*
X39868713Y137038095D02*
X39773475Y137133333D01*
X39773475Y137133333D02*
X39678237Y137180952D01*
X39678237Y137180952D02*
X39487761Y137228571D01*
X39487761Y137228571D02*
X39344904Y137228571D01*
X39344904Y137228571D02*
X39154428Y137180952D01*
X39154428Y137180952D02*
X39059190Y137133333D01*
X39059190Y137133333D02*
X38963952Y137038095D01*
X38963952Y137038095D02*
X38916332Y136895238D01*
X38916332Y136895238D02*
X38916332Y136657143D01*
X38916332Y137657143D02*
X39916332Y137657143D01*
X38963952Y138085714D02*
X38916332Y138228571D01*
X38916332Y138228571D02*
X38916332Y138466666D01*
X38916332Y138466666D02*
X38963952Y138561904D01*
X38963952Y138561904D02*
X39011571Y138609523D01*
X39011571Y138609523D02*
X39106809Y138657142D01*
X39106809Y138657142D02*
X39202047Y138657142D01*
X39202047Y138657142D02*
X39297285Y138609523D01*
X39297285Y138609523D02*
X39344904Y138561904D01*
X39344904Y138561904D02*
X39392523Y138466666D01*
X39392523Y138466666D02*
X39440142Y138276190D01*
X39440142Y138276190D02*
X39487761Y138180952D01*
X39487761Y138180952D02*
X39535380Y138133333D01*
X39535380Y138133333D02*
X39630618Y138085714D01*
X39630618Y138085714D02*
X39725856Y138085714D01*
X39725856Y138085714D02*
X39821094Y138133333D01*
X39821094Y138133333D02*
X39868713Y138180952D01*
X39868713Y138180952D02*
X39916332Y138276190D01*
X39916332Y138276190D02*
X39916332Y138514285D01*
X39916332Y138514285D02*
X39868713Y138657142D01*
X39297285Y139085714D02*
X39297285Y139847618D01*
X15541333Y126754762D02*
X15541333Y126278572D01*
X15541333Y126278572D02*
X16541333Y126278572D01*
X15588953Y127040477D02*
X15541333Y127183334D01*
X15541333Y127183334D02*
X15541333Y127421429D01*
X15541333Y127421429D02*
X15588953Y127516667D01*
X15588953Y127516667D02*
X15636572Y127564286D01*
X15636572Y127564286D02*
X15731810Y127611905D01*
X15731810Y127611905D02*
X15827048Y127611905D01*
X15827048Y127611905D02*
X15922286Y127564286D01*
X15922286Y127564286D02*
X15969905Y127516667D01*
X15969905Y127516667D02*
X16017524Y127421429D01*
X16017524Y127421429D02*
X16065143Y127230953D01*
X16065143Y127230953D02*
X16112762Y127135715D01*
X16112762Y127135715D02*
X16160381Y127088096D01*
X16160381Y127088096D02*
X16255619Y127040477D01*
X16255619Y127040477D02*
X16350857Y127040477D01*
X16350857Y127040477D02*
X16446095Y127088096D01*
X16446095Y127088096D02*
X16493714Y127135715D01*
X16493714Y127135715D02*
X16541333Y127230953D01*
X16541333Y127230953D02*
X16541333Y127469048D01*
X16541333Y127469048D02*
X16493714Y127611905D01*
X16541333Y127945239D02*
X16541333Y128564286D01*
X16541333Y128564286D02*
X16160381Y128230953D01*
X16160381Y128230953D02*
X16160381Y128373810D01*
X16160381Y128373810D02*
X16112762Y128469048D01*
X16112762Y128469048D02*
X16065143Y128516667D01*
X16065143Y128516667D02*
X15969905Y128564286D01*
X15969905Y128564286D02*
X15731810Y128564286D01*
X15731810Y128564286D02*
X15636572Y128516667D01*
X15636572Y128516667D02*
X15588953Y128469048D01*
X15588953Y128469048D02*
X15541333Y128373810D01*
X15541333Y128373810D02*
X15541333Y128088096D01*
X15541333Y128088096D02*
X15588953Y127992858D01*
X15588953Y127992858D02*
X15636572Y127945239D01*
X12195180Y125707144D02*
X12195180Y125230954D01*
X12195180Y125230954D02*
X13195180Y125230954D01*
X12242800Y125992859D02*
X12195180Y126135716D01*
X12195180Y126135716D02*
X12195180Y126373811D01*
X12195180Y126373811D02*
X12242800Y126469049D01*
X12242800Y126469049D02*
X12290419Y126516668D01*
X12290419Y126516668D02*
X12385657Y126564287D01*
X12385657Y126564287D02*
X12480895Y126564287D01*
X12480895Y126564287D02*
X12576133Y126516668D01*
X12576133Y126516668D02*
X12623752Y126469049D01*
X12623752Y126469049D02*
X12671371Y126373811D01*
X12671371Y126373811D02*
X12718990Y126183335D01*
X12718990Y126183335D02*
X12766609Y126088097D01*
X12766609Y126088097D02*
X12814228Y126040478D01*
X12814228Y126040478D02*
X12909466Y125992859D01*
X12909466Y125992859D02*
X13004704Y125992859D01*
X13004704Y125992859D02*
X13099942Y126040478D01*
X13099942Y126040478D02*
X13147561Y126088097D01*
X13147561Y126088097D02*
X13195180Y126183335D01*
X13195180Y126183335D02*
X13195180Y126421430D01*
X13195180Y126421430D02*
X13147561Y126564287D01*
X12195180Y126992859D02*
X13195180Y126992859D01*
X12718990Y126992859D02*
X12718990Y127564287D01*
X12195180Y127564287D02*
X13195180Y127564287D01*
X12195180Y128564287D02*
X12195180Y127992859D01*
X12195180Y128278573D02*
X13195180Y128278573D01*
X13195180Y128278573D02*
X13052323Y128183335D01*
X13052323Y128183335D02*
X12957085Y128088097D01*
X12957085Y128088097D02*
X12909466Y127992859D01*
X22233639Y126754762D02*
X22233639Y126278572D01*
X22233639Y126278572D02*
X23233639Y126278572D01*
X22281259Y127040477D02*
X22233639Y127183334D01*
X22233639Y127183334D02*
X22233639Y127421429D01*
X22233639Y127421429D02*
X22281259Y127516667D01*
X22281259Y127516667D02*
X22328878Y127564286D01*
X22328878Y127564286D02*
X22424116Y127611905D01*
X22424116Y127611905D02*
X22519354Y127611905D01*
X22519354Y127611905D02*
X22614592Y127564286D01*
X22614592Y127564286D02*
X22662211Y127516667D01*
X22662211Y127516667D02*
X22709830Y127421429D01*
X22709830Y127421429D02*
X22757449Y127230953D01*
X22757449Y127230953D02*
X22805068Y127135715D01*
X22805068Y127135715D02*
X22852687Y127088096D01*
X22852687Y127088096D02*
X22947925Y127040477D01*
X22947925Y127040477D02*
X23043163Y127040477D01*
X23043163Y127040477D02*
X23138401Y127088096D01*
X23138401Y127088096D02*
X23186020Y127135715D01*
X23186020Y127135715D02*
X23233639Y127230953D01*
X23233639Y127230953D02*
X23233639Y127469048D01*
X23233639Y127469048D02*
X23186020Y127611905D01*
X22233639Y128564286D02*
X22233639Y127992858D01*
X22233639Y128278572D02*
X23233639Y128278572D01*
X23233639Y128278572D02*
X23090782Y128183334D01*
X23090782Y128183334D02*
X22995544Y128088096D01*
X22995544Y128088096D02*
X22947925Y127992858D01*
X5908688Y45753572D02*
X5861069Y45848810D01*
X5861069Y45848810D02*
X5861069Y45991667D01*
X5861069Y45991667D02*
X5908688Y46134524D01*
X5908688Y46134524D02*
X6003926Y46229762D01*
X6003926Y46229762D02*
X6099164Y46277381D01*
X6099164Y46277381D02*
X6289640Y46325000D01*
X6289640Y46325000D02*
X6432497Y46325000D01*
X6432497Y46325000D02*
X6622973Y46277381D01*
X6622973Y46277381D02*
X6718211Y46229762D01*
X6718211Y46229762D02*
X6813450Y46134524D01*
X6813450Y46134524D02*
X6861069Y45991667D01*
X6861069Y45991667D02*
X6861069Y45896429D01*
X6861069Y45896429D02*
X6813450Y45753572D01*
X6813450Y45753572D02*
X6765830Y45705953D01*
X6765830Y45705953D02*
X6432497Y45705953D01*
X6432497Y45705953D02*
X6432497Y45896429D01*
X6861069Y45277381D02*
X5861069Y45277381D01*
X5861069Y45277381D02*
X6861069Y44705953D01*
X6861069Y44705953D02*
X5861069Y44705953D01*
X6861069Y44229762D02*
X5861069Y44229762D01*
X5861069Y44229762D02*
X5861069Y43991667D01*
X5861069Y43991667D02*
X5908688Y43848810D01*
X5908688Y43848810D02*
X6003926Y43753572D01*
X6003926Y43753572D02*
X6099164Y43705953D01*
X6099164Y43705953D02*
X6289640Y43658334D01*
X6289640Y43658334D02*
X6432497Y43658334D01*
X6432497Y43658334D02*
X6622973Y43705953D01*
X6622973Y43705953D02*
X6718211Y43753572D01*
X6718211Y43753572D02*
X6813450Y43848810D01*
X6813450Y43848810D02*
X6861069Y43991667D01*
X6861069Y43991667D02*
X6861069Y44229762D01*
X18781718Y136657143D02*
X19781718Y136657143D01*
X19781718Y136657143D02*
X19781718Y136895238D01*
X19781718Y136895238D02*
X19734099Y137038095D01*
X19734099Y137038095D02*
X19638861Y137133333D01*
X19638861Y137133333D02*
X19543623Y137180952D01*
X19543623Y137180952D02*
X19353147Y137228571D01*
X19353147Y137228571D02*
X19210290Y137228571D01*
X19210290Y137228571D02*
X19019814Y137180952D01*
X19019814Y137180952D02*
X18924576Y137133333D01*
X18924576Y137133333D02*
X18829338Y137038095D01*
X18829338Y137038095D02*
X18781718Y136895238D01*
X18781718Y136895238D02*
X18781718Y136657143D01*
X18876957Y138228571D02*
X18829338Y138180952D01*
X18829338Y138180952D02*
X18781718Y138038095D01*
X18781718Y138038095D02*
X18781718Y137942857D01*
X18781718Y137942857D02*
X18829338Y137800000D01*
X18829338Y137800000D02*
X18924576Y137704762D01*
X18924576Y137704762D02*
X19019814Y137657143D01*
X19019814Y137657143D02*
X19210290Y137609524D01*
X19210290Y137609524D02*
X19353147Y137609524D01*
X19353147Y137609524D02*
X19543623Y137657143D01*
X19543623Y137657143D02*
X19638861Y137704762D01*
X19638861Y137704762D02*
X19734099Y137800000D01*
X19734099Y137800000D02*
X19781718Y137942857D01*
X19781718Y137942857D02*
X19781718Y138038095D01*
X19781718Y138038095D02*
X19734099Y138180952D01*
X19734099Y138180952D02*
X19686480Y138228571D01*
X18781718Y139180952D02*
X18781718Y138609524D01*
X18781718Y138895238D02*
X19781718Y138895238D01*
X19781718Y138895238D02*
X19638861Y138800000D01*
X19638861Y138800000D02*
X19543623Y138704762D01*
X19543623Y138704762D02*
X19496004Y138609524D01*
X19162671Y139609524D02*
X19162671Y140371428D01*
X52339408Y136657143D02*
X53339408Y136657143D01*
X53339408Y136657143D02*
X53339408Y137038095D01*
X53339408Y137038095D02*
X53291789Y137133333D01*
X53291789Y137133333D02*
X53244170Y137180952D01*
X53244170Y137180952D02*
X53148932Y137228571D01*
X53148932Y137228571D02*
X53006075Y137228571D01*
X53006075Y137228571D02*
X52910837Y137180952D01*
X52910837Y137180952D02*
X52863218Y137133333D01*
X52863218Y137133333D02*
X52815599Y137038095D01*
X52815599Y137038095D02*
X52815599Y136657143D01*
X52339408Y137657143D02*
X53339408Y137657143D01*
X53339408Y137657143D02*
X53339408Y138038095D01*
X53339408Y138038095D02*
X53291789Y138133333D01*
X53291789Y138133333D02*
X53244170Y138180952D01*
X53244170Y138180952D02*
X53148932Y138228571D01*
X53148932Y138228571D02*
X53006075Y138228571D01*
X53006075Y138228571D02*
X52910837Y138180952D01*
X52910837Y138180952D02*
X52863218Y138133333D01*
X52863218Y138133333D02*
X52815599Y138038095D01*
X52815599Y138038095D02*
X52815599Y137657143D01*
X52387028Y138609524D02*
X52339408Y138752381D01*
X52339408Y138752381D02*
X52339408Y138990476D01*
X52339408Y138990476D02*
X52387028Y139085714D01*
X52387028Y139085714D02*
X52434647Y139133333D01*
X52434647Y139133333D02*
X52529885Y139180952D01*
X52529885Y139180952D02*
X52625123Y139180952D01*
X52625123Y139180952D02*
X52720361Y139133333D01*
X52720361Y139133333D02*
X52767980Y139085714D01*
X52767980Y139085714D02*
X52815599Y138990476D01*
X52815599Y138990476D02*
X52863218Y138800000D01*
X52863218Y138800000D02*
X52910837Y138704762D01*
X52910837Y138704762D02*
X52958456Y138657143D01*
X52958456Y138657143D02*
X53053694Y138609524D01*
X53053694Y138609524D02*
X53148932Y138609524D01*
X53148932Y138609524D02*
X53244170Y138657143D01*
X53244170Y138657143D02*
X53291789Y138704762D01*
X53291789Y138704762D02*
X53339408Y138800000D01*
X53339408Y138800000D02*
X53339408Y139038095D01*
X53339408Y139038095D02*
X53291789Y139180952D01*
X53244170Y139561905D02*
X53291789Y139609524D01*
X53291789Y139609524D02*
X53339408Y139704762D01*
X53339408Y139704762D02*
X53339408Y139942857D01*
X53339408Y139942857D02*
X53291789Y140038095D01*
X53291789Y140038095D02*
X53244170Y140085714D01*
X53244170Y140085714D02*
X53148932Y140133333D01*
X53148932Y140133333D02*
X53053694Y140133333D01*
X53053694Y140133333D02*
X52910837Y140085714D01*
X52910837Y140085714D02*
X52339408Y139514286D01*
X52339408Y139514286D02*
X52339408Y140133333D01*
X29925945Y127659524D02*
X29925945Y127183334D01*
X29925945Y127183334D02*
X29449755Y127135715D01*
X29449755Y127135715D02*
X29497374Y127183334D01*
X29497374Y127183334D02*
X29544993Y127278572D01*
X29544993Y127278572D02*
X29544993Y127516667D01*
X29544993Y127516667D02*
X29497374Y127611905D01*
X29497374Y127611905D02*
X29449755Y127659524D01*
X29449755Y127659524D02*
X29354517Y127707143D01*
X29354517Y127707143D02*
X29116422Y127707143D01*
X29116422Y127707143D02*
X29021184Y127659524D01*
X29021184Y127659524D02*
X28973565Y127611905D01*
X28973565Y127611905D02*
X28925945Y127516667D01*
X28925945Y127516667D02*
X28925945Y127278572D01*
X28925945Y127278572D02*
X28973565Y127183334D01*
X28973565Y127183334D02*
X29021184Y127135715D01*
X29925945Y127992858D02*
X28925945Y128326191D01*
X28925945Y128326191D02*
X29925945Y128659524D01*
X80470180Y136588096D02*
X81470180Y136588096D01*
X81470180Y136588096D02*
X80755895Y136921429D01*
X80755895Y136921429D02*
X81470180Y137254762D01*
X81470180Y137254762D02*
X80470180Y137254762D01*
X80755895Y137683334D02*
X80755895Y138159524D01*
X80470180Y137588096D02*
X81470180Y137921429D01*
X81470180Y137921429D02*
X80470180Y138254762D01*
X80470180Y138588096D02*
X81470180Y138588096D01*
X81470180Y138588096D02*
X81470180Y138969048D01*
X81470180Y138969048D02*
X81422561Y139064286D01*
X81422561Y139064286D02*
X81374942Y139111905D01*
X81374942Y139111905D02*
X81279704Y139159524D01*
X81279704Y139159524D02*
X81136847Y139159524D01*
X81136847Y139159524D02*
X81041609Y139111905D01*
X81041609Y139111905D02*
X80993990Y139064286D01*
X80993990Y139064286D02*
X80946371Y138969048D01*
X80946371Y138969048D02*
X80946371Y138588096D01*
D12*
X17931778Y89979000D02*
X17931778Y90233000D01*
X18330921Y90233000D02*
X17568921Y90233000D01*
X17568921Y90233000D02*
X17568921Y89870143D01*
X17822921Y89253285D02*
X18330921Y89253285D01*
X17532636Y89434714D02*
X18076921Y89616143D01*
X18076921Y89616143D02*
X18076921Y89144428D01*
X16056778Y85779000D02*
X16056778Y86033000D01*
X16455921Y86033000D02*
X15693921Y86033000D01*
X15693921Y86033000D02*
X15693921Y85670143D01*
X15693921Y85452428D02*
X15693921Y84980714D01*
X15693921Y84980714D02*
X15984207Y85234714D01*
X15984207Y85234714D02*
X15984207Y85125857D01*
X15984207Y85125857D02*
X16020493Y85053285D01*
X16020493Y85053285D02*
X16056778Y85017000D01*
X16056778Y85017000D02*
X16129350Y84980714D01*
X16129350Y84980714D02*
X16310778Y84980714D01*
X16310778Y84980714D02*
X16383350Y85017000D01*
X16383350Y85017000D02*
X16419636Y85053285D01*
X16419636Y85053285D02*
X16455921Y85125857D01*
X16455921Y85125857D02*
X16455921Y85343571D01*
X16455921Y85343571D02*
X16419636Y85416143D01*
X16419636Y85416143D02*
X16383350Y85452428D01*
X19656778Y81604000D02*
X19656778Y81858000D01*
X20055921Y81858000D02*
X19293921Y81858000D01*
X19293921Y81858000D02*
X19293921Y81495143D01*
X20055921Y80805714D02*
X20055921Y81241143D01*
X20055921Y81023428D02*
X19293921Y81023428D01*
X19293921Y81023428D02*
X19402778Y81096000D01*
X19402778Y81096000D02*
X19475350Y81168571D01*
X19475350Y81168571D02*
X19511636Y81241143D01*
X73501999Y34604090D02*
X73755999Y34966947D01*
X73937428Y34604090D02*
X73937428Y35366090D01*
X73937428Y35366090D02*
X73647142Y35366090D01*
X73647142Y35366090D02*
X73574571Y35329804D01*
X73574571Y35329804D02*
X73538285Y35293518D01*
X73538285Y35293518D02*
X73501999Y35220947D01*
X73501999Y35220947D02*
X73501999Y35112090D01*
X73501999Y35112090D02*
X73538285Y35039518D01*
X73538285Y35039518D02*
X73574571Y35003233D01*
X73574571Y35003233D02*
X73647142Y34966947D01*
X73647142Y34966947D02*
X73937428Y34966947D01*
X72848857Y35112090D02*
X72848857Y34604090D01*
X73030285Y35402375D02*
X73211714Y34858090D01*
X73211714Y34858090D02*
X72739999Y34858090D01*
X25478999Y89378232D02*
X25732999Y89378232D01*
X25732999Y88979089D02*
X25732999Y89741089D01*
X25732999Y89741089D02*
X25370142Y89741089D01*
X25116142Y89668517D02*
X25079856Y89704803D01*
X25079856Y89704803D02*
X25007285Y89741089D01*
X25007285Y89741089D02*
X24825856Y89741089D01*
X24825856Y89741089D02*
X24753285Y89704803D01*
X24753285Y89704803D02*
X24716999Y89668517D01*
X24716999Y89668517D02*
X24680713Y89595946D01*
X24680713Y89595946D02*
X24680713Y89523374D01*
X24680713Y89523374D02*
X24716999Y89414517D01*
X24716999Y89414517D02*
X25152427Y88979089D01*
X25152427Y88979089D02*
X24680713Y88979089D01*
D13*
X16370508Y121230238D02*
X15550508Y121230238D01*
X15550508Y121230238D02*
X15550508Y121035000D01*
X15550508Y121035000D02*
X15589556Y120917857D01*
X15589556Y120917857D02*
X15667651Y120839762D01*
X15667651Y120839762D02*
X15745746Y120800715D01*
X15745746Y120800715D02*
X15901937Y120761667D01*
X15901937Y120761667D02*
X16019080Y120761667D01*
X16019080Y120761667D02*
X16175270Y120800715D01*
X16175270Y120800715D02*
X16253365Y120839762D01*
X16253365Y120839762D02*
X16331461Y120917857D01*
X16331461Y120917857D02*
X16370508Y121035000D01*
X16370508Y121035000D02*
X16370508Y121230238D01*
X15823841Y120058810D02*
X16370508Y120058810D01*
X15511461Y120254048D02*
X16097175Y120449286D01*
X16097175Y120449286D02*
X16097175Y119941667D01*
X23120508Y121155238D02*
X22300508Y121155238D01*
X22300508Y121155238D02*
X22300508Y120960000D01*
X22300508Y120960000D02*
X22339556Y120842857D01*
X22339556Y120842857D02*
X22417651Y120764762D01*
X22417651Y120764762D02*
X22495746Y120725715D01*
X22495746Y120725715D02*
X22651937Y120686667D01*
X22651937Y120686667D02*
X22769080Y120686667D01*
X22769080Y120686667D02*
X22925270Y120725715D01*
X22925270Y120725715D02*
X23003365Y120764762D01*
X23003365Y120764762D02*
X23081461Y120842857D01*
X23081461Y120842857D02*
X23120508Y120960000D01*
X23120508Y120960000D02*
X23120508Y121155238D01*
X22378603Y120374286D02*
X22339556Y120335238D01*
X22339556Y120335238D02*
X22300508Y120257143D01*
X22300508Y120257143D02*
X22300508Y120061905D01*
X22300508Y120061905D02*
X22339556Y119983810D01*
X22339556Y119983810D02*
X22378603Y119944762D01*
X22378603Y119944762D02*
X22456699Y119905715D01*
X22456699Y119905715D02*
X22534794Y119905715D01*
X22534794Y119905715D02*
X22651937Y119944762D01*
X22651937Y119944762D02*
X23120508Y120413334D01*
X23120508Y120413334D02*
X23120508Y119905715D01*
X26370508Y121055238D02*
X25550508Y121055238D01*
X25550508Y121055238D02*
X25550508Y120860000D01*
X25550508Y120860000D02*
X25589556Y120742857D01*
X25589556Y120742857D02*
X25667651Y120664762D01*
X25667651Y120664762D02*
X25745746Y120625715D01*
X25745746Y120625715D02*
X25901937Y120586667D01*
X25901937Y120586667D02*
X26019080Y120586667D01*
X26019080Y120586667D02*
X26175270Y120625715D01*
X26175270Y120625715D02*
X26253365Y120664762D01*
X26253365Y120664762D02*
X26331461Y120742857D01*
X26331461Y120742857D02*
X26370508Y120860000D01*
X26370508Y120860000D02*
X26370508Y121055238D01*
X25550508Y120313334D02*
X25550508Y119805715D01*
X25550508Y119805715D02*
X25862889Y120079048D01*
X25862889Y120079048D02*
X25862889Y119961905D01*
X25862889Y119961905D02*
X25901937Y119883810D01*
X25901937Y119883810D02*
X25940984Y119844762D01*
X25940984Y119844762D02*
X26019080Y119805715D01*
X26019080Y119805715D02*
X26214318Y119805715D01*
X26214318Y119805715D02*
X26292413Y119844762D01*
X26292413Y119844762D02*
X26331461Y119883810D01*
X26331461Y119883810D02*
X26370508Y119961905D01*
X26370508Y119961905D02*
X26370508Y120196191D01*
X26370508Y120196191D02*
X26331461Y120274286D01*
X26331461Y120274286D02*
X26292413Y120313334D01*
X19770508Y121180238D02*
X18950508Y121180238D01*
X18950508Y121180238D02*
X18950508Y120985000D01*
X18950508Y120985000D02*
X18989556Y120867857D01*
X18989556Y120867857D02*
X19067651Y120789762D01*
X19067651Y120789762D02*
X19145746Y120750715D01*
X19145746Y120750715D02*
X19301937Y120711667D01*
X19301937Y120711667D02*
X19419080Y120711667D01*
X19419080Y120711667D02*
X19575270Y120750715D01*
X19575270Y120750715D02*
X19653365Y120789762D01*
X19653365Y120789762D02*
X19731461Y120867857D01*
X19731461Y120867857D02*
X19770508Y120985000D01*
X19770508Y120985000D02*
X19770508Y121180238D01*
X18950508Y119969762D02*
X18950508Y120360238D01*
X18950508Y120360238D02*
X19340984Y120399286D01*
X19340984Y120399286D02*
X19301937Y120360238D01*
X19301937Y120360238D02*
X19262889Y120282143D01*
X19262889Y120282143D02*
X19262889Y120086905D01*
X19262889Y120086905D02*
X19301937Y120008810D01*
X19301937Y120008810D02*
X19340984Y119969762D01*
X19340984Y119969762D02*
X19419080Y119930715D01*
X19419080Y119930715D02*
X19614318Y119930715D01*
X19614318Y119930715D02*
X19692413Y119969762D01*
X19692413Y119969762D02*
X19731461Y120008810D01*
X19731461Y120008810D02*
X19770508Y120086905D01*
X19770508Y120086905D02*
X19770508Y120282143D01*
X19770508Y120282143D02*
X19731461Y120360238D01*
X19731461Y120360238D02*
X19692413Y120399286D01*
D14*
G04 #@! TO.C,P8*
X124520000Y10870000D02*
X124520000Y13530000D01*
X124814462Y13530000D02*
X124520000Y13530000D01*
X124825627Y10870000D02*
X124520000Y10870000D01*
X126874373Y13530000D02*
X127180000Y13530000D01*
X126885538Y10870000D02*
X127180000Y10870000D01*
X127180000Y13530000D02*
X127180000Y10870000D01*
G04 #@! TO.C,G3*
X14981000Y42973000D02*
X2789000Y42973000D01*
X2789000Y35861000D01*
X14981000Y35861000D01*
X14981000Y42973000D01*
G04 #@! TO.C,M5*
D15*
X133900000Y61725000D02*
X120000000Y61725000D01*
X120000000Y89225000D01*
X133900000Y89225000D01*
X133900000Y61725000D01*
D14*
G04 #@! TO.C,P1*
X18232505Y66313334D02*
X18232505Y68973334D01*
X18526967Y68973334D02*
X18232505Y68973334D01*
X18538132Y66313334D02*
X18232505Y66313334D01*
X20586878Y68973334D02*
X20892505Y68973334D01*
X20598043Y66313334D02*
X20892505Y66313334D01*
X20892505Y68973334D02*
X20892505Y66313334D01*
G04 #@! TO.C,P2*
X15332505Y66313334D02*
X15332505Y68973334D01*
X15626967Y68973334D02*
X15332505Y68973334D01*
X15638132Y66313334D02*
X15332505Y66313334D01*
X17686878Y68973334D02*
X17992505Y68973334D01*
X17698043Y66313334D02*
X17992505Y66313334D01*
X17992505Y68973334D02*
X17992505Y66313334D01*
G04 #@! TO.C,P15*
X26315000Y104630000D02*
X28975000Y104630000D01*
X26315000Y104324373D02*
X26315000Y104630000D01*
X26315000Y102264462D02*
X26315000Y101970000D01*
X28975000Y104335538D02*
X28975000Y104630000D01*
X28975000Y102275627D02*
X28975000Y101970000D01*
X28975000Y101970000D02*
X26315000Y101970000D01*
G04 #@! TO.C,F4*
X17835000Y88725000D02*
X22685000Y88725000D01*
X17835000Y86725000D02*
X22685000Y86725000D01*
X17785000Y86725000D02*
G75*
G02*
X17785000Y88725000I0J1000000D01*
G01*
X22685000Y88725000D02*
G75*
G02*
X22685000Y86725000I0J-1000000D01*
G01*
G04 #@! TO.C,P4*
X49945000Y41980000D02*
X52605000Y41980000D01*
X49945000Y41674373D02*
X49945000Y41980000D01*
X49945000Y39614462D02*
X49945000Y39320000D01*
X52605000Y41685538D02*
X52605000Y41980000D01*
X52605000Y39625627D02*
X52605000Y39320000D01*
X52605000Y39320000D02*
X49945000Y39320000D01*
G04 #@! TO.C,G4*
X14981000Y34741000D02*
X2789000Y34741000D01*
X2789000Y27629000D01*
X14981000Y27629000D01*
X14981000Y34741000D01*
D15*
G04 #@! TO.C,M3*
X36290000Y121062500D02*
X36290000Y106062500D01*
X36290000Y121062500D02*
X37590000Y121062500D01*
X36290000Y106062500D02*
X41390000Y106062500D01*
X45890000Y121062500D02*
X39490000Y121062500D01*
X45890000Y106662500D02*
X45890000Y121062500D01*
D14*
G04 #@! TO.C,P17*
X27240000Y95005000D02*
X29900000Y95005000D01*
X27240000Y94699373D02*
X27240000Y95005000D01*
X27240000Y92639462D02*
X27240000Y92345000D01*
X29900000Y94710538D02*
X29900000Y95005000D01*
X29900000Y92650627D02*
X29900000Y92345000D01*
X29900000Y92345000D02*
X27240000Y92345000D01*
G04 #@! TO.C,F3*
X17835000Y86525000D02*
X22685000Y86525000D01*
X17835000Y84525000D02*
X22685000Y84525000D01*
X17785000Y84525000D02*
G75*
G02*
X17785000Y86525000I0J1000000D01*
G01*
X22685000Y86525000D02*
G75*
G02*
X22685000Y84525000I0J-1000000D01*
G01*
D15*
G04 #@! TO.C,M2*
X99625000Y95075000D02*
X99625000Y85975000D01*
X99625000Y95075000D02*
X100625002Y95075000D01*
X102725003Y95075000D02*
X102725003Y85975000D01*
D14*
G04 #@! TO.C,P18*
X14615000Y81455000D02*
X17275000Y81455000D01*
X14615000Y81149373D02*
X14615000Y81455000D01*
X14615000Y79089462D02*
X14615000Y78795000D01*
X17275000Y81160538D02*
X17275000Y81455000D01*
X17275000Y79100627D02*
X17275000Y78795000D01*
X17275000Y78795000D02*
X14615000Y78795000D01*
D15*
G04 #@! TO.C,M1*
X55575003Y17599999D02*
X55575001Y32899998D01*
X55874999Y32899998D02*
X55575001Y32899998D01*
X62175001Y16099999D02*
X58974998Y16099999D01*
X62274999Y32899996D02*
X57474999Y32899996D01*
X68475001Y32899996D02*
X65775001Y32899996D01*
X71174999Y32899996D02*
X70074996Y32899996D01*
X74275001Y16099999D02*
X63874999Y16099999D01*
X74725001Y32899996D02*
X73175001Y32900001D01*
X76175001Y16099999D02*
X75875001Y16099999D01*
X76175001Y16099999D02*
X76175001Y31499999D01*
G04 #@! TO.C,M7*
X21625004Y73472824D02*
X32800004Y73511671D01*
X21625004Y67775002D02*
X21625004Y73472824D01*
X21625004Y67775002D02*
X21900008Y67499996D01*
X21900008Y66674997D02*
X21900008Y67499996D01*
X21900008Y66674997D02*
X21956210Y66624997D01*
X21956210Y66624997D02*
X32800004Y66624997D01*
X32800004Y66618794D02*
X32800004Y73511671D01*
D14*
G04 #@! TO.C,F1*
X17835000Y84325000D02*
X22685000Y84325000D01*
X17835000Y82325000D02*
X22685000Y82325000D01*
X17785000Y82325000D02*
G75*
G02*
X17785000Y84325000I0J1000000D01*
G01*
X22685000Y84325000D02*
G75*
G02*
X22685000Y82325000I0J-1000000D01*
G01*
G04 #@! TO.C,P3*
X53370000Y42005000D02*
X56030000Y42005000D01*
X53370000Y41699373D02*
X53370000Y42005000D01*
X53370000Y39639462D02*
X53370000Y39345000D01*
X56030000Y41710538D02*
X56030000Y42005000D01*
X56030000Y39650627D02*
X56030000Y39345000D01*
X56030000Y39345000D02*
X53370000Y39345000D01*
D16*
G04 #@! TO.C,R4*
X72575000Y39974001D02*
X72575000Y38958001D01*
X72575000Y37942001D02*
X72575000Y36926001D01*
X74175000Y38958001D02*
X74175000Y39974001D01*
X74175000Y36926001D02*
X74175000Y37942001D01*
D14*
X72575000Y40025001D02*
G75*
G02*
X74178495Y40033603I800000J330000D01*
G01*
X74176638Y36871001D02*
G75*
G02*
X72575000Y36875001I-801638J-326000D01*
G01*
G04 #@! TO.C,P7*
X124520000Y7795000D02*
X124520000Y10455000D01*
X124814462Y10455000D02*
X124520000Y10455000D01*
X124825627Y7795000D02*
X124520000Y7795000D01*
X126874373Y10455000D02*
X127180000Y10455000D01*
X126885538Y7795000D02*
X127180000Y7795000D01*
X127180000Y10455000D02*
X127180000Y7795000D01*
D15*
G04 #@! TO.C,M6*
X48949995Y82600005D02*
X48949995Y46800015D01*
X82750005Y82600005D02*
X48949995Y82600005D01*
X82750005Y82600005D02*
X82750005Y46800015D01*
X82750005Y46800015D02*
X48949995Y46800015D01*
G04 #@! TO.C,M4*
X47875000Y121100000D02*
X47875000Y106100000D01*
X47875000Y121100000D02*
X49175000Y121100000D01*
X47875000Y106100000D02*
X52975000Y106100000D01*
X57475000Y121100000D02*
X51075000Y121100000D01*
X57475000Y106700000D02*
X57475000Y121100000D01*
D14*
G04 #@! TO.C,F2*
X24225000Y82925000D02*
X24225000Y87775000D01*
X26225000Y82925000D02*
X26225000Y87775000D01*
X24225000Y87775000D02*
G75*
G02*
X26225000Y87775000I1000000J0D01*
G01*
X26225000Y82875000D02*
G75*
G02*
X24225000Y82875000I-1000000J0D01*
G01*
G04 #@! TO.C,P16*
X11840000Y99905000D02*
X14500000Y99905000D01*
X11840000Y99599373D02*
X11840000Y99905000D01*
X11840000Y97539462D02*
X11840000Y97245000D01*
X14500000Y99610538D02*
X14500000Y99905000D01*
X14500000Y97550627D02*
X14500000Y97245000D01*
X14500000Y97245000D02*
X11840000Y97245000D01*
D15*
G04 #@! TO.C,C10*
X19135000Y94850000D02*
X19135000Y95850000D01*
D14*
G04 #@! TO.C,D4*
X15000000Y121575000D02*
X15000000Y125475000D01*
D13*
X15650000Y124175000D02*
X16350000Y124175000D01*
X15650000Y123475000D02*
X16350000Y123475000D01*
X16000000Y124175000D02*
X16000000Y124475000D01*
X16000000Y123475000D02*
X15650000Y124175000D01*
X16000000Y123475000D02*
X16350000Y124175000D01*
X16000000Y123275000D02*
X16000000Y123475000D01*
D14*
X17000000Y121575000D02*
X15000000Y121575000D01*
X17000000Y121575000D02*
X17000000Y125475000D01*
D15*
G04 #@! TO.C,C7*
X19135000Y100850000D02*
X19135000Y101850000D01*
G04 #@! TO.C,C17*
X13300000Y87700000D02*
X13300000Y86700000D01*
G04 #@! TO.C,C3*
X23135000Y99850000D02*
X23135000Y98850000D01*
G04 #@! TO.C,C23*
X9300000Y84700000D02*
X9300000Y85700000D01*
G04 #@! TO.C,C1*
X23135000Y103850000D02*
X23135000Y102850000D01*
G04 #@! TO.C,C14*
X13300000Y93700000D02*
X13300000Y92700000D01*
G04 #@! TO.C,C19*
X9300000Y92700000D02*
X9300000Y93700000D01*
G04 #@! TO.C,C4*
X23135000Y97850000D02*
X23135000Y96850000D01*
D14*
G04 #@! TO.C,D2*
X21700000Y121575000D02*
X21700000Y125475000D01*
D13*
X22350000Y124175000D02*
X23050000Y124175000D01*
X22350000Y123475000D02*
X23050000Y123475000D01*
X22700000Y124175000D02*
X22700000Y124475000D01*
X22700000Y123475000D02*
X22350000Y124175000D01*
X22700000Y123475000D02*
X23050000Y124175000D01*
X22700000Y123275000D02*
X22700000Y123475000D01*
D14*
X23700000Y121575000D02*
X21700000Y121575000D01*
X23700000Y121575000D02*
X23700000Y125475000D01*
D15*
G04 #@! TO.C,C21*
X9300000Y88700000D02*
X9300000Y89700000D01*
G04 #@! TO.C,C16*
X13300000Y89700000D02*
X13300000Y88700000D01*
G04 #@! TO.C,C22*
X9300000Y86700000D02*
X9300000Y87700000D01*
D14*
G04 #@! TO.C,D3*
X25025000Y121575000D02*
X25025000Y125475000D01*
D13*
X25675000Y124175000D02*
X26375000Y124175000D01*
X25675000Y123475000D02*
X26375000Y123475000D01*
X26025000Y124175000D02*
X26025000Y124475000D01*
X26025000Y123475000D02*
X25675000Y124175000D01*
X26025000Y123475000D02*
X26375000Y124175000D01*
X26025000Y123275000D02*
X26025000Y123475000D01*
D14*
X27025000Y121575000D02*
X25025000Y121575000D01*
X27025000Y121575000D02*
X27025000Y125475000D01*
D15*
G04 #@! TO.C,C5*
X23135000Y95850000D02*
X23135000Y94850000D01*
G04 #@! TO.C,C15*
X13300000Y91700000D02*
X13300000Y90700000D01*
G04 #@! TO.C,C8*
X19135000Y98850000D02*
X19135000Y99850000D01*
G04 #@! TO.C,C9*
X19135000Y96850000D02*
X19135000Y97850000D01*
G04 #@! TO.C,C6*
X19135000Y102850000D02*
X19135000Y103850000D01*
D14*
G04 #@! TO.C,D5*
X18350000Y121575000D02*
X18350000Y125475000D01*
D13*
X19000000Y124175000D02*
X19700000Y124175000D01*
X19000000Y123475000D02*
X19700000Y123475000D01*
X19350000Y124175000D02*
X19350000Y124475000D01*
X19350000Y123475000D02*
X19000000Y124175000D01*
X19350000Y123475000D02*
X19700000Y124175000D01*
X19350000Y123275000D02*
X19350000Y123475000D01*
D14*
X20350000Y121575000D02*
X18350000Y121575000D01*
X20350000Y121575000D02*
X20350000Y125475000D01*
D15*
G04 #@! TO.C,C2*
X23135000Y101850000D02*
X23135000Y100850000D01*
G04 #@! TO.C,C18*
X13300000Y85700000D02*
X13300000Y84700000D01*
G04 #@! TO.C,C20*
X9300000Y90700000D02*
X9300000Y91700000D01*
G04 #@! TD*
M02*
