G04 #@! TF.GenerationSoftware,KiCad,Pcbnew,8.0.2-8.0.2-0~ubuntu22.04.1*
G04 #@! TF.CreationDate,2024-05-18T16:59:28+00:00*
G04 #@! TF.ProjectId,uaefi,75616566-692e-46b6-9963-61645f706362,C*
G04 #@! TF.SameCoordinates,Original*
G04 #@! TF.FileFunction,Profile,NP*
%FSLAX46Y46*%
G04 Gerber Fmt 4.6, Leading zero omitted, Abs format (unit mm)*
G04 Created by KiCad (PCBNEW 8.0.2-8.0.2-0~ubuntu22.04.1) date 2024-05-18 16:59:28*
%MOMM*%
%LPD*%
G01*
G04 APERTURE LIST*
G04 #@! TA.AperFunction,Profile*
%ADD10C,0.100000*%
G04 #@! TD*
%ADD11C,0.150000*%
G04 APERTURE END LIST*
D10*
X5000000Y0D02*
G75*
G02*
X0Y5000000I0J5000000D01*
G01*
X0Y117992000D02*
G75*
G02*
X5000000Y122992000I5000000J0D01*
G01*
X135025000Y5000000D02*
G75*
G02*
X130025000Y0I-5000000J0D01*
G01*
X130025000Y122992000D02*
X5000000Y122992000D01*
X130025000Y122992000D02*
G75*
G02*
X135025000Y117992000I0J-5000000D01*
G01*
X0Y117992000D02*
X0Y5000000D01*
X135025000Y5000000D02*
X135025000Y117992000D01*
X5000000Y0D02*
X130025000Y0D01*
D11*
X62988690Y-8187818D02*
X62417262Y-8187818D01*
X62702976Y-8187818D02*
X62702976Y-7187818D01*
X62702976Y-7187818D02*
X62607738Y-7330675D01*
X62607738Y-7330675D02*
X62512500Y-7425913D01*
X62512500Y-7425913D02*
X62417262Y-7473532D01*
X63322024Y-7187818D02*
X63941071Y-7187818D01*
X63941071Y-7187818D02*
X63607738Y-7568770D01*
X63607738Y-7568770D02*
X63750595Y-7568770D01*
X63750595Y-7568770D02*
X63845833Y-7616389D01*
X63845833Y-7616389D02*
X63893452Y-7664008D01*
X63893452Y-7664008D02*
X63941071Y-7759246D01*
X63941071Y-7759246D02*
X63941071Y-7997341D01*
X63941071Y-7997341D02*
X63893452Y-8092579D01*
X63893452Y-8092579D02*
X63845833Y-8140199D01*
X63845833Y-8140199D02*
X63750595Y-8187818D01*
X63750595Y-8187818D02*
X63464881Y-8187818D01*
X63464881Y-8187818D02*
X63369643Y-8140199D01*
X63369643Y-8140199D02*
X63322024Y-8092579D01*
X64845833Y-7187818D02*
X64369643Y-7187818D01*
X64369643Y-7187818D02*
X64322024Y-7664008D01*
X64322024Y-7664008D02*
X64369643Y-7616389D01*
X64369643Y-7616389D02*
X64464881Y-7568770D01*
X64464881Y-7568770D02*
X64702976Y-7568770D01*
X64702976Y-7568770D02*
X64798214Y-7616389D01*
X64798214Y-7616389D02*
X64845833Y-7664008D01*
X64845833Y-7664008D02*
X64893452Y-7759246D01*
X64893452Y-7759246D02*
X64893452Y-7997341D01*
X64893452Y-7997341D02*
X64845833Y-8092579D01*
X64845833Y-8092579D02*
X64798214Y-8140199D01*
X64798214Y-8140199D02*
X64702976Y-8187818D01*
X64702976Y-8187818D02*
X64464881Y-8187818D01*
X64464881Y-8187818D02*
X64369643Y-8140199D01*
X64369643Y-8140199D02*
X64322024Y-8092579D01*
X65322024Y-8092579D02*
X65369643Y-8140199D01*
X65369643Y-8140199D02*
X65322024Y-8187818D01*
X65322024Y-8187818D02*
X65274405Y-8140199D01*
X65274405Y-8140199D02*
X65322024Y-8092579D01*
X65322024Y-8092579D02*
X65322024Y-8187818D01*
X65988690Y-7187818D02*
X66083928Y-7187818D01*
X66083928Y-7187818D02*
X66179166Y-7235437D01*
X66179166Y-7235437D02*
X66226785Y-7283056D01*
X66226785Y-7283056D02*
X66274404Y-7378294D01*
X66274404Y-7378294D02*
X66322023Y-7568770D01*
X66322023Y-7568770D02*
X66322023Y-7806865D01*
X66322023Y-7806865D02*
X66274404Y-7997341D01*
X66274404Y-7997341D02*
X66226785Y-8092579D01*
X66226785Y-8092579D02*
X66179166Y-8140199D01*
X66179166Y-8140199D02*
X66083928Y-8187818D01*
X66083928Y-8187818D02*
X65988690Y-8187818D01*
X65988690Y-8187818D02*
X65893452Y-8140199D01*
X65893452Y-8140199D02*
X65845833Y-8092579D01*
X65845833Y-8092579D02*
X65798214Y-7997341D01*
X65798214Y-7997341D02*
X65750595Y-7806865D01*
X65750595Y-7806865D02*
X65750595Y-7568770D01*
X65750595Y-7568770D02*
X65798214Y-7378294D01*
X65798214Y-7378294D02*
X65845833Y-7283056D01*
X65845833Y-7283056D02*
X65893452Y-7235437D01*
X65893452Y-7235437D02*
X65988690Y-7187818D01*
X66702976Y-7283056D02*
X66750595Y-7235437D01*
X66750595Y-7235437D02*
X66845833Y-7187818D01*
X66845833Y-7187818D02*
X67083928Y-7187818D01*
X67083928Y-7187818D02*
X67179166Y-7235437D01*
X67179166Y-7235437D02*
X67226785Y-7283056D01*
X67226785Y-7283056D02*
X67274404Y-7378294D01*
X67274404Y-7378294D02*
X67274404Y-7473532D01*
X67274404Y-7473532D02*
X67226785Y-7616389D01*
X67226785Y-7616389D02*
X66655357Y-8187818D01*
X66655357Y-8187818D02*
X67274404Y-8187818D01*
X68179166Y-7187818D02*
X67702976Y-7187818D01*
X67702976Y-7187818D02*
X67655357Y-7664008D01*
X67655357Y-7664008D02*
X67702976Y-7616389D01*
X67702976Y-7616389D02*
X67798214Y-7568770D01*
X67798214Y-7568770D02*
X68036309Y-7568770D01*
X68036309Y-7568770D02*
X68131547Y-7616389D01*
X68131547Y-7616389D02*
X68179166Y-7664008D01*
X68179166Y-7664008D02*
X68226785Y-7759246D01*
X68226785Y-7759246D02*
X68226785Y-7997341D01*
X68226785Y-7997341D02*
X68179166Y-8092579D01*
X68179166Y-8092579D02*
X68131547Y-8140199D01*
X68131547Y-8140199D02*
X68036309Y-8187818D01*
X68036309Y-8187818D02*
X67798214Y-8187818D01*
X67798214Y-8187818D02*
X67702976Y-8140199D01*
X67702976Y-8140199D02*
X67655357Y-8092579D01*
X68845833Y-7187818D02*
X68941071Y-7187818D01*
X68941071Y-7187818D02*
X69036309Y-7235437D01*
X69036309Y-7235437D02*
X69083928Y-7283056D01*
X69083928Y-7283056D02*
X69131547Y-7378294D01*
X69131547Y-7378294D02*
X69179166Y-7568770D01*
X69179166Y-7568770D02*
X69179166Y-7806865D01*
X69179166Y-7806865D02*
X69131547Y-7997341D01*
X69131547Y-7997341D02*
X69083928Y-8092579D01*
X69083928Y-8092579D02*
X69036309Y-8140199D01*
X69036309Y-8140199D02*
X68941071Y-8187818D01*
X68941071Y-8187818D02*
X68845833Y-8187818D01*
X68845833Y-8187818D02*
X68750595Y-8140199D01*
X68750595Y-8140199D02*
X68702976Y-8092579D01*
X68702976Y-8092579D02*
X68655357Y-7997341D01*
X68655357Y-7997341D02*
X68607738Y-7806865D01*
X68607738Y-7806865D02*
X68607738Y-7568770D01*
X68607738Y-7568770D02*
X68655357Y-7378294D01*
X68655357Y-7378294D02*
X68702976Y-7283056D01*
X68702976Y-7283056D02*
X68750595Y-7235437D01*
X68750595Y-7235437D02*
X68845833Y-7187818D01*
X70369643Y-8187818D02*
X70369643Y-7521151D01*
X70369643Y-7616389D02*
X70417262Y-7568770D01*
X70417262Y-7568770D02*
X70512500Y-7521151D01*
X70512500Y-7521151D02*
X70655357Y-7521151D01*
X70655357Y-7521151D02*
X70750595Y-7568770D01*
X70750595Y-7568770D02*
X70798214Y-7664008D01*
X70798214Y-7664008D02*
X70798214Y-8187818D01*
X70798214Y-7664008D02*
X70845833Y-7568770D01*
X70845833Y-7568770D02*
X70941071Y-7521151D01*
X70941071Y-7521151D02*
X71083928Y-7521151D01*
X71083928Y-7521151D02*
X71179167Y-7568770D01*
X71179167Y-7568770D02*
X71226786Y-7664008D01*
X71226786Y-7664008D02*
X71226786Y-8187818D01*
X71702976Y-8187818D02*
X71702976Y-7521151D01*
X71702976Y-7616389D02*
X71750595Y-7568770D01*
X71750595Y-7568770D02*
X71845833Y-7521151D01*
X71845833Y-7521151D02*
X71988690Y-7521151D01*
X71988690Y-7521151D02*
X72083928Y-7568770D01*
X72083928Y-7568770D02*
X72131547Y-7664008D01*
X72131547Y-7664008D02*
X72131547Y-8187818D01*
X72131547Y-7664008D02*
X72179166Y-7568770D01*
X72179166Y-7568770D02*
X72274404Y-7521151D01*
X72274404Y-7521151D02*
X72417261Y-7521151D01*
X72417261Y-7521151D02*
X72512500Y-7568770D01*
X72512500Y-7568770D02*
X72560119Y-7664008D01*
X72560119Y-7664008D02*
X72560119Y-8187818D01*
D10*
X0Y4500000D02*
X0Y-9469419D01*
X135025000Y4500000D02*
X135025000Y-9469419D01*
X0Y-8882999D02*
X135025000Y-8882999D01*
X0Y-8882999D02*
X135025000Y-8882999D01*
X0Y-8882999D02*
X1126504Y-8296578D01*
X0Y-8882999D02*
X1126504Y-9469420D01*
X135025000Y-8882999D02*
X133898496Y-9469420D01*
X135025000Y-8882999D02*
X133898496Y-8296578D01*
M02*
