G04 #@! TF.GenerationSoftware,KiCad,Pcbnew,8.0.2-8.0.2-0~ubuntu22.04.1*
G04 #@! TF.CreationDate,2024-05-16T21:05:52+00:00*
G04 #@! TF.ProjectId,uaefi,75616566-692e-46b6-9963-61645f706362,C*
G04 #@! TF.SameCoordinates,Original*
G04 #@! TF.FileFunction,Paste,Bot*
G04 #@! TF.FilePolarity,Positive*
%FSLAX46Y46*%
G04 Gerber Fmt 4.6, Leading zero omitted, Abs format (unit mm)*
G04 Created by KiCad (PCBNEW 8.0.2-8.0.2-0~ubuntu22.04.1) date 2024-05-16 21:05:52*
%MOMM*%
%LPD*%
G01*
G04 APERTURE LIST*
G04 APERTURE END LIST*
G04 #@! TO.C,C10*
G36*
G01*
X16635000Y77825000D02*
X16635000Y78875000D01*
G75*
G02*
X16735000Y78975000I100000J0D01*
G01*
X17535000Y78975000D01*
G75*
G02*
X17635000Y78875000I0J-100000D01*
G01*
X17635000Y77825000D01*
G75*
G02*
X17535000Y77725000I-100000J0D01*
G01*
X16735000Y77725000D01*
G75*
G02*
X16635000Y77825000I0J100000D01*
G01*
G37*
G36*
G01*
X18635000Y77825000D02*
X18635000Y78875000D01*
G75*
G02*
X18735000Y78975000I100000J0D01*
G01*
X19535000Y78975000D01*
G75*
G02*
X19635000Y78875000I0J-100000D01*
G01*
X19635000Y77825000D01*
G75*
G02*
X19535000Y77725000I-100000J0D01*
G01*
X18735000Y77725000D01*
G75*
G02*
X18635000Y77825000I0J100000D01*
G01*
G37*
G04 #@! TD*
G04 #@! TO.C,D4*
G36*
G01*
X15510000Y104725000D02*
X14490000Y104725000D01*
G75*
G02*
X14400000Y104815000I0J90000D01*
G01*
X14400000Y105535000D01*
G75*
G02*
X14490000Y105625000I90000J0D01*
G01*
X15510000Y105625000D01*
G75*
G02*
X15600000Y105535000I0J-90000D01*
G01*
X15600000Y104815000D01*
G75*
G02*
X15510000Y104725000I-90000J0D01*
G01*
G37*
G36*
G01*
X15510000Y108025000D02*
X14490000Y108025000D01*
G75*
G02*
X14400000Y108115000I0J90000D01*
G01*
X14400000Y108835000D01*
G75*
G02*
X14490000Y108925000I90000J0D01*
G01*
X15510000Y108925000D01*
G75*
G02*
X15600000Y108835000I0J-90000D01*
G01*
X15600000Y108115000D01*
G75*
G02*
X15510000Y108025000I-90000J0D01*
G01*
G37*
G04 #@! TD*
G04 #@! TO.C,C7*
G36*
G01*
X16635000Y83825000D02*
X16635000Y84875000D01*
G75*
G02*
X16735000Y84975000I100000J0D01*
G01*
X17535000Y84975000D01*
G75*
G02*
X17635000Y84875000I0J-100000D01*
G01*
X17635000Y83825000D01*
G75*
G02*
X17535000Y83725000I-100000J0D01*
G01*
X16735000Y83725000D01*
G75*
G02*
X16635000Y83825000I0J100000D01*
G01*
G37*
G36*
G01*
X18635000Y83825000D02*
X18635000Y84875000D01*
G75*
G02*
X18735000Y84975000I100000J0D01*
G01*
X19535000Y84975000D01*
G75*
G02*
X19635000Y84875000I0J-100000D01*
G01*
X19635000Y83825000D01*
G75*
G02*
X19535000Y83725000I-100000J0D01*
G01*
X18735000Y83725000D01*
G75*
G02*
X18635000Y83825000I0J100000D01*
G01*
G37*
G04 #@! TD*
G04 #@! TO.C,C17*
G36*
G01*
X13800000Y70725000D02*
X13800000Y69675000D01*
G75*
G02*
X13700000Y69575000I-100000J0D01*
G01*
X12900000Y69575000D01*
G75*
G02*
X12800000Y69675000I0J100000D01*
G01*
X12800000Y70725000D01*
G75*
G02*
X12900000Y70825000I100000J0D01*
G01*
X13700000Y70825000D01*
G75*
G02*
X13800000Y70725000I0J-100000D01*
G01*
G37*
G36*
G01*
X11800000Y70725000D02*
X11800000Y69675000D01*
G75*
G02*
X11700000Y69575000I-100000J0D01*
G01*
X10900000Y69575000D01*
G75*
G02*
X10800000Y69675000I0J100000D01*
G01*
X10800000Y70725000D01*
G75*
G02*
X10900000Y70825000I100000J0D01*
G01*
X11700000Y70825000D01*
G75*
G02*
X11800000Y70725000I0J-100000D01*
G01*
G37*
G04 #@! TD*
G04 #@! TO.C,C3*
G36*
G01*
X23635000Y82875000D02*
X23635000Y81825000D01*
G75*
G02*
X23535000Y81725000I-100000J0D01*
G01*
X22735000Y81725000D01*
G75*
G02*
X22635000Y81825000I0J100000D01*
G01*
X22635000Y82875000D01*
G75*
G02*
X22735000Y82975000I100000J0D01*
G01*
X23535000Y82975000D01*
G75*
G02*
X23635000Y82875000I0J-100000D01*
G01*
G37*
G36*
G01*
X21635000Y82875000D02*
X21635000Y81825000D01*
G75*
G02*
X21535000Y81725000I-100000J0D01*
G01*
X20735000Y81725000D01*
G75*
G02*
X20635000Y81825000I0J100000D01*
G01*
X20635000Y82875000D01*
G75*
G02*
X20735000Y82975000I100000J0D01*
G01*
X21535000Y82975000D01*
G75*
G02*
X21635000Y82875000I0J-100000D01*
G01*
G37*
G04 #@! TD*
G04 #@! TO.C,C23*
G36*
G01*
X6800000Y67675000D02*
X6800000Y68725000D01*
G75*
G02*
X6900000Y68825000I100000J0D01*
G01*
X7700000Y68825000D01*
G75*
G02*
X7800000Y68725000I0J-100000D01*
G01*
X7800000Y67675000D01*
G75*
G02*
X7700000Y67575000I-100000J0D01*
G01*
X6900000Y67575000D01*
G75*
G02*
X6800000Y67675000I0J100000D01*
G01*
G37*
G36*
G01*
X8800000Y67675000D02*
X8800000Y68725000D01*
G75*
G02*
X8900000Y68825000I100000J0D01*
G01*
X9700000Y68825000D01*
G75*
G02*
X9800000Y68725000I0J-100000D01*
G01*
X9800000Y67675000D01*
G75*
G02*
X9700000Y67575000I-100000J0D01*
G01*
X8900000Y67575000D01*
G75*
G02*
X8800000Y67675000I0J100000D01*
G01*
G37*
G04 #@! TD*
G04 #@! TO.C,C1*
G36*
G01*
X23635000Y86875000D02*
X23635000Y85825000D01*
G75*
G02*
X23535000Y85725000I-100000J0D01*
G01*
X22735000Y85725000D01*
G75*
G02*
X22635000Y85825000I0J100000D01*
G01*
X22635000Y86875000D01*
G75*
G02*
X22735000Y86975000I100000J0D01*
G01*
X23535000Y86975000D01*
G75*
G02*
X23635000Y86875000I0J-100000D01*
G01*
G37*
G36*
G01*
X21635000Y86875000D02*
X21635000Y85825000D01*
G75*
G02*
X21535000Y85725000I-100000J0D01*
G01*
X20735000Y85725000D01*
G75*
G02*
X20635000Y85825000I0J100000D01*
G01*
X20635000Y86875000D01*
G75*
G02*
X20735000Y86975000I100000J0D01*
G01*
X21535000Y86975000D01*
G75*
G02*
X21635000Y86875000I0J-100000D01*
G01*
G37*
G04 #@! TD*
G04 #@! TO.C,C14*
G36*
G01*
X13800000Y76725000D02*
X13800000Y75675000D01*
G75*
G02*
X13700000Y75575000I-100000J0D01*
G01*
X12900000Y75575000D01*
G75*
G02*
X12800000Y75675000I0J100000D01*
G01*
X12800000Y76725000D01*
G75*
G02*
X12900000Y76825000I100000J0D01*
G01*
X13700000Y76825000D01*
G75*
G02*
X13800000Y76725000I0J-100000D01*
G01*
G37*
G36*
G01*
X11800000Y76725000D02*
X11800000Y75675000D01*
G75*
G02*
X11700000Y75575000I-100000J0D01*
G01*
X10900000Y75575000D01*
G75*
G02*
X10800000Y75675000I0J100000D01*
G01*
X10800000Y76725000D01*
G75*
G02*
X10900000Y76825000I100000J0D01*
G01*
X11700000Y76825000D01*
G75*
G02*
X11800000Y76725000I0J-100000D01*
G01*
G37*
G04 #@! TD*
G04 #@! TO.C,C19*
G36*
G01*
X6800000Y75675000D02*
X6800000Y76725000D01*
G75*
G02*
X6900000Y76825000I100000J0D01*
G01*
X7700000Y76825000D01*
G75*
G02*
X7800000Y76725000I0J-100000D01*
G01*
X7800000Y75675000D01*
G75*
G02*
X7700000Y75575000I-100000J0D01*
G01*
X6900000Y75575000D01*
G75*
G02*
X6800000Y75675000I0J100000D01*
G01*
G37*
G36*
G01*
X8800000Y75675000D02*
X8800000Y76725000D01*
G75*
G02*
X8900000Y76825000I100000J0D01*
G01*
X9700000Y76825000D01*
G75*
G02*
X9800000Y76725000I0J-100000D01*
G01*
X9800000Y75675000D01*
G75*
G02*
X9700000Y75575000I-100000J0D01*
G01*
X8900000Y75575000D01*
G75*
G02*
X8800000Y75675000I0J100000D01*
G01*
G37*
G04 #@! TD*
G04 #@! TO.C,C4*
G36*
G01*
X23635000Y80875000D02*
X23635000Y79825000D01*
G75*
G02*
X23535000Y79725000I-100000J0D01*
G01*
X22735000Y79725000D01*
G75*
G02*
X22635000Y79825000I0J100000D01*
G01*
X22635000Y80875000D01*
G75*
G02*
X22735000Y80975000I100000J0D01*
G01*
X23535000Y80975000D01*
G75*
G02*
X23635000Y80875000I0J-100000D01*
G01*
G37*
G36*
G01*
X21635000Y80875000D02*
X21635000Y79825000D01*
G75*
G02*
X21535000Y79725000I-100000J0D01*
G01*
X20735000Y79725000D01*
G75*
G02*
X20635000Y79825000I0J100000D01*
G01*
X20635000Y80875000D01*
G75*
G02*
X20735000Y80975000I100000J0D01*
G01*
X21535000Y80975000D01*
G75*
G02*
X21635000Y80875000I0J-100000D01*
G01*
G37*
G04 #@! TD*
G04 #@! TO.C,D2*
G36*
G01*
X22210000Y104725000D02*
X21190000Y104725000D01*
G75*
G02*
X21100000Y104815000I0J90000D01*
G01*
X21100000Y105535000D01*
G75*
G02*
X21190000Y105625000I90000J0D01*
G01*
X22210000Y105625000D01*
G75*
G02*
X22300000Y105535000I0J-90000D01*
G01*
X22300000Y104815000D01*
G75*
G02*
X22210000Y104725000I-90000J0D01*
G01*
G37*
G36*
G01*
X22210000Y108025000D02*
X21190000Y108025000D01*
G75*
G02*
X21100000Y108115000I0J90000D01*
G01*
X21100000Y108835000D01*
G75*
G02*
X21190000Y108925000I90000J0D01*
G01*
X22210000Y108925000D01*
G75*
G02*
X22300000Y108835000I0J-90000D01*
G01*
X22300000Y108115000D01*
G75*
G02*
X22210000Y108025000I-90000J0D01*
G01*
G37*
G04 #@! TD*
G04 #@! TO.C,C21*
G36*
G01*
X6800000Y71675000D02*
X6800000Y72725000D01*
G75*
G02*
X6900000Y72825000I100000J0D01*
G01*
X7700000Y72825000D01*
G75*
G02*
X7800000Y72725000I0J-100000D01*
G01*
X7800000Y71675000D01*
G75*
G02*
X7700000Y71575000I-100000J0D01*
G01*
X6900000Y71575000D01*
G75*
G02*
X6800000Y71675000I0J100000D01*
G01*
G37*
G36*
G01*
X8800000Y71675000D02*
X8800000Y72725000D01*
G75*
G02*
X8900000Y72825000I100000J0D01*
G01*
X9700000Y72825000D01*
G75*
G02*
X9800000Y72725000I0J-100000D01*
G01*
X9800000Y71675000D01*
G75*
G02*
X9700000Y71575000I-100000J0D01*
G01*
X8900000Y71575000D01*
G75*
G02*
X8800000Y71675000I0J100000D01*
G01*
G37*
G04 #@! TD*
G04 #@! TO.C,C16*
G36*
G01*
X13800000Y72725000D02*
X13800000Y71675000D01*
G75*
G02*
X13700000Y71575000I-100000J0D01*
G01*
X12900000Y71575000D01*
G75*
G02*
X12800000Y71675000I0J100000D01*
G01*
X12800000Y72725000D01*
G75*
G02*
X12900000Y72825000I100000J0D01*
G01*
X13700000Y72825000D01*
G75*
G02*
X13800000Y72725000I0J-100000D01*
G01*
G37*
G36*
G01*
X11800000Y72725000D02*
X11800000Y71675000D01*
G75*
G02*
X11700000Y71575000I-100000J0D01*
G01*
X10900000Y71575000D01*
G75*
G02*
X10800000Y71675000I0J100000D01*
G01*
X10800000Y72725000D01*
G75*
G02*
X10900000Y72825000I100000J0D01*
G01*
X11700000Y72825000D01*
G75*
G02*
X11800000Y72725000I0J-100000D01*
G01*
G37*
G04 #@! TD*
G04 #@! TO.C,C22*
G36*
G01*
X6800000Y69675000D02*
X6800000Y70725000D01*
G75*
G02*
X6900000Y70825000I100000J0D01*
G01*
X7700000Y70825000D01*
G75*
G02*
X7800000Y70725000I0J-100000D01*
G01*
X7800000Y69675000D01*
G75*
G02*
X7700000Y69575000I-100000J0D01*
G01*
X6900000Y69575000D01*
G75*
G02*
X6800000Y69675000I0J100000D01*
G01*
G37*
G36*
G01*
X8800000Y69675000D02*
X8800000Y70725000D01*
G75*
G02*
X8900000Y70825000I100000J0D01*
G01*
X9700000Y70825000D01*
G75*
G02*
X9800000Y70725000I0J-100000D01*
G01*
X9800000Y69675000D01*
G75*
G02*
X9700000Y69575000I-100000J0D01*
G01*
X8900000Y69575000D01*
G75*
G02*
X8800000Y69675000I0J100000D01*
G01*
G37*
G04 #@! TD*
G04 #@! TO.C,D3*
G36*
G01*
X25535000Y104725000D02*
X24515000Y104725000D01*
G75*
G02*
X24425000Y104815000I0J90000D01*
G01*
X24425000Y105535000D01*
G75*
G02*
X24515000Y105625000I90000J0D01*
G01*
X25535000Y105625000D01*
G75*
G02*
X25625000Y105535000I0J-90000D01*
G01*
X25625000Y104815000D01*
G75*
G02*
X25535000Y104725000I-90000J0D01*
G01*
G37*
G36*
G01*
X25535000Y108025000D02*
X24515000Y108025000D01*
G75*
G02*
X24425000Y108115000I0J90000D01*
G01*
X24425000Y108835000D01*
G75*
G02*
X24515000Y108925000I90000J0D01*
G01*
X25535000Y108925000D01*
G75*
G02*
X25625000Y108835000I0J-90000D01*
G01*
X25625000Y108115000D01*
G75*
G02*
X25535000Y108025000I-90000J0D01*
G01*
G37*
G04 #@! TD*
G04 #@! TO.C,C5*
G36*
G01*
X23635000Y78875000D02*
X23635000Y77825000D01*
G75*
G02*
X23535000Y77725000I-100000J0D01*
G01*
X22735000Y77725000D01*
G75*
G02*
X22635000Y77825000I0J100000D01*
G01*
X22635000Y78875000D01*
G75*
G02*
X22735000Y78975000I100000J0D01*
G01*
X23535000Y78975000D01*
G75*
G02*
X23635000Y78875000I0J-100000D01*
G01*
G37*
G36*
G01*
X21635000Y78875000D02*
X21635000Y77825000D01*
G75*
G02*
X21535000Y77725000I-100000J0D01*
G01*
X20735000Y77725000D01*
G75*
G02*
X20635000Y77825000I0J100000D01*
G01*
X20635000Y78875000D01*
G75*
G02*
X20735000Y78975000I100000J0D01*
G01*
X21535000Y78975000D01*
G75*
G02*
X21635000Y78875000I0J-100000D01*
G01*
G37*
G04 #@! TD*
G04 #@! TO.C,C15*
G36*
G01*
X13800000Y74725000D02*
X13800000Y73675000D01*
G75*
G02*
X13700000Y73575000I-100000J0D01*
G01*
X12900000Y73575000D01*
G75*
G02*
X12800000Y73675000I0J100000D01*
G01*
X12800000Y74725000D01*
G75*
G02*
X12900000Y74825000I100000J0D01*
G01*
X13700000Y74825000D01*
G75*
G02*
X13800000Y74725000I0J-100000D01*
G01*
G37*
G36*
G01*
X11800000Y74725000D02*
X11800000Y73675000D01*
G75*
G02*
X11700000Y73575000I-100000J0D01*
G01*
X10900000Y73575000D01*
G75*
G02*
X10800000Y73675000I0J100000D01*
G01*
X10800000Y74725000D01*
G75*
G02*
X10900000Y74825000I100000J0D01*
G01*
X11700000Y74825000D01*
G75*
G02*
X11800000Y74725000I0J-100000D01*
G01*
G37*
G04 #@! TD*
G04 #@! TO.C,C8*
G36*
G01*
X16635000Y81825000D02*
X16635000Y82875000D01*
G75*
G02*
X16735000Y82975000I100000J0D01*
G01*
X17535000Y82975000D01*
G75*
G02*
X17635000Y82875000I0J-100000D01*
G01*
X17635000Y81825000D01*
G75*
G02*
X17535000Y81725000I-100000J0D01*
G01*
X16735000Y81725000D01*
G75*
G02*
X16635000Y81825000I0J100000D01*
G01*
G37*
G36*
G01*
X18635000Y81825000D02*
X18635000Y82875000D01*
G75*
G02*
X18735000Y82975000I100000J0D01*
G01*
X19535000Y82975000D01*
G75*
G02*
X19635000Y82875000I0J-100000D01*
G01*
X19635000Y81825000D01*
G75*
G02*
X19535000Y81725000I-100000J0D01*
G01*
X18735000Y81725000D01*
G75*
G02*
X18635000Y81825000I0J100000D01*
G01*
G37*
G04 #@! TD*
G04 #@! TO.C,C9*
G36*
G01*
X16635000Y79825000D02*
X16635000Y80875000D01*
G75*
G02*
X16735000Y80975000I100000J0D01*
G01*
X17535000Y80975000D01*
G75*
G02*
X17635000Y80875000I0J-100000D01*
G01*
X17635000Y79825000D01*
G75*
G02*
X17535000Y79725000I-100000J0D01*
G01*
X16735000Y79725000D01*
G75*
G02*
X16635000Y79825000I0J100000D01*
G01*
G37*
G36*
G01*
X18635000Y79825000D02*
X18635000Y80875000D01*
G75*
G02*
X18735000Y80975000I100000J0D01*
G01*
X19535000Y80975000D01*
G75*
G02*
X19635000Y80875000I0J-100000D01*
G01*
X19635000Y79825000D01*
G75*
G02*
X19535000Y79725000I-100000J0D01*
G01*
X18735000Y79725000D01*
G75*
G02*
X18635000Y79825000I0J100000D01*
G01*
G37*
G04 #@! TD*
G04 #@! TO.C,C6*
G36*
G01*
X16635000Y85825000D02*
X16635000Y86875000D01*
G75*
G02*
X16735000Y86975000I100000J0D01*
G01*
X17535000Y86975000D01*
G75*
G02*
X17635000Y86875000I0J-100000D01*
G01*
X17635000Y85825000D01*
G75*
G02*
X17535000Y85725000I-100000J0D01*
G01*
X16735000Y85725000D01*
G75*
G02*
X16635000Y85825000I0J100000D01*
G01*
G37*
G36*
G01*
X18635000Y85825000D02*
X18635000Y86875000D01*
G75*
G02*
X18735000Y86975000I100000J0D01*
G01*
X19535000Y86975000D01*
G75*
G02*
X19635000Y86875000I0J-100000D01*
G01*
X19635000Y85825000D01*
G75*
G02*
X19535000Y85725000I-100000J0D01*
G01*
X18735000Y85725000D01*
G75*
G02*
X18635000Y85825000I0J100000D01*
G01*
G37*
G04 #@! TD*
G04 #@! TO.C,D5*
G36*
G01*
X18860000Y104725000D02*
X17840000Y104725000D01*
G75*
G02*
X17750000Y104815000I0J90000D01*
G01*
X17750000Y105535000D01*
G75*
G02*
X17840000Y105625000I90000J0D01*
G01*
X18860000Y105625000D01*
G75*
G02*
X18950000Y105535000I0J-90000D01*
G01*
X18950000Y104815000D01*
G75*
G02*
X18860000Y104725000I-90000J0D01*
G01*
G37*
G36*
G01*
X18860000Y108025000D02*
X17840000Y108025000D01*
G75*
G02*
X17750000Y108115000I0J90000D01*
G01*
X17750000Y108835000D01*
G75*
G02*
X17840000Y108925000I90000J0D01*
G01*
X18860000Y108925000D01*
G75*
G02*
X18950000Y108835000I0J-90000D01*
G01*
X18950000Y108115000D01*
G75*
G02*
X18860000Y108025000I-90000J0D01*
G01*
G37*
G04 #@! TD*
G04 #@! TO.C,C2*
G36*
G01*
X23635000Y84875000D02*
X23635000Y83825000D01*
G75*
G02*
X23535000Y83725000I-100000J0D01*
G01*
X22735000Y83725000D01*
G75*
G02*
X22635000Y83825000I0J100000D01*
G01*
X22635000Y84875000D01*
G75*
G02*
X22735000Y84975000I100000J0D01*
G01*
X23535000Y84975000D01*
G75*
G02*
X23635000Y84875000I0J-100000D01*
G01*
G37*
G36*
G01*
X21635000Y84875000D02*
X21635000Y83825000D01*
G75*
G02*
X21535000Y83725000I-100000J0D01*
G01*
X20735000Y83725000D01*
G75*
G02*
X20635000Y83825000I0J100000D01*
G01*
X20635000Y84875000D01*
G75*
G02*
X20735000Y84975000I100000J0D01*
G01*
X21535000Y84975000D01*
G75*
G02*
X21635000Y84875000I0J-100000D01*
G01*
G37*
G04 #@! TD*
G04 #@! TO.C,C18*
G36*
G01*
X13800000Y68725000D02*
X13800000Y67675000D01*
G75*
G02*
X13700000Y67575000I-100000J0D01*
G01*
X12900000Y67575000D01*
G75*
G02*
X12800000Y67675000I0J100000D01*
G01*
X12800000Y68725000D01*
G75*
G02*
X12900000Y68825000I100000J0D01*
G01*
X13700000Y68825000D01*
G75*
G02*
X13800000Y68725000I0J-100000D01*
G01*
G37*
G36*
G01*
X11800000Y68725000D02*
X11800000Y67675000D01*
G75*
G02*
X11700000Y67575000I-100000J0D01*
G01*
X10900000Y67575000D01*
G75*
G02*
X10800000Y67675000I0J100000D01*
G01*
X10800000Y68725000D01*
G75*
G02*
X10900000Y68825000I100000J0D01*
G01*
X11700000Y68825000D01*
G75*
G02*
X11800000Y68725000I0J-100000D01*
G01*
G37*
G04 #@! TD*
G04 #@! TO.C,C20*
G36*
G01*
X6800000Y73675000D02*
X6800000Y74725000D01*
G75*
G02*
X6900000Y74825000I100000J0D01*
G01*
X7700000Y74825000D01*
G75*
G02*
X7800000Y74725000I0J-100000D01*
G01*
X7800000Y73675000D01*
G75*
G02*
X7700000Y73575000I-100000J0D01*
G01*
X6900000Y73575000D01*
G75*
G02*
X6800000Y73675000I0J100000D01*
G01*
G37*
G36*
G01*
X8800000Y73675000D02*
X8800000Y74725000D01*
G75*
G02*
X8900000Y74825000I100000J0D01*
G01*
X9700000Y74825000D01*
G75*
G02*
X9800000Y74725000I0J-100000D01*
G01*
X9800000Y73675000D01*
G75*
G02*
X9700000Y73575000I-100000J0D01*
G01*
X8900000Y73575000D01*
G75*
G02*
X8800000Y73675000I0J100000D01*
G01*
G37*
G04 #@! TD*
M02*
