G04 #@! TF.GenerationSoftware,KiCad,Pcbnew,8.0.2-8.0.2-0~ubuntu22.04.1*
G04 #@! TF.CreationDate,2024-05-24T14:32:54+00:00*
G04 #@! TF.ProjectId,uaefi,75616566-692e-46b6-9963-61645f706362,C*
G04 #@! TF.SameCoordinates,Original*
G04 #@! TF.FileFunction,Soldermask,Bot*
G04 #@! TF.FilePolarity,Negative*
%FSLAX46Y46*%
G04 Gerber Fmt 4.6, Leading zero omitted, Abs format (unit mm)*
G04 Created by KiCad (PCBNEW 8.0.2-8.0.2-0~ubuntu22.04.1) date 2024-05-24 14:32:54*
%MOMM*%
%LPD*%
G01*
G04 APERTURE LIST*
%ADD10C,0.120000*%
%ADD11R,1.000000X1.000000*%
%ADD12O,1.000000X1.000000*%
%ADD13C,1.500000*%
%ADD14C,1.700000*%
%ADD15C,0.900000*%
%ADD16O,8.600000X10.400000*%
%ADD17C,4.800000*%
%ADD18C,1.952400*%
%ADD19C,1.524000*%
%ADD20O,1.850000X1.700000*%
%ADD21C,0.600000*%
%ADD22R,1.100000X1.100000*%
%ADD23C,1.100000*%
%ADD24O,2.400000X1.100000*%
%ADD25C,0.599999*%
%ADD26C,0.650000*%
%ADD27O,1.000000X2.100000*%
%ADD28O,1.000000X1.600000*%
%ADD29R,1.700000X1.700000*%
%ADD30O,1.700000X1.700000*%
%ADD31C,3.302000*%
%ADD32C,3.000000*%
%ADD33O,3.700000X2.700000*%
G04 APERTURE END LIST*
D10*
G04 #@! TO.C,U5*
X115565000Y1392000D02*
X102565000Y1392000D01*
X102565000Y8392000D01*
X115565000Y8392000D01*
X115565000Y1392000D01*
G36*
X115565000Y1392000D02*
G01*
X102565000Y1392000D01*
X102565000Y8392000D01*
X115565000Y8392000D01*
X115565000Y1392000D01*
G37*
G04 #@! TD*
D11*
G04 #@! TO.C,JP3*
X115879500Y94475000D03*
D12*
X117149500Y94475000D03*
X118419500Y94475000D03*
G04 #@! TD*
D11*
G04 #@! TO.C,JP1*
X130319500Y94475000D03*
D12*
X131589500Y94475000D03*
X132859500Y94475000D03*
G04 #@! TD*
D13*
G04 #@! TO.C,BT1*
X92702000Y15924925D03*
X92702000Y8425067D03*
G04 #@! TD*
D14*
G04 #@! TO.C,P8*
X118077000Y10825000D03*
G04 #@! TD*
G04 #@! TO.C,G3*
X11107000Y17382000D03*
X13647000Y17382000D03*
X16187000Y17382000D03*
X18727000Y17382000D03*
X21267000Y17382000D03*
X11107000Y14842000D03*
X13647000Y14842000D03*
X16187000Y14842000D03*
X18727000Y14842000D03*
X21267000Y14842000D03*
X11107000Y12302000D03*
X13647000Y12302000D03*
X16187000Y12302000D03*
X18727000Y12302000D03*
X21267000Y12302000D03*
G04 #@! TD*
G04 #@! TO.C,P1*
X18564505Y49643334D03*
G04 #@! TD*
G04 #@! TO.C,P2*
X15664505Y49643334D03*
G04 #@! TD*
D11*
G04 #@! TO.C,JP7*
X65777000Y82940000D03*
D12*
X65777000Y81670000D03*
X65777000Y80400000D03*
G04 #@! TD*
D14*
G04 #@! TO.C,P15*
X26647000Y85300000D03*
G04 #@! TD*
D15*
G04 #@! TO.C,H1*
X4502000Y11850000D03*
X3052000Y12199000D03*
X5952000Y12199000D03*
X1981000Y13080000D03*
X7023000Y13080000D03*
X1351000Y14495000D03*
X7653000Y14495000D03*
X1277000Y16000000D03*
D16*
X4502000Y16000000D03*
D15*
X7727000Y16000000D03*
X1351000Y17505000D03*
X7653000Y17505000D03*
X1981000Y18920000D03*
X7023000Y18920000D03*
X3052000Y19801000D03*
X5952000Y19801000D03*
X4502000Y20150000D03*
G04 #@! TD*
D17*
G04 #@! TO.C,J1*
X130702000Y116000000D03*
X4302000Y116000000D03*
D18*
X123332000Y117000000D03*
X119998668Y117000000D03*
X116665337Y117000000D03*
X113332006Y117000000D03*
X109998675Y117000000D03*
X106665343Y117000000D03*
X103332012Y117000000D03*
X99998681Y117000000D03*
X96665350Y117000000D03*
X93332018Y117000000D03*
X89998687Y117000000D03*
X86665356Y117000000D03*
X83332025Y117000000D03*
X79998693Y117000000D03*
X79998693Y112000000D03*
X83332025Y112000000D03*
X86665356Y112000000D03*
X89998687Y112000000D03*
X93332018Y112000000D03*
X96665350Y112000000D03*
X99998681Y112000000D03*
X103332012Y112000000D03*
X106665343Y112000000D03*
X109998675Y112000000D03*
X113332006Y112000000D03*
X116665337Y112000000D03*
X119998668Y112000000D03*
X123332000Y112000000D03*
X55012000Y117000000D03*
X51678669Y117000000D03*
X48345338Y117000000D03*
X45012007Y117000000D03*
X41678675Y117000000D03*
X38345344Y117000000D03*
X35012013Y117000000D03*
X31678682Y117000000D03*
X28345350Y117000000D03*
X25012019Y117000000D03*
X21678688Y117000000D03*
X18345357Y117000000D03*
X15012025Y117000000D03*
X11678694Y117000000D03*
X11678694Y112000000D03*
X15012025Y112000000D03*
X18345357Y112000000D03*
X21678688Y112000000D03*
X25012019Y112000000D03*
X28345350Y112000000D03*
X31678682Y112000000D03*
X35012013Y112000000D03*
X38345344Y112000000D03*
X41678675Y112000000D03*
X45012007Y112000000D03*
X48345338Y112000000D03*
X51678669Y112000000D03*
X55012000Y112000000D03*
G04 #@! TD*
D19*
G04 #@! TO.C,F4*
X21687000Y69725000D03*
X16787000Y69725000D03*
G04 #@! TD*
G04 #@! TO.C,J7*
G36*
G01*
X40715000Y3267000D02*
X39365000Y3267000D01*
G75*
G02*
X39115000Y3517000I0J250000D01*
G01*
X39115000Y4717000D01*
G75*
G02*
X39365000Y4967000I250000J0D01*
G01*
X40715000Y4967000D01*
G75*
G02*
X40965000Y4717000I0J-250000D01*
G01*
X40965000Y3517000D01*
G75*
G02*
X40715000Y3267000I-250000J0D01*
G01*
G37*
D20*
X40040000Y6617000D03*
X40040000Y9117000D03*
X40040000Y11617000D03*
X40040000Y14117000D03*
G04 #@! TD*
D14*
G04 #@! TO.C,P4*
X49107000Y16516000D03*
G04 #@! TD*
D11*
G04 #@! TO.C,JP2*
X123119500Y94475000D03*
D12*
X124389500Y94475000D03*
X125659500Y94475000D03*
G04 #@! TD*
D15*
G04 #@! TO.C,H2*
X130502000Y11850000D03*
X129052000Y12199000D03*
X131952000Y12199000D03*
X127981000Y13080000D03*
X133023000Y13080000D03*
X127351000Y14495000D03*
X133653000Y14495000D03*
X127277000Y16000000D03*
D16*
X130502000Y16000000D03*
D15*
X133727000Y16000000D03*
X127351000Y17505000D03*
X133653000Y17505000D03*
X127981000Y18920000D03*
X133023000Y18920000D03*
X129052000Y19801000D03*
X131952000Y19801000D03*
X130502000Y20150000D03*
G04 #@! TD*
D14*
G04 #@! TO.C,G4*
X11117000Y9305000D03*
X13657000Y9305000D03*
X16197000Y9305000D03*
X18737000Y9305000D03*
X21277000Y9305000D03*
X11117000Y6765000D03*
X13657000Y6765000D03*
X16197000Y6765000D03*
X18737000Y6765000D03*
X21277000Y6765000D03*
X11117000Y4225000D03*
X13657000Y4225000D03*
X16197000Y4225000D03*
X18737000Y4225000D03*
X21277000Y4225000D03*
G04 #@! TD*
D21*
G04 #@! TO.C,M3*
X42092000Y88362500D03*
X40892000Y88362500D03*
X43292000Y88362500D03*
X44492000Y88362500D03*
X38032000Y102787500D03*
X37032000Y102787500D03*
G04 #@! TD*
D14*
G04 #@! TO.C,P17*
X27572000Y75675000D03*
G04 #@! TD*
D19*
G04 #@! TO.C,F3*
X21687000Y67525000D03*
X16787000Y67525000D03*
G04 #@! TD*
D22*
G04 #@! TO.C,J2*
X48150000Y4067000D03*
D23*
X46400000Y4867000D03*
X48150000Y5667000D03*
X46400000Y6467000D03*
X48150000Y7267000D03*
D24*
X47275000Y2017000D03*
X47275000Y9317000D03*
G04 #@! TD*
D21*
G04 #@! TO.C,M2*
X101127000Y68175000D03*
X100177000Y68175000D03*
X99227002Y68175000D03*
X100227000Y76875000D03*
X101127000Y76875000D03*
G04 #@! TD*
D14*
G04 #@! TO.C,P18*
X14947000Y62125000D03*
G04 #@! TD*
D13*
G04 #@! TO.C,M1*
X57227002Y20374996D03*
X63626999Y20374996D03*
X65527002Y20374996D03*
X69827002Y20374996D03*
D21*
X72226999Y20824995D03*
X73227000Y20824995D03*
D13*
X76077002Y20374996D03*
X56777000Y4874999D03*
X58626999Y4874999D03*
X63577002Y4874999D03*
X75627000Y4874999D03*
G04 #@! TD*
D25*
G04 #@! TO.C,M7*
X28227004Y49899996D03*
X27352002Y50424996D03*
X28527006Y51174994D03*
X28452003Y54724995D03*
G04 #@! TD*
D11*
G04 #@! TO.C,JP4*
X108644500Y94475000D03*
D12*
X109914500Y94475000D03*
X111184500Y94475000D03*
G04 #@! TD*
D11*
G04 #@! TO.C,JP6*
X94049500Y94475000D03*
D12*
X95319500Y94475000D03*
X96589500Y94475000D03*
G04 #@! TD*
D19*
G04 #@! TO.C,F1*
X21687000Y65325000D03*
X16787000Y65325000D03*
G04 #@! TD*
D14*
G04 #@! TO.C,P3*
X49082000Y19941000D03*
G04 #@! TD*
D19*
G04 #@! TO.C,R4*
X83532000Y23425000D03*
X79722000Y23425000D03*
G04 #@! TD*
D14*
G04 #@! TO.C,P7*
X118077000Y7750000D03*
G04 #@! TD*
D26*
G04 #@! TO.C,J9*
X26890000Y7142000D03*
X32670000Y7142000D03*
D27*
X25460000Y7642000D03*
D28*
X25460000Y3462000D03*
D27*
X34100000Y7642000D03*
D28*
X34100000Y3462000D03*
G04 #@! TD*
D21*
G04 #@! TO.C,M4*
X53677000Y88400000D03*
X52477000Y88400000D03*
X54877000Y88400000D03*
X56077000Y88400000D03*
X49617000Y102825000D03*
X48617000Y102825000D03*
G04 #@! TD*
D11*
G04 #@! TO.C,JP5*
X101419500Y94475000D03*
D12*
X102689500Y94475000D03*
X103959500Y94475000D03*
G04 #@! TD*
D19*
G04 #@! TO.C,F2*
X24227000Y69775000D03*
X24227000Y64875000D03*
G04 #@! TD*
D29*
G04 #@! TO.C,J6*
X129227000Y87175000D03*
D30*
X129227000Y84635000D03*
X129227000Y82095000D03*
X129227000Y79555000D03*
X129227000Y77015000D03*
X129227000Y74475000D03*
G04 #@! TD*
D31*
G04 #@! TO.C,U3*
X38975000Y31087000D03*
X16115000Y31087000D03*
D19*
X33895000Y43787000D03*
X31355000Y43787000D03*
X28815000Y43787000D03*
X26275000Y43787000D03*
X23735000Y43787000D03*
X21195000Y43787000D03*
G04 #@! TD*
D32*
G04 #@! TO.C,J3*
X132202000Y38450000D03*
X132202000Y30050000D03*
G36*
G01*
X123302001Y39800000D02*
X126501999Y39800000D01*
G75*
G02*
X126752000Y39549999I0J-250001D01*
G01*
X126752000Y37350001D01*
G75*
G02*
X126501999Y37100000I-250001J0D01*
G01*
X123302001Y37100000D01*
G75*
G02*
X123052000Y37350001I0J250001D01*
G01*
X123052000Y39549999D01*
G75*
G02*
X123302001Y39800000I250001J0D01*
G01*
G37*
D33*
X124902000Y34250000D03*
X124902000Y30050000D03*
X119402000Y38450000D03*
X119402000Y34250000D03*
X119402000Y30050000D03*
G04 #@! TD*
D14*
G04 #@! TO.C,P16*
X12172000Y80575000D03*
G04 #@! TD*
G04 #@! TO.C,C10*
G36*
G01*
X16637000Y76825000D02*
X16637000Y77875000D01*
G75*
G02*
X16737000Y77975000I100000J0D01*
G01*
X17537000Y77975000D01*
G75*
G02*
X17637000Y77875000I0J-100000D01*
G01*
X17637000Y76825000D01*
G75*
G02*
X17537000Y76725000I-100000J0D01*
G01*
X16737000Y76725000D01*
G75*
G02*
X16637000Y76825000I0J100000D01*
G01*
G37*
G36*
G01*
X18637000Y76825000D02*
X18637000Y77875000D01*
G75*
G02*
X18737000Y77975000I100000J0D01*
G01*
X19537000Y77975000D01*
G75*
G02*
X19637000Y77875000I0J-100000D01*
G01*
X19637000Y76825000D01*
G75*
G02*
X19537000Y76725000I-100000J0D01*
G01*
X18737000Y76725000D01*
G75*
G02*
X18637000Y76825000I0J100000D01*
G01*
G37*
G04 #@! TD*
G04 #@! TO.C,D4*
G36*
G01*
X15512000Y103725000D02*
X14492000Y103725000D01*
G75*
G02*
X14402000Y103815000I0J90000D01*
G01*
X14402000Y104535000D01*
G75*
G02*
X14492000Y104625000I90000J0D01*
G01*
X15512000Y104625000D01*
G75*
G02*
X15602000Y104535000I0J-90000D01*
G01*
X15602000Y103815000D01*
G75*
G02*
X15512000Y103725000I-90000J0D01*
G01*
G37*
G36*
G01*
X15512000Y107025000D02*
X14492000Y107025000D01*
G75*
G02*
X14402000Y107115000I0J90000D01*
G01*
X14402000Y107835000D01*
G75*
G02*
X14492000Y107925000I90000J0D01*
G01*
X15512000Y107925000D01*
G75*
G02*
X15602000Y107835000I0J-90000D01*
G01*
X15602000Y107115000D01*
G75*
G02*
X15512000Y107025000I-90000J0D01*
G01*
G37*
G04 #@! TD*
G04 #@! TO.C,C7*
G36*
G01*
X16637000Y82825000D02*
X16637000Y83875000D01*
G75*
G02*
X16737000Y83975000I100000J0D01*
G01*
X17537000Y83975000D01*
G75*
G02*
X17637000Y83875000I0J-100000D01*
G01*
X17637000Y82825000D01*
G75*
G02*
X17537000Y82725000I-100000J0D01*
G01*
X16737000Y82725000D01*
G75*
G02*
X16637000Y82825000I0J100000D01*
G01*
G37*
G36*
G01*
X18637000Y82825000D02*
X18637000Y83875000D01*
G75*
G02*
X18737000Y83975000I100000J0D01*
G01*
X19537000Y83975000D01*
G75*
G02*
X19637000Y83875000I0J-100000D01*
G01*
X19637000Y82825000D01*
G75*
G02*
X19537000Y82725000I-100000J0D01*
G01*
X18737000Y82725000D01*
G75*
G02*
X18637000Y82825000I0J100000D01*
G01*
G37*
G04 #@! TD*
G04 #@! TO.C,C17*
G36*
G01*
X13802000Y69725000D02*
X13802000Y68675000D01*
G75*
G02*
X13702000Y68575000I-100000J0D01*
G01*
X12902000Y68575000D01*
G75*
G02*
X12802000Y68675000I0J100000D01*
G01*
X12802000Y69725000D01*
G75*
G02*
X12902000Y69825000I100000J0D01*
G01*
X13702000Y69825000D01*
G75*
G02*
X13802000Y69725000I0J-100000D01*
G01*
G37*
G36*
G01*
X11802000Y69725000D02*
X11802000Y68675000D01*
G75*
G02*
X11702000Y68575000I-100000J0D01*
G01*
X10902000Y68575000D01*
G75*
G02*
X10802000Y68675000I0J100000D01*
G01*
X10802000Y69725000D01*
G75*
G02*
X10902000Y69825000I100000J0D01*
G01*
X11702000Y69825000D01*
G75*
G02*
X11802000Y69725000I0J-100000D01*
G01*
G37*
G04 #@! TD*
G04 #@! TO.C,C3*
G36*
G01*
X23637000Y81875000D02*
X23637000Y80825000D01*
G75*
G02*
X23537000Y80725000I-100000J0D01*
G01*
X22737000Y80725000D01*
G75*
G02*
X22637000Y80825000I0J100000D01*
G01*
X22637000Y81875000D01*
G75*
G02*
X22737000Y81975000I100000J0D01*
G01*
X23537000Y81975000D01*
G75*
G02*
X23637000Y81875000I0J-100000D01*
G01*
G37*
G36*
G01*
X21637000Y81875000D02*
X21637000Y80825000D01*
G75*
G02*
X21537000Y80725000I-100000J0D01*
G01*
X20737000Y80725000D01*
G75*
G02*
X20637000Y80825000I0J100000D01*
G01*
X20637000Y81875000D01*
G75*
G02*
X20737000Y81975000I100000J0D01*
G01*
X21537000Y81975000D01*
G75*
G02*
X21637000Y81875000I0J-100000D01*
G01*
G37*
G04 #@! TD*
G04 #@! TO.C,C23*
G36*
G01*
X6802000Y66675000D02*
X6802000Y67725000D01*
G75*
G02*
X6902000Y67825000I100000J0D01*
G01*
X7702000Y67825000D01*
G75*
G02*
X7802000Y67725000I0J-100000D01*
G01*
X7802000Y66675000D01*
G75*
G02*
X7702000Y66575000I-100000J0D01*
G01*
X6902000Y66575000D01*
G75*
G02*
X6802000Y66675000I0J100000D01*
G01*
G37*
G36*
G01*
X8802000Y66675000D02*
X8802000Y67725000D01*
G75*
G02*
X8902000Y67825000I100000J0D01*
G01*
X9702000Y67825000D01*
G75*
G02*
X9802000Y67725000I0J-100000D01*
G01*
X9802000Y66675000D01*
G75*
G02*
X9702000Y66575000I-100000J0D01*
G01*
X8902000Y66575000D01*
G75*
G02*
X8802000Y66675000I0J100000D01*
G01*
G37*
G04 #@! TD*
G04 #@! TO.C,C1*
G36*
G01*
X23637000Y85875000D02*
X23637000Y84825000D01*
G75*
G02*
X23537000Y84725000I-100000J0D01*
G01*
X22737000Y84725000D01*
G75*
G02*
X22637000Y84825000I0J100000D01*
G01*
X22637000Y85875000D01*
G75*
G02*
X22737000Y85975000I100000J0D01*
G01*
X23537000Y85975000D01*
G75*
G02*
X23637000Y85875000I0J-100000D01*
G01*
G37*
G36*
G01*
X21637000Y85875000D02*
X21637000Y84825000D01*
G75*
G02*
X21537000Y84725000I-100000J0D01*
G01*
X20737000Y84725000D01*
G75*
G02*
X20637000Y84825000I0J100000D01*
G01*
X20637000Y85875000D01*
G75*
G02*
X20737000Y85975000I100000J0D01*
G01*
X21537000Y85975000D01*
G75*
G02*
X21637000Y85875000I0J-100000D01*
G01*
G37*
G04 #@! TD*
G04 #@! TO.C,C14*
G36*
G01*
X13802000Y75725000D02*
X13802000Y74675000D01*
G75*
G02*
X13702000Y74575000I-100000J0D01*
G01*
X12902000Y74575000D01*
G75*
G02*
X12802000Y74675000I0J100000D01*
G01*
X12802000Y75725000D01*
G75*
G02*
X12902000Y75825000I100000J0D01*
G01*
X13702000Y75825000D01*
G75*
G02*
X13802000Y75725000I0J-100000D01*
G01*
G37*
G36*
G01*
X11802000Y75725000D02*
X11802000Y74675000D01*
G75*
G02*
X11702000Y74575000I-100000J0D01*
G01*
X10902000Y74575000D01*
G75*
G02*
X10802000Y74675000I0J100000D01*
G01*
X10802000Y75725000D01*
G75*
G02*
X10902000Y75825000I100000J0D01*
G01*
X11702000Y75825000D01*
G75*
G02*
X11802000Y75725000I0J-100000D01*
G01*
G37*
G04 #@! TD*
G04 #@! TO.C,C19*
G36*
G01*
X6802000Y74675000D02*
X6802000Y75725000D01*
G75*
G02*
X6902000Y75825000I100000J0D01*
G01*
X7702000Y75825000D01*
G75*
G02*
X7802000Y75725000I0J-100000D01*
G01*
X7802000Y74675000D01*
G75*
G02*
X7702000Y74575000I-100000J0D01*
G01*
X6902000Y74575000D01*
G75*
G02*
X6802000Y74675000I0J100000D01*
G01*
G37*
G36*
G01*
X8802000Y74675000D02*
X8802000Y75725000D01*
G75*
G02*
X8902000Y75825000I100000J0D01*
G01*
X9702000Y75825000D01*
G75*
G02*
X9802000Y75725000I0J-100000D01*
G01*
X9802000Y74675000D01*
G75*
G02*
X9702000Y74575000I-100000J0D01*
G01*
X8902000Y74575000D01*
G75*
G02*
X8802000Y74675000I0J100000D01*
G01*
G37*
G04 #@! TD*
G04 #@! TO.C,C4*
G36*
G01*
X23637000Y79875000D02*
X23637000Y78825000D01*
G75*
G02*
X23537000Y78725000I-100000J0D01*
G01*
X22737000Y78725000D01*
G75*
G02*
X22637000Y78825000I0J100000D01*
G01*
X22637000Y79875000D01*
G75*
G02*
X22737000Y79975000I100000J0D01*
G01*
X23537000Y79975000D01*
G75*
G02*
X23637000Y79875000I0J-100000D01*
G01*
G37*
G36*
G01*
X21637000Y79875000D02*
X21637000Y78825000D01*
G75*
G02*
X21537000Y78725000I-100000J0D01*
G01*
X20737000Y78725000D01*
G75*
G02*
X20637000Y78825000I0J100000D01*
G01*
X20637000Y79875000D01*
G75*
G02*
X20737000Y79975000I100000J0D01*
G01*
X21537000Y79975000D01*
G75*
G02*
X21637000Y79875000I0J-100000D01*
G01*
G37*
G04 #@! TD*
G04 #@! TO.C,D2*
G36*
G01*
X22212000Y103725000D02*
X21192000Y103725000D01*
G75*
G02*
X21102000Y103815000I0J90000D01*
G01*
X21102000Y104535000D01*
G75*
G02*
X21192000Y104625000I90000J0D01*
G01*
X22212000Y104625000D01*
G75*
G02*
X22302000Y104535000I0J-90000D01*
G01*
X22302000Y103815000D01*
G75*
G02*
X22212000Y103725000I-90000J0D01*
G01*
G37*
G36*
G01*
X22212000Y107025000D02*
X21192000Y107025000D01*
G75*
G02*
X21102000Y107115000I0J90000D01*
G01*
X21102000Y107835000D01*
G75*
G02*
X21192000Y107925000I90000J0D01*
G01*
X22212000Y107925000D01*
G75*
G02*
X22302000Y107835000I0J-90000D01*
G01*
X22302000Y107115000D01*
G75*
G02*
X22212000Y107025000I-90000J0D01*
G01*
G37*
G04 #@! TD*
G04 #@! TO.C,C21*
G36*
G01*
X6802000Y70675000D02*
X6802000Y71725000D01*
G75*
G02*
X6902000Y71825000I100000J0D01*
G01*
X7702000Y71825000D01*
G75*
G02*
X7802000Y71725000I0J-100000D01*
G01*
X7802000Y70675000D01*
G75*
G02*
X7702000Y70575000I-100000J0D01*
G01*
X6902000Y70575000D01*
G75*
G02*
X6802000Y70675000I0J100000D01*
G01*
G37*
G36*
G01*
X8802000Y70675000D02*
X8802000Y71725000D01*
G75*
G02*
X8902000Y71825000I100000J0D01*
G01*
X9702000Y71825000D01*
G75*
G02*
X9802000Y71725000I0J-100000D01*
G01*
X9802000Y70675000D01*
G75*
G02*
X9702000Y70575000I-100000J0D01*
G01*
X8902000Y70575000D01*
G75*
G02*
X8802000Y70675000I0J100000D01*
G01*
G37*
G04 #@! TD*
G04 #@! TO.C,C16*
G36*
G01*
X13802000Y71725000D02*
X13802000Y70675000D01*
G75*
G02*
X13702000Y70575000I-100000J0D01*
G01*
X12902000Y70575000D01*
G75*
G02*
X12802000Y70675000I0J100000D01*
G01*
X12802000Y71725000D01*
G75*
G02*
X12902000Y71825000I100000J0D01*
G01*
X13702000Y71825000D01*
G75*
G02*
X13802000Y71725000I0J-100000D01*
G01*
G37*
G36*
G01*
X11802000Y71725000D02*
X11802000Y70675000D01*
G75*
G02*
X11702000Y70575000I-100000J0D01*
G01*
X10902000Y70575000D01*
G75*
G02*
X10802000Y70675000I0J100000D01*
G01*
X10802000Y71725000D01*
G75*
G02*
X10902000Y71825000I100000J0D01*
G01*
X11702000Y71825000D01*
G75*
G02*
X11802000Y71725000I0J-100000D01*
G01*
G37*
G04 #@! TD*
G04 #@! TO.C,C22*
G36*
G01*
X6802000Y68675000D02*
X6802000Y69725000D01*
G75*
G02*
X6902000Y69825000I100000J0D01*
G01*
X7702000Y69825000D01*
G75*
G02*
X7802000Y69725000I0J-100000D01*
G01*
X7802000Y68675000D01*
G75*
G02*
X7702000Y68575000I-100000J0D01*
G01*
X6902000Y68575000D01*
G75*
G02*
X6802000Y68675000I0J100000D01*
G01*
G37*
G36*
G01*
X8802000Y68675000D02*
X8802000Y69725000D01*
G75*
G02*
X8902000Y69825000I100000J0D01*
G01*
X9702000Y69825000D01*
G75*
G02*
X9802000Y69725000I0J-100000D01*
G01*
X9802000Y68675000D01*
G75*
G02*
X9702000Y68575000I-100000J0D01*
G01*
X8902000Y68575000D01*
G75*
G02*
X8802000Y68675000I0J100000D01*
G01*
G37*
G04 #@! TD*
G04 #@! TO.C,D3*
G36*
G01*
X25537000Y103725000D02*
X24517000Y103725000D01*
G75*
G02*
X24427000Y103815000I0J90000D01*
G01*
X24427000Y104535000D01*
G75*
G02*
X24517000Y104625000I90000J0D01*
G01*
X25537000Y104625000D01*
G75*
G02*
X25627000Y104535000I0J-90000D01*
G01*
X25627000Y103815000D01*
G75*
G02*
X25537000Y103725000I-90000J0D01*
G01*
G37*
G36*
G01*
X25537000Y107025000D02*
X24517000Y107025000D01*
G75*
G02*
X24427000Y107115000I0J90000D01*
G01*
X24427000Y107835000D01*
G75*
G02*
X24517000Y107925000I90000J0D01*
G01*
X25537000Y107925000D01*
G75*
G02*
X25627000Y107835000I0J-90000D01*
G01*
X25627000Y107115000D01*
G75*
G02*
X25537000Y107025000I-90000J0D01*
G01*
G37*
G04 #@! TD*
G04 #@! TO.C,C5*
G36*
G01*
X23637000Y77875000D02*
X23637000Y76825000D01*
G75*
G02*
X23537000Y76725000I-100000J0D01*
G01*
X22737000Y76725000D01*
G75*
G02*
X22637000Y76825000I0J100000D01*
G01*
X22637000Y77875000D01*
G75*
G02*
X22737000Y77975000I100000J0D01*
G01*
X23537000Y77975000D01*
G75*
G02*
X23637000Y77875000I0J-100000D01*
G01*
G37*
G36*
G01*
X21637000Y77875000D02*
X21637000Y76825000D01*
G75*
G02*
X21537000Y76725000I-100000J0D01*
G01*
X20737000Y76725000D01*
G75*
G02*
X20637000Y76825000I0J100000D01*
G01*
X20637000Y77875000D01*
G75*
G02*
X20737000Y77975000I100000J0D01*
G01*
X21537000Y77975000D01*
G75*
G02*
X21637000Y77875000I0J-100000D01*
G01*
G37*
G04 #@! TD*
G04 #@! TO.C,C15*
G36*
G01*
X13802000Y73725000D02*
X13802000Y72675000D01*
G75*
G02*
X13702000Y72575000I-100000J0D01*
G01*
X12902000Y72575000D01*
G75*
G02*
X12802000Y72675000I0J100000D01*
G01*
X12802000Y73725000D01*
G75*
G02*
X12902000Y73825000I100000J0D01*
G01*
X13702000Y73825000D01*
G75*
G02*
X13802000Y73725000I0J-100000D01*
G01*
G37*
G36*
G01*
X11802000Y73725000D02*
X11802000Y72675000D01*
G75*
G02*
X11702000Y72575000I-100000J0D01*
G01*
X10902000Y72575000D01*
G75*
G02*
X10802000Y72675000I0J100000D01*
G01*
X10802000Y73725000D01*
G75*
G02*
X10902000Y73825000I100000J0D01*
G01*
X11702000Y73825000D01*
G75*
G02*
X11802000Y73725000I0J-100000D01*
G01*
G37*
G04 #@! TD*
G04 #@! TO.C,C8*
G36*
G01*
X16637000Y80825000D02*
X16637000Y81875000D01*
G75*
G02*
X16737000Y81975000I100000J0D01*
G01*
X17537000Y81975000D01*
G75*
G02*
X17637000Y81875000I0J-100000D01*
G01*
X17637000Y80825000D01*
G75*
G02*
X17537000Y80725000I-100000J0D01*
G01*
X16737000Y80725000D01*
G75*
G02*
X16637000Y80825000I0J100000D01*
G01*
G37*
G36*
G01*
X18637000Y80825000D02*
X18637000Y81875000D01*
G75*
G02*
X18737000Y81975000I100000J0D01*
G01*
X19537000Y81975000D01*
G75*
G02*
X19637000Y81875000I0J-100000D01*
G01*
X19637000Y80825000D01*
G75*
G02*
X19537000Y80725000I-100000J0D01*
G01*
X18737000Y80725000D01*
G75*
G02*
X18637000Y80825000I0J100000D01*
G01*
G37*
G04 #@! TD*
G04 #@! TO.C,C9*
G36*
G01*
X16637000Y78825000D02*
X16637000Y79875000D01*
G75*
G02*
X16737000Y79975000I100000J0D01*
G01*
X17537000Y79975000D01*
G75*
G02*
X17637000Y79875000I0J-100000D01*
G01*
X17637000Y78825000D01*
G75*
G02*
X17537000Y78725000I-100000J0D01*
G01*
X16737000Y78725000D01*
G75*
G02*
X16637000Y78825000I0J100000D01*
G01*
G37*
G36*
G01*
X18637000Y78825000D02*
X18637000Y79875000D01*
G75*
G02*
X18737000Y79975000I100000J0D01*
G01*
X19537000Y79975000D01*
G75*
G02*
X19637000Y79875000I0J-100000D01*
G01*
X19637000Y78825000D01*
G75*
G02*
X19537000Y78725000I-100000J0D01*
G01*
X18737000Y78725000D01*
G75*
G02*
X18637000Y78825000I0J100000D01*
G01*
G37*
G04 #@! TD*
G04 #@! TO.C,C6*
G36*
G01*
X16637000Y84825000D02*
X16637000Y85875000D01*
G75*
G02*
X16737000Y85975000I100000J0D01*
G01*
X17537000Y85975000D01*
G75*
G02*
X17637000Y85875000I0J-100000D01*
G01*
X17637000Y84825000D01*
G75*
G02*
X17537000Y84725000I-100000J0D01*
G01*
X16737000Y84725000D01*
G75*
G02*
X16637000Y84825000I0J100000D01*
G01*
G37*
G36*
G01*
X18637000Y84825000D02*
X18637000Y85875000D01*
G75*
G02*
X18737000Y85975000I100000J0D01*
G01*
X19537000Y85975000D01*
G75*
G02*
X19637000Y85875000I0J-100000D01*
G01*
X19637000Y84825000D01*
G75*
G02*
X19537000Y84725000I-100000J0D01*
G01*
X18737000Y84725000D01*
G75*
G02*
X18637000Y84825000I0J100000D01*
G01*
G37*
G04 #@! TD*
G04 #@! TO.C,D5*
G36*
G01*
X18862000Y103725000D02*
X17842000Y103725000D01*
G75*
G02*
X17752000Y103815000I0J90000D01*
G01*
X17752000Y104535000D01*
G75*
G02*
X17842000Y104625000I90000J0D01*
G01*
X18862000Y104625000D01*
G75*
G02*
X18952000Y104535000I0J-90000D01*
G01*
X18952000Y103815000D01*
G75*
G02*
X18862000Y103725000I-90000J0D01*
G01*
G37*
G36*
G01*
X18862000Y107025000D02*
X17842000Y107025000D01*
G75*
G02*
X17752000Y107115000I0J90000D01*
G01*
X17752000Y107835000D01*
G75*
G02*
X17842000Y107925000I90000J0D01*
G01*
X18862000Y107925000D01*
G75*
G02*
X18952000Y107835000I0J-90000D01*
G01*
X18952000Y107115000D01*
G75*
G02*
X18862000Y107025000I-90000J0D01*
G01*
G37*
G04 #@! TD*
G04 #@! TO.C,C2*
G36*
G01*
X23637000Y83875000D02*
X23637000Y82825000D01*
G75*
G02*
X23537000Y82725000I-100000J0D01*
G01*
X22737000Y82725000D01*
G75*
G02*
X22637000Y82825000I0J100000D01*
G01*
X22637000Y83875000D01*
G75*
G02*
X22737000Y83975000I100000J0D01*
G01*
X23537000Y83975000D01*
G75*
G02*
X23637000Y83875000I0J-100000D01*
G01*
G37*
G36*
G01*
X21637000Y83875000D02*
X21637000Y82825000D01*
G75*
G02*
X21537000Y82725000I-100000J0D01*
G01*
X20737000Y82725000D01*
G75*
G02*
X20637000Y82825000I0J100000D01*
G01*
X20637000Y83875000D01*
G75*
G02*
X20737000Y83975000I100000J0D01*
G01*
X21537000Y83975000D01*
G75*
G02*
X21637000Y83875000I0J-100000D01*
G01*
G37*
G04 #@! TD*
G04 #@! TO.C,C18*
G36*
G01*
X13802000Y67725000D02*
X13802000Y66675000D01*
G75*
G02*
X13702000Y66575000I-100000J0D01*
G01*
X12902000Y66575000D01*
G75*
G02*
X12802000Y66675000I0J100000D01*
G01*
X12802000Y67725000D01*
G75*
G02*
X12902000Y67825000I100000J0D01*
G01*
X13702000Y67825000D01*
G75*
G02*
X13802000Y67725000I0J-100000D01*
G01*
G37*
G36*
G01*
X11802000Y67725000D02*
X11802000Y66675000D01*
G75*
G02*
X11702000Y66575000I-100000J0D01*
G01*
X10902000Y66575000D01*
G75*
G02*
X10802000Y66675000I0J100000D01*
G01*
X10802000Y67725000D01*
G75*
G02*
X10902000Y67825000I100000J0D01*
G01*
X11702000Y67825000D01*
G75*
G02*
X11802000Y67725000I0J-100000D01*
G01*
G37*
G04 #@! TD*
G04 #@! TO.C,C20*
G36*
G01*
X6802000Y72675000D02*
X6802000Y73725000D01*
G75*
G02*
X6902000Y73825000I100000J0D01*
G01*
X7702000Y73825000D01*
G75*
G02*
X7802000Y73725000I0J-100000D01*
G01*
X7802000Y72675000D01*
G75*
G02*
X7702000Y72575000I-100000J0D01*
G01*
X6902000Y72575000D01*
G75*
G02*
X6802000Y72675000I0J100000D01*
G01*
G37*
G36*
G01*
X8802000Y72675000D02*
X8802000Y73725000D01*
G75*
G02*
X8902000Y73825000I100000J0D01*
G01*
X9702000Y73825000D01*
G75*
G02*
X9802000Y73725000I0J-100000D01*
G01*
X9802000Y72675000D01*
G75*
G02*
X9702000Y72575000I-100000J0D01*
G01*
X8902000Y72575000D01*
G75*
G02*
X8802000Y72675000I0J100000D01*
G01*
G37*
G04 #@! TD*
M02*
