G04 #@! TF.GenerationSoftware,KiCad,Pcbnew,8.0.2-8.0.2-0~ubuntu22.04.1*
G04 #@! TF.CreationDate,2024-05-16T20:52:05+00:00*
G04 #@! TF.ProjectId,uaefi,75616566-692e-46b6-9963-61645f706362,C*
G04 #@! TF.SameCoordinates,Original*
G04 #@! TF.FileFunction,Paste,Top*
G04 #@! TF.FilePolarity,Positive*
%FSLAX46Y46*%
G04 Gerber Fmt 4.6, Leading zero omitted, Abs format (unit mm)*
G04 Created by KiCad (PCBNEW 8.0.2-8.0.2-0~ubuntu22.04.1) date 2024-05-16 20:52:05*
%MOMM*%
%LPD*%
G01*
G04 APERTURE LIST*
%ADD10R,2.299995X4.399991*%
%ADD11R,2.299995X3.999992*%
%ADD12O,0.000001X0.000001*%
%ADD13R,1.300000X1.000000*%
%ADD14R,1.160000X1.950000*%
%ADD15R,0.650000X2.000000*%
%ADD16R,0.300000X1.150000*%
%ADD17R,1.350000X0.690000*%
G04 APERTURE END LIST*
G04 #@! TO.C,R40*
G36*
G01*
X89150001Y75725000D02*
X89150001Y74475000D01*
G75*
G02*
X89050001Y74375000I-100000J0D01*
G01*
X88250001Y74375000D01*
G75*
G02*
X88150001Y74475000I0J100000D01*
G01*
X88150001Y75725000D01*
G75*
G02*
X88250001Y75825000I100000J0D01*
G01*
X89050001Y75825000D01*
G75*
G02*
X89150001Y75725000I0J-100000D01*
G01*
G37*
G36*
G01*
X87249979Y75725000D02*
X87249979Y74475000D01*
G75*
G02*
X87149979Y74375000I-100000J0D01*
G01*
X86349979Y74375000D01*
G75*
G02*
X86249979Y74475000I0J100000D01*
G01*
X86249979Y75725000D01*
G75*
G02*
X86349979Y75825000I100000J0D01*
G01*
X87149979Y75825000D01*
G75*
G02*
X87249979Y75725000I0J-100000D01*
G01*
G37*
G04 #@! TD*
G04 #@! TO.C,D8*
G36*
G01*
X97675000Y35165000D02*
X97675000Y34865000D01*
G75*
G02*
X97525000Y34715000I-150000J0D01*
G01*
X96350000Y34715000D01*
G75*
G02*
X96200000Y34865000I0J150000D01*
G01*
X96200000Y35165000D01*
G75*
G02*
X96350000Y35315000I150000J0D01*
G01*
X97525000Y35315000D01*
G75*
G02*
X97675000Y35165000I0J-150000D01*
G01*
G37*
G36*
G01*
X97675000Y37065000D02*
X97675000Y36765000D01*
G75*
G02*
X97525000Y36615000I-150000J0D01*
G01*
X96350000Y36615000D01*
G75*
G02*
X96200000Y36765000I0J150000D01*
G01*
X96200000Y37065000D01*
G75*
G02*
X96350000Y37215000I150000J0D01*
G01*
X97525000Y37215000D01*
G75*
G02*
X97675000Y37065000I0J-150000D01*
G01*
G37*
G36*
G01*
X95800000Y36115000D02*
X95800000Y35815000D01*
G75*
G02*
X95650000Y35665000I-150000J0D01*
G01*
X94475000Y35665000D01*
G75*
G02*
X94325000Y35815000I0J150000D01*
G01*
X94325000Y36115000D01*
G75*
G02*
X94475000Y36265000I150000J0D01*
G01*
X95650000Y36265000D01*
G75*
G02*
X95800000Y36115000I0J-150000D01*
G01*
G37*
G04 #@! TD*
G04 #@! TO.C,U7*
G36*
G01*
X26352500Y98575000D02*
X26052500Y98575000D01*
G75*
G02*
X25902500Y98725000I0J150000D01*
G01*
X25902500Y100375000D01*
G75*
G02*
X26052500Y100525000I150000J0D01*
G01*
X26352500Y100525000D01*
G75*
G02*
X26502500Y100375000I0J-150000D01*
G01*
X26502500Y98725000D01*
G75*
G02*
X26352500Y98575000I-150000J0D01*
G01*
G37*
G36*
G01*
X27622500Y98575000D02*
X27322500Y98575000D01*
G75*
G02*
X27172500Y98725000I0J150000D01*
G01*
X27172500Y100375000D01*
G75*
G02*
X27322500Y100525000I150000J0D01*
G01*
X27622500Y100525000D01*
G75*
G02*
X27772500Y100375000I0J-150000D01*
G01*
X27772500Y98725000D01*
G75*
G02*
X27622500Y98575000I-150000J0D01*
G01*
G37*
G36*
G01*
X28892500Y98575000D02*
X28592500Y98575000D01*
G75*
G02*
X28442500Y98725000I0J150000D01*
G01*
X28442500Y100375000D01*
G75*
G02*
X28592500Y100525000I150000J0D01*
G01*
X28892500Y100525000D01*
G75*
G02*
X29042500Y100375000I0J-150000D01*
G01*
X29042500Y98725000D01*
G75*
G02*
X28892500Y98575000I-150000J0D01*
G01*
G37*
G36*
G01*
X30162500Y98575000D02*
X29862500Y98575000D01*
G75*
G02*
X29712500Y98725000I0J150000D01*
G01*
X29712500Y100375000D01*
G75*
G02*
X29862500Y100525000I150000J0D01*
G01*
X30162500Y100525000D01*
G75*
G02*
X30312500Y100375000I0J-150000D01*
G01*
X30312500Y98725000D01*
G75*
G02*
X30162500Y98575000I-150000J0D01*
G01*
G37*
G36*
G01*
X30162500Y103525000D02*
X29862500Y103525000D01*
G75*
G02*
X29712500Y103675000I0J150000D01*
G01*
X29712500Y105325000D01*
G75*
G02*
X29862500Y105475000I150000J0D01*
G01*
X30162500Y105475000D01*
G75*
G02*
X30312500Y105325000I0J-150000D01*
G01*
X30312500Y103675000D01*
G75*
G02*
X30162500Y103525000I-150000J0D01*
G01*
G37*
G36*
G01*
X28892500Y103525000D02*
X28592500Y103525000D01*
G75*
G02*
X28442500Y103675000I0J150000D01*
G01*
X28442500Y105325000D01*
G75*
G02*
X28592500Y105475000I150000J0D01*
G01*
X28892500Y105475000D01*
G75*
G02*
X29042500Y105325000I0J-150000D01*
G01*
X29042500Y103675000D01*
G75*
G02*
X28892500Y103525000I-150000J0D01*
G01*
G37*
G36*
G01*
X27622500Y103525000D02*
X27322500Y103525000D01*
G75*
G02*
X27172500Y103675000I0J150000D01*
G01*
X27172500Y105325000D01*
G75*
G02*
X27322500Y105475000I150000J0D01*
G01*
X27622500Y105475000D01*
G75*
G02*
X27772500Y105325000I0J-150000D01*
G01*
X27772500Y103675000D01*
G75*
G02*
X27622500Y103525000I-150000J0D01*
G01*
G37*
G36*
G01*
X26352500Y103525000D02*
X26052500Y103525000D01*
G75*
G02*
X25902500Y103675000I0J150000D01*
G01*
X25902500Y105325000D01*
G75*
G02*
X26052500Y105475000I150000J0D01*
G01*
X26352500Y105475000D01*
G75*
G02*
X26502500Y105325000I0J-150000D01*
G01*
X26502500Y103675000D01*
G75*
G02*
X26352500Y103525000I-150000J0D01*
G01*
G37*
G04 #@! TD*
G04 #@! TO.C,C24*
G36*
G01*
X12710001Y79415000D02*
X12710001Y78735000D01*
G75*
G02*
X12625001Y78650000I-85000J0D01*
G01*
X11945001Y78650000D01*
G75*
G02*
X11860001Y78735000I0J85000D01*
G01*
X11860001Y79415000D01*
G75*
G02*
X11945001Y79500000I85000J0D01*
G01*
X12625001Y79500000D01*
G75*
G02*
X12710001Y79415000I0J-85000D01*
G01*
G37*
G36*
G01*
X11129999Y79415000D02*
X11129999Y78735000D01*
G75*
G02*
X11044999Y78650000I-85000J0D01*
G01*
X10364999Y78650000D01*
G75*
G02*
X10279999Y78735000I0J85000D01*
G01*
X10279999Y79415000D01*
G75*
G02*
X10364999Y79500000I85000J0D01*
G01*
X11044999Y79500000D01*
G75*
G02*
X11129999Y79415000I0J-85000D01*
G01*
G37*
G04 #@! TD*
G04 #@! TO.C,R39*
G36*
G01*
X89150001Y73225000D02*
X89150001Y71975000D01*
G75*
G02*
X89050001Y71875000I-100000J0D01*
G01*
X88250001Y71875000D01*
G75*
G02*
X88150001Y71975000I0J100000D01*
G01*
X88150001Y73225000D01*
G75*
G02*
X88250001Y73325000I100000J0D01*
G01*
X89050001Y73325000D01*
G75*
G02*
X89150001Y73225000I0J-100000D01*
G01*
G37*
G36*
G01*
X87249979Y73225000D02*
X87249979Y71975000D01*
G75*
G02*
X87149979Y71875000I-100000J0D01*
G01*
X86349979Y71875000D01*
G75*
G02*
X86249979Y71975000I0J100000D01*
G01*
X86249979Y73225000D01*
G75*
G02*
X86349979Y73325000I100000J0D01*
G01*
X87149979Y73325000D01*
G75*
G02*
X87249979Y73225000I0J-100000D01*
G01*
G37*
G04 #@! TD*
G04 #@! TO.C,Q10*
G36*
G01*
X106922500Y97450000D02*
X106222500Y97450000D01*
G75*
G02*
X105972500Y97700000I0J250000D01*
G01*
X105972500Y99400000D01*
G75*
G02*
X106222500Y99650000I250000J0D01*
G01*
X106922500Y99650000D01*
G75*
G02*
X107172500Y99400000I0J-250000D01*
G01*
X107172500Y97700000D01*
G75*
G02*
X106922500Y97450000I-250000J0D01*
G01*
G37*
G36*
G01*
X108452500Y101650000D02*
X106202500Y101650000D01*
G75*
G02*
X105952500Y101900000I0J250000D01*
G01*
X105952500Y104450000D01*
G75*
G02*
X106202500Y104700000I250000J0D01*
G01*
X108452500Y104700000D01*
G75*
G02*
X108702500Y104450000I0J-250000D01*
G01*
X108702500Y101900000D01*
G75*
G02*
X108452500Y101650000I-250000J0D01*
G01*
G37*
G36*
G01*
X111502500Y101650000D02*
X109252500Y101650000D01*
G75*
G02*
X109002500Y101900000I0J250000D01*
G01*
X109002500Y104450000D01*
G75*
G02*
X109252500Y104700000I250000J0D01*
G01*
X111502500Y104700000D01*
G75*
G02*
X111752500Y104450000I0J-250000D01*
G01*
X111752500Y101900000D01*
G75*
G02*
X111502500Y101650000I-250000J0D01*
G01*
G37*
G36*
G01*
X108452500Y105000000D02*
X106202500Y105000000D01*
G75*
G02*
X105952500Y105250000I0J250000D01*
G01*
X105952500Y107800000D01*
G75*
G02*
X106202500Y108050000I250000J0D01*
G01*
X108452500Y108050000D01*
G75*
G02*
X108702500Y107800000I0J-250000D01*
G01*
X108702500Y105250000D01*
G75*
G02*
X108452500Y105000000I-250000J0D01*
G01*
G37*
G36*
G01*
X111502500Y105000000D02*
X109252500Y105000000D01*
G75*
G02*
X109002500Y105250000I0J250000D01*
G01*
X109002500Y107800000D01*
G75*
G02*
X109252500Y108050000I250000J0D01*
G01*
X111502500Y108050000D01*
G75*
G02*
X111752500Y107800000I0J-250000D01*
G01*
X111752500Y105250000D01*
G75*
G02*
X111502500Y105000000I-250000J0D01*
G01*
G37*
G36*
G01*
X111482500Y97450000D02*
X110782500Y97450000D01*
G75*
G02*
X110532500Y97700000I0J250000D01*
G01*
X110532500Y99400000D01*
G75*
G02*
X110782500Y99650000I250000J0D01*
G01*
X111482500Y99650000D01*
G75*
G02*
X111732500Y99400000I0J-250000D01*
G01*
X111732500Y97700000D01*
G75*
G02*
X111482500Y97450000I-250000J0D01*
G01*
G37*
G04 #@! TD*
G04 #@! TO.C,C27*
G36*
G01*
X36628000Y39705251D02*
X37308000Y39705251D01*
G75*
G02*
X37393000Y39620251I0J-85000D01*
G01*
X37393000Y38940251D01*
G75*
G02*
X37308000Y38855251I-85000J0D01*
G01*
X36628000Y38855251D01*
G75*
G02*
X36543000Y38940251I0J85000D01*
G01*
X36543000Y39620251D01*
G75*
G02*
X36628000Y39705251I85000J0D01*
G01*
G37*
G36*
G01*
X36628000Y38125249D02*
X37308000Y38125249D01*
G75*
G02*
X37393000Y38040249I0J-85000D01*
G01*
X37393000Y37360249D01*
G75*
G02*
X37308000Y37275249I-85000J0D01*
G01*
X36628000Y37275249D01*
G75*
G02*
X36543000Y37360249I0J85000D01*
G01*
X36543000Y38040249D01*
G75*
G02*
X36628000Y38125249I85000J0D01*
G01*
G37*
G04 #@! TD*
D10*
G04 #@! TO.C,BT1*
X92700000Y21025019D03*
D11*
X92700000Y5025000D03*
G04 #@! TD*
G04 #@! TO.C,U10*
G36*
G01*
X70925000Y99095856D02*
X70625000Y99095856D01*
G75*
G02*
X70475000Y99245856I0J150000D01*
G01*
X70475000Y100895856D01*
G75*
G02*
X70625000Y101045856I150000J0D01*
G01*
X70925000Y101045856D01*
G75*
G02*
X71075000Y100895856I0J-150000D01*
G01*
X71075000Y99245856D01*
G75*
G02*
X70925000Y99095856I-150000J0D01*
G01*
G37*
G36*
G01*
X72195000Y99095856D02*
X71895000Y99095856D01*
G75*
G02*
X71745000Y99245856I0J150000D01*
G01*
X71745000Y100895856D01*
G75*
G02*
X71895000Y101045856I150000J0D01*
G01*
X72195000Y101045856D01*
G75*
G02*
X72345000Y100895856I0J-150000D01*
G01*
X72345000Y99245856D01*
G75*
G02*
X72195000Y99095856I-150000J0D01*
G01*
G37*
G36*
G01*
X73465000Y99095856D02*
X73165000Y99095856D01*
G75*
G02*
X73015000Y99245856I0J150000D01*
G01*
X73015000Y100895856D01*
G75*
G02*
X73165000Y101045856I150000J0D01*
G01*
X73465000Y101045856D01*
G75*
G02*
X73615000Y100895856I0J-150000D01*
G01*
X73615000Y99245856D01*
G75*
G02*
X73465000Y99095856I-150000J0D01*
G01*
G37*
G36*
G01*
X74735000Y99095856D02*
X74435000Y99095856D01*
G75*
G02*
X74285000Y99245856I0J150000D01*
G01*
X74285000Y100895856D01*
G75*
G02*
X74435000Y101045856I150000J0D01*
G01*
X74735000Y101045856D01*
G75*
G02*
X74885000Y100895856I0J-150000D01*
G01*
X74885000Y99245856D01*
G75*
G02*
X74735000Y99095856I-150000J0D01*
G01*
G37*
G36*
G01*
X74735000Y104045856D02*
X74435000Y104045856D01*
G75*
G02*
X74285000Y104195856I0J150000D01*
G01*
X74285000Y105845856D01*
G75*
G02*
X74435000Y105995856I150000J0D01*
G01*
X74735000Y105995856D01*
G75*
G02*
X74885000Y105845856I0J-150000D01*
G01*
X74885000Y104195856D01*
G75*
G02*
X74735000Y104045856I-150000J0D01*
G01*
G37*
G36*
G01*
X73465000Y104045856D02*
X73165000Y104045856D01*
G75*
G02*
X73015000Y104195856I0J150000D01*
G01*
X73015000Y105845856D01*
G75*
G02*
X73165000Y105995856I150000J0D01*
G01*
X73465000Y105995856D01*
G75*
G02*
X73615000Y105845856I0J-150000D01*
G01*
X73615000Y104195856D01*
G75*
G02*
X73465000Y104045856I-150000J0D01*
G01*
G37*
G36*
G01*
X72195000Y104045856D02*
X71895000Y104045856D01*
G75*
G02*
X71745000Y104195856I0J150000D01*
G01*
X71745000Y105845856D01*
G75*
G02*
X71895000Y105995856I150000J0D01*
G01*
X72195000Y105995856D01*
G75*
G02*
X72345000Y105845856I0J-150000D01*
G01*
X72345000Y104195856D01*
G75*
G02*
X72195000Y104045856I-150000J0D01*
G01*
G37*
G36*
G01*
X70925000Y104045856D02*
X70625000Y104045856D01*
G75*
G02*
X70475000Y104195856I0J150000D01*
G01*
X70475000Y105845856D01*
G75*
G02*
X70625000Y105995856I150000J0D01*
G01*
X70925000Y105995856D01*
G75*
G02*
X71075000Y105845856I0J-150000D01*
G01*
X71075000Y104195856D01*
G75*
G02*
X70925000Y104045856I-150000J0D01*
G01*
G37*
G04 #@! TD*
G04 #@! TO.C,R31*
G36*
G01*
X68830000Y97576712D02*
X68830000Y98356712D01*
G75*
G02*
X68900000Y98426712I70000J0D01*
G01*
X69460000Y98426712D01*
G75*
G02*
X69530000Y98356712I0J-70000D01*
G01*
X69530000Y97576712D01*
G75*
G02*
X69460000Y97506712I-70000J0D01*
G01*
X68900000Y97506712D01*
G75*
G02*
X68830000Y97576712I0J70000D01*
G01*
G37*
G36*
G01*
X70430000Y97576712D02*
X70430000Y98356712D01*
G75*
G02*
X70500000Y98426712I70000J0D01*
G01*
X71060000Y98426712D01*
G75*
G02*
X71130000Y98356712I0J-70000D01*
G01*
X71130000Y97576712D01*
G75*
G02*
X71060000Y97506712I-70000J0D01*
G01*
X70500000Y97506712D01*
G75*
G02*
X70430000Y97576712I0J70000D01*
G01*
G37*
G04 #@! TD*
G04 #@! TO.C,C30*
G36*
G01*
X98677977Y38870002D02*
X99357977Y38870002D01*
G75*
G02*
X99442977Y38785002I0J-85000D01*
G01*
X99442977Y38105002D01*
G75*
G02*
X99357977Y38020002I-85000J0D01*
G01*
X98677977Y38020002D01*
G75*
G02*
X98592977Y38105002I0J85000D01*
G01*
X98592977Y38785002D01*
G75*
G02*
X98677977Y38870002I85000J0D01*
G01*
G37*
G36*
G01*
X98677977Y37290000D02*
X99357977Y37290000D01*
G75*
G02*
X99442977Y37205000I0J-85000D01*
G01*
X99442977Y36525000D01*
G75*
G02*
X99357977Y36440000I-85000J0D01*
G01*
X98677977Y36440000D01*
G75*
G02*
X98592977Y36525000I0J85000D01*
G01*
X98592977Y37205000D01*
G75*
G02*
X98677977Y37290000I85000J0D01*
G01*
G37*
G04 #@! TD*
G04 #@! TO.C,Q7*
G36*
G01*
X128612500Y97450000D02*
X127912500Y97450000D01*
G75*
G02*
X127662500Y97700000I0J250000D01*
G01*
X127662500Y99400000D01*
G75*
G02*
X127912500Y99650000I250000J0D01*
G01*
X128612500Y99650000D01*
G75*
G02*
X128862500Y99400000I0J-250000D01*
G01*
X128862500Y97700000D01*
G75*
G02*
X128612500Y97450000I-250000J0D01*
G01*
G37*
G36*
G01*
X130142500Y101650000D02*
X127892500Y101650000D01*
G75*
G02*
X127642500Y101900000I0J250000D01*
G01*
X127642500Y104450000D01*
G75*
G02*
X127892500Y104700000I250000J0D01*
G01*
X130142500Y104700000D01*
G75*
G02*
X130392500Y104450000I0J-250000D01*
G01*
X130392500Y101900000D01*
G75*
G02*
X130142500Y101650000I-250000J0D01*
G01*
G37*
G36*
G01*
X133192500Y101650000D02*
X130942500Y101650000D01*
G75*
G02*
X130692500Y101900000I0J250000D01*
G01*
X130692500Y104450000D01*
G75*
G02*
X130942500Y104700000I250000J0D01*
G01*
X133192500Y104700000D01*
G75*
G02*
X133442500Y104450000I0J-250000D01*
G01*
X133442500Y101900000D01*
G75*
G02*
X133192500Y101650000I-250000J0D01*
G01*
G37*
G36*
G01*
X130142500Y105000000D02*
X127892500Y105000000D01*
G75*
G02*
X127642500Y105250000I0J250000D01*
G01*
X127642500Y107800000D01*
G75*
G02*
X127892500Y108050000I250000J0D01*
G01*
X130142500Y108050000D01*
G75*
G02*
X130392500Y107800000I0J-250000D01*
G01*
X130392500Y105250000D01*
G75*
G02*
X130142500Y105000000I-250000J0D01*
G01*
G37*
G36*
G01*
X133192500Y105000000D02*
X130942500Y105000000D01*
G75*
G02*
X130692500Y105250000I0J250000D01*
G01*
X130692500Y107800000D01*
G75*
G02*
X130942500Y108050000I250000J0D01*
G01*
X133192500Y108050000D01*
G75*
G02*
X133442500Y107800000I0J-250000D01*
G01*
X133442500Y105250000D01*
G75*
G02*
X133192500Y105000000I-250000J0D01*
G01*
G37*
G36*
G01*
X133172500Y97450000D02*
X132472500Y97450000D01*
G75*
G02*
X132222500Y97700000I0J250000D01*
G01*
X132222500Y99400000D01*
G75*
G02*
X132472500Y99650000I250000J0D01*
G01*
X133172500Y99650000D01*
G75*
G02*
X133422500Y99400000I0J-250000D01*
G01*
X133422500Y97700000D01*
G75*
G02*
X133172500Y97450000I-250000J0D01*
G01*
G37*
G04 #@! TD*
G04 #@! TO.C,Q8*
G36*
G01*
X121382500Y97450000D02*
X120682500Y97450000D01*
G75*
G02*
X120432500Y97700000I0J250000D01*
G01*
X120432500Y99400000D01*
G75*
G02*
X120682500Y99650000I250000J0D01*
G01*
X121382500Y99650000D01*
G75*
G02*
X121632500Y99400000I0J-250000D01*
G01*
X121632500Y97700000D01*
G75*
G02*
X121382500Y97450000I-250000J0D01*
G01*
G37*
G36*
G01*
X122912500Y101650000D02*
X120662500Y101650000D01*
G75*
G02*
X120412500Y101900000I0J250000D01*
G01*
X120412500Y104450000D01*
G75*
G02*
X120662500Y104700000I250000J0D01*
G01*
X122912500Y104700000D01*
G75*
G02*
X123162500Y104450000I0J-250000D01*
G01*
X123162500Y101900000D01*
G75*
G02*
X122912500Y101650000I-250000J0D01*
G01*
G37*
G36*
G01*
X125962500Y101650000D02*
X123712500Y101650000D01*
G75*
G02*
X123462500Y101900000I0J250000D01*
G01*
X123462500Y104450000D01*
G75*
G02*
X123712500Y104700000I250000J0D01*
G01*
X125962500Y104700000D01*
G75*
G02*
X126212500Y104450000I0J-250000D01*
G01*
X126212500Y101900000D01*
G75*
G02*
X125962500Y101650000I-250000J0D01*
G01*
G37*
G36*
G01*
X122912500Y105000000D02*
X120662500Y105000000D01*
G75*
G02*
X120412500Y105250000I0J250000D01*
G01*
X120412500Y107800000D01*
G75*
G02*
X120662500Y108050000I250000J0D01*
G01*
X122912500Y108050000D01*
G75*
G02*
X123162500Y107800000I0J-250000D01*
G01*
X123162500Y105250000D01*
G75*
G02*
X122912500Y105000000I-250000J0D01*
G01*
G37*
G36*
G01*
X125962500Y105000000D02*
X123712500Y105000000D01*
G75*
G02*
X123462500Y105250000I0J250000D01*
G01*
X123462500Y107800000D01*
G75*
G02*
X123712500Y108050000I250000J0D01*
G01*
X125962500Y108050000D01*
G75*
G02*
X126212500Y107800000I0J-250000D01*
G01*
X126212500Y105250000D01*
G75*
G02*
X125962500Y105000000I-250000J0D01*
G01*
G37*
G36*
G01*
X125942500Y97450000D02*
X125242500Y97450000D01*
G75*
G02*
X124992500Y97700000I0J250000D01*
G01*
X124992500Y99400000D01*
G75*
G02*
X125242500Y99650000I250000J0D01*
G01*
X125942500Y99650000D01*
G75*
G02*
X126192500Y99400000I0J-250000D01*
G01*
X126192500Y97700000D01*
G75*
G02*
X125942500Y97450000I-250000J0D01*
G01*
G37*
G04 #@! TD*
G04 #@! TO.C,C26*
G36*
G01*
X6379999Y62910000D02*
X6379999Y63590000D01*
G75*
G02*
X6464999Y63675000I85000J0D01*
G01*
X7144999Y63675000D01*
G75*
G02*
X7229999Y63590000I0J-85000D01*
G01*
X7229999Y62910000D01*
G75*
G02*
X7144999Y62825000I-85000J0D01*
G01*
X6464999Y62825000D01*
G75*
G02*
X6379999Y62910000I0J85000D01*
G01*
G37*
G36*
G01*
X7960001Y62910000D02*
X7960001Y63590000D01*
G75*
G02*
X8045001Y63675000I85000J0D01*
G01*
X8725001Y63675000D01*
G75*
G02*
X8810001Y63590000I0J-85000D01*
G01*
X8810001Y62910000D01*
G75*
G02*
X8725001Y62825000I-85000J0D01*
G01*
X8045001Y62825000D01*
G75*
G02*
X7960001Y62910000I0J85000D01*
G01*
G37*
G04 #@! TD*
G04 #@! TO.C,C33*
G36*
G01*
X117160000Y26465001D02*
X117840000Y26465001D01*
G75*
G02*
X117925000Y26380001I0J-85000D01*
G01*
X117925000Y25700001D01*
G75*
G02*
X117840000Y25615001I-85000J0D01*
G01*
X117160000Y25615001D01*
G75*
G02*
X117075000Y25700001I0J85000D01*
G01*
X117075000Y26380001D01*
G75*
G02*
X117160000Y26465001I85000J0D01*
G01*
G37*
G36*
G01*
X117160000Y24884999D02*
X117840000Y24884999D01*
G75*
G02*
X117925000Y24799999I0J-85000D01*
G01*
X117925000Y24119999D01*
G75*
G02*
X117840000Y24034999I-85000J0D01*
G01*
X117160000Y24034999D01*
G75*
G02*
X117075000Y24119999I0J85000D01*
G01*
X117075000Y24799999D01*
G75*
G02*
X117160000Y24884999I85000J0D01*
G01*
G37*
G04 #@! TD*
G04 #@! TO.C,C29*
G36*
G01*
X93215000Y34809998D02*
X92535000Y34809998D01*
G75*
G02*
X92450000Y34894998I0J85000D01*
G01*
X92450000Y35574998D01*
G75*
G02*
X92535000Y35659998I85000J0D01*
G01*
X93215000Y35659998D01*
G75*
G02*
X93300000Y35574998I0J-85000D01*
G01*
X93300000Y34894998D01*
G75*
G02*
X93215000Y34809998I-85000J0D01*
G01*
G37*
G36*
G01*
X93215000Y36390000D02*
X92535000Y36390000D01*
G75*
G02*
X92450000Y36475000I0J85000D01*
G01*
X92450000Y37155000D01*
G75*
G02*
X92535000Y37240000I85000J0D01*
G01*
X93215000Y37240000D01*
G75*
G02*
X93300000Y37155000I0J-85000D01*
G01*
X93300000Y36475000D01*
G75*
G02*
X93215000Y36390000I-85000J0D01*
G01*
G37*
G04 #@! TD*
G04 #@! TO.C,R34*
G36*
G01*
X82875000Y98365000D02*
X82875000Y97585000D01*
G75*
G02*
X82805000Y97515000I-70000J0D01*
G01*
X82245000Y97515000D01*
G75*
G02*
X82175000Y97585000I0J70000D01*
G01*
X82175000Y98365000D01*
G75*
G02*
X82245000Y98435000I70000J0D01*
G01*
X82805000Y98435000D01*
G75*
G02*
X82875000Y98365000I0J-70000D01*
G01*
G37*
G36*
G01*
X81275000Y98365000D02*
X81275000Y97585000D01*
G75*
G02*
X81205000Y97515000I-70000J0D01*
G01*
X80645000Y97515000D01*
G75*
G02*
X80575000Y97585000I0J70000D01*
G01*
X80575000Y98365000D01*
G75*
G02*
X80645000Y98435000I70000J0D01*
G01*
X81205000Y98435000D01*
G75*
G02*
X81275000Y98365000I0J-70000D01*
G01*
G37*
G04 #@! TD*
G04 #@! TO.C,R1*
G36*
G01*
X47650000Y105410000D02*
X47650000Y106190000D01*
G75*
G02*
X47720000Y106260000I70000J0D01*
G01*
X48280000Y106260000D01*
G75*
G02*
X48350000Y106190000I0J-70000D01*
G01*
X48350000Y105410000D01*
G75*
G02*
X48280000Y105340000I-70000J0D01*
G01*
X47720000Y105340000D01*
G75*
G02*
X47650000Y105410000I0J70000D01*
G01*
G37*
G36*
G01*
X49250000Y105410000D02*
X49250000Y106190000D01*
G75*
G02*
X49320000Y106260000I70000J0D01*
G01*
X49880000Y106260000D01*
G75*
G02*
X49950000Y106190000I0J-70000D01*
G01*
X49950000Y105410000D01*
G75*
G02*
X49880000Y105340000I-70000J0D01*
G01*
X49320000Y105340000D01*
G75*
G02*
X49250000Y105410000I0J70000D01*
G01*
G37*
G04 #@! TD*
G04 #@! TO.C,U4*
G36*
G01*
X91825000Y34285000D02*
X91825000Y33985000D01*
G75*
G02*
X91675000Y33835000I-150000J0D01*
G01*
X90025000Y33835000D01*
G75*
G02*
X89875000Y33985000I0J150000D01*
G01*
X89875000Y34285000D01*
G75*
G02*
X90025000Y34435000I150000J0D01*
G01*
X91675000Y34435000D01*
G75*
G02*
X91825000Y34285000I0J-150000D01*
G01*
G37*
G36*
G01*
X91825000Y35555000D02*
X91825000Y35255000D01*
G75*
G02*
X91675000Y35105000I-150000J0D01*
G01*
X90025000Y35105000D01*
G75*
G02*
X89875000Y35255000I0J150000D01*
G01*
X89875000Y35555000D01*
G75*
G02*
X90025000Y35705000I150000J0D01*
G01*
X91675000Y35705000D01*
G75*
G02*
X91825000Y35555000I0J-150000D01*
G01*
G37*
G36*
G01*
X91825000Y36825000D02*
X91825000Y36525000D01*
G75*
G02*
X91675000Y36375000I-150000J0D01*
G01*
X90025000Y36375000D01*
G75*
G02*
X89875000Y36525000I0J150000D01*
G01*
X89875000Y36825000D01*
G75*
G02*
X90025000Y36975000I150000J0D01*
G01*
X91675000Y36975000D01*
G75*
G02*
X91825000Y36825000I0J-150000D01*
G01*
G37*
G36*
G01*
X91825000Y38095000D02*
X91825000Y37795000D01*
G75*
G02*
X91675000Y37645000I-150000J0D01*
G01*
X90025000Y37645000D01*
G75*
G02*
X89875000Y37795000I0J150000D01*
G01*
X89875000Y38095000D01*
G75*
G02*
X90025000Y38245000I150000J0D01*
G01*
X91675000Y38245000D01*
G75*
G02*
X91825000Y38095000I0J-150000D01*
G01*
G37*
G36*
G01*
X86875000Y38095000D02*
X86875000Y37795000D01*
G75*
G02*
X86725000Y37645000I-150000J0D01*
G01*
X85075000Y37645000D01*
G75*
G02*
X84925000Y37795000I0J150000D01*
G01*
X84925000Y38095000D01*
G75*
G02*
X85075000Y38245000I150000J0D01*
G01*
X86725000Y38245000D01*
G75*
G02*
X86875000Y38095000I0J-150000D01*
G01*
G37*
G36*
G01*
X86875000Y36825000D02*
X86875000Y36525000D01*
G75*
G02*
X86725000Y36375000I-150000J0D01*
G01*
X85075000Y36375000D01*
G75*
G02*
X84925000Y36525000I0J150000D01*
G01*
X84925000Y36825000D01*
G75*
G02*
X85075000Y36975000I150000J0D01*
G01*
X86725000Y36975000D01*
G75*
G02*
X86875000Y36825000I0J-150000D01*
G01*
G37*
G36*
G01*
X86875000Y35555000D02*
X86875000Y35255000D01*
G75*
G02*
X86725000Y35105000I-150000J0D01*
G01*
X85075000Y35105000D01*
G75*
G02*
X84925000Y35255000I0J150000D01*
G01*
X84925000Y35555000D01*
G75*
G02*
X85075000Y35705000I150000J0D01*
G01*
X86725000Y35705000D01*
G75*
G02*
X86875000Y35555000I0J-150000D01*
G01*
G37*
G36*
G01*
X86875000Y34285000D02*
X86875000Y33985000D01*
G75*
G02*
X86725000Y33835000I-150000J0D01*
G01*
X85075000Y33835000D01*
G75*
G02*
X84925000Y33985000I0J150000D01*
G01*
X84925000Y34285000D01*
G75*
G02*
X85075000Y34435000I150000J0D01*
G01*
X86725000Y34435000D01*
G75*
G02*
X86875000Y34285000I0J-150000D01*
G01*
G37*
G04 #@! TD*
G04 #@! TO.C,C13*
G36*
G01*
X16179999Y73410000D02*
X16179999Y74090000D01*
G75*
G02*
X16264999Y74175000I85000J0D01*
G01*
X16944999Y74175000D01*
G75*
G02*
X17029999Y74090000I0J-85000D01*
G01*
X17029999Y73410000D01*
G75*
G02*
X16944999Y73325000I-85000J0D01*
G01*
X16264999Y73325000D01*
G75*
G02*
X16179999Y73410000I0J85000D01*
G01*
G37*
G36*
G01*
X17760001Y73410000D02*
X17760001Y74090000D01*
G75*
G02*
X17845001Y74175000I85000J0D01*
G01*
X18525001Y74175000D01*
G75*
G02*
X18610001Y74090000I0J-85000D01*
G01*
X18610001Y73410000D01*
G75*
G02*
X18525001Y73325000I-85000J0D01*
G01*
X17845001Y73325000D01*
G75*
G02*
X17760001Y73410000I0J85000D01*
G01*
G37*
G04 #@! TD*
G04 #@! TO.C,U11*
G36*
G01*
X78520000Y99100000D02*
X78220000Y99100000D01*
G75*
G02*
X78070000Y99250000I0J150000D01*
G01*
X78070000Y100900000D01*
G75*
G02*
X78220000Y101050000I150000J0D01*
G01*
X78520000Y101050000D01*
G75*
G02*
X78670000Y100900000I0J-150000D01*
G01*
X78670000Y99250000D01*
G75*
G02*
X78520000Y99100000I-150000J0D01*
G01*
G37*
G36*
G01*
X79790000Y99100000D02*
X79490000Y99100000D01*
G75*
G02*
X79340000Y99250000I0J150000D01*
G01*
X79340000Y100900000D01*
G75*
G02*
X79490000Y101050000I150000J0D01*
G01*
X79790000Y101050000D01*
G75*
G02*
X79940000Y100900000I0J-150000D01*
G01*
X79940000Y99250000D01*
G75*
G02*
X79790000Y99100000I-150000J0D01*
G01*
G37*
G36*
G01*
X81060000Y99100000D02*
X80760000Y99100000D01*
G75*
G02*
X80610000Y99250000I0J150000D01*
G01*
X80610000Y100900000D01*
G75*
G02*
X80760000Y101050000I150000J0D01*
G01*
X81060000Y101050000D01*
G75*
G02*
X81210000Y100900000I0J-150000D01*
G01*
X81210000Y99250000D01*
G75*
G02*
X81060000Y99100000I-150000J0D01*
G01*
G37*
G36*
G01*
X82330000Y99100000D02*
X82030000Y99100000D01*
G75*
G02*
X81880000Y99250000I0J150000D01*
G01*
X81880000Y100900000D01*
G75*
G02*
X82030000Y101050000I150000J0D01*
G01*
X82330000Y101050000D01*
G75*
G02*
X82480000Y100900000I0J-150000D01*
G01*
X82480000Y99250000D01*
G75*
G02*
X82330000Y99100000I-150000J0D01*
G01*
G37*
G36*
G01*
X82330000Y104050000D02*
X82030000Y104050000D01*
G75*
G02*
X81880000Y104200000I0J150000D01*
G01*
X81880000Y105850000D01*
G75*
G02*
X82030000Y106000000I150000J0D01*
G01*
X82330000Y106000000D01*
G75*
G02*
X82480000Y105850000I0J-150000D01*
G01*
X82480000Y104200000D01*
G75*
G02*
X82330000Y104050000I-150000J0D01*
G01*
G37*
G36*
G01*
X81060000Y104050000D02*
X80760000Y104050000D01*
G75*
G02*
X80610000Y104200000I0J150000D01*
G01*
X80610000Y105850000D01*
G75*
G02*
X80760000Y106000000I150000J0D01*
G01*
X81060000Y106000000D01*
G75*
G02*
X81210000Y105850000I0J-150000D01*
G01*
X81210000Y104200000D01*
G75*
G02*
X81060000Y104050000I-150000J0D01*
G01*
G37*
G36*
G01*
X79790000Y104050000D02*
X79490000Y104050000D01*
G75*
G02*
X79340000Y104200000I0J150000D01*
G01*
X79340000Y105850000D01*
G75*
G02*
X79490000Y106000000I150000J0D01*
G01*
X79790000Y106000000D01*
G75*
G02*
X79940000Y105850000I0J-150000D01*
G01*
X79940000Y104200000D01*
G75*
G02*
X79790000Y104050000I-150000J0D01*
G01*
G37*
G36*
G01*
X78520000Y104050000D02*
X78220000Y104050000D01*
G75*
G02*
X78070000Y104200000I0J150000D01*
G01*
X78070000Y105850000D01*
G75*
G02*
X78220000Y106000000I150000J0D01*
G01*
X78520000Y106000000D01*
G75*
G02*
X78670000Y105850000I0J-150000D01*
G01*
X78670000Y104200000D01*
G75*
G02*
X78520000Y104050000I-150000J0D01*
G01*
G37*
G04 #@! TD*
G04 #@! TO.C,C31*
G36*
G01*
X88859999Y39800000D02*
X88859999Y40480000D01*
G75*
G02*
X88944999Y40565000I85000J0D01*
G01*
X89624999Y40565000D01*
G75*
G02*
X89709999Y40480000I0J-85000D01*
G01*
X89709999Y39800000D01*
G75*
G02*
X89624999Y39715000I-85000J0D01*
G01*
X88944999Y39715000D01*
G75*
G02*
X88859999Y39800000I0J85000D01*
G01*
G37*
G36*
G01*
X90440001Y39800000D02*
X90440001Y40480000D01*
G75*
G02*
X90525001Y40565000I85000J0D01*
G01*
X91205001Y40565000D01*
G75*
G02*
X91290001Y40480000I0J-85000D01*
G01*
X91290001Y39800000D01*
G75*
G02*
X91205001Y39715000I-85000J0D01*
G01*
X90525001Y39715000D01*
G75*
G02*
X90440001Y39800000I0J85000D01*
G01*
G37*
G04 #@! TD*
G04 #@! TO.C,F4*
G36*
G01*
X20340010Y71625000D02*
X21030010Y71625000D01*
G75*
G02*
X21260010Y71395000I0J-230000D01*
G01*
X21260010Y70055000D01*
G75*
G02*
X21030010Y69825000I-230000J0D01*
G01*
X20340010Y69825000D01*
G75*
G02*
X20110010Y70055000I0J230000D01*
G01*
X20110010Y71395000D01*
G75*
G02*
X20340010Y71625000I230000J0D01*
G01*
G37*
G36*
G01*
X17439990Y71625000D02*
X18129990Y71625000D01*
G75*
G02*
X18359990Y71395000I0J-230000D01*
G01*
X18359990Y70055000D01*
G75*
G02*
X18129990Y69825000I-230000J0D01*
G01*
X17439990Y69825000D01*
G75*
G02*
X17209990Y70055000I0J230000D01*
G01*
X17209990Y71395000D01*
G75*
G02*
X17439990Y71625000I230000J0D01*
G01*
G37*
G04 #@! TD*
G04 #@! TO.C,R37*
G36*
G01*
X92600001Y75725000D02*
X92600001Y74475000D01*
G75*
G02*
X92500001Y74375000I-100000J0D01*
G01*
X91700001Y74375000D01*
G75*
G02*
X91600001Y74475000I0J100000D01*
G01*
X91600001Y75725000D01*
G75*
G02*
X91700001Y75825000I100000J0D01*
G01*
X92500001Y75825000D01*
G75*
G02*
X92600001Y75725000I0J-100000D01*
G01*
G37*
G36*
G01*
X90699979Y75725000D02*
X90699979Y74475000D01*
G75*
G02*
X90599979Y74375000I-100000J0D01*
G01*
X89799979Y74375000D01*
G75*
G02*
X89699979Y74475000I0J100000D01*
G01*
X89699979Y75725000D01*
G75*
G02*
X89799979Y75825000I100000J0D01*
G01*
X90599979Y75825000D01*
G75*
G02*
X90699979Y75725000I0J-100000D01*
G01*
G37*
G04 #@! TD*
G04 #@! TO.C,F9*
G36*
G01*
X103137500Y92831250D02*
X103137500Y92318750D01*
G75*
G02*
X102918750Y92100000I-218750J0D01*
G01*
X102481250Y92100000D01*
G75*
G02*
X102262500Y92318750I0J218750D01*
G01*
X102262500Y92831250D01*
G75*
G02*
X102481250Y93050000I218750J0D01*
G01*
X102918750Y93050000D01*
G75*
G02*
X103137500Y92831250I0J-218750D01*
G01*
G37*
G36*
G01*
X101562500Y92831250D02*
X101562500Y92318750D01*
G75*
G02*
X101343750Y92100000I-218750J0D01*
G01*
X100906250Y92100000D01*
G75*
G02*
X100687500Y92318750I0J218750D01*
G01*
X100687500Y92831250D01*
G75*
G02*
X100906250Y93050000I218750J0D01*
G01*
X101343750Y93050000D01*
G75*
G02*
X101562500Y92831250I0J-218750D01*
G01*
G37*
G04 #@! TD*
G04 #@! TO.C,C11*
G36*
G01*
X22460001Y89365000D02*
X22460001Y88685000D01*
G75*
G02*
X22375001Y88600000I-85000J0D01*
G01*
X21695001Y88600000D01*
G75*
G02*
X21610001Y88685000I0J85000D01*
G01*
X21610001Y89365000D01*
G75*
G02*
X21695001Y89450000I85000J0D01*
G01*
X22375001Y89450000D01*
G75*
G02*
X22460001Y89365000I0J-85000D01*
G01*
G37*
G36*
G01*
X20879999Y89365000D02*
X20879999Y88685000D01*
G75*
G02*
X20794999Y88600000I-85000J0D01*
G01*
X20114999Y88600000D01*
G75*
G02*
X20029999Y88685000I0J85000D01*
G01*
X20029999Y89365000D01*
G75*
G02*
X20114999Y89450000I85000J0D01*
G01*
X20794999Y89450000D01*
G75*
G02*
X20879999Y89365000I0J-85000D01*
G01*
G37*
G04 #@! TD*
G04 #@! TO.C,F6*
G36*
G01*
X132037500Y92881250D02*
X132037500Y92368750D01*
G75*
G02*
X131818750Y92150000I-218750J0D01*
G01*
X131381250Y92150000D01*
G75*
G02*
X131162500Y92368750I0J218750D01*
G01*
X131162500Y92881250D01*
G75*
G02*
X131381250Y93100000I218750J0D01*
G01*
X131818750Y93100000D01*
G75*
G02*
X132037500Y92881250I0J-218750D01*
G01*
G37*
G36*
G01*
X130462500Y92881250D02*
X130462500Y92368750D01*
G75*
G02*
X130243750Y92150000I-218750J0D01*
G01*
X129806250Y92150000D01*
G75*
G02*
X129587500Y92368750I0J218750D01*
G01*
X129587500Y92881250D01*
G75*
G02*
X129806250Y93100000I218750J0D01*
G01*
X130243750Y93100000D01*
G75*
G02*
X130462500Y92881250I0J-218750D01*
G01*
G37*
G04 #@! TD*
G04 #@! TO.C,R10*
G36*
G01*
X28007500Y97394144D02*
X28007500Y96614144D01*
G75*
G02*
X27937500Y96544144I-70000J0D01*
G01*
X27377500Y96544144D01*
G75*
G02*
X27307500Y96614144I0J70000D01*
G01*
X27307500Y97394144D01*
G75*
G02*
X27377500Y97464144I70000J0D01*
G01*
X27937500Y97464144D01*
G75*
G02*
X28007500Y97394144I0J-70000D01*
G01*
G37*
G36*
G01*
X26407500Y97394144D02*
X26407500Y96614144D01*
G75*
G02*
X26337500Y96544144I-70000J0D01*
G01*
X25777500Y96544144D01*
G75*
G02*
X25707500Y96614144I0J70000D01*
G01*
X25707500Y97394144D01*
G75*
G02*
X25777500Y97464144I70000J0D01*
G01*
X26337500Y97464144D01*
G75*
G02*
X26407500Y97394144I0J-70000D01*
G01*
G37*
G04 #@! TD*
G04 #@! TO.C,F10*
G36*
G01*
X95762500Y92756250D02*
X95762500Y92243750D01*
G75*
G02*
X95543750Y92025000I-218750J0D01*
G01*
X95106250Y92025000D01*
G75*
G02*
X94887500Y92243750I0J218750D01*
G01*
X94887500Y92756250D01*
G75*
G02*
X95106250Y92975000I218750J0D01*
G01*
X95543750Y92975000D01*
G75*
G02*
X95762500Y92756250I0J-218750D01*
G01*
G37*
G36*
G01*
X94187500Y92756250D02*
X94187500Y92243750D01*
G75*
G02*
X93968750Y92025000I-218750J0D01*
G01*
X93531250Y92025000D01*
G75*
G02*
X93312500Y92243750I0J218750D01*
G01*
X93312500Y92756250D01*
G75*
G02*
X93531250Y92975000I218750J0D01*
G01*
X93968750Y92975000D01*
G75*
G02*
X94187500Y92756250I0J-218750D01*
G01*
G37*
G04 #@! TD*
G04 #@! TO.C,F3*
G36*
G01*
X20340010Y69425000D02*
X21030010Y69425000D01*
G75*
G02*
X21260010Y69195000I0J-230000D01*
G01*
X21260010Y67855000D01*
G75*
G02*
X21030010Y67625000I-230000J0D01*
G01*
X20340010Y67625000D01*
G75*
G02*
X20110010Y67855000I0J230000D01*
G01*
X20110010Y69195000D01*
G75*
G02*
X20340010Y69425000I230000J0D01*
G01*
G37*
G36*
G01*
X17439990Y69425000D02*
X18129990Y69425000D01*
G75*
G02*
X18359990Y69195000I0J-230000D01*
G01*
X18359990Y67855000D01*
G75*
G02*
X18129990Y67625000I-230000J0D01*
G01*
X17439990Y67625000D01*
G75*
G02*
X17209990Y67855000I0J230000D01*
G01*
X17209990Y69195000D01*
G75*
G02*
X17439990Y69425000I230000J0D01*
G01*
G37*
G04 #@! TD*
G04 #@! TO.C,D1*
G36*
G01*
X87360000Y22825067D02*
X87840000Y22825067D01*
G75*
G02*
X87900000Y22765067I0J-60000D01*
G01*
X87900000Y22285067D01*
G75*
G02*
X87840000Y22225067I-60000J0D01*
G01*
X87360000Y22225067D01*
G75*
G02*
X87300000Y22285067I0J60000D01*
G01*
X87300000Y22765067D01*
G75*
G02*
X87360000Y22825067I60000J0D01*
G01*
G37*
G36*
G01*
X89560000Y22825067D02*
X90040000Y22825067D01*
G75*
G02*
X90100000Y22765067I0J-60000D01*
G01*
X90100000Y22285067D01*
G75*
G02*
X90040000Y22225067I-60000J0D01*
G01*
X89560000Y22225067D01*
G75*
G02*
X89500000Y22285067I0J60000D01*
G01*
X89500000Y22765067D01*
G75*
G02*
X89560000Y22825067I60000J0D01*
G01*
G37*
G04 #@! TD*
G04 #@! TO.C,C25*
G36*
G01*
X7345000Y78735000D02*
X7345000Y79415000D01*
G75*
G02*
X7430000Y79500000I85000J0D01*
G01*
X8110000Y79500000D01*
G75*
G02*
X8195000Y79415000I0J-85000D01*
G01*
X8195000Y78735000D01*
G75*
G02*
X8110000Y78650000I-85000J0D01*
G01*
X7430000Y78650000D01*
G75*
G02*
X7345000Y78735000I0J85000D01*
G01*
G37*
G36*
G01*
X8925002Y78735000D02*
X8925002Y79415000D01*
G75*
G02*
X9010002Y79500000I85000J0D01*
G01*
X9690002Y79500000D01*
G75*
G02*
X9775002Y79415000I0J-85000D01*
G01*
X9775002Y78735000D01*
G75*
G02*
X9690002Y78650000I-85000J0D01*
G01*
X9010002Y78650000D01*
G75*
G02*
X8925002Y78735000I0J85000D01*
G01*
G37*
G04 #@! TD*
G04 #@! TO.C,R19*
G36*
G01*
X113402500Y96725000D02*
X114182500Y96725000D01*
G75*
G02*
X114252500Y96655000I0J-70000D01*
G01*
X114252500Y96095000D01*
G75*
G02*
X114182500Y96025000I-70000J0D01*
G01*
X113402500Y96025000D01*
G75*
G02*
X113332500Y96095000I0J70000D01*
G01*
X113332500Y96655000D01*
G75*
G02*
X113402500Y96725000I70000J0D01*
G01*
G37*
G36*
G01*
X113402500Y95125000D02*
X114182500Y95125000D01*
G75*
G02*
X114252500Y95055000I0J-70000D01*
G01*
X114252500Y94495000D01*
G75*
G02*
X114182500Y94425000I-70000J0D01*
G01*
X113402500Y94425000D01*
G75*
G02*
X113332500Y94495000I0J70000D01*
G01*
X113332500Y95055000D01*
G75*
G02*
X113402500Y95125000I70000J0D01*
G01*
G37*
G04 #@! TD*
G04 #@! TO.C,R33*
G36*
G01*
X76425000Y97580856D02*
X76425000Y98360856D01*
G75*
G02*
X76495000Y98430856I70000J0D01*
G01*
X77055000Y98430856D01*
G75*
G02*
X77125000Y98360856I0J-70000D01*
G01*
X77125000Y97580856D01*
G75*
G02*
X77055000Y97510856I-70000J0D01*
G01*
X76495000Y97510856D01*
G75*
G02*
X76425000Y97580856I0J70000D01*
G01*
G37*
G36*
G01*
X78025000Y97580856D02*
X78025000Y98360856D01*
G75*
G02*
X78095000Y98430856I70000J0D01*
G01*
X78655000Y98430856D01*
G75*
G02*
X78725000Y98360856I0J-70000D01*
G01*
X78725000Y97580856D01*
G75*
G02*
X78655000Y97510856I-70000J0D01*
G01*
X78095000Y97510856D01*
G75*
G02*
X78025000Y97580856I0J70000D01*
G01*
G37*
G04 #@! TD*
G04 #@! TO.C,F8*
G36*
G01*
X110362500Y92831250D02*
X110362500Y92318750D01*
G75*
G02*
X110143750Y92100000I-218750J0D01*
G01*
X109706250Y92100000D01*
G75*
G02*
X109487500Y92318750I0J218750D01*
G01*
X109487500Y92831250D01*
G75*
G02*
X109706250Y93050000I218750J0D01*
G01*
X110143750Y93050000D01*
G75*
G02*
X110362500Y92831250I0J-218750D01*
G01*
G37*
G36*
G01*
X108787500Y92831250D02*
X108787500Y92318750D01*
G75*
G02*
X108568750Y92100000I-218750J0D01*
G01*
X108131250Y92100000D01*
G75*
G02*
X107912500Y92318750I0J218750D01*
G01*
X107912500Y92831250D01*
G75*
G02*
X108131250Y93050000I218750J0D01*
G01*
X108568750Y93050000D01*
G75*
G02*
X108787500Y92831250I0J-218750D01*
G01*
G37*
G04 #@! TD*
G04 #@! TO.C,Q12*
G36*
G01*
X92462500Y97450000D02*
X91762500Y97450000D01*
G75*
G02*
X91512500Y97700000I0J250000D01*
G01*
X91512500Y99400000D01*
G75*
G02*
X91762500Y99650000I250000J0D01*
G01*
X92462500Y99650000D01*
G75*
G02*
X92712500Y99400000I0J-250000D01*
G01*
X92712500Y97700000D01*
G75*
G02*
X92462500Y97450000I-250000J0D01*
G01*
G37*
G36*
G01*
X93992500Y101650000D02*
X91742500Y101650000D01*
G75*
G02*
X91492500Y101900000I0J250000D01*
G01*
X91492500Y104450000D01*
G75*
G02*
X91742500Y104700000I250000J0D01*
G01*
X93992500Y104700000D01*
G75*
G02*
X94242500Y104450000I0J-250000D01*
G01*
X94242500Y101900000D01*
G75*
G02*
X93992500Y101650000I-250000J0D01*
G01*
G37*
G36*
G01*
X97042500Y101650000D02*
X94792500Y101650000D01*
G75*
G02*
X94542500Y101900000I0J250000D01*
G01*
X94542500Y104450000D01*
G75*
G02*
X94792500Y104700000I250000J0D01*
G01*
X97042500Y104700000D01*
G75*
G02*
X97292500Y104450000I0J-250000D01*
G01*
X97292500Y101900000D01*
G75*
G02*
X97042500Y101650000I-250000J0D01*
G01*
G37*
G36*
G01*
X93992500Y105000000D02*
X91742500Y105000000D01*
G75*
G02*
X91492500Y105250000I0J250000D01*
G01*
X91492500Y107800000D01*
G75*
G02*
X91742500Y108050000I250000J0D01*
G01*
X93992500Y108050000D01*
G75*
G02*
X94242500Y107800000I0J-250000D01*
G01*
X94242500Y105250000D01*
G75*
G02*
X93992500Y105000000I-250000J0D01*
G01*
G37*
G36*
G01*
X97042500Y105000000D02*
X94792500Y105000000D01*
G75*
G02*
X94542500Y105250000I0J250000D01*
G01*
X94542500Y107800000D01*
G75*
G02*
X94792500Y108050000I250000J0D01*
G01*
X97042500Y108050000D01*
G75*
G02*
X97292500Y107800000I0J-250000D01*
G01*
X97292500Y105250000D01*
G75*
G02*
X97042500Y105000000I-250000J0D01*
G01*
G37*
G36*
G01*
X97022500Y97450000D02*
X96322500Y97450000D01*
G75*
G02*
X96072500Y97700000I0J250000D01*
G01*
X96072500Y99400000D01*
G75*
G02*
X96322500Y99650000I250000J0D01*
G01*
X97022500Y99650000D01*
G75*
G02*
X97272500Y99400000I0J-250000D01*
G01*
X97272500Y97700000D01*
G75*
G02*
X97022500Y97450000I-250000J0D01*
G01*
G37*
G04 #@! TD*
D12*
G04 #@! TO.C,M7*
X26900006Y49800000D03*
G04 #@! TD*
G04 #@! TO.C,R23*
G36*
G01*
X106177500Y96725000D02*
X106957500Y96725000D01*
G75*
G02*
X107027500Y96655000I0J-70000D01*
G01*
X107027500Y96095000D01*
G75*
G02*
X106957500Y96025000I-70000J0D01*
G01*
X106177500Y96025000D01*
G75*
G02*
X106107500Y96095000I0J70000D01*
G01*
X106107500Y96655000D01*
G75*
G02*
X106177500Y96725000I70000J0D01*
G01*
G37*
G36*
G01*
X106177500Y95125000D02*
X106957500Y95125000D01*
G75*
G02*
X107027500Y95055000I0J-70000D01*
G01*
X107027500Y94495000D01*
G75*
G02*
X106957500Y94425000I-70000J0D01*
G01*
X106177500Y94425000D01*
G75*
G02*
X106107500Y94495000I0J70000D01*
G01*
X106107500Y95055000D01*
G75*
G02*
X106177500Y95125000I70000J0D01*
G01*
G37*
G04 #@! TD*
G04 #@! TO.C,R7*
G36*
G01*
X28914814Y12025000D02*
X29694814Y12025000D01*
G75*
G02*
X29764814Y11955000I0J-70000D01*
G01*
X29764814Y11395000D01*
G75*
G02*
X29694814Y11325000I-70000J0D01*
G01*
X28914814Y11325000D01*
G75*
G02*
X28844814Y11395000I0J70000D01*
G01*
X28844814Y11955000D01*
G75*
G02*
X28914814Y12025000I70000J0D01*
G01*
G37*
G36*
G01*
X28914814Y10425000D02*
X29694814Y10425000D01*
G75*
G02*
X29764814Y10355000I0J-70000D01*
G01*
X29764814Y9795000D01*
G75*
G02*
X29694814Y9725000I-70000J0D01*
G01*
X28914814Y9725000D01*
G75*
G02*
X28844814Y9795000I0J70000D01*
G01*
X28844814Y10355000D01*
G75*
G02*
X28914814Y10425000I70000J0D01*
G01*
G37*
G04 #@! TD*
G04 #@! TO.C,R9*
G36*
G01*
X21820000Y73335000D02*
X21820000Y74115000D01*
G75*
G02*
X21890000Y74185000I70000J0D01*
G01*
X22450000Y74185000D01*
G75*
G02*
X22520000Y74115000I0J-70000D01*
G01*
X22520000Y73335000D01*
G75*
G02*
X22450000Y73265000I-70000J0D01*
G01*
X21890000Y73265000D01*
G75*
G02*
X21820000Y73335000I0J70000D01*
G01*
G37*
G36*
G01*
X23420000Y73335000D02*
X23420000Y74115000D01*
G75*
G02*
X23490000Y74185000I70000J0D01*
G01*
X24050000Y74185000D01*
G75*
G02*
X24120000Y74115000I0J-70000D01*
G01*
X24120000Y73335000D01*
G75*
G02*
X24050000Y73265000I-70000J0D01*
G01*
X23490000Y73265000D01*
G75*
G02*
X23420000Y73335000I0J70000D01*
G01*
G37*
G04 #@! TD*
G04 #@! TO.C,R24*
G36*
G01*
X98952500Y96725000D02*
X99732500Y96725000D01*
G75*
G02*
X99802500Y96655000I0J-70000D01*
G01*
X99802500Y96095000D01*
G75*
G02*
X99732500Y96025000I-70000J0D01*
G01*
X98952500Y96025000D01*
G75*
G02*
X98882500Y96095000I0J70000D01*
G01*
X98882500Y96655000D01*
G75*
G02*
X98952500Y96725000I70000J0D01*
G01*
G37*
G36*
G01*
X98952500Y95125000D02*
X99732500Y95125000D01*
G75*
G02*
X99802500Y95055000I0J-70000D01*
G01*
X99802500Y94495000D01*
G75*
G02*
X99732500Y94425000I-70000J0D01*
G01*
X98952500Y94425000D01*
G75*
G02*
X98882500Y94495000I0J70000D01*
G01*
X98882500Y95055000D01*
G75*
G02*
X98952500Y95125000I70000J0D01*
G01*
G37*
G04 #@! TD*
G04 #@! TO.C,F7*
G36*
G01*
X117587500Y92806250D02*
X117587500Y92293750D01*
G75*
G02*
X117368750Y92075000I-218750J0D01*
G01*
X116931250Y92075000D01*
G75*
G02*
X116712500Y92293750I0J218750D01*
G01*
X116712500Y92806250D01*
G75*
G02*
X116931250Y93025000I218750J0D01*
G01*
X117368750Y93025000D01*
G75*
G02*
X117587500Y92806250I0J-218750D01*
G01*
G37*
G36*
G01*
X116012500Y92806250D02*
X116012500Y92293750D01*
G75*
G02*
X115793750Y92075000I-218750J0D01*
G01*
X115356250Y92075000D01*
G75*
G02*
X115137500Y92293750I0J218750D01*
G01*
X115137500Y92806250D01*
G75*
G02*
X115356250Y93025000I218750J0D01*
G01*
X115793750Y93025000D01*
G75*
G02*
X116012500Y92806250I0J-218750D01*
G01*
G37*
G04 #@! TD*
G04 #@! TO.C,C32*
G36*
G01*
X88859999Y41600000D02*
X88859999Y42280000D01*
G75*
G02*
X88944999Y42365000I85000J0D01*
G01*
X89624999Y42365000D01*
G75*
G02*
X89709999Y42280000I0J-85000D01*
G01*
X89709999Y41600000D01*
G75*
G02*
X89624999Y41515000I-85000J0D01*
G01*
X88944999Y41515000D01*
G75*
G02*
X88859999Y41600000I0J85000D01*
G01*
G37*
G36*
G01*
X90440001Y41600000D02*
X90440001Y42280000D01*
G75*
G02*
X90525001Y42365000I85000J0D01*
G01*
X91205001Y42365000D01*
G75*
G02*
X91290001Y42280000I0J-85000D01*
G01*
X91290001Y41600000D01*
G75*
G02*
X91205001Y41515000I-85000J0D01*
G01*
X90525001Y41515000D01*
G75*
G02*
X90440001Y41600000I0J85000D01*
G01*
G37*
G04 #@! TD*
G04 #@! TO.C,R16*
G36*
G01*
X16632500Y96610000D02*
X16632500Y97390000D01*
G75*
G02*
X16702500Y97460000I70000J0D01*
G01*
X17262500Y97460000D01*
G75*
G02*
X17332500Y97390000I0J-70000D01*
G01*
X17332500Y96610000D01*
G75*
G02*
X17262500Y96540000I-70000J0D01*
G01*
X16702500Y96540000D01*
G75*
G02*
X16632500Y96610000I0J70000D01*
G01*
G37*
G36*
G01*
X18232500Y96610000D02*
X18232500Y97390000D01*
G75*
G02*
X18302500Y97460000I70000J0D01*
G01*
X18862500Y97460000D01*
G75*
G02*
X18932500Y97390000I0J-70000D01*
G01*
X18932500Y96610000D01*
G75*
G02*
X18862500Y96540000I-70000J0D01*
G01*
X18302500Y96540000D01*
G75*
G02*
X18232500Y96610000I0J70000D01*
G01*
G37*
G04 #@! TD*
G04 #@! TO.C,U9*
G36*
G01*
X62895000Y99095856D02*
X62595000Y99095856D01*
G75*
G02*
X62445000Y99245856I0J150000D01*
G01*
X62445000Y100895856D01*
G75*
G02*
X62595000Y101045856I150000J0D01*
G01*
X62895000Y101045856D01*
G75*
G02*
X63045000Y100895856I0J-150000D01*
G01*
X63045000Y99245856D01*
G75*
G02*
X62895000Y99095856I-150000J0D01*
G01*
G37*
G36*
G01*
X64165000Y99095856D02*
X63865000Y99095856D01*
G75*
G02*
X63715000Y99245856I0J150000D01*
G01*
X63715000Y100895856D01*
G75*
G02*
X63865000Y101045856I150000J0D01*
G01*
X64165000Y101045856D01*
G75*
G02*
X64315000Y100895856I0J-150000D01*
G01*
X64315000Y99245856D01*
G75*
G02*
X64165000Y99095856I-150000J0D01*
G01*
G37*
G36*
G01*
X65435000Y99095856D02*
X65135000Y99095856D01*
G75*
G02*
X64985000Y99245856I0J150000D01*
G01*
X64985000Y100895856D01*
G75*
G02*
X65135000Y101045856I150000J0D01*
G01*
X65435000Y101045856D01*
G75*
G02*
X65585000Y100895856I0J-150000D01*
G01*
X65585000Y99245856D01*
G75*
G02*
X65435000Y99095856I-150000J0D01*
G01*
G37*
G36*
G01*
X66705000Y99095856D02*
X66405000Y99095856D01*
G75*
G02*
X66255000Y99245856I0J150000D01*
G01*
X66255000Y100895856D01*
G75*
G02*
X66405000Y101045856I150000J0D01*
G01*
X66705000Y101045856D01*
G75*
G02*
X66855000Y100895856I0J-150000D01*
G01*
X66855000Y99245856D01*
G75*
G02*
X66705000Y99095856I-150000J0D01*
G01*
G37*
G36*
G01*
X66705000Y104045856D02*
X66405000Y104045856D01*
G75*
G02*
X66255000Y104195856I0J150000D01*
G01*
X66255000Y105845856D01*
G75*
G02*
X66405000Y105995856I150000J0D01*
G01*
X66705000Y105995856D01*
G75*
G02*
X66855000Y105845856I0J-150000D01*
G01*
X66855000Y104195856D01*
G75*
G02*
X66705000Y104045856I-150000J0D01*
G01*
G37*
G36*
G01*
X65435000Y104045856D02*
X65135000Y104045856D01*
G75*
G02*
X64985000Y104195856I0J150000D01*
G01*
X64985000Y105845856D01*
G75*
G02*
X65135000Y105995856I150000J0D01*
G01*
X65435000Y105995856D01*
G75*
G02*
X65585000Y105845856I0J-150000D01*
G01*
X65585000Y104195856D01*
G75*
G02*
X65435000Y104045856I-150000J0D01*
G01*
G37*
G36*
G01*
X64165000Y104045856D02*
X63865000Y104045856D01*
G75*
G02*
X63715000Y104195856I0J150000D01*
G01*
X63715000Y105845856D01*
G75*
G02*
X63865000Y105995856I150000J0D01*
G01*
X64165000Y105995856D01*
G75*
G02*
X64315000Y105845856I0J-150000D01*
G01*
X64315000Y104195856D01*
G75*
G02*
X64165000Y104045856I-150000J0D01*
G01*
G37*
G36*
G01*
X62895000Y104045856D02*
X62595000Y104045856D01*
G75*
G02*
X62445000Y104195856I0J150000D01*
G01*
X62445000Y105845856D01*
G75*
G02*
X62595000Y105995856I150000J0D01*
G01*
X62895000Y105995856D01*
G75*
G02*
X63045000Y105845856I0J-150000D01*
G01*
X63045000Y104195856D01*
G75*
G02*
X62895000Y104045856I-150000J0D01*
G01*
G37*
G04 #@! TD*
G04 #@! TO.C,R30*
G36*
G01*
X67225000Y98360856D02*
X67225000Y97580856D01*
G75*
G02*
X67155000Y97510856I-70000J0D01*
G01*
X66595000Y97510856D01*
G75*
G02*
X66525000Y97580856I0J70000D01*
G01*
X66525000Y98360856D01*
G75*
G02*
X66595000Y98430856I70000J0D01*
G01*
X67155000Y98430856D01*
G75*
G02*
X67225000Y98360856I0J-70000D01*
G01*
G37*
G36*
G01*
X65625000Y98360856D02*
X65625000Y97580856D01*
G75*
G02*
X65555000Y97510856I-70000J0D01*
G01*
X64995000Y97510856D01*
G75*
G02*
X64925000Y97580856I0J70000D01*
G01*
X64925000Y98360856D01*
G75*
G02*
X64995000Y98430856I70000J0D01*
G01*
X65555000Y98430856D01*
G75*
G02*
X65625000Y98360856I0J-70000D01*
G01*
G37*
G04 #@! TD*
G04 #@! TO.C,Q9*
G36*
G01*
X114152500Y97450000D02*
X113452500Y97450000D01*
G75*
G02*
X113202500Y97700000I0J250000D01*
G01*
X113202500Y99400000D01*
G75*
G02*
X113452500Y99650000I250000J0D01*
G01*
X114152500Y99650000D01*
G75*
G02*
X114402500Y99400000I0J-250000D01*
G01*
X114402500Y97700000D01*
G75*
G02*
X114152500Y97450000I-250000J0D01*
G01*
G37*
G36*
G01*
X115682500Y101650000D02*
X113432500Y101650000D01*
G75*
G02*
X113182500Y101900000I0J250000D01*
G01*
X113182500Y104450000D01*
G75*
G02*
X113432500Y104700000I250000J0D01*
G01*
X115682500Y104700000D01*
G75*
G02*
X115932500Y104450000I0J-250000D01*
G01*
X115932500Y101900000D01*
G75*
G02*
X115682500Y101650000I-250000J0D01*
G01*
G37*
G36*
G01*
X118732500Y101650000D02*
X116482500Y101650000D01*
G75*
G02*
X116232500Y101900000I0J250000D01*
G01*
X116232500Y104450000D01*
G75*
G02*
X116482500Y104700000I250000J0D01*
G01*
X118732500Y104700000D01*
G75*
G02*
X118982500Y104450000I0J-250000D01*
G01*
X118982500Y101900000D01*
G75*
G02*
X118732500Y101650000I-250000J0D01*
G01*
G37*
G36*
G01*
X115682500Y105000000D02*
X113432500Y105000000D01*
G75*
G02*
X113182500Y105250000I0J250000D01*
G01*
X113182500Y107800000D01*
G75*
G02*
X113432500Y108050000I250000J0D01*
G01*
X115682500Y108050000D01*
G75*
G02*
X115932500Y107800000I0J-250000D01*
G01*
X115932500Y105250000D01*
G75*
G02*
X115682500Y105000000I-250000J0D01*
G01*
G37*
G36*
G01*
X118732500Y105000000D02*
X116482500Y105000000D01*
G75*
G02*
X116232500Y105250000I0J250000D01*
G01*
X116232500Y107800000D01*
G75*
G02*
X116482500Y108050000I250000J0D01*
G01*
X118732500Y108050000D01*
G75*
G02*
X118982500Y107800000I0J-250000D01*
G01*
X118982500Y105250000D01*
G75*
G02*
X118732500Y105000000I-250000J0D01*
G01*
G37*
G36*
G01*
X118712500Y97450000D02*
X118012500Y97450000D01*
G75*
G02*
X117762500Y97700000I0J250000D01*
G01*
X117762500Y99400000D01*
G75*
G02*
X118012500Y99650000I250000J0D01*
G01*
X118712500Y99650000D01*
G75*
G02*
X118962500Y99400000I0J-250000D01*
G01*
X118962500Y97700000D01*
G75*
G02*
X118712500Y97450000I-250000J0D01*
G01*
G37*
G04 #@! TD*
D13*
G04 #@! TO.C,U5*
X115400000Y7950000D03*
X115400000Y9450000D03*
X115400000Y10950000D03*
X115400000Y12450000D03*
X115400000Y13950000D03*
X115400000Y15450000D03*
X115400000Y16950000D03*
X115400000Y18450000D03*
X115400000Y19950000D03*
X115400000Y21450000D03*
X115400000Y22950000D03*
X115400000Y24450000D03*
X115400000Y25950000D03*
X102700000Y25950000D03*
X102700000Y24450000D03*
X102700000Y22950000D03*
X102700000Y21450000D03*
X102700000Y19950000D03*
X102700000Y18450000D03*
X102700000Y16950000D03*
X102700000Y15450000D03*
X102700000Y13950000D03*
X102700000Y12450000D03*
X102700000Y10950000D03*
X102700000Y9450000D03*
X102700000Y7950000D03*
G04 #@! TD*
G04 #@! TO.C,R25*
G36*
G01*
X91702500Y96725000D02*
X92482500Y96725000D01*
G75*
G02*
X92552500Y96655000I0J-70000D01*
G01*
X92552500Y96095000D01*
G75*
G02*
X92482500Y96025000I-70000J0D01*
G01*
X91702500Y96025000D01*
G75*
G02*
X91632500Y96095000I0J70000D01*
G01*
X91632500Y96655000D01*
G75*
G02*
X91702500Y96725000I70000J0D01*
G01*
G37*
G36*
G01*
X91702500Y95125000D02*
X92482500Y95125000D01*
G75*
G02*
X92552500Y95055000I0J-70000D01*
G01*
X92552500Y94495000D01*
G75*
G02*
X92482500Y94425000I-70000J0D01*
G01*
X91702500Y94425000D01*
G75*
G02*
X91632500Y94495000I0J70000D01*
G01*
X91632500Y95055000D01*
G75*
G02*
X91702500Y95125000I70000J0D01*
G01*
G37*
G04 #@! TD*
G04 #@! TO.C,L2*
G36*
G01*
X102642977Y35221250D02*
X102642977Y34708750D01*
G75*
G02*
X102424227Y34490000I-218750J0D01*
G01*
X101986727Y34490000D01*
G75*
G02*
X101767977Y34708750I0J218750D01*
G01*
X101767977Y35221250D01*
G75*
G02*
X101986727Y35440000I218750J0D01*
G01*
X102424227Y35440000D01*
G75*
G02*
X102642977Y35221250I0J-218750D01*
G01*
G37*
G36*
G01*
X101067977Y35221250D02*
X101067977Y34708750D01*
G75*
G02*
X100849227Y34490000I-218750J0D01*
G01*
X100411727Y34490000D01*
G75*
G02*
X100192977Y34708750I0J218750D01*
G01*
X100192977Y35221250D01*
G75*
G02*
X100411727Y35440000I218750J0D01*
G01*
X100849227Y35440000D01*
G75*
G02*
X101067977Y35221250I0J-218750D01*
G01*
G37*
G04 #@! TD*
G04 #@! TO.C,R17*
G36*
G01*
X127877500Y96725000D02*
X128657500Y96725000D01*
G75*
G02*
X128727500Y96655000I0J-70000D01*
G01*
X128727500Y96095000D01*
G75*
G02*
X128657500Y96025000I-70000J0D01*
G01*
X127877500Y96025000D01*
G75*
G02*
X127807500Y96095000I0J70000D01*
G01*
X127807500Y96655000D01*
G75*
G02*
X127877500Y96725000I70000J0D01*
G01*
G37*
G36*
G01*
X127877500Y95125000D02*
X128657500Y95125000D01*
G75*
G02*
X128727500Y95055000I0J-70000D01*
G01*
X128727500Y94495000D01*
G75*
G02*
X128657500Y94425000I-70000J0D01*
G01*
X127877500Y94425000D01*
G75*
G02*
X127807500Y94495000I0J70000D01*
G01*
X127807500Y95055000D01*
G75*
G02*
X127877500Y95125000I70000J0D01*
G01*
G37*
G04 #@! TD*
G04 #@! TO.C,R8*
G36*
G01*
X31414814Y12025000D02*
X32194814Y12025000D01*
G75*
G02*
X32264814Y11955000I0J-70000D01*
G01*
X32264814Y11395000D01*
G75*
G02*
X32194814Y11325000I-70000J0D01*
G01*
X31414814Y11325000D01*
G75*
G02*
X31344814Y11395000I0J70000D01*
G01*
X31344814Y11955000D01*
G75*
G02*
X31414814Y12025000I70000J0D01*
G01*
G37*
G36*
G01*
X31414814Y10425000D02*
X32194814Y10425000D01*
G75*
G02*
X32264814Y10355000I0J-70000D01*
G01*
X32264814Y9795000D01*
G75*
G02*
X32194814Y9725000I-70000J0D01*
G01*
X31414814Y9725000D01*
G75*
G02*
X31344814Y9795000I0J70000D01*
G01*
X31344814Y10355000D01*
G75*
G02*
X31414814Y10425000I70000J0D01*
G01*
G37*
G04 #@! TD*
G04 #@! TO.C,R3*
G36*
G01*
X28130000Y74725000D02*
X28910000Y74725000D01*
G75*
G02*
X28980000Y74655000I0J-70000D01*
G01*
X28980000Y74095000D01*
G75*
G02*
X28910000Y74025000I-70000J0D01*
G01*
X28130000Y74025000D01*
G75*
G02*
X28060000Y74095000I0J70000D01*
G01*
X28060000Y74655000D01*
G75*
G02*
X28130000Y74725000I70000J0D01*
G01*
G37*
G36*
G01*
X28130000Y73125000D02*
X28910000Y73125000D01*
G75*
G02*
X28980000Y73055000I0J-70000D01*
G01*
X28980000Y72495000D01*
G75*
G02*
X28910000Y72425000I-70000J0D01*
G01*
X28130000Y72425000D01*
G75*
G02*
X28060000Y72495000I0J70000D01*
G01*
X28060000Y73055000D01*
G75*
G02*
X28130000Y73125000I70000J0D01*
G01*
G37*
G04 #@! TD*
G04 #@! TO.C,R15*
G36*
G01*
X13882500Y96610000D02*
X13882500Y97390000D01*
G75*
G02*
X13952500Y97460000I70000J0D01*
G01*
X14512500Y97460000D01*
G75*
G02*
X14582500Y97390000I0J-70000D01*
G01*
X14582500Y96610000D01*
G75*
G02*
X14512500Y96540000I-70000J0D01*
G01*
X13952500Y96540000D01*
G75*
G02*
X13882500Y96610000I0J70000D01*
G01*
G37*
G36*
G01*
X15482500Y96610000D02*
X15482500Y97390000D01*
G75*
G02*
X15552500Y97460000I70000J0D01*
G01*
X16112500Y97460000D01*
G75*
G02*
X16182500Y97390000I0J-70000D01*
G01*
X16182500Y96610000D01*
G75*
G02*
X16112500Y96540000I-70000J0D01*
G01*
X15552500Y96540000D01*
G75*
G02*
X15482500Y96610000I0J70000D01*
G01*
G37*
G04 #@! TD*
G04 #@! TO.C,R35*
G36*
G01*
X92600001Y70725000D02*
X92600001Y69475000D01*
G75*
G02*
X92500001Y69375000I-100000J0D01*
G01*
X91700001Y69375000D01*
G75*
G02*
X91600001Y69475000I0J100000D01*
G01*
X91600001Y70725000D01*
G75*
G02*
X91700001Y70825000I100000J0D01*
G01*
X92500001Y70825000D01*
G75*
G02*
X92600001Y70725000I0J-100000D01*
G01*
G37*
G36*
G01*
X90699979Y70725000D02*
X90699979Y69475000D01*
G75*
G02*
X90599979Y69375000I-100000J0D01*
G01*
X89799979Y69375000D01*
G75*
G02*
X89699979Y69475000I0J100000D01*
G01*
X89699979Y70725000D01*
G75*
G02*
X89799979Y70825000I100000J0D01*
G01*
X90599979Y70825000D01*
G75*
G02*
X90699979Y70725000I0J-100000D01*
G01*
G37*
G04 #@! TD*
G04 #@! TO.C,R13*
G36*
G01*
X24857500Y97394144D02*
X24857500Y96614144D01*
G75*
G02*
X24787500Y96544144I-70000J0D01*
G01*
X24227500Y96544144D01*
G75*
G02*
X24157500Y96614144I0J70000D01*
G01*
X24157500Y97394144D01*
G75*
G02*
X24227500Y97464144I70000J0D01*
G01*
X24787500Y97464144D01*
G75*
G02*
X24857500Y97394144I0J-70000D01*
G01*
G37*
G36*
G01*
X23257500Y97394144D02*
X23257500Y96614144D01*
G75*
G02*
X23187500Y96544144I-70000J0D01*
G01*
X22627500Y96544144D01*
G75*
G02*
X22557500Y96614144I0J70000D01*
G01*
X22557500Y97394144D01*
G75*
G02*
X22627500Y97464144I70000J0D01*
G01*
X23187500Y97464144D01*
G75*
G02*
X23257500Y97394144I0J-70000D01*
G01*
G37*
G04 #@! TD*
G04 #@! TO.C,F1*
G36*
G01*
X20340010Y67225000D02*
X21030010Y67225000D01*
G75*
G02*
X21260010Y66995000I0J-230000D01*
G01*
X21260010Y65655000D01*
G75*
G02*
X21030010Y65425000I-230000J0D01*
G01*
X20340010Y65425000D01*
G75*
G02*
X20110010Y65655000I0J230000D01*
G01*
X20110010Y66995000D01*
G75*
G02*
X20340010Y67225000I230000J0D01*
G01*
G37*
G36*
G01*
X17439990Y67225000D02*
X18129990Y67225000D01*
G75*
G02*
X18359990Y66995000I0J-230000D01*
G01*
X18359990Y65655000D01*
G75*
G02*
X18129990Y65425000I-230000J0D01*
G01*
X17439990Y65425000D01*
G75*
G02*
X17209990Y65655000I0J230000D01*
G01*
X17209990Y66995000D01*
G75*
G02*
X17439990Y67225000I230000J0D01*
G01*
G37*
G04 #@! TD*
G04 #@! TO.C,R4*
G36*
G01*
X83075001Y25050000D02*
X83075001Y23800000D01*
G75*
G02*
X82975001Y23700000I-100000J0D01*
G01*
X82175001Y23700000D01*
G75*
G02*
X82075001Y23800000I0J100000D01*
G01*
X82075001Y25050000D01*
G75*
G02*
X82175001Y25150000I100000J0D01*
G01*
X82975001Y25150000D01*
G75*
G02*
X83075001Y25050000I0J-100000D01*
G01*
G37*
G36*
G01*
X81174979Y25050000D02*
X81174979Y23800000D01*
G75*
G02*
X81074979Y23700000I-100000J0D01*
G01*
X80274979Y23700000D01*
G75*
G02*
X80174979Y23800000I0J100000D01*
G01*
X80174979Y25050000D01*
G75*
G02*
X80274979Y25150000I100000J0D01*
G01*
X81074979Y25150000D01*
G75*
G02*
X81174979Y25050000I0J-100000D01*
G01*
G37*
G04 #@! TD*
G04 #@! TO.C,R11*
G36*
G01*
X30757500Y97394144D02*
X30757500Y96614144D01*
G75*
G02*
X30687500Y96544144I-70000J0D01*
G01*
X30127500Y96544144D01*
G75*
G02*
X30057500Y96614144I0J70000D01*
G01*
X30057500Y97394144D01*
G75*
G02*
X30127500Y97464144I70000J0D01*
G01*
X30687500Y97464144D01*
G75*
G02*
X30757500Y97394144I0J-70000D01*
G01*
G37*
G36*
G01*
X29157500Y97394144D02*
X29157500Y96614144D01*
G75*
G02*
X29087500Y96544144I-70000J0D01*
G01*
X28527500Y96544144D01*
G75*
G02*
X28457500Y96614144I0J70000D01*
G01*
X28457500Y97394144D01*
G75*
G02*
X28527500Y97464144I70000J0D01*
G01*
X29087500Y97464144D01*
G75*
G02*
X29157500Y97394144I0J-70000D01*
G01*
G37*
G04 #@! TD*
G04 #@! TO.C,R38*
G36*
G01*
X89150001Y70725000D02*
X89150001Y69475000D01*
G75*
G02*
X89050001Y69375000I-100000J0D01*
G01*
X88250001Y69375000D01*
G75*
G02*
X88150001Y69475000I0J100000D01*
G01*
X88150001Y70725000D01*
G75*
G02*
X88250001Y70825000I100000J0D01*
G01*
X89050001Y70825000D01*
G75*
G02*
X89150001Y70725000I0J-100000D01*
G01*
G37*
G36*
G01*
X87249979Y70725000D02*
X87249979Y69475000D01*
G75*
G02*
X87149979Y69375000I-100000J0D01*
G01*
X86349979Y69375000D01*
G75*
G02*
X86249979Y69475000I0J100000D01*
G01*
X86249979Y70725000D01*
G75*
G02*
X86349979Y70825000I100000J0D01*
G01*
X87149979Y70825000D01*
G75*
G02*
X87249979Y70725000I0J-100000D01*
G01*
G37*
G04 #@! TD*
G04 #@! TO.C,R36*
G36*
G01*
X92600001Y73225000D02*
X92600001Y71975000D01*
G75*
G02*
X92500001Y71875000I-100000J0D01*
G01*
X91700001Y71875000D01*
G75*
G02*
X91600001Y71975000I0J100000D01*
G01*
X91600001Y73225000D01*
G75*
G02*
X91700001Y73325000I100000J0D01*
G01*
X92500001Y73325000D01*
G75*
G02*
X92600001Y73225000I0J-100000D01*
G01*
G37*
G36*
G01*
X90699979Y73225000D02*
X90699979Y71975000D01*
G75*
G02*
X90599979Y71875000I-100000J0D01*
G01*
X89799979Y71875000D01*
G75*
G02*
X89699979Y71975000I0J100000D01*
G01*
X89699979Y73225000D01*
G75*
G02*
X89799979Y73325000I100000J0D01*
G01*
X90599979Y73325000D01*
G75*
G02*
X90699979Y73225000I0J-100000D01*
G01*
G37*
G04 #@! TD*
G04 #@! TO.C,F5*
G36*
G01*
X124850000Y92881250D02*
X124850000Y92368750D01*
G75*
G02*
X124631250Y92150000I-218750J0D01*
G01*
X124193750Y92150000D01*
G75*
G02*
X123975000Y92368750I0J218750D01*
G01*
X123975000Y92881250D01*
G75*
G02*
X124193750Y93100000I218750J0D01*
G01*
X124631250Y93100000D01*
G75*
G02*
X124850000Y92881250I0J-218750D01*
G01*
G37*
G36*
G01*
X123275000Y92881250D02*
X123275000Y92368750D01*
G75*
G02*
X123056250Y92150000I-218750J0D01*
G01*
X122618750Y92150000D01*
G75*
G02*
X122400000Y92368750I0J218750D01*
G01*
X122400000Y92881250D01*
G75*
G02*
X122618750Y93100000I218750J0D01*
G01*
X123056250Y93100000D01*
G75*
G02*
X123275000Y92881250I0J-218750D01*
G01*
G37*
G04 #@! TD*
D14*
G04 #@! TO.C,U1*
X23605000Y82600000D03*
X22145000Y82600000D03*
X20685000Y82600000D03*
X19225000Y82600000D03*
X17765000Y82600000D03*
X23605000Y80350000D03*
X22145000Y80350000D03*
X20685000Y80350000D03*
X19225000Y80350000D03*
X17765000Y80350000D03*
D15*
X23185000Y86275000D03*
X22185000Y86275000D03*
X21185000Y86275000D03*
X20185000Y86275000D03*
X19185000Y86275000D03*
X18185000Y86275000D03*
X18185000Y76675000D03*
X19185000Y76675000D03*
X20185000Y76675000D03*
X21185000Y76675000D03*
X22185000Y76675000D03*
X23185000Y76675000D03*
G04 #@! TD*
D14*
G04 #@! TO.C,U2*
X13770000Y72300000D03*
X12310000Y72300000D03*
X10850000Y72300000D03*
X9390000Y72300000D03*
X7930000Y72300000D03*
X13770000Y70050000D03*
X12310000Y70050000D03*
X10850000Y70050000D03*
X9390000Y70050000D03*
X7930000Y70050000D03*
D15*
X13350000Y75975000D03*
X12350000Y75975000D03*
X11350000Y75975000D03*
X10350000Y75975000D03*
X9350000Y75975000D03*
X8350000Y75975000D03*
X8350000Y66375000D03*
X9350000Y66375000D03*
X10350000Y66375000D03*
X11350000Y66375000D03*
X12350000Y66375000D03*
X13350000Y66375000D03*
G04 #@! TD*
G04 #@! TO.C,R32*
G36*
G01*
X75305000Y98360856D02*
X75305000Y97580856D01*
G75*
G02*
X75235000Y97510856I-70000J0D01*
G01*
X74675000Y97510856D01*
G75*
G02*
X74605000Y97580856I0J70000D01*
G01*
X74605000Y98360856D01*
G75*
G02*
X74675000Y98430856I70000J0D01*
G01*
X75235000Y98430856D01*
G75*
G02*
X75305000Y98360856I0J-70000D01*
G01*
G37*
G36*
G01*
X73705000Y98360856D02*
X73705000Y97580856D01*
G75*
G02*
X73635000Y97510856I-70000J0D01*
G01*
X73075000Y97510856D01*
G75*
G02*
X73005000Y97580856I0J70000D01*
G01*
X73005000Y98360856D01*
G75*
G02*
X73075000Y98430856I70000J0D01*
G01*
X73635000Y98430856D01*
G75*
G02*
X73705000Y98360856I0J-70000D01*
G01*
G37*
G04 #@! TD*
G04 #@! TO.C,C28*
G36*
G01*
X99357977Y33049999D02*
X98677977Y33049999D01*
G75*
G02*
X98592977Y33134999I0J85000D01*
G01*
X98592977Y33814999D01*
G75*
G02*
X98677977Y33899999I85000J0D01*
G01*
X99357977Y33899999D01*
G75*
G02*
X99442977Y33814999I0J-85000D01*
G01*
X99442977Y33134999D01*
G75*
G02*
X99357977Y33049999I-85000J0D01*
G01*
G37*
G36*
G01*
X99357977Y34630001D02*
X98677977Y34630001D01*
G75*
G02*
X98592977Y34715001I0J85000D01*
G01*
X98592977Y35395001D01*
G75*
G02*
X98677977Y35480001I85000J0D01*
G01*
X99357977Y35480001D01*
G75*
G02*
X99442977Y35395001I0J-85000D01*
G01*
X99442977Y34715001D01*
G75*
G02*
X99357977Y34630001I-85000J0D01*
G01*
G37*
G04 #@! TD*
G04 #@! TO.C,U6*
G36*
G01*
X14477500Y98575000D02*
X14177500Y98575000D01*
G75*
G02*
X14027500Y98725000I0J150000D01*
G01*
X14027500Y100375000D01*
G75*
G02*
X14177500Y100525000I150000J0D01*
G01*
X14477500Y100525000D01*
G75*
G02*
X14627500Y100375000I0J-150000D01*
G01*
X14627500Y98725000D01*
G75*
G02*
X14477500Y98575000I-150000J0D01*
G01*
G37*
G36*
G01*
X15747500Y98575000D02*
X15447500Y98575000D01*
G75*
G02*
X15297500Y98725000I0J150000D01*
G01*
X15297500Y100375000D01*
G75*
G02*
X15447500Y100525000I150000J0D01*
G01*
X15747500Y100525000D01*
G75*
G02*
X15897500Y100375000I0J-150000D01*
G01*
X15897500Y98725000D01*
G75*
G02*
X15747500Y98575000I-150000J0D01*
G01*
G37*
G36*
G01*
X17017500Y98575000D02*
X16717500Y98575000D01*
G75*
G02*
X16567500Y98725000I0J150000D01*
G01*
X16567500Y100375000D01*
G75*
G02*
X16717500Y100525000I150000J0D01*
G01*
X17017500Y100525000D01*
G75*
G02*
X17167500Y100375000I0J-150000D01*
G01*
X17167500Y98725000D01*
G75*
G02*
X17017500Y98575000I-150000J0D01*
G01*
G37*
G36*
G01*
X18287500Y98575000D02*
X17987500Y98575000D01*
G75*
G02*
X17837500Y98725000I0J150000D01*
G01*
X17837500Y100375000D01*
G75*
G02*
X17987500Y100525000I150000J0D01*
G01*
X18287500Y100525000D01*
G75*
G02*
X18437500Y100375000I0J-150000D01*
G01*
X18437500Y98725000D01*
G75*
G02*
X18287500Y98575000I-150000J0D01*
G01*
G37*
G36*
G01*
X18287500Y103525000D02*
X17987500Y103525000D01*
G75*
G02*
X17837500Y103675000I0J150000D01*
G01*
X17837500Y105325000D01*
G75*
G02*
X17987500Y105475000I150000J0D01*
G01*
X18287500Y105475000D01*
G75*
G02*
X18437500Y105325000I0J-150000D01*
G01*
X18437500Y103675000D01*
G75*
G02*
X18287500Y103525000I-150000J0D01*
G01*
G37*
G36*
G01*
X17017500Y103525000D02*
X16717500Y103525000D01*
G75*
G02*
X16567500Y103675000I0J150000D01*
G01*
X16567500Y105325000D01*
G75*
G02*
X16717500Y105475000I150000J0D01*
G01*
X17017500Y105475000D01*
G75*
G02*
X17167500Y105325000I0J-150000D01*
G01*
X17167500Y103675000D01*
G75*
G02*
X17017500Y103525000I-150000J0D01*
G01*
G37*
G36*
G01*
X15747500Y103525000D02*
X15447500Y103525000D01*
G75*
G02*
X15297500Y103675000I0J150000D01*
G01*
X15297500Y105325000D01*
G75*
G02*
X15447500Y105475000I150000J0D01*
G01*
X15747500Y105475000D01*
G75*
G02*
X15897500Y105325000I0J-150000D01*
G01*
X15897500Y103675000D01*
G75*
G02*
X15747500Y103525000I-150000J0D01*
G01*
G37*
G36*
G01*
X14477500Y103525000D02*
X14177500Y103525000D01*
G75*
G02*
X14027500Y103675000I0J150000D01*
G01*
X14027500Y105325000D01*
G75*
G02*
X14177500Y105475000I150000J0D01*
G01*
X14477500Y105475000D01*
G75*
G02*
X14627500Y105325000I0J-150000D01*
G01*
X14627500Y103675000D01*
G75*
G02*
X14477500Y103525000I-150000J0D01*
G01*
G37*
G04 #@! TD*
G04 #@! TO.C,R29*
G36*
G01*
X60775000Y97576712D02*
X60775000Y98356712D01*
G75*
G02*
X60845000Y98426712I70000J0D01*
G01*
X61405000Y98426712D01*
G75*
G02*
X61475000Y98356712I0J-70000D01*
G01*
X61475000Y97576712D01*
G75*
G02*
X61405000Y97506712I-70000J0D01*
G01*
X60845000Y97506712D01*
G75*
G02*
X60775000Y97576712I0J70000D01*
G01*
G37*
G36*
G01*
X62375000Y97576712D02*
X62375000Y98356712D01*
G75*
G02*
X62445000Y98426712I70000J0D01*
G01*
X63005000Y98426712D01*
G75*
G02*
X63075000Y98356712I0J-70000D01*
G01*
X63075000Y97576712D01*
G75*
G02*
X63005000Y97506712I-70000J0D01*
G01*
X62445000Y97506712D01*
G75*
G02*
X62375000Y97576712I0J70000D01*
G01*
G37*
G04 #@! TD*
G04 #@! TO.C,R18*
G36*
G01*
X120627500Y96725000D02*
X121407500Y96725000D01*
G75*
G02*
X121477500Y96655000I0J-70000D01*
G01*
X121477500Y96095000D01*
G75*
G02*
X121407500Y96025000I-70000J0D01*
G01*
X120627500Y96025000D01*
G75*
G02*
X120557500Y96095000I0J70000D01*
G01*
X120557500Y96655000D01*
G75*
G02*
X120627500Y96725000I70000J0D01*
G01*
G37*
G36*
G01*
X120627500Y95125000D02*
X121407500Y95125000D01*
G75*
G02*
X121477500Y95055000I0J-70000D01*
G01*
X121477500Y94495000D01*
G75*
G02*
X121407500Y94425000I-70000J0D01*
G01*
X120627500Y94425000D01*
G75*
G02*
X120557500Y94495000I0J70000D01*
G01*
X120557500Y95055000D01*
G75*
G02*
X120627500Y95125000I70000J0D01*
G01*
G37*
G04 #@! TD*
G04 #@! TO.C,L1*
G36*
G01*
X102642977Y37221250D02*
X102642977Y36708750D01*
G75*
G02*
X102424227Y36490000I-218750J0D01*
G01*
X101986727Y36490000D01*
G75*
G02*
X101767977Y36708750I0J218750D01*
G01*
X101767977Y37221250D01*
G75*
G02*
X101986727Y37440000I218750J0D01*
G01*
X102424227Y37440000D01*
G75*
G02*
X102642977Y37221250I0J-218750D01*
G01*
G37*
G36*
G01*
X101067977Y37221250D02*
X101067977Y36708750D01*
G75*
G02*
X100849227Y36490000I-218750J0D01*
G01*
X100411727Y36490000D01*
G75*
G02*
X100192977Y36708750I0J218750D01*
G01*
X100192977Y37221250D01*
G75*
G02*
X100411727Y37440000I218750J0D01*
G01*
X100849227Y37440000D01*
G75*
G02*
X101067977Y37221250I0J-218750D01*
G01*
G37*
G04 #@! TD*
G04 #@! TO.C,Q11*
G36*
G01*
X99692500Y97450000D02*
X98992500Y97450000D01*
G75*
G02*
X98742500Y97700000I0J250000D01*
G01*
X98742500Y99400000D01*
G75*
G02*
X98992500Y99650000I250000J0D01*
G01*
X99692500Y99650000D01*
G75*
G02*
X99942500Y99400000I0J-250000D01*
G01*
X99942500Y97700000D01*
G75*
G02*
X99692500Y97450000I-250000J0D01*
G01*
G37*
G36*
G01*
X101222500Y101650000D02*
X98972500Y101650000D01*
G75*
G02*
X98722500Y101900000I0J250000D01*
G01*
X98722500Y104450000D01*
G75*
G02*
X98972500Y104700000I250000J0D01*
G01*
X101222500Y104700000D01*
G75*
G02*
X101472500Y104450000I0J-250000D01*
G01*
X101472500Y101900000D01*
G75*
G02*
X101222500Y101650000I-250000J0D01*
G01*
G37*
G36*
G01*
X104272500Y101650000D02*
X102022500Y101650000D01*
G75*
G02*
X101772500Y101900000I0J250000D01*
G01*
X101772500Y104450000D01*
G75*
G02*
X102022500Y104700000I250000J0D01*
G01*
X104272500Y104700000D01*
G75*
G02*
X104522500Y104450000I0J-250000D01*
G01*
X104522500Y101900000D01*
G75*
G02*
X104272500Y101650000I-250000J0D01*
G01*
G37*
G36*
G01*
X101222500Y105000000D02*
X98972500Y105000000D01*
G75*
G02*
X98722500Y105250000I0J250000D01*
G01*
X98722500Y107800000D01*
G75*
G02*
X98972500Y108050000I250000J0D01*
G01*
X101222500Y108050000D01*
G75*
G02*
X101472500Y107800000I0J-250000D01*
G01*
X101472500Y105250000D01*
G75*
G02*
X101222500Y105000000I-250000J0D01*
G01*
G37*
G36*
G01*
X104272500Y105000000D02*
X102022500Y105000000D01*
G75*
G02*
X101772500Y105250000I0J250000D01*
G01*
X101772500Y107800000D01*
G75*
G02*
X102022500Y108050000I250000J0D01*
G01*
X104272500Y108050000D01*
G75*
G02*
X104522500Y107800000I0J-250000D01*
G01*
X104522500Y105250000D01*
G75*
G02*
X104272500Y105000000I-250000J0D01*
G01*
G37*
G36*
G01*
X104252500Y97450000D02*
X103552500Y97450000D01*
G75*
G02*
X103302500Y97700000I0J250000D01*
G01*
X103302500Y99400000D01*
G75*
G02*
X103552500Y99650000I250000J0D01*
G01*
X104252500Y99650000D01*
G75*
G02*
X104502500Y99400000I0J-250000D01*
G01*
X104502500Y97700000D01*
G75*
G02*
X104252500Y97450000I-250000J0D01*
G01*
G37*
G04 #@! TD*
D16*
G04 #@! TO.C,J9*
X27080000Y7590000D03*
X27880000Y7590000D03*
X29180000Y7590000D03*
X30180000Y7590000D03*
X30680000Y7590000D03*
X31680000Y7590000D03*
X32980000Y7590000D03*
X33780000Y7590000D03*
X33480000Y7590000D03*
X32680000Y7590000D03*
X32180000Y7590000D03*
X31180000Y7590000D03*
X29680000Y7590000D03*
X28680000Y7590000D03*
X28180000Y7590000D03*
X27380000Y7590000D03*
G04 #@! TD*
G04 #@! TO.C,F2*
G36*
G01*
X23325000Y69430010D02*
X23325000Y70120010D01*
G75*
G02*
X23555000Y70350010I230000J0D01*
G01*
X24895000Y70350010D01*
G75*
G02*
X25125000Y70120010I0J-230000D01*
G01*
X25125000Y69430010D01*
G75*
G02*
X24895000Y69200010I-230000J0D01*
G01*
X23555000Y69200010D01*
G75*
G02*
X23325000Y69430010I0J230000D01*
G01*
G37*
G36*
G01*
X23325000Y66529990D02*
X23325000Y67219990D01*
G75*
G02*
X23555000Y67449990I230000J0D01*
G01*
X24895000Y67449990D01*
G75*
G02*
X25125000Y67219990I0J-230000D01*
G01*
X25125000Y66529990D01*
G75*
G02*
X24895000Y66299990I-230000J0D01*
G01*
X23555000Y66299990D01*
G75*
G02*
X23325000Y66529990I0J230000D01*
G01*
G37*
G04 #@! TD*
G04 #@! TO.C,R12*
G36*
G01*
X22107500Y97394144D02*
X22107500Y96614144D01*
G75*
G02*
X22037500Y96544144I-70000J0D01*
G01*
X21477500Y96544144D01*
G75*
G02*
X21407500Y96614144I0J70000D01*
G01*
X21407500Y97394144D01*
G75*
G02*
X21477500Y97464144I70000J0D01*
G01*
X22037500Y97464144D01*
G75*
G02*
X22107500Y97394144I0J-70000D01*
G01*
G37*
G36*
G01*
X20507500Y97394144D02*
X20507500Y96614144D01*
G75*
G02*
X20437500Y96544144I-70000J0D01*
G01*
X19877500Y96544144D01*
G75*
G02*
X19807500Y96614144I0J70000D01*
G01*
X19807500Y97394144D01*
G75*
G02*
X19877500Y97464144I70000J0D01*
G01*
X20437500Y97464144D01*
G75*
G02*
X20507500Y97394144I0J-70000D01*
G01*
G37*
G04 #@! TD*
G04 #@! TO.C,R2*
G36*
G01*
X28130000Y71725000D02*
X28910000Y71725000D01*
G75*
G02*
X28980000Y71655000I0J-70000D01*
G01*
X28980000Y71095000D01*
G75*
G02*
X28910000Y71025000I-70000J0D01*
G01*
X28130000Y71025000D01*
G75*
G02*
X28060000Y71095000I0J70000D01*
G01*
X28060000Y71655000D01*
G75*
G02*
X28130000Y71725000I70000J0D01*
G01*
G37*
G36*
G01*
X28130000Y70125000D02*
X28910000Y70125000D01*
G75*
G02*
X28980000Y70055000I0J-70000D01*
G01*
X28980000Y69495000D01*
G75*
G02*
X28910000Y69425000I-70000J0D01*
G01*
X28130000Y69425000D01*
G75*
G02*
X28060000Y69495000I0J70000D01*
G01*
X28060000Y70055000D01*
G75*
G02*
X28130000Y70125000I70000J0D01*
G01*
G37*
G04 #@! TD*
G04 #@! TO.C,R14*
G36*
G01*
X11980000Y64250000D02*
X12760000Y64250000D01*
G75*
G02*
X12830000Y64180000I0J-70000D01*
G01*
X12830000Y63620000D01*
G75*
G02*
X12760000Y63550000I-70000J0D01*
G01*
X11980000Y63550000D01*
G75*
G02*
X11910000Y63620000I0J70000D01*
G01*
X11910000Y64180000D01*
G75*
G02*
X11980000Y64250000I70000J0D01*
G01*
G37*
G36*
G01*
X11980000Y62650000D02*
X12760000Y62650000D01*
G75*
G02*
X12830000Y62580000I0J-70000D01*
G01*
X12830000Y62020000D01*
G75*
G02*
X12760000Y61950000I-70000J0D01*
G01*
X11980000Y61950000D01*
G75*
G02*
X11910000Y62020000I0J70000D01*
G01*
X11910000Y62580000D01*
G75*
G02*
X11980000Y62650000I70000J0D01*
G01*
G37*
G04 #@! TD*
D17*
G04 #@! TO.C,U3*
X32485500Y33967000D03*
X22643000Y33967000D03*
X22643000Y35237000D03*
X22643000Y36507000D03*
X22643000Y37777000D03*
X32485500Y37777000D03*
X32485500Y36507000D03*
X32485500Y35237000D03*
G04 #@! TD*
G04 #@! TO.C,C12*
G36*
G01*
X17179999Y88660000D02*
X17179999Y89340000D01*
G75*
G02*
X17264999Y89425000I85000J0D01*
G01*
X17944999Y89425000D01*
G75*
G02*
X18029999Y89340000I0J-85000D01*
G01*
X18029999Y88660000D01*
G75*
G02*
X17944999Y88575000I-85000J0D01*
G01*
X17264999Y88575000D01*
G75*
G02*
X17179999Y88660000I0J85000D01*
G01*
G37*
G36*
G01*
X18760001Y88660000D02*
X18760001Y89340000D01*
G75*
G02*
X18845001Y89425000I85000J0D01*
G01*
X19525001Y89425000D01*
G75*
G02*
X19610001Y89340000I0J-85000D01*
G01*
X19610001Y88660000D01*
G75*
G02*
X19525001Y88575000I-85000J0D01*
G01*
X18845001Y88575000D01*
G75*
G02*
X18760001Y88660000I0J85000D01*
G01*
G37*
G04 #@! TD*
G04 #@! TO.C,U8*
G36*
G01*
X20415000Y98575000D02*
X20115000Y98575000D01*
G75*
G02*
X19965000Y98725000I0J150000D01*
G01*
X19965000Y100375000D01*
G75*
G02*
X20115000Y100525000I150000J0D01*
G01*
X20415000Y100525000D01*
G75*
G02*
X20565000Y100375000I0J-150000D01*
G01*
X20565000Y98725000D01*
G75*
G02*
X20415000Y98575000I-150000J0D01*
G01*
G37*
G36*
G01*
X21685000Y98575000D02*
X21385000Y98575000D01*
G75*
G02*
X21235000Y98725000I0J150000D01*
G01*
X21235000Y100375000D01*
G75*
G02*
X21385000Y100525000I150000J0D01*
G01*
X21685000Y100525000D01*
G75*
G02*
X21835000Y100375000I0J-150000D01*
G01*
X21835000Y98725000D01*
G75*
G02*
X21685000Y98575000I-150000J0D01*
G01*
G37*
G36*
G01*
X22955000Y98575000D02*
X22655000Y98575000D01*
G75*
G02*
X22505000Y98725000I0J150000D01*
G01*
X22505000Y100375000D01*
G75*
G02*
X22655000Y100525000I150000J0D01*
G01*
X22955000Y100525000D01*
G75*
G02*
X23105000Y100375000I0J-150000D01*
G01*
X23105000Y98725000D01*
G75*
G02*
X22955000Y98575000I-150000J0D01*
G01*
G37*
G36*
G01*
X24225000Y98575000D02*
X23925000Y98575000D01*
G75*
G02*
X23775000Y98725000I0J150000D01*
G01*
X23775000Y100375000D01*
G75*
G02*
X23925000Y100525000I150000J0D01*
G01*
X24225000Y100525000D01*
G75*
G02*
X24375000Y100375000I0J-150000D01*
G01*
X24375000Y98725000D01*
G75*
G02*
X24225000Y98575000I-150000J0D01*
G01*
G37*
G36*
G01*
X24225000Y103525000D02*
X23925000Y103525000D01*
G75*
G02*
X23775000Y103675000I0J150000D01*
G01*
X23775000Y105325000D01*
G75*
G02*
X23925000Y105475000I150000J0D01*
G01*
X24225000Y105475000D01*
G75*
G02*
X24375000Y105325000I0J-150000D01*
G01*
X24375000Y103675000D01*
G75*
G02*
X24225000Y103525000I-150000J0D01*
G01*
G37*
G36*
G01*
X22955000Y103525000D02*
X22655000Y103525000D01*
G75*
G02*
X22505000Y103675000I0J150000D01*
G01*
X22505000Y105325000D01*
G75*
G02*
X22655000Y105475000I150000J0D01*
G01*
X22955000Y105475000D01*
G75*
G02*
X23105000Y105325000I0J-150000D01*
G01*
X23105000Y103675000D01*
G75*
G02*
X22955000Y103525000I-150000J0D01*
G01*
G37*
G36*
G01*
X21685000Y103525000D02*
X21385000Y103525000D01*
G75*
G02*
X21235000Y103675000I0J150000D01*
G01*
X21235000Y105325000D01*
G75*
G02*
X21385000Y105475000I150000J0D01*
G01*
X21685000Y105475000D01*
G75*
G02*
X21835000Y105325000I0J-150000D01*
G01*
X21835000Y103675000D01*
G75*
G02*
X21685000Y103525000I-150000J0D01*
G01*
G37*
G36*
G01*
X20415000Y103525000D02*
X20115000Y103525000D01*
G75*
G02*
X19965000Y103675000I0J150000D01*
G01*
X19965000Y105325000D01*
G75*
G02*
X20115000Y105475000I150000J0D01*
G01*
X20415000Y105475000D01*
G75*
G02*
X20565000Y105325000I0J-150000D01*
G01*
X20565000Y103675000D01*
G75*
G02*
X20415000Y103525000I-150000J0D01*
G01*
G37*
G04 #@! TD*
M02*
