M48
; DRILL file {KiCad 8.0.2-8.0.2-0~ubuntu22.04.1} date 2024-05-24T14:32:54+0000
; FORMAT={2:4/ absolute / inch / suppress leading zeros}
; #@! TF.CreationDate,2024-05-24T14:32:54+00:00
; #@! TF.GenerationSoftware,Kicad,Pcbnew,8.0.2-8.0.2-0~ubuntu22.04.1
; #@! TF.FileFunction,MixedPlating,1,4
FMAT,2
INCH,TZ
; #@! TA.AperFunction,Plated,PTH,ComponentDrill
T1C0.0118
; #@! TA.AperFunction,Plated,PTH,ViaDrill
T2C0.0118
; #@! TA.AperFunction,Plated,PTH,ComponentDrill
T3C0.0118
; #@! TA.AperFunction,Plated,PTH,ViaDrill
T4C0.0138
; #@! TA.AperFunction,Plated,PTH,ViaDrill
T5C0.0157
; #@! TA.AperFunction,Plated,PTH,ViaDrill
T6C0.0236
; #@! TA.AperFunction,Plated,PTH,ComponentDrill
T7C0.0236
; #@! TA.AperFunction,Plated,PTH,ComponentDrill
T8C0.0256
; #@! TA.AperFunction,Plated,PTH,ComponentDrill
T9C0.0276
; #@! TA.AperFunction,Plated,PTH,ViaDrill
T10C0.0315
; #@! TA.AperFunction,Plated,PTH,ComponentDrill
T11C0.0320
; #@! TA.AperFunction,Plated,PTH,ComponentDrill
T12C0.0335
; #@! TA.AperFunction,Plated,PTH,ViaDrill
T13C0.0394
; #@! TA.AperFunction,Plated,PTH,ComponentDrill
T14C0.0394
; #@! TA.AperFunction,Plated,PTH,ComponentDrill
T15C0.0472
; #@! TA.AperFunction,Plated,PTH,ComponentDrill
T16C0.0709
; #@! TA.AperFunction,Plated,PTH,ComponentDrill
T17C0.1200
; #@! TA.AperFunction,Plated,PTH,ComponentDrill
T18C0.1693
; #@! TA.AperFunction,NonPlated,NPTH,ComponentDrill
T19C0.0256
; #@! TA.AperFunction,NonPlated,NPTH,ComponentDrill
T20C0.0591
; #@! TA.AperFunction,NonPlated,NPTH,ComponentDrill
T21C0.1181
; #@! TA.AperFunction,NonPlated,NPTH,ComponentDrill
T22C0.1890
%
G90
G05
T1
X10769Y19852
X11113Y19646
X11202Y21545
X11231Y20148
T2
X6339Y37195
X6687Y37431
X7937Y37441
X9026Y37441
X10267Y37441
X10621Y23907
X11192Y23868
X11342Y37441
X14282Y21959
X14666Y33287
X14715Y17400
X14715Y17116
X14735Y16594
X14774Y23865
X17934Y30364
X18032Y9035
X18298Y12825
X18308Y12441
X18347Y8888
X18682Y8799
X20372Y10959
X20822Y10687
X22127Y9478
X22412Y9537
X23059Y11187
X23459Y8487
X23598Y1373
X23959Y8487
X24041Y1373
X24435Y1373
X25016Y9582
X25759Y9419
X26044Y9587
X26459Y11087
X26659Y8487
X26959Y11087
X28059Y8487
X30059Y11087
X30559Y11087
X31059Y11087
X35207Y29163
X35207Y28179
X35207Y27205
X36305Y41950
X36305Y41650
X36305Y41351
X36305Y41051
X36305Y40752
X36305Y40452
X36305Y40153
X36305Y39853
X36737Y41950
X36737Y41650
X36737Y41351
X36737Y41051
X36737Y40752
X36737Y40452
X36737Y40153
X36737Y39853
X37169Y41950
X37169Y41650
X37169Y41351
X37169Y41051
X37169Y40752
X37169Y40452
X37169Y40153
X37169Y39853
X37601Y41950
X37601Y41650
X37601Y41351
X37601Y41051
X37601Y40752
X37601Y40452
X37601Y40153
X37601Y39853
X38033Y41950
X38033Y41650
X38033Y41351
X38033Y41051
X38033Y40752
X38033Y40452
X38033Y40153
X38033Y39853
X39140Y41959
X39140Y41660
X39140Y41360
X39140Y41061
X39140Y40761
X39140Y40462
X39140Y40162
X39140Y39863
X39572Y41959
X39572Y41660
X39572Y41360
X39572Y41061
X39572Y40761
X39572Y40462
X39572Y40162
X39572Y39863
X40004Y41959
X40004Y41660
X40004Y41360
X40004Y41061
X40004Y40761
X40004Y40462
X40004Y40162
X40004Y39863
X40436Y41959
X40436Y41660
X40436Y41360
X40436Y41061
X40436Y40761
X40436Y40462
X40436Y40162
X40436Y39863
X40868Y41959
X40868Y41660
X40868Y41360
X40868Y41061
X40868Y40761
X40868Y40462
X40868Y40162
X40868Y39863
X41983Y41946
X41983Y41646
X41983Y41347
X41983Y41047
X41983Y40747
X41983Y40448
X41983Y40148
X41983Y39849
X42415Y41946
X42415Y41646
X42415Y41347
X42415Y41047
X42415Y40747
X42415Y40448
X42415Y40148
X42415Y39849
X42847Y41946
X42847Y41646
X42847Y41347
X42847Y41047
X42847Y40747
X42847Y40448
X42847Y40148
X42847Y39849
X43280Y41946
X43280Y41646
X43280Y41347
X43280Y41047
X43280Y40747
X43280Y40448
X43280Y40148
X43280Y39849
X43712Y41946
X43712Y41646
X43712Y41347
X43712Y41047
X43712Y40747
X43712Y40448
X43712Y40148
X43712Y39849
X44864Y41944
X44864Y41644
X44864Y41345
X44864Y41045
X44864Y40746
X44864Y40446
X44864Y40146
X44864Y39847
X45296Y41944
X45296Y41644
X45296Y41345
X45296Y41045
X45296Y40746
X45296Y40446
X45296Y40146
X45296Y39847
X45728Y41944
X45728Y41644
X45728Y41345
X45728Y41045
X45728Y40746
X45728Y40446
X45728Y40146
X45728Y39847
X46160Y41944
X46160Y41644
X46160Y41345
X46160Y41045
X46160Y40746
X46160Y40446
X46160Y40146
X46160Y39847
X46593Y41944
X46593Y41644
X46593Y41345
X46593Y41045
X46593Y40746
X46593Y40446
X46593Y40146
X46593Y39847
X47691Y41900
X47691Y41601
X47691Y41301
X47691Y41002
X47691Y40702
X47691Y40403
X47691Y40103
X47691Y39804
X48123Y41900
X48123Y41601
X48123Y41301
X48123Y41002
X48123Y40702
X48123Y40403
X48123Y40103
X48123Y39804
X48555Y41900
X48555Y41601
X48555Y41301
X48555Y41002
X48555Y40702
X48555Y40403
X48555Y40103
X48555Y39804
X48987Y41900
X48987Y41601
X48987Y41301
X48987Y41002
X48987Y40702
X48987Y40403
X48987Y40103
X48987Y39804
X49419Y41900
X49419Y41601
X49419Y41301
X49419Y41002
X49419Y40702
X49419Y40403
X49419Y40103
X49419Y39804
X50545Y41893
X50545Y41593
X50545Y41293
X50545Y40994
X50545Y40694
X50545Y40395
X50545Y40095
X50545Y39796
X50977Y41893
X50977Y41593
X50977Y41293
X50977Y40994
X50977Y40694
X50977Y40395
X50977Y40095
X50977Y39796
X51409Y41893
X51409Y41593
X51409Y41293
X51409Y40994
X51409Y40694
X51409Y40395
X51409Y40095
X51409Y39796
X51842Y41893
X51842Y41593
X51842Y41293
X51842Y40994
X51842Y40694
X51842Y40395
X51842Y40095
X51842Y39796
X52274Y41893
X52274Y41593
X52274Y41293
X52274Y40994
X52274Y40694
X52274Y40395
X52274Y40095
X52274Y39796
T3
X14580Y40468
X14973Y40468
X16099Y34788
X16572Y34788
X17044Y34788
X17517Y34788
X18957Y21102
X18957Y20787
X18957Y20472
X18957Y20157
X18957Y19843
X18957Y19528
X18957Y19213
X18957Y18898
X18957Y18583
X18957Y18268
X18957Y17953
X18957Y17638
X18957Y17323
X18957Y17008
X18957Y16378
X18957Y15827
X18957Y15512
X18957Y15197
X18957Y14882
X18957Y14567
X18957Y14252
X18957Y22795
X18957Y16693
X19115Y11417
X19141Y40482
X19430Y11417
X19534Y40482
X19745Y11417
X20060Y11417
X20375Y11417
X20660Y34803
X20690Y11417
X21005Y11417
X21133Y34803
X21320Y11417
X21556Y25354
X21605Y34803
X21635Y11417
X21950Y11417
X22028Y25354
X22078Y34803
X22265Y11417
X22501Y25354
X22580Y11417
X22973Y25354
X23446Y25354
X23524Y11417
X23839Y11417
X23918Y25354
X24154Y11417
X24391Y25354
X24469Y11417
X24784Y11417
X24863Y25354
X25099Y11417
X25335Y25354
X25414Y11417
X25729Y11417
X25808Y25354
X26044Y11417
X26280Y25354
X26753Y25354
X27225Y25354
X27698Y25354
X27737Y11417
X28170Y25354
X28436Y8199
X28643Y25354
X28800Y11417
X28830Y8199
X29115Y25354
X29194Y11417
X29587Y25354
X30060Y25354
X30532Y25354
X31005Y25354
X31950Y25354
X32107Y24370
X32107Y23976
X32107Y19764
X32107Y19370
X32107Y18976
X32107Y18583
X32107Y18189
X32107Y17795
X32107Y17402
X32107Y17008
X32107Y15984
X32107Y15669
X32107Y13819
X32107Y13268
X32107Y11417
X39066Y26841
X39440Y26841
X39459Y30266
X39814Y30266
X39814Y26841
X47461Y17392
X47855Y17392
X48249Y17392
X48643Y17392
X49569Y27861
X49969Y27861
X50867Y27861
X51261Y27861
X51654Y27861
T4
X845Y3354
X845Y2925
X845Y2496
X965Y41469
X965Y41039
X965Y40610
X965Y37394
X965Y36965
X965Y36535
X965Y34195
X965Y33766
X965Y33337
X1288Y3354
X1288Y2925
X1288Y2496
X1408Y41469
X1408Y41039
X1408Y40610
X1408Y37394
X1408Y36965
X1408Y36535
X1408Y34195
X1408Y33766
X1408Y33337
X1684Y11695
X1684Y11266
X1684Y10837
X2127Y11695
X2127Y11266
X2127Y10837
X2154Y16299
X2154Y15856
X2206Y31230
X2206Y30728
X2206Y30226
X2206Y29724
X2206Y29222
X2206Y28720
X2206Y28219
X2206Y27717
X2206Y27215
X2206Y26713
X2206Y26211
X2456Y1961
X2456Y1531
X2456Y1102
X2583Y16299
X2583Y15856
X2735Y23691
X2735Y23248
X2757Y25837
X2898Y1961
X2898Y1531
X2898Y1102
X3013Y16299
X3013Y15856
X3164Y23691
X3164Y23248
X3593Y23691
X3593Y23248
X3769Y9675
X3769Y9232
X3938Y24439
X3948Y24911
X4083Y30039
X4198Y9675
X4198Y9232
X4204Y40917
X4204Y40488
X4204Y40059
X4211Y30295
X4253Y39402
X4253Y38972
X4253Y38543
X4627Y9675
X4627Y9232
X4666Y41132
X4666Y40703
X4666Y40274
X4715Y39616
X4715Y39187
X4715Y38758
X4861Y30197
X4871Y23622
X5833Y40000
X5847Y36663
X6048Y39537
X6113Y34016
X6221Y32657
X6221Y32224
X6221Y31791
X6221Y30945
X6221Y30531
X6263Y40000
X6330Y34646
X6477Y39537
X6605Y36663
X6692Y40000
X6906Y39537
X7087Y24685
X7439Y24026
X7619Y36663
X7791Y24685
X7971Y34094
X8060Y34350
X8143Y24026
X8160Y40000
X8375Y39537
X8424Y35994
X8424Y35551
X8495Y24685
X8589Y40000
X8672Y36663
X8729Y34134
X8804Y39537
X8853Y35994
X8853Y35551
X9019Y40000
X9233Y39537
X9272Y36663
X9282Y35994
X9282Y35551
X9341Y34656
X9666Y32815
X9666Y30581
X9893Y34626
X10265Y28406
X10385Y40000
X10591Y32431
X10591Y31998
X10591Y31565
X10591Y31132
X10599Y39537
X10814Y40000
X10956Y36663
X11028Y39537
X11108Y22761
X11108Y22318
X11243Y40000
X11457Y39537
X11517Y8797
X11517Y8354
X11537Y22761
X11537Y22318
X11851Y42569
X11891Y26557
X11891Y26128
X11891Y25699
X11946Y8797
X11946Y8354
X11967Y22761
X11967Y22318
X12333Y26557
X12333Y26128
X12333Y25699
X12375Y8797
X12375Y8354
X12491Y36663
X12540Y28770
X12570Y31811
X12589Y29646
X13055Y6999
X13055Y6570
X13055Y6141
X13357Y38278
X13377Y39675
X13377Y37215
X13498Y6999
X13498Y6570
X13498Y6141
X13957Y42628
X14115Y29606
X14330Y29144
X14544Y29606
X14656Y34114
X14759Y29144
X14973Y29606
X15188Y29144
X15828Y33406
X15847Y42677
X19007Y34252
X19381Y33110
X19595Y32648
X19810Y33110
X19991Y34232
X20024Y32648
X20239Y33110
X20454Y32648
X20826Y5630
X20826Y5201
X20826Y4772
X21044Y34222
X21269Y5630
X21269Y5201
X21269Y4772
X23080Y47461
X23080Y47018
X23089Y46339
X23089Y45896
X23509Y47461
X23509Y47018
X23519Y46339
X23519Y45896
X23938Y47461
X23938Y47018
X23948Y46339
X23948Y45896
X24898Y40217
X25113Y39754
X25328Y40217
X25542Y39754
X25608Y1333
X25717Y46447
X25717Y46004
X25737Y47451
X25737Y47008
X25769Y40217
X25916Y39754
X26037Y1333
X26146Y46447
X26146Y46004
X26166Y47451
X26166Y47008
X26467Y1333
X26576Y46447
X26576Y46004
X26595Y47451
X26595Y47008
X27045Y1318
X27474Y1318
X27629Y40187
X27904Y1318
X27904Y39724
X27983Y33248
X27983Y32819
X27983Y32390
X28062Y40197
X28080Y47451
X28080Y47008
X28276Y39734
X28426Y33248
X28426Y32819
X28426Y32390
X28491Y40197
X28509Y47451
X28509Y47008
X28706Y39734
X28938Y47451
X28938Y47008
X31404Y40177
X31619Y39715
X31713Y6982
X31713Y6539
X31723Y36437
X31723Y36008
X31723Y35579
X31833Y40177
X31851Y33563
X31851Y33134
X31851Y32705
X32048Y39715
X32143Y6982
X32143Y6539
X32166Y36437
X32166Y36008
X32166Y35579
X32231Y3520
X32231Y3091
X32231Y2661
X32274Y40177
X32294Y33563
X32294Y33134
X32294Y32705
X32422Y39715
X32572Y6982
X32572Y6539
X32674Y3520
X32674Y3091
X32674Y2661
X33613Y39833
X33623Y38770
X33633Y40827
X33828Y39370
X33837Y38307
X33847Y40364
X34042Y39833
X34046Y36457
X34046Y36028
X34046Y35598
X34052Y38770
X34062Y40827
X34257Y39370
X34267Y38307
X34276Y40364
X34404Y23429
X34404Y23000
X34404Y22571
X34471Y39833
X34481Y38770
X34489Y36457
X34489Y36028
X34489Y35598
X34491Y40827
X34686Y39370
X34696Y38307
X34706Y40364
X34847Y23429
X34847Y23000
X34847Y22571
X35383Y11594
X35383Y11152
X35432Y17067
X35432Y16624
X35812Y11594
X35812Y11152
X35861Y17067
X35861Y16624
X36241Y11594
X36241Y11152
X36290Y17067
X36290Y16624
X36810Y35089
X36997Y25531
X36997Y25089
X37117Y30581
X37117Y30152
X37117Y29722
X37239Y35089
X37426Y25531
X37426Y25089
X37560Y30581
X37560Y30152
X37560Y29722
X37668Y35089
X37717Y19461
X37717Y19031
X37717Y18602
X37855Y25531
X37855Y25089
X38160Y19461
X38160Y19031
X38160Y18602
X38623Y8760
X38623Y8317
X38669Y1920
X38669Y1491
X38669Y1062
X38839Y11768
X38839Y11325
X39052Y8760
X39052Y8317
X39112Y1920
X39112Y1491
X39112Y1062
X39269Y11768
X39269Y11325
X39481Y8760
X39481Y8317
X39698Y11768
X39698Y11325
X40196Y35502
X40625Y35502
X41054Y35502
X41585Y18492
X41585Y18063
X41585Y17634
X42028Y18492
X42028Y18063
X42028Y17634
X42952Y35551
X43259Y14709
X43259Y14280
X43259Y13850
X43381Y35551
X43702Y14709
X43702Y14280
X43702Y13850
X43820Y35719
X45156Y34085
X45156Y33642
X45451Y35566
X45585Y34085
X45585Y33642
X45880Y35566
X45952Y27425
X45952Y26996
X45952Y26567
X46011Y19189
X46011Y18760
X46011Y18331
X46013Y30266
X46013Y29823
X46015Y34085
X46015Y33642
X46309Y35566
X46394Y27425
X46394Y26996
X46394Y26567
X46442Y30266
X46442Y29823
X46454Y19189
X46454Y18760
X46454Y18331
X46871Y30266
X46871Y29823
X47133Y8307
X47133Y7878
X47133Y7449
X47576Y8307
X47576Y7878
X47576Y7449
X48995Y35531
X49233Y1545
X49233Y1102
X49424Y35531
X49662Y1545
X49662Y1102
X49853Y35531
X50091Y1545
X50091Y1102
X51554Y35522
X51623Y13728
X51623Y13285
X51983Y35522
X52052Y13728
X52052Y13285
X52107Y32736
X52107Y32307
X52107Y31878
X52412Y35522
X52481Y13728
X52481Y13285
X52550Y32736
X52550Y32307
X52550Y31878
T5
X13741Y19528
X14022Y14849
X14204Y19843
X16615Y14252
X17855Y28140
X18352Y11019
X19450Y26545
X20316Y26683
X21411Y1184
X27737Y9498
X33062Y13839
X33062Y13406
X33081Y14843
X33997Y8474
X34154Y29990
X35778Y15010
X36261Y29793
X41635Y14104
X42235Y14478
X44758Y10019
T6
X37063Y38833
X37063Y38404
X37063Y37975
X37506Y38833
X37506Y38404
X37506Y37975
X39923Y38837
X39923Y38408
X39923Y37979
X40366Y38837
X40366Y38408
X40366Y37979
X42447Y38418
X42447Y37975
X42876Y38418
X42876Y37975
X43305Y38418
X43305Y37975
X45593Y38837
X45593Y38408
X45593Y37979
X46035Y38837
X46035Y38408
X46035Y37979
X48427Y38833
X48427Y38404
X48427Y37975
X48870Y38833
X48870Y38404
X48870Y37975
X51289Y38841
X51289Y38412
X51289Y37983
X51732Y38841
X51732Y38412
X51732Y37983
T7
X503Y6299
X532Y6892
X532Y5707
X780Y7449
X780Y5150
X1202Y7796
X1202Y4803
X1772Y7933
X1772Y4665
X2343Y7796
X2343Y4803
X2765Y7449
X2765Y5150
X3013Y6892
X3013Y5707
X3042Y6299
X50109Y6299
X50138Y6892
X50138Y5707
X50386Y7449
X50386Y5150
X50808Y7796
X50808Y4803
X51379Y7933
X51379Y4665
X51950Y7796
X51950Y4803
X52371Y7449
X52371Y5150
X52619Y6892
X52619Y5707
X52648Y6299
T8
X25896Y32654
X25896Y32154
X25896Y31654
X37027Y37195
X37527Y37195
X38027Y37195
X39929Y37195
X40429Y37195
X40929Y37195
X42773Y37195
X43273Y37195
X43773Y37195
X45622Y37195
X46122Y37195
X46622Y37195
X48472Y37195
X48972Y37195
X49472Y37195
X51307Y37195
X51807Y37195
X52307Y37195
T9
X18268Y2546
X18268Y1916
X18957Y2861
X18957Y2231
X18957Y1601
T10
X3288Y24970
X5798Y31378
T11
X6609Y27451
X6609Y26585
X6609Y25719
X8344Y17239
X8538Y27451
X8538Y26585
X8538Y25719
X9344Y17239
X9538Y27470
X9538Y25541
X10344Y17239
X11344Y17239
X12344Y17239
X13344Y17239
X31387Y9222
X32887Y9222
T12
X15764Y5558
X15764Y4574
X15764Y3589
X15764Y2605
X15764Y1621
T13
X20217Y9183
T14
X4373Y6843
X4373Y5843
X4373Y4843
X4377Y3663
X4377Y2663
X4377Y1663
X4792Y31722
X5373Y6843
X5373Y5843
X5373Y4843
X5377Y3663
X5377Y2663
X5377Y1663
X5885Y24459
X6167Y19545
X6373Y6843
X6373Y5843
X6373Y4843
X6377Y3663
X6377Y2663
X6377Y1663
X7309Y19545
X7373Y6843
X7373Y5843
X7373Y4843
X7377Y3663
X7377Y2663
X7377Y1663
X8373Y6843
X8373Y5843
X8373Y4843
X8377Y3663
X8377Y2663
X8377Y1663
X10491Y33583
X10855Y29793
X19324Y7851
X19333Y6502
X22353Y1919
X22530Y8022
X23081Y1919
X25030Y1919
X25050Y8022
X25798Y8022
X27491Y8022
X29774Y1919
X29952Y8022
X46487Y4262
X46487Y3051
X50877Y34321
X50877Y33321
X50877Y32321
X50877Y31321
X50877Y30321
X50877Y29321
T15
X4598Y46063
X4598Y44094
X5910Y46063
X5910Y44094
X7223Y46063
X7223Y44094
X8535Y46063
X8535Y44094
X9847Y46063
X9847Y44094
X11160Y46063
X11160Y44094
X12472Y46063
X12472Y44094
X13784Y46063
X13784Y44094
X15097Y46063
X15097Y44094
X16409Y46063
X16409Y44094
X17721Y46063
X17721Y44094
X19034Y46063
X19034Y44094
X20346Y46063
X20346Y44094
X21658Y46063
X21658Y44094
X31496Y46063
X31496Y44094
X32808Y46063
X32808Y44094
X34120Y46063
X34120Y44094
X35433Y46063
X35433Y44094
X36745Y46063
X36745Y44094
X38057Y46063
X38057Y44094
X39370Y46063
X39370Y44094
X40682Y46063
X40682Y44094
X41994Y46063
X41994Y44094
X43307Y46063
X43307Y44094
X44619Y46063
X44619Y44094
X45931Y46063
X45931Y44094
X47244Y46063
X47244Y44094
X48556Y46063
X48556Y44094
T16
X47009Y15138
X47009Y13484
X47009Y11831
X49174Y15138
X49174Y13484
X49174Y11831
T17
X6344Y12239
X15344Y12239
T19
X10587Y2812
X12862Y2812
T20
X36497Y6270
X36497Y3317
T21
X52048Y15138
X52048Y11831
T22
X1694Y45669
X51457Y45669
T7
X10024Y3225G85X10024Y2792
G05
X10024Y1481G85X10024Y1245
G05
X13425Y3225G85X13425Y2792
G05
X13425Y1481G85X13425Y1245
G05
T9
X18356Y3668G85X18868Y3668
G05
X18356Y794G85X18868Y794
G05
T18
X1772Y5925G85X1772Y6673
G05
X51379Y5925G85X51379Y6673
G05
M30
