M48
; DRILL file {KiCad 8.0.2-8.0.2-0~ubuntu22.04.1} date 2024-05-08T22:41:20+0000
; FORMAT={2:4/ absolute / inch / suppress leading zeros}
; #@! TF.CreationDate,2024-05-08T22:41:20+00:00
; #@! TF.GenerationSoftware,Kicad,Pcbnew,8.0.2-8.0.2-0~ubuntu22.04.1
; #@! TF.FileFunction,MixedPlating,1,4
FMAT,2
INCH,TZ
; #@! TA.AperFunction,Plated,PTH,ComponentDrill
T1C0.0118
; #@! TA.AperFunction,Plated,PTH,ViaDrill
T2C0.0118
; #@! TA.AperFunction,Plated,PTH,ComponentDrill
T3C0.0118
; #@! TA.AperFunction,Plated,PTH,ViaDrill
T4C0.0138
; #@! TA.AperFunction,Plated,PTH,ViaDrill
T5C0.0157
; #@! TA.AperFunction,Plated,PTH,ComponentDrill
T6C0.0197
; #@! TA.AperFunction,Plated,PTH,ComponentDrill
T7C0.0236
; #@! TA.AperFunction,Plated,PTH,ComponentDrill
T8C0.0256
; #@! TA.AperFunction,Plated,PTH,ComponentDrill
T9C0.0276
; #@! TA.AperFunction,Plated,PTH,ViaDrill
T10C0.0315
; #@! TA.AperFunction,Plated,PTH,ComponentDrill
T11C0.0320
; #@! TA.AperFunction,Plated,PTH,ComponentDrill
T12C0.0335
; #@! TA.AperFunction,Plated,PTH,ViaDrill
T13C0.0394
; #@! TA.AperFunction,Plated,PTH,ComponentDrill
T14C0.0394
; #@! TA.AperFunction,Plated,PTH,ComponentDrill
T15C0.0472
; #@! TA.AperFunction,Plated,PTH,ComponentDrill
T16C0.0709
; #@! TA.AperFunction,Plated,PTH,ComponentDrill
T17C0.1200
; #@! TA.AperFunction,Plated,PTH,ComponentDrill
T18C0.1260
; #@! TA.AperFunction,NonPlated,NPTH,ComponentDrill
T19C0.0256
; #@! TA.AperFunction,NonPlated,NPTH,ComponentDrill
T20C0.0591
; #@! TA.AperFunction,NonPlated,NPTH,ComponentDrill
T21C0.1181
; #@! TA.AperFunction,NonPlated,NPTH,ComponentDrill
T22C0.1890
%
G90
G05
T1
X11161Y26939
X11506Y26732
X11594Y28632
X11624Y27234
T2
X6732Y44281
X7080Y44518
X8330Y44528
X9419Y44528
X10659Y44528
X11014Y30994
X11585Y30955
X11735Y44528
X14675Y29045
X15059Y40374
X15089Y24774
X15108Y24203
X15128Y23681
X18327Y37451
X18691Y19911
X18701Y19528
X20541Y8159
X20945Y9469
X21299Y10059
X23396Y5846
X23839Y5846
X23996Y14222
X24232Y5846
X24547Y14232
X25089Y14242
X35600Y36250
X35600Y35266
X35600Y34291
X38150Y47303
X43868Y47343
X46713Y47323
X49547Y47333
X52392Y47303
T3
X14972Y47554
X15366Y47554
X16492Y41875
X16965Y41875
X17437Y41875
X17909Y41875
X19350Y28189
X19350Y27874
X19350Y27559
X19350Y27244
X19350Y26929
X19350Y26614
X19350Y26299
X19350Y25984
X19350Y25669
X19350Y25354
X19350Y25039
X19350Y24724
X19350Y24409
X19350Y24094
X19350Y23465
X19350Y22913
X19350Y22598
X19350Y22283
X19350Y21969
X19350Y21654
X19350Y21339
X19350Y29882
X19350Y23780
X19508Y18504
X19533Y47569
X19823Y18504
X19927Y47569
X20138Y18504
X20453Y18504
X20768Y18504
X21053Y41890
X21083Y18504
X21398Y18504
X21526Y41890
X21713Y18504
X21949Y32441
X21998Y41890
X22028Y18504
X22343Y18504
X22421Y32441
X22470Y41890
X22657Y18504
X22894Y32441
X22972Y18504
X23366Y32441
X23839Y32441
X23917Y18504
X24232Y18504
X24311Y32441
X24547Y18504
X24783Y32441
X24862Y18504
X25177Y18504
X25256Y32441
X25492Y18504
X25728Y32441
X25807Y18504
X26122Y18504
X26201Y32441
X26437Y18504
X26673Y32441
X27146Y32441
X27618Y32441
X28091Y32441
X28130Y18504
X28219Y12874
X28563Y32441
X28612Y12874
X29035Y32441
X29193Y18504
X29508Y32441
X29587Y18504
X29980Y32441
X30453Y32441
X30925Y32441
X31398Y32441
X32343Y32441
X32500Y31457
X32500Y31063
X32500Y26850
X32500Y26457
X32500Y26063
X32500Y25669
X32500Y25276
X32500Y24882
X32500Y24488
X32500Y24094
X32500Y23071
X32500Y22756
X32500Y20906
X32500Y20354
X32500Y18504
X39459Y33927
X39833Y33927
X39852Y37352
X40207Y37352
X40207Y33927
X47854Y24478
X48248Y24478
X48642Y24478
X49035Y24478
X49962Y34947
X50362Y34947
X51260Y34947
X51654Y34947
X52047Y34947
T4
X1358Y48555
X1358Y48126
X1358Y47697
X1358Y44480
X1358Y44051
X1358Y43622
X1358Y41281
X1358Y40852
X1358Y40423
X1801Y48555
X1801Y48126
X1801Y47697
X1801Y44480
X1801Y44051
X1801Y43622
X1801Y41281
X1801Y40852
X1801Y40423
X2598Y38317
X2598Y37815
X2598Y37313
X2598Y36811
X2598Y36309
X2598Y35807
X2598Y35305
X2598Y34803
X2598Y34301
X2598Y33799
X2598Y33297
X3128Y30778
X3128Y30335
X3150Y32923
X3557Y30778
X3557Y30335
X3986Y30778
X3986Y30335
X4331Y31526
X4341Y31998
X4476Y37126
X4596Y48004
X4596Y47575
X4596Y47146
X4604Y37382
X4646Y46488
X4646Y46059
X4646Y45630
X5059Y48219
X5059Y47789
X5059Y47360
X5108Y46703
X5108Y46274
X5108Y45844
X5254Y37283
X5264Y30709
X6226Y47087
X6240Y43750
X6441Y46624
X6506Y41102
X6614Y39744
X6614Y39311
X6614Y38878
X6614Y38031
X6614Y37618
X6656Y47087
X6722Y41732
X6870Y46624
X6998Y43750
X7085Y47087
X7299Y46624
X7480Y31772
X7832Y31112
X8012Y43750
X8184Y31772
X8364Y41181
X8453Y41437
X8536Y31112
X8553Y47087
X8748Y12608
X8748Y12165
X8768Y46624
X8817Y43081
X8817Y42638
X8888Y31772
X8982Y47087
X9065Y43750
X9122Y41220
X9177Y12608
X9177Y12165
X9197Y46624
X9246Y43081
X9246Y42638
X9411Y47087
X9606Y12608
X9606Y12165
X9626Y46624
X9665Y43750
X9675Y43081
X9675Y42638
X9734Y41742
X10059Y39902
X10059Y37667
X10285Y41713
X10657Y35492
X10778Y47087
X10984Y39518
X10984Y39085
X10984Y38652
X10984Y38219
X10992Y46624
X11207Y47087
X11211Y2974
X11211Y2545
X11211Y2116
X11348Y43750
X11421Y46624
X11636Y47087
X11654Y2974
X11654Y2545
X11654Y2116
X11850Y46624
X12096Y30681
X12096Y30252
X12096Y29823
X12244Y49656
X12283Y33644
X12283Y33215
X12283Y32785
X12539Y30681
X12539Y30252
X12539Y29823
X12726Y33644
X12726Y33215
X12726Y32785
X12884Y43750
X12933Y35856
X12963Y38898
X12982Y36732
X13118Y16102
X13118Y15659
X13547Y16102
X13547Y15659
X13750Y45364
X13770Y46762
X13770Y44301
X13976Y16102
X13976Y15659
X14350Y49715
X14409Y11705
X14409Y11276
X14409Y10846
X14508Y36693
X14722Y36230
X14852Y11705
X14852Y11276
X14852Y10846
X14937Y36693
X15049Y41201
X15152Y36230
X15215Y7264
X15215Y6821
X15366Y36693
X15581Y36230
X15644Y7264
X15644Y6821
X16073Y7264
X16073Y6821
X16220Y40492
X16240Y49764
X19400Y41339
X19774Y40197
X19988Y39734
X20203Y40197
X20384Y41319
X20417Y39734
X20632Y40197
X20738Y13366
X20738Y12937
X20738Y12508
X20846Y39734
X21181Y13366
X21181Y12937
X21181Y12508
X21437Y41309
X23472Y54547
X23472Y54104
X23482Y53425
X23482Y52982
X23902Y54547
X23902Y54104
X23911Y53425
X23911Y52982
X24331Y54547
X24331Y54104
X24341Y53425
X24341Y52982
X24636Y2846
X24636Y2417
X24636Y1988
X25079Y2846
X25079Y2417
X25079Y1988
X25291Y47303
X25506Y46841
X25720Y47303
X25935Y46841
X26110Y53533
X26110Y53091
X26130Y54537
X26130Y54094
X26161Y47303
X26309Y46841
X26539Y53533
X26539Y53091
X26559Y54537
X26559Y54094
X26593Y5758
X26593Y5315
X26969Y53533
X26969Y53091
X26988Y54537
X26988Y54094
X27022Y5758
X27022Y5315
X27451Y5758
X27451Y5315
X28022Y47274
X28297Y46811
X28376Y40335
X28376Y39906
X28376Y39476
X28455Y47283
X28472Y54537
X28472Y54094
X28669Y46821
X28819Y40335
X28819Y39906
X28819Y39476
X28884Y47283
X28902Y54537
X28902Y54094
X29098Y46821
X29331Y54537
X29331Y54094
X30018Y14675
X30018Y14232
X30447Y14675
X30447Y14232
X30837Y10217
X30837Y9787
X30837Y9358
X30876Y14675
X30876Y14232
X30906Y6762
X30906Y6333
X30906Y5904
X31280Y10217
X31280Y9787
X31280Y9358
X31348Y6762
X31348Y6333
X31348Y5904
X31797Y47264
X32012Y46801
X32116Y43524
X32116Y43094
X32116Y42665
X32226Y47264
X32244Y40650
X32244Y40220
X32244Y39791
X32441Y46801
X32559Y43524
X32559Y43094
X32559Y42665
X32667Y47264
X32687Y40650
X32687Y40220
X32687Y39791
X32815Y46801
X33866Y3829
X33866Y3386
X34006Y46919
X34016Y45856
X34026Y47913
X34220Y46457
X34230Y45394
X34240Y47451
X34295Y3829
X34295Y3386
X34435Y46919
X34439Y43543
X34439Y43114
X34439Y42685
X34445Y45856
X34455Y47913
X34650Y46457
X34659Y45394
X34669Y47451
X34724Y3829
X34724Y3386
X34864Y46919
X34874Y45856
X34882Y43543
X34882Y43114
X34882Y42685
X34884Y47913
X35079Y46457
X35089Y45394
X35098Y47451
X35266Y30219
X35266Y29789
X35266Y29360
X35709Y30219
X35709Y29789
X35709Y29360
X36248Y19016
X36248Y18573
X36677Y19016
X36677Y18573
X37106Y19016
X37106Y18573
X37203Y42175
X37323Y45986
X37323Y45557
X37323Y45128
X37390Y32618
X37390Y32175
X37510Y37667
X37510Y37238
X37510Y36809
X37632Y42175
X37785Y46201
X37785Y45772
X37785Y45343
X37819Y32618
X37819Y32175
X37953Y37667
X37953Y37238
X37953Y36809
X38061Y42175
X38110Y26547
X38110Y26118
X38110Y25689
X38248Y32618
X38248Y32175
X38553Y26547
X38553Y26118
X38553Y25689
X40138Y46075
X40138Y45646
X40138Y45217
X40384Y13289
X40384Y12860
X40384Y12431
X40589Y42589
X40600Y46289
X40600Y45860
X40600Y45431
X40699Y5081
X40699Y4652
X40699Y4222
X40827Y13289
X40827Y12860
X40827Y12431
X41018Y42589
X41142Y5081
X41142Y4652
X41142Y4222
X41447Y42589
X41614Y17384
X41614Y16955
X41614Y16526
X41850Y28949
X41850Y28520
X41850Y28091
X42057Y17384
X42057Y16955
X42057Y16526
X42254Y9057
X42254Y8628
X42254Y8199
X42293Y28949
X42293Y28520
X42293Y28091
X42697Y9057
X42697Y8628
X42697Y8199
X42992Y46035
X42992Y45606
X42992Y45177
X43344Y42638
X43455Y46250
X43455Y45821
X43455Y45392
X43774Y42638
X44213Y42805
X45000Y13909
X45000Y13480
X45000Y13051
X45443Y13909
X45443Y13480
X45443Y13051
X45549Y41171
X45549Y40728
X45787Y25522
X45787Y25093
X45787Y24663
X45797Y28602
X45797Y28173
X45797Y27744
X45856Y46075
X45856Y45646
X45856Y45217
X45978Y41171
X45978Y40728
X46230Y25522
X46230Y25093
X46230Y24663
X46240Y28602
X46240Y28173
X46240Y27744
X46319Y46289
X46319Y45860
X46319Y45431
X46406Y42657
X46406Y37352
X46406Y36909
X46407Y41171
X46407Y40728
X46835Y42657
X46835Y37352
X46835Y36909
X47264Y42657
X47264Y37352
X47264Y36909
X48711Y46026
X48711Y45596
X48711Y45167
X49173Y46240
X49173Y45811
X49173Y45382
X49388Y42618
X49685Y12392
X49685Y11963
X49685Y11533
X49817Y42618
X50128Y12392
X50128Y11963
X50128Y11533
X50246Y42618
X51585Y46045
X51585Y45616
X51585Y45187
X51947Y42608
X51978Y4087
X51978Y3657
X51978Y3228
X52047Y46260
X52047Y45831
X52047Y45402
X52376Y42608
X52421Y4087
X52421Y3657
X52421Y3228
X52500Y39823
X52500Y39394
X52500Y38965
X52805Y42608
X52943Y39823
X52943Y39394
X52943Y38965
T5
X11368Y22087
X11378Y14222
X14134Y26614
X14596Y26929
X16191Y33071
X16949Y18661
X17008Y21339
X18248Y35226
X18799Y10699
X19843Y33632
X20709Y33770
X25630Y14478
X26112Y14488
X27343Y16486
X31415Y15230
X31415Y14797
X31435Y16234
X31781Y12185
X34131Y16402
X34547Y37077
X36654Y36880
X39988Y15496
X40588Y15870
X47539Y9774
T6
X1220Y7874
X1497Y8542
X1497Y7206
X2165Y8819
X2165Y6929
X2833Y8542
X2833Y7206
X3110Y7874
X50827Y7874
X51104Y8542
X51104Y7206
X51772Y8819
X51772Y6929
X52440Y8542
X52440Y7206
X52717Y7874
T8
X26289Y39740
X26289Y39240
X26289Y38740
X37420Y44281
X37920Y44281
X38420Y44281
X40322Y44281
X40822Y44281
X41322Y44281
X43166Y44281
X43666Y44281
X44166Y44281
X46015Y44281
X46515Y44281
X47015Y44281
X48865Y44281
X49365Y44281
X49865Y44281
X51700Y44281
X52200Y44281
X52700Y44281
T9
X21309Y2884
X21309Y2254
X21998Y3199
X21998Y2569
X21998Y1939
T10
X3681Y32057
X6191Y38465
X40581Y48297
X40581Y47746
X41142Y48297
X41142Y47746
T11
X7002Y34537
X7002Y33671
X7002Y32805
X7667Y24867
X8667Y24867
X8931Y34537
X8931Y33671
X8931Y32805
X9667Y24867
X9931Y34557
X9931Y32628
X10667Y24867
X11667Y24867
X12667Y24867
X28888Y15888
X28888Y14388
T12
X18805Y5896
X18805Y4911
X18805Y3927
X18805Y2943
X18805Y1959
T13
X20846Y14222
T14
X1498Y16519
X1498Y15519
X1498Y14519
X1498Y13278
X1498Y12278
X1498Y11278
X2498Y16519
X2498Y15519
X2498Y14519
X2498Y13278
X2498Y12278
X2498Y11278
X3498Y16519
X3498Y15519
X3498Y14519
X3498Y13278
X3498Y12278
X3498Y11278
X4498Y16519
X4498Y15519
X4498Y14519
X4498Y13278
X4498Y12278
X4498Y11278
X5185Y38809
X5498Y16519
X5498Y15519
X5498Y14519
X5498Y13278
X5498Y12278
X5498Y11278
X6278Y31545
X6560Y26631
X7702Y26631
X10884Y40669
X11248Y36880
X20187Y16004
X21535Y16014
X22136Y6594
X22313Y12697
X22864Y6594
X24813Y6594
X24833Y12697
X25581Y12697
X27274Y12697
X29557Y6594
X29734Y12697
X49547Y4803
X49547Y3593
X51270Y41407
X51270Y40407
X51270Y39407
X51270Y38407
X51270Y37407
X51270Y36407
T15
X4991Y53150
X4991Y51181
X6303Y53150
X6303Y51181
X7615Y53150
X7615Y51181
X8928Y53150
X8928Y51181
X10240Y53150
X10240Y51181
X11552Y53150
X11552Y51181
X12865Y53150
X12865Y51181
X14177Y53150
X14177Y51181
X15490Y53150
X15490Y51181
X16802Y53150
X16802Y51181
X18114Y53150
X18114Y51181
X19427Y53150
X19427Y51181
X20739Y53150
X20739Y51181
X22051Y53150
X22051Y51181
X31888Y53150
X31888Y51181
X33201Y53150
X33201Y51181
X34513Y53150
X34513Y51181
X35825Y53150
X35825Y51181
X37138Y53150
X37138Y51181
X38450Y53150
X38450Y51181
X39762Y53150
X39762Y51181
X41075Y53150
X41075Y51181
X42387Y53150
X42387Y51181
X43699Y53150
X43699Y51181
X45012Y53150
X45012Y51181
X46324Y53150
X46324Y51181
X47636Y53150
X47636Y51181
X48949Y53150
X48949Y51181
T16
X47480Y18809
X47480Y17156
X47480Y15502
X49646Y18809
X49646Y17156
X49646Y15502
T17
X5667Y19867
X14667Y19867
T18
X2165Y7874
X51772Y7874
T19
X13628Y3150
X15904Y3150
T20
X34281Y9980
X34281Y7028
T21
X52520Y18809
X52520Y15502
T22
X2087Y52756
X51850Y52756
T7
X13065Y3563G85X13065Y3130
G05
X13065Y1819G85X13065Y1583
G05
X16467Y3563G85X16467Y3130
G05
X16467Y1819G85X16467Y1583
G05
T9
X21398Y4006G85X21909Y4006
G05
X21398Y1132G85X21909Y1132
G05
M30
