G75*
G70*
%OFA0B0*%
%FSLAX25Y25*%
%IPPOS*%
%LPD*%
%AMOC8*
5,1,8,0,0,1.08239X$1,22.5*
%
%AMM101*
21,1,0.035830,0.026770,-0.000000,0.000000,90.000000*
21,1,0.029130,0.033470,-0.000000,0.000000,90.000000*
1,1,0.006690,0.013390,0.014570*
1,1,0.006690,0.013390,-0.014570*
1,1,0.006690,-0.013390,-0.014570*
1,1,0.006690,-0.013390,0.014570*
%
%AMM102*
21,1,0.070870,0.036220,-0.000000,0.000000,180.000000*
21,1,0.061810,0.045280,-0.000000,0.000000,180.000000*
1,1,0.009060,-0.030910,0.018110*
1,1,0.009060,0.030910,0.018110*
1,1,0.009060,0.030910,-0.018110*
1,1,0.009060,-0.030910,-0.018110*
%
%AMM105*
21,1,0.023620,0.018900,-0.000000,0.000000,180.000000*
21,1,0.018900,0.023620,-0.000000,0.000000,180.000000*
1,1,0.004720,-0.009450,0.009450*
1,1,0.004720,0.009450,0.009450*
1,1,0.004720,0.009450,-0.009450*
1,1,0.004720,-0.009450,-0.009450*
%
%AMM106*
21,1,0.019680,0.019680,-0.000000,0.000000,90.000000*
21,1,0.015750,0.023620,-0.000000,0.000000,90.000000*
1,1,0.003940,0.009840,0.007870*
1,1,0.003940,0.009840,-0.007870*
1,1,0.003940,-0.009840,-0.007870*
1,1,0.003940,-0.009840,0.007870*
%
%AMM107*
21,1,0.019680,0.019680,-0.000000,0.000000,0.000000*
21,1,0.015750,0.023620,-0.000000,0.000000,0.000000*
1,1,0.003940,0.007870,-0.009840*
1,1,0.003940,-0.007870,-0.009840*
1,1,0.003940,-0.007870,0.009840*
1,1,0.003940,0.007870,0.009840*
%
%AMM121*
21,1,0.106300,0.050390,-0.000000,0.000000,180.000000*
21,1,0.093700,0.062990,-0.000000,0.000000,180.000000*
1,1,0.012600,-0.046850,0.025200*
1,1,0.012600,0.046850,0.025200*
1,1,0.012600,0.046850,-0.025200*
1,1,0.012600,-0.046850,-0.025200*
%
%AMM122*
21,1,0.033470,0.026770,-0.000000,0.000000,0.000000*
21,1,0.026770,0.033470,-0.000000,0.000000,0.000000*
1,1,0.006690,0.013390,-0.013390*
1,1,0.006690,-0.013390,-0.013390*
1,1,0.006690,-0.013390,0.013390*
1,1,0.006690,0.013390,0.013390*
%
%AMM123*
21,1,0.023620,0.018900,-0.000000,0.000000,270.000000*
21,1,0.018900,0.023620,-0.000000,0.000000,270.000000*
1,1,0.004720,-0.009450,-0.009450*
1,1,0.004720,-0.009450,0.009450*
1,1,0.004720,0.009450,0.009450*
1,1,0.004720,0.009450,-0.009450*
%
%AMM124*
21,1,0.122050,0.075590,-0.000000,0.000000,270.000000*
21,1,0.103150,0.094490,-0.000000,0.000000,270.000000*
1,1,0.018900,-0.037800,-0.051580*
1,1,0.018900,-0.037800,0.051580*
1,1,0.018900,0.037800,0.051580*
1,1,0.018900,0.037800,-0.051580*
%
%AMM125*
21,1,0.118110,0.083460,-0.000000,0.000000,90.000000*
21,1,0.097240,0.104330,-0.000000,0.000000,90.000000*
1,1,0.020870,0.041730,0.048620*
1,1,0.020870,0.041730,-0.048620*
1,1,0.020870,-0.041730,-0.048620*
1,1,0.020870,-0.041730,0.048620*
%
%AMM143*
21,1,0.023620,0.018900,0.000000,-0.000000,90.000000*
21,1,0.018900,0.023620,0.000000,-0.000000,90.000000*
1,1,0.004720,0.009450,0.009450*
1,1,0.004720,0.009450,-0.009450*
1,1,0.004720,-0.009450,-0.009450*
1,1,0.004720,-0.009450,0.009450*
%
%AMM144*
21,1,0.019680,0.019680,0.000000,-0.000000,180.000000*
21,1,0.015750,0.023620,0.000000,-0.000000,180.000000*
1,1,0.003940,-0.007870,0.009840*
1,1,0.003940,0.007870,0.009840*
1,1,0.003940,0.007870,-0.009840*
1,1,0.003940,-0.007870,-0.009840*
%
%AMM145*
21,1,0.033470,0.026770,0.000000,-0.000000,180.000000*
21,1,0.026770,0.033470,0.000000,-0.000000,180.000000*
1,1,0.006690,-0.013390,0.013390*
1,1,0.006690,0.013390,0.013390*
1,1,0.006690,0.013390,-0.013390*
1,1,0.006690,-0.013390,-0.013390*
%
%AMM146*
21,1,0.019680,0.019680,0.000000,-0.000000,270.000000*
21,1,0.015750,0.023620,0.000000,-0.000000,270.000000*
1,1,0.003940,-0.009840,-0.007870*
1,1,0.003940,-0.009840,0.007870*
1,1,0.003940,0.009840,0.007870*
1,1,0.003940,0.009840,-0.007870*
%
%AMM206*
21,1,0.025590,0.026380,-0.000000,-0.000000,90.000000*
21,1,0.020470,0.031500,-0.000000,-0.000000,90.000000*
1,1,0.005120,0.013190,0.010240*
1,1,0.005120,0.013190,-0.010240*
1,1,0.005120,-0.013190,-0.010240*
1,1,0.005120,-0.013190,0.010240*
%
%AMM207*
21,1,0.017720,0.027950,-0.000000,-0.000000,90.000000*
21,1,0.014170,0.031500,-0.000000,-0.000000,90.000000*
1,1,0.003540,0.013980,0.007090*
1,1,0.003540,0.013980,-0.007090*
1,1,0.003540,-0.013980,-0.007090*
1,1,0.003540,-0.013980,0.007090*
%
%AMM210*
21,1,0.027560,0.018900,-0.000000,-0.000000,270.000000*
21,1,0.022840,0.023620,-0.000000,-0.000000,270.000000*
1,1,0.004720,-0.009450,-0.011420*
1,1,0.004720,-0.009450,0.011420*
1,1,0.004720,0.009450,0.011420*
1,1,0.004720,0.009450,-0.011420*
%
%AMM212*
21,1,0.027560,0.018900,-0.000000,-0.000000,0.000000*
21,1,0.022840,0.023620,-0.000000,-0.000000,0.000000*
1,1,0.004720,0.011420,-0.009450*
1,1,0.004720,-0.011420,-0.009450*
1,1,0.004720,-0.011420,0.009450*
1,1,0.004720,0.011420,0.009450*
%
%AMM214*
21,1,0.035430,0.030320,-0.000000,-0.000000,90.000000*
21,1,0.028350,0.037400,-0.000000,-0.000000,90.000000*
1,1,0.007090,0.015160,0.014170*
1,1,0.007090,0.015160,-0.014170*
1,1,0.007090,-0.015160,-0.014170*
1,1,0.007090,-0.015160,0.014170*
%
%AMM217*
21,1,0.027560,0.030710,-0.000000,-0.000000,180.000000*
21,1,0.022050,0.036220,-0.000000,-0.000000,180.000000*
1,1,0.005510,-0.011020,0.015350*
1,1,0.005510,0.011020,0.015350*
1,1,0.005510,0.011020,-0.015350*
1,1,0.005510,-0.011020,-0.015350*
%
%AMM238*
21,1,0.033470,0.026770,-0.000000,-0.000000,270.000000*
21,1,0.026770,0.033470,-0.000000,-0.000000,270.000000*
1,1,0.006690,-0.013390,-0.013390*
1,1,0.006690,-0.013390,0.013390*
1,1,0.006690,0.013390,0.013390*
1,1,0.006690,0.013390,-0.013390*
%
%AMM239*
21,1,0.025590,0.026380,-0.000000,-0.000000,180.000000*
21,1,0.020470,0.031500,-0.000000,-0.000000,180.000000*
1,1,0.005120,-0.010240,0.013190*
1,1,0.005120,0.010240,0.013190*
1,1,0.005120,0.010240,-0.013190*
1,1,0.005120,-0.010240,-0.013190*
%
%AMM240*
21,1,0.017720,0.027950,-0.000000,-0.000000,180.000000*
21,1,0.014170,0.031500,-0.000000,-0.000000,180.000000*
1,1,0.003540,-0.007090,0.013980*
1,1,0.003540,0.007090,0.013980*
1,1,0.003540,0.007090,-0.013980*
1,1,0.003540,-0.007090,-0.013980*
%
%AMM241*
21,1,0.033470,0.026770,-0.000000,-0.000000,180.000000*
21,1,0.026770,0.033470,-0.000000,-0.000000,180.000000*
1,1,0.006690,-0.013390,0.013390*
1,1,0.006690,0.013390,0.013390*
1,1,0.006690,0.013390,-0.013390*
1,1,0.006690,-0.013390,-0.013390*
%
%AMM242*
21,1,0.078740,0.045670,-0.000000,-0.000000,0.000000*
21,1,0.067320,0.057090,-0.000000,-0.000000,0.000000*
1,1,0.011420,0.033660,-0.022840*
1,1,0.011420,-0.033660,-0.022840*
1,1,0.011420,-0.033660,0.022840*
1,1,0.011420,0.033660,0.022840*
%
%AMM243*
21,1,0.059060,0.020470,-0.000000,-0.000000,0.000000*
21,1,0.053940,0.025590,-0.000000,-0.000000,0.000000*
1,1,0.005120,0.026970,-0.010240*
1,1,0.005120,-0.026970,-0.010240*
1,1,0.005120,-0.026970,0.010240*
1,1,0.005120,0.026970,0.010240*
%
%AMM244*
21,1,0.035430,0.030320,-0.000000,-0.000000,0.000000*
21,1,0.028350,0.037400,-0.000000,-0.000000,0.000000*
1,1,0.007090,0.014170,-0.015160*
1,1,0.007090,-0.014170,-0.015160*
1,1,0.007090,-0.014170,0.015160*
1,1,0.007090,0.014170,0.015160*
%
%AMM245*
21,1,0.012600,0.028980,-0.000000,-0.000000,0.000000*
21,1,0.010080,0.031500,-0.000000,-0.000000,0.000000*
1,1,0.002520,0.005040,-0.014490*
1,1,0.002520,-0.005040,-0.014490*
1,1,0.002520,-0.005040,0.014490*
1,1,0.002520,0.005040,0.014490*
%
%AMM246*
21,1,0.070870,0.036220,-0.000000,-0.000000,180.000000*
21,1,0.061810,0.045280,-0.000000,-0.000000,180.000000*
1,1,0.009060,-0.030910,0.018110*
1,1,0.009060,0.030910,0.018110*
1,1,0.009060,0.030910,-0.018110*
1,1,0.009060,-0.030910,-0.018110*
%
%AMM247*
21,1,0.035830,0.026770,-0.000000,-0.000000,180.000000*
21,1,0.029130,0.033470,-0.000000,-0.000000,180.000000*
1,1,0.006690,-0.014570,0.013390*
1,1,0.006690,0.014570,0.013390*
1,1,0.006690,0.014570,-0.013390*
1,1,0.006690,-0.014570,-0.013390*
%
%AMM248*
21,1,0.027560,0.049610,-0.000000,-0.000000,180.000000*
21,1,0.022050,0.055120,-0.000000,-0.000000,180.000000*
1,1,0.005510,-0.011020,0.024800*
1,1,0.005510,0.011020,0.024800*
1,1,0.005510,0.011020,-0.024800*
1,1,0.005510,-0.011020,-0.024800*
%
%AMM249*
21,1,0.070870,0.036220,-0.000000,-0.000000,270.000000*
21,1,0.061810,0.045280,-0.000000,-0.000000,270.000000*
1,1,0.009060,-0.018110,-0.030910*
1,1,0.009060,-0.018110,0.030910*
1,1,0.009060,0.018110,0.030910*
1,1,0.009060,0.018110,-0.030910*
%
%AMM250*
21,1,0.027560,0.030710,-0.000000,-0.000000,270.000000*
21,1,0.022050,0.036220,-0.000000,-0.000000,270.000000*
1,1,0.005510,-0.015350,-0.011020*
1,1,0.005510,-0.015350,0.011020*
1,1,0.005510,0.015350,0.011020*
1,1,0.005510,0.015350,-0.011020*
%
%ADD248R,0.01378X0.01476*%
%ADD251O,0.04961X0.00984*%
%ADD253R,0.09449X0.06693*%
%ADD254R,0.01476X0.01378*%
%ADD256R,0.03937X0.04331*%
%ADD291M101*%
%ADD292M102*%
%ADD295M105*%
%ADD296M106*%
%ADD297M107*%
%ADD312M121*%
%ADD313M122*%
%ADD314M123*%
%ADD315O,0.08661X0.01968*%
%ADD316M124*%
%ADD317M125*%
%ADD336M143*%
%ADD337M144*%
%ADD338M145*%
%ADD339M146*%
%ADD350R,0.01772X0.05709*%
%ADD351R,0.02559X0.04803*%
%ADD427M206*%
%ADD428M207*%
%ADD431M210*%
%ADD433M212*%
%ADD435M214*%
%ADD438M217*%
%ADD459M238*%
%ADD460M239*%
%ADD461M240*%
%ADD462M241*%
%ADD463M242*%
%ADD464M243*%
%ADD465M244*%
%ADD466M245*%
%ADD467M246*%
%ADD468M247*%
%ADD469M248*%
%ADD470M249*%
%ADD471M250*%
%ADD60R,0.00787X0.14567*%
%ADD61R,0.00787X0.01575*%
%ADD62R,0.00787X0.06299*%
%ADD63R,0.00787X0.38189*%
%ADD64R,0.00787X0.09055*%
%ADD65R,0.05512X0.00787*%
%ADD66R,0.25197X0.00787*%
%ADD67R,0.06693X0.00787*%
%ADD68R,0.12992X0.00787*%
%ADD69R,0.00787X0.27559*%
%ADD70R,0.00787X0.12992*%
%ADD71R,0.00787X0.24803*%
X0000000Y0000000D02*
%LPD*%
G01*
G36*
G01*
X0065500Y0302461D02*
X0065500Y0306594D01*
G75*
G02*
X0065894Y0306988I0000394J0000000D01*
G01*
X0069043Y0306988D01*
G75*
G02*
X0069437Y0306594I0000000J-000394D01*
G01*
X0069437Y0302461D01*
G75*
G02*
X0069043Y0302067I-000394J0000000D01*
G01*
X0065894Y0302067D01*
G75*
G02*
X0065500Y0302461I0000000J0000394D01*
G01*
G37*
G36*
G01*
X0073374Y0302461D02*
X0073374Y0306594D01*
G75*
G02*
X0073768Y0306988I0000394J0000000D01*
G01*
X0076917Y0306988D01*
G75*
G02*
X0077311Y0306594I0000000J-000394D01*
G01*
X0077311Y0302461D01*
G75*
G02*
X0076917Y0302067I-000394J0000000D01*
G01*
X0073768Y0302067D01*
G75*
G02*
X0073374Y0302461I0000000J0000394D01*
G01*
G37*
G36*
G01*
X0061071Y0408366D02*
X0057055Y0408366D01*
G75*
G02*
X0056701Y0408720I0000000J0000354D01*
G01*
X0056701Y0411555D01*
G75*
G02*
X0057055Y0411909I0000354J0000000D01*
G01*
X0061071Y0411909D01*
G75*
G02*
X0061425Y0411555I0000000J-000354D01*
G01*
X0061425Y0408720D01*
G75*
G02*
X0061071Y0408366I-000354J0000000D01*
G01*
G37*
G36*
G01*
X0061071Y0421358D02*
X0057055Y0421358D01*
G75*
G02*
X0056701Y0421713I0000000J0000354D01*
G01*
X0056701Y0424547D01*
G75*
G02*
X0057055Y0424902I0000354J0000000D01*
G01*
X0061071Y0424902D01*
G75*
G02*
X0061425Y0424547I0000000J-000354D01*
G01*
X0061425Y0421713D01*
G75*
G02*
X0061071Y0421358I-000354J0000000D01*
G01*
G37*
G36*
G01*
X0065500Y0326083D02*
X0065500Y0330217D01*
G75*
G02*
X0065894Y0330610I0000394J0000000D01*
G01*
X0069043Y0330610D01*
G75*
G02*
X0069437Y0330217I0000000J-000394D01*
G01*
X0069437Y0326083D01*
G75*
G02*
X0069043Y0325689I-000394J0000000D01*
G01*
X0065894Y0325689D01*
G75*
G02*
X0065500Y0326083I0000000J0000394D01*
G01*
G37*
G36*
G01*
X0073374Y0326083D02*
X0073374Y0330217D01*
G75*
G02*
X0073768Y0330610I0000394J0000000D01*
G01*
X0076917Y0330610D01*
G75*
G02*
X0077311Y0330217I0000000J-000394D01*
G01*
X0077311Y0326083D01*
G75*
G02*
X0076917Y0325689I-000394J0000000D01*
G01*
X0073768Y0325689D01*
G75*
G02*
X0073374Y0326083I0000000J0000394D01*
G01*
G37*
G36*
G01*
X0054339Y0274508D02*
X0054339Y0270374D01*
G75*
G02*
X0053945Y0269980I-000394J0000000D01*
G01*
X0050795Y0269980D01*
G75*
G02*
X0050402Y0270374I0000000J0000394D01*
G01*
X0050402Y0274508D01*
G75*
G02*
X0050795Y0274902I0000394J0000000D01*
G01*
X0053945Y0274902D01*
G75*
G02*
X0054339Y0274508I0000000J-000394D01*
G01*
G37*
G36*
G01*
X0046465Y0274508D02*
X0046465Y0270374D01*
G75*
G02*
X0046071Y0269980I-000394J0000000D01*
G01*
X0042921Y0269980D01*
G75*
G02*
X0042528Y0270374I0000000J0000394D01*
G01*
X0042528Y0274508D01*
G75*
G02*
X0042921Y0274902I0000394J0000000D01*
G01*
X0046071Y0274902D01*
G75*
G02*
X0046465Y0274508I0000000J-000394D01*
G01*
G37*
G36*
G01*
X0093059Y0322343D02*
X0093059Y0318209D01*
G75*
G02*
X0092665Y0317815I-000394J0000000D01*
G01*
X0089516Y0317815D01*
G75*
G02*
X0089122Y0318209I0000000J0000394D01*
G01*
X0089122Y0322343D01*
G75*
G02*
X0089516Y0322736I0000394J0000000D01*
G01*
X0092665Y0322736D01*
G75*
G02*
X0093059Y0322343I0000000J-000394D01*
G01*
G37*
G36*
G01*
X0085185Y0322343D02*
X0085185Y0318209D01*
G75*
G02*
X0084791Y0317815I-000394J0000000D01*
G01*
X0081642Y0317815D01*
G75*
G02*
X0081248Y0318209I0000000J0000394D01*
G01*
X0081248Y0322343D01*
G75*
G02*
X0081642Y0322736I0000394J0000000D01*
G01*
X0084791Y0322736D01*
G75*
G02*
X0085185Y0322343I0000000J-000394D01*
G01*
G37*
G36*
G01*
X0026780Y0262500D02*
X0026780Y0266634D01*
G75*
G02*
X0027173Y0267028I0000394J0000000D01*
G01*
X0030323Y0267028D01*
G75*
G02*
X0030717Y0266634I0000000J-000394D01*
G01*
X0030717Y0262500D01*
G75*
G02*
X0030323Y0262106I-000394J0000000D01*
G01*
X0027173Y0262106D01*
G75*
G02*
X0026780Y0262500I0000000J0000394D01*
G01*
G37*
G36*
G01*
X0034654Y0262500D02*
X0034654Y0266634D01*
G75*
G02*
X0035047Y0267028I0000394J0000000D01*
G01*
X0038197Y0267028D01*
G75*
G02*
X0038591Y0266634I0000000J-000394D01*
G01*
X0038591Y0262500D01*
G75*
G02*
X0038197Y0262106I-000394J0000000D01*
G01*
X0035047Y0262106D01*
G75*
G02*
X0034654Y0262500I0000000J0000394D01*
G01*
G37*
G36*
G01*
X0093059Y0338091D02*
X0093059Y0333957D01*
G75*
G02*
X0092665Y0333563I-000394J0000000D01*
G01*
X0089516Y0333563D01*
G75*
G02*
X0089122Y0333957I0000000J0000394D01*
G01*
X0089122Y0338091D01*
G75*
G02*
X0089516Y0338484I0000394J0000000D01*
G01*
X0092665Y0338484D01*
G75*
G02*
X0093059Y0338091I0000000J-000394D01*
G01*
G37*
G36*
G01*
X0085185Y0338091D02*
X0085185Y0333957D01*
G75*
G02*
X0084791Y0333563I-000394J0000000D01*
G01*
X0081642Y0333563D01*
G75*
G02*
X0081248Y0333957I0000000J0000394D01*
G01*
X0081248Y0338091D01*
G75*
G02*
X0081642Y0338484I0000394J0000000D01*
G01*
X0084791Y0338484D01*
G75*
G02*
X0085185Y0338091I0000000J-000394D01*
G01*
G37*
G36*
G01*
X0054339Y0298130D02*
X0054339Y0293996D01*
G75*
G02*
X0053945Y0293602I-000394J0000000D01*
G01*
X0050795Y0293602D01*
G75*
G02*
X0050402Y0293996I0000000J0000394D01*
G01*
X0050402Y0298130D01*
G75*
G02*
X0050795Y0298524I0000394J0000000D01*
G01*
X0053945Y0298524D01*
G75*
G02*
X0054339Y0298130I0000000J-000394D01*
G01*
G37*
G36*
G01*
X0046465Y0298130D02*
X0046465Y0293996D01*
G75*
G02*
X0046071Y0293602I-000394J0000000D01*
G01*
X0042921Y0293602D01*
G75*
G02*
X0042528Y0293996I0000000J0000394D01*
G01*
X0042528Y0298130D01*
G75*
G02*
X0042921Y0298524I0000394J0000000D01*
G01*
X0046071Y0298524D01*
G75*
G02*
X0046465Y0298130I0000000J-000394D01*
G01*
G37*
G36*
G01*
X0026780Y0293996D02*
X0026780Y0298130D01*
G75*
G02*
X0027173Y0298524I0000394J0000000D01*
G01*
X0030323Y0298524D01*
G75*
G02*
X0030717Y0298130I0000000J-000394D01*
G01*
X0030717Y0293996D01*
G75*
G02*
X0030323Y0293602I-000394J0000000D01*
G01*
X0027173Y0293602D01*
G75*
G02*
X0026780Y0293996I0000000J0000394D01*
G01*
G37*
G36*
G01*
X0034654Y0293996D02*
X0034654Y0298130D01*
G75*
G02*
X0035047Y0298524I0000394J0000000D01*
G01*
X0038197Y0298524D01*
G75*
G02*
X0038591Y0298130I0000000J-000394D01*
G01*
X0038591Y0293996D01*
G75*
G02*
X0038197Y0293602I-000394J0000000D01*
G01*
X0035047Y0293602D01*
G75*
G02*
X0034654Y0293996I0000000J0000394D01*
G01*
G37*
G36*
G01*
X0093059Y0314469D02*
X0093059Y0310335D01*
G75*
G02*
X0092665Y0309941I-000394J0000000D01*
G01*
X0089516Y0309941D01*
G75*
G02*
X0089122Y0310335I0000000J0000394D01*
G01*
X0089122Y0314469D01*
G75*
G02*
X0089516Y0314862I0000394J0000000D01*
G01*
X0092665Y0314862D01*
G75*
G02*
X0093059Y0314469I0000000J-000394D01*
G01*
G37*
G36*
G01*
X0085185Y0314469D02*
X0085185Y0310335D01*
G75*
G02*
X0084791Y0309941I-000394J0000000D01*
G01*
X0081642Y0309941D01*
G75*
G02*
X0081248Y0310335I0000000J0000394D01*
G01*
X0081248Y0314469D01*
G75*
G02*
X0081642Y0314862I0000394J0000000D01*
G01*
X0084791Y0314862D01*
G75*
G02*
X0085185Y0314469I0000000J-000394D01*
G01*
G37*
G36*
G01*
X0087449Y0408366D02*
X0083433Y0408366D01*
G75*
G02*
X0083079Y0408720I0000000J0000354D01*
G01*
X0083079Y0411555D01*
G75*
G02*
X0083433Y0411909I0000354J0000000D01*
G01*
X0087449Y0411909D01*
G75*
G02*
X0087803Y0411555I0000000J-000354D01*
G01*
X0087803Y0408720D01*
G75*
G02*
X0087449Y0408366I-000354J0000000D01*
G01*
G37*
G36*
G01*
X0087449Y0421358D02*
X0083433Y0421358D01*
G75*
G02*
X0083079Y0421713I0000000J0000354D01*
G01*
X0083079Y0424547D01*
G75*
G02*
X0083433Y0424902I0000354J0000000D01*
G01*
X0087449Y0424902D01*
G75*
G02*
X0087803Y0424547I0000000J-000354D01*
G01*
X0087803Y0421713D01*
G75*
G02*
X0087449Y0421358I-000354J0000000D01*
G01*
G37*
G36*
G01*
X0026780Y0278248D02*
X0026780Y0282382D01*
G75*
G02*
X0027173Y0282776I0000394J0000000D01*
G01*
X0030323Y0282776D01*
G75*
G02*
X0030717Y0282382I0000000J-000394D01*
G01*
X0030717Y0278248D01*
G75*
G02*
X0030323Y0277854I-000394J0000000D01*
G01*
X0027173Y0277854D01*
G75*
G02*
X0026780Y0278248I0000000J0000394D01*
G01*
G37*
G36*
G01*
X0034654Y0278248D02*
X0034654Y0282382D01*
G75*
G02*
X0035047Y0282776I0000394J0000000D01*
G01*
X0038197Y0282776D01*
G75*
G02*
X0038591Y0282382I0000000J-000394D01*
G01*
X0038591Y0278248D01*
G75*
G02*
X0038197Y0277854I-000394J0000000D01*
G01*
X0035047Y0277854D01*
G75*
G02*
X0034654Y0278248I0000000J0000394D01*
G01*
G37*
G36*
G01*
X0054339Y0282382D02*
X0054339Y0278248D01*
G75*
G02*
X0053945Y0277854I-000394J0000000D01*
G01*
X0050795Y0277854D01*
G75*
G02*
X0050402Y0278248I0000000J0000394D01*
G01*
X0050402Y0282382D01*
G75*
G02*
X0050795Y0282776I0000394J0000000D01*
G01*
X0053945Y0282776D01*
G75*
G02*
X0054339Y0282382I0000000J-000394D01*
G01*
G37*
G36*
G01*
X0046465Y0282382D02*
X0046465Y0278248D01*
G75*
G02*
X0046071Y0277854I-000394J0000000D01*
G01*
X0042921Y0277854D01*
G75*
G02*
X0042528Y0278248I0000000J0000394D01*
G01*
X0042528Y0282382D01*
G75*
G02*
X0042921Y0282776I0000394J0000000D01*
G01*
X0046071Y0282776D01*
G75*
G02*
X0046465Y0282382I0000000J-000394D01*
G01*
G37*
G36*
G01*
X0026780Y0270374D02*
X0026780Y0274508D01*
G75*
G02*
X0027173Y0274902I0000394J0000000D01*
G01*
X0030323Y0274902D01*
G75*
G02*
X0030717Y0274508I0000000J-000394D01*
G01*
X0030717Y0270374D01*
G75*
G02*
X0030323Y0269980I-000394J0000000D01*
G01*
X0027173Y0269980D01*
G75*
G02*
X0026780Y0270374I0000000J0000394D01*
G01*
G37*
G36*
G01*
X0034654Y0270374D02*
X0034654Y0274508D01*
G75*
G02*
X0035047Y0274902I0000394J0000000D01*
G01*
X0038197Y0274902D01*
G75*
G02*
X0038591Y0274508I0000000J-000394D01*
G01*
X0038591Y0270374D01*
G75*
G02*
X0038197Y0269980I-000394J0000000D01*
G01*
X0035047Y0269980D01*
G75*
G02*
X0034654Y0270374I0000000J0000394D01*
G01*
G37*
G36*
G01*
X0100539Y0408366D02*
X0096524Y0408366D01*
G75*
G02*
X0096169Y0408720I0000000J0000354D01*
G01*
X0096169Y0411555D01*
G75*
G02*
X0096524Y0411909I0000354J0000000D01*
G01*
X0100539Y0411909D01*
G75*
G02*
X0100894Y0411555I0000000J-000354D01*
G01*
X0100894Y0408720D01*
G75*
G02*
X0100539Y0408366I-000354J0000000D01*
G01*
G37*
G36*
G01*
X0100539Y0421358D02*
X0096524Y0421358D01*
G75*
G02*
X0096169Y0421713I0000000J0000354D01*
G01*
X0096169Y0424547D01*
G75*
G02*
X0096524Y0424902I0000354J0000000D01*
G01*
X0100539Y0424902D01*
G75*
G02*
X0100894Y0424547I0000000J-000354D01*
G01*
X0100894Y0421713D01*
G75*
G02*
X0100539Y0421358I-000354J0000000D01*
G01*
G37*
G36*
G01*
X0093059Y0306594D02*
X0093059Y0302461D01*
G75*
G02*
X0092665Y0302067I-000394J0000000D01*
G01*
X0089516Y0302067D01*
G75*
G02*
X0089122Y0302461I0000000J0000394D01*
G01*
X0089122Y0306594D01*
G75*
G02*
X0089516Y0306988I0000394J0000000D01*
G01*
X0092665Y0306988D01*
G75*
G02*
X0093059Y0306594I0000000J-000394D01*
G01*
G37*
G36*
G01*
X0085185Y0306594D02*
X0085185Y0302461D01*
G75*
G02*
X0084791Y0302067I-000394J0000000D01*
G01*
X0081642Y0302067D01*
G75*
G02*
X0081248Y0302461I0000000J0000394D01*
G01*
X0081248Y0306594D01*
G75*
G02*
X0081642Y0306988I0000394J0000000D01*
G01*
X0084791Y0306988D01*
G75*
G02*
X0085185Y0306594I0000000J-000394D01*
G01*
G37*
G36*
G01*
X0054339Y0290256D02*
X0054339Y0286122D01*
G75*
G02*
X0053945Y0285728I-000394J0000000D01*
G01*
X0050795Y0285728D01*
G75*
G02*
X0050402Y0286122I0000000J0000394D01*
G01*
X0050402Y0290256D01*
G75*
G02*
X0050795Y0290650I0000394J0000000D01*
G01*
X0053945Y0290650D01*
G75*
G02*
X0054339Y0290256I0000000J-000394D01*
G01*
G37*
G36*
G01*
X0046465Y0290256D02*
X0046465Y0286122D01*
G75*
G02*
X0046071Y0285728I-000394J0000000D01*
G01*
X0042921Y0285728D01*
G75*
G02*
X0042528Y0286122I0000000J0000394D01*
G01*
X0042528Y0290256D01*
G75*
G02*
X0042921Y0290650I0000394J0000000D01*
G01*
X0046071Y0290650D01*
G75*
G02*
X0046465Y0290256I0000000J-000394D01*
G01*
G37*
G36*
G01*
X0065500Y0318209D02*
X0065500Y0322343D01*
G75*
G02*
X0065894Y0322736I0000394J0000000D01*
G01*
X0069043Y0322736D01*
G75*
G02*
X0069437Y0322343I0000000J-000394D01*
G01*
X0069437Y0318209D01*
G75*
G02*
X0069043Y0317815I-000394J0000000D01*
G01*
X0065894Y0317815D01*
G75*
G02*
X0065500Y0318209I0000000J0000394D01*
G01*
G37*
G36*
G01*
X0073374Y0318209D02*
X0073374Y0322343D01*
G75*
G02*
X0073768Y0322736I0000394J0000000D01*
G01*
X0076917Y0322736D01*
G75*
G02*
X0077311Y0322343I0000000J-000394D01*
G01*
X0077311Y0318209D01*
G75*
G02*
X0076917Y0317815I-000394J0000000D01*
G01*
X0073768Y0317815D01*
G75*
G02*
X0073374Y0318209I0000000J0000394D01*
G01*
G37*
G36*
G01*
X0065500Y0310335D02*
X0065500Y0314469D01*
G75*
G02*
X0065894Y0314862I0000394J0000000D01*
G01*
X0069043Y0314862D01*
G75*
G02*
X0069437Y0314469I0000000J-000394D01*
G01*
X0069437Y0310335D01*
G75*
G02*
X0069043Y0309941I-000394J0000000D01*
G01*
X0065894Y0309941D01*
G75*
G02*
X0065500Y0310335I0000000J0000394D01*
G01*
G37*
G36*
G01*
X0073374Y0310335D02*
X0073374Y0314469D01*
G75*
G02*
X0073768Y0314862I0000394J0000000D01*
G01*
X0076917Y0314862D01*
G75*
G02*
X0077311Y0314469I0000000J-000394D01*
G01*
X0077311Y0310335D01*
G75*
G02*
X0076917Y0309941I-000394J0000000D01*
G01*
X0073768Y0309941D01*
G75*
G02*
X0073374Y0310335I0000000J0000394D01*
G01*
G37*
G36*
G01*
X0065500Y0333957D02*
X0065500Y0338091D01*
G75*
G02*
X0065894Y0338484I0000394J0000000D01*
G01*
X0069043Y0338484D01*
G75*
G02*
X0069437Y0338091I0000000J-000394D01*
G01*
X0069437Y0333957D01*
G75*
G02*
X0069043Y0333563I-000394J0000000D01*
G01*
X0065894Y0333563D01*
G75*
G02*
X0065500Y0333957I0000000J0000394D01*
G01*
G37*
G36*
G01*
X0073374Y0333957D02*
X0073374Y0338091D01*
G75*
G02*
X0073768Y0338484I0000394J0000000D01*
G01*
X0076917Y0338484D01*
G75*
G02*
X0077311Y0338091I0000000J-000394D01*
G01*
X0077311Y0333957D01*
G75*
G02*
X0076917Y0333563I-000394J0000000D01*
G01*
X0073768Y0333563D01*
G75*
G02*
X0073374Y0333957I0000000J0000394D01*
G01*
G37*
G36*
G01*
X0074260Y0408366D02*
X0070244Y0408366D01*
G75*
G02*
X0069890Y0408720I0000000J0000354D01*
G01*
X0069890Y0411555D01*
G75*
G02*
X0070244Y0411909I0000354J0000000D01*
G01*
X0074260Y0411909D01*
G75*
G02*
X0074614Y0411555I0000000J-000354D01*
G01*
X0074614Y0408720D01*
G75*
G02*
X0074260Y0408366I-000354J0000000D01*
G01*
G37*
G36*
G01*
X0074260Y0421358D02*
X0070244Y0421358D01*
G75*
G02*
X0069890Y0421713I0000000J0000354D01*
G01*
X0069890Y0424547D01*
G75*
G02*
X0070244Y0424902I0000354J0000000D01*
G01*
X0074260Y0424902D01*
G75*
G02*
X0074614Y0424547I0000000J-000354D01*
G01*
X0074614Y0421713D01*
G75*
G02*
X0074260Y0421358I-000354J0000000D01*
G01*
G37*
G36*
G01*
X0093059Y0330217D02*
X0093059Y0326083D01*
G75*
G02*
X0092665Y0325689I-000394J0000000D01*
G01*
X0089516Y0325689D01*
G75*
G02*
X0089122Y0326083I0000000J0000394D01*
G01*
X0089122Y0330217D01*
G75*
G02*
X0089516Y0330610I0000394J0000000D01*
G01*
X0092665Y0330610D01*
G75*
G02*
X0093059Y0330217I0000000J-000394D01*
G01*
G37*
G36*
G01*
X0085185Y0330217D02*
X0085185Y0326083D01*
G75*
G02*
X0084791Y0325689I-000394J0000000D01*
G01*
X0081642Y0325689D01*
G75*
G02*
X0081248Y0326083I0000000J0000394D01*
G01*
X0081248Y0330217D01*
G75*
G02*
X0081642Y0330610I0000394J0000000D01*
G01*
X0084791Y0330610D01*
G75*
G02*
X0085185Y0330217I0000000J-000394D01*
G01*
G37*
G36*
G01*
X0054339Y0266634D02*
X0054339Y0262500D01*
G75*
G02*
X0053945Y0262106I-000394J0000000D01*
G01*
X0050795Y0262106D01*
G75*
G02*
X0050402Y0262500I0000000J0000394D01*
G01*
X0050402Y0266634D01*
G75*
G02*
X0050795Y0267028I0000394J0000000D01*
G01*
X0053945Y0267028D01*
G75*
G02*
X0054339Y0266634I0000000J-000394D01*
G01*
G37*
G36*
G01*
X0046465Y0266634D02*
X0046465Y0262500D01*
G75*
G02*
X0046071Y0262106I-000394J0000000D01*
G01*
X0042921Y0262106D01*
G75*
G02*
X0042528Y0262500I0000000J0000394D01*
G01*
X0042528Y0266634D01*
G75*
G02*
X0042921Y0267028I0000394J0000000D01*
G01*
X0046071Y0267028D01*
G75*
G02*
X0046465Y0266634I0000000J-000394D01*
G01*
G37*
G36*
G01*
X0026780Y0286122D02*
X0026780Y0290256D01*
G75*
G02*
X0027173Y0290650I0000394J0000000D01*
G01*
X0030323Y0290650D01*
G75*
G02*
X0030717Y0290256I0000000J-000394D01*
G01*
X0030717Y0286122D01*
G75*
G02*
X0030323Y0285728I-000394J0000000D01*
G01*
X0027173Y0285728D01*
G75*
G02*
X0026780Y0286122I0000000J0000394D01*
G01*
G37*
G36*
G01*
X0034654Y0286122D02*
X0034654Y0290256D01*
G75*
G02*
X0035047Y0290650I0000394J0000000D01*
G01*
X0038197Y0290650D01*
G75*
G02*
X0038591Y0290256I0000000J-000394D01*
G01*
X0038591Y0286122D01*
G75*
G02*
X0038197Y0285728I-000394J0000000D01*
G01*
X0035047Y0285728D01*
G75*
G02*
X0034654Y0286122I0000000J0000394D01*
G01*
G37*
X0302469Y0016240D02*
G01*
G75*
D291*
X0226091Y0046155D02*
D03*
X0226091Y0033163D02*
D03*
D292*
X0225697Y0066015D02*
D03*
X0225697Y0054598D02*
D03*
X0233729Y0066015D02*
D03*
X0233729Y0054598D02*
D03*
D295*
X0247745Y0028642D02*
D03*
X0243808Y0028642D02*
D03*
X0233178Y0025295D02*
D03*
X0233178Y0033957D02*
D03*
X0238426Y0024508D02*
D03*
X0238426Y0033169D02*
D03*
D296*
X0291052Y0036395D02*
D03*
X0291052Y0032851D02*
D03*
X0254319Y0045786D02*
D03*
X0254319Y0049330D02*
D03*
X0239214Y0037789D02*
D03*
X0239214Y0041332D02*
D03*
X0291052Y0045013D02*
D03*
X0291052Y0041470D02*
D03*
X0287115Y0024508D02*
D03*
X0287115Y0028051D02*
D03*
D297*
X0237639Y0049993D02*
D03*
X0234095Y0049993D02*
D03*
X0225237Y0029226D02*
D03*
X0228781Y0029226D02*
D03*
X0283554Y0077990D02*
D03*
X0280010Y0077990D02*
D03*
D312*
X0246170Y0065453D02*
D03*
X0246170Y0054429D02*
D03*
D313*
X0250493Y0032775D02*
D03*
X0244273Y0032775D02*
D03*
X0250493Y0046869D02*
D03*
X0244273Y0046869D02*
D03*
X0250493Y0042178D02*
D03*
X0244273Y0042178D02*
D03*
X0250493Y0037486D02*
D03*
X0244273Y0037486D02*
D03*
X0238249Y0045688D02*
D03*
X0232028Y0045688D02*
D03*
D314*
X0287115Y0036198D02*
D03*
X0287115Y0032261D02*
D03*
X0287115Y0040879D02*
D03*
X0287115Y0044816D02*
D03*
X0233178Y0037592D02*
D03*
X0233178Y0041529D02*
D03*
X0254792Y0060525D02*
D03*
X0254792Y0064462D02*
D03*
X0292233Y0068301D02*
D03*
X0292233Y0064363D02*
D03*
D315*
X0280355Y0041312D02*
D03*
X0280355Y0036312D02*
D03*
X0280355Y0031312D02*
D03*
X0280355Y0026312D02*
D03*
X0257718Y0041312D02*
D03*
X0257718Y0036312D02*
D03*
X0257718Y0031312D02*
D03*
X0257718Y0026312D02*
D03*
X0285638Y0064379D02*
D03*
X0285638Y0059379D02*
D03*
X0285638Y0054379D02*
D03*
X0285638Y0049379D02*
D03*
X0262213Y0064379D02*
D03*
X0262213Y0059379D02*
D03*
X0262213Y0054379D02*
D03*
X0262213Y0049379D02*
D03*
D316*
X0269037Y0033812D02*
D03*
D317*
X0273926Y0056879D02*
D03*
X0387902Y0303839D02*
G01*
G75*
D336*
X0398138Y0275886D02*
D03*
X0398138Y0271949D02*
D03*
X0398138Y0287009D02*
D03*
X0398138Y0290946D02*
D03*
X0398138Y0295375D02*
D03*
X0398138Y0299312D02*
D03*
X0390855Y0275886D02*
D03*
X0390855Y0271949D02*
D03*
D337*
X0390658Y0279271D02*
D03*
X0394201Y0279271D02*
D03*
D338*
X0397371Y0283156D02*
D03*
X0391150Y0283156D02*
D03*
D339*
X0394201Y0295768D02*
D03*
X0394201Y0299311D02*
D03*
X0390658Y0287402D02*
D03*
X0390658Y0290945D02*
D03*
X0394259Y0272540D02*
D03*
X0394259Y0276083D02*
D03*
X0390658Y0299311D02*
D03*
X0390658Y0295768D02*
D03*
X0138551Y0406152D02*
%LPD*%
G01*
G36*
G01*
X0169145Y0389223D02*
X0167964Y0389223D01*
G75*
G02*
X0167373Y0389813I0000000J0000591D01*
G01*
X0167373Y0393849D01*
G75*
G02*
X0167964Y0394439I0000591J0000000D01*
G01*
X0169145Y0394439D01*
G75*
G02*
X0169735Y0393849I0000000J-000591D01*
G01*
X0169735Y0389813D01*
G75*
G02*
X0169145Y0389223I-000591J0000000D01*
G01*
G37*
G36*
G01*
X0165404Y0389223D02*
X0164223Y0389223D01*
G75*
G02*
X0163633Y0389813I0000000J0000591D01*
G01*
X0163633Y0393849D01*
G75*
G02*
X0164223Y0394439I0000591J0000000D01*
G01*
X0165404Y0394439D01*
G75*
G02*
X0165995Y0393849I0000000J-000591D01*
G01*
X0165995Y0389813D01*
G75*
G02*
X0165404Y0389223I-000591J0000000D01*
G01*
G37*
G36*
G01*
X0161664Y0389223D02*
X0160483Y0389223D01*
G75*
G02*
X0159893Y0389813I0000000J0000591D01*
G01*
X0159893Y0393849D01*
G75*
G02*
X0160483Y0394439I0000591J0000000D01*
G01*
X0161664Y0394439D01*
G75*
G02*
X0162255Y0393849I0000000J-000591D01*
G01*
X0162255Y0389813D01*
G75*
G02*
X0161664Y0389223I-000591J0000000D01*
G01*
G37*
G36*
G01*
X0161664Y0398180D02*
X0160483Y0398180D01*
G75*
G02*
X0159893Y0398770I0000000J0000591D01*
G01*
X0159893Y0402806D01*
G75*
G02*
X0160483Y0403396I0000591J0000000D01*
G01*
X0161664Y0403396D01*
G75*
G02*
X0162255Y0402806I0000000J-000591D01*
G01*
X0162255Y0398770D01*
G75*
G02*
X0161664Y0398180I-000591J0000000D01*
G01*
G37*
G36*
G01*
X0169145Y0398180D02*
X0167964Y0398180D01*
G75*
G02*
X0167373Y0398770I0000000J0000591D01*
G01*
X0167373Y0402806D01*
G75*
G02*
X0167964Y0403396I0000591J0000000D01*
G01*
X0169145Y0403396D01*
G75*
G02*
X0169735Y0402806I0000000J-000591D01*
G01*
X0169735Y0398770D01*
G75*
G02*
X0169145Y0398180I-000591J0000000D01*
G01*
G37*
G36*
G01*
X0146858Y0389498D02*
X0146858Y0388160D01*
G75*
G02*
X0146307Y0387609I-000551J0000000D01*
G01*
X0145205Y0387609D01*
G75*
G02*
X0144653Y0388160I0000000J0000551D01*
G01*
X0144653Y0389498D01*
G75*
G02*
X0145205Y0390050I0000551J0000000D01*
G01*
X0146307Y0390050D01*
G75*
G02*
X0146858Y0389498I0000000J-000551D01*
G01*
G37*
G36*
G01*
X0143079Y0389498D02*
X0143079Y0388160D01*
G75*
G02*
X0142527Y0387609I-000551J0000000D01*
G01*
X0141425Y0387609D01*
G75*
G02*
X0140874Y0388160I0000000J0000551D01*
G01*
X0140874Y0389498D01*
G75*
G02*
X0141425Y0390050I0000551J0000000D01*
G01*
X0142527Y0390050D01*
G75*
G02*
X0143079Y0389498I0000000J-000551D01*
G01*
G37*
G36*
G01*
X0169575Y0362983D02*
X0170913Y0362983D01*
G75*
G02*
X0171464Y0362432I0000000J-000551D01*
G01*
X0171464Y0361329D01*
G75*
G02*
X0170913Y0360778I-000551J0000000D01*
G01*
X0169575Y0360778D01*
G75*
G02*
X0169023Y0361329I0000000J0000551D01*
G01*
X0169023Y0362432D01*
G75*
G02*
X0169575Y0362983I0000551J0000000D01*
G01*
G37*
G36*
G01*
X0169575Y0359203D02*
X0170913Y0359203D01*
G75*
G02*
X0171464Y0358652I0000000J-000551D01*
G01*
X0171464Y0357550D01*
G75*
G02*
X0170913Y0356998I-000551J0000000D01*
G01*
X0169575Y0356998D01*
G75*
G02*
X0169023Y0357550I0000000J0000551D01*
G01*
X0169023Y0358652D01*
G75*
G02*
X0169575Y0359203I0000551J0000000D01*
G01*
G37*
G36*
G01*
X0174575Y0349636D02*
X0173236Y0349636D01*
G75*
G02*
X0172685Y0350187I0000000J0000551D01*
G01*
X0172685Y0351290D01*
G75*
G02*
X0173236Y0351841I0000551J0000000D01*
G01*
X0174575Y0351841D01*
G75*
G02*
X0175126Y0351290I0000000J-000551D01*
G01*
X0175126Y0350187D01*
G75*
G02*
X0174575Y0349636I-000551J0000000D01*
G01*
G37*
G36*
G01*
X0174575Y0353416D02*
X0173236Y0353416D01*
G75*
G02*
X0172685Y0353967I0000000J0000551D01*
G01*
X0172685Y0355069D01*
G75*
G02*
X0173236Y0355621I0000551J0000000D01*
G01*
X0174575Y0355621D01*
G75*
G02*
X0175126Y0355069I0000000J-000551D01*
G01*
X0175126Y0353967D01*
G75*
G02*
X0174575Y0353416I-000551J0000000D01*
G01*
G37*
G36*
G01*
X0165834Y0371388D02*
X0167173Y0371388D01*
G75*
G02*
X0167724Y0370837I0000000J-000551D01*
G01*
X0167724Y0369735D01*
G75*
G02*
X0167173Y0369183I-000551J0000000D01*
G01*
X0165834Y0369183D01*
G75*
G02*
X0165283Y0369735I0000000J0000551D01*
G01*
X0165283Y0370837D01*
G75*
G02*
X0165834Y0371388I0000551J0000000D01*
G01*
G37*
G36*
G01*
X0165834Y0367609D02*
X0167173Y0367609D01*
G75*
G02*
X0167724Y0367058I0000000J-000551D01*
G01*
X0167724Y0365955D01*
G75*
G02*
X0167173Y0365404I-000551J0000000D01*
G01*
X0165834Y0365404D01*
G75*
G02*
X0165283Y0365955I0000000J0000551D01*
G01*
X0165283Y0367058D01*
G75*
G02*
X0165834Y0367609I0000551J0000000D01*
G01*
G37*
G36*
G01*
X0170913Y0349833D02*
X0169575Y0349833D01*
G75*
G02*
X0169023Y0350384I0000000J0000551D01*
G01*
X0169023Y0351487D01*
G75*
G02*
X0169575Y0352038I0000551J0000000D01*
G01*
X0170913Y0352038D01*
G75*
G02*
X0171464Y0351487I0000000J-000551D01*
G01*
X0171464Y0350384D01*
G75*
G02*
X0170913Y0349833I-000551J0000000D01*
G01*
G37*
G36*
G01*
X0170913Y0353613D02*
X0169575Y0353613D01*
G75*
G02*
X0169023Y0354164I0000000J0000551D01*
G01*
X0169023Y0355266D01*
G75*
G02*
X0169575Y0355817I0000551J0000000D01*
G01*
X0170913Y0355817D01*
G75*
G02*
X0171464Y0355266I0000000J-000551D01*
G01*
X0171464Y0354164D01*
G75*
G02*
X0170913Y0353613I-000551J0000000D01*
G01*
G37*
G36*
G01*
X0149397Y0355109D02*
X0150736Y0355109D01*
G75*
G02*
X0151287Y0354558I0000000J-000551D01*
G01*
X0151287Y0353455D01*
G75*
G02*
X0150736Y0352904I-000551J0000000D01*
G01*
X0149397Y0352904D01*
G75*
G02*
X0148846Y0353455I0000000J0000551D01*
G01*
X0148846Y0354558D01*
G75*
G02*
X0149397Y0355109I0000551J0000000D01*
G01*
G37*
G36*
G01*
X0149397Y0351329D02*
X0150736Y0351329D01*
G75*
G02*
X0151287Y0350778I0000000J-000551D01*
G01*
X0151287Y0349676D01*
G75*
G02*
X0150736Y0349124I-000551J0000000D01*
G01*
X0149397Y0349124D01*
G75*
G02*
X0148846Y0349676I0000000J0000551D01*
G01*
X0148846Y0350778D01*
G75*
G02*
X0149397Y0351329I0000551J0000000D01*
G01*
G37*
G36*
G01*
X0141897Y0385618D02*
X0142685Y0385618D01*
G75*
G02*
X0143079Y0385224I0000000J-000394D01*
G01*
X0143079Y0380204D01*
G75*
G02*
X0142685Y0379811I-000394J0000000D01*
G01*
X0141897Y0379811D01*
G75*
G02*
X0141504Y0380204I0000000J0000394D01*
G01*
X0141504Y0385224D01*
G75*
G02*
X0141897Y0385618I0000394J0000000D01*
G01*
G37*
G36*
G01*
X0144457Y0385618D02*
X0145244Y0385618D01*
G75*
G02*
X0145638Y0385224I0000000J-000394D01*
G01*
X0145638Y0380204D01*
G75*
G02*
X0145244Y0379811I-000394J0000000D01*
G01*
X0144457Y0379811D01*
G75*
G02*
X0144063Y0380204I0000000J0000394D01*
G01*
X0144063Y0385224D01*
G75*
G02*
X0144457Y0385618I0000394J0000000D01*
G01*
G37*
G36*
G01*
X0147016Y0385618D02*
X0147803Y0385618D01*
G75*
G02*
X0148197Y0385224I0000000J-000394D01*
G01*
X0148197Y0380204D01*
G75*
G02*
X0147803Y0379811I-000394J0000000D01*
G01*
X0147016Y0379811D01*
G75*
G02*
X0146622Y0380204I0000000J0000394D01*
G01*
X0146622Y0385224D01*
G75*
G02*
X0147016Y0385618I0000394J0000000D01*
G01*
G37*
G36*
G01*
X0149575Y0385618D02*
X0150362Y0385618D01*
G75*
G02*
X0150756Y0385224I0000000J-000394D01*
G01*
X0150756Y0380204D01*
G75*
G02*
X0150362Y0379811I-000394J0000000D01*
G01*
X0149575Y0379811D01*
G75*
G02*
X0149181Y0380204I0000000J0000394D01*
G01*
X0149181Y0385224D01*
G75*
G02*
X0149575Y0385618I0000394J0000000D01*
G01*
G37*
G36*
G01*
X0152134Y0385618D02*
X0152921Y0385618D01*
G75*
G02*
X0153315Y0385224I0000000J-000394D01*
G01*
X0153315Y0380204D01*
G75*
G02*
X0152921Y0379811I-000394J0000000D01*
G01*
X0152134Y0379811D01*
G75*
G02*
X0151740Y0380204I0000000J0000394D01*
G01*
X0151740Y0385224D01*
G75*
G02*
X0152134Y0385618I0000394J0000000D01*
G01*
G37*
G36*
G01*
X0154693Y0385618D02*
X0155480Y0385618D01*
G75*
G02*
X0155874Y0385224I0000000J-000394D01*
G01*
X0155874Y0380204D01*
G75*
G02*
X0155480Y0379811I-000394J0000000D01*
G01*
X0154693Y0379811D01*
G75*
G02*
X0154299Y0380204I0000000J0000394D01*
G01*
X0154299Y0385224D01*
G75*
G02*
X0154693Y0385618I0000394J0000000D01*
G01*
G37*
G36*
G01*
X0157252Y0385618D02*
X0158039Y0385618D01*
G75*
G02*
X0158433Y0385224I0000000J-000394D01*
G01*
X0158433Y0380204D01*
G75*
G02*
X0158039Y0379811I-000394J0000000D01*
G01*
X0157252Y0379811D01*
G75*
G02*
X0156858Y0380204I0000000J0000394D01*
G01*
X0156858Y0385224D01*
G75*
G02*
X0157252Y0385618I0000394J0000000D01*
G01*
G37*
G36*
G01*
X0157252Y0363078D02*
X0158039Y0363078D01*
G75*
G02*
X0158433Y0362685I0000000J-000394D01*
G01*
X0158433Y0357665D01*
G75*
G02*
X0158039Y0357271I-000394J0000000D01*
G01*
X0157252Y0357271D01*
G75*
G02*
X0156858Y0357665I0000000J0000394D01*
G01*
X0156858Y0362685D01*
G75*
G02*
X0157252Y0363078I0000394J0000000D01*
G01*
G37*
G36*
G01*
X0154693Y0363078D02*
X0155480Y0363078D01*
G75*
G02*
X0155874Y0362685I0000000J-000394D01*
G01*
X0155874Y0357665D01*
G75*
G02*
X0155480Y0357271I-000394J0000000D01*
G01*
X0154693Y0357271D01*
G75*
G02*
X0154299Y0357665I0000000J0000394D01*
G01*
X0154299Y0362685D01*
G75*
G02*
X0154693Y0363078I0000394J0000000D01*
G01*
G37*
G36*
G01*
X0152134Y0363078D02*
X0152921Y0363078D01*
G75*
G02*
X0153315Y0362685I0000000J-000394D01*
G01*
X0153315Y0357665D01*
G75*
G02*
X0152921Y0357271I-000394J0000000D01*
G01*
X0152134Y0357271D01*
G75*
G02*
X0151740Y0357665I0000000J0000394D01*
G01*
X0151740Y0362685D01*
G75*
G02*
X0152134Y0363078I0000394J0000000D01*
G01*
G37*
G36*
G01*
X0149575Y0363078D02*
X0150362Y0363078D01*
G75*
G02*
X0150756Y0362685I0000000J-000394D01*
G01*
X0150756Y0357665D01*
G75*
G02*
X0150362Y0357271I-000394J0000000D01*
G01*
X0149575Y0357271D01*
G75*
G02*
X0149181Y0357665I0000000J0000394D01*
G01*
X0149181Y0362685D01*
G75*
G02*
X0149575Y0363078I0000394J0000000D01*
G01*
G37*
G36*
G01*
X0147016Y0363078D02*
X0147803Y0363078D01*
G75*
G02*
X0148197Y0362685I0000000J-000394D01*
G01*
X0148197Y0357665D01*
G75*
G02*
X0147803Y0357271I-000394J0000000D01*
G01*
X0147016Y0357271D01*
G75*
G02*
X0146622Y0357665I0000000J0000394D01*
G01*
X0146622Y0362685D01*
G75*
G02*
X0147016Y0363078I0000394J0000000D01*
G01*
G37*
G36*
G01*
X0144457Y0363078D02*
X0145244Y0363078D01*
G75*
G02*
X0145638Y0362685I0000000J-000394D01*
G01*
X0145638Y0357665D01*
G75*
G02*
X0145244Y0357271I-000394J0000000D01*
G01*
X0144457Y0357271D01*
G75*
G02*
X0144063Y0357665I0000000J0000394D01*
G01*
X0144063Y0362685D01*
G75*
G02*
X0144457Y0363078I0000394J0000000D01*
G01*
G37*
G36*
G01*
X0141897Y0363078D02*
X0142685Y0363078D01*
G75*
G02*
X0143079Y0362685I0000000J-000394D01*
G01*
X0143079Y0357665D01*
G75*
G02*
X0142685Y0357271I-000394J0000000D01*
G01*
X0141897Y0357271D01*
G75*
G02*
X0141504Y0357665I0000000J0000394D01*
G01*
X0141504Y0362685D01*
G75*
G02*
X0141897Y0363078I0000394J0000000D01*
G01*
G37*
G36*
G01*
X0149768Y0403261D02*
X0153311Y0403261D01*
G75*
G02*
X0154295Y0402277I0000000J-000984D01*
G01*
X0154295Y0400210D01*
G75*
G02*
X0153311Y0399226I-000984J0000000D01*
G01*
X0149768Y0399226D01*
G75*
G02*
X0148783Y0400210I0000000J0000984D01*
G01*
X0148783Y0402277D01*
G75*
G02*
X0149768Y0403261I0000984J0000000D01*
G01*
G37*
G36*
G01*
X0149768Y0396076D02*
X0153311Y0396076D01*
G75*
G02*
X0154295Y0395092I0000000J-000984D01*
G01*
X0154295Y0393025D01*
G75*
G02*
X0153311Y0392041I-000984J0000000D01*
G01*
X0149768Y0392041D01*
G75*
G02*
X0148783Y0393025I0000000J0000984D01*
G01*
X0148783Y0395092D01*
G75*
G02*
X0149768Y0396076I0000984J0000000D01*
G01*
G37*
G36*
G01*
X0163492Y0357018D02*
X0162035Y0357018D01*
G75*
G02*
X0161504Y0357550I0000000J0000531D01*
G01*
X0161504Y0358613D01*
G75*
G02*
X0162035Y0359144I0000531J0000000D01*
G01*
X0163492Y0359144D01*
G75*
G02*
X0164023Y0358613I0000000J-000531D01*
G01*
X0164023Y0357550D01*
G75*
G02*
X0163492Y0357018I-000531J0000000D01*
G01*
G37*
G36*
G01*
X0163492Y0361034D02*
X0162035Y0361034D01*
G75*
G02*
X0161504Y0361565I0000000J0000531D01*
G01*
X0161504Y0362628D01*
G75*
G02*
X0162035Y0363160I0000531J0000000D01*
G01*
X0163492Y0363160D01*
G75*
G02*
X0164023Y0362628I0000000J-000531D01*
G01*
X0164023Y0361565D01*
G75*
G02*
X0163492Y0361034I-000531J0000000D01*
G01*
G37*
G36*
G01*
X0174417Y0397451D02*
X0173079Y0397451D01*
G75*
G02*
X0172527Y0398002I0000000J0000551D01*
G01*
X0172527Y0399105D01*
G75*
G02*
X0173079Y0399656I0000551J0000000D01*
G01*
X0174417Y0399656D01*
G75*
G02*
X0174968Y0399105I0000000J-000551D01*
G01*
X0174968Y0398002D01*
G75*
G02*
X0174417Y0397451I-000551J0000000D01*
G01*
G37*
G36*
G01*
X0174417Y0401231D02*
X0173079Y0401231D01*
G75*
G02*
X0172527Y0401782I0000000J0000551D01*
G01*
X0172527Y0402884D01*
G75*
G02*
X0173079Y0403435I0000551J0000000D01*
G01*
X0174417Y0403435D01*
G75*
G02*
X0174968Y0402884I0000000J-000551D01*
G01*
X0174968Y0401782D01*
G75*
G02*
X0174417Y0401231I-000551J0000000D01*
G01*
G37*
G36*
G01*
X0167232Y0349341D02*
X0165775Y0349341D01*
G75*
G02*
X0165244Y0349872I0000000J0000531D01*
G01*
X0165244Y0350935D01*
G75*
G02*
X0165775Y0351467I0000531J0000000D01*
G01*
X0167232Y0351467D01*
G75*
G02*
X0167764Y0350935I0000000J-000531D01*
G01*
X0167764Y0349872D01*
G75*
G02*
X0167232Y0349341I-000531J0000000D01*
G01*
G37*
G36*
G01*
X0167232Y0353357D02*
X0165775Y0353357D01*
G75*
G02*
X0165244Y0353888I0000000J0000531D01*
G01*
X0165244Y0354951D01*
G75*
G02*
X0165775Y0355483I0000531J0000000D01*
G01*
X0167232Y0355483D01*
G75*
G02*
X0167764Y0354951I0000000J-000531D01*
G01*
X0167764Y0353888D01*
G75*
G02*
X0167232Y0353357I-000531J0000000D01*
G01*
G37*
G36*
G01*
X0163492Y0365274D02*
X0162036Y0365274D01*
G75*
G02*
X0161504Y0365806I0000000J0000531D01*
G01*
X0161504Y0366869D01*
G75*
G02*
X0162036Y0367400I0000531J0000000D01*
G01*
X0163492Y0367400D01*
G75*
G02*
X0164024Y0366869I0000000J-000531D01*
G01*
X0164024Y0365806D01*
G75*
G02*
X0163492Y0365274I-000531J0000000D01*
G01*
G37*
G36*
G01*
X0163492Y0369290D02*
X0162036Y0369290D01*
G75*
G02*
X0161504Y0369822I0000000J0000531D01*
G01*
X0161504Y0370885D01*
G75*
G02*
X0162036Y0371416I0000531J0000000D01*
G01*
X0163492Y0371416D01*
G75*
G02*
X0164024Y0370885I0000000J-000531D01*
G01*
X0164024Y0369822D01*
G75*
G02*
X0163492Y0369290I-000531J0000000D01*
G01*
G37*
G36*
G01*
X0145736Y0392041D02*
X0142193Y0392041D01*
G75*
G02*
X0141208Y0393025I0000000J0000984D01*
G01*
X0141208Y0395092D01*
G75*
G02*
X0142193Y0396076I0000984J0000000D01*
G01*
X0145736Y0396076D01*
G75*
G02*
X0146720Y0395092I0000000J-000984D01*
G01*
X0146720Y0393025D01*
G75*
G02*
X0145736Y0392041I-000984J0000000D01*
G01*
G37*
G36*
G01*
X0145736Y0399226D02*
X0142193Y0399226D01*
G75*
G02*
X0141208Y0400210I0000000J0000984D01*
G01*
X0141208Y0402277D01*
G75*
G02*
X0142193Y0403261I0000984J0000000D01*
G01*
X0145736Y0403261D01*
G75*
G02*
X0146720Y0402277I0000000J-000984D01*
G01*
X0146720Y0400210D01*
G75*
G02*
X0145736Y0399226I-000984J0000000D01*
G01*
G37*
G36*
G01*
X0174634Y0365325D02*
X0173177Y0365325D01*
G75*
G02*
X0172645Y0365857I0000000J0000531D01*
G01*
X0172645Y0366920D01*
G75*
G02*
X0173177Y0367451I0000531J0000000D01*
G01*
X0174634Y0367451D01*
G75*
G02*
X0175165Y0366920I0000000J-000531D01*
G01*
X0175165Y0365857D01*
G75*
G02*
X0174634Y0365325I-000531J0000000D01*
G01*
G37*
G36*
G01*
X0174634Y0369341D02*
X0173177Y0369341D01*
G75*
G02*
X0172645Y0369872I0000000J0000531D01*
G01*
X0172645Y0370935D01*
G75*
G02*
X0173177Y0371467I0000531J0000000D01*
G01*
X0174634Y0371467D01*
G75*
G02*
X0175165Y0370935I0000000J-000531D01*
G01*
X0175165Y0369872D01*
G75*
G02*
X0174634Y0369341I-000531J0000000D01*
G01*
G37*
G36*
G01*
X0141130Y0355640D02*
X0142586Y0355640D01*
G75*
G02*
X0143118Y0355109I0000000J-000531D01*
G01*
X0143118Y0354046D01*
G75*
G02*
X0142586Y0353514I-000531J0000000D01*
G01*
X0141130Y0353514D01*
G75*
G02*
X0140598Y0354046I0000000J0000531D01*
G01*
X0140598Y0355109D01*
G75*
G02*
X0141130Y0355640I0000531J0000000D01*
G01*
G37*
G36*
G01*
X0141130Y0351624D02*
X0142586Y0351624D01*
G75*
G02*
X0143118Y0351093I0000000J-000531D01*
G01*
X0143118Y0350030D01*
G75*
G02*
X0142586Y0349498I-000531J0000000D01*
G01*
X0141130Y0349498D01*
G75*
G02*
X0140598Y0350030I0000000J0000531D01*
G01*
X0140598Y0351093D01*
G75*
G02*
X0141130Y0351624I0000531J0000000D01*
G01*
G37*
G36*
G01*
X0153079Y0355187D02*
X0154535Y0355187D01*
G75*
G02*
X0155067Y0354656I0000000J-000531D01*
G01*
X0155067Y0353593D01*
G75*
G02*
X0154535Y0353061I-000531J0000000D01*
G01*
X0153079Y0353061D01*
G75*
G02*
X0152547Y0353593I0000000J0000531D01*
G01*
X0152547Y0354656D01*
G75*
G02*
X0153079Y0355187I0000531J0000000D01*
G01*
G37*
G36*
G01*
X0153079Y0351172D02*
X0154535Y0351172D01*
G75*
G02*
X0155067Y0350640I0000000J-000531D01*
G01*
X0155067Y0349577D01*
G75*
G02*
X0154535Y0349046I-000531J0000000D01*
G01*
X0153079Y0349046D01*
G75*
G02*
X0152547Y0349577I0000000J0000531D01*
G01*
X0152547Y0350640D01*
G75*
G02*
X0153079Y0351172I0000531J0000000D01*
G01*
G37*
G36*
G01*
X0167232Y0356723D02*
X0165775Y0356723D01*
G75*
G02*
X0165244Y0357254I0000000J0000531D01*
G01*
X0165244Y0358317D01*
G75*
G02*
X0165775Y0358849I0000531J0000000D01*
G01*
X0167232Y0358849D01*
G75*
G02*
X0167764Y0358317I0000000J-000531D01*
G01*
X0167764Y0357254D01*
G75*
G02*
X0167232Y0356723I-000531J0000000D01*
G01*
G37*
G36*
G01*
X0167232Y0360739D02*
X0165775Y0360739D01*
G75*
G02*
X0165244Y0361270I0000000J0000531D01*
G01*
X0165244Y0362333D01*
G75*
G02*
X0165775Y0362865I0000531J0000000D01*
G01*
X0167232Y0362865D01*
G75*
G02*
X0167764Y0362333I0000000J-000531D01*
G01*
X0167764Y0361270D01*
G75*
G02*
X0167232Y0360739I-000531J0000000D01*
G01*
G37*
G36*
G01*
X0158315Y0349026D02*
X0156976Y0349026D01*
G75*
G02*
X0156425Y0349577I0000000J0000551D01*
G01*
X0156425Y0350680D01*
G75*
G02*
X0156976Y0351231I0000551J0000000D01*
G01*
X0158315Y0351231D01*
G75*
G02*
X0158866Y0350680I0000000J-000551D01*
G01*
X0158866Y0349577D01*
G75*
G02*
X0158315Y0349026I-000551J0000000D01*
G01*
G37*
G36*
G01*
X0158315Y0352806D02*
X0156976Y0352806D01*
G75*
G02*
X0156425Y0353357I0000000J0000551D01*
G01*
X0156425Y0354459D01*
G75*
G02*
X0156976Y0355010I0000551J0000000D01*
G01*
X0158315Y0355010D01*
G75*
G02*
X0158866Y0354459I0000000J-000551D01*
G01*
X0158866Y0353357D01*
G75*
G02*
X0158315Y0352806I-000551J0000000D01*
G01*
G37*
G36*
G01*
X0148100Y0388174D02*
X0148100Y0389512D01*
G75*
G02*
X0148651Y0390064I0000551J0000000D01*
G01*
X0149753Y0390064D01*
G75*
G02*
X0150305Y0389512I0000000J-000551D01*
G01*
X0150305Y0388174D01*
G75*
G02*
X0149753Y0387623I-000551J0000000D01*
G01*
X0148651Y0387623D01*
G75*
G02*
X0148100Y0388174I0000000J0000551D01*
G01*
G37*
G36*
G01*
X0151879Y0388174D02*
X0151879Y0389512D01*
G75*
G02*
X0152430Y0390064I0000551J0000000D01*
G01*
X0153533Y0390064D01*
G75*
G02*
X0154084Y0389512I0000000J-000551D01*
G01*
X0154084Y0388174D01*
G75*
G02*
X0153533Y0387623I-000551J0000000D01*
G01*
X0152430Y0387623D01*
G75*
G02*
X0151879Y0388174I0000000J0000551D01*
G01*
G37*
G36*
G01*
X0162035Y0355680D02*
X0163492Y0355680D01*
G75*
G02*
X0164023Y0355148I0000000J-000531D01*
G01*
X0164023Y0354085D01*
G75*
G02*
X0163492Y0353554I-000531J0000000D01*
G01*
X0162035Y0353554D01*
G75*
G02*
X0161504Y0354085I0000000J0000531D01*
G01*
X0161504Y0355148D01*
G75*
G02*
X0162035Y0355680I0000531J0000000D01*
G01*
G37*
G36*
G01*
X0162035Y0351664D02*
X0163492Y0351664D01*
G75*
G02*
X0164023Y0351132I0000000J-000531D01*
G01*
X0164023Y0350069D01*
G75*
G02*
X0163492Y0349538I-000531J0000000D01*
G01*
X0162035Y0349538D01*
G75*
G02*
X0161504Y0350069I0000000J0000531D01*
G01*
X0161504Y0351132D01*
G75*
G02*
X0162035Y0351664I0000531J0000000D01*
G01*
G37*
G36*
G01*
X0173394Y0373081D02*
X0172212Y0373081D01*
G75*
G02*
X0171622Y0373672I0000000J0000591D01*
G01*
X0171622Y0377707D01*
G75*
G02*
X0172212Y0378298I0000591J0000000D01*
G01*
X0173394Y0378298D01*
G75*
G02*
X0173984Y0377707I0000000J-000591D01*
G01*
X0173984Y0373672D01*
G75*
G02*
X0173394Y0373081I-000591J0000000D01*
G01*
G37*
G36*
G01*
X0169653Y0373081D02*
X0168472Y0373081D01*
G75*
G02*
X0167882Y0373672I0000000J0000591D01*
G01*
X0167882Y0377707D01*
G75*
G02*
X0168472Y0378298I0000591J0000000D01*
G01*
X0169653Y0378298D01*
G75*
G02*
X0170244Y0377707I0000000J-000591D01*
G01*
X0170244Y0373672D01*
G75*
G02*
X0169653Y0373081I-000591J0000000D01*
G01*
G37*
G36*
G01*
X0165913Y0373081D02*
X0164732Y0373081D01*
G75*
G02*
X0164142Y0373672I0000000J0000591D01*
G01*
X0164142Y0377707D01*
G75*
G02*
X0164732Y0378298I0000591J0000000D01*
G01*
X0165913Y0378298D01*
G75*
G02*
X0166504Y0377707I0000000J-000591D01*
G01*
X0166504Y0373672D01*
G75*
G02*
X0165913Y0373081I-000591J0000000D01*
G01*
G37*
G36*
G01*
X0165913Y0382038D02*
X0164732Y0382038D01*
G75*
G02*
X0164142Y0382628I0000000J0000591D01*
G01*
X0164142Y0386664D01*
G75*
G02*
X0164732Y0387254I0000591J0000000D01*
G01*
X0165913Y0387254D01*
G75*
G02*
X0166504Y0386664I0000000J-000591D01*
G01*
X0166504Y0382628D01*
G75*
G02*
X0165913Y0382038I-000591J0000000D01*
G01*
G37*
G36*
G01*
X0173394Y0382038D02*
X0172212Y0382038D01*
G75*
G02*
X0171622Y0382628I0000000J0000591D01*
G01*
X0171622Y0386664D01*
G75*
G02*
X0172212Y0387254I0000591J0000000D01*
G01*
X0173394Y0387254D01*
G75*
G02*
X0173984Y0386664I0000000J-000591D01*
G01*
X0173984Y0382628D01*
G75*
G02*
X0173394Y0382038I-000591J0000000D01*
G01*
G37*
G36*
G01*
X0169575Y0371388D02*
X0170913Y0371388D01*
G75*
G02*
X0171464Y0370837I0000000J-000551D01*
G01*
X0171464Y0369735D01*
G75*
G02*
X0170913Y0369183I-000551J0000000D01*
G01*
X0169575Y0369183D01*
G75*
G02*
X0169023Y0369735I0000000J0000551D01*
G01*
X0169023Y0370837D01*
G75*
G02*
X0169575Y0371388I0000551J0000000D01*
G01*
G37*
G36*
G01*
X0169575Y0367609D02*
X0170913Y0367609D01*
G75*
G02*
X0171464Y0367058I0000000J-000551D01*
G01*
X0171464Y0365955D01*
G75*
G02*
X0170913Y0365404I-000551J0000000D01*
G01*
X0169575Y0365404D01*
G75*
G02*
X0169023Y0365955I0000000J0000551D01*
G01*
X0169023Y0367058D01*
G75*
G02*
X0169575Y0367609I0000551J0000000D01*
G01*
G37*
X0184161Y0406299D02*
%LPD*%
G01*
X0468118Y0280807D02*
%LPD*%
G01*
G36*
G01*
X0475477Y0201102D02*
X0476835Y0201102D01*
G75*
G02*
X0477416Y0200522I0000000J-000581D01*
G01*
X0477416Y0199360D01*
G75*
G02*
X0476835Y0198779I-000581J0000000D01*
G01*
X0475477Y0198779D01*
G75*
G02*
X0474896Y0199360I0000000J0000581D01*
G01*
X0474896Y0200522D01*
G75*
G02*
X0475477Y0201102I0000581J0000000D01*
G01*
G37*
G36*
G01*
X0475477Y0197283D02*
X0476835Y0197283D01*
G75*
G02*
X0477416Y0196703I0000000J-000581D01*
G01*
X0477416Y0195541D01*
G75*
G02*
X0476835Y0194961I-000581J0000000D01*
G01*
X0475477Y0194961D01*
G75*
G02*
X0474896Y0195541I0000000J0000581D01*
G01*
X0474896Y0196703D01*
G75*
G02*
X0475477Y0197283I0000581J0000000D01*
G01*
G37*
G36*
G01*
X0490766Y0186634D02*
X0492124Y0186634D01*
G75*
G02*
X0492705Y0186053I0000000J-000581D01*
G01*
X0492705Y0184892D01*
G75*
G02*
X0492124Y0184311I-000581J0000000D01*
G01*
X0490766Y0184311D01*
G75*
G02*
X0490185Y0184892I0000000J0000581D01*
G01*
X0490185Y0186053D01*
G75*
G02*
X0490766Y0186634I0000581J0000000D01*
G01*
G37*
G36*
G01*
X0490766Y0182815D02*
X0492124Y0182815D01*
G75*
G02*
X0492705Y0182234I0000000J-000581D01*
G01*
X0492705Y0181073D01*
G75*
G02*
X0492124Y0180492I-000581J0000000D01*
G01*
X0490766Y0180492D01*
G75*
G02*
X0490185Y0181073I0000000J0000581D01*
G01*
X0490185Y0182234D01*
G75*
G02*
X0490766Y0182815I0000581J0000000D01*
G01*
G37*
G36*
G01*
X0516962Y0236516D02*
X0514944Y0236516D01*
G75*
G02*
X0514083Y0237377I0000000J0000861D01*
G01*
X0514083Y0239099D01*
G75*
G02*
X0514944Y0239961I0000861J0000000D01*
G01*
X0516962Y0239961D01*
G75*
G02*
X0517823Y0239099I0000000J-000861D01*
G01*
X0517823Y0237377D01*
G75*
G02*
X0516962Y0236516I-000861J0000000D01*
G01*
G37*
G36*
G01*
X0516962Y0242716D02*
X0514944Y0242716D01*
G75*
G02*
X0514083Y0243578I0000000J0000861D01*
G01*
X0514083Y0245300D01*
G75*
G02*
X0514944Y0246161I0000861J0000000D01*
G01*
X0516962Y0246161D01*
G75*
G02*
X0517823Y0245300I0000000J-000861D01*
G01*
X0517823Y0243578D01*
G75*
G02*
X0516962Y0242716I-000861J0000000D01*
G01*
G37*
G36*
G01*
X0472636Y0194961D02*
X0471277Y0194961D01*
G75*
G02*
X0470697Y0195541I0000000J0000581D01*
G01*
X0470697Y0196703D01*
G75*
G02*
X0471277Y0197283I0000581J0000000D01*
G01*
X0472636Y0197283D01*
G75*
G02*
X0473216Y0196703I0000000J-000581D01*
G01*
X0473216Y0195541D01*
G75*
G02*
X0472636Y0194961I-000581J0000000D01*
G01*
G37*
G36*
G01*
X0472636Y0198779D02*
X0471277Y0198779D01*
G75*
G02*
X0470697Y0199360I0000000J0000581D01*
G01*
X0470697Y0200522D01*
G75*
G02*
X0471277Y0201102I0000581J0000000D01*
G01*
X0472636Y0201102D01*
G75*
G02*
X0473216Y0200522I0000000J-000581D01*
G01*
X0473216Y0199360D01*
G75*
G02*
X0472636Y0198779I-000581J0000000D01*
G01*
G37*
G36*
G01*
X0511632Y0254662D02*
X0512990Y0254662D01*
G75*
G02*
X0513571Y0254082I0000000J-000581D01*
G01*
X0513571Y0252920D01*
G75*
G02*
X0512990Y0252340I-000581J0000000D01*
G01*
X0511632Y0252340D01*
G75*
G02*
X0511051Y0252920I0000000J0000581D01*
G01*
X0511051Y0254082D01*
G75*
G02*
X0511632Y0254662I0000581J0000000D01*
G01*
G37*
G36*
G01*
X0511632Y0250844D02*
X0512990Y0250844D01*
G75*
G02*
X0513571Y0250263I0000000J-000581D01*
G01*
X0513571Y0249101D01*
G75*
G02*
X0512990Y0248521I-000581J0000000D01*
G01*
X0511632Y0248521D01*
G75*
G02*
X0511051Y0249101I0000000J0000581D01*
G01*
X0511051Y0250263D01*
G75*
G02*
X0511632Y0250844I0000581J0000000D01*
G01*
G37*
G36*
G01*
X0509762Y0246575D02*
X0511120Y0246575D01*
G75*
G02*
X0511701Y0245994I0000000J-000581D01*
G01*
X0511701Y0244833D01*
G75*
G02*
X0511120Y0244252I-000581J0000000D01*
G01*
X0509762Y0244252D01*
G75*
G02*
X0509181Y0244833I0000000J0000581D01*
G01*
X0509181Y0245994D01*
G75*
G02*
X0509762Y0246575I0000581J0000000D01*
G01*
G37*
G36*
G01*
X0509762Y0242756D02*
X0511120Y0242756D01*
G75*
G02*
X0511701Y0242175I0000000J-000581D01*
G01*
X0511701Y0241014D01*
G75*
G02*
X0511120Y0240433I-000581J0000000D01*
G01*
X0509762Y0240433D01*
G75*
G02*
X0509181Y0241014I0000000J0000581D01*
G01*
X0509181Y0242175D01*
G75*
G02*
X0509762Y0242756I0000581J0000000D01*
G01*
G37*
G36*
G01*
X0517094Y0275187D02*
X0517094Y0273829D01*
G75*
G02*
X0516514Y0273248I-000581J0000000D01*
G01*
X0515352Y0273248D01*
G75*
G02*
X0514772Y0273829I0000000J0000581D01*
G01*
X0514772Y0275187D01*
G75*
G02*
X0515352Y0275768I0000581J0000000D01*
G01*
X0516514Y0275768D01*
G75*
G02*
X0517094Y0275187I0000000J-000581D01*
G01*
G37*
G36*
G01*
X0513275Y0275187D02*
X0513275Y0273829D01*
G75*
G02*
X0512695Y0273248I-000581J0000000D01*
G01*
X0511533Y0273248D01*
G75*
G02*
X0510953Y0273829I0000000J0000581D01*
G01*
X0510953Y0275187D01*
G75*
G02*
X0511533Y0275768I0000581J0000000D01*
G01*
X0512695Y0275768D01*
G75*
G02*
X0513275Y0275187I0000000J-000581D01*
G01*
G37*
G36*
G01*
X0499506Y0225669D02*
X0498148Y0225669D01*
G75*
G02*
X0497567Y0226250I0000000J0000581D01*
G01*
X0497567Y0227411D01*
G75*
G02*
X0498148Y0227992I0000581J0000000D01*
G01*
X0499506Y0227992D01*
G75*
G02*
X0500087Y0227411I0000000J-000581D01*
G01*
X0500087Y0226250D01*
G75*
G02*
X0499506Y0225669I-000581J0000000D01*
G01*
G37*
G36*
G01*
X0499506Y0229488D02*
X0498148Y0229488D01*
G75*
G02*
X0497567Y0230069I0000000J0000581D01*
G01*
X0497567Y0231230D01*
G75*
G02*
X0498148Y0231811I0000581J0000000D01*
G01*
X0499506Y0231811D01*
G75*
G02*
X0500087Y0231230I0000000J-000581D01*
G01*
X0500087Y0230069D01*
G75*
G02*
X0499506Y0229488I-000581J0000000D01*
G01*
G37*
G36*
G01*
X0494211Y0231811D02*
X0495569Y0231811D01*
G75*
G02*
X0496149Y0231230I0000000J-000581D01*
G01*
X0496149Y0230069D01*
G75*
G02*
X0495569Y0229488I-000581J0000000D01*
G01*
X0494211Y0229488D01*
G75*
G02*
X0493630Y0230069I0000000J0000581D01*
G01*
X0493630Y0231230D01*
G75*
G02*
X0494211Y0231811I0000581J0000000D01*
G01*
G37*
G36*
G01*
X0494211Y0227992D02*
X0495569Y0227992D01*
G75*
G02*
X0496149Y0227411I0000000J-000581D01*
G01*
X0496149Y0226250D01*
G75*
G02*
X0495569Y0225669I-000581J0000000D01*
G01*
X0494211Y0225669D01*
G75*
G02*
X0493630Y0226250I0000000J0000581D01*
G01*
X0493630Y0227411D01*
G75*
G02*
X0494211Y0227992I0000581J0000000D01*
G01*
G37*
G36*
G01*
X0496651Y0184331D02*
X0495293Y0184331D01*
G75*
G02*
X0494712Y0184911I0000000J0000581D01*
G01*
X0494712Y0186073D01*
G75*
G02*
X0495293Y0186653I0000581J0000000D01*
G01*
X0496651Y0186653D01*
G75*
G02*
X0497232Y0186073I0000000J-000581D01*
G01*
X0497232Y0184911D01*
G75*
G02*
X0496651Y0184331I-000581J0000000D01*
G01*
G37*
G36*
G01*
X0496651Y0188150D02*
X0495293Y0188150D01*
G75*
G02*
X0494712Y0188730I0000000J0000581D01*
G01*
X0494712Y0189892D01*
G75*
G02*
X0495293Y0190472I0000581J0000000D01*
G01*
X0496651Y0190472D01*
G75*
G02*
X0497232Y0189892I0000000J-000581D01*
G01*
X0497232Y0188730D01*
G75*
G02*
X0496651Y0188150I-000581J0000000D01*
G01*
G37*
D350*
X0473236Y0238681D03*
X0475795Y0238681D03*
X0478354Y0238681D03*
X0480913Y0238681D03*
X0483472Y0238681D03*
X0486031Y0238681D03*
X0488590Y0238681D03*
X0488590Y0215453D03*
X0486031Y0215453D03*
X0483472Y0215453D03*
X0480913Y0215453D03*
X0478354Y0215453D03*
X0475795Y0215453D03*
X0473236Y0215453D03*
G36*
G01*
X0516730Y0248504D02*
X0515372Y0248504D01*
G75*
G02*
X0514791Y0249085I0000000J0000581D01*
G01*
X0514791Y0250246D01*
G75*
G02*
X0515372Y0250827I0000581J0000000D01*
G01*
X0516730Y0250827D01*
G75*
G02*
X0517311Y0250246I0000000J-000581D01*
G01*
X0517311Y0249085D01*
G75*
G02*
X0516730Y0248504I-000581J0000000D01*
G01*
G37*
G36*
G01*
X0516730Y0252323D02*
X0515372Y0252323D01*
G75*
G02*
X0514791Y0252903I0000000J0000581D01*
G01*
X0514791Y0254065D01*
G75*
G02*
X0515372Y0254646I0000581J0000000D01*
G01*
X0516730Y0254646D01*
G75*
G02*
X0517311Y0254065I0000000J-000581D01*
G01*
X0517311Y0252903D01*
G75*
G02*
X0516730Y0252323I-000581J0000000D01*
G01*
G37*
G36*
G01*
X0519112Y0254646D02*
X0520470Y0254646D01*
G75*
G02*
X0521051Y0254065I0000000J-000581D01*
G01*
X0521051Y0252903D01*
G75*
G02*
X0520470Y0252323I-000581J0000000D01*
G01*
X0519112Y0252323D01*
G75*
G02*
X0518531Y0252903I0000000J0000581D01*
G01*
X0518531Y0254065D01*
G75*
G02*
X0519112Y0254646I0000581J0000000D01*
G01*
G37*
G36*
G01*
X0519112Y0250827D02*
X0520470Y0250827D01*
G75*
G02*
X0521051Y0250246I0000000J-000581D01*
G01*
X0521051Y0249085D01*
G75*
G02*
X0520470Y0248504I-000581J0000000D01*
G01*
X0519112Y0248504D01*
G75*
G02*
X0518531Y0249085I0000000J0000581D01*
G01*
X0518531Y0250246D01*
G75*
G02*
X0519112Y0250827I0000581J0000000D01*
G01*
G37*
G36*
G01*
X0509663Y0194409D02*
X0511022Y0194409D01*
G75*
G02*
X0511602Y0193829I0000000J-000581D01*
G01*
X0511602Y0192667D01*
G75*
G02*
X0511022Y0192087I-000581J0000000D01*
G01*
X0509663Y0192087D01*
G75*
G02*
X0509083Y0192667I0000000J0000581D01*
G01*
X0509083Y0193829D01*
G75*
G02*
X0509663Y0194409I0000581J0000000D01*
G01*
G37*
G36*
G01*
X0509663Y0190590D02*
X0511022Y0190590D01*
G75*
G02*
X0511602Y0190010I0000000J-000581D01*
G01*
X0511602Y0188848D01*
G75*
G02*
X0511022Y0188268I-000581J0000000D01*
G01*
X0509663Y0188268D01*
G75*
G02*
X0509083Y0188848I0000000J0000581D01*
G01*
X0509083Y0190010D01*
G75*
G02*
X0509663Y0190590I0000581J0000000D01*
G01*
G37*
G36*
G01*
X0480365Y0201102D02*
X0481724Y0201102D01*
G75*
G02*
X0482304Y0200522I0000000J-000581D01*
G01*
X0482304Y0199360D01*
G75*
G02*
X0481724Y0198779I-000581J0000000D01*
G01*
X0480365Y0198779D01*
G75*
G02*
X0479785Y0199360I0000000J0000581D01*
G01*
X0479785Y0200522D01*
G75*
G02*
X0480365Y0201102I0000581J0000000D01*
G01*
G37*
G36*
G01*
X0480365Y0197283D02*
X0481724Y0197283D01*
G75*
G02*
X0482304Y0196703I0000000J-000581D01*
G01*
X0482304Y0195541D01*
G75*
G02*
X0481724Y0194961I-000581J0000000D01*
G01*
X0480365Y0194961D01*
G75*
G02*
X0479785Y0195541I0000000J0000581D01*
G01*
X0479785Y0196703D01*
G75*
G02*
X0480365Y0197283I0000581J0000000D01*
G01*
G37*
G36*
G01*
X0503443Y0228917D02*
X0502085Y0228917D01*
G75*
G02*
X0501504Y0229498I0000000J0000581D01*
G01*
X0501504Y0230659D01*
G75*
G02*
X0502085Y0231240I0000581J0000000D01*
G01*
X0503443Y0231240D01*
G75*
G02*
X0504024Y0230659I0000000J-000581D01*
G01*
X0504024Y0229498D01*
G75*
G02*
X0503443Y0228917I-000581J0000000D01*
G01*
G37*
G36*
G01*
X0503443Y0232736D02*
X0502085Y0232736D01*
G75*
G02*
X0501504Y0233317I0000000J0000581D01*
G01*
X0501504Y0234478D01*
G75*
G02*
X0502085Y0235059I0000581J0000000D01*
G01*
X0503443Y0235059D01*
G75*
G02*
X0504024Y0234478I0000000J-000581D01*
G01*
X0504024Y0233317D01*
G75*
G02*
X0503443Y0232736I-000581J0000000D01*
G01*
G37*
G36*
G01*
X0511022Y0180590D02*
X0509663Y0180590D01*
G75*
G02*
X0509083Y0181171I0000000J0000581D01*
G01*
X0509083Y0182333D01*
G75*
G02*
X0509663Y0182913I0000581J0000000D01*
G01*
X0511022Y0182913D01*
G75*
G02*
X0511602Y0182333I0000000J-000581D01*
G01*
X0511602Y0181171D01*
G75*
G02*
X0511022Y0180590I-000581J0000000D01*
G01*
G37*
G36*
G01*
X0511022Y0184409D02*
X0509663Y0184409D01*
G75*
G02*
X0509083Y0184990I0000000J0000581D01*
G01*
X0509083Y0186151D01*
G75*
G02*
X0509663Y0186732I0000581J0000000D01*
G01*
X0511022Y0186732D01*
G75*
G02*
X0511602Y0186151I0000000J-000581D01*
G01*
X0511602Y0184990D01*
G75*
G02*
X0511022Y0184409I-000581J0000000D01*
G01*
G37*
G36*
G01*
X0495569Y0233051D02*
X0494211Y0233051D01*
G75*
G02*
X0493630Y0233632I0000000J0000581D01*
G01*
X0493630Y0234793D01*
G75*
G02*
X0494211Y0235374I0000581J0000000D01*
G01*
X0495569Y0235374D01*
G75*
G02*
X0496149Y0234793I0000000J-000581D01*
G01*
X0496149Y0233632D01*
G75*
G02*
X0495569Y0233051I-000581J0000000D01*
G01*
G37*
G36*
G01*
X0495569Y0236870D02*
X0494211Y0236870D01*
G75*
G02*
X0493630Y0237451I0000000J0000581D01*
G01*
X0493630Y0238612D01*
G75*
G02*
X0494211Y0239193I0000581J0000000D01*
G01*
X0495569Y0239193D01*
G75*
G02*
X0496149Y0238612I0000000J-000581D01*
G01*
X0496149Y0237451D01*
G75*
G02*
X0495569Y0236870I-000581J0000000D01*
G01*
G37*
G36*
G01*
X0470953Y0244301D02*
X0470953Y0245659D01*
G75*
G02*
X0471533Y0246240I0000581J0000000D01*
G01*
X0472695Y0246240D01*
G75*
G02*
X0473275Y0245659I0000000J-000581D01*
G01*
X0473275Y0244301D01*
G75*
G02*
X0472695Y0243720I-000581J0000000D01*
G01*
X0471533Y0243720D01*
G75*
G02*
X0470953Y0244301I0000000J0000581D01*
G01*
G37*
G36*
G01*
X0474772Y0244301D02*
X0474772Y0245659D01*
G75*
G02*
X0475352Y0246240I0000581J0000000D01*
G01*
X0476514Y0246240D01*
G75*
G02*
X0477094Y0245659I0000000J-000581D01*
G01*
X0477094Y0244301D01*
G75*
G02*
X0476514Y0243720I-000581J0000000D01*
G01*
X0475352Y0243720D01*
G75*
G02*
X0474772Y0244301I0000000J0000581D01*
G01*
G37*
G36*
G01*
X0499506Y0218189D02*
X0498148Y0218189D01*
G75*
G02*
X0497567Y0218770I0000000J0000581D01*
G01*
X0497567Y0219931D01*
G75*
G02*
X0498148Y0220512I0000581J0000000D01*
G01*
X0499506Y0220512D01*
G75*
G02*
X0500087Y0219931I0000000J-000581D01*
G01*
X0500087Y0218770D01*
G75*
G02*
X0499506Y0218189I-000581J0000000D01*
G01*
G37*
G36*
G01*
X0499506Y0222008D02*
X0498148Y0222008D01*
G75*
G02*
X0497567Y0222588I0000000J0000581D01*
G01*
X0497567Y0223750D01*
G75*
G02*
X0498148Y0224331I0000581J0000000D01*
G01*
X0499506Y0224331D01*
G75*
G02*
X0500087Y0223750I0000000J-000581D01*
G01*
X0500087Y0222588D01*
G75*
G02*
X0499506Y0222008I-000581J0000000D01*
G01*
G37*
G36*
G01*
X0498148Y0216850D02*
X0499506Y0216850D01*
G75*
G02*
X0500087Y0216270I0000000J-000581D01*
G01*
X0500087Y0215108D01*
G75*
G02*
X0499506Y0214527I-000581J0000000D01*
G01*
X0498148Y0214527D01*
G75*
G02*
X0497567Y0215108I0000000J0000581D01*
G01*
X0497567Y0216270D01*
G75*
G02*
X0498148Y0216850I0000581J0000000D01*
G01*
G37*
G36*
G01*
X0498148Y0213031D02*
X0499506Y0213031D01*
G75*
G02*
X0500087Y0212451I0000000J-000581D01*
G01*
X0500087Y0211289D01*
G75*
G02*
X0499506Y0210709I-000581J0000000D01*
G01*
X0498148Y0210709D01*
G75*
G02*
X0497567Y0211289I0000000J0000581D01*
G01*
X0497567Y0212451D01*
G75*
G02*
X0498148Y0213031I0000581J0000000D01*
G01*
G37*
G36*
G01*
X0470953Y0248041D02*
X0470953Y0249400D01*
G75*
G02*
X0471533Y0249980I0000581J0000000D01*
G01*
X0472695Y0249980D01*
G75*
G02*
X0473275Y0249400I0000000J-000581D01*
G01*
X0473275Y0248041D01*
G75*
G02*
X0472695Y0247461I-000581J0000000D01*
G01*
X0471533Y0247461D01*
G75*
G02*
X0470953Y0248041I0000000J0000581D01*
G01*
G37*
G36*
G01*
X0474772Y0248041D02*
X0474772Y0249400D01*
G75*
G02*
X0475352Y0249980I0000581J0000000D01*
G01*
X0476514Y0249980D01*
G75*
G02*
X0477094Y0249400I0000000J-000581D01*
G01*
X0477094Y0248041D01*
G75*
G02*
X0476514Y0247461I-000581J0000000D01*
G01*
X0475352Y0247461D01*
G75*
G02*
X0474772Y0248041I0000000J0000581D01*
G01*
G37*
D351*
X0519791Y0258720D03*
X0516051Y0258720D03*
X0512311Y0258720D03*
X0512311Y0269035D03*
X0519791Y0269035D03*
G36*
G01*
X0502085Y0224232D02*
X0503443Y0224232D01*
G75*
G02*
X0504024Y0223651I0000000J-000581D01*
G01*
X0504024Y0222490D01*
G75*
G02*
X0503443Y0221909I-000581J0000000D01*
G01*
X0502085Y0221909D01*
G75*
G02*
X0501504Y0222490I0000000J0000581D01*
G01*
X0501504Y0223651D01*
G75*
G02*
X0502085Y0224232I0000581J0000000D01*
G01*
G37*
G36*
G01*
X0502085Y0220413D02*
X0503443Y0220413D01*
G75*
G02*
X0504024Y0219833I0000000J-000581D01*
G01*
X0504024Y0218671D01*
G75*
G02*
X0503443Y0218090I-000581J0000000D01*
G01*
X0502085Y0218090D01*
G75*
G02*
X0501504Y0218671I0000000J0000581D01*
G01*
X0501504Y0219833D01*
G75*
G02*
X0502085Y0220413I0000581J0000000D01*
G01*
G37*
G36*
G01*
X0506189Y0236821D02*
X0506189Y0238179D01*
G75*
G02*
X0506770Y0238760I0000581J0000000D01*
G01*
X0507931Y0238760D01*
G75*
G02*
X0508512Y0238179I0000000J-000581D01*
G01*
X0508512Y0236821D01*
G75*
G02*
X0507931Y0236240I-000581J0000000D01*
G01*
X0506770Y0236240D01*
G75*
G02*
X0506189Y0236821I0000000J0000581D01*
G01*
G37*
G36*
G01*
X0510008Y0236821D02*
X0510008Y0238179D01*
G75*
G02*
X0510588Y0238760I0000581J0000000D01*
G01*
X0511750Y0238760D01*
G75*
G02*
X0512331Y0238179I0000000J-000581D01*
G01*
X0512331Y0236821D01*
G75*
G02*
X0511750Y0236240I-000581J0000000D01*
G01*
X0510588Y0236240D01*
G75*
G02*
X0510008Y0236821I0000000J0000581D01*
G01*
G37*
G36*
G01*
X0485756Y0245659D02*
X0485756Y0244301D01*
G75*
G02*
X0485175Y0243720I-000581J0000000D01*
G01*
X0484014Y0243720D01*
G75*
G02*
X0483433Y0244301I0000000J0000581D01*
G01*
X0483433Y0245659D01*
G75*
G02*
X0484014Y0246240I0000581J0000000D01*
G01*
X0485175Y0246240D01*
G75*
G02*
X0485756Y0245659I0000000J-000581D01*
G01*
G37*
G36*
G01*
X0481937Y0245659D02*
X0481937Y0244301D01*
G75*
G02*
X0481356Y0243720I-000581J0000000D01*
G01*
X0480195Y0243720D01*
G75*
G02*
X0479614Y0244301I0000000J0000581D01*
G01*
X0479614Y0245659D01*
G75*
G02*
X0480195Y0246240I0000581J0000000D01*
G01*
X0481356Y0246240D01*
G75*
G02*
X0481937Y0245659I0000000J-000581D01*
G01*
G37*
G36*
G01*
X0486711Y0202539D02*
X0485352Y0202539D01*
G75*
G02*
X0484772Y0203120I0000000J0000581D01*
G01*
X0484772Y0204281D01*
G75*
G02*
X0485352Y0204862I0000581J0000000D01*
G01*
X0486711Y0204862D01*
G75*
G02*
X0487291Y0204281I0000000J-000581D01*
G01*
X0487291Y0203120D01*
G75*
G02*
X0486711Y0202539I-000581J0000000D01*
G01*
G37*
G36*
G01*
X0486711Y0206358D02*
X0485352Y0206358D01*
G75*
G02*
X0484772Y0206939I0000000J0000581D01*
G01*
X0484772Y0208100D01*
G75*
G02*
X0485352Y0208681I0000581J0000000D01*
G01*
X0486711Y0208681D01*
G75*
G02*
X0487291Y0208100I0000000J-000581D01*
G01*
X0487291Y0206939D01*
G75*
G02*
X0486711Y0206358I-000581J0000000D01*
G01*
G37*
G36*
G01*
X0486711Y0194961D02*
X0485352Y0194961D01*
G75*
G02*
X0484772Y0195541I0000000J0000581D01*
G01*
X0484772Y0196703D01*
G75*
G02*
X0485352Y0197283I0000581J0000000D01*
G01*
X0486711Y0197283D01*
G75*
G02*
X0487291Y0196703I0000000J-000581D01*
G01*
X0487291Y0195541D01*
G75*
G02*
X0486711Y0194961I-000581J0000000D01*
G01*
G37*
G36*
G01*
X0486711Y0198779D02*
X0485352Y0198779D01*
G75*
G02*
X0484772Y0199360I0000000J0000581D01*
G01*
X0484772Y0200522D01*
G75*
G02*
X0485352Y0201102I0000581J0000000D01*
G01*
X0486711Y0201102D01*
G75*
G02*
X0487291Y0200522I0000000J-000581D01*
G01*
X0487291Y0199360D01*
G75*
G02*
X0486711Y0198779I-000581J0000000D01*
G01*
G37*
G36*
G01*
X0485756Y0249400D02*
X0485756Y0248041D01*
G75*
G02*
X0485175Y0247461I-000581J0000000D01*
G01*
X0484014Y0247461D01*
G75*
G02*
X0483433Y0248041I0000000J0000581D01*
G01*
X0483433Y0249400D01*
G75*
G02*
X0484014Y0249980I0000581J0000000D01*
G01*
X0485175Y0249980D01*
G75*
G02*
X0485756Y0249400I0000000J-000581D01*
G01*
G37*
G36*
G01*
X0481937Y0249400D02*
X0481937Y0248041D01*
G75*
G02*
X0481356Y0247461I-000581J0000000D01*
G01*
X0480195Y0247461D01*
G75*
G02*
X0479614Y0248041I0000000J0000581D01*
G01*
X0479614Y0249400D01*
G75*
G02*
X0480195Y0249980I0000581J0000000D01*
G01*
X0481356Y0249980D01*
G75*
G02*
X0481937Y0249400I0000000J-000581D01*
G01*
G37*
G36*
G01*
X0495569Y0215039D02*
X0494211Y0215039D01*
G75*
G02*
X0493630Y0215620I0000000J0000581D01*
G01*
X0493630Y0216781D01*
G75*
G02*
X0494211Y0217362I0000581J0000000D01*
G01*
X0495569Y0217362D01*
G75*
G02*
X0496149Y0216781I0000000J-000581D01*
G01*
X0496149Y0215620D01*
G75*
G02*
X0495569Y0215039I-000581J0000000D01*
G01*
G37*
G36*
G01*
X0495569Y0218858D02*
X0494211Y0218858D01*
G75*
G02*
X0493630Y0219439I0000000J0000581D01*
G01*
X0493630Y0220600D01*
G75*
G02*
X0494211Y0221181I0000581J0000000D01*
G01*
X0495569Y0221181D01*
G75*
G02*
X0496149Y0220600I0000000J-000581D01*
G01*
X0496149Y0219439D01*
G75*
G02*
X0495569Y0218858I-000581J0000000D01*
G01*
G37*
G36*
G01*
X0485756Y0253140D02*
X0485756Y0251781D01*
G75*
G02*
X0485175Y0251201I-000581J0000000D01*
G01*
X0484014Y0251201D01*
G75*
G02*
X0483433Y0251781I0000000J0000581D01*
G01*
X0483433Y0253140D01*
G75*
G02*
X0484014Y0253720I0000581J0000000D01*
G01*
X0485175Y0253720D01*
G75*
G02*
X0485756Y0253140I0000000J-000581D01*
G01*
G37*
G36*
G01*
X0481937Y0253140D02*
X0481937Y0251781D01*
G75*
G02*
X0481356Y0251201I-000581J0000000D01*
G01*
X0480195Y0251201D01*
G75*
G02*
X0479614Y0251781I0000000J0000581D01*
G01*
X0479614Y0253140D01*
G75*
G02*
X0480195Y0253720I0000581J0000000D01*
G01*
X0481356Y0253720D01*
G75*
G02*
X0481937Y0253140I0000000J-000581D01*
G01*
G37*
G36*
G01*
X0477094Y0253140D02*
X0477094Y0251781D01*
G75*
G02*
X0476514Y0251201I-000581J0000000D01*
G01*
X0475352Y0251201D01*
G75*
G02*
X0474772Y0251781I0000000J0000581D01*
G01*
X0474772Y0253140D01*
G75*
G02*
X0475352Y0253720I0000581J0000000D01*
G01*
X0476514Y0253720D01*
G75*
G02*
X0477094Y0253140I0000000J-000581D01*
G01*
G37*
G36*
G01*
X0473275Y0253140D02*
X0473275Y0251781D01*
G75*
G02*
X0472695Y0251201I-000581J0000000D01*
G01*
X0471533Y0251201D01*
G75*
G02*
X0470953Y0251781I0000000J0000581D01*
G01*
X0470953Y0253140D01*
G75*
G02*
X0471533Y0253720I0000581J0000000D01*
G01*
X0472695Y0253720D01*
G75*
G02*
X0473275Y0253140I0000000J-000581D01*
G01*
G37*
G36*
G01*
X0482901Y0267953D02*
X0484240Y0267953D01*
G75*
G02*
X0484791Y0267402I0000000J-000551D01*
G01*
X0484791Y0266299D01*
G75*
G02*
X0484240Y0265748I-000551J0000000D01*
G01*
X0482901Y0265748D01*
G75*
G02*
X0482350Y0266299I0000000J0000551D01*
G01*
X0482350Y0267402D01*
G75*
G02*
X0482901Y0267953I0000551J0000000D01*
G01*
G37*
G36*
G01*
X0482901Y0264173D02*
X0484240Y0264173D01*
G75*
G02*
X0484791Y0263622I0000000J-000551D01*
G01*
X0484791Y0262520D01*
G75*
G02*
X0484240Y0261969I-000551J0000000D01*
G01*
X0482901Y0261969D01*
G75*
G02*
X0482350Y0262520I0000000J0000551D01*
G01*
X0482350Y0263622D01*
G75*
G02*
X0482901Y0264173I0000551J0000000D01*
G01*
G37*
G36*
G01*
X0509161Y0213012D02*
X0507705Y0213012D01*
G75*
G02*
X0507173Y0213543I0000000J0000531D01*
G01*
X0507173Y0214606D01*
G75*
G02*
X0507705Y0215138I0000531J0000000D01*
G01*
X0509161Y0215138D01*
G75*
G02*
X0509693Y0214606I0000000J-000531D01*
G01*
X0509693Y0213543D01*
G75*
G02*
X0509161Y0213012I-000531J0000000D01*
G01*
G37*
G36*
G01*
X0509161Y0217027D02*
X0507705Y0217027D01*
G75*
G02*
X0507173Y0217559I0000000J0000531D01*
G01*
X0507173Y0218622D01*
G75*
G02*
X0507705Y0219153I0000531J0000000D01*
G01*
X0509161Y0219153D01*
G75*
G02*
X0509693Y0218622I0000000J-000531D01*
G01*
X0509693Y0217559D01*
G75*
G02*
X0509161Y0217027I-000531J0000000D01*
G01*
G37*
G36*
G01*
X0494628Y0273740D02*
X0494628Y0275197D01*
G75*
G02*
X0495160Y0275728I0000531J0000000D01*
G01*
X0496223Y0275728D01*
G75*
G02*
X0496754Y0275197I0000000J-000531D01*
G01*
X0496754Y0273740D01*
G75*
G02*
X0496223Y0273209I-000531J0000000D01*
G01*
X0495160Y0273209D01*
G75*
G02*
X0494628Y0273740I0000000J0000531D01*
G01*
G37*
G36*
G01*
X0498644Y0273740D02*
X0498644Y0275197D01*
G75*
G02*
X0499176Y0275728I0000531J0000000D01*
G01*
X0500239Y0275728D01*
G75*
G02*
X0500770Y0275197I0000000J-000531D01*
G01*
X0500770Y0273740D01*
G75*
G02*
X0500239Y0273209I-000531J0000000D01*
G01*
X0499176Y0273209D01*
G75*
G02*
X0498644Y0273740I0000000J0000531D01*
G01*
G37*
G36*
G01*
X0470677Y0273130D02*
X0471858Y0273130D01*
G75*
G02*
X0472449Y0272539I0000000J-000591D01*
G01*
X0472449Y0267913D01*
G75*
G02*
X0471858Y0267323I-000591J0000000D01*
G01*
X0470677Y0267323D01*
G75*
G02*
X0470087Y0267913I0000000J0000591D01*
G01*
X0470087Y0272539D01*
G75*
G02*
X0470677Y0273130I0000591J0000000D01*
G01*
G37*
G36*
G01*
X0478157Y0273130D02*
X0479338Y0273130D01*
G75*
G02*
X0479929Y0272539I0000000J-000591D01*
G01*
X0479929Y0267913D01*
G75*
G02*
X0479338Y0267323I-000591J0000000D01*
G01*
X0478157Y0267323D01*
G75*
G02*
X0477567Y0267913I0000000J0000591D01*
G01*
X0477567Y0272539D01*
G75*
G02*
X0478157Y0273130I0000591J0000000D01*
G01*
G37*
G36*
G01*
X0474417Y0265748D02*
X0475598Y0265748D01*
G75*
G02*
X0476189Y0265157I0000000J-000591D01*
G01*
X0476189Y0260531D01*
G75*
G02*
X0475598Y0259941I-000591J0000000D01*
G01*
X0474417Y0259941D01*
G75*
G02*
X0473827Y0260531I0000000J0000591D01*
G01*
X0473827Y0265157D01*
G75*
G02*
X0474417Y0265748I0000591J0000000D01*
G01*
G37*
G36*
G01*
X0508609Y0275177D02*
X0508609Y0273838D01*
G75*
G02*
X0508057Y0273287I-000551J0000000D01*
G01*
X0506955Y0273287D01*
G75*
G02*
X0506404Y0273838I0000000J0000551D01*
G01*
X0506404Y0275177D01*
G75*
G02*
X0506955Y0275728I0000551J0000000D01*
G01*
X0508057Y0275728D01*
G75*
G02*
X0508609Y0275177I0000000J-000551D01*
G01*
G37*
G36*
G01*
X0504829Y0275177D02*
X0504829Y0273838D01*
G75*
G02*
X0504278Y0273287I-000551J0000000D01*
G01*
X0503176Y0273287D01*
G75*
G02*
X0502624Y0273838I0000000J0000551D01*
G01*
X0502624Y0275177D01*
G75*
G02*
X0503176Y0275728I0000551J0000000D01*
G01*
X0504278Y0275728D01*
G75*
G02*
X0504829Y0275177I0000000J-000551D01*
G01*
G37*
G36*
G01*
X0505538Y0244390D02*
X0504357Y0244390D01*
G75*
G02*
X0503766Y0244980I0000000J0000591D01*
G01*
X0503766Y0250689D01*
G75*
G02*
X0504357Y0251279I0000591J0000000D01*
G01*
X0505538Y0251279D01*
G75*
G02*
X0506128Y0250689I0000000J-000591D01*
G01*
X0506128Y0244980D01*
G75*
G02*
X0505538Y0244390I-000591J0000000D01*
G01*
G37*
G36*
G01*
X0500538Y0244390D02*
X0499357Y0244390D01*
G75*
G02*
X0498766Y0244980I0000000J0000591D01*
G01*
X0498766Y0250689D01*
G75*
G02*
X0499357Y0251279I0000591J0000000D01*
G01*
X0500538Y0251279D01*
G75*
G02*
X0501128Y0250689I0000000J-000591D01*
G01*
X0501128Y0244980D01*
G75*
G02*
X0500538Y0244390I-000591J0000000D01*
G01*
G37*
G36*
G01*
X0495538Y0244390D02*
X0494357Y0244390D01*
G75*
G02*
X0493766Y0244980I0000000J0000591D01*
G01*
X0493766Y0250689D01*
G75*
G02*
X0494357Y0251279I0000591J0000000D01*
G01*
X0495538Y0251279D01*
G75*
G02*
X0496128Y0250689I0000000J-000591D01*
G01*
X0496128Y0244980D01*
G75*
G02*
X0495538Y0244390I-000591J0000000D01*
G01*
G37*
G36*
G01*
X0490538Y0244390D02*
X0489357Y0244390D01*
G75*
G02*
X0488766Y0244980I0000000J0000591D01*
G01*
X0488766Y0250689D01*
G75*
G02*
X0489357Y0251279I0000591J0000000D01*
G01*
X0490538Y0251279D01*
G75*
G02*
X0491128Y0250689I0000000J-000591D01*
G01*
X0491128Y0244980D01*
G75*
G02*
X0490538Y0244390I-000591J0000000D01*
G01*
G37*
G36*
G01*
X0490538Y0264665D02*
X0489357Y0264665D01*
G75*
G02*
X0488766Y0265256I0000000J0000591D01*
G01*
X0488766Y0270964D01*
G75*
G02*
X0489357Y0271555I0000591J0000000D01*
G01*
X0490538Y0271555D01*
G75*
G02*
X0491128Y0270964I0000000J-000591D01*
G01*
X0491128Y0265256D01*
G75*
G02*
X0490538Y0264665I-000591J0000000D01*
G01*
G37*
G36*
G01*
X0495538Y0264665D02*
X0494357Y0264665D01*
G75*
G02*
X0493766Y0265256I0000000J0000591D01*
G01*
X0493766Y0270964D01*
G75*
G02*
X0494357Y0271555I0000591J0000000D01*
G01*
X0495538Y0271555D01*
G75*
G02*
X0496128Y0270964I0000000J-000591D01*
G01*
X0496128Y0265256D01*
G75*
G02*
X0495538Y0264665I-000591J0000000D01*
G01*
G37*
G36*
G01*
X0500538Y0264665D02*
X0499357Y0264665D01*
G75*
G02*
X0498766Y0265256I0000000J0000591D01*
G01*
X0498766Y0270964D01*
G75*
G02*
X0499357Y0271555I0000591J0000000D01*
G01*
X0500538Y0271555D01*
G75*
G02*
X0501128Y0270964I0000000J-000591D01*
G01*
X0501128Y0265256D01*
G75*
G02*
X0500538Y0264665I-000591J0000000D01*
G01*
G37*
G36*
G01*
X0505538Y0264665D02*
X0504357Y0264665D01*
G75*
G02*
X0503766Y0265256I0000000J0000591D01*
G01*
X0503766Y0270964D01*
G75*
G02*
X0504357Y0271555I0000591J0000000D01*
G01*
X0505538Y0271555D01*
G75*
G02*
X0506128Y0270964I0000000J-000591D01*
G01*
X0506128Y0265256D01*
G75*
G02*
X0505538Y0264665I-000591J0000000D01*
G01*
G37*
X0322252Y0254724D02*
G01*
G75*
D68*
X0268905Y0113385D02*
D03*
D67*
X0282685Y0113385D02*
D03*
D70*
X0188787Y0219488D02*
D03*
D65*
X0230520Y0113385D02*
D03*
X0314772Y0254330D02*
D03*
D66*
X0200992Y0254330D02*
D03*
X0306504Y0113385D02*
D03*
D63*
X0321858Y0218700D02*
D03*
D64*
X0321858Y0250196D02*
D03*
D62*
X0321858Y0164960D02*
D03*
D71*
X0188787Y0242322D02*
D03*
D69*
X0188787Y0126771D02*
D03*
D60*
X0321858Y0147441D02*
D03*
X0321858Y0123425D02*
D03*
D61*
X0321858Y0135433D02*
D03*
X0188787Y0161023D02*
D03*
D427*
X0270283Y0169685D02*
D03*
X0270283Y0194980D02*
D03*
X0270283Y0179724D02*
D03*
X0270283Y0184940D02*
D03*
X0277370Y0154429D02*
D03*
X0270283Y0154429D02*
D03*
X0270283Y0164468D02*
D03*
X0277370Y0164468D02*
D03*
X0277370Y0194980D02*
D03*
X0277370Y0184940D02*
D03*
X0277370Y0179724D02*
D03*
X0277370Y0169685D02*
D03*
D428*
X0270283Y0173130D02*
D03*
X0270283Y0188385D02*
D03*
X0270283Y0176279D02*
D03*
X0270283Y0191535D02*
D03*
X0270283Y0161023D02*
D03*
X0270283Y0157874D02*
D03*
X0277370Y0157874D02*
D03*
X0277370Y0161023D02*
D03*
X0277370Y0188385D02*
D03*
X0277370Y0191535D02*
D03*
X0277370Y0173130D02*
D03*
X0277370Y0176279D02*
D03*
D431*
X0268315Y0116535D02*
D03*
X0272252Y0116535D02*
D03*
X0273827Y0120078D02*
D03*
X0277764Y0120078D02*
D03*
X0265953Y0137401D02*
D03*
X0269890Y0137401D02*
D03*
X0237300Y0195103D02*
D03*
X0241237Y0195103D02*
D03*
X0245496Y0195103D02*
D03*
X0249433Y0195103D02*
D03*
X0288818Y0162636D02*
D03*
X0292755Y0162636D02*
D03*
X0288818Y0166359D02*
D03*
X0292755Y0166359D02*
D03*
X0291234Y0129527D02*
D03*
X0287297Y0129527D02*
D03*
X0202600Y0118594D02*
D03*
X0238348Y0118833D02*
D03*
X0223433Y0195103D02*
D03*
X0255717Y0140945D02*
D03*
X0255717Y0145275D02*
D03*
X0259147Y0149494D02*
D03*
X0270424Y0149439D02*
D03*
X0250008Y0179099D02*
D03*
X0258797Y0179099D02*
D03*
X0262734Y0187584D02*
D03*
X0197817Y0217450D02*
D03*
X0223433Y0199606D02*
D03*
X0264378Y0116535D02*
D03*
X0277764Y0149530D02*
D03*
X0299417Y0148132D02*
D03*
X0313482Y0148132D02*
D03*
X0299417Y0152362D02*
D03*
X0313482Y0152362D02*
D03*
X0273779Y0199270D02*
D03*
X0318315Y0201181D02*
D03*
X0251780Y0140945D02*
D03*
X0262734Y0179099D02*
D03*
X0253945Y0179099D02*
D03*
X0253945Y0183587D02*
D03*
X0250008Y0183587D02*
D03*
X0195874Y0203543D02*
D03*
X0199811Y0203543D02*
D03*
X0201754Y0217450D02*
D03*
X0287199Y0146626D02*
D03*
X0291136Y0146626D02*
D03*
X0317420Y0148132D02*
D03*
X0273827Y0149530D02*
D03*
X0258797Y0187584D02*
D03*
X0266487Y0149439D02*
D03*
X0263084Y0149494D02*
D03*
X0303354Y0152362D02*
D03*
X0277716Y0199270D02*
D03*
X0314378Y0201181D02*
D03*
X0242285Y0118833D02*
D03*
X0268315Y0116535D02*
D03*
X0295087Y0141559D02*
D03*
X0299024Y0141559D02*
D03*
X0303354Y0148132D02*
D03*
X0219496Y0199606D02*
D03*
X0219496Y0195103D02*
D03*
X0251780Y0145275D02*
D03*
X0206537Y0118594D02*
D03*
X0215853Y0118594D02*
D03*
X0211916Y0118594D02*
D03*
X0309545Y0152362D02*
D03*
X0318315Y0197244D02*
D03*
X0314378Y0197244D02*
D03*
X0318315Y0184842D02*
D03*
X0314378Y0184842D02*
D03*
X0318315Y0180708D02*
D03*
X0314378Y0180708D02*
D03*
X0318315Y0172440D02*
D03*
X0314378Y0172440D02*
D03*
X0318315Y0176574D02*
D03*
X0314378Y0176574D02*
D03*
X0318315Y0168307D02*
D03*
X0314378Y0168307D02*
D03*
X0318315Y0188976D02*
D03*
X0314378Y0188976D02*
D03*
X0318315Y0193110D02*
D03*
X0314378Y0193110D02*
D03*
D433*
X0263325Y0165748D02*
D03*
X0263325Y0161515D02*
D03*
X0217921Y0249606D02*
D03*
X0222646Y0249606D02*
D03*
X0227370Y0249606D02*
D03*
X0232094Y0249606D02*
D03*
X0302173Y0121259D02*
D03*
X0298039Y0121259D02*
D03*
X0206859Y0213480D02*
D03*
X0206859Y0209543D02*
D03*
X0317788Y0122441D02*
D03*
X0317788Y0126377D02*
D03*
X0263325Y0157578D02*
D03*
X0263325Y0169685D02*
D03*
X0211031Y0213976D02*
D03*
X0211031Y0210039D02*
D03*
X0235804Y0241752D02*
D03*
X0235804Y0237815D02*
D03*
X0232094Y0237815D02*
D03*
X0232094Y0241752D02*
D03*
X0232094Y0227165D02*
D03*
X0232094Y0231102D02*
D03*
X0232094Y0245669D02*
D03*
X0227370Y0245669D02*
D03*
X0217921Y0245669D02*
D03*
X0222646Y0245669D02*
D03*
X0316753Y0212475D02*
D03*
X0316753Y0208538D02*
D03*
X0266543Y0209448D02*
D03*
X0266543Y0213385D02*
D03*
X0266543Y0219685D02*
D03*
X0266543Y0223622D02*
D03*
X0294496Y0209448D02*
D03*
X0294496Y0213385D02*
D03*
X0271071Y0234842D02*
D03*
X0271071Y0230905D02*
D03*
X0300401Y0234842D02*
D03*
X0300401Y0230905D02*
D03*
X0313197Y0234842D02*
D03*
X0313197Y0230905D02*
D03*
X0296305Y0241752D02*
D03*
X0296305Y0245689D02*
D03*
X0317921Y0242126D02*
D03*
X0317921Y0238189D02*
D03*
X0317724Y0245275D02*
D03*
X0317724Y0249212D02*
D03*
X0317788Y0133967D02*
D03*
X0317788Y0130030D02*
D03*
X0302173Y0117322D02*
D03*
X0298039Y0117322D02*
D03*
X0294299Y0230905D02*
D03*
X0294299Y0234842D02*
D03*
X0289969Y0230905D02*
D03*
X0289969Y0234842D02*
D03*
X0281504Y0230905D02*
D03*
X0281504Y0234842D02*
D03*
X0277338Y0245689D02*
D03*
X0277338Y0241752D02*
D03*
X0238591Y0213385D02*
D03*
X0238591Y0209448D02*
D03*
X0308866Y0230905D02*
D03*
X0308866Y0234842D02*
D03*
X0258495Y0245689D02*
D03*
X0258495Y0241752D02*
D03*
X0262606Y0230905D02*
D03*
X0262606Y0234842D02*
D03*
X0275401Y0230905D02*
D03*
X0275401Y0234842D02*
D03*
X0239515Y0245689D02*
D03*
X0239515Y0241752D02*
D03*
X0243708Y0230905D02*
D03*
X0243708Y0234842D02*
D03*
X0252173Y0230905D02*
D03*
X0252173Y0234842D02*
D03*
X0256504Y0230905D02*
D03*
X0256504Y0234842D02*
D03*
X0238727Y0227165D02*
D03*
X0238727Y0231102D02*
D03*
D435*
X0282695Y0124468D02*
D03*
X0290435Y0133943D02*
D03*
X0308768Y0157313D02*
D03*
D438*
X0235047Y0125885D02*
D03*
X0241347Y0125885D02*
D03*
X0271661Y0124507D02*
D03*
X0277961Y0124507D02*
D03*
X0271661Y0129133D02*
D03*
X0277961Y0129133D02*
D03*
D435*
X0299516Y0161054D02*
D03*
X0290435Y0141423D02*
D03*
X0281183Y0137683D02*
D03*
X0282695Y0116988D02*
D03*
X0291947Y0120728D02*
D03*
X0308768Y0164794D02*
D03*
D459*
X0274221Y0134330D02*
D03*
X0274221Y0140551D02*
D03*
D460*
X0244791Y0205118D02*
D03*
X0244791Y0212204D02*
D03*
X0254831Y0212204D02*
D03*
X0254831Y0205118D02*
D03*
X0272744Y0212204D02*
D03*
X0300697Y0212204D02*
D03*
X0282783Y0216141D02*
D03*
X0227665Y0241338D02*
D03*
X0227665Y0234252D02*
D03*
X0217626Y0234252D02*
D03*
X0217626Y0241338D02*
D03*
X0310736Y0223228D02*
D03*
X0310736Y0216141D02*
D03*
X0300697Y0216141D02*
D03*
X0300697Y0223228D02*
D03*
X0300697Y0205118D02*
D03*
X0310736Y0212204D02*
D03*
X0310736Y0205118D02*
D03*
X0282783Y0223228D02*
D03*
X0272744Y0216141D02*
D03*
X0272744Y0223228D02*
D03*
X0272744Y0205118D02*
D03*
X0282783Y0212204D02*
D03*
X0282783Y0205118D02*
D03*
X0281799Y0247047D02*
D03*
X0281799Y0239960D02*
D03*
X0291839Y0239960D02*
D03*
X0291839Y0247047D02*
D03*
X0300697Y0247047D02*
D03*
X0300697Y0239960D02*
D03*
X0310736Y0239960D02*
D03*
X0310736Y0247047D02*
D03*
X0262901Y0247047D02*
D03*
X0262901Y0239960D02*
D03*
X0272941Y0239960D02*
D03*
X0272941Y0247047D02*
D03*
X0244004Y0247047D02*
D03*
X0244004Y0239960D02*
D03*
X0254043Y0239960D02*
D03*
X0254043Y0247047D02*
D03*
X0244791Y0223228D02*
D03*
X0244791Y0216141D02*
D03*
X0254831Y0216141D02*
D03*
X0254831Y0223228D02*
D03*
X0217232Y0223228D02*
D03*
X0217232Y0216141D02*
D03*
X0227272Y0216141D02*
D03*
X0227272Y0223228D02*
D03*
X0227272Y0205118D02*
D03*
X0227272Y0212204D02*
D03*
X0217232Y0212204D02*
D03*
X0217232Y0205118D02*
D03*
D461*
X0251386Y0212204D02*
D03*
X0248236Y0212204D02*
D03*
X0248236Y0205118D02*
D03*
X0251386Y0205118D02*
D03*
X0276189Y0212204D02*
D03*
X0304142Y0212204D02*
D03*
X0279339Y0216141D02*
D03*
X0221071Y0234252D02*
D03*
X0224220Y0234252D02*
D03*
X0224220Y0241338D02*
D03*
X0221071Y0241338D02*
D03*
X0304142Y0216141D02*
D03*
X0307291Y0216141D02*
D03*
X0307291Y0223228D02*
D03*
X0304142Y0223228D02*
D03*
X0307291Y0212204D02*
D03*
X0304142Y0205118D02*
D03*
X0307291Y0205118D02*
D03*
X0276189Y0216141D02*
D03*
X0279339Y0223228D02*
D03*
X0276189Y0223228D02*
D03*
X0279338Y0212204D02*
D03*
X0276189Y0205118D02*
D03*
X0279338Y0205118D02*
D03*
X0285244Y0247047D02*
D03*
X0288394Y0247047D02*
D03*
X0288394Y0239960D02*
D03*
X0285244Y0239960D02*
D03*
X0304141Y0247047D02*
D03*
X0307291Y0247047D02*
D03*
X0307291Y0239960D02*
D03*
X0304141Y0239960D02*
D03*
X0266346Y0247047D02*
D03*
X0269496Y0247047D02*
D03*
X0269496Y0239960D02*
D03*
X0266346Y0239960D02*
D03*
X0247449Y0247047D02*
D03*
X0250598Y0247047D02*
D03*
X0250598Y0239960D02*
D03*
X0247449Y0239960D02*
D03*
X0248236Y0223228D02*
D03*
X0251386Y0223228D02*
D03*
X0251386Y0216141D02*
D03*
X0248236Y0216141D02*
D03*
X0220677Y0223228D02*
D03*
X0223827Y0223228D02*
D03*
X0223827Y0216141D02*
D03*
X0220677Y0216141D02*
D03*
X0223827Y0205118D02*
D03*
X0220677Y0205118D02*
D03*
X0220677Y0212204D02*
D03*
X0223827Y0212204D02*
D03*
D462*
X0212449Y0127854D02*
D03*
X0212449Y0122864D02*
D03*
X0218669Y0122864D02*
D03*
X0218669Y0127854D02*
D03*
D463*
X0199811Y0134744D02*
D03*
X0232488Y0134744D02*
D03*
X0199811Y0188877D02*
D03*
X0232488Y0188877D02*
D03*
D464*
X0210047Y0152775D02*
D03*
X0210047Y0144114D02*
D03*
X0210047Y0148444D02*
D03*
X0210047Y0157106D02*
D03*
X0210047Y0161437D02*
D03*
X0210047Y0165767D02*
D03*
X0210047Y0170098D02*
D03*
X0210047Y0174429D02*
D03*
D465*
X0191740Y0233385D02*
D03*
X0204944Y0233385D02*
D03*
X0199221Y0241417D02*
D03*
X0212424Y0241417D02*
D03*
X0195480Y0224133D02*
D03*
X0208684Y0224133D02*
D03*
X0208684Y0250669D02*
D03*
X0296858Y0135748D02*
D03*
X0300598Y0126496D02*
D03*
X0195480Y0250669D02*
D03*
D248*
X0197817Y0207612D02*
D03*
X0201754Y0207612D02*
D03*
X0197817Y0213616D02*
D03*
X0199785Y0213616D02*
D03*
X0199785Y0207612D02*
D03*
X0201754Y0213616D02*
D03*
D466*
X0288382Y0150964D02*
D03*
X0293500Y0150964D02*
D03*
X0290941Y0150964D02*
D03*
X0288382Y0158445D02*
D03*
X0293500Y0158445D02*
D03*
D251*
X0285165Y0170472D02*
D03*
X0308157Y0173031D02*
D03*
X0308157Y0170472D02*
D03*
X0285165Y0193503D02*
D03*
X0308157Y0196062D02*
D03*
X0308157Y0198622D02*
D03*
X0308157Y0193503D02*
D03*
X0308157Y0190944D02*
D03*
X0308157Y0188385D02*
D03*
X0308157Y0185826D02*
D03*
X0308157Y0183267D02*
D03*
X0308157Y0180708D02*
D03*
X0308157Y0178149D02*
D03*
X0308157Y0175590D02*
D03*
X0285165Y0198622D02*
D03*
X0285165Y0196062D02*
D03*
X0285165Y0190944D02*
D03*
X0285165Y0188385D02*
D03*
X0285165Y0185826D02*
D03*
X0285165Y0183267D02*
D03*
X0285165Y0180708D02*
D03*
X0285165Y0178149D02*
D03*
X0285165Y0175590D02*
D03*
X0285165Y0173031D02*
D03*
D467*
X0311228Y0132885D02*
D03*
X0311228Y0121467D02*
D03*
D468*
X0253138Y0130750D02*
D03*
X0266130Y0130750D02*
D03*
X0317215Y0141950D02*
D03*
X0304223Y0141950D02*
D03*
D253*
X0254363Y0156155D02*
D03*
X0254363Y0170722D02*
D03*
D254*
X0202787Y0211598D02*
D03*
X0202787Y0209630D02*
D03*
X0196783Y0209630D02*
D03*
X0196783Y0211598D02*
D03*
D469*
X0267774Y0143632D02*
D03*
X0261869Y0143632D02*
D03*
D465*
X0199221Y0233385D02*
D03*
X0212424Y0233385D02*
D03*
X0204944Y0241417D02*
D03*
X0304339Y0135748D02*
D03*
X0191740Y0241417D02*
D03*
D256*
X0264971Y0194291D02*
D03*
X0258278Y0194291D02*
D03*
D470*
X0248610Y0120754D02*
D03*
X0260027Y0120754D02*
D03*
D471*
X0317527Y0155118D02*
D03*
X0317527Y0161417D02*
D03*
M02*
