M48
INCH,TZ
T01C0.013750
T02C0.025600
T03C0.032500
T04C0.039200
T05C0.045250
T06C0.059100
T07C0.070900
T08C0.119050
T09C0.169300
T10C0.189000
%
T01
X10769Y23580
X11113Y23374
X11202Y25273
X11231Y23876
X6339Y40923
X6687Y41159
X7937Y41169
X9026Y41169
X10267Y41169
X10621Y27635
X11192Y27596
X11342Y41169
X14282Y25687
X14666Y37015
X14715Y21128
X14715Y20844
X14735Y20322
X14774Y27593
X17934Y34092
X18032Y12763
X18298Y16553
X18308Y16169
X18347Y12616
X18682Y12527
X20372Y14687
X20822Y14415
X22127Y13206
X22412Y13265
X23059Y14915
X23459Y12215
X23598Y5101
X23959Y12215
X24041Y5101
X24435Y5101
X25016Y13310
X25759Y13147
X26044Y13315
X26459Y14815
X26659Y12215
X26959Y14815
X28059Y12215
X30059Y14815
X30559Y14815
X31059Y14815
X35207Y32891
X35207Y31907
X35207Y30933
X37757Y43945
X43475Y43984
X46320Y43964
X49154Y43974
X51999Y43945
X14580Y44196
X14973Y44196
X16099Y38516
X16572Y38516
X17044Y38516
X17517Y38516
X18957Y24830
X18957Y24515
X18957Y24200
X18957Y23885
X18957Y23571
X18957Y23256
X18957Y22941
X18957Y22626
X18957Y22311
X18957Y21996
X18957Y21681
X18957Y21366
X18957Y21051
X18957Y20736
X18957Y20106
X18957Y19555
X18957Y19240
X18957Y18925
X18957Y18610
X18957Y18295
X18957Y17980
X18957Y26523
X18957Y20421
X19115Y15145
X19141Y44210
X19430Y15145
X19534Y44210
X19745Y15145
X20060Y15145
X20375Y15145
X20660Y38531
X20690Y15145
X21005Y15145
X21133Y38531
X21320Y15145
X21556Y29082
X21605Y38531
X21635Y15145
X21950Y15145
X22028Y29082
X22078Y38531
X22265Y15145
X22501Y29082
X22580Y15145
X22973Y29082
X23446Y29082
X23524Y15145
X23839Y15145
X23918Y29082
X24154Y15145
X24391Y29082
X24469Y15145
X24784Y15145
X24863Y29082
X25099Y15145
X25335Y29082
X25414Y15145
X25729Y15145
X25808Y29082
X26044Y15145
X26280Y29082
X26753Y29082
X27225Y29082
X27698Y29082
X27737Y15145
X28170Y29082
X28436Y11927
X28643Y29082
X28800Y15145
X28830Y11927
X29115Y29082
X29194Y15145
X29587Y29082
X30060Y29082
X30532Y29082
X31005Y29082
X31950Y29082
X32107Y28098
X32107Y27704
X32107Y23492
X32107Y23098
X32107Y22704
X32107Y22311
X32107Y21917
X32107Y21523
X32107Y21130
X32107Y20736
X32107Y19712
X32107Y19397
X32107Y17547
X32107Y16996
X32107Y15145
X39066Y30569
X39440Y30569
X39459Y33994
X39814Y33994
X39814Y30569
X47461Y21120
X47855Y21120
X48249Y21120
X48643Y21120
X49569Y31589
X49969Y31589
X50867Y31589
X51261Y31589
X51654Y31589
X845Y7082
X845Y6653
X845Y6224
X965Y45197
X965Y44767
X965Y44338
X965Y41122
X965Y40693
X965Y40263
X965Y37923
X965Y37494
X965Y37065
X1288Y7082
X1288Y6653
X1288Y6224
X1408Y45197
X1408Y44767
X1408Y44338
X1408Y41122
X1408Y40693
X1408Y40263
X1408Y37923
X1408Y37494
X1408Y37065
X1684Y15423
X1684Y14994
X1684Y14565
X2127Y15423
X2127Y14994
X2127Y14565
X2154Y20027
X2154Y19584
X2206Y34958
X2206Y34456
X2206Y33954
X2206Y33452
X2206Y32950
X2206Y32448
X2206Y31947
X2206Y31445
X2206Y30943
X2206Y30441
X2206Y29939
X2456Y5689
X2456Y5259
X2456Y4830
X2583Y20027
X2583Y19584
X2735Y27419
X2735Y26976
X2757Y29565
X2898Y5689
X2898Y5259
X2898Y4830
X3013Y20027
X3013Y19584
X3164Y27419
X3164Y26976
X3593Y27419
X3593Y26976
X3769Y13403
X3769Y12960
X3938Y28167
X3948Y28639
X4083Y33767
X4198Y13403
X4198Y12960
X4204Y44645
X4204Y44216
X4204Y43787
X4211Y34023
X4253Y43130
X4253Y42700
X4253Y42271
X4627Y13403
X4627Y12960
X4666Y44860
X4666Y44431
X4666Y44002
X4715Y43344
X4715Y42915
X4715Y42486
X4861Y33925
X4871Y27350
X5833Y43728
X5847Y40391
X6048Y43265
X6113Y37744
X6221Y36385
X6221Y35952
X6221Y35519
X6221Y34673
X6221Y34259
X6263Y43728
X6330Y38374
X6477Y43265
X6605Y40391
X6692Y43728
X6906Y43265
X7087Y28413
X7439Y27754
X7619Y40391
X7791Y28413
X7971Y37822
X8060Y38078
X8143Y27754
X8160Y43728
X8375Y43265
X8424Y39722
X8424Y39279
X8495Y28413
X8589Y43728
X8672Y40391
X8729Y37862
X8804Y43265
X8853Y39722
X8853Y39279
X9019Y43728
X9233Y43265
X9272Y40391
X9282Y39722
X9282Y39279
X9341Y38384
X9666Y36543
X9666Y34309
X9893Y38354
X10265Y32134
X10385Y43728
X10591Y36159
X10591Y35726
X10591Y35293
X10591Y34860
X10599Y43265
X10814Y43728
X10956Y40391
X11028Y43265
X11108Y26489
X11108Y26046
X11243Y43728
X11457Y43265
X11517Y12525
X11517Y12082
X11537Y26489
X11537Y26046
X11851Y46297
X11891Y30285
X11891Y29856
X11891Y29427
X11946Y12525
X11946Y12082
X11967Y26489
X11967Y26046
X12333Y30285
X12333Y29856
X12333Y29427
X12375Y12525
X12375Y12082
X12491Y40391
X12540Y32498
X12570Y35539
X12589Y33374
X13055Y10727
X13055Y10298
X13055Y9869
X13357Y42006
X13377Y43403
X13377Y40943
X13498Y10727
X13498Y10298
X13498Y9869
X13957Y46356
X14115Y33334
X14330Y32872
X14544Y33334
X14656Y37842
X14759Y32872
X14973Y33334
X15188Y32872
X15828Y37134
X15847Y46405
X19007Y37980
X19381Y36838
X19595Y36376
X19810Y36838
X19991Y37960
X20024Y36376
X20239Y36838
X20454Y36376
X20826Y9358
X20826Y8929
X20826Y8500
X21044Y37950
X21269Y9358
X21269Y8929
X21269Y8500
X23080Y51189
X23080Y50746
X23089Y50067
X23089Y49624
X23509Y51189
X23509Y50746
X23519Y50067
X23519Y49624
X23938Y51189
X23938Y50746
X23948Y50067
X23948Y49624
X24898Y43945
X25113Y43482
X25328Y43945
X25542Y43482
X25608Y5061
X25717Y50175
X25717Y49732
X25737Y51179
X25737Y50736
X25769Y43945
X25916Y43482
X26037Y5061
X26146Y50175
X26146Y49732
X26166Y51179
X26166Y50736
X26467Y5061
X26576Y50175
X26576Y49732
X26595Y51179
X26595Y50736
X27045Y5046
X27474Y5046
X27629Y43915
X27904Y5046
X27904Y43452
X27983Y36976
X27983Y36547
X27983Y36118
X28062Y43925
X28080Y51179
X28080Y50736
X28276Y43462
X28426Y36976
X28426Y36547
X28426Y36118
X28491Y43925
X28509Y51179
X28509Y50736
X28706Y43462
X28938Y51179
X28938Y50736
X31404Y43905
X31619Y43443
X31713Y10710
X31713Y10267
X31723Y40165
X31723Y39736
X31723Y39307
X31833Y43905
X31851Y37291
X31851Y36862
X31851Y36433
X32048Y43443
X32143Y10710
X32143Y10267
X32166Y40165
X32166Y39736
X32166Y39307
X32231Y7248
X32231Y6819
X32231Y6389
X32274Y43905
X32294Y37291
X32294Y36862
X32294Y36433
X32422Y43443
X32572Y10710
X32572Y10267
X32674Y7248
X32674Y6819
X32674Y6389
X33613Y43561
X33623Y42498
X33633Y44555
X33828Y43098
X33837Y42035
X33847Y44092
X34042Y43561
X34046Y40185
X34046Y39756
X34046Y39326
X34052Y42498
X34062Y44555
X34257Y43098
X34267Y42035
X34276Y44092
X34404Y27157
X34404Y26728
X34404Y26299
X34471Y43561
X34481Y42498
X34489Y40185
X34489Y39756
X34489Y39326
X34491Y44555
X34686Y43098
X34696Y42035
X34706Y44092
X34847Y27157
X34847Y26728
X34847Y26299
X35383Y15322
X35383Y14880
X35432Y20795
X35432Y20352
X35812Y15322
X35812Y14880
X35861Y20795
X35861Y20352
X36241Y15322
X36241Y14880
X36290Y20795
X36290Y20352
X36810Y38817
X36930Y42628
X36930Y42198
X36930Y41769
X36997Y29259
X36997Y28817
X37117Y34309
X37117Y33880
X37117Y33450
X37239Y38817
X37393Y42842
X37393Y42413
X37393Y41984
X37426Y29259
X37426Y28817
X37560Y34309
X37560Y33880
X37560Y33450
X37668Y38817
X37717Y23189
X37717Y22759
X37717Y22330
X37855Y29259
X37855Y28817
X38160Y23189
X38160Y22759
X38160Y22330
X38623Y12488
X38623Y12045
X38669Y5648
X38669Y5219
X38669Y4790
X38839Y15496
X38839Y15053
X39052Y12488
X39052Y12045
X39112Y5648
X39112Y5219
X39112Y4790
X39269Y15496
X39269Y15053
X39481Y12488
X39481Y12045
X39698Y15496
X39698Y15053
X39745Y42716
X39745Y42287
X39745Y41858
X40196Y39230
X40207Y42931
X40207Y42502
X40207Y42072
X40625Y39230
X41054Y39230
X41585Y22220
X41585Y21791
X41585Y21362
X42028Y22220
X42028Y21791
X42028Y21362
X42599Y42677
X42599Y42248
X42599Y41819
X42952Y39279
X43062Y42891
X43062Y42462
X43062Y42033
X43259Y18437
X43259Y18008
X43259Y17578
X43381Y39279
X43702Y18437
X43702Y18008
X43702Y17578
X43820Y39447
X45156Y37813
X45156Y37370
X45463Y42716
X45463Y42287
X45463Y41858
X45585Y37813
X45585Y37370
X45926Y42931
X45926Y42502
X45926Y42072
X45952Y31153
X45952Y30724
X45952Y30295
X46011Y22917
X46011Y22488
X46011Y22059
X46013Y39299
X46013Y33994
X46013Y33551
X46015Y37813
X46015Y37370
X46394Y31153
X46394Y30724
X46394Y30295
X46442Y39299
X46442Y33994
X46442Y33551
X46454Y22917
X46454Y22488
X46454Y22059
X46871Y39299
X46871Y33994
X46871Y33551
X47133Y12035
X47133Y11606
X47133Y11177
X47576Y12035
X47576Y11606
X47576Y11177
X48318Y42667
X48318Y42238
X48318Y41809
X48780Y42882
X48780Y42452
X48780Y42023
X48995Y39259
X49233Y5273
X49233Y4830
X49424Y39259
X49662Y5273
X49662Y4830
X49853Y39259
X50091Y5273
X50091Y4830
X51192Y42687
X51192Y42258
X51192Y41828
X51554Y39250
X51623Y17456
X51623Y17013
X51654Y42901
X51654Y42472
X51654Y42043
X51983Y39250
X52052Y17456
X52052Y17013
X52107Y36464
X52107Y36035
X52107Y35606
X52412Y39250
X52481Y17456
X52481Y17013
X52550Y36464
X52550Y36035
X52550Y35606
X13741Y23256
X14022Y18577
X14204Y23571
X16615Y17980
X17855Y31868
X18352Y14747
X19450Y30273
X20316Y30411
X21411Y4912
X27737Y13226
X33062Y17567
X33062Y17134
X33081Y18571
X33997Y12202
X34154Y33718
X35778Y18738
X36261Y33521
X41635Y17832
X42235Y18206
X44758Y13747
X30064Y2717
X29428Y2445
X29043Y2659
X28614Y2018
X28278Y1978
X27688Y2175
X27432Y2451
X26901Y2569
X26605Y2175
X27097Y1978
X25916Y1978
X24341Y1978
X24361Y2451
X24069Y3562
X24094Y4609
X24382Y4931
X24457Y5984
X24341Y7096
X24341Y7884
X25345Y7411
X25351Y6766
X26597Y6826
X26507Y7293
X26987Y7461
X26704Y7884
X27872Y7462
X28044Y8158
X28436Y8199
X28830Y8199
X28736Y7517
X29225Y7207
X29542Y7594
X29972Y7197
X29593Y6808
X28869Y6733
X28436Y6781
X29421Y5465
X30050Y5465
X30064Y4546
X30064Y3691
X29422Y3914
X28397Y4498
X26950Y4891
X26901Y4144
X26391Y4577
X25393Y5166
X23436Y6112
X23369Y7044
X22964Y7096
X23160Y7884
X23751Y7490
X22611Y5016
X22205Y5058
X22621Y4229
X23024Y3964
X22947Y2527
X23582Y2936
X23815Y2096
X38919Y30260
X39172Y30108
X39459Y30266
X39814Y30266
X39480Y29264
X39375Y28990
X39588Y28747
X39075Y29297
X39815Y27818
X39814Y26841
X39440Y26841
X39066Y26841
X15725Y40477
X17371Y40450
X16542Y40428
X14018Y39706
X14775Y39697
X15554Y39671
X17383Y39623
X16451Y39621
X15749Y39449
X17355Y39275
X14146Y39188
X15461Y39158
X14012Y38883
X17546Y38827
X15999Y38750
X14753Y38739
X17074Y38585
X16063Y38462
X16040Y38168
X16441Y37926
X15635Y37794
X15961Y37741
X15243Y37731
X14160Y37711
X14532Y37661
X14882Y37621
X15540Y37400
X14012Y37091
X15587Y37022
X16011Y36708
X15725Y36589
X15221Y36491
X16684Y36469
X14172Y36426
X15981Y36403
X17355Y36334
X17296Y36038
X16026Y35855
X17525Y35843
X14652Y35516
X14644Y35040
X14475Y34798
X14888Y34788
X13993Y34772
X14973Y40467
X14579Y40467
X17516Y34788
X17044Y34788
X16572Y34788
X16099Y34788
X20640Y40354
X18672Y40354
X21979Y40315
X20562Y39488
X19499Y39331
X18672Y39213
X21979Y38976
X21073Y38583
X20089Y38543
X19459Y37992
X18672Y37953
X21979Y37559
X21270Y37323
X18672Y37244
X20579Y37158
X19026Y36732
X19892Y36221
X18947Y35984
X21979Y35827
X18672Y35512
X21154Y35194
X20286Y34921
X18947Y34921
X19534Y40482
X19140Y40482
X22077Y34803
X21605Y34803
X21133Y34803
X20660Y34803
X49194Y27924
X52124Y27849
X50454Y27805
X47088Y27805
X47278Y27572
X48558Y27516
X48869Y27516
X51892Y27362
X50301Y27134
X50999Y27042
X48371Y26979
X47438Y26842
X47166Y26550
X52206Y26447
X51569Y26401
X51192Y26359
X49885Y26284
X48648Y26280
X47127Y26004
X49213Y25923
X47924Y25798
X49873Y25738
X50920Y25729
X49163Y25620
X47088Y25522
X52211Y24725
X47895Y24557
X49700Y24267
X50639Y24037
X49139Y24036
X49932Y24035
X50175Y23829
X46989Y23809
X49834Y23751
X51211Y23444
X49076Y23236
X51160Y23147
X47019Y23022
X50513Y23006
X51166Y22837
X47733Y22819
X49115Y22746
X50115Y22687
X50790Y22534
X47816Y22530
X48549Y22229
X51515Y22211
X51816Y22203
X47009Y21831
X51647Y21624
X52232Y21599
X51348Y21590
X52013Y21333
X50371Y21195
X49524Y21149
X49011Y21079
X48111Y21079
X47810Y21079
X47509Y21079
X47208Y21079
X48603Y21075
X50139Y20699
X49922Y20443
X46967Y18368
X48716Y18151
X51969Y18111
X51556Y17963
X48623Y17864
X50975Y17825
X50700Y17825
X50424Y17825
X51536Y17648
X46960Y17628
X50975Y17520
X50700Y17520
X51950Y17323
X51655Y27861
X51261Y27861
X50867Y27861
X49969Y27861
X49569Y27861
X48643Y17392
X48249Y17392
X47855Y17392
X47462Y17392
X31949Y25354
X31473Y25323
X31241Y25133
X31005Y25354
X30768Y25153
X30532Y25354
X30296Y25153
X30060Y25354
X29823Y25153
X29587Y25354
X29351Y25153
X29115Y25354
X28879Y25153
X28642Y25354
X28406Y25153
X28170Y25354
X27934Y25153
X27697Y25354
X27461Y25153
X27225Y25354
X26989Y25153
X26753Y25354
X26516Y25153
X26280Y25354
X26044Y25153
X25808Y25354
X25571Y25153
X25335Y25354
X25099Y25153
X24863Y25354
X24627Y25153
X24390Y25354
X24154Y25153
X23918Y25354
X23682Y25153
X23445Y25354
X23209Y25153
X22973Y25354
X22737Y25153
X22501Y25354
X22264Y25153
X22028Y25354
X21792Y25153
X21556Y25354
X21241Y25196
X21248Y24661
X21675Y24467
X22126Y24457
X22568Y24450
X23041Y24452
X23546Y23405
X23856Y23405
X24103Y23878
X24701Y23675
X24997Y23666
X24840Y23395
X24723Y22713
X24978Y22445
X25075Y21904
X24636Y21904
X24176Y22024
X24176Y21692
X24176Y21397
X24182Y21106
X23852Y20422
X23307Y20426
X23445Y19842
X24075Y19921
X24145Y19089
X24160Y18703
X24508Y18897
X24742Y19097
X24999Y18664
X25692Y18363
X26290Y18346
X26637Y18642
X27412Y18467
X27394Y19022
X27404Y19569
X28112Y19442
X28067Y18643
X28093Y17878
X28115Y17068
X27412Y17028
X27412Y17313
X27412Y17598
X27412Y16727
X26624Y16411
X26637Y16126
X26669Y15828
X26619Y15346
X26215Y15295
X25585Y14817
X25208Y14829
X24272Y14685
X23947Y15285
X23739Y15082
X23757Y15609
X23399Y15656
X23950Y15840
X24156Y16983
X24379Y17212
X24425Y17895
X24716Y17906
X24229Y18114
X23560Y18114
X22694Y18303
X22500Y18517
X22296Y18721
X22094Y18923
X22097Y18110
X22544Y17645
X22557Y16944
X22181Y17042
X22304Y16574
X22506Y16037
X22266Y15811
X22072Y15413
X22264Y15157
X22365Y14774
X22405Y14468
X22107Y14566
X21603Y14768
X21547Y15069
X21603Y15631
X21456Y15876
X21713Y16259
X21731Y16750
X20503Y17142
X20193Y17456
X20375Y17677
X20410Y18197
X18957Y18267
X18957Y17952
X18957Y17637
X18957Y17322
X18957Y17007
X18957Y16692
X18957Y16378
X19096Y16100
X18957Y15826
X18957Y15511
X18957Y15196
X18957Y14881
X18957Y14566
X18957Y14252
X19314Y14164
X19097Y13920
X19406Y13218
X19410Y12283
X19783Y12239
X19785Y12524
X20158Y12283
X20060Y11417
X20375Y11417
X20690Y11417
X21005Y11417
X21319Y11417
X21634Y11417
X21949Y11417
X22264Y11417
X22579Y11417
X23170Y11614
X23524Y11417
X23839Y11417
X24154Y11417
X24469Y11417
X24784Y11417
X25099Y11417
X25414Y11417
X25729Y11417
X26044Y11417
X26556Y11456
X26462Y12111
X26860Y12147
X27205Y12102
X27484Y12404
X27426Y11649
X27737Y11417
X28800Y11417
X29194Y11417
X29555Y11441
X29547Y11904
X29777Y12349
X29858Y13222
X30298Y12999
X29112Y12687
X28649Y12368
X28692Y13219
X28249Y13267
X27764Y13695
X27756Y13980
X27688Y14340
X27685Y14636
X28415Y14537
X28406Y14921
X28415Y15246
X28076Y15574
X28415Y15954
X28399Y16306
X28419Y16601
X28102Y16283
X29097Y15855
X29100Y15411
X30276Y15555
X30256Y16076
X30257Y16465
X29432Y16930
X29132Y16891
X29109Y17344
X29109Y17631
X29109Y17918
X29109Y18334
X29109Y18620
X29091Y19044
X29091Y19352
X29091Y19641
X28867Y20381
X28587Y20476
X28275Y20871
X28573Y21191
X28573Y21757
X28580Y22043
X28489Y22704
X28692Y23449
X28524Y23681
X28824Y23716
X29449Y23880
X29745Y23880
X30371Y23675
X30657Y23675
X30493Y23392
X30389Y22716
X30548Y22447
X30728Y21870
X30252Y21870
X29766Y22024
X29766Y21692
X29766Y21397
X29773Y21106
X30536Y20884
X30532Y20507
X31335Y20499
X31308Y20833
X31603Y20401
X32082Y20358
X32107Y19763
X32107Y19370
X32107Y18976
X32107Y18582
X32107Y18189
X32107Y17795
X32107Y17401
X32107Y17007
X32068Y16378
X32107Y15984
X32107Y15669
X32107Y15295
X31979Y14812
X32068Y14448
X32107Y13818
X31823Y13708
X32107Y13267
X32086Y12105
X32107Y11417
X31083Y14685
X30957Y14980
X30088Y14495
X28096Y14203
X27219Y13755
X27087Y13366
X26749Y13437
X26326Y13759
X25886Y13858
X25145Y13780
X24617Y12844
X24477Y12565
X24406Y12258
X24144Y12948
X23313Y12919
X23121Y12594
X22377Y12940
X22451Y13788
X22157Y13788
X21866Y13788
X20680Y13730
X20650Y13267
X20925Y12736
X20951Y11832
X22061Y11705
X19745Y11417
X19430Y11417
X19115Y11417
X20309Y14321
X20465Y14560
X20237Y14852
X20020Y15279
X20461Y15277
X20559Y15961
X20043Y16250
X19767Y15696
X19756Y16905
X18957Y18582
X18957Y18897
X18957Y19212
X18957Y19527
X18957Y19842
X18957Y20157
X18957Y20472
X18957Y20787
X18957Y21102
X19476Y21716
X19036Y22322
X18957Y22795
X19528Y23393
X19528Y23712
X19528Y24030
X19528Y24348
X19528Y24667
X19892Y24993
X19174Y25036
X20770Y24205
X20637Y23626
X21201Y22716
X21434Y22012
X21420Y21692
X21425Y21404
X21426Y21106
X22213Y20884
X22222Y20471
X22732Y20856
X23022Y21072
X23022Y21645
X22985Y22031
X22381Y21897
X21881Y21904
X22221Y22450
X22100Y23116
X22417Y23116
X22763Y23116
X21753Y23127
X23564Y22716
X25780Y22031
X25778Y21632
X25778Y21193
X25696Y20809
X24969Y20831
X25020Y20549
X26162Y20417
X26486Y20409
X26508Y19917
X26918Y20197
X26989Y21026
X26966Y21397
X26979Y21692
X26989Y22192
X27284Y21929
X27953Y21884
X27753Y22426
X27824Y23302
X27593Y23882
X26883Y23675
X26591Y23675
X26733Y23385
X26610Y22716
X25964Y23836
X25636Y23887
X27631Y20878
X27830Y20472
X29443Y20422
X29977Y19803
X29977Y19042
X29977Y18281
X29976Y17519
X26293Y17572
X26497Y17247
X26335Y16359
X27414Y15259
X26615Y12636
X26171Y12732
X26078Y13002
X25875Y12639
X23369Y13981
X23311Y14264
X21738Y19797
X21359Y19448
X20272Y19593
X20321Y20322
X20633Y20290
X21096Y20422
X19561Y20115
X25883Y19060
X31369Y21604
X31331Y22069
X31613Y22391
X32104Y22430
X31506Y22982
X31772Y23294
X32107Y23976
X32107Y24370
X32087Y24955
X31516Y24763
X31319Y23880
X31979Y21072
X10769Y19852
X11113Y19645
X11232Y20147
X11202Y21545
T02
X503Y10027
X532Y10620
X532Y9435
X780Y11177
X780Y8878
X1202Y11524
X1202Y8531
X1772Y11661
X1772Y8393
X2343Y11524
X2343Y8531
X2765Y11177
X2765Y8878
X3013Y10620
X3013Y9435
X3042Y10027
X50109Y10027
X50138Y10620
X50138Y9435
X50386Y11177
X50386Y8878
X50808Y11524
X50808Y8531
X51379Y11661
X51379Y8393
X51950Y11524
X51950Y8531
X52371Y11177
X52371Y8878
X52619Y10620
X52619Y9435
X52648Y10027
X10024Y6953G85X10024Y6520
X10024Y5209G85X10024Y4973
X13425Y6953G85X13425Y6520
X13425Y5209G85X13425Y4973
X25896Y36382
X25896Y35882
X25896Y35382
X37027Y40923
X37527Y40923
X38027Y40923
X39929Y40923
X40429Y40923
X40929Y40923
X42773Y40923
X43273Y40923
X43773Y40923
X45622Y40923
X46122Y40923
X46622Y40923
X48472Y40923
X48972Y40923
X49472Y40923
X51307Y40923
X51807Y40923
X52307Y40923
X18268Y6274
X18268Y5644
X18957Y6589
X18957Y5959
X18957Y5329
X18356Y7396G85X18868Y7396
X18356Y4522G85X18868Y4522
X10587Y6540
X12862Y6540
T03
X3288Y28698
X5798Y35106
X40188Y44939
X40188Y44387
X40749Y44939
X40749Y44387
X6609Y31179
X6609Y30313
X6609Y29447
X8344Y20967
X8538Y31179
X8538Y30313
X8538Y29447
X9344Y20967
X9538Y31198
X9538Y29269
X10344Y20967
X11344Y20967
X12344Y20967
X13344Y20967
X31387Y12950
X32887Y12950
X15764Y9286
X15764Y8302
X15764Y7317
X15764Y6333
X15764Y5349
X26012Y20059
X24434Y20059
X23012Y20059
T04
X20217Y12911
X4373Y10571
X4373Y9571
X4373Y8571
X4377Y7391
X4377Y6391
X4377Y5391
X4792Y35450
X5373Y10571
X5373Y9571
X5373Y8571
X5377Y7391
X5377Y6391
X5377Y5391
X5885Y28187
X6167Y23273
X6373Y10571
X6373Y9571
X6373Y8571
X6377Y7391
X6377Y6391
X6377Y5391
X7309Y23273
X7373Y10571
X7373Y9571
X7373Y8571
X7377Y7391
X7377Y6391
X7377Y5391
X8373Y10571
X8373Y9571
X8373Y8571
X8377Y7391
X8377Y6391
X8377Y5391
X10491Y37311
X10855Y33521
X19324Y11579
X19333Y10230
X22353Y5647
X22530Y11750
X23081Y5647
X25030Y5647
X25050Y11750
X25798Y11750
X27491Y11750
X29774Y5647
X29952Y11750
X46487Y7990
X46487Y6779
X50877Y38049
X50877Y37049
X50877Y36049
X50877Y35049
X50877Y34049
X50877Y33049
X29775Y1919
X25030Y1919
X25050Y8022
X25798Y8022
X27491Y8022
X29952Y8022
X22530Y8022
X22353Y1919
X23082Y1919
X47973Y20538
X49155Y19750
X47973Y18963
X47895Y27664
X48295Y25664
X47495Y25664
X31792Y11732
X22713Y12703
X22713Y11903
X20713Y12303
T05
X4598Y49791
X4598Y47822
X5910Y49791
X5910Y47822
X7223Y49791
X7223Y47822
X8535Y49791
X8535Y47822
X9847Y49791
X9847Y47822
X11160Y49791
X11160Y47822
X12472Y49791
X12472Y47822
X13784Y49791
X13784Y47822
X15097Y49791
X15097Y47822
X16409Y49791
X16409Y47822
X17721Y49791
X17721Y47822
X19034Y49791
X19034Y47822
X20346Y49791
X20346Y47822
X21658Y49791
X21658Y47822
X31496Y49791
X31496Y47822
X32808Y49791
X32808Y47822
X34120Y49791
X34120Y47822
X35433Y49791
X35433Y47822
X36745Y49791
X36745Y47822
X38057Y49791
X38057Y47822
X39370Y49791
X39370Y47822
X40682Y49791
X40682Y47822
X41994Y49791
X41994Y47822
X43307Y49791
X43307Y47822
X44619Y49791
X44619Y47822
X45931Y49791
X45931Y47822
X47244Y49791
X47244Y47822
X48556Y49791
X48556Y47822
X51782Y20715
X51782Y19715
X51782Y18715
T06
X36497Y9998
X36497Y7045
T07
X47009Y18866
X47009Y17212
X47009Y15559
X49174Y18866
X49174Y17212
X49174Y15559
T08
X6344Y15967
X15344Y15967
X52048Y18866
X52048Y15559
T09
X1772Y9653G85X1772Y10401
X51379Y9653G85X51379Y10401
T10
X1694Y49397
X51457Y49397
M30
