M48
INCH,TZ
T01C0.013750
T02C0.021650
T03C0.026600
T04C0.032500
T05C0.039200
T06C0.045250
T07C0.059100
T08C0.070900
T09C0.119050
T10C0.126000
T11C0.189000
%
T01
X10768Y20246
X11112Y20039
X11201Y21939
X11230Y20541
X6339Y37589
X6686Y37825
X7936Y37835
X9026Y37835
X10266Y37835
X10620Y24301
X11191Y24262
X11342Y37835
X14281Y22352
X14665Y33681
X14714Y17794
X14715Y17510
X14734Y16988
X14773Y24259
X17933Y30758
X18031Y9429
X18297Y13219
X18307Y12835
X18346Y9281
X18681Y9193
X20371Y11353
X20821Y11081
X22126Y9872
X22411Y9931
X23058Y11581
X23458Y8881
X23612Y1565
X23958Y8881
X24055Y1565
X24449Y1565
X25015Y9975
X25758Y9813
X26043Y9980
X26458Y11481
X26658Y8881
X26958Y11481
X28058Y8881
X30058Y11481
X30558Y11481
X31058Y11481
X35207Y29557
X35207Y28573
X35207Y27598
X37756Y40610
X43474Y40650
X46319Y40630
X49154Y40640
X51998Y40610
X14579Y40861
X14972Y40861
X16098Y35182
X16571Y35182
X17043Y35182
X17516Y35182
X18957Y21496
X18957Y21181
X18957Y20866
X18957Y20551
X18957Y20236
X18957Y19921
X18957Y19606
X18957Y19291
X18957Y18976
X18957Y18661
X18957Y18346
X18957Y18031
X18957Y17717
X18957Y17402
X18957Y16772
X18957Y16220
X18957Y15906
X18957Y15591
X18957Y15276
X18957Y14961
X18957Y14646
X18957Y23189
X18957Y17087
X19114Y11811
X19140Y40876
X19429Y11811
X19533Y40876
X19744Y11811
X20059Y11811
X20374Y11811
X20659Y35197
X20689Y11811
X21004Y11811
X21132Y35197
X21319Y11811
X21555Y25748
X21604Y35197
X21634Y11811
X21949Y11811
X22028Y25748
X22077Y35197
X22264Y11811
X22500Y25748
X22579Y11811
X22972Y25748
X23445Y25748
X23524Y11811
X23839Y11811
X23917Y25748
X24154Y11811
X24390Y25748
X24469Y11811
X24783Y11811
X24862Y25748
X25098Y11811
X25335Y25748
X25413Y11811
X25728Y11811
X25807Y25748
X26043Y11811
X26280Y25748
X26752Y25748
X27224Y25748
X27697Y25748
X27736Y11811
X28169Y25748
X28435Y8593
X28642Y25748
X28799Y11811
X28829Y8593
X29114Y25748
X29193Y11811
X29587Y25748
X30059Y25748
X30531Y25748
X31004Y25748
X31949Y25748
X32106Y24764
X32106Y24370
X32106Y20157
X32106Y19764
X32106Y19370
X32106Y18976
X32106Y18583
X32106Y18189
X32106Y17795
X32106Y17402
X32106Y16378
X32106Y16063
X32106Y14213
X32106Y13661
X32106Y11811
X39065Y27234
X39439Y27234
X39459Y30659
X39813Y30659
X39813Y27234
X47461Y17785
X47854Y17785
X48248Y17785
X48642Y17785
X49569Y28254
X49969Y28254
X50866Y28254
X51260Y28254
X51654Y28254
X844Y3748
X844Y3319
X844Y2890
X965Y41862
X965Y41433
X965Y41004
X965Y37787
X965Y37358
X965Y36929
X965Y34589
X965Y34159
X965Y33730
X1287Y3748
X1287Y3319
X1287Y2890
X1407Y41862
X1407Y41433
X1407Y41004
X1407Y37787
X1407Y37358
X1407Y36929
X1407Y34589
X1407Y34159
X1407Y33730
X1683Y12089
X1683Y11659
X1683Y11230
X2126Y12089
X2126Y11659
X2126Y11230
X2154Y16693
X2154Y16250
X2205Y31624
X2205Y31122
X2205Y30620
X2205Y30118
X2205Y29616
X2205Y29114
X2205Y28612
X2205Y28110
X2205Y27608
X2205Y27106
X2205Y26604
X2455Y2354
X2455Y1925
X2455Y1496
X2583Y16693
X2583Y16250
X2734Y24085
X2734Y23642
X2756Y26230
X2898Y2354
X2898Y1925
X2898Y1496
X3012Y16693
X3012Y16250
X3163Y24085
X3163Y23642
X3593Y24085
X3593Y23642
X3768Y10069
X3768Y9626
X3937Y24833
X3947Y25305
X4083Y30433
X4197Y10069
X4197Y9626
X4203Y41311
X4203Y40882
X4203Y40453
X4211Y30689
X4252Y39795
X4252Y39366
X4252Y38937
X4626Y10069
X4626Y9626
X4665Y41526
X4665Y41096
X4665Y40667
X4715Y40010
X4715Y39581
X4715Y39152
X4860Y30591
X4870Y24016
X5833Y40394
X5846Y37057
X6047Y39931
X6112Y34409
X6220Y33051
X6220Y32618
X6220Y32185
X6220Y31339
X6220Y30925
X6262Y40394
X6329Y35039
X6476Y39931
X6604Y37057
X6691Y40394
X6906Y39931
X7087Y25079
X7438Y24419
X7618Y37057
X7790Y25079
X7970Y34488
X8059Y34744
X8142Y24419
X8159Y40394
X8374Y39931
X8423Y36388
X8423Y35945
X8494Y25079
X8589Y40394
X8671Y37057
X8728Y34528
X8803Y39931
X8852Y36388
X8852Y35945
X9018Y40394
X9232Y39931
X9272Y37057
X9281Y36388
X9281Y35945
X9341Y35049
X9665Y33209
X9665Y30974
X9892Y35020
X10264Y28799
X10384Y40394
X10591Y32825
X10591Y32392
X10591Y31959
X10591Y31526
X10598Y39931
X10813Y40394
X10955Y37057
X11028Y39931
X11242Y40394
X11457Y39931
X11516Y9191
X11516Y8748
X11703Y23988
X11703Y23559
X11703Y23130
X11850Y42963
X11890Y26951
X11890Y26522
X11890Y26093
X11945Y9191
X11945Y8748
X12146Y23988
X12146Y23559
X12146Y23130
X12333Y26951
X12333Y26522
X12333Y26093
X12374Y9191
X12374Y8748
X12490Y37057
X12539Y29163
X12569Y32205
X12589Y30039
X13311Y6756
X13311Y6327
X13311Y5898
X13356Y38671
X13376Y40069
X13376Y37608
X13754Y6756
X13754Y6327
X13754Y5898
X13957Y43022
X14114Y30000
X14329Y29537
X14543Y30000
X14656Y34508
X14758Y29537
X14972Y30000
X15187Y29537
X15827Y33799
X15846Y43071
X19006Y34646
X19380Y33504
X19594Y33041
X19809Y33504
X19990Y34626
X20024Y33041
X20238Y33504
X20453Y33041
X20825Y6024
X20825Y5594
X20825Y5165
X21043Y34616
X21268Y6024
X21268Y5594
X21268Y5165
X23079Y47854
X23079Y47411
X23089Y46732
X23089Y46289
X23508Y47854
X23508Y47411
X23518Y46732
X23518Y46289
X23937Y47854
X23937Y47411
X23947Y46732
X23947Y46289
X24898Y40610
X25112Y40148
X25327Y40610
X25541Y40148
X25717Y46841
X25717Y46398
X25736Y47844
X25736Y47402
X25768Y40610
X25915Y40148
X26146Y46841
X26146Y46398
X26165Y47844
X26165Y47402
X26575Y46841
X26575Y46398
X26594Y47844
X26594Y47402
X26809Y1476
X26809Y1033
X27238Y1476
X27238Y1033
X27628Y40581
X27667Y1476
X27667Y1033
X27904Y40118
X27982Y33642
X27982Y33213
X27982Y32783
X28061Y40591
X28079Y47844
X28079Y47402
X28276Y40128
X28425Y33642
X28425Y33213
X28425Y32783
X28490Y40591
X28508Y47844
X28508Y47402
X28705Y40128
X28937Y47844
X28937Y47402
X31404Y40571
X31618Y40108
X31713Y7376
X31713Y6933
X31722Y36831
X31722Y36402
X31722Y35972
X31833Y40571
X31850Y33957
X31850Y33528
X31850Y33098
X32047Y40108
X32142Y7376
X32142Y6933
X32165Y36831
X32165Y36402
X32165Y35972
X32230Y3913
X32230Y3484
X32230Y3055
X32274Y40571
X32293Y33957
X32293Y33528
X32293Y33098
X32421Y40108
X32571Y7376
X32571Y6933
X32673Y3913
X32673Y3484
X32673Y3055
X33612Y40226
X33622Y39163
X33632Y41220
X33827Y39764
X33837Y38701
X33846Y40758
X34041Y40226
X34045Y36850
X34045Y36421
X34045Y35992
X34051Y39163
X34061Y41220
X34256Y39764
X34266Y38701
X34276Y40758
X34404Y23823
X34404Y23394
X34404Y22965
X34470Y40226
X34480Y39163
X34488Y36850
X34488Y36421
X34488Y35992
X34490Y41220
X34685Y39764
X34695Y38701
X34705Y40758
X34846Y23823
X34846Y23394
X34846Y22965
X35382Y11988
X35382Y11545
X35431Y17461
X35431Y17018
X35811Y11988
X35811Y11545
X35860Y17461
X35860Y17018
X36240Y11988
X36240Y11545
X36289Y17461
X36289Y17018
X36809Y35482
X36929Y39293
X36929Y38864
X36929Y38435
X36996Y25925
X36996Y25482
X37116Y30974
X37116Y30545
X37116Y30116
X37238Y35482
X37392Y39508
X37392Y39079
X37392Y38650
X37425Y25925
X37425Y25482
X37559Y30974
X37559Y30545
X37559Y30116
X37667Y35482
X37717Y19854
X37717Y19425
X37717Y18996
X37854Y25925
X37854Y25482
X38159Y19854
X38159Y19425
X38159Y18996
X38622Y9154
X38622Y8711
X38778Y1598
X38778Y1169
X38778Y740
X38839Y12161
X38839Y11719
X39051Y9154
X39051Y8711
X39220Y1598
X39220Y1169
X39220Y740
X39268Y12161
X39268Y11719
X39480Y9154
X39480Y8711
X39697Y12161
X39697Y11719
X39744Y39382
X39744Y38953
X39744Y38524
X40195Y35896
X40207Y39596
X40207Y39167
X40207Y38738
X40624Y35896
X41053Y35896
X41585Y18886
X41585Y18457
X41585Y18028
X42028Y18886
X42028Y18457
X42028Y18028
X42598Y39343
X42598Y38913
X42598Y38484
X42951Y35945
X43061Y39557
X43061Y39128
X43061Y38699
X43258Y15102
X43258Y14673
X43258Y14244
X43380Y35945
X43701Y15102
X43701Y14673
X43701Y14244
X43819Y36112
X45156Y34478
X45156Y34035
X45463Y39382
X45463Y38953
X45463Y38524
X45585Y34478
X45585Y34035
X45925Y39596
X45925Y39167
X45925Y38738
X45951Y27819
X45951Y27390
X45951Y26961
X46010Y19583
X46010Y19154
X46010Y18724
X46012Y35965
X46012Y30659
X46012Y30217
X46014Y34478
X46014Y34035
X46394Y27819
X46394Y27390
X46394Y26961
X46441Y35965
X46441Y30659
X46441Y30217
X46453Y19583
X46453Y19154
X46453Y18724
X46870Y35965
X46870Y30659
X46870Y30217
X47132Y8701
X47132Y8272
X47132Y7843
X47575Y8701
X47575Y8272
X47575Y7843
X48317Y39333
X48317Y38904
X48317Y38474
X48780Y39547
X48780Y39118
X48780Y38689
X48994Y35925
X49232Y1939
X49232Y1496
X49423Y35925
X49661Y1939
X49661Y1496
X49852Y35925
X50091Y1939
X50091Y1496
X51191Y39352
X51191Y38923
X51191Y38494
X51553Y35915
X51622Y14122
X51622Y13679
X51654Y39567
X51654Y39138
X51654Y38709
X51982Y35915
X52051Y14122
X52051Y13679
X52106Y33130
X52106Y32701
X52106Y32272
X52411Y35915
X52480Y14122
X52480Y13679
X52549Y33130
X52549Y32701
X52549Y32272
X13740Y19921
X14021Y15243
X14203Y20236
X16614Y14646
X17854Y28533
X18352Y11412
X19449Y26939
X20315Y27077
X20994Y1063
X27736Y9892
X33061Y14232
X33061Y13799
X33081Y15236
X33997Y8868
X34154Y30384
X35778Y15404
X36260Y30187
X41634Y14498
X42234Y14872
X44478Y9626
X30063Y3111
X29427Y2839
X29042Y3053
X28613Y2412
X28277Y2372
X27687Y2569
X27431Y2845
X26900Y2963
X26604Y2569
X27096Y2372
X25915Y2372
X24340Y2372
X24360Y2845
X24068Y3956
X24093Y5003
X24381Y5325
X24456Y6378
X24340Y7490
X24340Y8278
X25344Y7805
X25350Y7160
X26596Y7220
X26506Y7687
X26986Y7855
X26703Y8278
X27871Y7856
X28043Y8552
X28435Y8593
X28829Y8593
X28735Y7911
X29224Y7601
X29541Y7988
X29971Y7591
X29592Y7202
X28868Y7127
X28435Y7175
X29420Y5859
X30049Y5859
X30063Y4940
X30063Y4085
X29421Y4308
X28396Y4892
X26949Y5285
X26900Y4538
X26390Y4971
X25392Y5560
X23435Y6506
X23368Y7438
X22963Y7490
X23159Y8278
X23750Y7884
X22610Y5410
X22204Y5452
X22620Y4623
X23023Y4358
X22946Y2921
X23581Y3330
X23814Y2490
X38918Y30654
X39171Y30502
X39458Y30660
X39813Y30660
X39479Y29658
X39374Y29384
X39587Y29141
X39074Y29691
X39814Y28212
X39813Y27235
X39439Y27235
X39065Y27235
X15724Y40871
X17370Y40844
X16541Y40822
X14017Y40100
X14774Y40091
X15553Y40065
X17382Y40017
X16450Y40015
X15748Y39843
X17354Y39669
X14145Y39582
X15460Y39552
X14011Y39277
X17545Y39221
X15998Y39144
X14752Y39133
X17073Y38979
X16062Y38856
X16039Y38562
X16440Y38320
X15634Y38188
X15960Y38135
X15242Y38125
X14159Y38105
X14531Y38055
X14881Y38015
X15539Y37794
X14011Y37485
X15586Y37416
X16010Y37102
X15724Y36983
X15220Y36885
X16683Y36863
X14171Y36820
X15980Y36797
X17354Y36728
X17295Y36432
X16025Y36249
X17524Y36237
X14651Y35910
X14643Y35434
X14474Y35192
X14887Y35182
X13992Y35166
X14972Y40861
X14578Y40861
X17515Y35182
X17043Y35182
X16571Y35182
X16098Y35182
X20639Y40748
X18671Y40748
X21978Y40709
X20561Y39882
X19498Y39725
X18671Y39607
X21978Y39370
X21072Y38977
X20088Y38937
X19458Y38386
X18671Y38347
X21978Y37953
X21269Y37717
X18671Y37638
X20578Y37552
X19025Y37126
X19891Y36615
X18946Y36378
X21978Y36221
X18671Y35906
X21153Y35588
X20285Y35315
X18946Y35315
X19533Y40876
X19139Y40876
X22076Y35197
X21604Y35197
X21132Y35197
X20659Y35197
X49193Y28317
X52123Y28242
X50453Y28198
X47087Y28198
X47277Y27965
X48557Y27909
X48868Y27909
X51891Y27755
X50300Y27527
X50998Y27435
X48370Y27372
X47437Y27235
X47165Y26943
X52205Y26840
X51568Y26794
X51191Y26752
X49884Y26677
X48647Y26673
X47126Y26397
X49212Y26316
X47923Y26191
X49872Y26131
X50919Y26122
X49162Y26013
X47087Y25915
X52210Y25118
X47894Y24950
X49699Y24660
X50638Y24430
X49138Y24429
X49931Y24428
X50174Y24222
X46988Y24202
X49833Y24144
X51210Y23837
X49075Y23629
X51159Y23540
X47018Y23415
X50512Y23399
X51165Y23230
X47732Y23212
X49114Y23139
X50114Y23080
X50789Y22927
X47815Y22923
X48548Y22622
X51514Y22604
X51815Y22596
X47008Y22224
X51646Y22017
X52231Y21992
X51347Y21983
X52012Y21726
X50370Y21588
X49523Y21542
X49010Y21472
X48110Y21472
X47809Y21472
X47508Y21472
X47207Y21472
X48602Y21468
X50138Y21092
X49921Y20836
X46966Y18761
X48715Y18544
X51968Y18504
X51555Y18356
X48622Y18257
X50974Y18218
X50699Y18218
X50423Y18218
X51535Y18041
X46959Y18021
X50974Y17913
X50699Y17913
X51949Y17716
X51654Y28254
X51260Y28254
X50866Y28254
X49968Y28254
X49568Y28254
X48642Y17785
X48248Y17785
X47854Y17785
X47461Y17785
X31948Y25748
X31472Y25717
X31240Y25527
X31004Y25748
X30767Y25547
X30531Y25748
X30295Y25547
X30059Y25748
X29822Y25547
X29586Y25748
X29350Y25547
X29114Y25748
X28878Y25547
X28641Y25748
X28405Y25547
X28169Y25748
X27933Y25547
X27696Y25748
X27460Y25547
X27224Y25748
X26988Y25547
X26752Y25748
X26515Y25547
X26279Y25748
X26043Y25547
X25807Y25748
X25570Y25547
X25334Y25748
X25098Y25547
X24862Y25748
X24626Y25547
X24389Y25748
X24153Y25547
X23917Y25748
X23681Y25547
X23444Y25748
X23208Y25547
X22972Y25748
X22736Y25547
X22500Y25748
X22263Y25547
X22027Y25748
X21791Y25547
X21555Y25748
X21240Y25590
X21247Y25055
X21674Y24861
X22125Y24851
X22567Y24844
X23040Y24846
X23545Y23799
X23855Y23799
X24102Y24272
X24700Y24069
X24996Y24060
X24839Y23789
X24722Y23107
X24977Y22839
X25074Y22298
X24635Y22298
X24175Y22418
X24175Y22086
X24175Y21791
X24181Y21500
X23851Y20816
X23306Y20820
X23444Y20236
X24074Y20315
X24144Y19483
X24159Y19097
X24507Y19291
X24741Y19491
X24998Y19058
X25691Y18757
X26289Y18740
X26636Y19036
X27411Y18861
X27393Y19416
X27403Y19963
X28111Y19836
X28066Y19037
X28092Y18272
X28114Y17462
X27411Y17422
X27411Y17707
X27411Y17992
X27411Y17121
X26623Y16805
X26636Y16520
X26668Y16222
X26618Y15740
X26214Y15689
X25584Y15211
X25207Y15223
X24271Y15079
X23946Y15679
X23738Y15476
X23756Y16003
X23398Y16050
X23949Y16234
X24155Y17377
X24378Y17606
X24424Y18289
X24715Y18300
X24228Y18508
X23559Y18508
X22693Y18697
X22499Y18911
X22295Y19115
X22093Y19317
X22096Y18504
X22543Y18039
X22556Y17338
X22180Y17436
X22303Y16968
X22505Y16431
X22265Y16205
X22071Y15807
X22263Y15551
X22364Y15168
X22404Y14862
X22106Y14960
X21602Y15162
X21546Y15463
X21602Y16025
X21455Y16270
X21712Y16653
X21730Y17144
X20502Y17536
X20192Y17850
X20374Y18071
X20409Y18591
X18956Y18661
X18956Y18346
X18956Y18031
X18956Y17716
X18956Y17401
X18956Y17086
X18956Y16772
X19095Y16494
X18956Y16220
X18956Y15905
X18956Y15590
X18956Y15275
X18956Y14960
X18956Y14646
X19313Y14558
X19096Y14314
X19405Y13612
X19409Y12677
X19782Y12633
X19784Y12918
X20157Y12677
X20059Y11811
X20374Y11811
X20689Y11811
X21004Y11811
X21318Y11811
X21633Y11811
X21948Y11811
X22263Y11811
X22578Y11811
X23169Y12008
X23523Y11811
X23838Y11811
X24153Y11811
X24468Y11811
X24783Y11811
X25098Y11811
X25413Y11811
X25728Y11811
X26043Y11811
X26555Y11850
X26461Y12505
X26859Y12541
X27204Y12496
X27483Y12798
X27425Y12043
X27736Y11811
X28799Y11811
X29193Y11811
X29554Y11835
X29546Y12298
X29776Y12743
X29857Y13616
X30297Y13393
X29111Y13081
X28648Y12762
X28691Y13613
X28248Y13661
X27763Y14089
X27755Y14374
X27687Y14734
X27684Y15030
X28414Y14931
X28405Y15315
X28414Y15640
X28075Y15968
X28414Y16348
X28398Y16700
X28418Y16995
X28101Y16677
X29096Y16249
X29099Y15805
X30275Y15949
X30255Y16470
X30256Y16859
X29431Y17324
X29131Y17285
X29108Y17738
X29108Y18025
X29108Y18312
X29108Y18728
X29108Y19014
X29090Y19438
X29090Y19746
X29090Y20035
X28866Y20775
X28586Y20870
X28274Y21265
X28572Y21585
X28572Y22151
X28579Y22437
X28488Y23098
X28691Y23843
X28523Y24075
X28823Y24110
X29448Y24274
X29744Y24274
X30370Y24069
X30656Y24069
X30492Y23786
X30388Y23110
X30547Y22841
X30727Y22264
X30251Y22264
X29765Y22418
X29765Y22086
X29765Y21791
X29772Y21500
X30535Y21278
X30531Y20901
X31334Y20893
X31307Y21227
X31602Y20795
X32081Y20752
X32106Y20157
X32106Y19764
X32106Y19370
X32106Y18976
X32106Y18583
X32106Y18189
X32106Y17795
X32106Y17401
X32067Y16772
X32106Y16378
X32106Y16063
X32106Y15689
X31978Y15206
X32067Y14842
X32106Y14212
X31822Y14102
X32106Y13661
X32085Y12499
X32106Y11811
X31082Y15079
X30956Y15374
X30087Y14889
X28095Y14597
X27218Y14149
X27086Y13760
X26748Y13831
X26325Y14153
X25885Y14252
X25144Y14174
X24616Y13238
X24476Y12959
X24405Y12652
X24143Y13342
X23312Y13313
X23120Y12988
X22376Y13334
X22450Y14182
X22156Y14182
X21865Y14182
X20679Y14124
X20649Y13661
X20924Y13130
X20950Y12226
X22060Y12099
X19744Y11811
X19429Y11811
X19114Y11811
X20308Y14715
X20464Y14954
X20236Y15246
X20019Y15673
X20460Y15671
X20558Y16355
X20042Y16644
X19766Y16090
X19755Y17299
X18956Y18976
X18956Y19291
X18956Y19606
X18956Y19921
X18956Y20236
X18956Y20551
X18956Y20866
X18956Y21181
X18956Y21496
X19475Y22110
X19035Y22716
X18956Y23189
X19527Y23787
X19527Y24106
X19527Y24424
X19527Y24742
X19527Y25061
X19891Y25387
X19173Y25430
X20769Y24599
X20636Y24020
X21200Y23110
X21433Y22406
X21419Y22086
X21424Y21798
X21425Y21500
X22212Y21278
X22221Y20865
X22731Y21250
X23021Y21466
X23021Y22039
X22984Y22425
X22380Y22291
X21880Y22298
X22220Y22844
X22099Y23510
X22416Y23510
X22762Y23510
X21752Y23521
X23563Y23110
X25779Y22425
X25777Y22026
X25777Y21587
X25695Y21203
X24968Y21225
X25019Y20943
X26161Y20811
X26485Y20803
X26507Y20311
X26917Y20591
X26988Y21420
X26965Y21791
X26978Y22086
X26988Y22586
X27283Y22323
X27952Y22278
X27752Y22820
X27823Y23696
X27592Y24276
X26882Y24069
X26590Y24069
X26732Y23779
X26609Y23110
X25963Y24230
X25635Y24281
X27630Y21272
X27829Y20866
X29442Y20816
X29976Y20197
X29976Y19436
X29976Y18675
X29975Y17913
X26292Y17966
X26496Y17641
X26334Y16753
X27413Y15653
X26614Y13030
X26170Y13126
X26077Y13396
X25874Y13033
X23368Y14375
X23310Y14658
X21737Y20191
X21358Y19842
X20271Y19987
X20320Y20716
X20632Y20684
X21095Y20816
X19560Y20509
X25882Y19454
X31368Y21998
X31330Y22463
X31612Y22785
X32103Y22824
X31505Y23376
X31771Y23688
X32106Y24370
X32106Y24764
X32086Y25349
X31515Y25157
X31318Y24274
X31978Y21466
X10768Y20246
X11112Y20039
X11231Y20541
X11201Y21939
T02
X827Y6693
X1104Y7361
X1104Y6025
X1772Y7638
X1772Y5748
X2440Y7361
X2440Y6025
X2717Y6693
X50433Y6693
X50710Y7361
X50710Y6025
X51378Y7638
X51378Y5748
X52046Y7361
X52046Y6025
X52323Y6693
X10280Y2982G85X10280Y2549
X10280Y1238G85X10280Y1002
X13681Y2982G85X13681Y2549
X13681Y1238G85X13681Y1002
T03
X25896Y33047
X25896Y32547
X25896Y32047
X37027Y37589
X37527Y37589
X38027Y37589
X39928Y37589
X40428Y37589
X40928Y37589
X42773Y37589
X43273Y37589
X43773Y37589
X45621Y37589
X46121Y37589
X46621Y37589
X48471Y37589
X48971Y37589
X49471Y37589
X51306Y37589
X51806Y37589
X52306Y37589
X18524Y2303
X18524Y1673
X19213Y2618
X19213Y1988
X19213Y1358
X18612Y3425G85X19124Y3425
X18612Y551G85X19124Y551
X10843Y2569
X13118Y2569
T04
X3287Y25364
X5797Y31772
X40187Y41604
X40187Y41053
X40748Y41604
X40748Y41053
X6608Y27844
X6608Y26978
X6608Y26112
X8344Y17633
X8537Y27844
X8537Y26978
X8537Y26112
X9344Y17633
X9537Y27864
X9537Y25935
X10344Y17633
X11344Y17633
X12344Y17633
X13344Y17633
X31386Y9616
X32886Y9616
X16020Y5315
X16020Y4331
X16020Y3346
X16020Y2362
X16020Y1378
X26011Y20453
X24433Y20453
X23011Y20453
T05
X20217Y9577
X4372Y7237
X4372Y6237
X4372Y5237
X4376Y4057
X4376Y3057
X4376Y2057
X4791Y32116
X5372Y7237
X5372Y6237
X5372Y5237
X5376Y4057
X5376Y3057
X5376Y2057
X5884Y24852
X6166Y19938
X6372Y7237
X6372Y6237
X6372Y5237
X6376Y4057
X6376Y3057
X6376Y2057
X7308Y19938
X7372Y7237
X7372Y6237
X7372Y5237
X7376Y4057
X7376Y3057
X7376Y2057
X8372Y7237
X8372Y6237
X8372Y5237
X8376Y4057
X8376Y3057
X8376Y2057
X10490Y33976
X10854Y30187
X19323Y8244
X19333Y6896
X22352Y2313
X22530Y8415
X23081Y2313
X25030Y2313
X25049Y8415
X25797Y8415
X27490Y8415
X29774Y2313
X29951Y8415
X46486Y4656
X46486Y3445
X50876Y34715
X50876Y33715
X50876Y32715
X50876Y31715
X50876Y30715
X50876Y29715
X29774Y2313
X25029Y2313
X25049Y8416
X25797Y8416
X27490Y8416
X29951Y8416
X22529Y8416
X22352Y2313
X23081Y2313
X47972Y20931
X49154Y20143
X47972Y19356
X47894Y28057
X48294Y26057
X47494Y26057
X31791Y12126
X22712Y13097
X22712Y12297
X20712Y12697
T06
X4597Y46457
X4597Y44488
X5909Y46457
X5909Y44488
X7222Y46457
X7222Y44488
X8534Y46457
X8534Y44488
X9846Y46457
X9846Y44488
X11159Y46457
X11159Y44488
X12471Y46457
X12471Y44488
X13783Y46457
X13783Y44488
X15096Y46457
X15096Y44488
X16408Y46457
X16408Y44488
X17720Y46457
X17720Y44488
X19033Y46457
X19033Y44488
X20345Y46457
X20345Y44488
X21657Y46457
X21657Y44488
X31495Y46457
X31495Y44488
X32807Y46457
X32807Y44488
X34119Y46457
X34119Y44488
X35432Y46457
X35432Y44488
X36744Y46457
X36744Y44488
X38056Y46457
X38056Y44488
X39369Y46457
X39369Y44488
X40681Y46457
X40681Y44488
X41993Y46457
X41993Y44488
X43306Y46457
X43306Y44488
X44618Y46457
X44618Y44488
X45930Y46457
X45930Y44488
X47243Y46457
X47243Y44488
X48555Y46457
X48555Y44488
X51781Y21108
X51781Y20108
X51781Y19108
T07
X36496Y6663
X36496Y3711
T08
X47008Y15531
X47008Y13878
X47008Y12224
X49173Y15531
X49173Y13878
X49173Y12224
T09
X6344Y12633
X15344Y12633
X52047Y15531
X52047Y12224
T10
X1772Y6693
X51378Y6693
T11
X1693Y46063
X51457Y46063
M30
