M48
INCH,TZ
T01C0.013750
T02C0.021650
T03C0.026600
T04C0.032500
T05C0.039200
T06C0.045250
T07C0.059100
T08C0.070900
T09C0.119050
T10C0.126000
T11C0.189000
%
T01
X10769Y19852
X11113Y19646
X11202Y21545
X11231Y20148
X6339Y37195
X6687Y37431
X7937Y37441
X9026Y37441
X10267Y37441
X10621Y23907
X11192Y23868
X11342Y37441
X14282Y21959
X14666Y33287
X14715Y17400
X14715Y17116
X14735Y16594
X14774Y23865
X17934Y30364
X18032Y9035
X18298Y12825
X18308Y12441
X18347Y8888
X18682Y8799
X20372Y10959
X20822Y10687
X22127Y9478
X22412Y9537
X23059Y11187
X23459Y8487
X23598Y1373
X23959Y8487
X24041Y1373
X24435Y1373
X25016Y9582
X25759Y9419
X26044Y9587
X26459Y11087
X26659Y8487
X26959Y11087
X28059Y8487
X30059Y11087
X30559Y11087
X31059Y11087
X35207Y29163
X35207Y28179
X35207Y27205
X37757Y40217
X43475Y40256
X46320Y40236
X49154Y40246
X51999Y40217
X14580Y40468
X14973Y40468
X16099Y34788
X16572Y34788
X17044Y34788
X17517Y34788
X18957Y21102
X18957Y20787
X18957Y20472
X18957Y20157
X18957Y19843
X18957Y19528
X18957Y19213
X18957Y18898
X18957Y18583
X18957Y18268
X18957Y17953
X18957Y17638
X18957Y17323
X18957Y17008
X18957Y16378
X18957Y15827
X18957Y15512
X18957Y15197
X18957Y14882
X18957Y14567
X18957Y14252
X18957Y22795
X18957Y16693
X19115Y11417
X19141Y40482
X19430Y11417
X19534Y40482
X19745Y11417
X20060Y11417
X20375Y11417
X20660Y34803
X20690Y11417
X21005Y11417
X21133Y34803
X21320Y11417
X21556Y25354
X21605Y34803
X21635Y11417
X21950Y11417
X22028Y25354
X22078Y34803
X22265Y11417
X22501Y25354
X22580Y11417
X22973Y25354
X23446Y25354
X23524Y11417
X23839Y11417
X23918Y25354
X24154Y11417
X24391Y25354
X24469Y11417
X24784Y11417
X24863Y25354
X25099Y11417
X25335Y25354
X25414Y11417
X25729Y11417
X25808Y25354
X26044Y11417
X26280Y25354
X26753Y25354
X27225Y25354
X27698Y25354
X27737Y11417
X28170Y25354
X28436Y8199
X28643Y25354
X28800Y11417
X28830Y8199
X29115Y25354
X29194Y11417
X29587Y25354
X30060Y25354
X30532Y25354
X31005Y25354
X31950Y25354
X32107Y24370
X32107Y23976
X32107Y19764
X32107Y19370
X32107Y18976
X32107Y18583
X32107Y18189
X32107Y17795
X32107Y17402
X32107Y17008
X32107Y15984
X32107Y15669
X32107Y13819
X32107Y13268
X32107Y11417
X39066Y26841
X39440Y26841
X39459Y30266
X39814Y30266
X39814Y26841
X47461Y17392
X47855Y17392
X48249Y17392
X48643Y17392
X49569Y27861
X49969Y27861
X50867Y27861
X51261Y27861
X51654Y27861
X845Y3354
X845Y2925
X845Y2496
X965Y41469
X965Y41039
X965Y40610
X965Y37394
X965Y36965
X965Y36535
X965Y34195
X965Y33766
X965Y33337
X1288Y3354
X1288Y2925
X1288Y2496
X1408Y41469
X1408Y41039
X1408Y40610
X1408Y37394
X1408Y36965
X1408Y36535
X1408Y34195
X1408Y33766
X1408Y33337
X1684Y11695
X1684Y11266
X1684Y10837
X2127Y11695
X2127Y11266
X2127Y10837
X2154Y16299
X2154Y15856
X2206Y31230
X2206Y30728
X2206Y30226
X2206Y29724
X2206Y29222
X2206Y28720
X2206Y28219
X2206Y27717
X2206Y27215
X2206Y26713
X2206Y26211
X2456Y1961
X2456Y1531
X2456Y1102
X2583Y16299
X2583Y15856
X2735Y23691
X2735Y23248
X2757Y25837
X2898Y1961
X2898Y1531
X2898Y1102
X3013Y16299
X3013Y15856
X3164Y23691
X3164Y23248
X3593Y23691
X3593Y23248
X3769Y9675
X3769Y9232
X3938Y24439
X3948Y24911
X4083Y30039
X4198Y9675
X4198Y9232
X4204Y40917
X4204Y40488
X4204Y40059
X4211Y30295
X4253Y39402
X4253Y38972
X4253Y38543
X4627Y9675
X4627Y9232
X4666Y41132
X4666Y40703
X4666Y40274
X4715Y39616
X4715Y39187
X4715Y38758
X4861Y30197
X4871Y23622
X5833Y40000
X5847Y36663
X6048Y39537
X6113Y34016
X6221Y32657
X6221Y32224
X6221Y31791
X6221Y30945
X6221Y30531
X6263Y40000
X6330Y34646
X6477Y39537
X6605Y36663
X6692Y40000
X6906Y39537
X7087Y24685
X7439Y24026
X7619Y36663
X7791Y24685
X7971Y34094
X8060Y34350
X8143Y24026
X8160Y40000
X8375Y39537
X8424Y35994
X8424Y35551
X8495Y24685
X8589Y40000
X8672Y36663
X8729Y34134
X8804Y39537
X8853Y35994
X8853Y35551
X9019Y40000
X9233Y39537
X9272Y36663
X9282Y35994
X9282Y35551
X9341Y34656
X9666Y32815
X9666Y30581
X9893Y34626
X10265Y28406
X10385Y40000
X10591Y32431
X10591Y31998
X10591Y31565
X10591Y31132
X10599Y39537
X10814Y40000
X10956Y36663
X11028Y39537
X11108Y22761
X11108Y22318
X11243Y40000
X11457Y39537
X11517Y8797
X11517Y8354
X11537Y22761
X11537Y22318
X11851Y42569
X11891Y26557
X11891Y26128
X11891Y25699
X11946Y8797
X11946Y8354
X11967Y22761
X11967Y22318
X12333Y26557
X12333Y26128
X12333Y25699
X12375Y8797
X12375Y8354
X12491Y36663
X12540Y28770
X12570Y31811
X12589Y29646
X13055Y6999
X13055Y6570
X13055Y6141
X13357Y38278
X13377Y39675
X13377Y37215
X13498Y6999
X13498Y6570
X13498Y6141
X13957Y42628
X14115Y29606
X14330Y29144
X14544Y29606
X14656Y34114
X14759Y29144
X14973Y29606
X15188Y29144
X15828Y33406
X15847Y42677
X19007Y34252
X19381Y33110
X19595Y32648
X19810Y33110
X19991Y34232
X20024Y32648
X20239Y33110
X20454Y32648
X20826Y5630
X20826Y5201
X20826Y4772
X21044Y34222
X21269Y5630
X21269Y5201
X21269Y4772
X23080Y47461
X23080Y47018
X23089Y46339
X23089Y45896
X23509Y47461
X23509Y47018
X23519Y46339
X23519Y45896
X23938Y47461
X23938Y47018
X23948Y46339
X23948Y45896
X24898Y40217
X25113Y39754
X25328Y40217
X25542Y39754
X25608Y1333
X25717Y46447
X25717Y46004
X25737Y47451
X25737Y47008
X25769Y40217
X25916Y39754
X26037Y1333
X26146Y46447
X26146Y46004
X26166Y47451
X26166Y47008
X26467Y1333
X26576Y46447
X26576Y46004
X26595Y47451
X26595Y47008
X27045Y1318
X27474Y1318
X27629Y40187
X27904Y1318
X27904Y39724
X27983Y33248
X27983Y32819
X27983Y32390
X28062Y40197
X28080Y47451
X28080Y47008
X28276Y39734
X28426Y33248
X28426Y32819
X28426Y32390
X28491Y40197
X28509Y47451
X28509Y47008
X28706Y39734
X28938Y47451
X28938Y47008
X31404Y40177
X31619Y39715
X31713Y6982
X31713Y6539
X31723Y36437
X31723Y36008
X31723Y35579
X31833Y40177
X31851Y33563
X31851Y33134
X31851Y32705
X32048Y39715
X32143Y6982
X32143Y6539
X32166Y36437
X32166Y36008
X32166Y35579
X32231Y3520
X32231Y3091
X32231Y2661
X32274Y40177
X32294Y33563
X32294Y33134
X32294Y32705
X32422Y39715
X32572Y6982
X32572Y6539
X32674Y3520
X32674Y3091
X32674Y2661
X33613Y39833
X33623Y38770
X33633Y40827
X33828Y39370
X33837Y38307
X33847Y40364
X34042Y39833
X34046Y36457
X34046Y36028
X34046Y35598
X34052Y38770
X34062Y40827
X34257Y39370
X34267Y38307
X34276Y40364
X34404Y23429
X34404Y23000
X34404Y22571
X34471Y39833
X34481Y38770
X34489Y36457
X34489Y36028
X34489Y35598
X34491Y40827
X34686Y39370
X34696Y38307
X34706Y40364
X34847Y23429
X34847Y23000
X34847Y22571
X35383Y11594
X35383Y11152
X35432Y17067
X35432Y16624
X35812Y11594
X35812Y11152
X35861Y17067
X35861Y16624
X36241Y11594
X36241Y11152
X36290Y17067
X36290Y16624
X36810Y35089
X36930Y38900
X36930Y38470
X36930Y38041
X36997Y25531
X36997Y25089
X37117Y30581
X37117Y30152
X37117Y29722
X37239Y35089
X37393Y39114
X37393Y38685
X37393Y38256
X37426Y25531
X37426Y25089
X37560Y30581
X37560Y30152
X37560Y29722
X37668Y35089
X37717Y19461
X37717Y19031
X37717Y18602
X37855Y25531
X37855Y25089
X38160Y19461
X38160Y19031
X38160Y18602
X38623Y8760
X38623Y8317
X38669Y1920
X38669Y1491
X38669Y1062
X38839Y11768
X38839Y11325
X39052Y8760
X39052Y8317
X39112Y1920
X39112Y1491
X39112Y1062
X39269Y11768
X39269Y11325
X39481Y8760
X39481Y8317
X39698Y11768
X39698Y11325
X39745Y38988
X39745Y38559
X39745Y38130
X40196Y35502
X40207Y39203
X40207Y38774
X40207Y38344
X40625Y35502
X41054Y35502
X41585Y18492
X41585Y18063
X41585Y17634
X42028Y18492
X42028Y18063
X42028Y17634
X42599Y38949
X42599Y38520
X42599Y38091
X42952Y35551
X43062Y39163
X43062Y38734
X43062Y38305
X43259Y14709
X43259Y14280
X43259Y13850
X43381Y35551
X43702Y14709
X43702Y14280
X43702Y13850
X43820Y35719
X45156Y34085
X45156Y33642
X45463Y38988
X45463Y38559
X45463Y38130
X45585Y34085
X45585Y33642
X45926Y39203
X45926Y38774
X45926Y38344
X45952Y27425
X45952Y26996
X45952Y26567
X46011Y19189
X46011Y18760
X46011Y18331
X46013Y35571
X46013Y30266
X46013Y29823
X46015Y34085
X46015Y33642
X46394Y27425
X46394Y26996
X46394Y26567
X46442Y35571
X46442Y30266
X46442Y29823
X46454Y19189
X46454Y18760
X46454Y18331
X46871Y35571
X46871Y30266
X46871Y29823
X47133Y8307
X47133Y7878
X47133Y7449
X47576Y8307
X47576Y7878
X47576Y7449
X48318Y38939
X48318Y38510
X48318Y38081
X48780Y39154
X48780Y38724
X48780Y38295
X48995Y35531
X49233Y1545
X49233Y1102
X49424Y35531
X49662Y1545
X49662Y1102
X49853Y35531
X50091Y1545
X50091Y1102
X51192Y38959
X51192Y38530
X51192Y38100
X51554Y35522
X51623Y13728
X51623Y13285
X51654Y39173
X51654Y38744
X51654Y38315
X51983Y35522
X52052Y13728
X52052Y13285
X52107Y32736
X52107Y32307
X52107Y31878
X52412Y35522
X52481Y13728
X52481Y13285
X52550Y32736
X52550Y32307
X52550Y31878
X13741Y19528
X14022Y14849
X14204Y19843
X16615Y14252
X17855Y28140
X18352Y11019
X19450Y26545
X20316Y26683
X21411Y1184
X27737Y9498
X33062Y13839
X33062Y13406
X33081Y14843
X33997Y8474
X34154Y29990
X35778Y15010
X36261Y29793
X41635Y14104
X42235Y14478
X44758Y10019
X30064Y2717
X29428Y2445
X29043Y2659
X28614Y2018
X28278Y1978
X27688Y2175
X27432Y2451
X26901Y2569
X26605Y2175
X27097Y1978
X25916Y1978
X24341Y1978
X24361Y2451
X24069Y3562
X24094Y4609
X24382Y4931
X24457Y5984
X24341Y7096
X24341Y7884
X25345Y7411
X25351Y6766
X26597Y6826
X26507Y7293
X26987Y7461
X26704Y7884
X27872Y7462
X28044Y8158
X28436Y8199
X28830Y8199
X28736Y7517
X29225Y7207
X29542Y7594
X29972Y7197
X29593Y6808
X28869Y6733
X28436Y6781
X29421Y5465
X30050Y5465
X30064Y4546
X30064Y3691
X29422Y3914
X28397Y4498
X26950Y4891
X26901Y4144
X26391Y4577
X25393Y5166
X23436Y6112
X23369Y7044
X22964Y7096
X23160Y7884
X23751Y7490
X22611Y5016
X22205Y5058
X22621Y4229
X23024Y3964
X22947Y2527
X23582Y2936
X23815Y2096
X38919Y30260
X39172Y30108
X39459Y30266
X39814Y30266
X39480Y29264
X39375Y28990
X39588Y28747
X39075Y29297
X39815Y27818
X39814Y26841
X39440Y26841
X39066Y26841
X15725Y40477
X17371Y40450
X16542Y40428
X14018Y39706
X14775Y39697
X15554Y39671
X17383Y39623
X16451Y39621
X15749Y39449
X17355Y39275
X14146Y39188
X15461Y39158
X14012Y38883
X17546Y38827
X15999Y38750
X14753Y38739
X17074Y38585
X16063Y38462
X16040Y38168
X16441Y37926
X15635Y37794
X15961Y37741
X15243Y37731
X14160Y37711
X14532Y37661
X14882Y37621
X15540Y37400
X14012Y37091
X15587Y37022
X16011Y36708
X15725Y36589
X15221Y36491
X16684Y36469
X14172Y36426
X15981Y36403
X17355Y36334
X17296Y36038
X16026Y35855
X17525Y35843
X14652Y35516
X14644Y35040
X14475Y34798
X14888Y34788
X13993Y34772
X14973Y40467
X14579Y40467
X17516Y34788
X17044Y34788
X16572Y34788
X16099Y34788
X20640Y40354
X18672Y40354
X21979Y40315
X20562Y39488
X19499Y39331
X18672Y39213
X21979Y38976
X21073Y38583
X20089Y38543
X19459Y37992
X18672Y37953
X21979Y37559
X21270Y37323
X18672Y37244
X20579Y37158
X19026Y36732
X19892Y36221
X18947Y35984
X21979Y35827
X18672Y35512
X21154Y35194
X20286Y34921
X18947Y34921
X19534Y40482
X19140Y40482
X22077Y34803
X21605Y34803
X21133Y34803
X20660Y34803
X49194Y27924
X52124Y27849
X50454Y27805
X47088Y27805
X47278Y27572
X48558Y27516
X48869Y27516
X51892Y27362
X50301Y27134
X50999Y27042
X48371Y26979
X47438Y26842
X47166Y26550
X52206Y26447
X51569Y26401
X51192Y26359
X49885Y26284
X48648Y26280
X47127Y26004
X49213Y25923
X47924Y25798
X49873Y25738
X50920Y25729
X49163Y25620
X47088Y25522
X52211Y24725
X47895Y24557
X49700Y24267
X50639Y24037
X49139Y24036
X49932Y24035
X50175Y23829
X46989Y23809
X49834Y23751
X51211Y23444
X49076Y23236
X51160Y23147
X47019Y23022
X50513Y23006
X51166Y22837
X47733Y22819
X49115Y22746
X50115Y22687
X50790Y22534
X47816Y22530
X48549Y22229
X51515Y22211
X51816Y22203
X47009Y21831
X51647Y21624
X52232Y21599
X51348Y21590
X52013Y21333
X50371Y21195
X49524Y21149
X49011Y21079
X48111Y21079
X47810Y21079
X47509Y21079
X47208Y21079
X48603Y21075
X50139Y20699
X49922Y20443
X46967Y18368
X48716Y18151
X51969Y18111
X51556Y17963
X48623Y17864
X50975Y17825
X50700Y17825
X50424Y17825
X51536Y17648
X46960Y17628
X50975Y17520
X50700Y17520
X51950Y17323
X51655Y27861
X51261Y27861
X50867Y27861
X49969Y27861
X49569Y27861
X48643Y17392
X48249Y17392
X47855Y17392
X47462Y17392
X31949Y25354
X31473Y25323
X31241Y25133
X31005Y25354
X30768Y25153
X30532Y25354
X30296Y25153
X30060Y25354
X29823Y25153
X29587Y25354
X29351Y25153
X29115Y25354
X28879Y25153
X28642Y25354
X28406Y25153
X28170Y25354
X27934Y25153
X27697Y25354
X27461Y25153
X27225Y25354
X26989Y25153
X26753Y25354
X26516Y25153
X26280Y25354
X26044Y25153
X25808Y25354
X25571Y25153
X25335Y25354
X25099Y25153
X24863Y25354
X24627Y25153
X24390Y25354
X24154Y25153
X23918Y25354
X23682Y25153
X23445Y25354
X23209Y25153
X22973Y25354
X22737Y25153
X22501Y25354
X22264Y25153
X22028Y25354
X21792Y25153
X21556Y25354
X21241Y25196
X21248Y24661
X21675Y24467
X22126Y24457
X22568Y24450
X23041Y24452
X23546Y23405
X23856Y23405
X24103Y23878
X24701Y23675
X24997Y23666
X24840Y23395
X24723Y22713
X24978Y22445
X25075Y21904
X24636Y21904
X24176Y22024
X24176Y21692
X24176Y21397
X24182Y21106
X23852Y20422
X23307Y20426
X23445Y19842
X24075Y19921
X24145Y19089
X24160Y18703
X24508Y18897
X24742Y19097
X24999Y18664
X25692Y18363
X26290Y18346
X26637Y18642
X27412Y18467
X27394Y19022
X27404Y19569
X28112Y19442
X28067Y18643
X28093Y17878
X28115Y17068
X27412Y17028
X27412Y17313
X27412Y17598
X27412Y16727
X26624Y16411
X26637Y16126
X26669Y15828
X26619Y15346
X26215Y15295
X25585Y14817
X25208Y14829
X24272Y14685
X23947Y15285
X23739Y15082
X23757Y15609
X23399Y15656
X23950Y15840
X24156Y16983
X24379Y17212
X24425Y17895
X24716Y17906
X24229Y18114
X23560Y18114
X22694Y18303
X22500Y18517
X22296Y18721
X22094Y18923
X22097Y18110
X22544Y17645
X22557Y16944
X22181Y17042
X22304Y16574
X22506Y16037
X22266Y15811
X22072Y15413
X22264Y15157
X22365Y14774
X22405Y14468
X22107Y14566
X21603Y14768
X21547Y15069
X21603Y15631
X21456Y15876
X21713Y16259
X21731Y16750
X20503Y17142
X20193Y17456
X20375Y17677
X20410Y18197
X18957Y18267
X18957Y17952
X18957Y17637
X18957Y17322
X18957Y17007
X18957Y16692
X18957Y16378
X19096Y16100
X18957Y15826
X18957Y15511
X18957Y15196
X18957Y14881
X18957Y14566
X18957Y14252
X19314Y14164
X19097Y13920
X19406Y13218
X19410Y12283
X19783Y12239
X19785Y12524
X20158Y12283
X20060Y11417
X20375Y11417
X20690Y11417
X21005Y11417
X21319Y11417
X21634Y11417
X21949Y11417
X22264Y11417
X22579Y11417
X23170Y11614
X23524Y11417
X23839Y11417
X24154Y11417
X24469Y11417
X24784Y11417
X25099Y11417
X25414Y11417
X25729Y11417
X26044Y11417
X26556Y11456
X26462Y12111
X26860Y12147
X27205Y12102
X27484Y12404
X27426Y11649
X27737Y11417
X28800Y11417
X29194Y11417
X29555Y11441
X29547Y11904
X29777Y12349
X29858Y13222
X30298Y12999
X29112Y12687
X28649Y12368
X28692Y13219
X28249Y13267
X27764Y13695
X27756Y13980
X27688Y14340
X27685Y14636
X28415Y14537
X28406Y14921
X28415Y15246
X28076Y15574
X28415Y15954
X28399Y16306
X28419Y16601
X28102Y16283
X29097Y15855
X29100Y15411
X30276Y15555
X30256Y16076
X30257Y16465
X29432Y16930
X29132Y16891
X29109Y17344
X29109Y17631
X29109Y17918
X29109Y18334
X29109Y18620
X29091Y19044
X29091Y19352
X29091Y19641
X28867Y20381
X28587Y20476
X28275Y20871
X28573Y21191
X28573Y21757
X28580Y22043
X28489Y22704
X28692Y23449
X28524Y23681
X28824Y23716
X29449Y23880
X29745Y23880
X30371Y23675
X30657Y23675
X30493Y23392
X30389Y22716
X30548Y22447
X30728Y21870
X30252Y21870
X29766Y22024
X29766Y21692
X29766Y21397
X29773Y21106
X30536Y20884
X30532Y20507
X31335Y20499
X31308Y20833
X31603Y20401
X32082Y20358
X32107Y19763
X32107Y19370
X32107Y18976
X32107Y18582
X32107Y18189
X32107Y17795
X32107Y17401
X32107Y17007
X32068Y16378
X32107Y15984
X32107Y15669
X32107Y15295
X31979Y14812
X32068Y14448
X32107Y13818
X31823Y13708
X32107Y13267
X32086Y12105
X32107Y11417
X31083Y14685
X30957Y14980
X30088Y14495
X28096Y14203
X27219Y13755
X27087Y13366
X26749Y13437
X26326Y13759
X25886Y13858
X25145Y13780
X24617Y12844
X24477Y12565
X24406Y12258
X24144Y12948
X23313Y12919
X23121Y12594
X22377Y12940
X22451Y13788
X22157Y13788
X21866Y13788
X20680Y13730
X20650Y13267
X20925Y12736
X20951Y11832
X22061Y11705
X19745Y11417
X19430Y11417
X19115Y11417
X20309Y14321
X20465Y14560
X20237Y14852
X20020Y15279
X20461Y15277
X20559Y15961
X20043Y16250
X19767Y15696
X19756Y16905
X18957Y18582
X18957Y18897
X18957Y19212
X18957Y19527
X18957Y19842
X18957Y20157
X18957Y20472
X18957Y20787
X18957Y21102
X19476Y21716
X19036Y22322
X18957Y22795
X19528Y23393
X19528Y23712
X19528Y24030
X19528Y24348
X19528Y24667
X19892Y24993
X19174Y25036
X20770Y24205
X20637Y23626
X21201Y22716
X21434Y22012
X21420Y21692
X21425Y21404
X21426Y21106
X22213Y20884
X22222Y20471
X22732Y20856
X23022Y21072
X23022Y21645
X22985Y22031
X22381Y21897
X21881Y21904
X22221Y22450
X22100Y23116
X22417Y23116
X22763Y23116
X21753Y23127
X23564Y22716
X25780Y22031
X25778Y21632
X25778Y21193
X25696Y20809
X24969Y20831
X25020Y20549
X26162Y20417
X26486Y20409
X26508Y19917
X26918Y20197
X26989Y21026
X26966Y21397
X26979Y21692
X26989Y22192
X27284Y21929
X27953Y21884
X27753Y22426
X27824Y23302
X27593Y23882
X26883Y23675
X26591Y23675
X26733Y23385
X26610Y22716
X25964Y23836
X25636Y23887
X27631Y20878
X27830Y20472
X29443Y20422
X29977Y19803
X29977Y19042
X29977Y18281
X29976Y17519
X26293Y17572
X26497Y17247
X26335Y16359
X27414Y15259
X26615Y12636
X26171Y12732
X26078Y13002
X25875Y12639
X23369Y13981
X23311Y14264
X21738Y19797
X21359Y19448
X20272Y19593
X20321Y20322
X20633Y20290
X21096Y20422
X19561Y20115
X25883Y19060
X31369Y21604
X31331Y22069
X31613Y22391
X32104Y22430
X31506Y22982
X31772Y23294
X32107Y23976
X32107Y24370
X32087Y24955
X31516Y24763
X31319Y23880
X31979Y21072
X10769Y19852
X11113Y19645
X11232Y20147
X11202Y21545
T02
X828Y6299
X1104Y6967
X1104Y5631
X1772Y7244
X1772Y5354
X2441Y6967
X2441Y5631
X2717Y6299
X50434Y6299
X50711Y6967
X50711Y5631
X51379Y7244
X51379Y5354
X52047Y6967
X52047Y5631
X52324Y6299
X10024Y3225G85X10024Y2792
X10024Y1481G85X10024Y1245
X13425Y3225G85X13425Y2792
X13425Y1481G85X13425Y1245
T03
X25896Y32654
X25896Y32154
X25896Y31654
X37027Y37195
X37527Y37195
X38027Y37195
X39929Y37195
X40429Y37195
X40929Y37195
X42773Y37195
X43273Y37195
X43773Y37195
X45622Y37195
X46122Y37195
X46622Y37195
X48472Y37195
X48972Y37195
X49472Y37195
X51307Y37195
X51807Y37195
X52307Y37195
X18268Y2546
X18268Y1916
X18957Y2861
X18957Y2231
X18957Y1601
X18356Y3668G85X18868Y3668
X18356Y794G85X18868Y794
X10587Y2812
X12862Y2812
T04
X3288Y24970
X5798Y31378
X40188Y41211
X40188Y40659
X40749Y41211
X40749Y40659
X6609Y27451
X6609Y26585
X6609Y25719
X8344Y17239
X8538Y27451
X8538Y26585
X8538Y25719
X9344Y17239
X9538Y27470
X9538Y25541
X10344Y17239
X11344Y17239
X12344Y17239
X13344Y17239
X31387Y9222
X32887Y9222
X15764Y5558
X15764Y4574
X15764Y3589
X15764Y2605
X15764Y1621
X26012Y20059
X24434Y20059
X23012Y20059
T05
X20217Y9183
X4373Y6843
X4373Y5843
X4373Y4843
X4377Y3663
X4377Y2663
X4377Y1663
X4792Y31722
X5373Y6843
X5373Y5843
X5373Y4843
X5377Y3663
X5377Y2663
X5377Y1663
X5885Y24459
X6167Y19545
X6373Y6843
X6373Y5843
X6373Y4843
X6377Y3663
X6377Y2663
X6377Y1663
X7309Y19545
X7373Y6843
X7373Y5843
X7373Y4843
X7377Y3663
X7377Y2663
X7377Y1663
X8373Y6843
X8373Y5843
X8373Y4843
X8377Y3663
X8377Y2663
X8377Y1663
X10491Y33583
X10855Y29793
X19324Y7851
X19333Y6502
X22353Y1919
X22530Y8022
X23081Y1919
X25030Y1919
X25050Y8022
X25798Y8022
X27491Y8022
X29774Y1919
X29952Y8022
X46487Y4262
X46487Y3051
X50877Y34321
X50877Y33321
X50877Y32321
X50877Y31321
X50877Y30321
X50877Y29321
X29775Y1919
X25030Y1919
X25050Y8022
X25798Y8022
X27491Y8022
X29952Y8022
X22530Y8022
X22353Y1919
X23082Y1919
X47973Y20538
X49155Y19750
X47973Y18963
X47895Y27664
X48295Y25664
X47495Y25664
X31792Y11732
X22713Y12703
X22713Y11903
X20713Y12303
T06
X4598Y46063
X4598Y44094
X5910Y46063
X5910Y44094
X7223Y46063
X7223Y44094
X8535Y46063
X8535Y44094
X9847Y46063
X9847Y44094
X11160Y46063
X11160Y44094
X12472Y46063
X12472Y44094
X13784Y46063
X13784Y44094
X15097Y46063
X15097Y44094
X16409Y46063
X16409Y44094
X17721Y46063
X17721Y44094
X19034Y46063
X19034Y44094
X20346Y46063
X20346Y44094
X21658Y46063
X21658Y44094
X31496Y46063
X31496Y44094
X32808Y46063
X32808Y44094
X34120Y46063
X34120Y44094
X35433Y46063
X35433Y44094
X36745Y46063
X36745Y44094
X38057Y46063
X38057Y44094
X39370Y46063
X39370Y44094
X40682Y46063
X40682Y44094
X41994Y46063
X41994Y44094
X43307Y46063
X43307Y44094
X44619Y46063
X44619Y44094
X45931Y46063
X45931Y44094
X47244Y46063
X47244Y44094
X48556Y46063
X48556Y44094
X51782Y20715
X51782Y19715
X51782Y18715
T07
X36497Y6270
X36497Y3317
T08
X47009Y15138
X47009Y13484
X47009Y11831
X49174Y15138
X49174Y13484
X49174Y11831
T09
X6344Y12239
X15344Y12239
X52048Y15138
X52048Y11831
T10
X1772Y6299
X51379Y6299
T11
X1694Y45669
X51457Y45669
M30
