G75*
G70*
%OFA0B0*%
%FSLAX25Y25*%
%IPPOS*%
%LPD*%
%AMOC8*
5,1,8,0,0,1.08239X$1,22.5*
%
%AMM100*
21,1,0.021650,0.052760,-0.000000,0.000000,0.000000*
21,1,0.017320,0.057090,-0.000000,0.000000,0.000000*
1,1,0.004330,0.008660,-0.026380*
1,1,0.004330,-0.008660,-0.026380*
1,1,0.004330,-0.008660,0.026380*
1,1,0.004330,0.008660,0.026380*
%
%AMM101*
21,1,0.035830,0.026770,-0.000000,0.000000,90.000000*
21,1,0.029130,0.033470,-0.000000,0.000000,90.000000*
1,1,0.006690,0.013390,0.014570*
1,1,0.006690,0.013390,-0.014570*
1,1,0.006690,-0.013390,-0.014570*
1,1,0.006690,-0.013390,0.014570*
%
%AMM102*
21,1,0.070870,0.036220,-0.000000,0.000000,180.000000*
21,1,0.061810,0.045280,-0.000000,0.000000,180.000000*
1,1,0.009060,-0.030910,0.018110*
1,1,0.009060,0.030910,0.018110*
1,1,0.009060,0.030910,-0.018110*
1,1,0.009060,-0.030910,-0.018110*
%
%AMM103*
21,1,0.033470,0.026770,-0.000000,0.000000,90.000000*
21,1,0.026770,0.033470,-0.000000,0.000000,90.000000*
1,1,0.006690,0.013390,0.013390*
1,1,0.006690,0.013390,-0.013390*
1,1,0.006690,-0.013390,-0.013390*
1,1,0.006690,-0.013390,0.013390*
%
%AMM104*
21,1,0.015750,0.016540,-0.000000,0.000000,0.000000*
21,1,0.012600,0.019680,-0.000000,0.000000,0.000000*
1,1,0.003150,0.006300,-0.008270*
1,1,0.003150,-0.006300,-0.008270*
1,1,0.003150,-0.006300,0.008270*
1,1,0.003150,0.006300,0.008270*
%
%AMM105*
21,1,0.023620,0.018900,-0.000000,0.000000,180.000000*
21,1,0.018900,0.023620,-0.000000,0.000000,180.000000*
1,1,0.004720,-0.009450,0.009450*
1,1,0.004720,0.009450,0.009450*
1,1,0.004720,0.009450,-0.009450*
1,1,0.004720,-0.009450,-0.009450*
%
%AMM106*
21,1,0.019680,0.019680,-0.000000,0.000000,90.000000*
21,1,0.015750,0.023620,-0.000000,0.000000,90.000000*
1,1,0.003940,0.009840,0.007870*
1,1,0.003940,0.009840,-0.007870*
1,1,0.003940,-0.009840,-0.007870*
1,1,0.003940,-0.009840,0.007870*
%
%AMM107*
21,1,0.019680,0.019680,-0.000000,0.000000,0.000000*
21,1,0.015750,0.023620,-0.000000,0.000000,0.000000*
1,1,0.003940,0.007870,-0.009840*
1,1,0.003940,-0.007870,-0.009840*
1,1,0.003940,-0.007870,0.009840*
1,1,0.003940,0.007870,0.009840*
%
%AMM141*
21,1,0.021650,0.052760,0.000000,-0.000000,180.000000*
21,1,0.017320,0.057090,0.000000,-0.000000,180.000000*
1,1,0.004330,-0.008660,0.026380*
1,1,0.004330,0.008660,0.026380*
1,1,0.004330,0.008660,-0.026380*
1,1,0.004330,-0.008660,-0.026380*
%
%AMM206*
21,1,0.025590,0.026380,-0.000000,-0.000000,90.000000*
21,1,0.020470,0.031500,-0.000000,-0.000000,90.000000*
1,1,0.005120,0.013190,0.010240*
1,1,0.005120,0.013190,-0.010240*
1,1,0.005120,-0.013190,-0.010240*
1,1,0.005120,-0.013190,0.010240*
%
%AMM207*
21,1,0.017720,0.027950,-0.000000,-0.000000,90.000000*
21,1,0.014170,0.031500,-0.000000,-0.000000,90.000000*
1,1,0.003540,0.013980,0.007090*
1,1,0.003540,0.013980,-0.007090*
1,1,0.003540,-0.013980,-0.007090*
1,1,0.003540,-0.013980,0.007090*
%
%AMM208*
21,1,0.012600,0.028980,-0.000000,-0.000000,270.000000*
21,1,0.010080,0.031500,-0.000000,-0.000000,270.000000*
1,1,0.002520,-0.014490,-0.005040*
1,1,0.002520,-0.014490,0.005040*
1,1,0.002520,0.014490,0.005040*
1,1,0.002520,0.014490,-0.005040*
%
%AMM209*
21,1,0.023620,0.030710,-0.000000,-0.000000,0.000000*
21,1,0.018900,0.035430,-0.000000,-0.000000,0.000000*
1,1,0.004720,0.009450,-0.015350*
1,1,0.004720,-0.009450,-0.015350*
1,1,0.004720,-0.009450,0.015350*
1,1,0.004720,0.009450,0.015350*
%
%AMM210*
21,1,0.027560,0.018900,-0.000000,-0.000000,270.000000*
21,1,0.022840,0.023620,-0.000000,-0.000000,270.000000*
1,1,0.004720,-0.009450,-0.011420*
1,1,0.004720,-0.009450,0.011420*
1,1,0.004720,0.009450,0.011420*
1,1,0.004720,0.009450,-0.011420*
%
%AMM211*
21,1,0.031500,0.072440,-0.000000,-0.000000,270.000000*
21,1,0.025200,0.078740,-0.000000,-0.000000,270.000000*
1,1,0.006300,-0.036220,-0.012600*
1,1,0.006300,-0.036220,0.012600*
1,1,0.006300,0.036220,0.012600*
1,1,0.006300,0.036220,-0.012600*
%
%AMM212*
21,1,0.027560,0.018900,-0.000000,-0.000000,0.000000*
21,1,0.022840,0.023620,-0.000000,-0.000000,0.000000*
1,1,0.004720,0.011420,-0.009450*
1,1,0.004720,-0.011420,-0.009450*
1,1,0.004720,-0.011420,0.009450*
1,1,0.004720,0.011420,0.009450*
%
%AMM213*
21,1,0.023620,0.030710,-0.000000,-0.000000,90.000000*
21,1,0.018900,0.035430,-0.000000,-0.000000,90.000000*
1,1,0.004720,0.015350,0.009450*
1,1,0.004720,0.015350,-0.009450*
1,1,0.004720,-0.015350,-0.009450*
1,1,0.004720,-0.015350,0.009450*
%
%AMM214*
21,1,0.035430,0.030320,-0.000000,-0.000000,90.000000*
21,1,0.028350,0.037400,-0.000000,-0.000000,90.000000*
1,1,0.007090,0.015160,0.014170*
1,1,0.007090,0.015160,-0.014170*
1,1,0.007090,-0.015160,-0.014170*
1,1,0.007090,-0.015160,0.014170*
%
%AMM215*
21,1,0.043310,0.075980,-0.000000,-0.000000,180.000000*
21,1,0.034650,0.084650,-0.000000,-0.000000,180.000000*
1,1,0.008660,-0.017320,0.037990*
1,1,0.008660,0.017320,0.037990*
1,1,0.008660,0.017320,-0.037990*
1,1,0.008660,-0.017320,-0.037990*
%
%AMM216*
21,1,0.039370,0.035430,-0.000000,-0.000000,180.000000*
21,1,0.031500,0.043310,-0.000000,-0.000000,180.000000*
1,1,0.007870,-0.015750,0.017720*
1,1,0.007870,0.015750,0.017720*
1,1,0.007870,0.015750,-0.017720*
1,1,0.007870,-0.015750,-0.017720*
%
%AMM217*
21,1,0.027560,0.030710,-0.000000,-0.000000,180.000000*
21,1,0.022050,0.036220,-0.000000,-0.000000,180.000000*
1,1,0.005510,-0.011020,0.015350*
1,1,0.005510,0.011020,0.015350*
1,1,0.005510,0.011020,-0.015350*
1,1,0.005510,-0.011020,-0.015350*
%
%AMM218*
21,1,0.031500,0.072440,-0.000000,-0.000000,180.000000*
21,1,0.025200,0.078740,-0.000000,-0.000000,180.000000*
1,1,0.006300,-0.012600,0.036220*
1,1,0.006300,0.012600,0.036220*
1,1,0.006300,0.012600,-0.036220*
1,1,0.006300,-0.012600,-0.036220*
%
%AMM219*
21,1,0.137800,0.067720,-0.000000,-0.000000,180.000000*
21,1,0.120870,0.084650,-0.000000,-0.000000,180.000000*
1,1,0.016930,-0.060430,0.033860*
1,1,0.016930,0.060430,0.033860*
1,1,0.016930,0.060430,-0.033860*
1,1,0.016930,-0.060430,-0.033860*
%
%AMM220*
21,1,0.043310,0.075990,-0.000000,-0.000000,180.000000*
21,1,0.034650,0.084650,-0.000000,-0.000000,180.000000*
1,1,0.008660,-0.017320,0.037990*
1,1,0.008660,0.017320,0.037990*
1,1,0.008660,0.017320,-0.037990*
1,1,0.008660,-0.017320,-0.037990*
%
%AMM221*
21,1,0.086610,0.073230,-0.000000,-0.000000,270.000000*
21,1,0.069290,0.090550,-0.000000,-0.000000,270.000000*
1,1,0.017320,-0.036610,-0.034650*
1,1,0.017320,-0.036610,0.034650*
1,1,0.017320,0.036610,0.034650*
1,1,0.017320,0.036610,-0.034650*
%
%AMM74*
21,1,0.035430,0.030320,0.000000,0.000000,180.000000*
21,1,0.028350,0.037400,0.000000,0.000000,180.000000*
1,1,0.007090,-0.014170,0.015160*
1,1,0.007090,0.014170,0.015160*
1,1,0.007090,0.014170,-0.015160*
1,1,0.007090,-0.014170,-0.015160*
%
%AMM9*
21,1,0.033470,0.026770,0.000000,0.000000,0.000000*
21,1,0.026770,0.033470,0.000000,0.000000,0.000000*
1,1,0.006690,0.013390,-0.013390*
1,1,0.006690,-0.013390,-0.013390*
1,1,0.006690,-0.013390,0.013390*
1,1,0.006690,0.013390,0.013390*
%
%AMM92*
21,1,0.027560,0.030710,0.000000,0.000000,180.000000*
21,1,0.022050,0.036220,0.000000,0.000000,180.000000*
1,1,0.005510,-0.011020,0.015350*
1,1,0.005510,0.011020,0.015350*
1,1,0.005510,0.011020,-0.015350*
1,1,0.005510,-0.011020,-0.015350*
%
%AMM95*
21,1,0.086610,0.073230,-0.000000,0.000000,0.000000*
21,1,0.069290,0.090550,-0.000000,0.000000,0.000000*
1,1,0.017320,0.034650,-0.036610*
1,1,0.017320,-0.034650,-0.036610*
1,1,0.017320,-0.034650,0.036610*
1,1,0.017320,0.034650,0.036610*
%
%AMM96*
21,1,0.094490,0.111020,-0.000000,0.000000,90.000000*
21,1,0.075590,0.129920,-0.000000,0.000000,90.000000*
1,1,0.018900,0.055510,0.037800*
1,1,0.018900,0.055510,-0.037800*
1,1,0.018900,-0.055510,-0.037800*
1,1,0.018900,-0.055510,0.037800*
%
%AMM97*
21,1,0.074800,0.083460,-0.000000,0.000000,90.000000*
21,1,0.059840,0.098430,-0.000000,0.000000,90.000000*
1,1,0.014960,0.041730,0.029920*
1,1,0.014960,0.041730,-0.029920*
1,1,0.014960,-0.041730,-0.029920*
1,1,0.014960,-0.041730,0.029920*
%
%AMM98*
21,1,0.078740,0.053540,-0.000000,0.000000,270.000000*
21,1,0.065350,0.066930,-0.000000,0.000000,270.000000*
1,1,0.013390,-0.026770,-0.032680*
1,1,0.013390,-0.026770,0.032680*
1,1,0.013390,0.026770,0.032680*
1,1,0.013390,0.026770,-0.032680*
%
%AMM99*
21,1,0.035430,0.030320,-0.000000,0.000000,180.000000*
21,1,0.028350,0.037400,-0.000000,0.000000,180.000000*
1,1,0.007090,-0.014170,0.015160*
1,1,0.007090,0.014170,0.015160*
1,1,0.007090,0.014170,-0.015160*
1,1,0.007090,-0.014170,-0.015160*
%
%ADD118M9*%
%ADD13R,0.09055X0.17323*%
%ADD14R,0.09055X0.15748*%
%ADD168R,0.02559X0.01575*%
%ADD169R,0.01575X0.02559*%
%ADD172R,0.03543X0.03150*%
%ADD175R,0.03150X0.03543*%
%ADD195O,0.04724X0.00866*%
%ADD196O,0.00866X0.04724*%
%ADD197O,0.04331X0.01181*%
%ADD200R,0.01378X0.00984*%
%ADD201R,0.00984X0.01378*%
%ADD206O,0.08661X0.02362*%
%ADD247M74*%
%ADD277M92*%
%ADD285M95*%
%ADD286M96*%
%ADD287M97*%
%ADD288M98*%
%ADD289M99*%
%ADD290M100*%
%ADD291M101*%
%ADD292M102*%
%ADD293M103*%
%ADD294M104*%
%ADD295M105*%
%ADD296M106*%
%ADD297M107*%
%ADD30C,0.02362*%
%ADD334M141*%
%ADD344R,0.01181X0.05512*%
%ADD345R,0.08661X0.04724*%
%ADD349R,0.12008X0.10827*%
%ADD427M206*%
%ADD428M207*%
%ADD429M208*%
%ADD430M209*%
%ADD431M210*%
%ADD432M211*%
%ADD433M212*%
%ADD434M213*%
%ADD435M214*%
%ADD436M215*%
%ADD437M216*%
%ADD438M217*%
%ADD439M218*%
%ADD440M219*%
%ADD441M220*%
%ADD442M221*%
%ADD57R,0.05118X0.03937*%
%ADD58R,0.02559X0.07874*%
%ADD60R,0.00787X0.14567*%
%ADD61R,0.00787X0.01575*%
%ADD62R,0.00787X0.06299*%
%ADD63R,0.00787X0.38189*%
%ADD64R,0.00787X0.09055*%
%ADD65R,0.05512X0.00787*%
%ADD66R,0.25197X0.00787*%
%ADD67R,0.06693X0.00787*%
%ADD68R,0.12992X0.00787*%
%ADD69R,0.00787X0.27559*%
%ADD70R,0.00787X0.12992*%
%ADD71R,0.00787X0.24803*%
%ADD72R,0.01181X0.04528*%
%ADD78R,0.05315X0.02717*%
%ADD81C,0.03150*%
%ADD92O,0.00000X0.00000*%
%ADD93R,0.04567X0.07677*%
X0000000Y0000000D02*
%LPD*%
G01*
G36*
G01*
X0350992Y0294193D02*
X0350992Y0289272D01*
G75*
G02*
X0350598Y0288878I-000394J0000000D01*
G01*
X0347449Y0288878D01*
G75*
G02*
X0347055Y0289272I0000000J0000394D01*
G01*
X0347055Y0294193D01*
G75*
G02*
X0347449Y0294587I0000394J0000000D01*
G01*
X0350598Y0294587D01*
G75*
G02*
X0350992Y0294193I0000000J-000394D01*
G01*
G37*
G36*
G01*
X0343512Y0294193D02*
X0343512Y0289272D01*
G75*
G02*
X0343118Y0288878I-000394J0000000D01*
G01*
X0339968Y0288878D01*
G75*
G02*
X0339575Y0289272I0000000J0000394D01*
G01*
X0339575Y0294193D01*
G75*
G02*
X0339968Y0294587I0000394J0000000D01*
G01*
X0343118Y0294587D01*
G75*
G02*
X0343512Y0294193I0000000J-000394D01*
G01*
G37*
G36*
G01*
X0384555Y0134508D02*
X0384555Y0133327D01*
G75*
G02*
X0383965Y0132736I-000591J0000000D01*
G01*
X0379339Y0132736D01*
G75*
G02*
X0378748Y0133327I0000000J0000591D01*
G01*
X0378748Y0134508D01*
G75*
G02*
X0379339Y0135098I0000591J0000000D01*
G01*
X0383965Y0135098D01*
G75*
G02*
X0384555Y0134508I0000000J-000591D01*
G01*
G37*
G36*
G01*
X0384555Y0141988D02*
X0384555Y0140807D01*
G75*
G02*
X0383965Y0140217I-000591J0000000D01*
G01*
X0379339Y0140217D01*
G75*
G02*
X0378748Y0140807I0000000J0000591D01*
G01*
X0378748Y0141988D01*
G75*
G02*
X0379339Y0142579I0000591J0000000D01*
G01*
X0383965Y0142579D01*
G75*
G02*
X0384555Y0141988I0000000J-000591D01*
G01*
G37*
G36*
G01*
X0377173Y0138248D02*
X0377173Y0137067D01*
G75*
G02*
X0376583Y0136476I-000591J0000000D01*
G01*
X0371957Y0136476D01*
G75*
G02*
X0371366Y0137067I0000000J0000591D01*
G01*
X0371366Y0138248D01*
G75*
G02*
X0371957Y0138839I0000591J0000000D01*
G01*
X0376583Y0138839D01*
G75*
G02*
X0377173Y0138248I0000000J-000591D01*
G01*
G37*
G36*
G01*
X0103758Y0384154D02*
X0102577Y0384154D01*
G75*
G02*
X0101986Y0384744I0000000J0000591D01*
G01*
X0101986Y0391240D01*
G75*
G02*
X0102577Y0391831I0000591J0000000D01*
G01*
X0103758Y0391831D01*
G75*
G02*
X0104348Y0391240I0000000J-000591D01*
G01*
X0104348Y0384744D01*
G75*
G02*
X0103758Y0384154I-000591J0000000D01*
G01*
G37*
G36*
G01*
X0108758Y0384154D02*
X0107577Y0384154D01*
G75*
G02*
X0106986Y0384744I0000000J0000591D01*
G01*
X0106986Y0391240D01*
G75*
G02*
X0107577Y0391831I0000591J0000000D01*
G01*
X0108758Y0391831D01*
G75*
G02*
X0109348Y0391240I0000000J-000591D01*
G01*
X0109348Y0384744D01*
G75*
G02*
X0108758Y0384154I-000591J0000000D01*
G01*
G37*
G36*
G01*
X0113758Y0384154D02*
X0112577Y0384154D01*
G75*
G02*
X0111986Y0384744I0000000J0000591D01*
G01*
X0111986Y0391240D01*
G75*
G02*
X0112577Y0391831I0000591J0000000D01*
G01*
X0113758Y0391831D01*
G75*
G02*
X0114348Y0391240I0000000J-000591D01*
G01*
X0114348Y0384744D01*
G75*
G02*
X0113758Y0384154I-000591J0000000D01*
G01*
G37*
G36*
G01*
X0118758Y0384154D02*
X0117577Y0384154D01*
G75*
G02*
X0116986Y0384744I0000000J0000591D01*
G01*
X0116986Y0391240D01*
G75*
G02*
X0117577Y0391831I0000591J0000000D01*
G01*
X0118758Y0391831D01*
G75*
G02*
X0119348Y0391240I0000000J-000591D01*
G01*
X0119348Y0384744D01*
G75*
G02*
X0118758Y0384154I-000591J0000000D01*
G01*
G37*
G36*
G01*
X0118758Y0403642D02*
X0117577Y0403642D01*
G75*
G02*
X0116986Y0404232I0000000J0000591D01*
G01*
X0116986Y0410728D01*
G75*
G02*
X0117577Y0411319I0000591J0000000D01*
G01*
X0118758Y0411319D01*
G75*
G02*
X0119348Y0410728I0000000J-000591D01*
G01*
X0119348Y0404232D01*
G75*
G02*
X0118758Y0403642I-000591J0000000D01*
G01*
G37*
G36*
G01*
X0113758Y0403642D02*
X0112577Y0403642D01*
G75*
G02*
X0111986Y0404232I0000000J0000591D01*
G01*
X0111986Y0410728D01*
G75*
G02*
X0112577Y0411319I0000591J0000000D01*
G01*
X0113758Y0411319D01*
G75*
G02*
X0114348Y0410728I0000000J-000591D01*
G01*
X0114348Y0404232D01*
G75*
G02*
X0113758Y0403642I-000591J0000000D01*
G01*
G37*
G36*
G01*
X0108758Y0403642D02*
X0107577Y0403642D01*
G75*
G02*
X0106986Y0404232I0000000J0000591D01*
G01*
X0106986Y0410728D01*
G75*
G02*
X0107577Y0411319I0000591J0000000D01*
G01*
X0108758Y0411319D01*
G75*
G02*
X0109348Y0410728I0000000J-000591D01*
G01*
X0109348Y0404232D01*
G75*
G02*
X0108758Y0403642I-000591J0000000D01*
G01*
G37*
G36*
G01*
X0103758Y0403642D02*
X0102577Y0403642D01*
G75*
G02*
X0101986Y0404232I0000000J0000591D01*
G01*
X0101986Y0410728D01*
G75*
G02*
X0102577Y0411319I0000591J0000000D01*
G01*
X0103758Y0411319D01*
G75*
G02*
X0104348Y0410728I0000000J-000591D01*
G01*
X0104348Y0404232D01*
G75*
G02*
X0103758Y0403642I-000591J0000000D01*
G01*
G37*
G36*
G01*
X0050047Y0308720D02*
X0050047Y0306043D01*
G75*
G02*
X0049713Y0305709I-000335J0000000D01*
G01*
X0047035Y0305709D01*
G75*
G02*
X0046701Y0306043I0000000J0000335D01*
G01*
X0046701Y0308720D01*
G75*
G02*
X0047035Y0309055I0000335J0000000D01*
G01*
X0049713Y0309055D01*
G75*
G02*
X0050047Y0308720I0000000J-000335D01*
G01*
G37*
G36*
G01*
X0043827Y0308720D02*
X0043827Y0306043D01*
G75*
G02*
X0043492Y0305709I-000335J0000000D01*
G01*
X0040815Y0305709D01*
G75*
G02*
X0040480Y0306043I0000000J0000335D01*
G01*
X0040480Y0308720D01*
G75*
G02*
X0040815Y0309055I0000335J0000000D01*
G01*
X0043492Y0309055D01*
G75*
G02*
X0043827Y0308720I0000000J-000335D01*
G01*
G37*
G36*
G01*
X0350992Y0284350D02*
X0350992Y0279429D01*
G75*
G02*
X0350598Y0279035I-000394J0000000D01*
G01*
X0347449Y0279035D01*
G75*
G02*
X0347055Y0279429I0000000J0000394D01*
G01*
X0347055Y0284350D01*
G75*
G02*
X0347449Y0284744I0000394J0000000D01*
G01*
X0350598Y0284744D01*
G75*
G02*
X0350992Y0284350I0000000J-000394D01*
G01*
G37*
G36*
G01*
X0343512Y0284350D02*
X0343512Y0279429D01*
G75*
G02*
X0343118Y0279035I-000394J0000000D01*
G01*
X0339968Y0279035D01*
G75*
G02*
X0339575Y0279429I0000000J0000394D01*
G01*
X0339575Y0284350D01*
G75*
G02*
X0339968Y0284744I0000394J0000000D01*
G01*
X0343118Y0284744D01*
G75*
G02*
X0343512Y0284350I0000000J-000394D01*
G01*
G37*
G36*
G01*
X0420963Y0379724D02*
X0418207Y0379724D01*
G75*
G02*
X0417222Y0380709I0000000J0000984D01*
G01*
X0417222Y0387402D01*
G75*
G02*
X0418207Y0388386I0000984J0000000D01*
G01*
X0420963Y0388386D01*
G75*
G02*
X0421947Y0387402I0000000J-000984D01*
G01*
X0421947Y0380709D01*
G75*
G02*
X0420963Y0379724I-000984J0000000D01*
G01*
G37*
G36*
G01*
X0426986Y0396260D02*
X0418128Y0396260D01*
G75*
G02*
X0417144Y0397244I0000000J0000984D01*
G01*
X0417144Y0407283D01*
G75*
G02*
X0418128Y0408268I0000984J0000000D01*
G01*
X0426986Y0408268D01*
G75*
G02*
X0427970Y0407283I0000000J-000984D01*
G01*
X0427970Y0397244D01*
G75*
G02*
X0426986Y0396260I-000984J0000000D01*
G01*
G37*
G36*
G01*
X0438994Y0396260D02*
X0430136Y0396260D01*
G75*
G02*
X0429152Y0397244I0000000J0000984D01*
G01*
X0429152Y0407283D01*
G75*
G02*
X0430136Y0408268I0000984J0000000D01*
G01*
X0438994Y0408268D01*
G75*
G02*
X0439978Y0407283I0000000J-000984D01*
G01*
X0439978Y0397244D01*
G75*
G02*
X0438994Y0396260I-000984J0000000D01*
G01*
G37*
G36*
G01*
X0426986Y0409449D02*
X0418128Y0409449D01*
G75*
G02*
X0417144Y0410433I0000000J0000984D01*
G01*
X0417144Y0420472D01*
G75*
G02*
X0418128Y0421457I0000984J0000000D01*
G01*
X0426986Y0421457D01*
G75*
G02*
X0427970Y0420472I0000000J-000984D01*
G01*
X0427970Y0410433D01*
G75*
G02*
X0426986Y0409449I-000984J0000000D01*
G01*
G37*
G36*
G01*
X0438994Y0409449D02*
X0430136Y0409449D01*
G75*
G02*
X0429152Y0410433I0000000J0000984D01*
G01*
X0429152Y0420472D01*
G75*
G02*
X0430136Y0421457I0000984J0000000D01*
G01*
X0438994Y0421457D01*
G75*
G02*
X0439978Y0420472I0000000J-000984D01*
G01*
X0439978Y0410433D01*
G75*
G02*
X0438994Y0409449I-000984J0000000D01*
G01*
G37*
G36*
G01*
X0438915Y0379724D02*
X0436159Y0379724D01*
G75*
G02*
X0435175Y0380709I0000000J0000984D01*
G01*
X0435175Y0387402D01*
G75*
G02*
X0436159Y0388386I0000984J0000000D01*
G01*
X0438915Y0388386D01*
G75*
G02*
X0439900Y0387402I0000000J-000984D01*
G01*
X0439900Y0380709D01*
G75*
G02*
X0438915Y0379724I-000984J0000000D01*
G01*
G37*
G36*
G01*
X0144213Y0152383D02*
X0146890Y0152383D01*
G75*
G02*
X0147224Y0152048I0000000J-000335D01*
G01*
X0147224Y0149371D01*
G75*
G02*
X0146890Y0149036I-000335J0000000D01*
G01*
X0144213Y0149036D01*
G75*
G02*
X0143878Y0149371I0000000J0000335D01*
G01*
X0143878Y0152048D01*
G75*
G02*
X0144213Y0152383I0000335J0000000D01*
G01*
G37*
G36*
G01*
X0144213Y0146162D02*
X0146890Y0146162D01*
G75*
G02*
X0147224Y0145828I0000000J-000335D01*
G01*
X0147224Y0143151D01*
G75*
G02*
X0146890Y0142816I-000335J0000000D01*
G01*
X0144213Y0142816D01*
G75*
G02*
X0143878Y0143151I0000000J0000335D01*
G01*
X0143878Y0145828D01*
G75*
G02*
X0144213Y0146162I0000335J0000000D01*
G01*
G37*
D13*
X0364969Y0078839D03*
D14*
X0364969Y0015846D03*
G36*
G01*
X0279240Y0386204D02*
X0278059Y0386204D01*
G75*
G02*
X0277469Y0386795I0000000J0000591D01*
G01*
X0277469Y0393291D01*
G75*
G02*
X0278059Y0393881I0000591J0000000D01*
G01*
X0279240Y0393881D01*
G75*
G02*
X0279831Y0393291I0000000J-000591D01*
G01*
X0279831Y0386795D01*
G75*
G02*
X0279240Y0386204I-000591J0000000D01*
G01*
G37*
G36*
G01*
X0284240Y0386204D02*
X0283059Y0386204D01*
G75*
G02*
X0282469Y0386795I0000000J0000591D01*
G01*
X0282469Y0393291D01*
G75*
G02*
X0283059Y0393881I0000591J0000000D01*
G01*
X0284240Y0393881D01*
G75*
G02*
X0284831Y0393291I0000000J-000591D01*
G01*
X0284831Y0386795D01*
G75*
G02*
X0284240Y0386204I-000591J0000000D01*
G01*
G37*
G36*
G01*
X0289240Y0386204D02*
X0288059Y0386204D01*
G75*
G02*
X0287469Y0386795I0000000J0000591D01*
G01*
X0287469Y0393291D01*
G75*
G02*
X0288059Y0393881I0000591J0000000D01*
G01*
X0289240Y0393881D01*
G75*
G02*
X0289831Y0393291I0000000J-000591D01*
G01*
X0289831Y0386795D01*
G75*
G02*
X0289240Y0386204I-000591J0000000D01*
G01*
G37*
G36*
G01*
X0294240Y0386204D02*
X0293059Y0386204D01*
G75*
G02*
X0292469Y0386795I0000000J0000591D01*
G01*
X0292469Y0393291D01*
G75*
G02*
X0293059Y0393881I0000591J0000000D01*
G01*
X0294240Y0393881D01*
G75*
G02*
X0294831Y0393291I0000000J-000591D01*
G01*
X0294831Y0386795D01*
G75*
G02*
X0294240Y0386204I-000591J0000000D01*
G01*
G37*
G36*
G01*
X0294240Y0405692D02*
X0293059Y0405692D01*
G75*
G02*
X0292469Y0406283I0000000J0000591D01*
G01*
X0292469Y0412779D01*
G75*
G02*
X0293059Y0413370I0000591J0000000D01*
G01*
X0294240Y0413370D01*
G75*
G02*
X0294831Y0412779I0000000J-000591D01*
G01*
X0294831Y0406283D01*
G75*
G02*
X0294240Y0405692I-000591J0000000D01*
G01*
G37*
G36*
G01*
X0289240Y0405692D02*
X0288059Y0405692D01*
G75*
G02*
X0287469Y0406283I0000000J0000591D01*
G01*
X0287469Y0412779D01*
G75*
G02*
X0288059Y0413370I0000591J0000000D01*
G01*
X0289240Y0413370D01*
G75*
G02*
X0289831Y0412779I0000000J-000591D01*
G01*
X0289831Y0406283D01*
G75*
G02*
X0289240Y0405692I-000591J0000000D01*
G01*
G37*
G36*
G01*
X0284240Y0405692D02*
X0283059Y0405692D01*
G75*
G02*
X0282469Y0406283I0000000J0000591D01*
G01*
X0282469Y0412779D01*
G75*
G02*
X0283059Y0413370I0000591J0000000D01*
G01*
X0284240Y0413370D01*
G75*
G02*
X0284831Y0412779I0000000J-000591D01*
G01*
X0284831Y0406283D01*
G75*
G02*
X0284240Y0405692I-000591J0000000D01*
G01*
G37*
G36*
G01*
X0279240Y0405692D02*
X0278059Y0405692D01*
G75*
G02*
X0277469Y0406283I0000000J0000591D01*
G01*
X0277469Y0412779D01*
G75*
G02*
X0278059Y0413370I0000591J0000000D01*
G01*
X0279240Y0413370D01*
G75*
G02*
X0279831Y0412779I0000000J-000591D01*
G01*
X0279831Y0406283D01*
G75*
G02*
X0279240Y0405692I-000591J0000000D01*
G01*
G37*
G36*
G01*
X0270992Y0380223D02*
X0270992Y0383294D01*
G75*
G02*
X0271268Y0383570I0000276J0000000D01*
G01*
X0273472Y0383570D01*
G75*
G02*
X0273748Y0383294I0000000J-000276D01*
G01*
X0273748Y0380223D01*
G75*
G02*
X0273472Y0379948I-000276J0000000D01*
G01*
X0271268Y0379948D01*
G75*
G02*
X0270992Y0380223I0000000J0000276D01*
G01*
G37*
G36*
G01*
X0277291Y0380223D02*
X0277291Y0383294D01*
G75*
G02*
X0277567Y0383570I0000276J0000000D01*
G01*
X0279772Y0383570D01*
G75*
G02*
X0280047Y0383294I0000000J-000276D01*
G01*
X0280047Y0380223D01*
G75*
G02*
X0279772Y0379948I-000276J0000000D01*
G01*
X0277567Y0379948D01*
G75*
G02*
X0277291Y0380223I0000000J0000276D01*
G01*
G37*
G36*
G01*
X0388504Y0149094D02*
X0391181Y0149094D01*
G75*
G02*
X0391516Y0148760I0000000J-000335D01*
G01*
X0391516Y0146083D01*
G75*
G02*
X0391181Y0145748I-000335J0000000D01*
G01*
X0388504Y0145748D01*
G75*
G02*
X0388169Y0146083I0000000J0000335D01*
G01*
X0388169Y0148760D01*
G75*
G02*
X0388504Y0149094I0000335J0000000D01*
G01*
G37*
G36*
G01*
X0388504Y0142874D02*
X0391181Y0142874D01*
G75*
G02*
X0391516Y0142539I0000000J-000335D01*
G01*
X0391516Y0139862D01*
G75*
G02*
X0391181Y0139528I-000335J0000000D01*
G01*
X0388504Y0139528D01*
G75*
G02*
X0388169Y0139862I0000000J0000335D01*
G01*
X0388169Y0142539D01*
G75*
G02*
X0388504Y0142874I0000335J0000000D01*
G01*
G37*
G36*
G01*
X0506356Y0379724D02*
X0503600Y0379724D01*
G75*
G02*
X0502616Y0380709I0000000J0000984D01*
G01*
X0502616Y0387402D01*
G75*
G02*
X0503600Y0388386I0000984J0000000D01*
G01*
X0506356Y0388386D01*
G75*
G02*
X0507341Y0387402I0000000J-000984D01*
G01*
X0507341Y0380709D01*
G75*
G02*
X0506356Y0379724I-000984J0000000D01*
G01*
G37*
G36*
G01*
X0512380Y0396260D02*
X0503522Y0396260D01*
G75*
G02*
X0502537Y0397244I0000000J0000984D01*
G01*
X0502537Y0407283D01*
G75*
G02*
X0503522Y0408268I0000984J0000000D01*
G01*
X0512380Y0408268D01*
G75*
G02*
X0513364Y0407283I0000000J-000984D01*
G01*
X0513364Y0397244D01*
G75*
G02*
X0512380Y0396260I-000984J0000000D01*
G01*
G37*
G36*
G01*
X0524388Y0396260D02*
X0515530Y0396260D01*
G75*
G02*
X0514545Y0397244I0000000J0000984D01*
G01*
X0514545Y0407283D01*
G75*
G02*
X0515530Y0408268I0000984J0000000D01*
G01*
X0524388Y0408268D01*
G75*
G02*
X0525372Y0407283I0000000J-000984D01*
G01*
X0525372Y0397244D01*
G75*
G02*
X0524388Y0396260I-000984J0000000D01*
G01*
G37*
G36*
G01*
X0512380Y0409449D02*
X0503522Y0409449D01*
G75*
G02*
X0502537Y0410433I0000000J0000984D01*
G01*
X0502537Y0420472D01*
G75*
G02*
X0503522Y0421457I0000984J0000000D01*
G01*
X0512380Y0421457D01*
G75*
G02*
X0513364Y0420472I0000000J-000984D01*
G01*
X0513364Y0410433D01*
G75*
G02*
X0512380Y0409449I-000984J0000000D01*
G01*
G37*
G36*
G01*
X0524388Y0409449D02*
X0515530Y0409449D01*
G75*
G02*
X0514545Y0410433I0000000J0000984D01*
G01*
X0514545Y0420472D01*
G75*
G02*
X0515530Y0421457I0000984J0000000D01*
G01*
X0524388Y0421457D01*
G75*
G02*
X0525372Y0420472I0000000J-000984D01*
G01*
X0525372Y0410433D01*
G75*
G02*
X0524388Y0409449I-000984J0000000D01*
G01*
G37*
G36*
G01*
X0524309Y0379724D02*
X0521553Y0379724D01*
G75*
G02*
X0520569Y0380709I0000000J0000984D01*
G01*
X0520569Y0387402D01*
G75*
G02*
X0521553Y0388386I0000984J0000000D01*
G01*
X0524309Y0388386D01*
G75*
G02*
X0525293Y0387402I0000000J-000984D01*
G01*
X0525293Y0380709D01*
G75*
G02*
X0524309Y0379724I-000984J0000000D01*
G01*
G37*
G36*
G01*
X0477892Y0379724D02*
X0475136Y0379724D01*
G75*
G02*
X0474152Y0380709I0000000J0000984D01*
G01*
X0474152Y0387402D01*
G75*
G02*
X0475136Y0388386I0000984J0000000D01*
G01*
X0477892Y0388386D01*
G75*
G02*
X0478876Y0387402I0000000J-000984D01*
G01*
X0478876Y0380709D01*
G75*
G02*
X0477892Y0379724I-000984J0000000D01*
G01*
G37*
G36*
G01*
X0483915Y0396260D02*
X0475057Y0396260D01*
G75*
G02*
X0474073Y0397244I0000000J0000984D01*
G01*
X0474073Y0407283D01*
G75*
G02*
X0475057Y0408268I0000984J0000000D01*
G01*
X0483915Y0408268D01*
G75*
G02*
X0484900Y0407283I0000000J-000984D01*
G01*
X0484900Y0397244D01*
G75*
G02*
X0483915Y0396260I-000984J0000000D01*
G01*
G37*
G36*
G01*
X0495923Y0396260D02*
X0487065Y0396260D01*
G75*
G02*
X0486081Y0397244I0000000J0000984D01*
G01*
X0486081Y0407283D01*
G75*
G02*
X0487065Y0408268I0000984J0000000D01*
G01*
X0495923Y0408268D01*
G75*
G02*
X0496907Y0407283I0000000J-000984D01*
G01*
X0496907Y0397244D01*
G75*
G02*
X0495923Y0396260I-000984J0000000D01*
G01*
G37*
G36*
G01*
X0483915Y0409449D02*
X0475057Y0409449D01*
G75*
G02*
X0474073Y0410433I0000000J0000984D01*
G01*
X0474073Y0420472D01*
G75*
G02*
X0475057Y0421457I0000984J0000000D01*
G01*
X0483915Y0421457D01*
G75*
G02*
X0484900Y0420472I0000000J-000984D01*
G01*
X0484900Y0410433D01*
G75*
G02*
X0483915Y0409449I-000984J0000000D01*
G01*
G37*
G36*
G01*
X0495923Y0409449D02*
X0487065Y0409449D01*
G75*
G02*
X0486081Y0410433I0000000J0000984D01*
G01*
X0486081Y0420472D01*
G75*
G02*
X0487065Y0421457I0000984J0000000D01*
G01*
X0495923Y0421457D01*
G75*
G02*
X0496907Y0420472I0000000J-000984D01*
G01*
X0496907Y0410433D01*
G75*
G02*
X0495923Y0409449I-000984J0000000D01*
G01*
G37*
G36*
G01*
X0495844Y0379724D02*
X0493089Y0379724D01*
G75*
G02*
X0492104Y0380709I0000000J0000984D01*
G01*
X0492104Y0387402D01*
G75*
G02*
X0493089Y0388386I0000984J0000000D01*
G01*
X0495844Y0388386D01*
G75*
G02*
X0496829Y0387402I0000000J-000984D01*
G01*
X0496829Y0380709D01*
G75*
G02*
X0495844Y0379724I-000984J0000000D01*
G01*
G37*
G36*
G01*
X0025126Y0243740D02*
X0025126Y0246417D01*
G75*
G02*
X0025461Y0246752I0000335J0000000D01*
G01*
X0028138Y0246752D01*
G75*
G02*
X0028472Y0246417I0000000J-000335D01*
G01*
X0028472Y0243740D01*
G75*
G02*
X0028138Y0243406I-000335J0000000D01*
G01*
X0025461Y0243406D01*
G75*
G02*
X0025126Y0243740I0000000J0000335D01*
G01*
G37*
G36*
G01*
X0031346Y0243740D02*
X0031346Y0246417D01*
G75*
G02*
X0031681Y0246752I0000335J0000000D01*
G01*
X0034358Y0246752D01*
G75*
G02*
X0034693Y0246417I0000000J-000335D01*
G01*
X0034693Y0243740D01*
G75*
G02*
X0034358Y0243406I-000335J0000000D01*
G01*
X0031681Y0243406D01*
G75*
G02*
X0031346Y0243740I0000000J0000335D01*
G01*
G37*
G36*
G01*
X0469843Y0101602D02*
X0469843Y0098925D01*
G75*
G02*
X0469508Y0098591I-000335J0000000D01*
G01*
X0466831Y0098591D01*
G75*
G02*
X0466496Y0098925I0000000J0000335D01*
G01*
X0466496Y0101602D01*
G75*
G02*
X0466831Y0101937I0000335J0000000D01*
G01*
X0469508Y0101937D01*
G75*
G02*
X0469843Y0101602I0000000J-000335D01*
G01*
G37*
G36*
G01*
X0463622Y0101602D02*
X0463622Y0098925D01*
G75*
G02*
X0463287Y0098591I-000335J0000000D01*
G01*
X0460610Y0098591D01*
G75*
G02*
X0460276Y0098925I0000000J0000335D01*
G01*
X0460276Y0101602D01*
G75*
G02*
X0460610Y0101937I0000335J0000000D01*
G01*
X0463287Y0101937D01*
G75*
G02*
X0463622Y0101602I0000000J-000335D01*
G01*
G37*
G36*
G01*
X0366996Y0133110D02*
X0364319Y0133110D01*
G75*
G02*
X0363984Y0133445I0000000J0000335D01*
G01*
X0363984Y0136122D01*
G75*
G02*
X0364319Y0136457I0000335J0000000D01*
G01*
X0366996Y0136457D01*
G75*
G02*
X0367331Y0136122I0000000J-000335D01*
G01*
X0367331Y0133445D01*
G75*
G02*
X0366996Y0133110I-000335J0000000D01*
G01*
G37*
G36*
G01*
X0366996Y0139331D02*
X0364319Y0139331D01*
G75*
G02*
X0363984Y0139665I0000000J0000335D01*
G01*
X0363984Y0142343D01*
G75*
G02*
X0364319Y0142677I0000335J0000000D01*
G01*
X0366996Y0142677D01*
G75*
G02*
X0367331Y0142343I0000000J-000335D01*
G01*
X0367331Y0139665D01*
G75*
G02*
X0366996Y0139331I-000335J0000000D01*
G01*
G37*
G36*
G01*
X0326287Y0383327D02*
X0326287Y0380256D01*
G75*
G02*
X0326012Y0379980I-000276J0000000D01*
G01*
X0323807Y0379980D01*
G75*
G02*
X0323531Y0380256I0000000J0000276D01*
G01*
X0323531Y0383327D01*
G75*
G02*
X0323807Y0383602I0000276J0000000D01*
G01*
X0326012Y0383602D01*
G75*
G02*
X0326287Y0383327I0000000J-000276D01*
G01*
G37*
G36*
G01*
X0319988Y0383327D02*
X0319988Y0380256D01*
G75*
G02*
X0319713Y0379980I-000276J0000000D01*
G01*
X0317508Y0379980D01*
G75*
G02*
X0317232Y0380256I0000000J0000276D01*
G01*
X0317232Y0383327D01*
G75*
G02*
X0317508Y0383602I0000276J0000000D01*
G01*
X0319713Y0383602D01*
G75*
G02*
X0319988Y0383327I0000000J-000276D01*
G01*
G37*
G36*
G01*
X0187606Y0411063D02*
X0187606Y0414134D01*
G75*
G02*
X0187882Y0414409I0000276J0000000D01*
G01*
X0190087Y0414409D01*
G75*
G02*
X0190362Y0414134I0000000J-000276D01*
G01*
X0190362Y0411063D01*
G75*
G02*
X0190087Y0410787I-000276J0000000D01*
G01*
X0187882Y0410787D01*
G75*
G02*
X0187606Y0411063I0000000J0000276D01*
G01*
G37*
G36*
G01*
X0193906Y0411063D02*
X0193906Y0414134D01*
G75*
G02*
X0194181Y0414409I0000276J0000000D01*
G01*
X0196386Y0414409D01*
G75*
G02*
X0196661Y0414134I0000000J-000276D01*
G01*
X0196661Y0411063D01*
G75*
G02*
X0196386Y0410787I-000276J0000000D01*
G01*
X0194181Y0410787D01*
G75*
G02*
X0193906Y0411063I0000000J0000276D01*
G01*
G37*
G36*
G01*
X0361524Y0131043D02*
X0361524Y0129862D01*
G75*
G02*
X0360933Y0129272I-000591J0000000D01*
G01*
X0354437Y0129272D01*
G75*
G02*
X0353846Y0129862I0000000J0000591D01*
G01*
X0353846Y0131043D01*
G75*
G02*
X0354437Y0131634I0000591J0000000D01*
G01*
X0360933Y0131634D01*
G75*
G02*
X0361524Y0131043I0000000J-000591D01*
G01*
G37*
G36*
G01*
X0361524Y0136043D02*
X0361524Y0134862D01*
G75*
G02*
X0360933Y0134272I-000591J0000000D01*
G01*
X0354437Y0134272D01*
G75*
G02*
X0353846Y0134862I0000000J0000591D01*
G01*
X0353846Y0136043D01*
G75*
G02*
X0354437Y0136634I0000591J0000000D01*
G01*
X0360933Y0136634D01*
G75*
G02*
X0361524Y0136043I0000000J-000591D01*
G01*
G37*
G36*
G01*
X0361524Y0141043D02*
X0361524Y0139862D01*
G75*
G02*
X0360933Y0139272I-000591J0000000D01*
G01*
X0354437Y0139272D01*
G75*
G02*
X0353846Y0139862I0000000J0000591D01*
G01*
X0353846Y0141043D01*
G75*
G02*
X0354437Y0141634I0000591J0000000D01*
G01*
X0360933Y0141634D01*
G75*
G02*
X0361524Y0141043I0000000J-000591D01*
G01*
G37*
G36*
G01*
X0361524Y0146043D02*
X0361524Y0144862D01*
G75*
G02*
X0360933Y0144272I-000591J0000000D01*
G01*
X0354437Y0144272D01*
G75*
G02*
X0353846Y0144862I0000000J0000591D01*
G01*
X0353846Y0146043D01*
G75*
G02*
X0354437Y0146634I0000591J0000000D01*
G01*
X0360933Y0146634D01*
G75*
G02*
X0361524Y0146043I0000000J-000591D01*
G01*
G37*
G36*
G01*
X0342035Y0146043D02*
X0342035Y0144862D01*
G75*
G02*
X0341445Y0144272I-000591J0000000D01*
G01*
X0334949Y0144272D01*
G75*
G02*
X0334358Y0144862I0000000J0000591D01*
G01*
X0334358Y0146043D01*
G75*
G02*
X0334949Y0146634I0000591J0000000D01*
G01*
X0341445Y0146634D01*
G75*
G02*
X0342035Y0146043I0000000J-000591D01*
G01*
G37*
G36*
G01*
X0342035Y0141043D02*
X0342035Y0139862D01*
G75*
G02*
X0341445Y0139272I-000591J0000000D01*
G01*
X0334949Y0139272D01*
G75*
G02*
X0334358Y0139862I0000000J0000591D01*
G01*
X0334358Y0141043D01*
G75*
G02*
X0334949Y0141634I0000591J0000000D01*
G01*
X0341445Y0141634D01*
G75*
G02*
X0342035Y0141043I0000000J-000591D01*
G01*
G37*
G36*
G01*
X0342035Y0136043D02*
X0342035Y0134862D01*
G75*
G02*
X0341445Y0134272I-000591J0000000D01*
G01*
X0334949Y0134272D01*
G75*
G02*
X0334358Y0134862I0000000J0000591D01*
G01*
X0334358Y0136043D01*
G75*
G02*
X0334949Y0136634I0000591J0000000D01*
G01*
X0341445Y0136634D01*
G75*
G02*
X0342035Y0136043I0000000J-000591D01*
G01*
G37*
G36*
G01*
X0342035Y0131043D02*
X0342035Y0129862D01*
G75*
G02*
X0341445Y0129272I-000591J0000000D01*
G01*
X0334949Y0129272D01*
G75*
G02*
X0334358Y0129862I0000000J0000591D01*
G01*
X0334358Y0131043D01*
G75*
G02*
X0334949Y0131634I0000591J0000000D01*
G01*
X0341445Y0131634D01*
G75*
G02*
X0342035Y0131043I0000000J-000591D01*
G01*
G37*
G36*
G01*
X0063709Y0285079D02*
X0063709Y0287756D01*
G75*
G02*
X0064043Y0288091I0000335J0000000D01*
G01*
X0066720Y0288091D01*
G75*
G02*
X0067055Y0287756I0000000J-000335D01*
G01*
X0067055Y0285079D01*
G75*
G02*
X0066720Y0284744I-000335J0000000D01*
G01*
X0064043Y0284744D01*
G75*
G02*
X0063709Y0285079I0000000J0000335D01*
G01*
G37*
G36*
G01*
X0069929Y0285079D02*
X0069929Y0287756D01*
G75*
G02*
X0070264Y0288091I0000335J0000000D01*
G01*
X0072941Y0288091D01*
G75*
G02*
X0073276Y0287756I0000000J-000335D01*
G01*
X0073276Y0285079D01*
G75*
G02*
X0072941Y0284744I-000335J0000000D01*
G01*
X0070264Y0284744D01*
G75*
G02*
X0069929Y0285079I0000000J0000335D01*
G01*
G37*
G36*
G01*
X0309142Y0386220D02*
X0307961Y0386220D01*
G75*
G02*
X0307370Y0386811I0000000J0000591D01*
G01*
X0307370Y0393307D01*
G75*
G02*
X0307961Y0393898I0000591J0000000D01*
G01*
X0309142Y0393898D01*
G75*
G02*
X0309732Y0393307I0000000J-000591D01*
G01*
X0309732Y0386811D01*
G75*
G02*
X0309142Y0386220I-000591J0000000D01*
G01*
G37*
G36*
G01*
X0314142Y0386220D02*
X0312961Y0386220D01*
G75*
G02*
X0312370Y0386811I0000000J0000591D01*
G01*
X0312370Y0393307D01*
G75*
G02*
X0312961Y0393898I0000591J0000000D01*
G01*
X0314142Y0393898D01*
G75*
G02*
X0314732Y0393307I0000000J-000591D01*
G01*
X0314732Y0386811D01*
G75*
G02*
X0314142Y0386220I-000591J0000000D01*
G01*
G37*
G36*
G01*
X0319142Y0386220D02*
X0317961Y0386220D01*
G75*
G02*
X0317370Y0386811I0000000J0000591D01*
G01*
X0317370Y0393307D01*
G75*
G02*
X0317961Y0393898I0000591J0000000D01*
G01*
X0319142Y0393898D01*
G75*
G02*
X0319732Y0393307I0000000J-000591D01*
G01*
X0319732Y0386811D01*
G75*
G02*
X0319142Y0386220I-000591J0000000D01*
G01*
G37*
G36*
G01*
X0324142Y0386220D02*
X0322961Y0386220D01*
G75*
G02*
X0322370Y0386811I0000000J0000591D01*
G01*
X0322370Y0393307D01*
G75*
G02*
X0322961Y0393898I0000591J0000000D01*
G01*
X0324142Y0393898D01*
G75*
G02*
X0324732Y0393307I0000000J-000591D01*
G01*
X0324732Y0386811D01*
G75*
G02*
X0324142Y0386220I-000591J0000000D01*
G01*
G37*
G36*
G01*
X0324142Y0405709D02*
X0322961Y0405709D01*
G75*
G02*
X0322370Y0406299I0000000J0000591D01*
G01*
X0322370Y0412795D01*
G75*
G02*
X0322961Y0413386I0000591J0000000D01*
G01*
X0324142Y0413386D01*
G75*
G02*
X0324732Y0412795I0000000J-000591D01*
G01*
X0324732Y0406299D01*
G75*
G02*
X0324142Y0405709I-000591J0000000D01*
G01*
G37*
G36*
G01*
X0319142Y0405709D02*
X0317961Y0405709D01*
G75*
G02*
X0317370Y0406299I0000000J0000591D01*
G01*
X0317370Y0412795D01*
G75*
G02*
X0317961Y0413386I0000591J0000000D01*
G01*
X0319142Y0413386D01*
G75*
G02*
X0319732Y0412795I0000000J-000591D01*
G01*
X0319732Y0406299D01*
G75*
G02*
X0319142Y0405709I-000591J0000000D01*
G01*
G37*
G36*
G01*
X0314142Y0405709D02*
X0312961Y0405709D01*
G75*
G02*
X0312370Y0406299I0000000J0000591D01*
G01*
X0312370Y0412795D01*
G75*
G02*
X0312961Y0413386I0000591J0000000D01*
G01*
X0314142Y0413386D01*
G75*
G02*
X0314732Y0412795I0000000J-000591D01*
G01*
X0314732Y0406299D01*
G75*
G02*
X0314142Y0405709I-000591J0000000D01*
G01*
G37*
G36*
G01*
X0309142Y0405709D02*
X0307961Y0405709D01*
G75*
G02*
X0307370Y0406299I0000000J0000591D01*
G01*
X0307370Y0412795D01*
G75*
G02*
X0307961Y0413386I0000591J0000000D01*
G01*
X0309142Y0413386D01*
G75*
G02*
X0309732Y0412795I0000000J-000591D01*
G01*
X0309732Y0406299D01*
G75*
G02*
X0309142Y0405709I-000591J0000000D01*
G01*
G37*
G36*
G01*
X0349850Y0152756D02*
X0349850Y0155433D01*
G75*
G02*
X0350185Y0155768I0000335J0000000D01*
G01*
X0352862Y0155768D01*
G75*
G02*
X0353197Y0155433I0000000J-000335D01*
G01*
X0353197Y0152756D01*
G75*
G02*
X0352862Y0152421I-000335J0000000D01*
G01*
X0350185Y0152421D01*
G75*
G02*
X0349850Y0152756I0000000J0000335D01*
G01*
G37*
G36*
G01*
X0356071Y0152756D02*
X0356071Y0155433D01*
G75*
G02*
X0356406Y0155768I0000335J0000000D01*
G01*
X0359083Y0155768D01*
G75*
G02*
X0359417Y0155433I0000000J-000335D01*
G01*
X0359417Y0152756D01*
G75*
G02*
X0359083Y0152421I-000335J0000000D01*
G01*
X0356406Y0152421D01*
G75*
G02*
X0356071Y0152756I0000000J0000335D01*
G01*
G37*
G36*
G01*
X0080087Y0278051D02*
X0082803Y0278051D01*
G75*
G02*
X0083709Y0277146I0000000J-000906D01*
G01*
X0083709Y0271870D01*
G75*
G02*
X0082803Y0270965I-000906J0000000D01*
G01*
X0080087Y0270965D01*
G75*
G02*
X0079181Y0271870I0000000J0000906D01*
G01*
X0079181Y0277146D01*
G75*
G02*
X0080087Y0278051I0000906J0000000D01*
G01*
G37*
G36*
G01*
X0068669Y0278051D02*
X0071386Y0278051D01*
G75*
G02*
X0072291Y0277146I0000000J-000906D01*
G01*
X0072291Y0271870D01*
G75*
G02*
X0071386Y0270965I-000906J0000000D01*
G01*
X0068669Y0270965D01*
G75*
G02*
X0067764Y0271870I0000000J0000906D01*
G01*
X0067764Y0277146D01*
G75*
G02*
X0068669Y0278051I0000906J0000000D01*
G01*
G37*
G36*
G01*
X0364575Y0294193D02*
X0364575Y0289272D01*
G75*
G02*
X0364181Y0288878I-000394J0000000D01*
G01*
X0361032Y0288878D01*
G75*
G02*
X0360638Y0289272I0000000J0000394D01*
G01*
X0360638Y0294193D01*
G75*
G02*
X0361032Y0294587I0000394J0000000D01*
G01*
X0364181Y0294587D01*
G75*
G02*
X0364575Y0294193I0000000J-000394D01*
G01*
G37*
G36*
G01*
X0357094Y0294193D02*
X0357094Y0289272D01*
G75*
G02*
X0356701Y0288878I-000394J0000000D01*
G01*
X0353551Y0288878D01*
G75*
G02*
X0353157Y0289272I0000000J0000394D01*
G01*
X0353157Y0294193D01*
G75*
G02*
X0353551Y0294587I0000394J0000000D01*
G01*
X0356701Y0294587D01*
G75*
G02*
X0357094Y0294193I0000000J-000394D01*
G01*
G37*
G36*
G01*
X0406061Y0361540D02*
X0406061Y0359523D01*
G75*
G02*
X0405200Y0358661I-000861J0000000D01*
G01*
X0403477Y0358661D01*
G75*
G02*
X0402616Y0359523I0000000J0000861D01*
G01*
X0402616Y0361540D01*
G75*
G02*
X0403477Y0362402I0000861J0000000D01*
G01*
X0405200Y0362402D01*
G75*
G02*
X0406061Y0361540I0000000J-000861D01*
G01*
G37*
G36*
G01*
X0399860Y0361540D02*
X0399860Y0359523D01*
G75*
G02*
X0398999Y0358661I-000861J0000000D01*
G01*
X0397277Y0358661D01*
G75*
G02*
X0396415Y0359523I0000000J0000861D01*
G01*
X0396415Y0361540D01*
G75*
G02*
X0397277Y0362402I0000861J0000000D01*
G01*
X0398999Y0362402D01*
G75*
G02*
X0399860Y0361540I0000000J-000861D01*
G01*
G37*
G36*
G01*
X0088433Y0347894D02*
X0088433Y0345217D01*
G75*
G02*
X0088098Y0344882I-000335J0000000D01*
G01*
X0085421Y0344882D01*
G75*
G02*
X0085087Y0345217I0000000J0000335D01*
G01*
X0085087Y0347894D01*
G75*
G02*
X0085421Y0348228I0000335J0000000D01*
G01*
X0088098Y0348228D01*
G75*
G02*
X0088433Y0347894I0000000J-000335D01*
G01*
G37*
G36*
G01*
X0082213Y0347894D02*
X0082213Y0345217D01*
G75*
G02*
X0081878Y0344882I-000335J0000000D01*
G01*
X0079201Y0344882D01*
G75*
G02*
X0078866Y0345217I0000000J0000335D01*
G01*
X0078866Y0347894D01*
G75*
G02*
X0079201Y0348228I0000335J0000000D01*
G01*
X0081878Y0348228D01*
G75*
G02*
X0082213Y0347894I0000000J-000335D01*
G01*
G37*
G36*
G01*
X0519841Y0361737D02*
X0519841Y0359719D01*
G75*
G02*
X0518979Y0358858I-000861J0000000D01*
G01*
X0517257Y0358858D01*
G75*
G02*
X0516396Y0359719I0000000J0000861D01*
G01*
X0516396Y0361737D01*
G75*
G02*
X0517257Y0362598I0000861J0000000D01*
G01*
X0518979Y0362598D01*
G75*
G02*
X0519841Y0361737I0000000J-000861D01*
G01*
G37*
G36*
G01*
X0513640Y0361737D02*
X0513640Y0359719D01*
G75*
G02*
X0512779Y0358858I-000861J0000000D01*
G01*
X0511056Y0358858D01*
G75*
G02*
X0510195Y0359719I0000000J0000861D01*
G01*
X0510195Y0361737D01*
G75*
G02*
X0511056Y0362598I0000861J0000000D01*
G01*
X0512779Y0362598D01*
G75*
G02*
X0513640Y0361737I0000000J-000861D01*
G01*
G37*
G36*
G01*
X0110274Y0379505D02*
X0110274Y0376434D01*
G75*
G02*
X0109998Y0376158I-000276J0000000D01*
G01*
X0107793Y0376158D01*
G75*
G02*
X0107518Y0376434I0000000J0000276D01*
G01*
X0107518Y0379505D01*
G75*
G02*
X0107793Y0379780I0000276J0000000D01*
G01*
X0109998Y0379780D01*
G75*
G02*
X0110274Y0379505I0000000J-000276D01*
G01*
G37*
G36*
G01*
X0103974Y0379505D02*
X0103974Y0376434D01*
G75*
G02*
X0103699Y0376158I-000276J0000000D01*
G01*
X0101494Y0376158D01*
G75*
G02*
X0101219Y0376434I0000000J0000276D01*
G01*
X0101219Y0379505D01*
G75*
G02*
X0101494Y0379780I0000276J0000000D01*
G01*
X0103699Y0379780D01*
G75*
G02*
X0103974Y0379505I0000000J-000276D01*
G01*
G37*
G36*
G01*
X0377026Y0361245D02*
X0377026Y0359227D01*
G75*
G02*
X0376164Y0358366I-000861J0000000D01*
G01*
X0374442Y0358366D01*
G75*
G02*
X0373581Y0359227I0000000J0000861D01*
G01*
X0373581Y0361245D01*
G75*
G02*
X0374442Y0362106I0000861J0000000D01*
G01*
X0376164Y0362106D01*
G75*
G02*
X0377026Y0361245I0000000J-000861D01*
G01*
G37*
G36*
G01*
X0370825Y0361245D02*
X0370825Y0359227D01*
G75*
G02*
X0369964Y0358366I-000861J0000000D01*
G01*
X0368241Y0358366D01*
G75*
G02*
X0367380Y0359227I0000000J0000861D01*
G01*
X0367380Y0361245D01*
G75*
G02*
X0368241Y0362106I0000861J0000000D01*
G01*
X0369964Y0362106D01*
G75*
G02*
X0370825Y0361245I0000000J-000861D01*
G01*
G37*
G36*
G01*
X0080087Y0269390D02*
X0082803Y0269390D01*
G75*
G02*
X0083709Y0268484I0000000J-000906D01*
G01*
X0083709Y0263209D01*
G75*
G02*
X0082803Y0262303I-000906J0000000D01*
G01*
X0080087Y0262303D01*
G75*
G02*
X0079181Y0263209I0000000J0000906D01*
G01*
X0079181Y0268484D01*
G75*
G02*
X0080087Y0269390I0000906J0000000D01*
G01*
G37*
G36*
G01*
X0068669Y0269390D02*
X0071386Y0269390D01*
G75*
G02*
X0072291Y0268484I0000000J-000906D01*
G01*
X0072291Y0263209D01*
G75*
G02*
X0071386Y0262303I-000906J0000000D01*
G01*
X0068669Y0262303D01*
G75*
G02*
X0067764Y0263209I0000000J0000906D01*
G01*
X0067764Y0268484D01*
G75*
G02*
X0068669Y0269390I0000906J0000000D01*
G01*
G37*
G36*
G01*
X0343945Y0085925D02*
X0345835Y0085925D01*
G75*
G02*
X0346071Y0085689I0000000J-000236D01*
G01*
X0346071Y0083799D01*
G75*
G02*
X0345835Y0083563I-000236J0000000D01*
G01*
X0343945Y0083563D01*
G75*
G02*
X0343709Y0083799I0000000J0000236D01*
G01*
X0343709Y0085689D01*
G75*
G02*
X0343945Y0085925I0000236J0000000D01*
G01*
G37*
G36*
G01*
X0352606Y0085925D02*
X0354496Y0085925D01*
G75*
G02*
X0354732Y0085689I0000000J-000236D01*
G01*
X0354732Y0083799D01*
G75*
G02*
X0354496Y0083563I-000236J0000000D01*
G01*
X0352606Y0083563D01*
G75*
G02*
X0352370Y0083799I0000000J0000236D01*
G01*
X0352370Y0085689D01*
G75*
G02*
X0352606Y0085925I0000236J0000000D01*
G01*
G37*
G36*
G01*
X0028925Y0306043D02*
X0028925Y0308720D01*
G75*
G02*
X0029260Y0309055I0000335J0000000D01*
G01*
X0031937Y0309055D01*
G75*
G02*
X0032272Y0308720I0000000J-000335D01*
G01*
X0032272Y0306043D01*
G75*
G02*
X0031937Y0305709I-000335J0000000D01*
G01*
X0029260Y0305709D01*
G75*
G02*
X0028925Y0306043I0000000J0000335D01*
G01*
G37*
G36*
G01*
X0035146Y0306043D02*
X0035146Y0308720D01*
G75*
G02*
X0035480Y0309055I0000335J0000000D01*
G01*
X0038157Y0309055D01*
G75*
G02*
X0038492Y0308720I0000000J-000335D01*
G01*
X0038492Y0306043D01*
G75*
G02*
X0038157Y0305709I-000335J0000000D01*
G01*
X0035480Y0305709D01*
G75*
G02*
X0035146Y0306043I0000000J0000335D01*
G01*
G37*
G36*
G01*
X0446474Y0376870D02*
X0449545Y0376870D01*
G75*
G02*
X0449821Y0376594I0000000J-000276D01*
G01*
X0449821Y0374390D01*
G75*
G02*
X0449545Y0374114I-000276J0000000D01*
G01*
X0446474Y0374114D01*
G75*
G02*
X0446199Y0374390I0000000J0000276D01*
G01*
X0446199Y0376594D01*
G75*
G02*
X0446474Y0376870I0000276J0000000D01*
G01*
G37*
G36*
G01*
X0446474Y0370571D02*
X0449545Y0370571D01*
G75*
G02*
X0449821Y0370295I0000000J-000276D01*
G01*
X0449821Y0368091D01*
G75*
G02*
X0449545Y0367815I-000276J0000000D01*
G01*
X0446474Y0367815D01*
G75*
G02*
X0446199Y0368091I0000000J0000276D01*
G01*
X0446199Y0370295D01*
G75*
G02*
X0446474Y0370571I0000276J0000000D01*
G01*
G37*
G36*
G01*
X0300894Y0380240D02*
X0300894Y0383310D01*
G75*
G02*
X0301169Y0383586I0000276J0000000D01*
G01*
X0303374Y0383586D01*
G75*
G02*
X0303650Y0383310I0000000J-000276D01*
G01*
X0303650Y0380240D01*
G75*
G02*
X0303374Y0379964I-000276J0000000D01*
G01*
X0301169Y0379964D01*
G75*
G02*
X0300894Y0380240I0000000J0000276D01*
G01*
G37*
G36*
G01*
X0307193Y0380240D02*
X0307193Y0383310D01*
G75*
G02*
X0307469Y0383586I0000276J0000000D01*
G01*
X0309673Y0383586D01*
G75*
G02*
X0309949Y0383310I0000000J-000276D01*
G01*
X0309949Y0380240D01*
G75*
G02*
X0309673Y0379964I-000276J0000000D01*
G01*
X0307469Y0379964D01*
G75*
G02*
X0307193Y0380240I0000000J0000276D01*
G01*
G37*
G36*
G01*
X0434506Y0361540D02*
X0434506Y0359523D01*
G75*
G02*
X0433645Y0358661I-000861J0000000D01*
G01*
X0431922Y0358661D01*
G75*
G02*
X0431061Y0359523I0000000J0000861D01*
G01*
X0431061Y0361540D01*
G75*
G02*
X0431922Y0362402I0000861J0000000D01*
G01*
X0433645Y0362402D01*
G75*
G02*
X0434506Y0361540I0000000J-000861D01*
G01*
G37*
G36*
G01*
X0428305Y0361540D02*
X0428305Y0359523D01*
G75*
G02*
X0427444Y0358661I-000861J0000000D01*
G01*
X0425721Y0358661D01*
G75*
G02*
X0424860Y0359523I0000000J0000861D01*
G01*
X0424860Y0361540D01*
G75*
G02*
X0425721Y0362402I0000861J0000000D01*
G01*
X0427444Y0362402D01*
G75*
G02*
X0428305Y0361540I0000000J-000861D01*
G01*
G37*
G36*
G01*
X0364033Y0379724D02*
X0361278Y0379724D01*
G75*
G02*
X0360293Y0380709I0000000J0000984D01*
G01*
X0360293Y0387402D01*
G75*
G02*
X0361278Y0388386I0000984J0000000D01*
G01*
X0364033Y0388386D01*
G75*
G02*
X0365018Y0387402I0000000J-000984D01*
G01*
X0365018Y0380709D01*
G75*
G02*
X0364033Y0379724I-000984J0000000D01*
G01*
G37*
G36*
G01*
X0370057Y0396260D02*
X0361199Y0396260D01*
G75*
G02*
X0360215Y0397244I0000000J0000984D01*
G01*
X0360215Y0407283D01*
G75*
G02*
X0361199Y0408268I0000984J0000000D01*
G01*
X0370057Y0408268D01*
G75*
G02*
X0371041Y0407283I0000000J-000984D01*
G01*
X0371041Y0397244D01*
G75*
G02*
X0370057Y0396260I-000984J0000000D01*
G01*
G37*
G36*
G01*
X0382065Y0396260D02*
X0373207Y0396260D01*
G75*
G02*
X0372222Y0397244I0000000J0000984D01*
G01*
X0372222Y0407283D01*
G75*
G02*
X0373207Y0408268I0000984J0000000D01*
G01*
X0382065Y0408268D01*
G75*
G02*
X0383049Y0407283I0000000J-000984D01*
G01*
X0383049Y0397244D01*
G75*
G02*
X0382065Y0396260I-000984J0000000D01*
G01*
G37*
G36*
G01*
X0370057Y0409449D02*
X0361199Y0409449D01*
G75*
G02*
X0360215Y0410433I0000000J0000984D01*
G01*
X0360215Y0420472D01*
G75*
G02*
X0361199Y0421457I0000984J0000000D01*
G01*
X0370057Y0421457D01*
G75*
G02*
X0371041Y0420472I0000000J-000984D01*
G01*
X0371041Y0410433D01*
G75*
G02*
X0370057Y0409449I-000984J0000000D01*
G01*
G37*
G36*
G01*
X0382065Y0409449D02*
X0373207Y0409449D01*
G75*
G02*
X0372222Y0410433I0000000J0000984D01*
G01*
X0372222Y0420472D01*
G75*
G02*
X0373207Y0421457I0000984J0000000D01*
G01*
X0382065Y0421457D01*
G75*
G02*
X0383049Y0420472I0000000J-000984D01*
G01*
X0383049Y0410433D01*
G75*
G02*
X0382065Y0409449I-000984J0000000D01*
G01*
G37*
G36*
G01*
X0381986Y0379724D02*
X0379230Y0379724D01*
G75*
G02*
X0378246Y0380709I0000000J0000984D01*
G01*
X0378246Y0387402D01*
G75*
G02*
X0379230Y0388386I0000984J0000000D01*
G01*
X0381986Y0388386D01*
G75*
G02*
X0382970Y0387402I0000000J-000984D01*
G01*
X0382970Y0380709D01*
G75*
G02*
X0381986Y0379724I-000984J0000000D01*
G01*
G37*
D92*
X0105913Y0192126D03*
G36*
G01*
X0418030Y0376870D02*
X0421100Y0376870D01*
G75*
G02*
X0421376Y0376594I0000000J-000276D01*
G01*
X0421376Y0374390D01*
G75*
G02*
X0421100Y0374114I-000276J0000000D01*
G01*
X0418030Y0374114D01*
G75*
G02*
X0417754Y0374390I0000000J0000276D01*
G01*
X0417754Y0376594D01*
G75*
G02*
X0418030Y0376870I0000276J0000000D01*
G01*
G37*
G36*
G01*
X0418030Y0370571D02*
X0421100Y0370571D01*
G75*
G02*
X0421376Y0370295I0000000J-000276D01*
G01*
X0421376Y0368091D01*
G75*
G02*
X0421100Y0367815I-000276J0000000D01*
G01*
X0418030Y0367815D01*
G75*
G02*
X0417754Y0368091I0000000J0000276D01*
G01*
X0417754Y0370295D01*
G75*
G02*
X0418030Y0370571I0000276J0000000D01*
G01*
G37*
G36*
G01*
X0111279Y0049772D02*
X0114350Y0049772D01*
G75*
G02*
X0114625Y0049496I0000000J-000276D01*
G01*
X0114625Y0047291D01*
G75*
G02*
X0114350Y0047016I-000276J0000000D01*
G01*
X0111279Y0047016D01*
G75*
G02*
X0111003Y0047291I0000000J0000276D01*
G01*
X0111003Y0049496D01*
G75*
G02*
X0111279Y0049772I0000276J0000000D01*
G01*
G37*
G36*
G01*
X0111279Y0043472D02*
X0114350Y0043472D01*
G75*
G02*
X0114625Y0043197I0000000J-000276D01*
G01*
X0114625Y0040992D01*
G75*
G02*
X0114350Y0040717I-000276J0000000D01*
G01*
X0111279Y0040717D01*
G75*
G02*
X0111003Y0040992I0000000J0000276D01*
G01*
X0111003Y0043197D01*
G75*
G02*
X0111279Y0043472I0000276J0000000D01*
G01*
G37*
G36*
G01*
X0085913Y0284783D02*
X0085913Y0287854D01*
G75*
G02*
X0086189Y0288130I0000276J0000000D01*
G01*
X0088394Y0288130D01*
G75*
G02*
X0088669Y0287854I0000000J-000276D01*
G01*
X0088669Y0284783D01*
G75*
G02*
X0088394Y0284508I-000276J0000000D01*
G01*
X0086189Y0284508D01*
G75*
G02*
X0085913Y0284783I0000000J0000276D01*
G01*
G37*
G36*
G01*
X0092213Y0284783D02*
X0092213Y0287854D01*
G75*
G02*
X0092488Y0288130I0000276J0000000D01*
G01*
X0094693Y0288130D01*
G75*
G02*
X0094969Y0287854I0000000J-000276D01*
G01*
X0094969Y0284783D01*
G75*
G02*
X0094693Y0284508I-000276J0000000D01*
G01*
X0092488Y0284508D01*
G75*
G02*
X0092213Y0284783I0000000J0000276D01*
G01*
G37*
G36*
G01*
X0389585Y0376870D02*
X0392656Y0376870D01*
G75*
G02*
X0392931Y0376594I0000000J-000276D01*
G01*
X0392931Y0374390D01*
G75*
G02*
X0392656Y0374114I-000276J0000000D01*
G01*
X0389585Y0374114D01*
G75*
G02*
X0389309Y0374390I0000000J0000276D01*
G01*
X0389309Y0376594D01*
G75*
G02*
X0389585Y0376870I0000276J0000000D01*
G01*
G37*
G36*
G01*
X0389585Y0370571D02*
X0392656Y0370571D01*
G75*
G02*
X0392931Y0370295I0000000J-000276D01*
G01*
X0392931Y0368091D01*
G75*
G02*
X0392656Y0367815I-000276J0000000D01*
G01*
X0389585Y0367815D01*
G75*
G02*
X0389309Y0368091I0000000J0000276D01*
G01*
X0389309Y0370295D01*
G75*
G02*
X0389585Y0370571I0000276J0000000D01*
G01*
G37*
G36*
G01*
X0462951Y0361442D02*
X0462951Y0359424D01*
G75*
G02*
X0462090Y0358563I-000861J0000000D01*
G01*
X0460367Y0358563D01*
G75*
G02*
X0459506Y0359424I0000000J0000861D01*
G01*
X0459506Y0361442D01*
G75*
G02*
X0460367Y0362303I0000861J0000000D01*
G01*
X0462090Y0362303D01*
G75*
G02*
X0462951Y0361442I0000000J-000861D01*
G01*
G37*
G36*
G01*
X0456750Y0361442D02*
X0456750Y0359424D01*
G75*
G02*
X0455889Y0358563I-000861J0000000D01*
G01*
X0454166Y0358563D01*
G75*
G02*
X0453305Y0359424I0000000J0000861D01*
G01*
X0453305Y0361442D01*
G75*
G02*
X0454166Y0362303I0000861J0000000D01*
G01*
X0455889Y0362303D01*
G75*
G02*
X0456750Y0361442I0000000J-000861D01*
G01*
G37*
G36*
G01*
X0349850Y0159843D02*
X0349850Y0162520D01*
G75*
G02*
X0350185Y0162854I0000335J0000000D01*
G01*
X0352862Y0162854D01*
G75*
G02*
X0353197Y0162520I0000000J-000335D01*
G01*
X0353197Y0159843D01*
G75*
G02*
X0352862Y0159508I-000335J0000000D01*
G01*
X0350185Y0159508D01*
G75*
G02*
X0349850Y0159843I0000000J0000335D01*
G01*
G37*
G36*
G01*
X0356071Y0159843D02*
X0356071Y0162520D01*
G75*
G02*
X0356406Y0162854I0000335J0000000D01*
G01*
X0359083Y0162854D01*
G75*
G02*
X0359417Y0162520I0000000J-000335D01*
G01*
X0359417Y0159843D01*
G75*
G02*
X0359083Y0159508I-000335J0000000D01*
G01*
X0356406Y0159508D01*
G75*
G02*
X0356071Y0159843I0000000J0000335D01*
G01*
G37*
G36*
G01*
X0065490Y0376417D02*
X0065490Y0379488D01*
G75*
G02*
X0065766Y0379764I0000276J0000000D01*
G01*
X0067970Y0379764D01*
G75*
G02*
X0068246Y0379488I0000000J-000276D01*
G01*
X0068246Y0376417D01*
G75*
G02*
X0067970Y0376142I-000276J0000000D01*
G01*
X0065766Y0376142D01*
G75*
G02*
X0065490Y0376417I0000000J0000276D01*
G01*
G37*
G36*
G01*
X0071789Y0376417D02*
X0071789Y0379488D01*
G75*
G02*
X0072065Y0379764I0000276J0000000D01*
G01*
X0074270Y0379764D01*
G75*
G02*
X0074545Y0379488I0000000J-000276D01*
G01*
X0074545Y0376417D01*
G75*
G02*
X0074270Y0376142I-000276J0000000D01*
G01*
X0072065Y0376142D01*
G75*
G02*
X0071789Y0376417I0000000J0000276D01*
G01*
G37*
G36*
G01*
X0247626Y0386204D02*
X0246445Y0386204D01*
G75*
G02*
X0245854Y0386795I0000000J0000591D01*
G01*
X0245854Y0393291D01*
G75*
G02*
X0246445Y0393881I0000591J0000000D01*
G01*
X0247626Y0393881D01*
G75*
G02*
X0248217Y0393291I0000000J-000591D01*
G01*
X0248217Y0386795D01*
G75*
G02*
X0247626Y0386204I-000591J0000000D01*
G01*
G37*
G36*
G01*
X0252626Y0386204D02*
X0251445Y0386204D01*
G75*
G02*
X0250854Y0386795I0000000J0000591D01*
G01*
X0250854Y0393291D01*
G75*
G02*
X0251445Y0393881I0000591J0000000D01*
G01*
X0252626Y0393881D01*
G75*
G02*
X0253217Y0393291I0000000J-000591D01*
G01*
X0253217Y0386795D01*
G75*
G02*
X0252626Y0386204I-000591J0000000D01*
G01*
G37*
G36*
G01*
X0257626Y0386204D02*
X0256445Y0386204D01*
G75*
G02*
X0255854Y0386795I0000000J0000591D01*
G01*
X0255854Y0393291D01*
G75*
G02*
X0256445Y0393881I0000591J0000000D01*
G01*
X0257626Y0393881D01*
G75*
G02*
X0258217Y0393291I0000000J-000591D01*
G01*
X0258217Y0386795D01*
G75*
G02*
X0257626Y0386204I-000591J0000000D01*
G01*
G37*
G36*
G01*
X0262626Y0386204D02*
X0261445Y0386204D01*
G75*
G02*
X0260854Y0386795I0000000J0000591D01*
G01*
X0260854Y0393291D01*
G75*
G02*
X0261445Y0393881I0000591J0000000D01*
G01*
X0262626Y0393881D01*
G75*
G02*
X0263217Y0393291I0000000J-000591D01*
G01*
X0263217Y0386795D01*
G75*
G02*
X0262626Y0386204I-000591J0000000D01*
G01*
G37*
G36*
G01*
X0262626Y0405692D02*
X0261445Y0405692D01*
G75*
G02*
X0260854Y0406283I0000000J0000591D01*
G01*
X0260854Y0412779D01*
G75*
G02*
X0261445Y0413370I0000591J0000000D01*
G01*
X0262626Y0413370D01*
G75*
G02*
X0263217Y0412779I0000000J-000591D01*
G01*
X0263217Y0406283D01*
G75*
G02*
X0262626Y0405692I-000591J0000000D01*
G01*
G37*
G36*
G01*
X0257626Y0405692D02*
X0256445Y0405692D01*
G75*
G02*
X0255854Y0406283I0000000J0000591D01*
G01*
X0255854Y0412779D01*
G75*
G02*
X0256445Y0413370I0000591J0000000D01*
G01*
X0257626Y0413370D01*
G75*
G02*
X0258217Y0412779I0000000J-000591D01*
G01*
X0258217Y0406283D01*
G75*
G02*
X0257626Y0405692I-000591J0000000D01*
G01*
G37*
G36*
G01*
X0252626Y0405692D02*
X0251445Y0405692D01*
G75*
G02*
X0250854Y0406283I0000000J0000591D01*
G01*
X0250854Y0412779D01*
G75*
G02*
X0251445Y0413370I0000591J0000000D01*
G01*
X0252626Y0413370D01*
G75*
G02*
X0253217Y0412779I0000000J-000591D01*
G01*
X0253217Y0406283D01*
G75*
G02*
X0252626Y0405692I-000591J0000000D01*
G01*
G37*
G36*
G01*
X0247626Y0405692D02*
X0246445Y0405692D01*
G75*
G02*
X0245854Y0406283I0000000J0000591D01*
G01*
X0245854Y0412779D01*
G75*
G02*
X0246445Y0413370I0000591J0000000D01*
G01*
X0247626Y0413370D01*
G75*
G02*
X0248217Y0412779I0000000J-000591D01*
G01*
X0248217Y0406283D01*
G75*
G02*
X0247626Y0405692I-000591J0000000D01*
G01*
G37*
G36*
G01*
X0264673Y0383310D02*
X0264673Y0380240D01*
G75*
G02*
X0264398Y0379964I-000276J0000000D01*
G01*
X0262193Y0379964D01*
G75*
G02*
X0261917Y0380240I0000000J0000276D01*
G01*
X0261917Y0383310D01*
G75*
G02*
X0262193Y0383586I0000276J0000000D01*
G01*
X0264398Y0383586D01*
G75*
G02*
X0264673Y0383310I0000000J-000276D01*
G01*
G37*
G36*
G01*
X0258374Y0383310D02*
X0258374Y0380240D01*
G75*
G02*
X0258098Y0379964I-000276J0000000D01*
G01*
X0255894Y0379964D01*
G75*
G02*
X0255618Y0380240I0000000J0000276D01*
G01*
X0255618Y0383310D01*
G75*
G02*
X0255894Y0383586I0000276J0000000D01*
G01*
X0258098Y0383586D01*
G75*
G02*
X0258374Y0383310I0000000J-000276D01*
G01*
G37*
G36*
G01*
X0449427Y0379724D02*
X0446671Y0379724D01*
G75*
G02*
X0445687Y0380709I0000000J0000984D01*
G01*
X0445687Y0387402D01*
G75*
G02*
X0446671Y0388386I0000984J0000000D01*
G01*
X0449427Y0388386D01*
G75*
G02*
X0450411Y0387402I0000000J-000984D01*
G01*
X0450411Y0380709D01*
G75*
G02*
X0449427Y0379724I-000984J0000000D01*
G01*
G37*
G36*
G01*
X0455451Y0396260D02*
X0446593Y0396260D01*
G75*
G02*
X0445608Y0397244I0000000J0000984D01*
G01*
X0445608Y0407283D01*
G75*
G02*
X0446593Y0408268I0000984J0000000D01*
G01*
X0455451Y0408268D01*
G75*
G02*
X0456435Y0407283I0000000J-000984D01*
G01*
X0456435Y0397244D01*
G75*
G02*
X0455451Y0396260I-000984J0000000D01*
G01*
G37*
G36*
G01*
X0467459Y0396260D02*
X0458600Y0396260D01*
G75*
G02*
X0457616Y0397244I0000000J0000984D01*
G01*
X0457616Y0407283D01*
G75*
G02*
X0458600Y0408268I0000984J0000000D01*
G01*
X0467459Y0408268D01*
G75*
G02*
X0468443Y0407283I0000000J-000984D01*
G01*
X0468443Y0397244D01*
G75*
G02*
X0467459Y0396260I-000984J0000000D01*
G01*
G37*
G36*
G01*
X0455451Y0409449D02*
X0446593Y0409449D01*
G75*
G02*
X0445608Y0410433I0000000J0000984D01*
G01*
X0445608Y0420472D01*
G75*
G02*
X0446593Y0421457I0000984J0000000D01*
G01*
X0455451Y0421457D01*
G75*
G02*
X0456435Y0420472I0000000J-000984D01*
G01*
X0456435Y0410433D01*
G75*
G02*
X0455451Y0409449I-000984J0000000D01*
G01*
G37*
G36*
G01*
X0467459Y0409449D02*
X0458600Y0409449D01*
G75*
G02*
X0457616Y0410433I0000000J0000984D01*
G01*
X0457616Y0420472D01*
G75*
G02*
X0458600Y0421457I0000984J0000000D01*
G01*
X0467459Y0421457D01*
G75*
G02*
X0468443Y0420472I0000000J-000984D01*
G01*
X0468443Y0410433D01*
G75*
G02*
X0467459Y0409449I-000984J0000000D01*
G01*
G37*
G36*
G01*
X0467380Y0379724D02*
X0464624Y0379724D01*
G75*
G02*
X0463640Y0380709I0000000J0000984D01*
G01*
X0463640Y0387402D01*
G75*
G02*
X0464624Y0388386I0000984J0000000D01*
G01*
X0467380Y0388386D01*
G75*
G02*
X0468364Y0387402I0000000J-000984D01*
G01*
X0468364Y0380709D01*
G75*
G02*
X0467380Y0379724I-000984J0000000D01*
G01*
G37*
D57*
X0454390Y0035303D03*
X0454390Y0041209D03*
X0454390Y0047114D03*
X0454390Y0053020D03*
X0454390Y0058925D03*
X0454390Y0064831D03*
X0454390Y0070736D03*
X0454390Y0076642D03*
X0454390Y0082547D03*
X0454390Y0088453D03*
X0454390Y0094358D03*
X0454390Y0100264D03*
X0454390Y0106169D03*
X0404390Y0106169D03*
X0404390Y0100264D03*
X0404390Y0094358D03*
X0404390Y0088453D03*
X0404390Y0082547D03*
X0404390Y0076642D03*
X0404390Y0070736D03*
X0404390Y0064831D03*
X0404390Y0058925D03*
X0404390Y0053020D03*
X0404390Y0047114D03*
X0404390Y0041209D03*
X0404390Y0035303D03*
G36*
G01*
X0361041Y0376870D02*
X0364112Y0376870D01*
G75*
G02*
X0364388Y0376594I0000000J-000276D01*
G01*
X0364388Y0374390D01*
G75*
G02*
X0364112Y0374114I-000276J0000000D01*
G01*
X0361041Y0374114D01*
G75*
G02*
X0360766Y0374390I0000000J0000276D01*
G01*
X0360766Y0376594D01*
G75*
G02*
X0361041Y0376870I0000276J0000000D01*
G01*
G37*
G36*
G01*
X0361041Y0370571D02*
X0364112Y0370571D01*
G75*
G02*
X0364388Y0370295I0000000J-000276D01*
G01*
X0364388Y0368091D01*
G75*
G02*
X0364112Y0367815I-000276J0000000D01*
G01*
X0361041Y0367815D01*
G75*
G02*
X0360766Y0368091I0000000J0000276D01*
G01*
X0360766Y0370295D01*
G75*
G02*
X0361041Y0370571I0000276J0000000D01*
G01*
G37*
G36*
G01*
X0404114Y0134729D02*
X0404114Y0132712D01*
G75*
G02*
X0403253Y0131850I-000861J0000000D01*
G01*
X0401530Y0131850D01*
G75*
G02*
X0400669Y0132712I0000000J0000861D01*
G01*
X0400669Y0134729D01*
G75*
G02*
X0401530Y0135591I0000861J0000000D01*
G01*
X0403253Y0135591D01*
G75*
G02*
X0404114Y0134729I0000000J-000861D01*
G01*
G37*
G36*
G01*
X0397913Y0134729D02*
X0397913Y0132712D01*
G75*
G02*
X0397052Y0131850I-000861J0000000D01*
G01*
X0395330Y0131850D01*
G75*
G02*
X0394468Y0132712I0000000J0000861D01*
G01*
X0394468Y0134729D01*
G75*
G02*
X0395330Y0135591I0000861J0000000D01*
G01*
X0397052Y0135591D01*
G75*
G02*
X0397913Y0134729I0000000J-000861D01*
G01*
G37*
G36*
G01*
X0503463Y0376870D02*
X0506533Y0376870D01*
G75*
G02*
X0506809Y0376594I0000000J-000276D01*
G01*
X0506809Y0374390D01*
G75*
G02*
X0506533Y0374114I-000276J0000000D01*
G01*
X0503463Y0374114D01*
G75*
G02*
X0503187Y0374390I0000000J0000276D01*
G01*
X0503187Y0376594D01*
G75*
G02*
X0503463Y0376870I0000276J0000000D01*
G01*
G37*
G36*
G01*
X0503463Y0370571D02*
X0506533Y0370571D01*
G75*
G02*
X0506809Y0370295I0000000J-000276D01*
G01*
X0506809Y0368091D01*
G75*
G02*
X0506533Y0367815I-000276J0000000D01*
G01*
X0503463Y0367815D01*
G75*
G02*
X0503187Y0368091I0000000J0000276D01*
G01*
X0503187Y0370295D01*
G75*
G02*
X0503463Y0370571I0000276J0000000D01*
G01*
G37*
G36*
G01*
X0121121Y0049772D02*
X0124192Y0049772D01*
G75*
G02*
X0124468Y0049496I0000000J-000276D01*
G01*
X0124468Y0047291D01*
G75*
G02*
X0124192Y0047016I-000276J0000000D01*
G01*
X0121121Y0047016D01*
G75*
G02*
X0120846Y0047291I0000000J0000276D01*
G01*
X0120846Y0049496D01*
G75*
G02*
X0121121Y0049772I0000276J0000000D01*
G01*
G37*
G36*
G01*
X0121121Y0043472D02*
X0124192Y0043472D01*
G75*
G02*
X0124468Y0043197I0000000J-000276D01*
G01*
X0124468Y0040992D01*
G75*
G02*
X0124192Y0040717I-000276J0000000D01*
G01*
X0121121Y0040717D01*
G75*
G02*
X0120846Y0040992I0000000J0000276D01*
G01*
X0120846Y0043197D01*
G75*
G02*
X0121121Y0043472I0000276J0000000D01*
G01*
G37*
G36*
G01*
X0110756Y0290256D02*
X0113827Y0290256D01*
G75*
G02*
X0114102Y0289980I0000000J-000276D01*
G01*
X0114102Y0287776D01*
G75*
G02*
X0113827Y0287500I-000276J0000000D01*
G01*
X0110756Y0287500D01*
G75*
G02*
X0110480Y0287776I0000000J0000276D01*
G01*
X0110480Y0289980D01*
G75*
G02*
X0110756Y0290256I0000276J0000000D01*
G01*
G37*
G36*
G01*
X0110756Y0283957D02*
X0113827Y0283957D01*
G75*
G02*
X0114102Y0283681I0000000J-000276D01*
G01*
X0114102Y0281476D01*
G75*
G02*
X0113827Y0281201I-000276J0000000D01*
G01*
X0110756Y0281201D01*
G75*
G02*
X0110480Y0281476I0000000J0000276D01*
G01*
X0110480Y0283681D01*
G75*
G02*
X0110756Y0283957I0000276J0000000D01*
G01*
G37*
G36*
G01*
X0054663Y0376417D02*
X0054663Y0379488D01*
G75*
G02*
X0054939Y0379764I0000276J0000000D01*
G01*
X0057144Y0379764D01*
G75*
G02*
X0057419Y0379488I0000000J-000276D01*
G01*
X0057419Y0376417D01*
G75*
G02*
X0057144Y0376142I-000276J0000000D01*
G01*
X0054939Y0376142D01*
G75*
G02*
X0054663Y0376417I0000000J0000276D01*
G01*
G37*
G36*
G01*
X0060963Y0376417D02*
X0060963Y0379488D01*
G75*
G02*
X0061238Y0379764I0000276J0000000D01*
G01*
X0063443Y0379764D01*
G75*
G02*
X0063719Y0379488I0000000J-000276D01*
G01*
X0063719Y0376417D01*
G75*
G02*
X0063443Y0376142I-000276J0000000D01*
G01*
X0061238Y0376142D01*
G75*
G02*
X0060963Y0376417I0000000J0000276D01*
G01*
G37*
G36*
G01*
X0364575Y0274508D02*
X0364575Y0269587D01*
G75*
G02*
X0364181Y0269193I-000394J0000000D01*
G01*
X0361032Y0269193D01*
G75*
G02*
X0360638Y0269587I0000000J0000394D01*
G01*
X0360638Y0274508D01*
G75*
G02*
X0361032Y0274902I0000394J0000000D01*
G01*
X0364181Y0274902D01*
G75*
G02*
X0364575Y0274508I0000000J-000394D01*
G01*
G37*
G36*
G01*
X0357094Y0274508D02*
X0357094Y0269587D01*
G75*
G02*
X0356701Y0269193I-000394J0000000D01*
G01*
X0353551Y0269193D01*
G75*
G02*
X0353157Y0269587I0000000J0000394D01*
G01*
X0353157Y0274508D01*
G75*
G02*
X0353551Y0274902I0000394J0000000D01*
G01*
X0356701Y0274902D01*
G75*
G02*
X0357094Y0274508I0000000J-000394D01*
G01*
G37*
G36*
G01*
X0097872Y0379505D02*
X0097872Y0376434D01*
G75*
G02*
X0097596Y0376158I-000276J0000000D01*
G01*
X0095392Y0376158D01*
G75*
G02*
X0095116Y0376434I0000000J0000276D01*
G01*
X0095116Y0379505D01*
G75*
G02*
X0095392Y0379780I0000276J0000000D01*
G01*
X0097596Y0379780D01*
G75*
G02*
X0097872Y0379505I0000000J-000276D01*
G01*
G37*
G36*
G01*
X0091573Y0379505D02*
X0091573Y0376434D01*
G75*
G02*
X0091297Y0376158I-000276J0000000D01*
G01*
X0089093Y0376158D01*
G75*
G02*
X0088817Y0376434I0000000J0000276D01*
G01*
X0088817Y0379505D01*
G75*
G02*
X0089093Y0379780I0000276J0000000D01*
G01*
X0091297Y0379780D01*
G75*
G02*
X0091573Y0379505I0000000J-000276D01*
G01*
G37*
G36*
G01*
X0080087Y0260728D02*
X0082803Y0260728D01*
G75*
G02*
X0083709Y0259823I0000000J-000906D01*
G01*
X0083709Y0254547D01*
G75*
G02*
X0082803Y0253642I-000906J0000000D01*
G01*
X0080087Y0253642D01*
G75*
G02*
X0079181Y0254547I0000000J0000906D01*
G01*
X0079181Y0259823D01*
G75*
G02*
X0080087Y0260728I0000906J0000000D01*
G01*
G37*
G36*
G01*
X0068669Y0260728D02*
X0071386Y0260728D01*
G75*
G02*
X0072291Y0259823I0000000J-000906D01*
G01*
X0072291Y0254547D01*
G75*
G02*
X0071386Y0253642I-000906J0000000D01*
G01*
X0068669Y0253642D01*
G75*
G02*
X0067764Y0254547I0000000J0000906D01*
G01*
X0067764Y0259823D01*
G75*
G02*
X0068669Y0260728I0000906J0000000D01*
G01*
G37*
G36*
G01*
X0327075Y0094685D02*
X0327075Y0089764D01*
G75*
G02*
X0326681Y0089370I-000394J0000000D01*
G01*
X0323532Y0089370D01*
G75*
G02*
X0323138Y0089764I0000000J0000394D01*
G01*
X0323138Y0094685D01*
G75*
G02*
X0323532Y0095079I0000394J0000000D01*
G01*
X0326681Y0095079D01*
G75*
G02*
X0327075Y0094685I0000000J-000394D01*
G01*
G37*
G36*
G01*
X0319594Y0094685D02*
X0319594Y0089764D01*
G75*
G02*
X0319201Y0089370I-000394J0000000D01*
G01*
X0316051Y0089370D01*
G75*
G02*
X0315657Y0089764I0000000J0000394D01*
G01*
X0315657Y0094685D01*
G75*
G02*
X0316051Y0095079I0000394J0000000D01*
G01*
X0319201Y0095079D01*
G75*
G02*
X0319594Y0094685I0000000J-000394D01*
G01*
G37*
G36*
G01*
X0121100Y0379505D02*
X0121100Y0376434D01*
G75*
G02*
X0120825Y0376158I-000276J0000000D01*
G01*
X0118620Y0376158D01*
G75*
G02*
X0118344Y0376434I0000000J0000276D01*
G01*
X0118344Y0379505D01*
G75*
G02*
X0118620Y0379780I0000276J0000000D01*
G01*
X0120825Y0379780D01*
G75*
G02*
X0121100Y0379505I0000000J-000276D01*
G01*
G37*
G36*
G01*
X0114801Y0379505D02*
X0114801Y0376434D01*
G75*
G02*
X0114526Y0376158I-000276J0000000D01*
G01*
X0112321Y0376158D01*
G75*
G02*
X0112045Y0376434I0000000J0000276D01*
G01*
X0112045Y0379505D01*
G75*
G02*
X0112321Y0379780I0000276J0000000D01*
G01*
X0114526Y0379780D01*
G75*
G02*
X0114801Y0379505I0000000J-000276D01*
G01*
G37*
G36*
G01*
X0350992Y0274508D02*
X0350992Y0269587D01*
G75*
G02*
X0350598Y0269193I-000394J0000000D01*
G01*
X0347449Y0269193D01*
G75*
G02*
X0347055Y0269587I0000000J0000394D01*
G01*
X0347055Y0274508D01*
G75*
G02*
X0347449Y0274902I0000394J0000000D01*
G01*
X0350598Y0274902D01*
G75*
G02*
X0350992Y0274508I0000000J-000394D01*
G01*
G37*
G36*
G01*
X0343512Y0274508D02*
X0343512Y0269587D01*
G75*
G02*
X0343118Y0269193I-000394J0000000D01*
G01*
X0339968Y0269193D01*
G75*
G02*
X0339575Y0269587I0000000J0000394D01*
G01*
X0339575Y0274508D01*
G75*
G02*
X0339968Y0274902I0000394J0000000D01*
G01*
X0343118Y0274902D01*
G75*
G02*
X0343512Y0274508I0000000J-000394D01*
G01*
G37*
G36*
G01*
X0364575Y0284350D02*
X0364575Y0279429D01*
G75*
G02*
X0364181Y0279035I-000394J0000000D01*
G01*
X0361032Y0279035D01*
G75*
G02*
X0360638Y0279429I0000000J0000394D01*
G01*
X0360638Y0284350D01*
G75*
G02*
X0361032Y0284744I0000394J0000000D01*
G01*
X0364181Y0284744D01*
G75*
G02*
X0364575Y0284350I0000000J-000394D01*
G01*
G37*
G36*
G01*
X0357094Y0284350D02*
X0357094Y0279429D01*
G75*
G02*
X0356701Y0279035I-000394J0000000D01*
G01*
X0353551Y0279035D01*
G75*
G02*
X0353157Y0279429I0000000J0000394D01*
G01*
X0353157Y0284350D01*
G75*
G02*
X0353551Y0284744I0000394J0000000D01*
G01*
X0356701Y0284744D01*
G75*
G02*
X0357094Y0284350I0000000J-000394D01*
G01*
G37*
G36*
G01*
X0491543Y0361737D02*
X0491543Y0359719D01*
G75*
G02*
X0490682Y0358858I-000861J0000000D01*
G01*
X0488960Y0358858D01*
G75*
G02*
X0488098Y0359719I0000000J0000861D01*
G01*
X0488098Y0361737D01*
G75*
G02*
X0488960Y0362598I0000861J0000000D01*
G01*
X0490682Y0362598D01*
G75*
G02*
X0491543Y0361737I0000000J-000861D01*
G01*
G37*
G36*
G01*
X0485343Y0361737D02*
X0485343Y0359719D01*
G75*
G02*
X0484481Y0358858I-000861J0000000D01*
G01*
X0482759Y0358858D01*
G75*
G02*
X0481898Y0359719I0000000J0000861D01*
G01*
X0481898Y0361737D01*
G75*
G02*
X0482759Y0362598I0000861J0000000D01*
G01*
X0484481Y0362598D01*
G75*
G02*
X0485343Y0361737I0000000J-000861D01*
G01*
G37*
D93*
X0092941Y0321260D03*
X0087193Y0321260D03*
X0081445Y0321260D03*
X0075697Y0321260D03*
X0069949Y0321260D03*
X0092941Y0312402D03*
X0087193Y0312402D03*
X0081445Y0312402D03*
X0075697Y0312402D03*
X0069949Y0312402D03*
D58*
X0091287Y0335728D03*
X0087350Y0335728D03*
X0083413Y0335728D03*
X0079476Y0335728D03*
X0075539Y0335728D03*
X0071602Y0335728D03*
X0071602Y0297933D03*
X0075539Y0297933D03*
X0079476Y0297933D03*
X0083413Y0297933D03*
X0087350Y0297933D03*
X0091287Y0297933D03*
D93*
X0054220Y0280709D03*
X0048472Y0280709D03*
X0042724Y0280709D03*
X0036976Y0280709D03*
X0031228Y0280709D03*
X0054220Y0271850D03*
X0048472Y0271850D03*
X0042724Y0271850D03*
X0036976Y0271850D03*
X0031228Y0271850D03*
D58*
X0052567Y0295177D03*
X0048630Y0295177D03*
X0044693Y0295177D03*
X0040756Y0295177D03*
X0036819Y0295177D03*
X0032882Y0295177D03*
X0032882Y0257382D03*
X0036819Y0257382D03*
X0040756Y0257382D03*
X0044693Y0257382D03*
X0048630Y0257382D03*
X0052567Y0257382D03*
G36*
G01*
X0296484Y0383310D02*
X0296484Y0380240D01*
G75*
G02*
X0296209Y0379964I-000276J0000000D01*
G01*
X0294004Y0379964D01*
G75*
G02*
X0293728Y0380240I0000000J0000276D01*
G01*
X0293728Y0383310D01*
G75*
G02*
X0294004Y0383586I0000276J0000000D01*
G01*
X0296209Y0383586D01*
G75*
G02*
X0296484Y0383310I0000000J-000276D01*
G01*
G37*
G36*
G01*
X0290185Y0383310D02*
X0290185Y0380240D01*
G75*
G02*
X0289909Y0379964I-000276J0000000D01*
G01*
X0287705Y0379964D01*
G75*
G02*
X0287429Y0380240I0000000J0000276D01*
G01*
X0287429Y0383310D01*
G75*
G02*
X0287705Y0383586I0000276J0000000D01*
G01*
X0289909Y0383586D01*
G75*
G02*
X0290185Y0383310I0000000J-000276D01*
G01*
G37*
G36*
G01*
X0391181Y0126181D02*
X0388504Y0126181D01*
G75*
G02*
X0388169Y0126516I0000000J0000335D01*
G01*
X0388169Y0129193D01*
G75*
G02*
X0388504Y0129528I0000335J0000000D01*
G01*
X0391181Y0129528D01*
G75*
G02*
X0391516Y0129193I0000000J-000335D01*
G01*
X0391516Y0126516D01*
G75*
G02*
X0391181Y0126181I-000335J0000000D01*
G01*
G37*
G36*
G01*
X0391181Y0132402D02*
X0388504Y0132402D01*
G75*
G02*
X0388169Y0132736I0000000J0000335D01*
G01*
X0388169Y0135413D01*
G75*
G02*
X0388504Y0135748I0000335J0000000D01*
G01*
X0391181Y0135748D01*
G75*
G02*
X0391516Y0135413I0000000J-000335D01*
G01*
X0391516Y0132736D01*
G75*
G02*
X0391181Y0132402I-000335J0000000D01*
G01*
G37*
G36*
G01*
X0057006Y0384154D02*
X0055825Y0384154D01*
G75*
G02*
X0055234Y0384744I0000000J0000591D01*
G01*
X0055234Y0391240D01*
G75*
G02*
X0055825Y0391831I0000591J0000000D01*
G01*
X0057006Y0391831D01*
G75*
G02*
X0057596Y0391240I0000000J-000591D01*
G01*
X0057596Y0384744D01*
G75*
G02*
X0057006Y0384154I-000591J0000000D01*
G01*
G37*
G36*
G01*
X0062006Y0384154D02*
X0060825Y0384154D01*
G75*
G02*
X0060234Y0384744I0000000J0000591D01*
G01*
X0060234Y0391240D01*
G75*
G02*
X0060825Y0391831I0000591J0000000D01*
G01*
X0062006Y0391831D01*
G75*
G02*
X0062596Y0391240I0000000J-000591D01*
G01*
X0062596Y0384744D01*
G75*
G02*
X0062006Y0384154I-000591J0000000D01*
G01*
G37*
G36*
G01*
X0067006Y0384154D02*
X0065825Y0384154D01*
G75*
G02*
X0065234Y0384744I0000000J0000591D01*
G01*
X0065234Y0391240D01*
G75*
G02*
X0065825Y0391831I0000591J0000000D01*
G01*
X0067006Y0391831D01*
G75*
G02*
X0067596Y0391240I0000000J-000591D01*
G01*
X0067596Y0384744D01*
G75*
G02*
X0067006Y0384154I-000591J0000000D01*
G01*
G37*
G36*
G01*
X0072006Y0384154D02*
X0070825Y0384154D01*
G75*
G02*
X0070234Y0384744I0000000J0000591D01*
G01*
X0070234Y0391240D01*
G75*
G02*
X0070825Y0391831I0000591J0000000D01*
G01*
X0072006Y0391831D01*
G75*
G02*
X0072596Y0391240I0000000J-000591D01*
G01*
X0072596Y0384744D01*
G75*
G02*
X0072006Y0384154I-000591J0000000D01*
G01*
G37*
G36*
G01*
X0072006Y0403642D02*
X0070825Y0403642D01*
G75*
G02*
X0070234Y0404232I0000000J0000591D01*
G01*
X0070234Y0410728D01*
G75*
G02*
X0070825Y0411319I0000591J0000000D01*
G01*
X0072006Y0411319D01*
G75*
G02*
X0072596Y0410728I0000000J-000591D01*
G01*
X0072596Y0404232D01*
G75*
G02*
X0072006Y0403642I-000591J0000000D01*
G01*
G37*
G36*
G01*
X0067006Y0403642D02*
X0065825Y0403642D01*
G75*
G02*
X0065234Y0404232I0000000J0000591D01*
G01*
X0065234Y0410728D01*
G75*
G02*
X0065825Y0411319I0000591J0000000D01*
G01*
X0067006Y0411319D01*
G75*
G02*
X0067596Y0410728I0000000J-000591D01*
G01*
X0067596Y0404232D01*
G75*
G02*
X0067006Y0403642I-000591J0000000D01*
G01*
G37*
G36*
G01*
X0062006Y0403642D02*
X0060825Y0403642D01*
G75*
G02*
X0060234Y0404232I0000000J0000591D01*
G01*
X0060234Y0410728D01*
G75*
G02*
X0060825Y0411319I0000591J0000000D01*
G01*
X0062006Y0411319D01*
G75*
G02*
X0062596Y0410728I0000000J-000591D01*
G01*
X0062596Y0404232D01*
G75*
G02*
X0062006Y0403642I-000591J0000000D01*
G01*
G37*
G36*
G01*
X0057006Y0403642D02*
X0055825Y0403642D01*
G75*
G02*
X0055234Y0404232I0000000J0000591D01*
G01*
X0055234Y0410728D01*
G75*
G02*
X0055825Y0411319I0000591J0000000D01*
G01*
X0057006Y0411319D01*
G75*
G02*
X0057596Y0410728I0000000J-000591D01*
G01*
X0057596Y0404232D01*
G75*
G02*
X0057006Y0403642I-000591J0000000D01*
G01*
G37*
G36*
G01*
X0239280Y0380223D02*
X0239280Y0383294D01*
G75*
G02*
X0239555Y0383570I0000276J0000000D01*
G01*
X0241760Y0383570D01*
G75*
G02*
X0242035Y0383294I0000000J-000276D01*
G01*
X0242035Y0380223D01*
G75*
G02*
X0241760Y0379948I-000276J0000000D01*
G01*
X0239555Y0379948D01*
G75*
G02*
X0239280Y0380223I0000000J0000276D01*
G01*
G37*
G36*
G01*
X0245579Y0380223D02*
X0245579Y0383294D01*
G75*
G02*
X0245854Y0383570I0000276J0000000D01*
G01*
X0248059Y0383570D01*
G75*
G02*
X0248335Y0383294I0000000J-000276D01*
G01*
X0248335Y0380223D01*
G75*
G02*
X0248059Y0379948I-000276J0000000D01*
G01*
X0245854Y0379948D01*
G75*
G02*
X0245579Y0380223I0000000J0000276D01*
G01*
G37*
G36*
G01*
X0474919Y0376870D02*
X0477990Y0376870D01*
G75*
G02*
X0478266Y0376594I0000000J-000276D01*
G01*
X0478266Y0374390D01*
G75*
G02*
X0477990Y0374114I-000276J0000000D01*
G01*
X0474919Y0374114D01*
G75*
G02*
X0474644Y0374390I0000000J0000276D01*
G01*
X0474644Y0376594D01*
G75*
G02*
X0474919Y0376870I0000276J0000000D01*
G01*
G37*
G36*
G01*
X0474919Y0370571D02*
X0477990Y0370571D01*
G75*
G02*
X0478266Y0370295I0000000J-000276D01*
G01*
X0478266Y0368091D01*
G75*
G02*
X0477990Y0367815I-000276J0000000D01*
G01*
X0474919Y0367815D01*
G75*
G02*
X0474644Y0368091I0000000J0000276D01*
G01*
X0474644Y0370295D01*
G75*
G02*
X0474919Y0370571I0000276J0000000D01*
G01*
G37*
G36*
G01*
X0404114Y0142603D02*
X0404114Y0140586D01*
G75*
G02*
X0403253Y0139724I-000861J0000000D01*
G01*
X0401530Y0139724D01*
G75*
G02*
X0400669Y0140586I0000000J0000861D01*
G01*
X0400669Y0142603D01*
G75*
G02*
X0401530Y0143465I0000861J0000000D01*
G01*
X0403253Y0143465D01*
G75*
G02*
X0404114Y0142603I0000000J-000861D01*
G01*
G37*
G36*
G01*
X0397913Y0142603D02*
X0397913Y0140586D01*
G75*
G02*
X0397052Y0139724I-000861J0000000D01*
G01*
X0395330Y0139724D01*
G75*
G02*
X0394468Y0140586I0000000J0000861D01*
G01*
X0394468Y0142603D01*
G75*
G02*
X0395330Y0143465I0000861J0000000D01*
G01*
X0397052Y0143465D01*
G75*
G02*
X0397913Y0142603I0000000J-000861D01*
G01*
G37*
G36*
G01*
X0392498Y0379724D02*
X0389742Y0379724D01*
G75*
G02*
X0388758Y0380709I0000000J0000984D01*
G01*
X0388758Y0387402D01*
G75*
G02*
X0389742Y0388386I0000984J0000000D01*
G01*
X0392498Y0388386D01*
G75*
G02*
X0393482Y0387402I0000000J-000984D01*
G01*
X0393482Y0380709D01*
G75*
G02*
X0392498Y0379724I-000984J0000000D01*
G01*
G37*
G36*
G01*
X0398522Y0396260D02*
X0389663Y0396260D01*
G75*
G02*
X0388679Y0397244I0000000J0000984D01*
G01*
X0388679Y0407283D01*
G75*
G02*
X0389663Y0408268I0000984J0000000D01*
G01*
X0398522Y0408268D01*
G75*
G02*
X0399506Y0407283I0000000J-000984D01*
G01*
X0399506Y0397244D01*
G75*
G02*
X0398522Y0396260I-000984J0000000D01*
G01*
G37*
G36*
G01*
X0410530Y0396260D02*
X0401671Y0396260D01*
G75*
G02*
X0400687Y0397244I0000000J0000984D01*
G01*
X0400687Y0407283D01*
G75*
G02*
X0401671Y0408268I0000984J0000000D01*
G01*
X0410530Y0408268D01*
G75*
G02*
X0411514Y0407283I0000000J-000984D01*
G01*
X0411514Y0397244D01*
G75*
G02*
X0410530Y0396260I-000984J0000000D01*
G01*
G37*
G36*
G01*
X0398522Y0409449D02*
X0389663Y0409449D01*
G75*
G02*
X0388679Y0410433I0000000J0000984D01*
G01*
X0388679Y0420472D01*
G75*
G02*
X0389663Y0421457I0000984J0000000D01*
G01*
X0398522Y0421457D01*
G75*
G02*
X0399506Y0420472I0000000J-000984D01*
G01*
X0399506Y0410433D01*
G75*
G02*
X0398522Y0409449I-000984J0000000D01*
G01*
G37*
G36*
G01*
X0410530Y0409449D02*
X0401671Y0409449D01*
G75*
G02*
X0400687Y0410433I0000000J0000984D01*
G01*
X0400687Y0420472D01*
G75*
G02*
X0401671Y0421457I0000984J0000000D01*
G01*
X0410530Y0421457D01*
G75*
G02*
X0411514Y0420472I0000000J-000984D01*
G01*
X0411514Y0410433D01*
G75*
G02*
X0410530Y0409449I-000984J0000000D01*
G01*
G37*
G36*
G01*
X0410451Y0379724D02*
X0407695Y0379724D01*
G75*
G02*
X0406711Y0380709I0000000J0000984D01*
G01*
X0406711Y0387402D01*
G75*
G02*
X0407695Y0388386I0000984J0000000D01*
G01*
X0410451Y0388386D01*
G75*
G02*
X0411435Y0387402I0000000J-000984D01*
G01*
X0411435Y0380709D01*
G75*
G02*
X0410451Y0379724I-000984J0000000D01*
G01*
G37*
D72*
X0104055Y0032311D03*
X0107205Y0032311D03*
X0112323Y0032311D03*
X0116260Y0032311D03*
X0118228Y0032311D03*
X0122165Y0032311D03*
X0127283Y0032311D03*
X0130433Y0032311D03*
X0129252Y0032311D03*
X0126102Y0032311D03*
X0124134Y0032311D03*
X0120197Y0032311D03*
X0114291Y0032311D03*
X0110354Y0032311D03*
X0108386Y0032311D03*
X0105236Y0032311D03*
G36*
G01*
X0091839Y0269409D02*
X0091839Y0272126D01*
G75*
G02*
X0092744Y0273032I0000906J0000000D01*
G01*
X0098020Y0273032D01*
G75*
G02*
X0098925Y0272126I0000000J-000906D01*
G01*
X0098925Y0269409D01*
G75*
G02*
X0098020Y0268504I-000906J0000000D01*
G01*
X0092744Y0268504D01*
G75*
G02*
X0091839Y0269409I0000000J0000906D01*
G01*
G37*
G36*
G01*
X0091839Y0257992D02*
X0091839Y0260709D01*
G75*
G02*
X0092744Y0261614I0000906J0000000D01*
G01*
X0098020Y0261614D01*
G75*
G02*
X0098925Y0260709I0000000J-000906D01*
G01*
X0098925Y0257992D01*
G75*
G02*
X0098020Y0257087I-000906J0000000D01*
G01*
X0092744Y0257087D01*
G75*
G02*
X0091839Y0257992I0000000J0000906D01*
G01*
G37*
G36*
G01*
X0087045Y0379505D02*
X0087045Y0376434D01*
G75*
G02*
X0086770Y0376158I-000276J0000000D01*
G01*
X0084565Y0376158D01*
G75*
G02*
X0084289Y0376434I0000000J0000276D01*
G01*
X0084289Y0379505D01*
G75*
G02*
X0084565Y0379780I0000276J0000000D01*
G01*
X0086770Y0379780D01*
G75*
G02*
X0087045Y0379505I0000000J-000276D01*
G01*
G37*
G36*
G01*
X0080746Y0379505D02*
X0080746Y0376434D01*
G75*
G02*
X0080470Y0376158I-000276J0000000D01*
G01*
X0078266Y0376158D01*
G75*
G02*
X0077990Y0376434I0000000J0000276D01*
G01*
X0077990Y0379505D01*
G75*
G02*
X0078266Y0379780I0000276J0000000D01*
G01*
X0080470Y0379780D01*
G75*
G02*
X0080746Y0379505I0000000J-000276D01*
G01*
G37*
G36*
G01*
X0110756Y0278445D02*
X0113827Y0278445D01*
G75*
G02*
X0114102Y0278169I0000000J-000276D01*
G01*
X0114102Y0275965D01*
G75*
G02*
X0113827Y0275689I-000276J0000000D01*
G01*
X0110756Y0275689D01*
G75*
G02*
X0110480Y0275965I0000000J0000276D01*
G01*
X0110480Y0278169D01*
G75*
G02*
X0110756Y0278445I0000276J0000000D01*
G01*
G37*
G36*
G01*
X0110756Y0272146D02*
X0113827Y0272146D01*
G75*
G02*
X0114102Y0271870I0000000J-000276D01*
G01*
X0114102Y0269665D01*
G75*
G02*
X0113827Y0269390I-000276J0000000D01*
G01*
X0110756Y0269390D01*
G75*
G02*
X0110480Y0269665I0000000J0000276D01*
G01*
X0110480Y0271870D01*
G75*
G02*
X0110756Y0272146I0000276J0000000D01*
G01*
G37*
G36*
G01*
X0047173Y0249016D02*
X0050244Y0249016D01*
G75*
G02*
X0050520Y0248740I0000000J-000276D01*
G01*
X0050520Y0246535D01*
G75*
G02*
X0050244Y0246260I-000276J0000000D01*
G01*
X0047173Y0246260D01*
G75*
G02*
X0046898Y0246535I0000000J0000276D01*
G01*
X0046898Y0248740D01*
G75*
G02*
X0047173Y0249016I0000276J0000000D01*
G01*
G37*
G36*
G01*
X0047173Y0242717D02*
X0050244Y0242717D01*
G75*
G02*
X0050520Y0242441I0000000J-000276D01*
G01*
X0050520Y0240236D01*
G75*
G02*
X0050244Y0239961I-000276J0000000D01*
G01*
X0047173Y0239961D01*
G75*
G02*
X0046898Y0240236I0000000J0000276D01*
G01*
X0046898Y0242441D01*
G75*
G02*
X0047173Y0242717I0000276J0000000D01*
G01*
G37*
D78*
X0127904Y0129791D03*
X0089154Y0129791D03*
X0089154Y0134791D03*
X0089154Y0139791D03*
X0089154Y0144791D03*
X0127904Y0144791D03*
X0127904Y0139791D03*
X0127904Y0134791D03*
G36*
G01*
X0067646Y0345118D02*
X0067646Y0347795D01*
G75*
G02*
X0067980Y0348130I0000335J0000000D01*
G01*
X0070657Y0348130D01*
G75*
G02*
X0070992Y0347795I0000000J-000335D01*
G01*
X0070992Y0345118D01*
G75*
G02*
X0070657Y0344783I-000335J0000000D01*
G01*
X0067980Y0344783D01*
G75*
G02*
X0067646Y0345118I0000000J0000335D01*
G01*
G37*
G36*
G01*
X0073866Y0345118D02*
X0073866Y0347795D01*
G75*
G02*
X0074201Y0348130I0000335J0000000D01*
G01*
X0076878Y0348130D01*
G75*
G02*
X0077213Y0347795I0000000J-000335D01*
G01*
X0077213Y0345118D01*
G75*
G02*
X0076878Y0344783I-000335J0000000D01*
G01*
X0074201Y0344783D01*
G75*
G02*
X0073866Y0345118I0000000J0000335D01*
G01*
G37*
G36*
G01*
X0080382Y0384154D02*
X0079201Y0384154D01*
G75*
G02*
X0078610Y0384744I0000000J0000591D01*
G01*
X0078610Y0391240D01*
G75*
G02*
X0079201Y0391831I0000591J0000000D01*
G01*
X0080382Y0391831D01*
G75*
G02*
X0080972Y0391240I0000000J-000591D01*
G01*
X0080972Y0384744D01*
G75*
G02*
X0080382Y0384154I-000591J0000000D01*
G01*
G37*
G36*
G01*
X0085382Y0384154D02*
X0084201Y0384154D01*
G75*
G02*
X0083610Y0384744I0000000J0000591D01*
G01*
X0083610Y0391240D01*
G75*
G02*
X0084201Y0391831I0000591J0000000D01*
G01*
X0085382Y0391831D01*
G75*
G02*
X0085972Y0391240I0000000J-000591D01*
G01*
X0085972Y0384744D01*
G75*
G02*
X0085382Y0384154I-000591J0000000D01*
G01*
G37*
G36*
G01*
X0090382Y0384154D02*
X0089201Y0384154D01*
G75*
G02*
X0088610Y0384744I0000000J0000591D01*
G01*
X0088610Y0391240D01*
G75*
G02*
X0089201Y0391831I0000591J0000000D01*
G01*
X0090382Y0391831D01*
G75*
G02*
X0090972Y0391240I0000000J-000591D01*
G01*
X0090972Y0384744D01*
G75*
G02*
X0090382Y0384154I-000591J0000000D01*
G01*
G37*
G36*
G01*
X0095382Y0384154D02*
X0094201Y0384154D01*
G75*
G02*
X0093610Y0384744I0000000J0000591D01*
G01*
X0093610Y0391240D01*
G75*
G02*
X0094201Y0391831I0000591J0000000D01*
G01*
X0095382Y0391831D01*
G75*
G02*
X0095972Y0391240I0000000J-000591D01*
G01*
X0095972Y0384744D01*
G75*
G02*
X0095382Y0384154I-000591J0000000D01*
G01*
G37*
G36*
G01*
X0095382Y0403642D02*
X0094201Y0403642D01*
G75*
G02*
X0093610Y0404232I0000000J0000591D01*
G01*
X0093610Y0410728D01*
G75*
G02*
X0094201Y0411319I0000591J0000000D01*
G01*
X0095382Y0411319D01*
G75*
G02*
X0095972Y0410728I0000000J-000591D01*
G01*
X0095972Y0404232D01*
G75*
G02*
X0095382Y0403642I-000591J0000000D01*
G01*
G37*
G36*
G01*
X0090382Y0403642D02*
X0089201Y0403642D01*
G75*
G02*
X0088610Y0404232I0000000J0000591D01*
G01*
X0088610Y0410728D01*
G75*
G02*
X0089201Y0411319I0000591J0000000D01*
G01*
X0090382Y0411319D01*
G75*
G02*
X0090972Y0410728I0000000J-000591D01*
G01*
X0090972Y0404232D01*
G75*
G02*
X0090382Y0403642I-000591J0000000D01*
G01*
G37*
G36*
G01*
X0085382Y0403642D02*
X0084201Y0403642D01*
G75*
G02*
X0083610Y0404232I0000000J0000591D01*
G01*
X0083610Y0410728D01*
G75*
G02*
X0084201Y0411319I0000591J0000000D01*
G01*
X0085382Y0411319D01*
G75*
G02*
X0085972Y0410728I0000000J-000591D01*
G01*
X0085972Y0404232D01*
G75*
G02*
X0085382Y0403642I-000591J0000000D01*
G01*
G37*
G36*
G01*
X0080382Y0403642D02*
X0079201Y0403642D01*
G75*
G02*
X0078610Y0404232I0000000J0000591D01*
G01*
X0078610Y0410728D01*
G75*
G02*
X0079201Y0411319I0000591J0000000D01*
G01*
X0080382Y0411319D01*
G75*
G02*
X0080972Y0410728I0000000J-000591D01*
G01*
X0080972Y0404232D01*
G75*
G02*
X0080382Y0403642I-000591J0000000D01*
G01*
G37*
X0302469Y0016240D02*
G01*
G75*
D285*
X0278102Y0061319D02*
D03*
X0295819Y0061319D02*
D03*
D286*
X0253650Y0057992D02*
D03*
X0253650Y0030630D02*
D03*
D287*
X0276878Y0046752D02*
D03*
X0276878Y0030610D02*
D03*
D288*
X0294989Y0048523D02*
D03*
X0294989Y0032775D02*
D03*
D289*
X0233211Y0025584D02*
D03*
X0236951Y0034836D02*
D03*
D289*
X0229471Y0034836D02*
D03*
D290*
X0223532Y0057671D02*
D03*
D290*
X0227272Y0057671D02*
D03*
X0231012Y0057671D02*
D03*
X0231012Y0066135D02*
D03*
X0223532Y0066135D02*
D03*
D291*
X0237533Y0069987D02*
D03*
X0237533Y0056995D02*
D03*
D292*
X0237245Y0051701D02*
D03*
X0237245Y0040283D02*
D03*
D293*
X0269792Y0070886D02*
D03*
X0269792Y0064665D02*
D03*
X0269792Y0060295D02*
D03*
X0269792Y0054075D02*
D03*
D294*
X0292681Y0020209D02*
D03*
X0288547Y0020209D02*
D03*
X0250807Y0070764D02*
D03*
X0246673Y0070764D02*
D03*
X0255520Y0070764D02*
D03*
X0259654Y0070764D02*
D03*
X0275169Y0071656D02*
D03*
X0279303Y0071656D02*
D03*
D295*
X0230962Y0052553D02*
D03*
X0227025Y0052553D02*
D03*
X0230060Y0038878D02*
D03*
X0230060Y0047539D02*
D03*
X0223663Y0038878D02*
D03*
X0223663Y0047539D02*
D03*
D296*
X0223532Y0030505D02*
D03*
X0223532Y0034049D02*
D03*
D297*
X0246870Y0066506D02*
D03*
X0250414Y0066506D02*
D03*
X0255914Y0066506D02*
D03*
X0259457Y0066506D02*
D03*
X0287470Y0071656D02*
D03*
X0283926Y0071656D02*
D03*
X0387902Y0303839D02*
G01*
G75*
D334*
X0398126Y0289134D02*
D03*
X0390646Y0289134D02*
D03*
X0390646Y0297599D02*
D03*
X0394386Y0297599D02*
D03*
X0398126Y0273485D02*
D03*
X0390646Y0273485D02*
D03*
X0390646Y0281949D02*
D03*
X0394386Y0281949D02*
D03*
D334*
X0398126Y0297599D02*
D03*
X0398126Y0281949D02*
D03*
X0138551Y0406152D02*
%LPD*%
G01*
G36*
G01*
X0156169Y0388711D02*
X0157626Y0388711D01*
G75*
G02*
X0158157Y0388180I0000000J-000531D01*
G01*
X0158157Y0387117D01*
G75*
G02*
X0157626Y0386585I-000531J0000000D01*
G01*
X0156169Y0386585D01*
G75*
G02*
X0155638Y0387117I0000000J0000531D01*
G01*
X0155638Y0388180D01*
G75*
G02*
X0156169Y0388711I0000531J0000000D01*
G01*
G37*
G36*
G01*
X0156169Y0392727D02*
X0157626Y0392727D01*
G75*
G02*
X0158157Y0392195I0000000J-000531D01*
G01*
X0158157Y0391132D01*
G75*
G02*
X0157626Y0390601I-000531J0000000D01*
G01*
X0156169Y0390601D01*
G75*
G02*
X0155638Y0391132I0000000J0000531D01*
G01*
X0155638Y0392195D01*
G75*
G02*
X0156169Y0392727I0000531J0000000D01*
G01*
G37*
G36*
G01*
X0140480Y0365463D02*
X0140480Y0366920D01*
G75*
G02*
X0141012Y0367451I0000531J0000000D01*
G01*
X0142075Y0367451D01*
G75*
G02*
X0142606Y0366920I0000000J-000531D01*
G01*
X0142606Y0365463D01*
G75*
G02*
X0142075Y0364932I-000531J0000000D01*
G01*
X0141012Y0364932D01*
G75*
G02*
X0140480Y0365463I0000000J0000531D01*
G01*
G37*
G36*
G01*
X0144496Y0365463D02*
X0144496Y0366920D01*
G75*
G02*
X0145027Y0367451I0000531J0000000D01*
G01*
X0146090Y0367451D01*
G75*
G02*
X0146622Y0366920I0000000J-000531D01*
G01*
X0146622Y0365463D01*
G75*
G02*
X0146090Y0364932I-000531J0000000D01*
G01*
X0145027Y0364932D01*
G75*
G02*
X0144496Y0365463I0000000J0000531D01*
G01*
G37*
G36*
G01*
X0172823Y0376435D02*
X0174004Y0376435D01*
G75*
G02*
X0174594Y0375845I0000000J-000591D01*
G01*
X0174594Y0369349D01*
G75*
G02*
X0174004Y0368758I-000591J0000000D01*
G01*
X0172823Y0368758D01*
G75*
G02*
X0172232Y0369349I0000000J0000591D01*
G01*
X0172232Y0375845D01*
G75*
G02*
X0172823Y0376435I0000591J0000000D01*
G01*
G37*
G36*
G01*
X0167823Y0376435D02*
X0169004Y0376435D01*
G75*
G02*
X0169594Y0375845I0000000J-000591D01*
G01*
X0169594Y0369349D01*
G75*
G02*
X0169004Y0368758I-000591J0000000D01*
G01*
X0167823Y0368758D01*
G75*
G02*
X0167232Y0369349I0000000J0000591D01*
G01*
X0167232Y0375845D01*
G75*
G02*
X0167823Y0376435I0000591J0000000D01*
G01*
G37*
G36*
G01*
X0162823Y0376435D02*
X0164004Y0376435D01*
G75*
G02*
X0164594Y0375845I0000000J-000591D01*
G01*
X0164594Y0369349D01*
G75*
G02*
X0164004Y0368758I-000591J0000000D01*
G01*
X0162823Y0368758D01*
G75*
G02*
X0162232Y0369349I0000000J0000591D01*
G01*
X0162232Y0375845D01*
G75*
G02*
X0162823Y0376435I0000591J0000000D01*
G01*
G37*
G36*
G01*
X0157823Y0376435D02*
X0159004Y0376435D01*
G75*
G02*
X0159594Y0375845I0000000J-000591D01*
G01*
X0159594Y0369349D01*
G75*
G02*
X0159004Y0368758I-000591J0000000D01*
G01*
X0157823Y0368758D01*
G75*
G02*
X0157232Y0369349I0000000J0000591D01*
G01*
X0157232Y0375845D01*
G75*
G02*
X0157823Y0376435I0000591J0000000D01*
G01*
G37*
G36*
G01*
X0157823Y0356947D02*
X0159004Y0356947D01*
G75*
G02*
X0159594Y0356357I0000000J-000591D01*
G01*
X0159594Y0349861D01*
G75*
G02*
X0159004Y0349270I-000591J0000000D01*
G01*
X0157823Y0349270D01*
G75*
G02*
X0157232Y0349861I0000000J0000591D01*
G01*
X0157232Y0356357D01*
G75*
G02*
X0157823Y0356947I0000591J0000000D01*
G01*
G37*
G36*
G01*
X0162823Y0356947D02*
X0164004Y0356947D01*
G75*
G02*
X0164594Y0356357I0000000J-000591D01*
G01*
X0164594Y0349861D01*
G75*
G02*
X0164004Y0349270I-000591J0000000D01*
G01*
X0162823Y0349270D01*
G75*
G02*
X0162232Y0349861I0000000J0000591D01*
G01*
X0162232Y0356357D01*
G75*
G02*
X0162823Y0356947I0000591J0000000D01*
G01*
G37*
G36*
G01*
X0167823Y0356947D02*
X0169004Y0356947D01*
G75*
G02*
X0169594Y0356357I0000000J-000591D01*
G01*
X0169594Y0349861D01*
G75*
G02*
X0169004Y0349270I-000591J0000000D01*
G01*
X0167823Y0349270D01*
G75*
G02*
X0167232Y0349861I0000000J0000591D01*
G01*
X0167232Y0356357D01*
G75*
G02*
X0167823Y0356947I0000591J0000000D01*
G01*
G37*
G36*
G01*
X0172823Y0356947D02*
X0174004Y0356947D01*
G75*
G02*
X0174594Y0356357I0000000J-000591D01*
G01*
X0174594Y0349861D01*
G75*
G02*
X0174004Y0349270I-000591J0000000D01*
G01*
X0172823Y0349270D01*
G75*
G02*
X0172232Y0349861I0000000J0000591D01*
G01*
X0172232Y0356357D01*
G75*
G02*
X0172823Y0356947I0000591J0000000D01*
G01*
G37*
D169*
X0173551Y0390955D03*
X0170992Y0390955D03*
X0168433Y0390955D03*
X0168433Y0383475D03*
X0170992Y0383475D03*
X0173551Y0383475D03*
G36*
G01*
X0154463Y0374794D02*
X0154463Y0373337D01*
G75*
G02*
X0153931Y0372806I-000531J0000000D01*
G01*
X0152868Y0372806D01*
G75*
G02*
X0152337Y0373337I0000000J0000531D01*
G01*
X0152337Y0374794D01*
G75*
G02*
X0152868Y0375325I0000531J0000000D01*
G01*
X0153931Y0375325D01*
G75*
G02*
X0154463Y0374794I0000000J-000531D01*
G01*
G37*
G36*
G01*
X0150447Y0374794D02*
X0150447Y0373337D01*
G75*
G02*
X0149916Y0372806I-000531J0000000D01*
G01*
X0148853Y0372806D01*
G75*
G02*
X0148321Y0373337I0000000J0000531D01*
G01*
X0148321Y0374794D01*
G75*
G02*
X0148853Y0375325I0000531J0000000D01*
G01*
X0149916Y0375325D01*
G75*
G02*
X0150447Y0374794I0000000J-000531D01*
G01*
G37*
G36*
G01*
X0148400Y0369459D02*
X0148400Y0370798D01*
G75*
G02*
X0148951Y0371349I0000551J0000000D01*
G01*
X0150053Y0371349D01*
G75*
G02*
X0150605Y0370798I0000000J-000551D01*
G01*
X0150605Y0369459D01*
G75*
G02*
X0150053Y0368908I-000551J0000000D01*
G01*
X0148951Y0368908D01*
G75*
G02*
X0148400Y0369459I0000000J0000551D01*
G01*
G37*
G36*
G01*
X0152179Y0369459D02*
X0152179Y0370798D01*
G75*
G02*
X0152731Y0371349I0000551J0000000D01*
G01*
X0153833Y0371349D01*
G75*
G02*
X0154384Y0370798I0000000J-000551D01*
G01*
X0154384Y0369459D01*
G75*
G02*
X0153833Y0368908I-000551J0000000D01*
G01*
X0152731Y0368908D01*
G75*
G02*
X0152179Y0369459I0000000J0000551D01*
G01*
G37*
G36*
G01*
X0140480Y0373337D02*
X0140480Y0374794D01*
G75*
G02*
X0141012Y0375325I0000531J0000000D01*
G01*
X0142075Y0375325D01*
G75*
G02*
X0142606Y0374794I0000000J-000531D01*
G01*
X0142606Y0373337D01*
G75*
G02*
X0142075Y0372806I-000531J0000000D01*
G01*
X0141012Y0372806D01*
G75*
G02*
X0140480Y0373337I0000000J0000531D01*
G01*
G37*
G36*
G01*
X0144496Y0373337D02*
X0144496Y0374794D01*
G75*
G02*
X0145027Y0375325I0000531J0000000D01*
G01*
X0146090Y0375325D01*
G75*
G02*
X0146622Y0374794I0000000J-000531D01*
G01*
X0146622Y0373337D01*
G75*
G02*
X0146090Y0372806I-000531J0000000D01*
G01*
X0145027Y0372806D01*
G75*
G02*
X0144496Y0373337I0000000J0000531D01*
G01*
G37*
G36*
G01*
X0146543Y0361743D02*
X0146543Y0360404D01*
G75*
G02*
X0145992Y0359853I-000551J0000000D01*
G01*
X0144890Y0359853D01*
G75*
G02*
X0144338Y0360404I0000000J0000551D01*
G01*
X0144338Y0361743D01*
G75*
G02*
X0144890Y0362294I0000551J0000000D01*
G01*
X0145992Y0362294D01*
G75*
G02*
X0146543Y0361743I0000000J-000551D01*
G01*
G37*
G36*
G01*
X0142764Y0361743D02*
X0142764Y0360404D01*
G75*
G02*
X0142212Y0359853I-000551J0000000D01*
G01*
X0141110Y0359853D01*
G75*
G02*
X0140559Y0360404I0000000J0000551D01*
G01*
X0140559Y0361743D01*
G75*
G02*
X0141110Y0362294I0000551J0000000D01*
G01*
X0142212Y0362294D01*
G75*
G02*
X0142764Y0361743I0000000J-000551D01*
G01*
G37*
G36*
G01*
X0150401Y0384872D02*
X0150401Y0383534D01*
G75*
G02*
X0149850Y0382983I-000551J0000000D01*
G01*
X0148748Y0382983D01*
G75*
G02*
X0148197Y0383534I0000000J0000551D01*
G01*
X0148197Y0384872D01*
G75*
G02*
X0148748Y0385424I0000551J0000000D01*
G01*
X0149850Y0385424D01*
G75*
G02*
X0150401Y0384872I0000000J-000551D01*
G01*
G37*
G36*
G01*
X0146622Y0384872D02*
X0146622Y0383534D01*
G75*
G02*
X0146071Y0382983I-000551J0000000D01*
G01*
X0144968Y0382983D01*
G75*
G02*
X0144417Y0383534I0000000J0000551D01*
G01*
X0144417Y0384872D01*
G75*
G02*
X0144968Y0385424I0000551J0000000D01*
G01*
X0146071Y0385424D01*
G75*
G02*
X0146622Y0384872I0000000J-000551D01*
G01*
G37*
G36*
G01*
X0153649Y0379105D02*
X0152193Y0379105D01*
G75*
G02*
X0151661Y0379636I0000000J0000531D01*
G01*
X0151661Y0380699D01*
G75*
G02*
X0152193Y0381231I0000531J0000000D01*
G01*
X0153649Y0381231D01*
G75*
G02*
X0154181Y0380699I0000000J-000531D01*
G01*
X0154181Y0379636D01*
G75*
G02*
X0153649Y0379105I-000531J0000000D01*
G01*
G37*
G36*
G01*
X0153649Y0383121D02*
X0152193Y0383121D01*
G75*
G02*
X0151661Y0383652I0000000J0000531D01*
G01*
X0151661Y0384715D01*
G75*
G02*
X0152193Y0385246I0000531J0000000D01*
G01*
X0153649Y0385246D01*
G75*
G02*
X0154181Y0384715I0000000J-000531D01*
G01*
X0154181Y0383652D01*
G75*
G02*
X0153649Y0383121I-000531J0000000D01*
G01*
G37*
G36*
G01*
X0154378Y0348278D02*
X0153039Y0348278D01*
G75*
G02*
X0152488Y0348829I0000000J0000551D01*
G01*
X0152488Y0349932D01*
G75*
G02*
X0153039Y0350483I0000551J0000000D01*
G01*
X0154378Y0350483D01*
G75*
G02*
X0154929Y0349932I0000000J-000551D01*
G01*
X0154929Y0348829D01*
G75*
G02*
X0154378Y0348278I-000551J0000000D01*
G01*
G37*
G36*
G01*
X0154378Y0352058D02*
X0153039Y0352058D01*
G75*
G02*
X0152488Y0352609I0000000J0000551D01*
G01*
X0152488Y0353711D01*
G75*
G02*
X0153039Y0354262I0000551J0000000D01*
G01*
X0154378Y0354262D01*
G75*
G02*
X0154929Y0353711I0000000J-000551D01*
G01*
X0154929Y0352609D01*
G75*
G02*
X0154378Y0352058I-000551J0000000D01*
G01*
G37*
G36*
G01*
X0160141Y0397333D02*
X0162158Y0397333D01*
G75*
G02*
X0163020Y0396472I0000000J-000861D01*
G01*
X0163020Y0394749D01*
G75*
G02*
X0162158Y0393888I-000861J0000000D01*
G01*
X0160141Y0393888D01*
G75*
G02*
X0159279Y0394749I0000000J0000861D01*
G01*
X0159279Y0396472D01*
G75*
G02*
X0160141Y0397333I0000861J0000000D01*
G01*
G37*
G36*
G01*
X0160141Y0403534D02*
X0162158Y0403534D01*
G75*
G02*
X0163020Y0402673I0000000J-000861D01*
G01*
X0163020Y0400950D01*
G75*
G02*
X0162158Y0400089I-000861J0000000D01*
G01*
X0160141Y0400089D01*
G75*
G02*
X0159279Y0400950I0000000J0000861D01*
G01*
X0159279Y0402673D01*
G75*
G02*
X0160141Y0403534I0000861J0000000D01*
G01*
G37*
G36*
G01*
X0165362Y0378554D02*
X0165362Y0379892D01*
G75*
G02*
X0165913Y0380443I0000551J0000000D01*
G01*
X0167016Y0380443D01*
G75*
G02*
X0167567Y0379892I0000000J-000551D01*
G01*
X0167567Y0378554D01*
G75*
G02*
X0167016Y0378002I-000551J0000000D01*
G01*
X0165913Y0378002D01*
G75*
G02*
X0165362Y0378554I0000000J0000551D01*
G01*
G37*
G36*
G01*
X0169142Y0378554D02*
X0169142Y0379892D01*
G75*
G02*
X0169693Y0380443I0000551J0000000D01*
G01*
X0170795Y0380443D01*
G75*
G02*
X0171346Y0379892I0000000J-000551D01*
G01*
X0171346Y0378554D01*
G75*
G02*
X0170795Y0378002I-000551J0000000D01*
G01*
X0169693Y0378002D01*
G75*
G02*
X0169142Y0378554I0000000J0000551D01*
G01*
G37*
G36*
G01*
X0168216Y0396191D02*
X0166760Y0396191D01*
G75*
G02*
X0166228Y0396723I0000000J0000531D01*
G01*
X0166228Y0397786D01*
G75*
G02*
X0166760Y0398317I0000531J0000000D01*
G01*
X0168216Y0398317D01*
G75*
G02*
X0168748Y0397786I0000000J-000531D01*
G01*
X0168748Y0396723D01*
G75*
G02*
X0168216Y0396191I-000531J0000000D01*
G01*
G37*
G36*
G01*
X0168216Y0400207D02*
X0166760Y0400207D01*
G75*
G02*
X0166228Y0400739I0000000J0000531D01*
G01*
X0166228Y0401802D01*
G75*
G02*
X0166760Y0402333I0000531J0000000D01*
G01*
X0168216Y0402333D01*
G75*
G02*
X0168748Y0401802I0000000J-000531D01*
G01*
X0168748Y0400739D01*
G75*
G02*
X0168216Y0400207I-000531J0000000D01*
G01*
G37*
G36*
G01*
X0156130Y0385246D02*
X0157586Y0385246D01*
G75*
G02*
X0158118Y0384715I0000000J-000531D01*
G01*
X0158118Y0383652D01*
G75*
G02*
X0157586Y0383121I-000531J0000000D01*
G01*
X0156130Y0383121D01*
G75*
G02*
X0155598Y0383652I0000000J0000531D01*
G01*
X0155598Y0384715D01*
G75*
G02*
X0156130Y0385246I0000531J0000000D01*
G01*
G37*
G36*
G01*
X0156130Y0381231D02*
X0157586Y0381231D01*
G75*
G02*
X0158118Y0380699I0000000J-000531D01*
G01*
X0158118Y0379636D01*
G75*
G02*
X0157586Y0379105I-000531J0000000D01*
G01*
X0156130Y0379105D01*
G75*
G02*
X0155598Y0379636I0000000J0000531D01*
G01*
X0155598Y0380699D01*
G75*
G02*
X0156130Y0381231I0000531J0000000D01*
G01*
G37*
G36*
G01*
X0150339Y0380109D02*
X0150339Y0378652D01*
G75*
G02*
X0149808Y0378121I-000531J0000000D01*
G01*
X0148745Y0378121D01*
G75*
G02*
X0148213Y0378652I0000000J0000531D01*
G01*
X0148213Y0380109D01*
G75*
G02*
X0148745Y0380640I0000531J0000000D01*
G01*
X0149808Y0380640D01*
G75*
G02*
X0150339Y0380109I0000000J-000531D01*
G01*
G37*
G36*
G01*
X0146323Y0380109D02*
X0146323Y0378652D01*
G75*
G02*
X0145792Y0378121I-000531J0000000D01*
G01*
X0144729Y0378121D01*
G75*
G02*
X0144198Y0378652I0000000J0000531D01*
G01*
X0144198Y0380109D01*
G75*
G02*
X0144729Y0380640I0000531J0000000D01*
G01*
X0145792Y0380640D01*
G75*
G02*
X0146323Y0380109I0000000J-000531D01*
G01*
G37*
G36*
G01*
X0156937Y0397451D02*
X0155598Y0397451D01*
G75*
G02*
X0155047Y0398002I0000000J0000551D01*
G01*
X0155047Y0399105D01*
G75*
G02*
X0155598Y0399656I0000551J0000000D01*
G01*
X0156937Y0399656D01*
G75*
G02*
X0157488Y0399105I0000000J-000551D01*
G01*
X0157488Y0398002D01*
G75*
G02*
X0156937Y0397451I-000551J0000000D01*
G01*
G37*
G36*
G01*
X0156937Y0401231D02*
X0155598Y0401231D01*
G75*
G02*
X0155047Y0401782I0000000J0000551D01*
G01*
X0155047Y0402884D01*
G75*
G02*
X0155598Y0403435I0000551J0000000D01*
G01*
X0156937Y0403435D01*
G75*
G02*
X0157488Y0402884I0000000J-000551D01*
G01*
X0157488Y0401782D01*
G75*
G02*
X0156937Y0401231I-000551J0000000D01*
G01*
G37*
G36*
G01*
X0148400Y0360404D02*
X0148400Y0361743D01*
G75*
G02*
X0148951Y0362294I0000551J0000000D01*
G01*
X0150053Y0362294D01*
G75*
G02*
X0150605Y0361743I0000000J-000551D01*
G01*
X0150605Y0360404D01*
G75*
G02*
X0150053Y0359853I-000551J0000000D01*
G01*
X0148951Y0359853D01*
G75*
G02*
X0148400Y0360404I0000000J0000551D01*
G01*
G37*
G36*
G01*
X0152179Y0360404D02*
X0152179Y0361743D01*
G75*
G02*
X0152731Y0362294I0000551J0000000D01*
G01*
X0153833Y0362294D01*
G75*
G02*
X0154384Y0361743I0000000J-000551D01*
G01*
X0154384Y0360404D01*
G75*
G02*
X0153833Y0359853I-000551J0000000D01*
G01*
X0152731Y0359853D01*
G75*
G02*
X0152179Y0360404I0000000J0000551D01*
G01*
G37*
G36*
G01*
X0140874Y0385424D02*
X0142331Y0385424D01*
G75*
G02*
X0142862Y0384892I0000000J-000531D01*
G01*
X0142862Y0383829D01*
G75*
G02*
X0142331Y0383298I-000531J0000000D01*
G01*
X0140874Y0383298D01*
G75*
G02*
X0140342Y0383829I0000000J0000531D01*
G01*
X0140342Y0384892D01*
G75*
G02*
X0140874Y0385424I0000531J0000000D01*
G01*
G37*
G36*
G01*
X0140874Y0381408D02*
X0142331Y0381408D01*
G75*
G02*
X0142862Y0380876I0000000J-000531D01*
G01*
X0142862Y0379813D01*
G75*
G02*
X0142331Y0379282I-000531J0000000D01*
G01*
X0140874Y0379282D01*
G75*
G02*
X0140342Y0379813I0000000J0000531D01*
G01*
X0140342Y0380876D01*
G75*
G02*
X0140874Y0381408I0000531J0000000D01*
G01*
G37*
D168*
X0142094Y0356165D03*
X0142094Y0353606D03*
X0142094Y0351047D03*
X0149575Y0351047D03*
X0149575Y0353606D03*
X0149575Y0356165D03*
G36*
G01*
X0150880Y0402114D02*
X0152061Y0402114D01*
G75*
G02*
X0152652Y0401523I0000000J-000591D01*
G01*
X0152652Y0397488D01*
G75*
G02*
X0152061Y0396897I-000591J0000000D01*
G01*
X0150880Y0396897D01*
G75*
G02*
X0150290Y0397488I0000000J0000591D01*
G01*
X0150290Y0401523D01*
G75*
G02*
X0150880Y0402114I0000591J0000000D01*
G01*
G37*
G36*
G01*
X0147140Y0402114D02*
X0148321Y0402114D01*
G75*
G02*
X0148912Y0401523I0000000J-000591D01*
G01*
X0148912Y0397488D01*
G75*
G02*
X0148321Y0396897I-000591J0000000D01*
G01*
X0147140Y0396897D01*
G75*
G02*
X0146549Y0397488I0000000J0000591D01*
G01*
X0146549Y0401523D01*
G75*
G02*
X0147140Y0402114I0000591J0000000D01*
G01*
G37*
G36*
G01*
X0143400Y0402114D02*
X0144581Y0402114D01*
G75*
G02*
X0145171Y0401523I0000000J-000591D01*
G01*
X0145171Y0397488D01*
G75*
G02*
X0144581Y0396897I-000591J0000000D01*
G01*
X0143400Y0396897D01*
G75*
G02*
X0142809Y0397488I0000000J0000591D01*
G01*
X0142809Y0401523D01*
G75*
G02*
X0143400Y0402114I0000591J0000000D01*
G01*
G37*
G36*
G01*
X0143400Y0393157D02*
X0144581Y0393157D01*
G75*
G02*
X0145171Y0392567I0000000J-000591D01*
G01*
X0145171Y0388531D01*
G75*
G02*
X0144581Y0387941I-000591J0000000D01*
G01*
X0143400Y0387941D01*
G75*
G02*
X0142809Y0388531I0000000J0000591D01*
G01*
X0142809Y0392567D01*
G75*
G02*
X0143400Y0393157I0000591J0000000D01*
G01*
G37*
G36*
G01*
X0147140Y0393157D02*
X0148321Y0393157D01*
G75*
G02*
X0148912Y0392567I0000000J-000591D01*
G01*
X0148912Y0388531D01*
G75*
G02*
X0148321Y0387941I-000591J0000000D01*
G01*
X0147140Y0387941D01*
G75*
G02*
X0146549Y0388531I0000000J0000591D01*
G01*
X0146549Y0392567D01*
G75*
G02*
X0147140Y0393157I0000591J0000000D01*
G01*
G37*
G36*
G01*
X0150880Y0393157D02*
X0152061Y0393157D01*
G75*
G02*
X0152652Y0392567I0000000J-000591D01*
G01*
X0152652Y0388531D01*
G75*
G02*
X0152061Y0387941I-000591J0000000D01*
G01*
X0150880Y0387941D01*
G75*
G02*
X0150290Y0388531I0000000J0000591D01*
G01*
X0150290Y0392567D01*
G75*
G02*
X0150880Y0393157I0000591J0000000D01*
G01*
G37*
G36*
G01*
X0162764Y0390995D02*
X0164102Y0390995D01*
G75*
G02*
X0164653Y0390443I0000000J-000551D01*
G01*
X0164653Y0389341D01*
G75*
G02*
X0164102Y0388790I-000551J0000000D01*
G01*
X0162764Y0388790D01*
G75*
G02*
X0162212Y0389341I0000000J0000551D01*
G01*
X0162212Y0390443D01*
G75*
G02*
X0162764Y0390995I0000551J0000000D01*
G01*
G37*
G36*
G01*
X0162764Y0387215D02*
X0164102Y0387215D01*
G75*
G02*
X0164653Y0386664I0000000J-000551D01*
G01*
X0164653Y0385561D01*
G75*
G02*
X0164102Y0385010I-000551J0000000D01*
G01*
X0162764Y0385010D01*
G75*
G02*
X0162212Y0385561I0000000J0000551D01*
G01*
X0162212Y0386664D01*
G75*
G02*
X0162764Y0387215I0000551J0000000D01*
G01*
G37*
G36*
G01*
X0140559Y0369459D02*
X0140559Y0370798D01*
G75*
G02*
X0141110Y0371349I0000551J0000000D01*
G01*
X0142212Y0371349D01*
G75*
G02*
X0142764Y0370798I0000000J-000551D01*
G01*
X0142764Y0369459D01*
G75*
G02*
X0142212Y0368908I-000551J0000000D01*
G01*
X0141110Y0368908D01*
G75*
G02*
X0140559Y0369459I0000000J0000551D01*
G01*
G37*
G36*
G01*
X0144338Y0369459D02*
X0144338Y0370798D01*
G75*
G02*
X0144890Y0371349I0000551J0000000D01*
G01*
X0145992Y0371349D01*
G75*
G02*
X0146543Y0370798I0000000J-000551D01*
G01*
X0146543Y0369459D01*
G75*
G02*
X0145992Y0368908I-000551J0000000D01*
G01*
X0144890Y0368908D01*
G75*
G02*
X0144338Y0369459I0000000J0000551D01*
G01*
G37*
G36*
G01*
X0148321Y0365463D02*
X0148321Y0366920D01*
G75*
G02*
X0148853Y0367451I0000531J0000000D01*
G01*
X0149916Y0367451D01*
G75*
G02*
X0150447Y0366920I0000000J-000531D01*
G01*
X0150447Y0365463D01*
G75*
G02*
X0149916Y0364932I-000531J0000000D01*
G01*
X0148853Y0364932D01*
G75*
G02*
X0148321Y0365463I0000000J0000531D01*
G01*
G37*
G36*
G01*
X0152337Y0365463D02*
X0152337Y0366920D01*
G75*
G02*
X0152868Y0367451I0000531J0000000D01*
G01*
X0153931Y0367451D01*
G75*
G02*
X0154463Y0366920I0000000J-000531D01*
G01*
X0154463Y0365463D01*
G75*
G02*
X0153931Y0364932I-000531J0000000D01*
G01*
X0152868Y0364932D01*
G75*
G02*
X0152337Y0365463I0000000J0000531D01*
G01*
G37*
X0184161Y0406299D02*
%LPD*%
G01*
D344*
X0197153Y0372441D03*
X0195185Y0372441D03*
X0193216Y0372441D03*
X0191248Y0372441D03*
X0189279Y0372441D03*
X0189279Y0355118D03*
X0191248Y0355118D03*
X0193216Y0355118D03*
X0195185Y0355118D03*
X0197153Y0355118D03*
G36*
G01*
X0210342Y0364921D02*
X0210342Y0361850D01*
G75*
G02*
X0210067Y0361575I-000276J0000000D01*
G01*
X0207862Y0361575D01*
G75*
G02*
X0207586Y0361850I0000000J0000276D01*
G01*
X0207586Y0364921D01*
G75*
G02*
X0207862Y0365197I0000276J0000000D01*
G01*
X0210067Y0365197D01*
G75*
G02*
X0210342Y0364921I0000000J-000276D01*
G01*
G37*
G36*
G01*
X0204043Y0364921D02*
X0204043Y0361850D01*
G75*
G02*
X0203767Y0361575I-000276J0000000D01*
G01*
X0201563Y0361575D01*
G75*
G02*
X0201287Y0361850I0000000J0000276D01*
G01*
X0201287Y0364921D01*
G75*
G02*
X0201563Y0365197I0000276J0000000D01*
G01*
X0203767Y0365197D01*
G75*
G02*
X0204043Y0364921I0000000J-000276D01*
G01*
G37*
G36*
G01*
X0216996Y0350590D02*
X0213925Y0350590D01*
G75*
G02*
X0213649Y0350866I0000000J0000276D01*
G01*
X0213649Y0353071D01*
G75*
G02*
X0213925Y0353346I0000276J0000000D01*
G01*
X0216996Y0353346D01*
G75*
G02*
X0217271Y0353071I0000000J-000276D01*
G01*
X0217271Y0350866D01*
G75*
G02*
X0216996Y0350590I-000276J0000000D01*
G01*
G37*
G36*
G01*
X0216996Y0356890D02*
X0213925Y0356890D01*
G75*
G02*
X0213649Y0357165I0000000J0000276D01*
G01*
X0213649Y0359370D01*
G75*
G02*
X0213925Y0359645I0000276J0000000D01*
G01*
X0216996Y0359645D01*
G75*
G02*
X0217271Y0359370I0000000J-000276D01*
G01*
X0217271Y0357165D01*
G75*
G02*
X0216996Y0356890I-000276J0000000D01*
G01*
G37*
G36*
G01*
X0210342Y0370827D02*
X0210342Y0367756D01*
G75*
G02*
X0210067Y0367480I-000276J0000000D01*
G01*
X0207862Y0367480D01*
G75*
G02*
X0207586Y0367756I0000000J0000276D01*
G01*
X0207586Y0370827D01*
G75*
G02*
X0207862Y0371102I0000276J0000000D01*
G01*
X0210067Y0371102D01*
G75*
G02*
X0210342Y0370827I0000000J-000276D01*
G01*
G37*
G36*
G01*
X0204043Y0370827D02*
X0204043Y0367756D01*
G75*
G02*
X0203767Y0367480I-000276J0000000D01*
G01*
X0201563Y0367480D01*
G75*
G02*
X0201287Y0367756I0000000J0000276D01*
G01*
X0201287Y0370827D01*
G75*
G02*
X0201563Y0371102I0000276J0000000D01*
G01*
X0203767Y0371102D01*
G75*
G02*
X0204043Y0370827I0000000J-000276D01*
G01*
G37*
G36*
G01*
X0216666Y0362500D02*
X0214648Y0362500D01*
G75*
G02*
X0213787Y0363361I0000000J0000861D01*
G01*
X0213787Y0365083D01*
G75*
G02*
X0214648Y0365945I0000861J0000000D01*
G01*
X0216666Y0365945D01*
G75*
G02*
X0217527Y0365083I0000000J-000861D01*
G01*
X0217527Y0363361D01*
G75*
G02*
X0216666Y0362500I-000861J0000000D01*
G01*
G37*
G36*
G01*
X0216666Y0368701D02*
X0214648Y0368701D01*
G75*
G02*
X0213787Y0369562I0000000J0000861D01*
G01*
X0213787Y0371284D01*
G75*
G02*
X0214648Y0372145I0000861J0000000D01*
G01*
X0216666Y0372145D01*
G75*
G02*
X0217527Y0371284I0000000J-000861D01*
G01*
X0217527Y0369562D01*
G75*
G02*
X0216666Y0368701I-000861J0000000D01*
G01*
G37*
G36*
G01*
X0209704Y0356555D02*
X0207027Y0356555D01*
G75*
G02*
X0206692Y0356890I0000000J0000335D01*
G01*
X0206692Y0359567D01*
G75*
G02*
X0207027Y0359901I0000335J0000000D01*
G01*
X0209704Y0359901D01*
G75*
G02*
X0210039Y0359567I0000000J-000335D01*
G01*
X0210039Y0356890D01*
G75*
G02*
X0209704Y0356555I-000335J0000000D01*
G01*
G37*
G36*
G01*
X0209704Y0350334D02*
X0207027Y0350334D01*
G75*
G02*
X0206692Y0350669I0000000J0000335D01*
G01*
X0206692Y0353346D01*
G75*
G02*
X0207027Y0353681I0000335J0000000D01*
G01*
X0209704Y0353681D01*
G75*
G02*
X0210039Y0353346I0000000J-000335D01*
G01*
X0210039Y0350669D01*
G75*
G02*
X0209704Y0350334I-000335J0000000D01*
G01*
G37*
G36*
G01*
X0204397Y0350334D02*
X0201720Y0350334D01*
G75*
G02*
X0201385Y0350669I0000000J0000335D01*
G01*
X0201385Y0353346D01*
G75*
G02*
X0201720Y0353681I0000335J0000000D01*
G01*
X0204397Y0353681D01*
G75*
G02*
X0204732Y0353346I0000000J-000335D01*
G01*
X0204732Y0350669D01*
G75*
G02*
X0204397Y0350334I-000335J0000000D01*
G01*
G37*
G36*
G01*
X0204397Y0356555D02*
X0201720Y0356555D01*
G75*
G02*
X0201385Y0356890I0000000J0000335D01*
G01*
X0201385Y0359567D01*
G75*
G02*
X0201720Y0359901I0000335J0000000D01*
G01*
X0204397Y0359901D01*
G75*
G02*
X0204732Y0359567I0000000J-000335D01*
G01*
X0204732Y0356890D01*
G75*
G02*
X0204397Y0356555I-000335J0000000D01*
G01*
G37*
G36*
G01*
X0210598Y0375748D02*
X0210598Y0373071D01*
G75*
G02*
X0210263Y0372736I-000335J0000000D01*
G01*
X0207586Y0372736D01*
G75*
G02*
X0207252Y0373071I0000000J0000335D01*
G01*
X0207252Y0375748D01*
G75*
G02*
X0207586Y0376082I0000335J0000000D01*
G01*
X0210263Y0376082D01*
G75*
G02*
X0210598Y0375748I0000000J-000335D01*
G01*
G37*
G36*
G01*
X0204378Y0375748D02*
X0204378Y0373071D01*
G75*
G02*
X0204043Y0372736I-000335J0000000D01*
G01*
X0201366Y0372736D01*
G75*
G02*
X0201031Y0373071I0000000J0000335D01*
G01*
X0201031Y0375748D01*
G75*
G02*
X0201366Y0376082I0000335J0000000D01*
G01*
X0204043Y0376082D01*
G75*
G02*
X0204378Y0375748I0000000J-000335D01*
G01*
G37*
X0468118Y0280807D02*
%LPD*%
G01*
G36*
G01*
X0503827Y0213199D02*
X0503827Y0214557D01*
G75*
G02*
X0504407Y0215138I0000581J0000000D01*
G01*
X0505569Y0215138D01*
G75*
G02*
X0506149Y0214557I0000000J-000581D01*
G01*
X0506149Y0213199D01*
G75*
G02*
X0505569Y0212618I-000581J0000000D01*
G01*
X0504407Y0212618D01*
G75*
G02*
X0503827Y0213199I0000000J0000581D01*
G01*
G37*
G36*
G01*
X0507646Y0213199D02*
X0507646Y0214557D01*
G75*
G02*
X0508226Y0215138I0000581J0000000D01*
G01*
X0509388Y0215138D01*
G75*
G02*
X0509968Y0214557I0000000J-000581D01*
G01*
X0509968Y0213199D01*
G75*
G02*
X0509388Y0212618I-000581J0000000D01*
G01*
X0508226Y0212618D01*
G75*
G02*
X0507646Y0213199I0000000J0000581D01*
G01*
G37*
G36*
G01*
X0488403Y0271772D02*
X0489762Y0271772D01*
G75*
G02*
X0490342Y0271191I0000000J-000581D01*
G01*
X0490342Y0270029D01*
G75*
G02*
X0489762Y0269449I-000581J0000000D01*
G01*
X0488403Y0269449D01*
G75*
G02*
X0487823Y0270029I0000000J0000581D01*
G01*
X0487823Y0271191D01*
G75*
G02*
X0488403Y0271772I0000581J0000000D01*
G01*
G37*
G36*
G01*
X0488403Y0267953D02*
X0489762Y0267953D01*
G75*
G02*
X0490342Y0267372I0000000J-000581D01*
G01*
X0490342Y0266211D01*
G75*
G02*
X0489762Y0265630I-000581J0000000D01*
G01*
X0488403Y0265630D01*
G75*
G02*
X0487823Y0266211I0000000J0000581D01*
G01*
X0487823Y0267372D01*
G75*
G02*
X0488403Y0267953I0000581J0000000D01*
G01*
G37*
G36*
G01*
X0503600Y0261245D02*
X0503600Y0259227D01*
G75*
G02*
X0502739Y0258366I-000861J0000000D01*
G01*
X0501017Y0258366D01*
G75*
G02*
X0500155Y0259227I0000000J0000861D01*
G01*
X0500155Y0261245D01*
G75*
G02*
X0501017Y0262106I0000861J0000000D01*
G01*
X0502739Y0262106D01*
G75*
G02*
X0503600Y0261245I0000000J-000861D01*
G01*
G37*
G36*
G01*
X0497399Y0261245D02*
X0497399Y0259227D01*
G75*
G02*
X0496538Y0258366I-000861J0000000D01*
G01*
X0494816Y0258366D01*
G75*
G02*
X0493955Y0259227I0000000J0000861D01*
G01*
X0493955Y0261245D01*
G75*
G02*
X0494816Y0262106I0000861J0000000D01*
G01*
X0496538Y0262106D01*
G75*
G02*
X0497399Y0261245I0000000J-000861D01*
G01*
G37*
G36*
G01*
X0478571Y0214754D02*
X0478571Y0213396D01*
G75*
G02*
X0477990Y0212815I-000581J0000000D01*
G01*
X0476829Y0212815D01*
G75*
G02*
X0476248Y0213396I0000000J0000581D01*
G01*
X0476248Y0214754D01*
G75*
G02*
X0476829Y0215335I0000581J0000000D01*
G01*
X0477990Y0215335D01*
G75*
G02*
X0478571Y0214754I0000000J-000581D01*
G01*
G37*
G36*
G01*
X0474752Y0214754D02*
X0474752Y0213396D01*
G75*
G02*
X0474171Y0212815I-000581J0000000D01*
G01*
X0473010Y0212815D01*
G75*
G02*
X0472429Y0213396I0000000J0000581D01*
G01*
X0472429Y0214754D01*
G75*
G02*
X0473010Y0215335I0000581J0000000D01*
G01*
X0474171Y0215335D01*
G75*
G02*
X0474752Y0214754I0000000J-000581D01*
G01*
G37*
D175*
X0494398Y0265945D03*
X0501878Y0265945D03*
X0498138Y0273819D03*
G36*
G01*
X0478571Y0218937D02*
X0478571Y0217579D01*
G75*
G02*
X0477990Y0216998I-000581J0000000D01*
G01*
X0476829Y0216998D01*
G75*
G02*
X0476248Y0217579I0000000J0000581D01*
G01*
X0476248Y0218937D01*
G75*
G02*
X0476829Y0219518I0000581J0000000D01*
G01*
X0477990Y0219518D01*
G75*
G02*
X0478571Y0218937I0000000J-000581D01*
G01*
G37*
G36*
G01*
X0474752Y0218937D02*
X0474752Y0217579D01*
G75*
G02*
X0474171Y0216998I-000581J0000000D01*
G01*
X0473010Y0216998D01*
G75*
G02*
X0472429Y0217579I0000000J0000581D01*
G01*
X0472429Y0218937D01*
G75*
G02*
X0473010Y0219518I0000581J0000000D01*
G01*
X0474171Y0219518D01*
G75*
G02*
X0474752Y0218937I0000000J-000581D01*
G01*
G37*
G36*
G01*
X0502488Y0214557D02*
X0502488Y0213199D01*
G75*
G02*
X0501907Y0212618I-000581J0000000D01*
G01*
X0500746Y0212618D01*
G75*
G02*
X0500165Y0213199I0000000J0000581D01*
G01*
X0500165Y0214557D01*
G75*
G02*
X0500746Y0215138I0000581J0000000D01*
G01*
X0501907Y0215138D01*
G75*
G02*
X0502488Y0214557I0000000J-000581D01*
G01*
G37*
G36*
G01*
X0498669Y0214557D02*
X0498669Y0213199D01*
G75*
G02*
X0498088Y0212618I-000581J0000000D01*
G01*
X0496927Y0212618D01*
G75*
G02*
X0496346Y0213199I0000000J0000581D01*
G01*
X0496346Y0214557D01*
G75*
G02*
X0496927Y0215138I0000581J0000000D01*
G01*
X0498088Y0215138D01*
G75*
G02*
X0498669Y0214557I0000000J-000581D01*
G01*
G37*
G36*
G01*
X0514752Y0218317D02*
X0514752Y0219675D01*
G75*
G02*
X0515333Y0220256I0000581J0000000D01*
G01*
X0516494Y0220256D01*
G75*
G02*
X0517075Y0219675I0000000J-000581D01*
G01*
X0517075Y0218317D01*
G75*
G02*
X0516494Y0217736I-000581J0000000D01*
G01*
X0515333Y0217736D01*
G75*
G02*
X0514752Y0218317I0000000J0000581D01*
G01*
G37*
G36*
G01*
X0518571Y0218317D02*
X0518571Y0219675D01*
G75*
G02*
X0519151Y0220256I0000581J0000000D01*
G01*
X0520313Y0220256D01*
G75*
G02*
X0520894Y0219675I0000000J-000581D01*
G01*
X0520894Y0218317D01*
G75*
G02*
X0520313Y0217736I-000581J0000000D01*
G01*
X0519151Y0217736D01*
G75*
G02*
X0518571Y0218317I0000000J0000581D01*
G01*
G37*
G36*
G01*
X0487980Y0213199D02*
X0487980Y0214557D01*
G75*
G02*
X0488561Y0215138I0000581J0000000D01*
G01*
X0489722Y0215138D01*
G75*
G02*
X0490303Y0214557I0000000J-000581D01*
G01*
X0490303Y0213199D01*
G75*
G02*
X0489722Y0212618I-000581J0000000D01*
G01*
X0488561Y0212618D01*
G75*
G02*
X0487980Y0213199I0000000J0000581D01*
G01*
G37*
G36*
G01*
X0491799Y0213199D02*
X0491799Y0214557D01*
G75*
G02*
X0492380Y0215138I0000581J0000000D01*
G01*
X0493541Y0215138D01*
G75*
G02*
X0494122Y0214557I0000000J-000581D01*
G01*
X0494122Y0213199D01*
G75*
G02*
X0493541Y0212618I-000581J0000000D01*
G01*
X0492380Y0212618D01*
G75*
G02*
X0491799Y0213199I0000000J0000581D01*
G01*
G37*
G36*
G01*
X0514752Y0252963D02*
X0514752Y0254321D01*
G75*
G02*
X0515333Y0254901I0000581J0000000D01*
G01*
X0516494Y0254901D01*
G75*
G02*
X0517075Y0254321I0000000J-000581D01*
G01*
X0517075Y0252963D01*
G75*
G02*
X0516494Y0252382I-000581J0000000D01*
G01*
X0515333Y0252382D01*
G75*
G02*
X0514752Y0252963I0000000J0000581D01*
G01*
G37*
G36*
G01*
X0518571Y0252963D02*
X0518571Y0254321D01*
G75*
G02*
X0519151Y0254901I0000581J0000000D01*
G01*
X0520313Y0254901D01*
G75*
G02*
X0520894Y0254321I0000000J-000581D01*
G01*
X0520894Y0252963D01*
G75*
G02*
X0520313Y0252382I-000581J0000000D01*
G01*
X0519151Y0252382D01*
G75*
G02*
X0518571Y0252963I0000000J0000581D01*
G01*
G37*
D349*
X0489870Y0191496D03*
X0489870Y0203504D03*
X0476681Y0191496D03*
X0476681Y0203504D03*
D345*
X0508079Y0188524D03*
X0508079Y0206476D03*
G36*
G01*
X0488305Y0263996D02*
X0489663Y0263996D01*
G75*
G02*
X0490244Y0263415I0000000J-000581D01*
G01*
X0490244Y0262254D01*
G75*
G02*
X0489663Y0261673I-000581J0000000D01*
G01*
X0488305Y0261673D01*
G75*
G02*
X0487724Y0262254I0000000J0000581D01*
G01*
X0487724Y0263415D01*
G75*
G02*
X0488305Y0263996I0000581J0000000D01*
G01*
G37*
G36*
G01*
X0488305Y0260177D02*
X0489663Y0260177D01*
G75*
G02*
X0490244Y0259596I0000000J-000581D01*
G01*
X0490244Y0258435D01*
G75*
G02*
X0489663Y0257854I-000581J0000000D01*
G01*
X0488305Y0257854D01*
G75*
G02*
X0487724Y0258435I0000000J0000581D01*
G01*
X0487724Y0259596D01*
G75*
G02*
X0488305Y0260177I0000581J0000000D01*
G01*
G37*
G36*
G01*
X0474639Y0225492D02*
X0472621Y0225492D01*
G75*
G02*
X0471760Y0226353I0000000J0000861D01*
G01*
X0471760Y0228076D01*
G75*
G02*
X0472621Y0228937I0000861J0000000D01*
G01*
X0474639Y0228937D01*
G75*
G02*
X0475500Y0228076I0000000J-000861D01*
G01*
X0475500Y0226353D01*
G75*
G02*
X0474639Y0225492I-000861J0000000D01*
G01*
G37*
G36*
G01*
X0474639Y0231693D02*
X0472621Y0231693D01*
G75*
G02*
X0471760Y0232554I0000000J0000861D01*
G01*
X0471760Y0234276D01*
G75*
G02*
X0472621Y0235138I0000861J0000000D01*
G01*
X0474639Y0235138D01*
G75*
G02*
X0475500Y0234276I0000000J-000861D01*
G01*
X0475500Y0232554D01*
G75*
G02*
X0474639Y0231693I-000861J0000000D01*
G01*
G37*
G36*
G01*
X0478571Y0223120D02*
X0478571Y0221762D01*
G75*
G02*
X0477990Y0221181I-000581J0000000D01*
G01*
X0476829Y0221181D01*
G75*
G02*
X0476248Y0221762I0000000J0000581D01*
G01*
X0476248Y0223120D01*
G75*
G02*
X0476829Y0223701I0000581J0000000D01*
G01*
X0477990Y0223701D01*
G75*
G02*
X0478571Y0223120I0000000J-000581D01*
G01*
G37*
G36*
G01*
X0474752Y0223120D02*
X0474752Y0221762D01*
G75*
G02*
X0474171Y0221181I-000581J0000000D01*
G01*
X0473010Y0221181D01*
G75*
G02*
X0472429Y0221762I0000000J0000581D01*
G01*
X0472429Y0223120D01*
G75*
G02*
X0473010Y0223701I0000581J0000000D01*
G01*
X0474171Y0223701D01*
G75*
G02*
X0474752Y0223120I0000000J-000581D01*
G01*
G37*
G36*
G01*
X0474024Y0179011D02*
X0474024Y0181028D01*
G75*
G02*
X0474885Y0181890I0000861J0000000D01*
G01*
X0476607Y0181890D01*
G75*
G02*
X0477468Y0181028I0000000J-000861D01*
G01*
X0477468Y0179011D01*
G75*
G02*
X0476607Y0178150I-000861J0000000D01*
G01*
X0474885Y0178150D01*
G75*
G02*
X0474024Y0179011I0000000J0000861D01*
G01*
G37*
G36*
G01*
X0480224Y0179011D02*
X0480224Y0181028D01*
G75*
G02*
X0481086Y0181890I0000861J0000000D01*
G01*
X0482808Y0181890D01*
G75*
G02*
X0483669Y0181028I0000000J-000861D01*
G01*
X0483669Y0179011D01*
G75*
G02*
X0482808Y0178150I-000861J0000000D01*
G01*
X0481086Y0178150D01*
G75*
G02*
X0480224Y0179011I0000000J0000861D01*
G01*
G37*
G36*
G01*
X0472621Y0246850D02*
X0474639Y0246850D01*
G75*
G02*
X0475500Y0245989I0000000J-000861D01*
G01*
X0475500Y0244267D01*
G75*
G02*
X0474639Y0243405I-000861J0000000D01*
G01*
X0472621Y0243405D01*
G75*
G02*
X0471760Y0244267I0000000J0000861D01*
G01*
X0471760Y0245989D01*
G75*
G02*
X0472621Y0246850I0000861J0000000D01*
G01*
G37*
G36*
G01*
X0472621Y0240650D02*
X0474639Y0240650D01*
G75*
G02*
X0475500Y0239788I0000000J-000861D01*
G01*
X0475500Y0238066D01*
G75*
G02*
X0474639Y0237205I-000861J0000000D01*
G01*
X0472621Y0237205D01*
G75*
G02*
X0471760Y0238066I0000000J0000861D01*
G01*
X0471760Y0239788D01*
G75*
G02*
X0472621Y0240650I0000861J0000000D01*
G01*
G37*
G36*
G01*
X0476799Y0251171D02*
X0476799Y0249813D01*
G75*
G02*
X0476218Y0249232I-000581J0000000D01*
G01*
X0475057Y0249232D01*
G75*
G02*
X0474476Y0249813I0000000J0000581D01*
G01*
X0474476Y0251171D01*
G75*
G02*
X0475057Y0251752I0000581J0000000D01*
G01*
X0476218Y0251752D01*
G75*
G02*
X0476799Y0251171I0000000J-000581D01*
G01*
G37*
G36*
G01*
X0472980Y0251171D02*
X0472980Y0249813D01*
G75*
G02*
X0472399Y0249232I-000581J0000000D01*
G01*
X0471238Y0249232D01*
G75*
G02*
X0470657Y0249813I0000000J0000581D01*
G01*
X0470657Y0251171D01*
G75*
G02*
X0471238Y0251752I0000581J0000000D01*
G01*
X0472399Y0251752D01*
G75*
G02*
X0472980Y0251171I0000000J-000581D01*
G01*
G37*
G36*
G01*
X0489476Y0216732D02*
X0488492Y0216732D01*
G75*
G02*
X0488000Y0217224I0000000J0000492D01*
G01*
X0488000Y0222146D01*
G75*
G02*
X0488492Y0222638I0000492J0000000D01*
G01*
X0489476Y0222638D01*
G75*
G02*
X0489968Y0222146I0000000J-000492D01*
G01*
X0489968Y0217224D01*
G75*
G02*
X0489476Y0216732I-000492J0000000D01*
G01*
G37*
G36*
G01*
X0492626Y0216732D02*
X0491642Y0216732D01*
G75*
G02*
X0491149Y0217224I0000000J0000492D01*
G01*
X0491149Y0222146D01*
G75*
G02*
X0491642Y0222638I0000492J0000000D01*
G01*
X0492626Y0222638D01*
G75*
G02*
X0493118Y0222146I0000000J-000492D01*
G01*
X0493118Y0217224D01*
G75*
G02*
X0492626Y0216732I-000492J0000000D01*
G01*
G37*
G36*
G01*
X0495775Y0216732D02*
X0494791Y0216732D01*
G75*
G02*
X0494299Y0217224I0000000J0000492D01*
G01*
X0494299Y0222146D01*
G75*
G02*
X0494791Y0222638I0000492J0000000D01*
G01*
X0495775Y0222638D01*
G75*
G02*
X0496268Y0222146I0000000J-000492D01*
G01*
X0496268Y0217224D01*
G75*
G02*
X0495775Y0216732I-000492J0000000D01*
G01*
G37*
G36*
G01*
X0498925Y0216732D02*
X0497941Y0216732D01*
G75*
G02*
X0497449Y0217224I0000000J0000492D01*
G01*
X0497449Y0222146D01*
G75*
G02*
X0497941Y0222638I0000492J0000000D01*
G01*
X0498925Y0222638D01*
G75*
G02*
X0499417Y0222146I0000000J-000492D01*
G01*
X0499417Y0217224D01*
G75*
G02*
X0498925Y0216732I-000492J0000000D01*
G01*
G37*
G36*
G01*
X0502075Y0216732D02*
X0501090Y0216732D01*
G75*
G02*
X0500598Y0217224I0000000J0000492D01*
G01*
X0500598Y0222146D01*
G75*
G02*
X0501090Y0222638I0000492J0000000D01*
G01*
X0502075Y0222638D01*
G75*
G02*
X0502567Y0222146I0000000J-000492D01*
G01*
X0502567Y0217224D01*
G75*
G02*
X0502075Y0216732I-000492J0000000D01*
G01*
G37*
G36*
G01*
X0505224Y0216732D02*
X0504240Y0216732D01*
G75*
G02*
X0503748Y0217224I0000000J0000492D01*
G01*
X0503748Y0222146D01*
G75*
G02*
X0504240Y0222638I0000492J0000000D01*
G01*
X0505224Y0222638D01*
G75*
G02*
X0505716Y0222146I0000000J-000492D01*
G01*
X0505716Y0217224D01*
G75*
G02*
X0505224Y0216732I-000492J0000000D01*
G01*
G37*
G36*
G01*
X0508374Y0216732D02*
X0507390Y0216732D01*
G75*
G02*
X0506898Y0217224I0000000J0000492D01*
G01*
X0506898Y0222146D01*
G75*
G02*
X0507390Y0222638I0000492J0000000D01*
G01*
X0508374Y0222638D01*
G75*
G02*
X0508866Y0222146I0000000J-000492D01*
G01*
X0508866Y0217224D01*
G75*
G02*
X0508374Y0216732I-000492J0000000D01*
G01*
G37*
G36*
G01*
X0511524Y0216732D02*
X0510539Y0216732D01*
G75*
G02*
X0510047Y0217224I0000000J0000492D01*
G01*
X0510047Y0222146D01*
G75*
G02*
X0510539Y0222638I0000492J0000000D01*
G01*
X0511524Y0222638D01*
G75*
G02*
X0512016Y0222146I0000000J-000492D01*
G01*
X0512016Y0217224D01*
G75*
G02*
X0511524Y0216732I-000492J0000000D01*
G01*
G37*
G36*
G01*
X0518905Y0224114D02*
X0513984Y0224114D01*
G75*
G02*
X0513492Y0224606I0000000J0000492D01*
G01*
X0513492Y0225590D01*
G75*
G02*
X0513984Y0226083I0000492J0000000D01*
G01*
X0518905Y0226083D01*
G75*
G02*
X0519398Y0225590I0000000J-000492D01*
G01*
X0519398Y0224606D01*
G75*
G02*
X0518905Y0224114I-000492J0000000D01*
G01*
G37*
G36*
G01*
X0518905Y0227264D02*
X0513984Y0227264D01*
G75*
G02*
X0513492Y0227756I0000000J0000492D01*
G01*
X0513492Y0228740D01*
G75*
G02*
X0513984Y0229232I0000492J0000000D01*
G01*
X0518905Y0229232D01*
G75*
G02*
X0519398Y0228740I0000000J-000492D01*
G01*
X0519398Y0227756D01*
G75*
G02*
X0518905Y0227264I-000492J0000000D01*
G01*
G37*
G36*
G01*
X0518905Y0230413D02*
X0513984Y0230413D01*
G75*
G02*
X0513492Y0230905I0000000J0000492D01*
G01*
X0513492Y0231890D01*
G75*
G02*
X0513984Y0232382I0000492J0000000D01*
G01*
X0518905Y0232382D01*
G75*
G02*
X0519398Y0231890I0000000J-000492D01*
G01*
X0519398Y0230905D01*
G75*
G02*
X0518905Y0230413I-000492J0000000D01*
G01*
G37*
G36*
G01*
X0518905Y0233563D02*
X0513984Y0233563D01*
G75*
G02*
X0513492Y0234055I0000000J0000492D01*
G01*
X0513492Y0235039D01*
G75*
G02*
X0513984Y0235531I0000492J0000000D01*
G01*
X0518905Y0235531D01*
G75*
G02*
X0519398Y0235039I0000000J-000492D01*
G01*
X0519398Y0234055D01*
G75*
G02*
X0518905Y0233563I-000492J0000000D01*
G01*
G37*
G36*
G01*
X0518905Y0236713D02*
X0513984Y0236713D01*
G75*
G02*
X0513492Y0237205I0000000J0000492D01*
G01*
X0513492Y0238189D01*
G75*
G02*
X0513984Y0238681I0000492J0000000D01*
G01*
X0518905Y0238681D01*
G75*
G02*
X0519398Y0238189I0000000J-000492D01*
G01*
X0519398Y0237205D01*
G75*
G02*
X0518905Y0236713I-000492J0000000D01*
G01*
G37*
G36*
G01*
X0518905Y0239862D02*
X0513984Y0239862D01*
G75*
G02*
X0513492Y0240354I0000000J0000492D01*
G01*
X0513492Y0241338D01*
G75*
G02*
X0513984Y0241831I0000492J0000000D01*
G01*
X0518905Y0241831D01*
G75*
G02*
X0519398Y0241338I0000000J-000492D01*
G01*
X0519398Y0240354D01*
G75*
G02*
X0518905Y0239862I-000492J0000000D01*
G01*
G37*
G36*
G01*
X0518905Y0243012D02*
X0513984Y0243012D01*
G75*
G02*
X0513492Y0243504I0000000J0000492D01*
G01*
X0513492Y0244488D01*
G75*
G02*
X0513984Y0244980I0000492J0000000D01*
G01*
X0518905Y0244980D01*
G75*
G02*
X0519398Y0244488I0000000J-000492D01*
G01*
X0519398Y0243504D01*
G75*
G02*
X0518905Y0243012I-000492J0000000D01*
G01*
G37*
G36*
G01*
X0518905Y0246161D02*
X0513984Y0246161D01*
G75*
G02*
X0513492Y0246653I0000000J0000492D01*
G01*
X0513492Y0247638D01*
G75*
G02*
X0513984Y0248130I0000492J0000000D01*
G01*
X0518905Y0248130D01*
G75*
G02*
X0519398Y0247638I0000000J-000492D01*
G01*
X0519398Y0246653D01*
G75*
G02*
X0518905Y0246161I-000492J0000000D01*
G01*
G37*
G36*
G01*
X0511524Y0249606D02*
X0510539Y0249606D01*
G75*
G02*
X0510047Y0250098I0000000J0000492D01*
G01*
X0510047Y0255020D01*
G75*
G02*
X0510539Y0255512I0000492J0000000D01*
G01*
X0511524Y0255512D01*
G75*
G02*
X0512016Y0255020I0000000J-000492D01*
G01*
X0512016Y0250098D01*
G75*
G02*
X0511524Y0249606I-000492J0000000D01*
G01*
G37*
G36*
G01*
X0508374Y0249606D02*
X0507390Y0249606D01*
G75*
G02*
X0506898Y0250098I0000000J0000492D01*
G01*
X0506898Y0255020D01*
G75*
G02*
X0507390Y0255512I0000492J0000000D01*
G01*
X0508374Y0255512D01*
G75*
G02*
X0508866Y0255020I0000000J-000492D01*
G01*
X0508866Y0250098D01*
G75*
G02*
X0508374Y0249606I-000492J0000000D01*
G01*
G37*
G36*
G01*
X0505224Y0249606D02*
X0504240Y0249606D01*
G75*
G02*
X0503748Y0250098I0000000J0000492D01*
G01*
X0503748Y0255020D01*
G75*
G02*
X0504240Y0255512I0000492J0000000D01*
G01*
X0505224Y0255512D01*
G75*
G02*
X0505716Y0255020I0000000J-000492D01*
G01*
X0505716Y0250098D01*
G75*
G02*
X0505224Y0249606I-000492J0000000D01*
G01*
G37*
G36*
G01*
X0502075Y0249606D02*
X0501090Y0249606D01*
G75*
G02*
X0500598Y0250098I0000000J0000492D01*
G01*
X0500598Y0255020D01*
G75*
G02*
X0501090Y0255512I0000492J0000000D01*
G01*
X0502075Y0255512D01*
G75*
G02*
X0502567Y0255020I0000000J-000492D01*
G01*
X0502567Y0250098D01*
G75*
G02*
X0502075Y0249606I-000492J0000000D01*
G01*
G37*
G36*
G01*
X0498925Y0249606D02*
X0497941Y0249606D01*
G75*
G02*
X0497449Y0250098I0000000J0000492D01*
G01*
X0497449Y0255020D01*
G75*
G02*
X0497941Y0255512I0000492J0000000D01*
G01*
X0498925Y0255512D01*
G75*
G02*
X0499417Y0255020I0000000J-000492D01*
G01*
X0499417Y0250098D01*
G75*
G02*
X0498925Y0249606I-000492J0000000D01*
G01*
G37*
G36*
G01*
X0495775Y0249606D02*
X0494791Y0249606D01*
G75*
G02*
X0494299Y0250098I0000000J0000492D01*
G01*
X0494299Y0255020D01*
G75*
G02*
X0494791Y0255512I0000492J0000000D01*
G01*
X0495775Y0255512D01*
G75*
G02*
X0496268Y0255020I0000000J-000492D01*
G01*
X0496268Y0250098D01*
G75*
G02*
X0495775Y0249606I-000492J0000000D01*
G01*
G37*
G36*
G01*
X0492626Y0249606D02*
X0491642Y0249606D01*
G75*
G02*
X0491149Y0250098I0000000J0000492D01*
G01*
X0491149Y0255020D01*
G75*
G02*
X0491642Y0255512I0000492J0000000D01*
G01*
X0492626Y0255512D01*
G75*
G02*
X0493118Y0255020I0000000J-000492D01*
G01*
X0493118Y0250098D01*
G75*
G02*
X0492626Y0249606I-000492J0000000D01*
G01*
G37*
G36*
G01*
X0489476Y0249606D02*
X0488492Y0249606D01*
G75*
G02*
X0488000Y0250098I0000000J0000492D01*
G01*
X0488000Y0255020D01*
G75*
G02*
X0488492Y0255512I0000492J0000000D01*
G01*
X0489476Y0255512D01*
G75*
G02*
X0489968Y0255020I0000000J-000492D01*
G01*
X0489968Y0250098D01*
G75*
G02*
X0489476Y0249606I-000492J0000000D01*
G01*
G37*
G36*
G01*
X0486031Y0246161D02*
X0481110Y0246161D01*
G75*
G02*
X0480618Y0246653I0000000J0000492D01*
G01*
X0480618Y0247638D01*
G75*
G02*
X0481110Y0248130I0000492J0000000D01*
G01*
X0486031Y0248130D01*
G75*
G02*
X0486524Y0247638I0000000J-000492D01*
G01*
X0486524Y0246653D01*
G75*
G02*
X0486031Y0246161I-000492J0000000D01*
G01*
G37*
G36*
G01*
X0486031Y0243012D02*
X0481110Y0243012D01*
G75*
G02*
X0480618Y0243504I0000000J0000492D01*
G01*
X0480618Y0244488D01*
G75*
G02*
X0481110Y0244980I0000492J0000000D01*
G01*
X0486031Y0244980D01*
G75*
G02*
X0486524Y0244488I0000000J-000492D01*
G01*
X0486524Y0243504D01*
G75*
G02*
X0486031Y0243012I-000492J0000000D01*
G01*
G37*
G36*
G01*
X0486031Y0239862D02*
X0481110Y0239862D01*
G75*
G02*
X0480618Y0240354I0000000J0000492D01*
G01*
X0480618Y0241338D01*
G75*
G02*
X0481110Y0241831I0000492J0000000D01*
G01*
X0486031Y0241831D01*
G75*
G02*
X0486524Y0241338I0000000J-000492D01*
G01*
X0486524Y0240354D01*
G75*
G02*
X0486031Y0239862I-000492J0000000D01*
G01*
G37*
G36*
G01*
X0486031Y0236713D02*
X0481110Y0236713D01*
G75*
G02*
X0480618Y0237205I0000000J0000492D01*
G01*
X0480618Y0238189D01*
G75*
G02*
X0481110Y0238681I0000492J0000000D01*
G01*
X0486031Y0238681D01*
G75*
G02*
X0486524Y0238189I0000000J-000492D01*
G01*
X0486524Y0237205D01*
G75*
G02*
X0486031Y0236713I-000492J0000000D01*
G01*
G37*
G36*
G01*
X0486031Y0233563D02*
X0481110Y0233563D01*
G75*
G02*
X0480618Y0234055I0000000J0000492D01*
G01*
X0480618Y0235039D01*
G75*
G02*
X0481110Y0235531I0000492J0000000D01*
G01*
X0486031Y0235531D01*
G75*
G02*
X0486524Y0235039I0000000J-000492D01*
G01*
X0486524Y0234055D01*
G75*
G02*
X0486031Y0233563I-000492J0000000D01*
G01*
G37*
G36*
G01*
X0486031Y0230413D02*
X0481110Y0230413D01*
G75*
G02*
X0480618Y0230905I0000000J0000492D01*
G01*
X0480618Y0231890D01*
G75*
G02*
X0481110Y0232382I0000492J0000000D01*
G01*
X0486031Y0232382D01*
G75*
G02*
X0486524Y0231890I0000000J-000492D01*
G01*
X0486524Y0230905D01*
G75*
G02*
X0486031Y0230413I-000492J0000000D01*
G01*
G37*
G36*
G01*
X0486031Y0227264D02*
X0481110Y0227264D01*
G75*
G02*
X0480618Y0227756I0000000J0000492D01*
G01*
X0480618Y0228740D01*
G75*
G02*
X0481110Y0229232I0000492J0000000D01*
G01*
X0486031Y0229232D01*
G75*
G02*
X0486524Y0228740I0000000J-000492D01*
G01*
X0486524Y0227756D01*
G75*
G02*
X0486031Y0227264I-000492J0000000D01*
G01*
G37*
G36*
G01*
X0486031Y0224114D02*
X0481110Y0224114D01*
G75*
G02*
X0480618Y0224606I0000000J0000492D01*
G01*
X0480618Y0225590D01*
G75*
G02*
X0481110Y0226083I0000492J0000000D01*
G01*
X0486031Y0226083D01*
G75*
G02*
X0486524Y0225590I0000000J-000492D01*
G01*
X0486524Y0224606D01*
G75*
G02*
X0486031Y0224114I-000492J0000000D01*
G01*
G37*
G36*
G01*
X0507577Y0258740D02*
X0506218Y0258740D01*
G75*
G02*
X0505638Y0259321I0000000J0000581D01*
G01*
X0505638Y0260482D01*
G75*
G02*
X0506218Y0261063I0000581J0000000D01*
G01*
X0507577Y0261063D01*
G75*
G02*
X0508157Y0260482I0000000J-000581D01*
G01*
X0508157Y0259321D01*
G75*
G02*
X0507577Y0258740I-000581J0000000D01*
G01*
G37*
G36*
G01*
X0507577Y0262559D02*
X0506218Y0262559D01*
G75*
G02*
X0505638Y0263140I0000000J0000581D01*
G01*
X0505638Y0264301D01*
G75*
G02*
X0506218Y0264882I0000581J0000000D01*
G01*
X0507577Y0264882D01*
G75*
G02*
X0508157Y0264301I0000000J-000581D01*
G01*
X0508157Y0263140D01*
G75*
G02*
X0507577Y0262559I-000581J0000000D01*
G01*
G37*
G36*
G01*
X0484181Y0251663D02*
X0484181Y0250305D01*
G75*
G02*
X0483600Y0249724I-000581J0000000D01*
G01*
X0482439Y0249724D01*
G75*
G02*
X0481858Y0250305I0000000J0000581D01*
G01*
X0481858Y0251663D01*
G75*
G02*
X0482439Y0252244I0000581J0000000D01*
G01*
X0483600Y0252244D01*
G75*
G02*
X0484181Y0251663I0000000J-000581D01*
G01*
G37*
G36*
G01*
X0480362Y0251663D02*
X0480362Y0250305D01*
G75*
G02*
X0479781Y0249724I-000581J0000000D01*
G01*
X0478620Y0249724D01*
G75*
G02*
X0478039Y0250305I0000000J0000581D01*
G01*
X0478039Y0251663D01*
G75*
G02*
X0478620Y0252244I0000581J0000000D01*
G01*
X0479781Y0252244D01*
G75*
G02*
X0480362Y0251663I0000000J-000581D01*
G01*
G37*
G36*
G01*
X0506218Y0275307D02*
X0507577Y0275307D01*
G75*
G02*
X0508157Y0274726I0000000J-000581D01*
G01*
X0508157Y0273565D01*
G75*
G02*
X0507577Y0272984I-000581J0000000D01*
G01*
X0506218Y0272984D01*
G75*
G02*
X0505638Y0273565I0000000J0000581D01*
G01*
X0505638Y0274726D01*
G75*
G02*
X0506218Y0275307I0000581J0000000D01*
G01*
G37*
G36*
G01*
X0506218Y0271488D02*
X0507577Y0271488D01*
G75*
G02*
X0508157Y0270907I0000000J-000581D01*
G01*
X0508157Y0269746D01*
G75*
G02*
X0507577Y0269165I-000581J0000000D01*
G01*
X0506218Y0269165D01*
G75*
G02*
X0505638Y0269746I0000000J0000581D01*
G01*
X0505638Y0270907D01*
G75*
G02*
X0506218Y0271488I0000581J0000000D01*
G01*
G37*
D172*
X0511819Y0273819D03*
X0511819Y0266338D03*
X0519693Y0270079D03*
G36*
G01*
X0486051Y0214754D02*
X0486051Y0213396D01*
G75*
G02*
X0485470Y0212815I-000581J0000000D01*
G01*
X0484309Y0212815D01*
G75*
G02*
X0483728Y0213396I0000000J0000581D01*
G01*
X0483728Y0214754D01*
G75*
G02*
X0484309Y0215335I0000581J0000000D01*
G01*
X0485470Y0215335D01*
G75*
G02*
X0486051Y0214754I0000000J-000581D01*
G01*
G37*
G36*
G01*
X0482232Y0214754D02*
X0482232Y0213396D01*
G75*
G02*
X0481651Y0212815I-000581J0000000D01*
G01*
X0480490Y0212815D01*
G75*
G02*
X0479909Y0213396I0000000J0000581D01*
G01*
X0479909Y0214754D01*
G75*
G02*
X0480490Y0215335I0000581J0000000D01*
G01*
X0481651Y0215335D01*
G75*
G02*
X0482232Y0214754I0000000J-000581D01*
G01*
G37*
G36*
G01*
X0521090Y0260881D02*
X0521090Y0258863D01*
G75*
G02*
X0520229Y0258002I-000861J0000000D01*
G01*
X0518507Y0258002D01*
G75*
G02*
X0517646Y0258863I0000000J0000861D01*
G01*
X0517646Y0260881D01*
G75*
G02*
X0518507Y0261742I0000861J0000000D01*
G01*
X0520229Y0261742D01*
G75*
G02*
X0521090Y0260881I0000000J-000861D01*
G01*
G37*
G36*
G01*
X0514890Y0260881D02*
X0514890Y0258863D01*
G75*
G02*
X0514028Y0258002I-000861J0000000D01*
G01*
X0512306Y0258002D01*
G75*
G02*
X0511445Y0258863I0000000J0000861D01*
G01*
X0511445Y0260881D01*
G75*
G02*
X0512306Y0261742I0000861J0000000D01*
G01*
X0514028Y0261742D01*
G75*
G02*
X0514890Y0260881I0000000J-000861D01*
G01*
G37*
X0322252Y0254724D02*
G01*
G75*
D68*
X0268905Y0113385D02*
D03*
D67*
X0282685Y0113385D02*
D03*
D70*
X0188787Y0219488D02*
D03*
D65*
X0230520Y0113385D02*
D03*
X0314772Y0254330D02*
D03*
D66*
X0200992Y0254330D02*
D03*
X0306504Y0113385D02*
D03*
D63*
X0321858Y0218700D02*
D03*
D64*
X0321858Y0250196D02*
D03*
D62*
X0321858Y0164960D02*
D03*
D71*
X0188787Y0242322D02*
D03*
D69*
X0188787Y0126771D02*
D03*
D60*
X0321858Y0147441D02*
D03*
X0321858Y0123425D02*
D03*
D61*
X0321858Y0135433D02*
D03*
X0188787Y0161023D02*
D03*
D427*
X0198630Y0236634D02*
D03*
X0191543Y0236634D02*
D03*
X0191543Y0246673D02*
D03*
X0198630Y0246673D02*
D03*
X0310441Y0187893D02*
D03*
X0317528Y0187893D02*
D03*
X0317528Y0197933D02*
D03*
X0310441Y0197933D02*
D03*
X0310441Y0181791D02*
D03*
X0317528Y0181791D02*
D03*
X0317528Y0171751D02*
D03*
X0310441Y0171751D02*
D03*
D428*
X0198630Y0240078D02*
D03*
X0198630Y0243228D02*
D03*
X0191543Y0243228D02*
D03*
X0191543Y0240078D02*
D03*
X0317528Y0194488D02*
D03*
X0317528Y0191338D02*
D03*
X0310441Y0191338D02*
D03*
X0310441Y0194488D02*
D03*
X0310441Y0178346D02*
D03*
X0310441Y0175196D02*
D03*
X0317528Y0175196D02*
D03*
X0317528Y0178346D02*
D03*
D429*
X0202842Y0239630D02*
D03*
X0202842Y0237071D02*
D03*
X0202842Y0234511D02*
D03*
X0210322Y0239630D02*
D03*
X0210322Y0234511D02*
D03*
X0210322Y0237071D02*
D03*
X0210322Y0244255D02*
D03*
X0210322Y0249374D02*
D03*
X0202842Y0244255D02*
D03*
X0202842Y0246815D02*
D03*
X0202842Y0249374D02*
D03*
X0210322Y0246815D02*
D03*
D195*
X0270050Y0140354D02*
D03*
X0270050Y0142322D02*
D03*
X0270050Y0144291D02*
D03*
X0270050Y0146259D02*
D03*
X0270050Y0148228D02*
D03*
X0270050Y0150196D02*
D03*
X0270050Y0152165D02*
D03*
X0270050Y0154133D02*
D03*
X0270050Y0156102D02*
D03*
X0270050Y0160039D02*
D03*
X0270050Y0162008D02*
D03*
X0270050Y0163976D02*
D03*
X0270050Y0165945D02*
D03*
X0270050Y0167913D02*
D03*
X0270050Y0169882D02*
D03*
X0270050Y0171850D02*
D03*
X0270050Y0173819D02*
D03*
X0270050Y0175787D02*
D03*
X0270050Y0177756D02*
D03*
X0270050Y0179724D02*
D03*
X0270050Y0181692D02*
D03*
X0270050Y0183661D02*
D03*
X0270050Y0185629D02*
D03*
X0270050Y0187598D02*
D03*
X0209026Y0187598D02*
D03*
X0209026Y0185629D02*
D03*
X0209026Y0183661D02*
D03*
X0209026Y0181692D02*
D03*
X0209026Y0179724D02*
D03*
X0209026Y0177756D02*
D03*
X0209026Y0175787D02*
D03*
X0209026Y0173819D02*
D03*
X0209026Y0171850D02*
D03*
X0209026Y0169882D02*
D03*
X0209026Y0167913D02*
D03*
X0209026Y0165945D02*
D03*
X0209026Y0163976D02*
D03*
X0209026Y0162008D02*
D03*
X0209026Y0160039D02*
D03*
X0209026Y0158071D02*
D03*
X0209026Y0156102D02*
D03*
X0209026Y0154133D02*
D03*
X0209026Y0152165D02*
D03*
X0209026Y0150196D02*
D03*
X0209026Y0148228D02*
D03*
X0209026Y0146259D02*
D03*
X0209026Y0144291D02*
D03*
X0209026Y0140354D02*
D03*
X0270050Y0158071D02*
D03*
X0209026Y0142322D02*
D03*
D196*
X0263160Y0194488D02*
D03*
X0259223Y0194488D02*
D03*
X0257254Y0194488D02*
D03*
X0255286Y0194488D02*
D03*
X0253317Y0194488D02*
D03*
X0251349Y0194488D02*
D03*
X0249380Y0194488D02*
D03*
X0247412Y0194488D02*
D03*
X0245443Y0194488D02*
D03*
X0243475Y0194488D02*
D03*
X0241506Y0194488D02*
D03*
X0239538Y0194488D02*
D03*
X0237569Y0194488D02*
D03*
X0235601Y0194488D02*
D03*
X0233632Y0194488D02*
D03*
X0231664Y0194488D02*
D03*
X0229695Y0194488D02*
D03*
X0227727Y0194488D02*
D03*
X0225758Y0194488D02*
D03*
X0223790Y0194488D02*
D03*
X0221821Y0194488D02*
D03*
X0219853Y0194488D02*
D03*
X0217884Y0194488D02*
D03*
X0215916Y0194488D02*
D03*
X0215916Y0133464D02*
D03*
X0217884Y0133464D02*
D03*
X0219853Y0133464D02*
D03*
X0221821Y0133464D02*
D03*
X0223790Y0133464D02*
D03*
X0225758Y0133464D02*
D03*
X0227727Y0133464D02*
D03*
X0229695Y0133464D02*
D03*
X0231664Y0133464D02*
D03*
X0233632Y0133464D02*
D03*
X0235601Y0133464D02*
D03*
X0237569Y0133464D02*
D03*
X0239538Y0133464D02*
D03*
X0241506Y0133464D02*
D03*
X0243475Y0133464D02*
D03*
X0245443Y0133464D02*
D03*
X0247412Y0133464D02*
D03*
X0249380Y0133464D02*
D03*
X0251349Y0133464D02*
D03*
X0253317Y0133464D02*
D03*
X0255286Y0133464D02*
D03*
X0257254Y0133464D02*
D03*
X0259223Y0133464D02*
D03*
X0261191Y0133464D02*
D03*
X0263160Y0133464D02*
D03*
X0261191Y0194488D02*
D03*
D197*
X0266543Y0211417D02*
D03*
X0238591Y0211417D02*
D03*
X0294496Y0211417D02*
D03*
X0288984Y0216535D02*
D03*
X0261031Y0206299D02*
D03*
X0261031Y0208858D02*
D03*
X0261031Y0211417D02*
D03*
X0261031Y0213976D02*
D03*
X0261031Y0216535D02*
D03*
X0261031Y0219094D02*
D03*
X0261031Y0221653D02*
D03*
X0238591Y0206299D02*
D03*
X0238591Y0208858D02*
D03*
X0238591Y0213976D02*
D03*
X0238591Y0216535D02*
D03*
X0238591Y0219094D02*
D03*
X0238591Y0221653D02*
D03*
X0316937Y0206299D02*
D03*
X0316937Y0208858D02*
D03*
X0316937Y0211417D02*
D03*
X0316937Y0213976D02*
D03*
X0316937Y0216535D02*
D03*
X0316937Y0219094D02*
D03*
X0316937Y0221653D02*
D03*
X0294496Y0206299D02*
D03*
X0294496Y0208858D02*
D03*
X0294496Y0213976D02*
D03*
X0294496Y0216535D02*
D03*
X0294496Y0219094D02*
D03*
X0294496Y0221653D02*
D03*
X0288984Y0206299D02*
D03*
X0288984Y0208858D02*
D03*
X0288984Y0211417D02*
D03*
X0288984Y0213976D02*
D03*
X0288984Y0219094D02*
D03*
X0288984Y0221653D02*
D03*
X0266543Y0206299D02*
D03*
X0266543Y0208858D02*
D03*
X0266543Y0213976D02*
D03*
X0266543Y0216535D02*
D03*
X0266543Y0219094D02*
D03*
X0266543Y0221653D02*
D03*
X0210638Y0221653D02*
D03*
X0210638Y0219094D02*
D03*
X0210638Y0216535D02*
D03*
X0210638Y0213976D02*
D03*
X0210638Y0211417D02*
D03*
X0210638Y0208858D02*
D03*
X0210638Y0206299D02*
D03*
X0233079Y0221653D02*
D03*
X0233079Y0219094D02*
D03*
X0233079Y0216535D02*
D03*
X0233079Y0213976D02*
D03*
X0233079Y0211417D02*
D03*
X0233079Y0208858D02*
D03*
X0233079Y0206299D02*
D03*
D430*
X0197843Y0119291D02*
D03*
X0194102Y0119291D02*
D03*
X0201583Y0119291D02*
D03*
X0201583Y0128740D02*
D03*
X0197843Y0128740D02*
D03*
X0194102Y0128740D02*
D03*
D431*
X0196393Y0140551D02*
D03*
X0196393Y0135826D02*
D03*
X0197862Y0150098D02*
D03*
X0284402Y0123313D02*
D03*
X0271090Y0199179D02*
D03*
X0200329Y0140551D02*
D03*
X0193924Y0150098D02*
D03*
X0199224Y0187082D02*
D03*
X0195287Y0187082D02*
D03*
X0199224Y0196137D02*
D03*
X0195287Y0196137D02*
D03*
X0200329Y0135826D02*
D03*
X0280465Y0123313D02*
D03*
X0287542Y0140028D02*
D03*
X0283605Y0140028D02*
D03*
X0267153Y0199179D02*
D03*
X0267134Y0194883D02*
D03*
X0271071Y0194883D02*
D03*
D200*
X0193936Y0158733D02*
D03*
X0193936Y0160701D02*
D03*
X0200235Y0156764D02*
D03*
X0200235Y0158733D02*
D03*
X0200235Y0154796D02*
D03*
X0200235Y0160701D02*
D03*
X0193936Y0154796D02*
D03*
X0193936Y0156764D02*
D03*
D201*
X0196101Y0160898D02*
D03*
X0198070Y0160898D02*
D03*
X0198070Y0154599D02*
D03*
X0196101Y0154599D02*
D03*
D432*
X0198841Y0165748D02*
D03*
X0198841Y0182283D02*
D03*
D433*
X0227370Y0238189D02*
D03*
X0217921Y0238189D02*
D03*
X0222646Y0238189D02*
D03*
X0232094Y0238189D02*
D03*
X0217921Y0249606D02*
D03*
X0227370Y0249606D02*
D03*
X0222646Y0249606D02*
D03*
X0232094Y0249606D02*
D03*
X0238304Y0231209D02*
D03*
X0238304Y0227272D02*
D03*
X0232094Y0245669D02*
D03*
D03*
X0232094Y0241732D02*
D03*
X0227370Y0245669D02*
D03*
X0227370Y0241732D02*
D03*
X0232094Y0234252D02*
D03*
X0222646Y0245669D02*
D03*
X0222646Y0241732D02*
D03*
X0227370Y0234252D02*
D03*
X0222646Y0234252D02*
D03*
X0217921Y0245669D02*
D03*
X0217921Y0241732D02*
D03*
X0217921Y0245669D02*
D03*
X0217921Y0234252D02*
D03*
X0227370Y0245669D02*
D03*
X0222646Y0245669D02*
D03*
X0318118Y0243307D02*
D03*
X0318118Y0247244D02*
D03*
X0293512Y0245669D02*
D03*
X0293512Y0249606D02*
D03*
X0279339Y0245669D02*
D03*
X0279339Y0249606D02*
D03*
X0260441Y0241732D02*
D03*
X0260441Y0245669D02*
D03*
X0260441Y0249606D02*
D03*
X0260441Y0245669D02*
D03*
X0246268Y0241732D02*
D03*
X0246268Y0245669D02*
D03*
X0318118Y0226574D02*
D03*
X0318118Y0230511D02*
D03*
X0312409Y0245669D02*
D03*
X0312409Y0241732D02*
D03*
X0307685Y0245669D02*
D03*
X0307685Y0241732D02*
D03*
X0302961Y0245669D02*
D03*
X0302961Y0241732D02*
D03*
X0298236Y0245669D02*
D03*
X0298236Y0241732D02*
D03*
X0312409Y0245669D02*
D03*
X0312409Y0249606D02*
D03*
X0307685Y0245669D02*
D03*
X0307685Y0249606D02*
D03*
X0302961Y0245669D02*
D03*
X0302961Y0249606D02*
D03*
X0298236Y0245669D02*
D03*
X0298236Y0249606D02*
D03*
X0293512Y0245669D02*
D03*
X0293512Y0241732D02*
D03*
X0288787Y0245669D02*
D03*
X0288787Y0241732D02*
D03*
X0284063Y0245669D02*
D03*
X0284063Y0241732D02*
D03*
X0279339Y0245669D02*
D03*
X0279339Y0241732D02*
D03*
X0288787Y0245669D02*
D03*
X0288787Y0249606D02*
D03*
X0284063Y0245669D02*
D03*
X0284063Y0249606D02*
D03*
X0274614Y0241732D02*
D03*
X0274614Y0245669D02*
D03*
X0269890Y0241732D02*
D03*
X0269890Y0245669D02*
D03*
X0265165Y0241732D02*
D03*
X0265165Y0245669D02*
D03*
X0274614Y0249606D02*
D03*
X0274614Y0245669D02*
D03*
X0269890Y0249606D02*
D03*
X0269890Y0245669D02*
D03*
X0265165Y0249606D02*
D03*
X0265165Y0245669D02*
D03*
X0255716Y0241732D02*
D03*
X0255716Y0245669D02*
D03*
X0250992Y0241732D02*
D03*
X0250992Y0245669D02*
D03*
X0241543Y0241732D02*
D03*
X0241543Y0245669D02*
D03*
X0255716Y0249606D02*
D03*
X0255716Y0245669D02*
D03*
X0250992Y0249606D02*
D03*
X0250992Y0245669D02*
D03*
X0246268Y0249606D02*
D03*
X0246268Y0245669D02*
D03*
X0241543Y0249606D02*
D03*
X0241543Y0245669D02*
D03*
X0318118Y0235630D02*
D03*
X0318118Y0239567D02*
D03*
D434*
X0253354Y0232677D02*
D03*
X0272252Y0232677D02*
D03*
X0291150Y0232677D02*
D03*
X0310047Y0232677D02*
D03*
X0281701Y0228937D02*
D03*
X0281701Y0232677D02*
D03*
X0281701Y0236417D02*
D03*
X0291150Y0236417D02*
D03*
X0291150Y0228937D02*
D03*
X0300598Y0228937D02*
D03*
X0300598Y0232677D02*
D03*
X0300598Y0236417D02*
D03*
X0310047Y0236417D02*
D03*
X0310047Y0228937D02*
D03*
X0262803Y0228937D02*
D03*
X0262803Y0232677D02*
D03*
X0262803Y0236417D02*
D03*
X0272252Y0236417D02*
D03*
X0272252Y0228937D02*
D03*
X0243905Y0228937D02*
D03*
X0243905Y0232677D02*
D03*
X0243905Y0236417D02*
D03*
X0253354Y0236417D02*
D03*
X0253354Y0228937D02*
D03*
D435*
X0287339Y0135642D02*
D03*
X0269417Y0125393D02*
D03*
D206*
X0296661Y0160765D02*
D03*
X0315559Y0165765D02*
D03*
X0315559Y0150765D02*
D03*
X0315559Y0155765D02*
D03*
X0315559Y0160765D02*
D03*
X0296661Y0150765D02*
D03*
X0296661Y0155765D02*
D03*
X0296661Y0165765D02*
D03*
D436*
X0314969Y0143124D02*
D03*
X0296858Y0143124D02*
D03*
D437*
X0280507Y0174650D02*
D03*
X0296716Y0175198D02*
D03*
X0280030Y0182810D02*
D03*
X0280030Y0190421D02*
D03*
X0296716Y0182810D02*
D03*
X0296716Y0190421D02*
D03*
X0280030Y0198033D02*
D03*
X0296716Y0198033D02*
D03*
X0287200Y0174650D02*
D03*
X0286723Y0182810D02*
D03*
X0286723Y0190421D02*
D03*
X0286723Y0198033D02*
D03*
X0303409Y0182810D02*
D03*
X0303409Y0175198D02*
D03*
X0287200Y0166673D02*
D03*
X0280507Y0166673D02*
D03*
X0280507Y0159586D02*
D03*
X0287200Y0159586D02*
D03*
X0287200Y0152500D02*
D03*
X0280507Y0152500D02*
D03*
X0280507Y0145413D02*
D03*
X0287200Y0145413D02*
D03*
X0303409Y0190421D02*
D03*
X0303409Y0198033D02*
D03*
X0280507Y0117913D02*
D03*
X0287200Y0117913D02*
D03*
D438*
X0193833Y0145326D02*
D03*
X0200133Y0145326D02*
D03*
X0201193Y0191767D02*
D03*
X0194893Y0191767D02*
D03*
D439*
X0234458Y0122384D02*
D03*
X0250993Y0122384D02*
D03*
D435*
X0269417Y0117913D02*
D03*
X0260165Y0121653D02*
D03*
X0287339Y0128162D02*
D03*
X0278087Y0131902D02*
D03*
D440*
X0305913Y0118714D02*
D03*
D441*
X0305913Y0143124D02*
D03*
D81*
X0236622Y0245669D02*
D03*
X0317528Y0251574D02*
D03*
D442*
X0199431Y0227927D02*
D03*
X0199431Y0210211D02*
D03*
X0080815Y0191043D02*
G01*
G75*
D247*
X0092232Y0204055D02*
D03*
X0088492Y0194803D02*
D03*
D247*
X0084752Y0204055D02*
D03*
D206*
X0099791Y0215669D02*
D03*
X0099791Y0210669D02*
D03*
X0099791Y0205669D02*
D03*
X0099791Y0200669D02*
D03*
X0118689Y0215669D02*
D03*
X0118689Y0210669D02*
D03*
X0118689Y0205669D02*
D03*
X0118689Y0200669D02*
D03*
D118*
X0115500Y0195374D02*
D03*
X0121720Y0195374D02*
D03*
X0107154Y0195374D02*
D03*
X0100933Y0195374D02*
D03*
D277*
X0085342Y0208956D02*
D03*
X0091642Y0208956D02*
D03*
D30*
X0095972Y0192913D02*
D03*
M02*
